<?xml version="1.0" encoding="utf-8"?>
<!-- Generator: Adobe Illustrator 26.3.1, SVG Export Plug-In . SVG Version: 6.00 Build 0)  -->
<svg version="1.1" id="Layer_1" xmlns="http://www.w3.org/2000/svg" xmlns:xlink="http://www.w3.org/1999/xlink" x="0px" y="0px"
	 viewBox="0 0 298.9 129.8" style="enable-background:new 0 0 298.9 129.8;" xml:space="preserve">
<style type="text/css">
	.st0{fill:#FFCB05;}
	.st1{fill:#00B6F1;}
	.st2{fill:#00B2DB;}
	.st3{fill:none;stroke:#000000;stroke-width:1.5;stroke-linecap:round;stroke-linejoin:round;stroke-miterlimit:10;}
	.st4{fill:#FFCB05;stroke:#000000;stroke-width:1.5;stroke-linecap:round;stroke-linejoin:round;stroke-miterlimit:10;}
	.st5{fill:#00B6F1;stroke:#000000;stroke-width:1.5;stroke-linecap:round;stroke-linejoin:round;}
	.st6{fill:#ED1C24;}
	.st7{fill:none;stroke:#34393A;stroke-miterlimit:10;}
</style>
<g>
	<g>
		<path class="st0" d="M68.6,20.7l-41.6,50h41.6v16.7H0.8V70.7l41.6-50H0.8V4h67.8V20.7z"/>
		<path d="M68.6,88.1H0.8c-0.4,0-0.8-0.3-0.8-0.8V70.7c0-0.2,0.1-0.3,0.2-0.5l40.6-48.7h-40c-0.4,0-0.8-0.3-0.8-0.8V4
			c0-0.4,0.3-0.8,0.8-0.8h67.8c0.4,0,0.8,0.3,0.8,0.8v16.7c0,0.2-0.1,0.3-0.2,0.5L28.5,69.9h40c0.4,0,0.8,0.3,0.8,0.8v16.7
			C69.3,87.7,69,88.1,68.6,88.1z M1.5,86.6h66.3V71.4H26.9c-0.3,0-0.6-0.2-0.7-0.4s-0.1-0.6,0.1-0.8l41.5-49.8V4.8H1.5v15.2h40.9
			c0.3,0,0.6,0.2,0.7,0.4c0.1,0.3,0.1,0.6-0.1,0.8L1.5,70.9V86.6z M68.6,20.7L68.6,20.7L68.6,20.7z"/>
	</g>
	<g>
		<polygon class="st1" points="68.6,87.3 80.7,78.2 80.7,64.5 68.6,70.7 		"/>
		<path d="M68.6,88.1c-0.1,0-0.2,0-0.3-0.1c-0.3-0.1-0.4-0.4-0.4-0.7V70.7c0-0.3,0.2-0.5,0.4-0.7l12.1-6.2c0.2-0.1,0.5-0.1,0.7,0
			c0.2,0.1,0.4,0.4,0.4,0.6v13.7c0,0.2-0.1,0.5-0.3,0.6L69,87.9C68.9,88,68.7,88.1,68.6,88.1z M69.3,71.1v14.7l10.6-8V65.7
			L69.3,71.1z"/>
	</g>
	<g>
	</g>
	<g>
	</g>
	<g>
		<polygon class="st1" points="68.6,4 80.7,9.6 80.7,23.1 68.6,20.7 		"/>
		<path d="M80.7,23.9c0,0-0.1,0-0.1,0l-12.1-2.5c-0.3-0.1-0.6-0.4-0.6-0.7V4c0-0.3,0.1-0.5,0.3-0.6c0.2-0.1,0.5-0.2,0.7,0L81,8.9
			c0.3,0.1,0.4,0.4,0.4,0.7v13.5c0,0.2-0.1,0.4-0.3,0.6C81,23.8,80.8,23.9,80.7,23.9z M69.3,20.1l10.6,2.1V10.1L69.3,5.2V20.1z"/>
	</g>
	<g>
	</g>
	<g>
	</g>
	<g>
		<polygon class="st2" points="32.1,64.5 26.9,70.7 68.6,70.7 80.7,64.5 		"/>
		<path d="M68.6,71.4L68.6,71.4l-41.6,0c-0.3,0-0.6-0.2-0.7-0.4s-0.1-0.6,0.1-0.8l5.1-6.2c0.1-0.2,0.4-0.3,0.6-0.3l48.6,0h0
			c0.3,0,0.6,0.2,0.7,0.6c0.1,0.3-0.1,0.7-0.4,0.8l-12.1,6.2C68.8,71.4,68.7,71.4,68.6,71.4z M28.5,69.9l39.9,0l9.2-4.7l-45.2,0
			L28.5,69.9z"/>
	</g>
	<g>
		<polygon class="st1" points="80.7,23.1 68.6,20.7 26.9,70.7 45.2,64.4 		"/>
		<path d="M26.9,71.4c-0.2,0-0.5-0.1-0.6-0.3c-0.2-0.3-0.2-0.6,0-0.9l41.6-50c0.2-0.2,0.5-0.3,0.7-0.3l12.1,2.5
			c0.3,0.1,0.5,0.2,0.6,0.5s0,0.5-0.1,0.7L45.8,64.9c-0.1,0.1-0.2,0.2-0.3,0.2l-18.3,6.2C27.1,71.4,27,71.4,26.9,71.4z M68.9,21.5
			L29.2,69.1l15.6-5.3l34.5-40.2L68.9,21.5z"/>
	</g>
	<g>
		<path class="st3" d="M68.6,4"/>
	</g>
	<g>
		<path class="st3" d="M68.6,87.3"/>
	</g>
	<g>
		<path class="st3" d="M26.9,70.7"/>
	</g>
	<g>
		<path class="st3" d="M0.8,20.7"/>
	</g>
	<g>
		<polygon class="st2" points="42.4,20.7 0.8,20.7 39.1,24.7 		"/>
		<path d="M39.1,25.4C39,25.4,39,25.4,39.1,25.4l-38.4-4C0.3,21.4,0,21,0,20.6c0-0.4,0.4-0.7,0.7-0.7h41.6c0.3,0,0.6,0.2,0.7,0.4
			c0.1,0.3,0.1,0.6-0.1,0.8l-3.3,4C39.5,25.3,39.3,25.4,39.1,25.4z M15.2,21.4l23.6,2.5l2-2.5H15.2z"/>
	</g>
</g>
<path class="st1" d="M87,129.8"/>
<g>
	<g>
		<polygon class="st2" points="120.1,20.7 132.2,23.1 123.4,23.1 109.4,20.7 		"/>
		<path d="M132.2,23.9h-8.8c0,0-0.1,0-0.1,0l-14-2.5c-0.4-0.1-0.7-0.4-0.6-0.8s0.4-0.7,0.7-0.7h10.7c0,0,0.1,0,0.1,0l12.1,2.5
			c0.4,0.1,0.6,0.4,0.6,0.8C132.9,23.6,132.6,23.9,132.2,23.9z M123.5,22.4h1.3l-4.7-1h-2L123.5,22.4z"/>
	</g>
	<g>
		<g>
			<polygon class="st1" points="120.1,87.3 132.2,78.2 132.2,64.5 120.1,70.7 			"/>
			<path d="M120.1,88.1c-0.1,0-0.2,0-0.3-0.1c-0.3-0.1-0.4-0.4-0.4-0.7V70.7c0-0.3,0.2-0.5,0.4-0.7l12.1-6.2c0.2-0.1,0.5-0.1,0.7,0
				c0.2,0.1,0.4,0.4,0.4,0.6v13.7c0,0.2-0.1,0.5-0.3,0.6l-12.1,9.1C120.4,88,120.3,88.1,120.1,88.1z M120.9,71.1v14.7l10.6-8V65.7
				L120.9,71.1z"/>
		</g>
		<g>
			<polygon class="st2" points="123.4,64.4 109.4,70.7 120.1,70.7 132.2,64.5 			"/>
			<path d="M120.1,71.4h-10.7c-0.4,0-0.7-0.2-0.7-0.6c-0.1-0.3,0.1-0.7,0.4-0.8l14-6.2c0.1,0,0.2-0.1,0.3-0.1h0l8.8,0
				c0.3,0,0.6,0.2,0.7,0.6s-0.1,0.7-0.4,0.8l-12.1,6.2C120.3,71.4,120.2,71.4,120.1,71.4z M112.9,69.9h7l9.2-4.7l-5.5,0L112.9,69.9z
				"/>
		</g>
		<g>
			<polygon class="st1" points="109.4,70.7 123.4,64.4 123.4,23.1 109.4,20.7 			"/>
			<path d="M109.4,71.4c-0.1,0-0.3,0-0.4-0.1c-0.2-0.1-0.3-0.4-0.3-0.6v-50c0-0.2,0.1-0.4,0.3-0.6c0.2-0.1,0.4-0.2,0.6-0.2l14,2.5
				c0.4,0.1,0.6,0.4,0.6,0.7v41.3c0,0.3-0.2,0.6-0.4,0.7l-14,6.2C109.6,71.4,109.5,71.4,109.4,71.4z M110.2,21.6v47.9l12.5-5.5V23.8
				L110.2,21.6z"/>
		</g>
		<g>
			<polygon class="st1" points="120.1,4 132.2,9.6 132.2,23.1 120.1,20.7 			"/>
			<path d="M132.2,23.9c0,0-0.1,0-0.1,0L120,21.4c-0.3-0.1-0.6-0.4-0.6-0.7V4c0-0.3,0.1-0.5,0.3-0.6c0.2-0.1,0.5-0.2,0.7,0l12.1,5.6
				c0.3,0.1,0.4,0.4,0.4,0.7v13.5c0,0.2-0.1,0.4-0.3,0.6C132.6,23.8,132.4,23.9,132.2,23.9z M120.9,20.1l10.6,2.1V10.1l-10.6-4.9
				V20.1z"/>
		</g>
		<g>
			<path class="st0" d="M120.1,87.3H77.3V70.7H88v-50H77.3V4h42.8v16.7h-10.7v50h10.7V87.3z"/>
			<path d="M120.1,88.1H77.3c-0.4,0-0.8-0.3-0.8-0.8V70.7c0-0.4,0.3-0.8,0.8-0.8h10V21.4h-10c-0.4,0-0.8-0.3-0.8-0.8V4
				c0-0.4,0.3-0.8,0.8-0.8h42.8c0.4,0,0.8,0.3,0.8,0.8v16.7c0,0.4-0.3,0.8-0.8,0.8h-10v48.5h10c0.4,0,0.8,0.3,0.8,0.8v16.7
				C120.9,87.7,120.5,88.1,120.1,88.1z M78,86.6h41.3V71.4h-10c-0.4,0-0.8-0.3-0.8-0.8v-50c0-0.4,0.3-0.8,0.8-0.8h10V4.8H78v15.2h10
				c0.4,0,0.8,0.3,0.8,0.8v50c0,0.4-0.3,0.8-0.8,0.8H78V86.6z"/>
		</g>
	</g>
</g>
<g>
	<g>
		<g>
			<path class="st0" d="M174.2,87.3h-21.4V20.7h-25V4h71.4v16.7h-25V87.3z"/>
			<path d="M174.2,88.1h-21.4c-0.4,0-0.8-0.3-0.8-0.8V21.4h-24.2c-0.4,0-0.8-0.3-0.8-0.8V4c0-0.4,0.3-0.8,0.8-0.8h71.4
				c0.4,0,0.8,0.3,0.8,0.8v16.7c0,0.4-0.3,0.8-0.8,0.8h-24.2v65.9C174.9,87.7,174.6,88.1,174.2,88.1z M153.5,86.6h19.9V20.7
				c0-0.4,0.3-0.8,0.8-0.8h24.2V4.8h-69.9v15.2h24.2c0.4,0,0.8,0.3,0.8,0.8V86.6z"/>
		</g>
	</g>
	<g>
		<path class="st4" d="M172.7,70.7"/>
	</g>
	<g>
		<path class="st5" d="M199.2,4"/>
	</g>
	<g>
		<polygon class="st1" points="199.2,4 211.1,9.8 211.1,22.5 199.2,20.7 		"/>
		<path d="M211.1,23.2c0,0-0.1,0-0.1,0L199,21.4c-0.4-0.1-0.6-0.4-0.6-0.7V4c0-0.3,0.1-0.5,0.4-0.6c0.2-0.1,0.5-0.2,0.7,0l11.9,5.7
			c0.3,0.1,0.4,0.4,0.4,0.7v12.7c0,0.2-0.1,0.4-0.3,0.6C211.4,23.2,211.2,23.2,211.1,23.2z M199.9,20l10.4,1.6V10.2l-10.4-5V20z"/>
	</g>
	<g>
		<polygon class="st2" points="199.2,20.7 211.1,22.5 211.1,22.5 174.2,20.7 		"/>
		<path d="M211.1,23.2C211,23.2,211,23.2,211.1,23.2l-36.9-1.8c-0.4,0-0.7-0.4-0.7-0.8c0-0.4,0.3-0.7,0.8-0.7h25c0,0,0.1,0,0.1,0
			l11.9,1.8c0.4,0.1,0.7,0.4,0.6,0.8C211.8,22.9,211.4,23.2,211.1,23.2z"/>
	</g>
	<g>
		<polygon class="st1" points="174.2,87.3 186.9,77.7 186.9,21.5 174.2,20.7 		"/>
		<path d="M174.2,88.1c-0.1,0-0.2,0-0.3-0.1c-0.3-0.1-0.4-0.4-0.4-0.7V20.7c0-0.2,0.1-0.4,0.2-0.5c0.2-0.1,0.4-0.2,0.6-0.2l12.7,0.8
			c0.4,0,0.7,0.4,0.7,0.7v56.3c0,0.2-0.1,0.5-0.3,0.6l-12.7,9.6C174.5,88,174.3,88.1,174.2,88.1z M174.9,21.5v64.3l11.2-8.4V22.2
			L174.9,21.5z"/>
	</g>
	<g>
		<polygon class="st2" points="127.8,20.7 152.8,22.3 152.8,20.7 		"/>
		<path d="M152.8,23C152.7,23,152.7,23,152.8,23l-25-1.6c-0.4,0-0.7-0.4-0.7-0.8c0-0.4,0.3-0.7,0.7-0.7h25c0.4,0,0.8,0.3,0.8,0.8
			v1.6c0,0.2-0.1,0.4-0.2,0.5C153.1,23,152.9,23,152.8,23z M151.4,21.4l0.6,0v0H151.4z"/>
	</g>
</g>
<g>
	<g>
		<polygon class="st2" points="248.9,20.7 261,23.1 252.2,23.1 238.2,20.7 		"/>
		<path d="M261,23.9h-8.8c0,0-0.1,0-0.1,0l-14-2.5c-0.4-0.1-0.7-0.4-0.6-0.8s0.4-0.7,0.7-0.7h10.7c0,0,0.1,0,0.1,0l12.1,2.5
			c0.4,0.1,0.6,0.4,0.6,0.8C261.7,23.6,261.4,23.9,261,23.9z M252.2,22.4h1.3l-4.7-1h-2L252.2,22.4z"/>
	</g>
	<g>
		<g>
			<polygon class="st1" points="248.9,87.3 261,78.2 261,64.5 248.9,70.7 			"/>
			<path d="M248.9,88.1c-0.1,0-0.2,0-0.3-0.1c-0.3-0.1-0.4-0.4-0.4-0.7V70.7c0-0.3,0.2-0.5,0.4-0.7l12.1-6.2c0.2-0.1,0.5-0.1,0.7,0
				c0.2,0.1,0.4,0.4,0.4,0.6v13.7c0,0.2-0.1,0.5-0.3,0.6l-12.1,9.1C249.2,88,249,88.1,248.9,88.1z M249.6,71.1v14.7l10.6-8V65.7
				L249.6,71.1z"/>
		</g>
		<g>
			<polygon class="st2" points="252.2,64.4 238.2,70.7 248.9,70.7 261,64.5 			"/>
			<path d="M248.9,71.4h-10.7c-0.4,0-0.7-0.2-0.7-0.6c-0.1-0.3,0.1-0.7,0.4-0.8l14-6.2c0.1,0,0.2-0.1,0.3-0.1h0l8.8,0
				c0.3,0,0.6,0.2,0.7,0.6s-0.1,0.7-0.4,0.8l-12.1,6.2C249.1,71.4,249,71.4,248.9,71.4z M241.7,69.9h7l9.2-4.7l-5.5,0L241.7,69.9z"
				/>
		</g>
		<g>
			<polygon class="st1" points="238.2,70.7 252.2,64.4 252.2,23.1 238.2,20.7 			"/>
			<path d="M238.2,71.4c-0.1,0-0.3,0-0.4-0.1c-0.2-0.1-0.3-0.4-0.3-0.6v-50c0-0.2,0.1-0.4,0.3-0.6c0.2-0.1,0.4-0.2,0.6-0.2l14,2.5
				c0.4,0.1,0.6,0.4,0.6,0.7v41.3c0,0.3-0.2,0.6-0.4,0.7l-14,6.2C238.4,71.4,238.3,71.4,238.2,71.4z M238.9,21.6v47.9l12.5-5.5V23.8
				L238.9,21.6z"/>
		</g>
		<g>
			<polygon class="st1" points="248.9,4 261,9.6 261,23.1 248.9,20.7 			"/>
			<path d="M261,23.9c0,0-0.1,0-0.1,0l-12.1-2.5c-0.3-0.1-0.6-0.4-0.6-0.7V4c0-0.3,0.1-0.5,0.3-0.6c0.2-0.1,0.5-0.2,0.7,0l12.1,5.6
				c0.3,0.1,0.4,0.4,0.4,0.7v13.5c0,0.2-0.1,0.4-0.3,0.6C261.3,23.8,261.1,23.9,261,23.9z M249.6,20.1l10.6,2.1V10.1l-10.6-4.9V20.1
				z"/>
		</g>
		<g>
			<path class="st0" d="M248.9,87.3H206V70.7h10.7v-50H206V4h42.8v16.7h-10.7v50h10.7V87.3z"/>
			<path d="M248.9,88.1H206c-0.4,0-0.8-0.3-0.8-0.8V70.7c0-0.4,0.3-0.8,0.8-0.8h10V21.4h-10c-0.4,0-0.8-0.3-0.8-0.8V4
				c0-0.4,0.3-0.8,0.8-0.8h42.8c0.4,0,0.8,0.3,0.8,0.8v16.7c0,0.4-0.3,0.8-0.8,0.8h-10v48.5h10c0.4,0,0.8,0.3,0.8,0.8v16.7
				C249.6,87.7,249.3,88.1,248.9,88.1z M206.8,86.6h41.3V71.4h-10c-0.4,0-0.8-0.3-0.8-0.8v-50c0-0.4,0.3-0.8,0.8-0.8h10V4.8h-41.3
				v15.2h10c0.4,0,0.8,0.3,0.8,0.8v50c0,0.4-0.3,0.8-0.8,0.8h-10V86.6z"/>
		</g>
	</g>
</g>
<g>
	<path d="M262.9,4.7L262.9,4.7c-0.8,0.2-1.7,0.9-2,1.1c0,0-0.2,0.1-0.2,0.1c-0.8,0.5-1.2,0.9-1.4,1.2c0,0-0.2,0.2-0.2,0.2
		c-0.3,0.5-0.5,0.7-0.7,0.9c-0.1,0.1-0.3,0.2-0.5,0.3c-0.3,0.1-0.5,0.3-0.8,0.4c0,0,0,0,0,0c-0.5,0.1-0.8,0.2-1.1,0.3
		c-0.2,0.1-0.4,0.2-0.8,0.4c0,0-0.6,0.3-0.6,0.3c0,0-0.3,0.1-0.3,0.1l-0.8,0.3c-0.2,0.1-0.4,0.2-0.6,0.3c0,0,0,0,0,0
		c-0.2,0-0.4,0-0.5,0c0,0-0.1,0-0.1,0c-0.6-0.3-1.9-0.9-3.2-0.6c-0.6,0.1-1.1,0.3-1.5,0.6c-0.4,0.1-1,0.4-1.3,0.9
		c-0.2,0.1-0.4,0.3-0.6,0.7c-0.4,0.7-0.6,1.6-0.6,1.9c0,0.1,0,0.2,0,0.3c0,0.4,0.1,0.8,0.1,1.1l0,0.2c0,0.2,0,0.3,0,0.3
		c0,0,0,0.1,0,0.1c0,0-0.1,0.1-0.2,0.2c0,0-0.6,0.4-0.6,0.4s-0.3,0.2-0.3,0.2c-0.1,0-0.4,0.1-0.4,0.1c-0.5,0.2-0.8,0.3-1,0.4
		c-0.4,0.2-0.7,0.4-1,0.5c-0.5,0.2-0.8,0.4-1,0.6c-0.5,0.5-1.4,1.1-1.7,1.2l0,0l0,0c-0.4,0.3-1.2,0.7-1.9,1.1
		c-0.4,0.2-0.9,0.6-1.4,1c0,0-0.1,0.1-0.1,0.1c-0.1,0-0.3,0.2-0.3,0.2c-0.4,0.2-0.6,0.3-0.8,0.4c0,0-0.3,0.2-0.3,0.2
		c-0.2,0.1-0.5,0.4-0.6,0.4c-0.3,0.2-0.7,0.3-1.2,0.4c-1.1,0.3-2.3,0.7-3.2,1.6c-0.9,1-1.4,2.4-1.4,3.7c0,0.6,0.1,1.1,0.3,1.7
		c0.6,1.6,1.9,2.6,2.9,3c1.2,0.5,3.1,0.5,4.3-0.4c0.7-0.5,1-1.2,1.3-1.7c0.2-0.4,0.3-0.6,0.4-0.6c0.3-0.3,0.6-0.7,1-1.3
		c0,0,0.2-0.3,0.2-0.3c0.3-0.2,0.6-0.5,1-0.7c1.2-0.6,1.9-1.3,2.4-1.7l0.1-0.1c0,0,0.3-0.3,0.3-0.3c0.1-0.1,0.2-0.2,0.2-0.2
		c1.1-0.6,1.8-1.1,2.2-1.4l0.1,0c0.1-0.1,0.7-0.4,1-0.5l0.5-0.3c0.3-0.2,0.6-0.3,0.8-0.5c0.1,0.5,0.3,1.4,0.4,2.7c0,0.1,0,0.3,0,1.5
		l0,0.1c0,0.2,0,0.6,0.1,1.1c0,0,0,0.4,0,0.5c0,0.2,0,0.4,0,0.6c0,0.5,0,1.1,0.1,1.6c0,0.1,0,0.2,0,0.3c0,0.4,0,0.9,0.1,1.3
		c0,0.1,0,0.3,0,0.6c0,0.3,0,0.7,0,0.9c0,0.2,0,0.4,0,0.5c0,0.2,0,0.3,0,0.5l0,0.3c0,0,0,0.1,0,0.1c0,0.5-0.1,1-0.1,1.4l0,0.4
		c0,0,0,0.1,0,0.1c0,0.8,0,1.1-0.1,1.3c0,0,0,0.1,0,0.1c-0.1,0.4-0.1,0.6-0.2,0.8c0,0.1,0,0.2,0,0.3c0,0.3,0,0.7,0.1,1.3
		c0,0.2,0.1,0.5,0.1,0.6c0,0.3-0.1,0.6-0.2,0.9c-0.2,0.6-0.4,1.5-0.4,2.5c0,0.2,0,0.5,0,0.7c0.1,0.8,0.2,1.4,0.5,2.1
		c0,0.1,0.2,0.9,0.3,1.2l0,0.1l0,0.1c0.1,0.3,0.3,1,0.4,1.4c0,0.1,0,0.2,0,0.4c0,0.2,0,0.4,0,0.5l0,0.3c0,0.3,0.1,0.7,0.2,1.5
		c0,0,0,0.1,0,0.2c0,0.1,0,0.1,0,0.1c0,0.2,0,0.4,0,0.6c0,0.2,0,0.3,0,0.5c0.1,0.6,0.4,2.3,1.6,3c0.8,0.5,1.5,0.6,2,0.7
		c0.1,0,0.3,0,0.3,0.1c1.5,0.5,3.2,0.2,4.1-0.2c0.6-0.2,1.1-0.6,1.3-1.1c0,0,0,0.1,0,0.1l0.1-0.1c0.2-0.2,0.4-0.4,0.6-0.7
		c0.3-0.4,0.4-1,0.7-1.9c0.1-0.3,0.2-0.7,0.3-0.9c0.1-0.4,0.2-0.8,0.2-1.2c0-1.1-0.3-2.2-0.4-2.3c-0.1-0.3-0.7-1.7-0.8-2
		c-0.1-0.2-0.1-0.9-0.2-1.2l-0.1-0.6c0,0-0.2-0.8-0.2-0.8s-0.1-0.4-0.1-0.5c0-0.1,0-0.2,0-0.2c0-0.2,0-0.3,0-0.4c0-0.2,0-0.4,0-0.6
		c-0.1-0.3-0.1-0.7-0.1-1.1c0-0.7,0.1-1.4,0.2-2.1l0-0.1l0-0.1c0-0.4,0-0.8,0-1c0-0.1,0-0.1,0-0.2l0,0c0.1-0.7,0.1-1.5,0.1-2.2l0,0
		c0,0,0.1-1.3,0.1-1.3c0,0,0-0.1,0-0.1c0-0.2,0-0.3,0-0.5c0-0.1,0-0.3,0-0.5c0,0,0-0.1,0-0.1c0-0.1,0-0.2,0-0.3c0-0.3,0-0.6-0.1-1.1
		c0,0,0-0.1,0-0.1c0,0,0,0,0-0.1c0-0.2,0-0.8,0.1-1.1c0-0.6,0.1-1,0.1-1.3c0-0.1,0-0.2,0-0.3c0,0-0.1-0.5-0.1-0.5
		c-0.1-0.4-0.2-1.1-0.2-1.8c0-0.4,0-0.9,0-1.2c0-0.1,0-0.2,0-0.2c0-0.1,0-0.3,0-0.4c0-0.3,0-0.6,0-0.9l0-1.5c0,0,0,0,0,0
		c0-0.5-0.1-2.7-0.2-3c0-0.2-0.1-0.5-0.1-0.9c0-0.2,0-0.5,0-0.7c0.1-0.6,0.1-1,0.1-1.4c0-0.2,0-0.4,0-0.6c0.1-0.1,0.4-0.3,0.6-0.4
		c1-0.2,1.6-0.4,2.1-0.8c0.4-0.3,0.9-0.5,1.2-0.6l0,0c0.7-0.2,1.1-0.6,1.4-0.8c0,0,0,0,0,0c0.2-0.1,1.1-0.6,1.1-0.6
		c0,0,0.5-0.3,0.5-0.3c0.1-0.1,0.2-0.1,0.2-0.2c0.3-0.1,0.5-0.2,0.8-0.3c0.1-0.1,0.3-0.2,0.4-0.2l0.3-0.1c0.4-0.1,0.6-0.2,0.8-0.3
		l0,0c1.1-0.7,2.6-2.4,2.6-4.5c0-0.3,0-0.6-0.1-0.8c-0.1-0.7-0.5-1.2-0.8-1.6l-0.2-0.2c-0.9-1.4-2.4-1.4-2.8-1.4c-0.1,0-0.3,0-0.5,0
		C263.7,4.6,263.3,4.5,262.9,4.7z M246.1,11.5c0,0-0.1,0.1-0.1,0.1C246,11.6,246.1,11.5,246.1,11.5z"/>
	<path class="st6" d="M267,8.2c-0.1-0.5-0.5-0.9-0.8-1.3c-0.5-0.8-1.2-0.8-1.7-0.8c-0.4,0-1.1-0.1-1.4-0.1c-0.5,0.1-1.2,0.7-1.6,0.9
		c-0.1,0.1-1.1,0.8-1.3,1c-0.1,0.1-0.6,1-1,1.3c-0.3,0.3-1.2,0.6-1.7,0.9c-0.3,0.1-0.9,0.2-1.2,0.3c-0.3,0.1-1.2,0.6-1.5,0.7
		c-0.1,0-0.8,0.2-1.1,0.3c-0.2,0.1-0.6,0.3-0.7,0.4c-0.3,0.1-1,0.2-1.4,0.1c-0.2,0-1.6-0.8-2.7-0.7c-0.5,0.1-0.9,0.3-1.1,0.5
		c-0.3,0.1-0.7,0.3-0.9,0.5c-0.1,0.2-0.3,0.2-0.5,0.5c-0.3,0.5-0.5,1.3-0.5,1.4c0,0.5,0.1,0.9,0.2,1.3c0.2,1.2-0.2,1.7-0.9,2.1
		c-0.2,0.1-0.8,0.5-0.9,0.6c-0.2,0.1-1.1,0.4-1.3,0.5c-0.8,0.5-1.6,0.7-1.8,0.9c-0.8,0.7-2,1.4-2,1.4c-0.4,0.3-1.1,0.7-2,1.1
		c-0.5,0.3-1.3,1-1.5,1.1c-0.1,0.1-0.9,0.5-1.1,0.6c-0.1,0.1-0.8,0.6-1,0.7c-0.4,0.2-1,0.4-1.5,0.6c-0.9,0.3-1.9,0.5-2.5,1.2
		c-0.9,1-1.3,2.7-0.9,3.9c0.5,1.3,1.6,2,2.1,2.2c0.9,0.4,2.3,0.3,2.9-0.2c0.4-0.3,0.6-0.8,0.8-1.2c0.1-0.2,0.3-0.7,0.7-1
		c0.4-0.4,1-1.4,1.2-1.5c0.4-0.4,0.9-0.7,1.4-1c1.1-0.6,1.8-1.3,2.2-1.6c0.3-0.2,0.5-0.5,0.8-0.6c1.1-0.6,1.7-1.1,2-1.3
		c0.3-0.2,1.2-0.6,1.7-0.9c0.5-0.3,1.1-0.8,1.3-0.9c0.3-0.1,0.8-0.1,1,0c0.2,0.1,0.7,0.8,0.9,4.2c0,0.2,0,1.6,0,1.8
		c0,0.3,0.1,1.5,0.1,1.6c0,0.7,0,1.4,0.1,2.2c0,0,0,0.7,0.1,1.4c0.1,0.5,0,1.5,0,1.9c0,0.4,0,0.7,0,1.1c0,0.9-0.1,1.8-0.1,2
		c0,0.2,0,1.2-0.1,1.6c0,0.1-0.2,0.7-0.2,0.9c0,0.5,0.2,1.8,0.1,2.1c0,0.4-0.2,0.8-0.3,1.2c-0.2,0.7-0.5,1.6-0.3,2.6
		c0.1,0.5,0.2,1.2,0.4,1.8c0,0,0.2,0.9,0.3,1.3c0,0,0.3,1,0.4,1.6c0.1,0.5,0,1.2,0,1.4c0,0.3,0.2,1.4,0.3,1.6c0,0.1-0.1,0.8,0,1.1
		c0.1,0.6,0.3,1.7,1,2c0.8,0.5,1.5,0.4,2,0.6c1.1,0.3,2.5,0.1,3.2-0.1c0.2-0.1,0.5-0.3,0.7-0.5c0.2-0.2,0.5-0.4,0.7-0.8
		c0.2-0.4,0.6-1.9,0.8-2.5c0.2-0.7,0-2-0.2-2.5c-0.1-0.2-0.7-1.6-0.8-2c-0.2-0.3-0.3-1.7-0.3-2.1c0-0.2-0.3-1.1-0.3-1.3
		c0-0.1,0-0.9,0-1.2c-0.2-1.2-0.1-2.4,0.1-3.6c0,0,0-1.2,0-1.3c0.1-0.7,0.1-1.4,0.1-2.2c0-0.5,0-1,0.1-1.4c0-0.2-0.1-0.8,0-1.4
		c0-0.2-0.1-1-0.1-1.1c-0.1-0.4,0.1-2.4,0.1-2.9c0-0.2-0.2-1.3-0.3-2.3c0,0,0-1.3,0-1.7c0-0.5,0-1.7,0-2.8c0-0.4-0.1-2.6-0.2-2.8
		c-0.1-0.4-0.1-1.3,0-2c0.1-1.1,0-1.3,0.2-2.1c0.1-0.8,1.4-1.3,1.5-1.3c0.3-0.1,1.3-0.3,1.6-0.5c0.6-0.5,1.4-0.7,1.7-0.8
		c0.5-0.2,0.8-0.6,1-0.7c0.2-0.1,1-0.6,1.2-0.7c0.2-0.1,0.5-0.5,1-0.6c0.3-0.1,0.7-0.4,1.1-0.5c0.3-0.1,0.7-0.2,0.8-0.3
		C266.1,11.5,267.4,9.8,267,8.2z"/>
	<path d="M292.3,0c-1.7,0.1-2.8,1.1-3.4,1.6c0,0-1.7,1.5-2.1,2.1c0,0-0.3,0.5-0.3,0.5l-0.2,0.4c0,0-0.8,1-0.8,1l0,0
		c0,0-0.9,1.2-0.9,1.2c0,0,0,0,0,0c-0.1,0.1-0.4,0.4-0.6,0.7c-0.9,0.9-1.1,1.1-1.2,1.2c0,0-0.2,0.3-0.2,0.3c-0.9,1.2-1.4,1.9-1.5,2
		l0,0c-0.3,0.3-1,1.2-1.2,1.5c-0.3,0.5-0.7,1.1-0.9,1.3c-0.1,0.2-0.3,0.4-0.5,0.6l0,0l-1.5,1.8l-0.1,0.1c-0.3,0.5-0.8,1.3-0.9,1.6
		c0,0-0.1,0.2-0.1,0.2c-0.5,1.1-0.8,1.5-0.8,1.6c-0.6,0.7-0.8,1.7-0.9,2.2c0,0.1-0.1,0.4-0.3,0.6c-0.2,0.3-0.5,1-0.6,1.3
		c-1.1,1.7-1.2,1.8-1.2,1.8c-0.1,0.2-0.4,0.6-0.6,0.9c0,0,0,0,0,0c-0.7,0.9-0.9,1.3-1,1.6l0,0l0,0c-0.1,0.5-0.3,0.8-0.5,1l0,0
		c-0.2,0.3-0.4,0.5-0.4,0.9c-0.2,0.8-0.5,1.4-0.7,1.7c-0.2-0.2-0.3-0.4-0.5-1c-0.1-0.4-0.2-1.4-0.2-1.9c0,0,0,0,0,0
		c0-0.4,0-0.9-0.1-1.3l-0.2-1.7c-0.1-0.7-0.3-2.6-0.3-2.7c-0.2-2-0.3-3.5-2-4.7c-0.5-0.4-1.2-0.4-1.9-0.5l0,0l0,0
		c-0.9-0.1-1.9,0-2.5,0.1c-0.3,0.1-0.5,0.2-1.2,0.6l-0.2,0.1c-0.6,0.4-1.5,0.8-1.8,1.5c-0.3,0.6-0.4,1.5-0.4,2.5c0,1,0.1,2.1,0.3,3
		c0,0.2,0.1,0.6,1,2.9c0.1,0.2,0.7,2.1,0.9,2.7l0.7,2.2l0,0c0.2,0.7,0.6,1.7,0.7,2.3c0.1,0.8,0.3,1.5,0.5,2.2c0,0,0,0,0,0
		c0.2,0.6,0.4,1.3,0.5,2c0,0,0.2,0.7,0.2,0.7l0.2,0.8l0-0.1c0,0.3,0.4,1.5,0.5,1.9c0,0,0,0.1,0,0.1c0.1,0.3,0.2,0.6,0.3,0.9
		c0.3,1.2,0.7,2,1.1,3c0.4,0.8,0.6,1.3,0.8,1.6c1,1.5,2.1,2.4,4.2,2.4c1.1,0,2.3-0.1,3.1-0.9c0.8-0.7,1.3-1.5,1.3-1.6
		c0.6-0.9,1-1.9,1.2-3c0.1-0.4,0.1-0.8,0.1-1.2c0-0.3,0-0.5,0-0.8c0-0.2,0-0.5,0-0.7c0-0.2,0-0.5,0-0.7c0-0.3,0.2-1.4,0.6-2.3
		c0,0,0,0,0,0c0.2-0.4,0.4-0.9,0.5-1.3c0.1-0.5,0.4-0.9,0.7-1.3l0.5-0.8c0.3-0.5,1.4-2.4,1.5-2.6l0.3-0.5l0-0.1l1.4-2.4l0,0
		c0.1-0.2,0.4-0.9,0.5-1.3c0.1-0.2,0.1-0.4,0.2-0.6c0.1-0.1,0.2-0.2,0.2-0.2c0.5-0.5,0.8-0.9,1-1.3c0,0,0,0.1,0,0.1l0.2-0.4
		c0.3-0.6,0.5-0.9,0.6-1.2c0.1-0.4,0.5-0.9,0.7-1.3c0.2-0.3,0.3-0.4,0.3-0.6c0.2-0.4,0.4-0.9,0.6-1.2c0.3-0.3,0.5-0.7,0.9-1.4
		c0.2-0.4,0.6-1,0.7-1.1c0.6-0.5,1-1.4,1.4-2c0.1-0.1,0.3-0.3,0.4-0.5c0.6-0.7,1-1.3,1.3-1.8c0.1-0.2,0.4-0.5,0.9-0.8l0.4-0.2
		c0.3-0.2,0.5-0.5,0.7-0.7c0.3-0.3,0.5-0.6,0.9-0.8c0.3-0.2,1.5-0.7,1.7-0.8c0.4-0.2,1.2-0.6,1.8-1c0.7-0.5,1.5-1.7,1.7-2
		c0.4-0.8,0.7-2,0.9-2.7c0.2-0.8,0.3-1.3,0.3-2.1c0-0.2,0-0.3,0-0.5c-0.1-1.4-1.1-3.1-2.4-4C295.5,0.2,293.9-0.1,292.3,0z"/>
	<path class="st6" d="M279.4,30.5c0.1-0.2,0.3-0.8,0.4-1.1c0.1-0.3,0.2-0.7,0.3-0.9c0.1-0.2,0.9-0.9,1-1.3c0.1-0.2,0.7-1.2,0.8-1.5
		c0.3-0.7,1-1.8,1.1-1.9c0.2-0.5,0.5-1.1,0.9-1.6c0.2-0.2,0.5-0.7,0.8-1.1c0.4-0.6,0.7-1.1,0.9-1.4c0.4-0.4,0.8-1.2,1.1-1.7
		c0.2-0.4,1.3-1.6,1.6-2.2c0.4-1,1.6-1.5,1.7-1.5c0.2-0.2,0.4-0.4,0.5-0.5c0.3-0.4,0.7-0.7,1.3-1.1c0.3-0.2,1.7-0.8,1.9-0.9
		c0.3-0.1,1-0.4,1.4-0.8c0.5-0.4,1.1-1.3,1.3-1.6c0.4-0.7,0.6-1.8,0.7-2.3c0.2-0.9,0.3-1.3,0.2-2.2c0-1-0.8-2.2-1.8-2.9
		c-0.7-0.4-2-0.7-3.3-0.6c-1.1,0.1-1.9,0.7-2.6,1.2c0,0-1.6,1.4-1.9,1.9c-0.1,0.1-0.4,0.7-0.5,0.9c-0.3,0.4-0.6,0.8-0.9,1.1
		c-0.3,0.4-0.6,0.7-0.9,1.1c-0.1,0.1-0.2,0.3-0.7,0.8c-0.4,0.4-0.9,1-1,1.1c-0.2,0.3-1.7,2.2-1.8,2.4c-0.2,0.2-0.8,1-1,1.4
		c-0.4,0.5-0.8,1.1-1,1.4c-0.2,0.2-0.4,0.5-0.6,0.7L278,17c-0.3,0.5-0.8,1.3-0.9,1.5c0,0.1-0.6,1.4-1.1,2c-0.4,0.4-0.6,1.2-0.7,1.6
		c0,0.1-0.2,0.5-0.4,0.9c-0.2,0.4-0.6,1.3-0.6,1.3s-1.1,1.8-1.2,1.9c-0.2,0.3-0.4,0.6-0.7,1c-0.3,0.4-0.7,1-0.8,1.2
		c-0.2,0.7-0.5,1.2-0.7,1.5c-0.1,0.1-0.2,0.3-0.2,0.4c-0.2,1.3-0.9,2.4-1.5,2.8c-0.3,0.2-0.6,0.2-0.9,0.1c-1-0.4-1.2-1.2-1.5-2.1
		c0,0-0.2-1.4-0.3-2.2c0-0.4,0-0.8-0.1-1.2c-0.1-0.6-0.1-1.1-0.2-1.7c-0.1-0.8-0.3-2.8-0.3-2.8c-0.1-1.9-0.2-2.9-1.4-3.7
		c-0.3-0.2-1.2-0.2-1.2-0.2c-0.7-0.1-1.5,0-2,0.1c-0.2,0-1,0.6-1.1,0.6c-0.5,0.3-1.1,0.6-1.3,0.9c-0.4,0.8-0.4,2.5,0,4.7
		c0,0.3,0.7,1.9,0.9,2.6c0,0,0.7,2.1,0.9,2.8c0.2,0.6,0.6,2.1,0.6,2.1c0.3,0.8,0.6,1.8,0.7,2.5c0.1,0.7,0.3,1.3,0.5,2
		c0.2,0.7,0.4,1.4,0.5,2.1c0,0.1,0.4,1.3,0.4,1.5c0,0.2,0.3,1.2,0.5,1.6c0.1,0.3,0.2,0.7,0.3,1c0.3,1.1,0.6,1.9,1.1,2.8
		c0.3,0.7,0.6,1.2,0.7,1.4c0.8,1.2,1.5,1.8,3.1,1.8c1.2,0,1.8-0.2,2.2-0.5c0.5-0.5,1-1.1,1.1-1.3c0.5-0.7,0.8-1.6,1-2.5
		c0.1-0.5,0.1-1.1,0.1-1.6c0-0.5,0-1.1,0-1.7c0-0.3,0.2-1.6,0.7-2.7c0-0.1,0.3-0.8,0.5-1.2c0.2-0.7,0.5-1.2,0.9-1.8
		c0.2-0.2,0.3-0.4,0.4-0.7c0.3-0.5,1.4-2.5,1.6-2.7c0.1-0.1,0.2-0.3,0.3-0.5L279.4,30.5z"/>
</g>
<g>
</g>
<g>
</g>
<g>
	<path class="st7" d="M98.7,36.7"/>
</g>
<g>
	<path class="st7" d="M97.4,33.7"/>
</g>
<g>
	<path class="st7" d="M83.9,35.5"/>
</g>
<g>
	<path class="st7" d="M95.5,35.2"/>
</g>
<g>
	<path d="M261.2,105.1c-1,0.9-2.1,1.4-3.5,1.4c-1.4,0-2.6-0.5-3.5-1.4c-1-1-1.4-2.1-1.4-3.5c0-1.5,0.5-2.7,1.6-3.6
		c1-0.9,2.1-1.4,3.4-1.4c1.4,0,2.5,0.5,3.5,1.5c1,1,1.5,2.1,1.5,3.5C262.6,103,262.1,104.2,261.2,105.1z M254.7,98.7
		c-0.8,0.8-1.2,1.8-1.2,2.9c0,1.2,0.4,2.1,1.2,2.9c0.8,0.8,1.8,1.2,2.9,1.2c1.1,0,2.1-0.4,2.9-1.2c0.8-0.8,1.2-1.8,1.2-2.9
		c0-1.1-0.4-2.1-1.2-2.9c-0.8-0.8-1.8-1.2-2.9-1.2C256.5,97.4,255.5,97.8,254.7,98.7z M255.5,104.3v-5.5c0.3,0,0.9,0,1.5,0
		c0.7,0,1.1,0,1.1,0c0.4,0,0.8,0.1,1.1,0.3c0.5,0.3,0.7,0.7,0.7,1.3c0,0.5-0.1,0.8-0.4,1c-0.3,0.2-0.6,0.3-1,0.4
		c0.3,0.1,0.6,0.2,0.8,0.3c0.3,0.3,0.5,0.7,0.5,1.2v0.5c0,0.1,0,0.1,0,0.2c0,0.1,0,0.1,0,0.2l0,0.2h-1.4c0-0.2-0.1-0.4-0.1-0.8
		c0-0.3,0-0.6-0.1-0.7c-0.1-0.2-0.2-0.3-0.4-0.4c-0.1,0-0.3-0.1-0.5-0.1l-0.3,0h-0.3v1.9H255.5z M258.1,99.9
		c-0.2-0.1-0.5-0.1-0.8-0.1h-0.4v1.6h0.6c0.3,0,0.6-0.1,0.8-0.2c0.2-0.1,0.3-0.4,0.3-0.7C258.6,100.2,258.4,100,258.1,99.9z"/>
</g>
<g>
	<path d="M0.3,100.8c0.2-1.2,0.6-2.2,1.1-3c0.5-0.8,1.2-1.3,2.1-1.7c0.9-0.4,1.9-0.5,3.2-0.5s2.3,0.2,3.2,0.5
		c0.9,0.4,1.6,0.9,2.1,1.7c0.5,0.8,0.9,1.7,1.1,3c0.2,1.2,0.3,2.7,0.3,4.4c0,1.7-0.1,3.2-0.3,4.4c-0.2,1.2-0.6,2.2-1.1,3
		c-0.5,0.8-1.2,1.3-2.1,1.6c-0.9,0.3-1.9,0.5-3.2,0.5s-2.3-0.2-3.2-0.5c-0.9-0.3-1.6-0.9-2.1-1.6c-0.5-0.8-0.9-1.7-1.1-3
		c-0.2-1.2-0.3-2.7-0.3-4.4C0,103.5,0.1,102,0.3,100.8z M5.1,108.3c0,0.8,0.1,1.5,0.2,1.9c0.1,0.5,0.3,0.8,0.5,1
		c0.2,0.2,0.5,0.3,0.9,0.3s0.7-0.1,0.9-0.3c0.2-0.2,0.4-0.5,0.5-1c0.1-0.5,0.2-1.1,0.2-1.9c0-0.8,0.1-1.8,0.1-3.1
		c0-1.2,0-2.3-0.1-3.1c0-0.8-0.1-1.5-0.2-1.9c-0.1-0.5-0.3-0.8-0.5-1c-0.2-0.2-0.5-0.3-0.9-0.3S6.1,99,5.9,99.2
		c-0.2,0.2-0.4,0.5-0.5,1c-0.1,0.5-0.2,1.1-0.2,1.9c0,0.8-0.1,1.8-0.1,3.1C5.1,106.4,5.1,107.5,5.1,108.3z"/>
	<path d="M23.9,96c0.9,0,1.8,0.1,2.4,0.4c0.7,0.3,1.3,0.7,1.7,1.2c0.5,0.5,0.8,1.1,1,1.8c0.2,0.7,0.3,1.4,0.3,2.2
		c0,1.9-0.5,3.3-1.6,4.3c-1.1,1-2.6,1.4-4.6,1.4h-1.7v7h-4.9V96H23.9z M22.3,103.9c0.6,0,1.1-0.2,1.4-0.5c0.3-0.4,0.5-0.9,0.5-1.7
		c0-1.5-0.6-2.2-1.9-2.2h-0.9v4.5H22.3z"/>
	<path d="M43.4,96v3.9h-6.3v3.1H43v3.8h-5.9v3.6h6.5v3.9H32.2V96H43.4z"/>
	<path d="M52.3,96l3.2,11.3h0.1V96h4.6v18.4h-5.4L51.5,103h-0.1v11.3h-4.6V96H52.3z"/>
	<path d="M69.8,99.9h-5.5V96h11.3v3.4l-6.1,11h6.1v3.9H63.8v-3.4L69.8,99.9z"/>
	<path d="M83.3,96v18.4h-4.9V96H83.3z"/>
	<path d="M85.6,100.1V96H98v4.1h-3.7v14.3h-4.9v-14.3H85.6z"/>
	<path d="M105.1,96v18.4h-4.9V96H105.1z"/>
	<path d="M116.4,100.1V96h12.2v4.1h-3.7v14.3H120v-14.3H116.4z"/>
	<path d="M142.2,96v3.9h-6.2v3.1h5.8v3.8h-5.8v3.6h6.5v3.9H131V96H142.2z"/>
	<path d="M150.4,96v14.4h6v3.9h-10.9V96H150.4z"/>
	<path d="M170.2,96v3.9h-6.2v3.1h5.8v3.8h-5.8v3.6h6.5v3.9H159V96H170.2z"/>
	<path d="M177.2,96l2,13.8h0.1l2-13.8h5.2l-4.1,18.4H176L172,96H177.2z"/>
	<path d="M193.2,96v18.4h-4.9V96H193.2z"/>
	<path d="M204,100.9c0-0.5-0.1-1-0.3-1.4c-0.2-0.4-0.6-0.6-1.1-0.6c-0.5,0-0.9,0.2-1.2,0.5c-0.2,0.3-0.4,0.7-0.4,1.1
		c0,0.6,0.2,1.1,0.6,1.4c0.4,0.4,0.9,0.7,1.5,0.9c0.6,0.3,1.2,0.5,1.9,0.8c0.7,0.3,1.3,0.6,1.9,1c0.6,0.4,1.1,1,1.5,1.7
		c0.4,0.7,0.6,1.6,0.6,2.7c0,2-0.6,3.4-1.7,4.3c-1.1,0.9-2.8,1.3-4.9,1.3c-1,0-1.9-0.1-2.7-0.2c-0.8-0.2-1.4-0.4-2-0.8
		c-0.5-0.4-0.9-0.9-1.2-1.6c-0.3-0.7-0.4-1.5-0.4-2.4v-0.6h4.7v0.4c0,0.8,0.1,1.3,0.4,1.7c0.3,0.3,0.7,0.5,1.2,0.5
		c0.5,0,0.9-0.2,1.2-0.5c0.3-0.3,0.4-0.8,0.4-1.3c0-0.6-0.2-1.1-0.6-1.4c-0.4-0.4-0.9-0.7-1.4-0.9c-0.6-0.2-1.2-0.5-1.9-0.8
		c-0.7-0.3-1.3-0.6-1.9-1c-0.6-0.4-1-1-1.4-1.6c-0.4-0.7-0.6-1.5-0.6-2.6c0-1.9,0.5-3.3,1.5-4.3c1-1,2.6-1.5,4.6-1.5
		c2.1,0,3.7,0.4,4.6,1.3c1,0.9,1.4,2.3,1.4,4.3H204V100.9z"/>
	<path d="M216.8,96v18.4h-4.9V96H216.8z"/>
	<path d="M220.1,100.8c0.2-1.2,0.6-2.2,1.1-3c0.5-0.8,1.2-1.3,2.1-1.7c0.9-0.4,1.9-0.5,3.2-0.5s2.3,0.2,3.2,0.5
		c0.9,0.4,1.6,0.9,2.1,1.7c0.5,0.8,0.9,1.7,1.1,3c0.2,1.2,0.3,2.7,0.3,4.4c0,1.7-0.1,3.2-0.3,4.4c-0.2,1.2-0.6,2.2-1.1,3
		c-0.5,0.8-1.2,1.3-2.1,1.6c-0.9,0.3-1.9,0.5-3.2,0.5s-2.3-0.2-3.2-0.5c-0.9-0.3-1.6-0.9-2.1-1.6c-0.5-0.8-0.9-1.7-1.1-3
		c-0.2-1.2-0.3-2.7-0.3-4.4C219.7,103.5,219.8,102,220.1,100.8z M224.8,108.3c0,0.8,0.1,1.5,0.2,1.9c0.1,0.5,0.3,0.8,0.5,1
		c0.2,0.2,0.5,0.3,0.9,0.3c0.4,0,0.7-0.1,0.9-0.3c0.2-0.2,0.4-0.5,0.5-1c0.1-0.5,0.2-1.1,0.2-1.9c0-0.8,0.1-1.8,0.1-3.1
		c0-1.2,0-2.3-0.1-3.1c0-0.8-0.1-1.5-0.2-1.9c-0.1-0.5-0.3-0.8-0.5-1c-0.2-0.2-0.5-0.3-0.9-0.3c-0.4,0-0.7,0.1-0.9,0.3
		c-0.2,0.2-0.4,0.5-0.5,1c-0.1,0.5-0.2,1.1-0.2,1.9c0,0.8-0.1,1.8-0.1,3.1C224.8,106.4,224.8,107.5,224.8,108.3z"/>
	<path d="M241.7,96l3.2,11.3h0.1V96h4.6v18.4h-5.4l-3.3-11.3h-0.1v11.3h-4.6V96H241.7z"/>
</g>
</svg>
