<?xml version="1.0" encoding="utf-8"?>
<!-- Generator: Adobe Illustrator 26.0.1, SVG Export Plug-In . SVG Version: 6.00 Build 0)  -->
<svg version="1.1" id="Layer_1" xmlns="http://www.w3.org/2000/svg" xmlns:xlink="http://www.w3.org/1999/xlink" x="0px" y="0px"
	 viewBox="0 0 47 49.3" style="enable-background:new 0 0 47 49.3;" xml:space="preserve">
<style type="text/css">
	.st0{fill:#FFF9BF;}
	.st1{fill:#FFEF5E;}
	.st2{fill:#FFBC44;}
	.st3{fill:#002567;}
	.st4{fill:#E3E3E3;}
	.st5{fill:#66E1FF;}
	.st6{fill:#BFEFFB;}
	.st7{fill:#FFFFFF;}
</style>
<g transform="matrix(2,0,0,2,0,0)">
	<path class="st0" d="M3.5,7.6H20c1.7,0,3,1.3,3,3v10.5c0,1.7-1.3,3-3,3H3.5c-1.7,0-3-1.3-3-3V10.6C0.5,9,1.8,7.6,3.5,7.6z"/>
	<path class="st1" d="M3.5,9.9H20c1.7,0,3,1.1,3,2.5v8.9c0,1.4-1.3,2.5-3,2.5H3.5c-1.7,0-3-1.1-3-2.5v-8.9C0.5,11.1,1.8,9.9,3.5,9.9
		z"/>
	<g>
		<path class="st2" d="M19.2,10.7c-0.8,0-1.5,0.7-1.5,1.5c0,0.8,0.7,1.5,1.5,1.5s1.5-0.7,1.5-1.5C20.7,11.4,20.1,10.7,19.2,10.7
			L19.2,10.7"/>
		<path class="st3" d="M19.3,14.1c-1.1,0-2-0.9-2-2c0-1.1,0.9-2,2-2c1.1,0,2,0.9,2,2C21.2,13.3,20.3,14.1,19.3,14.1z M19.3,11.2
			c-0.5,0-1,0.4-1,1s0.4,1,1,1s1-0.4,1-1S19.8,11.2,19.3,11.2z"/>
	</g>
	<g>
		<path class="st2" d="M19.2,15.9c-0.8,0-1.5,0.7-1.5,1.5s0.7,1.5,1.5,1.5s1.5-0.7,1.5-1.5l0,0C20.7,16.5,20.1,15.9,19.2,15.9
			L19.2,15.9"/>
		<path class="st3" d="M19.3,19.3c-1.1,0-2-0.9-2-2c0-1.1,0.9-2,2-2c1.1,0,2,0.9,2,2C21.2,18.4,20.3,19.3,19.3,19.3z M19.3,16.4
			c-0.5,0-1,0.4-1,1s0.4,1,1,1s1-0.4,1-1S19.8,16.4,19.3,16.4z"/>
	</g>
	<g>
		<path class="st3" d="M13.8,5.5c-0.1,0-0.3,0-0.4-0.1c-0.2-0.2-0.2-0.5,0-0.7L18,0.1c0.2-0.2,0.5-0.2,0.7,0s0.2,0.5,0,0.7l-4.5,4.5
			C14.1,5.5,14,5.5,13.8,5.5z"/>
	</g>
	<g>
		<path class="st4" d="M8.3,7.6c0-1.6,1.6-2.9,3.6-2.9s3.6,1.3,3.6,2.9H8.3z"/>
		<path class="st3" d="M15.5,8.1H8.3C8,8.1,7.8,7.9,7.8,7.6c0-1.9,1.8-3.4,4.1-3.4c2.3,0,4.1,1.5,4.1,3.4C16,7.9,15.8,8.1,15.5,8.1z
			 M8.9,7.1h6.1c-0.3-1.1-1.5-1.9-3-1.9S9.2,6.1,8.9,7.1z"/>
	</g>
	<g>
		<path class="st3" d="M10.2,5.5c-0.1,0-0.3,0-0.4-0.1L5.4,0.9c-0.2-0.2-0.2-0.5,0-0.7s0.5-0.2,0.7,0l4.5,4.5c0.2,0.2,0.2,0.5,0,0.7
			C10.5,5.5,10.3,5.5,10.2,5.5z"/>
	</g>
	<g>
		<path class="st3" d="M20,24.6H3.5c-1.9,0-3.5-1.6-3.5-3.5V10.6c0-1.9,1.6-3.5,3.5-3.5H20c1.9,0,3.5,1.6,3.5,3.5v10.5
			C23.5,23.1,21.9,24.6,20,24.6z M3.5,8.1C2.1,8.1,1,9.2,1,10.6v10.5c0,1.4,1.1,2.5,2.5,2.5H20c1.4,0,2.5-1.1,2.5-2.5V10.6
			c0-1.4-1.1-2.5-2.5-2.5H3.5z"/>
	</g>
	<path class="st5" d="M2.7,19.5v-7.3c0-0.8,0.6-1.5,1.3-1.6c1.7-0.3,3.5-0.5,5.2-0.5c1.8,0,3.5,0.2,5.2,0.5c0.8,0.2,1.3,0.8,1.3,1.6
		v7.3c0,0.8-0.6,1.5-1.3,1.6c-1.7,0.3-3.5,0.5-5.2,0.5c-1.8,0-3.5-0.2-5.2-0.5C3.3,21,2.7,20.3,2.7,19.5z"/>
	<path class="st6" d="M3.9,21.1c-0.8-0.2-1.3-0.8-1.3-1.6v-7.3c0-0.8,0.6-1.5,1.3-1.6c1.7-0.3,3.5-0.5,5.2-0.5
		c1.4,0,2.8,0.1,4.2,0.3c0.3,0.1,0.7,0.1,1,0.2"/>
	<g>
		<path class="st3" d="M9.1,22.1c-1.7,0-3.5-0.2-5.2-0.5c-1-0.2-1.7-1.1-1.7-2.1v-7.3c0-1,0.7-1.9,1.7-2.1c1.8-0.3,3.6-0.5,5.3-0.5
			c1.8,0,3.6,0.2,5.3,0.5c1,0.2,1.7,1.1,1.7,2.1v7.3c0,1-0.7,1.9-1.7,2.1c-1.8,0.3-3.6,0.5-5.3,0.5C9.2,22.1,9.2,22.1,9.1,22.1z
			 M9.1,10.6c-1.7,0-3.4,0.2-5,0.5c-0.5,0.1-0.9,0.6-0.9,1.1v7.3c0,0,0,0,0,0c0,0.5,0.4,1,0.9,1.1c1.7,0.3,3.4,0.5,5.1,0.5
			c1.7,0,3.5-0.2,5.2-0.5c0.5-0.1,0.9-0.6,0.9-1.1v-7.3c0-0.5-0.4-1-0.9-1.1c-1.7-0.3-3.4-0.5-5.1-0.5C9.2,10.6,9.2,10.6,9.1,10.6z
			 M2.7,19.5L2.7,19.5L2.7,19.5z"/>
	</g>
</g>
<g id="Logo" transform="translate(-855)">
	<g id="Group_121" transform="translate(855 0)">
		<g>
			<g id="Group_120" transform="translate(0 0)">
				<path id="Path_281_00000023241411760569467750000016898576926840131999_" class="st3" d="M19.3,23.1l-5.5,8.4l3.1,2l0.5-0.8
					l1.6,7.8l5.4-8.4l-3-2l-0.5,0.8L19.3,23.1z M21.7,31.5l1.3,0.9l-3.6,5.5l-1.6-7.8l-1.3,2l-1.3-0.9l3.6-5.5l1.6,7.7L21.7,31.5z"
					/>
			</g>
		</g>
	</g>
</g>
<polygon class="st7" points="18.8,25.8 20.4,33.5 21.7,31.5 23.1,32.4 19.5,37.9 17.9,30.1 16.5,32.1 15.2,31.2 "/>
</svg>
