<?xml version="1.0" encoding="UTF-8"?>
<svg xmlns="http://www.w3.org/2000/svg" xmlns:xlink="http://www.w3.org/1999/xlink" width="432pt" height="576pt" viewBox="0 0 432 576" version="1.1">
<defs>
<clipPath id="clip1">
  <path d="M 145 71 L 227 71 L 227 253 L 145 253 Z M 145 71 "/>
</clipPath>
<clipPath id="clip2">
  <path d="M 145.25 103.183594 L 145.25 207.585938 C 145.25 208.972656 144.875 214.5 145.597656 215.121094 C 146.050781 215.515625 157.945312 220.816406 159.671875 221.757812 C 162.625 223.375 168.796875 225.859375 170.867188 227.039062 L 173.632812 228.351562 C 175.605469 229.417969 177.113281 230.074219 179.109375 230.988281 L 212.59375 246.890625 C 213.492188 247.320312 214.519531 247.890625 215.410156 248.277344 L 220.945312 250.898438 C 222.488281 251.609375 223.769531 252.726562 225.390625 251.863281 L 226.953125 115.542969 C 223.941406 115.582031 212.347656 116.246094 209.453125 116.960938 C 208.414062 117.214844 206.335938 117.652344 205.199219 117.78125 C 202.394531 118.09375 192.496094 121.96875 190.402344 122.9375 C 188.101562 124.003906 185.839844 125.101562 183.746094 126.355469 L 173.273438 133.339844 C 171.121094 134.183594 169.0625 133.699219 167.507812 132.4375 C 166.386719 131.527344 166.257812 130.828125 165.722656 129.3125 L 158.683594 109.183594 C 158.007812 107.558594 157.480469 105.449219 156.835938 103.6875 L 154.25 96.371094 C 154.046875 95.773438 153.882812 94.980469 153.679688 94.433594 C 153.472656 93.878906 153.179688 93.300781 152.988281 92.742188 L 146.050781 72.632812 C 145.617188 71.3125 145.613281 71.835938 145.265625 71.136719 C 145.019531 81.71875 145.25 92.570312 145.25 103.183594 M 174.777344 198.054688 C 173.726562 196.925781 173.234375 196.019531 172.339844 194.71875 C 171.789062 193.917969 170.648438 191.421875 170.554688 190.425781 C 171.5 190.488281 177.144531 192.902344 178.351562 193.398438 C 180.980469 194.480469 183.253906 195.363281 186.003906 196.425781 C 187.320312 196.933594 188.40625 197.460938 189.730469 197.984375 L 200.976562 202.835938 C 198.347656 204.511719 194.675781 205.078125 191.40625 205.085938 C 191.382812 205.085938 191.359375 205.085938 191.335938 205.085938 C 184.527344 205.085938 179.070312 202.664062 174.777344 198.054688 "/>
</clipPath>
<radialGradient id="radial0" gradientUnits="userSpaceOnUse" cx="0" cy="0" fx="0" fy="0" r="71.14592" gradientTransform="matrix(1.018858,0,0,0.981142,186.052719,161.657776)">
<stop offset="0" style="stop-color:rgb(15.686035%,15.686035%,15.686035%);stop-opacity:1;"/>
<stop offset="1" style="stop-color:rgb(15.686035%,15.686035%,15.686035%);stop-opacity:1;"/>
</radialGradient>
</defs>
<g id="surface1">
<path style="fill:none;stroke-width:8;stroke-linecap:round;stroke-linejoin:round;stroke:rgb(0%,0%,0%);stroke-opacity:1;stroke-miterlimit:10;" d="M 0.00101875 0.00096875 L 13.012738 -87.002938 L 30.58305 -87.002938 " transform="matrix(1,0,0,-1,242.1357,395.333)"/>
<path style="fill:none;stroke-width:8;stroke-linecap:round;stroke-linejoin:round;stroke:rgb(0%,0%,0%);stroke-opacity:1;stroke-miterlimit:10;" d="M 0.001025 -0.00001875 L -7.877881 -91.449237 L -28.467725 -91.449237 " transform="matrix(1,0,0,-1,209.8896,390.8867)"/>
<path style=" stroke:none;fill-rule:nonzero;fill:rgb(4.699707%,2.69928%,1.998901%);fill-opacity:1;" d="M 179.773438 439.265625 C 176.738281 439.265625 174.332031 437.199219 172.808594 431.855469 C 170.589844 424.074219 162.054688 421.707031 148.773438 425.199219 C 138.066406 428.007812 127.980469 433.644531 127.882812 433.703125 L 124.929688 435.363281 L 144.515625 282.714844 L 163.171875 295.519531 C 182.820312 340.089844 193.988281 309.355469 225.789062 309.355469 C 257.914062 309.355469 259.945312 320.257812 287.722656 298.21875 L 302.726562 282.714844 L 323.785156 435.414062 L 320.824219 433.730469 C 320.722656 433.671875 310.652344 427.980469 299.960938 425.117188 C 286.703125 421.5625 278.179688 423.890625 275.960938 431.667969 C 272.082031 445.277344 262.488281 437.671875 251.382812 428.867188 C 244.320312 423.265625 236.316406 416.917969 228.175781 414.234375 C 225.679688 413.410156 223.144531 413.410156 220.648438 414.238281 C 212.496094 416.933594 204.46875 423.328125 197.390625 428.964844 C 190.648438 434.335938 184.460938 439.261719 179.773438 439.265625 "/>
<path style=" stroke:none;fill-rule:nonzero;fill:rgb(1.599121%,3.09906%,5.899048%);fill-opacity:1;" d="M 296.746094 292.125 L 149.488281 292.125 C 142.886719 292.125 137.488281 286.726562 137.488281 280.125 L 137.488281 265.835938 C 137.488281 259.238281 142.886719 253.835938 149.488281 253.835938 L 296.746094 253.835938 C 303.34375 253.835938 308.746094 259.238281 308.746094 265.835938 L 308.746094 280.125 C 308.746094 286.726562 303.34375 292.125 296.746094 292.125 "/>
<path style=" stroke:none;fill-rule:nonzero;fill:rgb(17.599487%,19.198608%,24.699402%);fill-opacity:1;" d="M 287.722656 382.292969 C 287.722656 397.308594 259.496094 409.480469 224.679688 409.480469 C 189.867188 409.480469 161.640625 397.308594 161.640625 382.292969 C 161.640625 367.277344 189.867188 355.105469 224.679688 355.105469 C 259.496094 355.105469 287.722656 367.277344 287.722656 382.292969 "/>
<path style=" stroke:none;fill-rule:nonzero;fill:rgb(98.399353%,84.698486%,16.899109%);fill-opacity:1;" d="M 148.777344 147.234375 C 148.777344 163.738281 182.472656 177.113281 224.039062 177.113281 C 265.605469 177.113281 299.296875 163.738281 299.296875 147.234375 C 299.296875 147.234375 299.738281 363.863281 299.296875 368.535156 C 297.753906 384.964844 265.605469 398.414062 224.039062 398.414062 C 182.472656 398.414062 148.777344 385.035156 148.777344 368.535156 Z M 148.777344 147.234375 "/>
<path style=" stroke:none;fill-rule:nonzero;fill:rgb(100%,88.598633%,47.099304%);fill-opacity:1;" d="M 161.644531 366.363281 L 161.644531 163.925781 C 164.003906 165.308594 166.652344 166.609375 169.550781 167.8125 L 169.550781 389.113281 C 166.652344 387.910156 164.003906 386.605469 161.644531 385.222656 Z M 161.644531 366.363281 "/>
<path style=" stroke:none;fill-rule:nonzero;fill:rgb(100%,88.598633%,47.099304%);fill-opacity:1;" d="M 196.421875 352.148438 L 196.421875 174.96875 C 193.703125 174.542969 191.0625 174.054688 188.511719 173.511719 L 188.511719 394.8125 C 191.0625 395.355469 193.703125 395.839844 196.421875 396.265625 Z M 196.421875 352.148438 "/>
<path style=" stroke:none;fill-rule:nonzero;fill:rgb(100%,88.598633%,47.099304%);fill-opacity:1;" d="M 231.027344 394.253906 L 231.027344 177.113281 C 228.726562 177.199219 226.394531 177.242188 224.039062 177.242188 C 223.730469 177.242188 223.421875 177.238281 223.117188 177.238281 L 223.117188 398.539062 C 223.421875 398.539062 223.730469 398.539062 224.039062 398.539062 C 226.398438 398.539062 228.730469 398.496094 231.027344 398.410156 Z M 231.027344 394.253906 "/>
<path style=" stroke:none;fill-rule:nonzero;fill:rgb(100%,88.598633%,47.099304%);fill-opacity:1;" d="M 252.035156 396.257812 L 252.035156 175 L 259.945312 173.523438 L 259.945312 394.738281 Z M 252.035156 396.257812 "/>
<path style=" stroke:none;fill-rule:nonzero;fill:rgb(100%,88.598633%,47.099304%);fill-opacity:1;" d="M 279.808594 369.773438 L 279.808594 388.292969 C 282.1875 387.160156 286.144531 385 287.71875 384 L 287.71875 184.476562 L 287.722656 163.246094 C 285.421875 164.621094 282.761719 165.945312 279.808594 167.296875 "/>
<path style=" stroke:none;fill-rule:nonzero;fill:rgb(0.799561%,1.599121%,3.898621%);fill-opacity:1;" d="M 145.523438 313.058594 L 145.523438 370.246094 C 145.523438 387.417969 180.707031 401.335938 224.113281 401.335938 C 267.515625 401.335938 301.085938 387.34375 302.703125 370.246094 C 302.851562 368.652344 302.902344 343.308594 302.90625 309.972656 L 302.703125 270.667969 C 302.703125 287.835938 267.515625 301.753906 224.113281 301.753906 C 180.707031 301.753906 145.523438 287.835938 145.523438 270.667969 Z M 145.523438 313.058594 "/>
<path style=" stroke:none;fill-rule:nonzero;fill:rgb(0%,0%,0%);fill-opacity:1;" d="M 226.019531 373.261719 C 226.019531 373.253906 226.019531 373.246094 226.019531 373.238281 C 226.285156 373.238281 226.546875 373.242188 226.8125 373.238281 C 227.527344 373.21875 228.242188 373.207031 228.953125 373.171875 C 229.746094 373.128906 230.535156 373.074219 231.324219 373.015625 C 232.042969 372.957031 232.765625 372.898438 233.480469 372.8125 C 234.328125 372.710938 235.175781 372.585938 236.019531 372.457031 C 236.769531 372.34375 237.523438 372.226562 238.269531 372.089844 C 238.917969 371.96875 239.5625 371.824219 240.207031 371.683594 C 240.828125 371.546875 241.449219 371.410156 242.066406 371.257812 C 242.59375 371.125 243.117188 370.980469 243.636719 370.828125 C 244.414062 370.601562 245.1875 370.378906 245.957031 370.132812 C 246.613281 369.921875 247.261719 369.679688 247.910156 369.445312 C 248.46875 369.238281 249.03125 369.039062 249.582031 368.808594 C 250.363281 368.484375 251.136719 368.144531 251.902344 367.785156 C 252.714844 367.402344 253.523438 367 254.316406 366.578125 C 254.929688 366.25 255.519531 365.875 256.117188 365.519531 C 256.46875 365.308594 256.824219 365.101562 257.164062 364.875 C 257.636719 364.5625 258.101562 364.238281 258.5625 363.914062 C 258.8125 363.742188 259.050781 363.558594 259.289062 363.375 C 259.519531 363.203125 259.746094 363.03125 259.96875 362.851562 C 260.226562 362.640625 260.480469 362.425781 260.730469 362.203125 C 261.300781 361.6875 261.878906 361.183594 262.425781 360.644531 C 262.941406 360.132812 263.441406 359.605469 263.894531 359.035156 C 264.117188 358.753906 264.359375 358.492188 264.570312 358.207031 C 264.945312 357.6875 265.3125 357.160156 265.671875 356.625 C 265.839844 356.378906 265.980469 356.113281 266.132812 355.855469 C 266.210938 355.714844 266.28125 355.570312 266.359375 355.425781 C 266.527344 355.113281 266.707031 354.804688 266.859375 354.484375 C 267.152344 353.867188 267.414062 353.238281 267.621094 352.585938 C 267.707031 352.320312 267.816406 352.0625 267.882812 351.789062 C 268.015625 351.242188 268.121094 350.6875 268.238281 350.132812 C 268.425781 349.269531 268.464844 348.394531 268.46875 347.515625 C 268.46875 346.847656 268.414062 346.183594 268.339844 345.519531 C 268.265625 344.832031 268.105469 344.160156 267.953125 343.488281 C 267.828125 342.964844 267.644531 342.449219 267.453125 341.941406 C 267.210938 341.296875 266.945312 340.660156 266.625 340.046875 C 266.304688 339.433594 265.96875 338.832031 265.585938 338.257812 C 265.347656 337.898438 265.09375 337.542969 264.84375 337.191406 C 264.628906 336.898438 264.417969 336.597656 264.183594 336.320312 C 263.804688 335.871094 263.414062 335.425781 263.011719 334.996094 C 262.644531 334.601562 262.269531 334.203125 261.871094 333.839844 C 261.246094 333.273438 260.609375 332.71875 259.957031 332.183594 C 259.429688 331.75 258.878906 331.34375 258.320312 330.949219 C 257.882812 330.632812 257.414062 330.355469 256.96875 330.046875 C 256.296875 329.585938 255.589844 329.183594 254.878906 328.789062 C 254.535156 328.597656 254.183594 328.414062 253.835938 328.230469 C 253.519531 328.0625 253.210938 327.882812 252.890625 327.730469 C 252.363281 327.476562 251.835938 327.238281 251.304688 327 C 250.804688 326.777344 250.300781 326.546875 249.789062 326.34375 C 249.03125 326.042969 248.269531 325.757812 247.503906 325.476562 C 247.015625 325.296875 246.523438 325.132812 246.027344 324.972656 C 245.53125 324.8125 245.035156 324.664062 244.535156 324.519531 C 243.855469 324.320312 243.179688 324.117188 242.496094 323.941406 C 241.773438 323.757812 241.046875 323.597656 240.320312 323.445312 C 239.683594 323.308594 239.042969 323.175781 238.398438 323.070312 C 237.246094 322.875 236.089844 322.6875 234.929688 322.515625 C 234.191406 322.410156 233.449219 322.339844 232.707031 322.261719 C 232.261719 322.214844 231.8125 322.183594 231.359375 322.152344 C 230.882812 322.117188 230.402344 322.09375 229.921875 322.066406 C 229.339844 322.035156 228.757812 321.992188 228.179688 321.976562 C 227.339844 321.949219 226.5 321.917969 225.660156 321.925781 C 224.597656 321.9375 223.535156 321.980469 222.46875 322.015625 C 222.074219 322.027344 221.679688 322.050781 221.285156 322.078125 C 220.835938 322.109375 220.386719 322.152344 219.9375 322.1875 C 219.472656 322.226562 219.007812 322.25 218.546875 322.304688 C 217.636719 322.414062 216.726562 322.519531 215.820312 322.660156 C 214.675781 322.835938 213.539062 323.035156 212.398438 323.242188 C 211.773438 323.359375 211.15625 323.503906 210.535156 323.648438 C 209.78125 323.828125 209.027344 324.019531 208.277344 324.210938 C 207.917969 324.304688 207.5625 324.417969 207.203125 324.523438 C 206.742188 324.65625 206.277344 324.78125 205.820312 324.925781 C 205.378906 325.066406 204.9375 325.21875 204.5 325.375 C 203.777344 325.636719 203.050781 325.886719 202.339844 326.175781 C 201.433594 326.542969 200.53125 326.925781 199.648438 327.335938 C 198.769531 327.746094 197.902344 328.183594 197.042969 328.632812 C 196.433594 328.953125 195.835938 329.308594 195.242188 329.660156 C 194.785156 329.933594 194.332031 330.222656 193.886719 330.519531 C 193.484375 330.785156 193.09375 331.0625 192.710938 331.351562 C 192.0625 331.84375 191.40625 332.328125 190.785156 332.855469 C 190.195312 333.347656 189.640625 333.878906 189.089844 334.414062 C 188.695312 334.789062 188.328125 335.1875 187.957031 335.585938 C 187.363281 336.222656 186.824219 336.90625 186.316406 337.609375 C 185.832031 338.28125 185.402344 338.988281 184.988281 339.710938 C 184.582031 340.417969 184.273438 341.171875 183.941406 341.914062 C 183.84375 342.144531 183.753906 342.375 183.683594 342.613281 C 183.511719 343.226562 183.339844 343.839844 183.191406 344.457031 C 183.023438 345.160156 182.90625 345.875 182.867188 346.59375 C 182.839844 347.191406 182.800781 347.789062 182.855469 348.386719 C 182.902344 348.917969 182.914062 349.457031 182.996094 349.984375 C 183.101562 350.625 183.246094 351.265625 183.402344 351.894531 C 183.644531 352.878906 184.023438 353.816406 184.449219 354.730469 C 184.714844 355.296875 185.027344 355.847656 185.347656 356.386719 C 185.761719 357.082031 186.226562 357.742188 186.714844 358.382812 C 187.335938 359.199219 188.019531 359.960938 188.734375 360.695312 C 189.4375 361.410156 190.183594 362.078125 190.960938 362.710938 C 191.464844 363.121094 191.984375 363.515625 192.511719 363.898438 C 193.097656 364.320312 193.6875 364.734375 194.296875 365.121094 C 194.847656 365.480469 195.417969 365.816406 195.992188 366.140625 C 196.730469 366.554688 197.46875 366.964844 198.222656 367.347656 C 199.296875 367.886719 200.394531 368.382812 201.515625 368.824219 C 202.347656 369.148438 203.179688 369.472656 204.019531 369.773438 C 204.707031 370.015625 205.402344 370.238281 206.101562 370.449219 C 206.925781 370.695312 207.753906 370.933594 208.585938 371.152344 C 209.269531 371.335938 209.957031 371.488281 210.644531 371.648438 C 211.984375 371.960938 213.335938 372.207031 214.695312 372.414062 C 215.164062 372.488281 215.628906 372.566406 216.101562 372.628906 C 216.554688 372.691406 217.007812 372.738281 217.464844 372.789062 C 218.328125 372.878906 219.191406 372.980469 220.058594 373.046875 C 220.871094 373.113281 221.6875 373.160156 222.5 373.1875 C 223.671875 373.226562 224.847656 373.238281 226.019531 373.261719 M 224.660156 319.554688 C 228.972656 319.542969 232.125 319.738281 235.265625 320.144531 C 237.664062 320.457031 240.039062 320.890625 242.390625 321.460938 C 244.210938 321.902344 246.011719 322.417969 247.78125 323.027344 C 248.925781 323.417969 250.0625 323.835938 251.171875 324.328125 C 252.070312 324.730469 252.976562 325.125 253.863281 325.550781 C 254.972656 326.085938 256.0625 326.667969 257.113281 327.320312 C 257.671875 327.660156 258.234375 327.988281 258.773438 328.351562 C 259.722656 328.988281 260.660156 329.640625 261.535156 330.371094 C 261.9375 330.703125 262.347656 331.023438 262.734375 331.367188 C 263.554688 332.09375 264.339844 332.851562 265.078125 333.664062 C 265.667969 334.3125 266.230469 334.988281 266.753906 335.6875 C 267.507812 336.691406 268.171875 337.75 268.75 338.859375 C 269.566406 340.433594 270.171875 342.085938 270.539062 343.820312 C 270.949219 345.761719 271.03125 347.71875 270.785156 349.6875 C 270.515625 351.835938 269.871094 353.871094 268.910156 355.808594 C 268.160156 357.320312 267.242188 358.71875 266.191406 360.03125 C 265.601562 360.773438 264.980469 361.488281 264.308594 362.15625 C 263.699219 362.765625 263.0625 363.347656 262.421875 363.921875 C 261.535156 364.714844 260.582031 365.425781 259.613281 366.109375 C 258.710938 366.742188 257.792969 367.355469 256.828125 367.894531 C 255.914062 368.402344 255.003906 368.921875 254.070312 369.398438 C 252.519531 370.1875 250.921875 370.871094 249.292969 371.488281 C 247.511719 372.167969 245.703125 372.753906 243.867188 373.257812 C 242 373.769531 240.113281 374.195312 238.207031 374.539062 C 236.347656 374.871094 234.480469 375.132812 232.597656 375.316406 C 230.324219 375.535156 228.042969 375.652344 225.757812 375.660156 C 224 375.667969 222.246094 375.613281 220.492188 375.492188 C 218.894531 375.378906 217.304688 375.234375 215.71875 374.996094 C 214.566406 374.824219 213.414062 374.644531 212.269531 374.4375 C 211.484375 374.296875 210.703125 374.121094 209.925781 373.9375 C 208.890625 373.691406 207.855469 373.4375 206.828125 373.160156 C 206.140625 372.976562 205.460938 372.753906 204.78125 372.535156 C 204.066406 372.300781 203.351562 372.070312 202.644531 371.804688 C 201.753906 371.46875 200.867188 371.113281 199.984375 370.746094 C 199.417969 370.515625 198.859375 370.261719 198.300781 370.003906 C 197.175781 369.488281 196.070312 368.917969 194.996094 368.296875 C 194.417969 367.964844 193.84375 367.621094 193.28125 367.269531 C 191.851562 366.367188 190.488281 365.382812 189.199219 364.296875 C 188.367188 363.59375 187.574219 362.855469 186.816406 362.074219 C 185.882812 361.105469 185.019531 360.078125 184.242188 358.980469 C 183.335938 357.699219 182.5625 356.347656 181.945312 354.90625 C 181.390625 353.601562 180.972656 352.253906 180.722656 350.855469 C 180.484375 349.503906 180.382812 348.144531 180.46875 346.773438 C 180.539062 345.65625 180.6875 344.546875 180.964844 343.460938 C 181.183594 342.585938 181.464844 341.734375 181.804688 340.898438 C 182.125 340.105469 182.496094 339.335938 182.914062 338.589844 C 183.199219 338.082031 183.5 337.582031 183.828125 337.105469 C 184.273438 336.453125 184.730469 335.804688 185.222656 335.1875 C 185.691406 334.601562 186.203125 334.042969 186.714844 333.492188 C 187.132812 333.046875 187.5625 332.613281 188.011719 332.195312 C 188.472656 331.765625 188.949219 331.359375 189.433594 330.957031 C 189.949219 330.527344 190.46875 330.089844 191.015625 329.699219 C 191.769531 329.15625 192.542969 328.632812 193.324219 328.125 C 193.988281 327.695312 194.664062 327.28125 195.355469 326.894531 C 196.175781 326.4375 197.011719 326.007812 197.851562 325.589844 C 199.742188 324.65625 201.691406 323.867188 203.683594 323.175781 C 208.058594 321.652344 212.558594 320.667969 217.15625 320.097656 C 220.027344 319.738281 222.910156 319.566406 224.660156 319.554688 "/>
<path style=" stroke:none;fill-rule:nonzero;fill:rgb(98.399353%,84.698486%,16.899109%);fill-opacity:1;" d="M 219.785156 325.636719 C 219.761719 325.640625 219.738281 325.644531 219.710938 325.648438 C 219.691406 325.703125 219.65625 325.753906 219.652344 325.808594 C 219.5625 326.648438 219.476562 327.488281 219.394531 328.332031 C 219.316406 329.128906 219.246094 329.921875 219.167969 330.71875 C 219.117188 331.25 219.058594 331.78125 219.003906 332.316406 C 218.988281 332.4375 218.964844 332.558594 218.953125 332.683594 C 218.898438 333.292969 218.851562 333.90625 218.792969 334.515625 C 218.710938 335.363281 218.613281 336.210938 218.539062 337.0625 C 218.480469 337.722656 218.390625 338.375 218.167969 339 C 217.9375 339.648438 217.710938 340.296875 217.382812 340.910156 C 217.023438 341.574219 216.582031 342.167969 216.046875 342.6875 C 215.523438 343.191406 214.914062 343.558594 214.222656 343.773438 C 213.738281 343.921875 213.238281 344 212.730469 343.957031 C 212.214844 343.917969 211.71875 343.808594 211.238281 343.621094 C 210.539062 343.351562 209.933594 342.9375 209.394531 342.425781 C 209.074219 342.121094 208.785156 341.785156 208.523438 341.425781 C 208.078125 340.8125 207.722656 340.152344 207.472656 339.4375 C 207.328125 339.023438 207.222656 338.589844 207.113281 338.164062 C 206.953125 337.542969 206.878906 336.910156 206.871094 336.273438 C 206.867188 335.722656 206.882812 335.167969 206.929688 334.621094 C 207.007812 333.800781 207.148438 332.992188 207.410156 332.207031 C 207.585938 331.660156 207.753906 331.113281 207.953125 330.574219 C 208.265625 329.730469 208.675781 328.925781 209.113281 328.140625 C 209.578125 327.316406 210.082031 326.515625 210.648438 325.753906 C 210.6875 325.703125 210.707031 325.640625 210.746094 325.550781 C 210.652344 325.535156 210.589844 325.515625 210.535156 325.527344 C 210.308594 325.566406 210.078125 325.609375 209.855469 325.664062 C 209.238281 325.824219 208.621094 325.992188 208.011719 326.160156 C 207.570312 326.28125 207.128906 326.40625 206.691406 326.542969 C 206.28125 326.667969 205.878906 326.808594 205.476562 326.945312 C 204.941406 327.125 204.402344 327.304688 203.871094 327.5 C 203.445312 327.65625 203.023438 327.835938 202.597656 328.007812 C 202.203125 328.167969 201.800781 328.316406 201.414062 328.488281 C 200.722656 328.804688 200.035156 329.125 199.347656 329.457031 C 198.847656 329.703125 198.351562 329.960938 197.859375 330.226562 C 197.394531 330.476562 196.9375 330.738281 196.484375 331.003906 C 196.035156 331.269531 195.59375 331.542969 195.160156 331.828125 C 194.800781 332.058594 194.453125 332.308594 194.105469 332.558594 C 193.691406 332.855469 193.269531 333.148438 192.871094 333.464844 C 192.355469 333.875 191.835938 334.28125 191.363281 334.738281 C 190.90625 335.179688 190.433594 335.609375 189.988281 336.058594 C 189.433594 336.613281 188.921875 337.207031 188.4375 337.824219 C 187.972656 338.414062 187.542969 339.03125 187.148438 339.667969 C 186.796875 340.238281 186.46875 340.816406 186.199219 341.425781 C 185.976562 341.921875 185.78125 342.429688 185.578125 342.933594 C 185.527344 343.0625 185.492188 343.195312 185.453125 343.328125 C 185.359375 343.625 185.257812 343.917969 185.179688 344.214844 C 185.039062 344.765625 184.9375 345.320312 184.859375 345.878906 C 184.773438 346.527344 184.742188 347.175781 184.734375 347.828125 C 184.722656 348.449219 184.789062 349.066406 184.878906 349.683594 C 184.921875 349.988281 184.957031 350.300781 185.027344 350.601562 C 185.160156 351.152344 185.269531 351.707031 185.472656 352.238281 C 185.683594 352.773438 185.867188 353.320312 186.101562 353.839844 C 186.335938 354.359375 186.59375 354.875 186.898438 355.363281 C 187.128906 355.734375 187.363281 356.109375 187.640625 356.449219 C 188.019531 356.917969 188.390625 357.398438 188.785156 357.855469 C 189.207031 358.339844 189.644531 358.816406 190.09375 359.277344 C 190.421875 359.617188 190.78125 359.925781 191.125 360.25 C 191.863281 360.949219 192.648438 361.59375 193.453125 362.210938 C 193.765625 362.453125 194.078125 362.699219 194.398438 362.929688 C 194.796875 363.210938 195.195312 363.496094 195.605469 363.761719 C 196.273438 364.195312 196.9375 364.640625 197.628906 365.035156 C 198.3125 365.417969 199.027344 365.742188 199.726562 366.09375 C 199.949219 366.203125 200.171875 366.316406 200.394531 366.421875 C 200.667969 366.550781 200.945312 366.671875 201.222656 366.792969 C 201.265625 366.808594 201.324219 366.785156 201.371094 366.78125 C 201.363281 366.734375 201.359375 366.683594 201.347656 366.632812 C 201.339844 366.613281 201.320312 366.597656 201.304688 366.578125 C 201.066406 366.199219 200.816406 365.820312 200.582031 365.4375 C 200.242188 364.878906 199.949219 364.300781 199.691406 363.699219 C 199.574219 363.421875 199.472656 363.136719 199.382812 362.847656 C 199.273438 362.5 199.164062 362.148438 199.09375 361.792969 C 198.988281 361.273438 198.972656 360.746094 198.988281 360.214844 C 199.003906 359.589844 199.152344 359.003906 199.449219 358.457031 C 199.828125 357.765625 200.390625 357.269531 201.09375 356.929688 C 201.65625 356.660156 202.257812 356.542969 202.878906 356.53125 C 203.210938 356.523438 203.542969 356.5625 203.875 356.574219 C 204.4375 356.597656 204.964844 356.765625 205.480469 356.945312 C 206.148438 357.179688 206.777344 357.496094 207.378906 357.875 C 208.109375 358.339844 208.773438 358.882812 209.398438 359.472656 C 209.613281 359.671875 209.804688 359.902344 210.003906 360.117188 C 210.636719 360.792969 211.175781 361.539062 211.660156 362.328125 C 211.890625 362.695312 212.101562 363.074219 212.320312 363.453125 C 212.359375 363.519531 212.402344 363.601562 212.492188 363.574219 C 212.535156 363.558594 212.578125 363.488281 212.59375 363.433594 C 212.8125 362.675781 213.097656 361.949219 213.484375 361.265625 C 213.921875 360.5 214.445312 359.808594 215.191406 359.300781 C 215.742188 358.925781 216.347656 358.75 217 358.710938 C 217.421875 358.6875 217.820312 358.792969 218.210938 358.917969 C 219.179688 359.234375 219.960938 359.835938 220.667969 360.546875 C 221.144531 361.027344 221.570312 361.550781 221.960938 362.101562 C 222.480469 362.835938 222.933594 363.613281 223.328125 364.417969 C 223.667969 365.113281 223.988281 365.824219 224.242188 366.558594 C 224.46875 367.210938 224.710938 367.855469 224.886719 368.527344 C 225.042969 369.132812 225.195312 369.742188 225.355469 370.351562 C 225.378906 370.433594 225.429688 370.507812 225.484375 370.617188 C 225.535156 370.542969 225.570312 370.511719 225.578125 370.46875 C 225.679688 370.066406 225.765625 369.65625 225.882812 369.253906 C 226.117188 368.441406 226.339844 367.621094 226.625 366.828125 C 227.109375 365.476562 227.707031 364.171875 228.476562 362.953125 C 228.988281 362.140625 229.550781 361.375 230.222656 360.691406 C 230.601562 360.300781 231.019531 359.957031 231.464844 359.640625 C 231.820312 359.386719 232.210938 359.199219 232.613281 359.035156 C 233.339844 358.742188 234.085938 358.671875 234.847656 358.855469 C 235.726562 359.0625 236.386719 359.601562 236.945312 360.28125 C 237.113281 360.492188 237.246094 360.734375 237.410156 360.949219 C 237.691406 361.324219 237.886719 361.746094 238.078125 362.167969 C 238.269531 362.582031 238.40625 363.023438 238.558594 363.453125 C 238.585938 363.53125 238.613281 363.617188 238.703125 363.609375 C 238.753906 363.601562 238.804688 363.527344 238.839844 363.472656 C 239.027344 363.152344 239.203125 362.824219 239.394531 362.503906 C 239.855469 361.746094 240.363281 361.027344 240.953125 360.367188 C 241.328125 359.953125 241.703125 359.535156 242.113281 359.160156 C 242.507812 358.800781 242.945312 358.492188 243.371094 358.167969 C 243.917969 357.753906 244.523438 357.441406 245.152344 357.171875 C 245.453125 357.039062 245.773438 356.945312 246.085938 356.832031 C 246.714844 356.613281 247.367188 356.519531 248.03125 356.511719 C 248.339844 356.503906 248.652344 356.535156 248.960938 356.5625 C 249.65625 356.625 250.285156 356.875 250.855469 357.273438 C 251.496094 357.714844 251.925781 358.324219 252.183594 359.050781 C 252.363281 359.5625 252.421875 360.09375 252.417969 360.632812 C 252.410156 361.351562 252.261719 362.046875 252.058594 362.734375 C 251.933594 363.148438 251.789062 363.558594 251.585938 363.945312 C 251.488281 364.132812 251.40625 364.335938 251.304688 364.527344 C 251.148438 364.835938 250.992188 365.148438 250.816406 365.445312 C 250.65625 365.726562 250.472656 365.996094 250.296875 366.273438 C 250.25 366.34375 250.207031 366.414062 250.269531 366.53125 C 250.34375 366.507812 250.417969 366.492188 250.484375 366.460938 C 250.992188 366.226562 251.5 365.996094 252 365.746094 C 252.464844 365.515625 252.921875 365.265625 253.378906 365.019531 C 253.761719 364.816406 254.152344 364.617188 254.519531 364.394531 C 255.128906 364.023438 255.726562 363.628906 256.328125 363.25 C 256.453125 363.167969 256.582031 363.101562 256.703125 363.015625 C 257.203125 362.648438 257.703125 362.28125 258.195312 361.90625 C 258.5625 361.628906 258.925781 361.355469 259.269531 361.050781 C 259.785156 360.59375 260.289062 360.121094 260.789062 359.644531 C 261.074219 359.371094 261.359375 359.09375 261.621094 358.796875 C 261.988281 358.390625 262.339844 357.964844 262.683594 357.539062 C 262.960938 357.195312 263.234375 356.847656 263.484375 356.484375 C 263.765625 356.078125 264.023438 355.652344 264.285156 355.234375 C 264.367188 355.109375 264.4375 354.980469 264.503906 354.847656 C 264.746094 354.371094 264.996094 353.898438 265.21875 353.414062 C 265.378906 353.070312 265.507812 352.710938 265.628906 352.351562 C 265.789062 351.882812 265.933594 351.40625 266.066406 350.929688 C 266.144531 350.65625 266.199219 350.371094 266.238281 350.085938 C 266.320312 349.511719 266.410156 348.9375 266.453125 348.359375 C 266.503906 347.675781 266.476562 346.996094 266.417969 346.3125 C 266.347656 345.457031 266.214844 344.617188 265.972656 343.796875 C 265.691406 342.84375 265.394531 341.898438 264.914062 341.019531 C 264.675781 340.578125 264.460938 340.121094 264.207031 339.6875 C 263.832031 339.050781 263.429688 338.4375 262.964844 337.863281 C 262.585938 337.394531 262.199219 336.925781 261.796875 336.476562 C 261.378906 336.015625 260.957031 335.558594 260.507812 335.132812 C 260.027344 334.671875 259.511719 334.246094 259 333.820312 C 258.582031 333.472656 258.160156 333.128906 257.726562 332.808594 C 256.902344 332.199219 256.054688 331.617188 255.171875 331.101562 C 254.46875 330.6875 253.765625 330.28125 253.046875 329.894531 C 252.507812 329.601562 251.957031 329.335938 251.402344 329.078125 C 250.71875 328.757812 250.039062 328.433594 249.34375 328.152344 C 248.378906 327.761719 247.40625 327.402344 246.429688 327.042969 C 245.910156 326.855469 245.382812 326.695312 244.859375 326.53125 C 244.390625 326.382812 243.921875 326.246094 243.453125 326.113281 C 243.050781 326 242.644531 325.898438 242.238281 325.792969 C 241.644531 325.640625 241.050781 325.492188 240.453125 325.347656 C 240.402344 325.332031 240.34375 325.351562 240.238281 325.359375 C 240.304688 325.460938 240.339844 325.527344 240.382812 325.585938 C 240.535156 325.800781 240.703125 326.007812 240.84375 326.230469 C 241.214844 326.8125 241.609375 327.375 241.9375 327.984375 C 242.277344 328.617188 242.609375 329.25 242.898438 329.910156 C 243.148438 330.480469 243.363281 331.058594 243.554688 331.652344 C 243.769531 332.308594 243.921875 332.980469 244.039062 333.65625 C 244.207031 334.609375 244.253906 335.570312 244.1875 336.535156 C 244.148438 337.125 244.042969 337.703125 243.910156 338.277344 C 243.773438 338.859375 243.546875 339.414062 243.328125 339.96875 C 243.316406 340.003906 243.292969 340.035156 243.273438 340.070312 C 243.140625 340.304688 243.011719 340.542969 242.871094 340.777344 C 242.742188 340.992188 242.609375 341.214844 242.449219 341.414062 C 242.003906 341.976562 241.5 342.472656 240.917969 342.894531 C 240.496094 343.199219 240.042969 343.433594 239.558594 343.597656 C 238.824219 343.847656 238.066406 343.941406 237.289062 343.796875 C 236.414062 343.636719 235.660156 343.253906 235.003906 342.664062 C 234.324219 342.054688 233.808594 341.324219 233.410156 340.503906 C 233.089844 339.839844 232.828125 339.152344 232.636719 338.4375 C 232.578125 338.21875 232.515625 338 232.488281 337.78125 C 232.382812 336.933594 232.292969 336.082031 232.199219 335.234375 C 232.152344 334.84375 232.109375 334.449219 232.066406 334.058594 C 231.96875 333.121094 231.867188 332.191406 231.769531 331.253906 C 231.675781 330.34375 231.589844 329.433594 231.492188 328.523438 C 231.386719 327.574219 231.273438 326.625 231.160156 325.675781 C 231.15625 325.628906 231.128906 325.582031 231.09375 325.5 C 231.019531 325.574219 230.957031 325.617188 230.914062 325.671875 C 230.6875 325.964844 230.464844 326.265625 230.238281 326.558594 C 229.71875 327.238281 229.195312 327.910156 228.683594 328.589844 C 228.585938 328.71875 228.488281 328.769531 228.335938 328.769531 C 226.453125 328.78125 224.574219 328.789062 222.695312 328.824219 C 222.378906 328.832031 222.195312 328.71875 222.023438 328.484375 C 221.722656 328.070312 221.398438 327.671875 221.082031 327.269531 C 220.820312 326.933594 220.554688 326.597656 220.292969 326.265625 C 220.125 326.054688 219.953125 325.84375 219.785156 325.636719 M 226.019531 373.261719 C 224.847656 373.238281 223.671875 373.226562 222.5 373.1875 C 221.6875 373.160156 220.871094 373.113281 220.058594 373.046875 C 219.191406 372.980469 218.328125 372.878906 217.464844 372.789062 C 217.007812 372.738281 216.554688 372.691406 216.097656 372.628906 C 215.628906 372.566406 215.164062 372.488281 214.695312 372.414062 C 213.335938 372.207031 211.984375 371.960938 210.644531 371.648438 C 209.957031 371.488281 209.269531 371.335938 208.585938 371.152344 C 207.753906 370.933594 206.925781 370.695312 206.097656 370.449219 C 205.402344 370.238281 204.707031 370.015625 204.019531 369.773438 C 203.179688 369.472656 202.347656 369.148438 201.515625 368.824219 C 200.394531 368.382812 199.296875 367.886719 198.222656 367.347656 C 197.46875 366.964844 196.730469 366.554688 195.992188 366.140625 C 195.417969 365.816406 194.847656 365.480469 194.292969 365.121094 C 193.691406 364.734375 193.097656 364.320312 192.511719 363.898438 C 191.984375 363.515625 191.464844 363.121094 190.960938 362.710938 C 190.179688 362.078125 189.4375 361.410156 188.738281 360.695312 C 188.019531 359.960938 187.335938 359.199219 186.714844 358.382812 C 186.222656 357.742188 185.761719 357.082031 185.347656 356.386719 C 185.027344 355.847656 184.714844 355.296875 184.449219 354.730469 C 184.023438 353.816406 183.644531 352.878906 183.402344 351.894531 C 183.246094 351.265625 183.101562 350.625 182.996094 349.984375 C 182.914062 349.457031 182.902344 348.917969 182.855469 348.386719 C 182.800781 347.789062 182.839844 347.191406 182.867188 346.59375 C 182.90625 345.875 183.023438 345.160156 183.191406 344.457031 C 183.335938 343.839844 183.511719 343.226562 183.683594 342.613281 C 183.753906 342.375 183.84375 342.144531 183.941406 341.914062 C 184.273438 341.171875 184.582031 340.417969 184.988281 339.710938 C 185.402344 338.988281 185.832031 338.28125 186.316406 337.609375 C 186.824219 336.90625 187.363281 336.222656 187.957031 335.585938 C 188.328125 335.1875 188.695312 334.789062 189.089844 334.414062 C 189.640625 333.878906 190.199219 333.347656 190.785156 332.855469 C 191.40625 332.328125 192.0625 331.84375 192.710938 331.351562 C 193.09375 331.0625 193.488281 330.785156 193.886719 330.519531 C 194.332031 330.222656 194.785156 329.933594 195.242188 329.660156 C 195.835938 329.308594 196.429688 328.953125 197.042969 328.632812 C 197.902344 328.183594 198.769531 327.746094 199.648438 327.335938 C 200.535156 326.925781 201.433594 326.542969 202.339844 326.175781 C 203.050781 325.886719 203.777344 325.636719 204.5 325.375 C 204.9375 325.21875 205.378906 325.066406 205.820312 324.925781 C 206.28125 324.78125 206.742188 324.65625 207.203125 324.523438 C 207.5625 324.417969 207.917969 324.304688 208.277344 324.210938 C 209.027344 324.019531 209.78125 323.828125 210.535156 323.648438 C 211.15625 323.503906 211.773438 323.359375 212.398438 323.242188 C 213.539062 323.035156 214.675781 322.835938 215.820312 322.660156 C 216.722656 322.519531 217.636719 322.414062 218.546875 322.304688 C 219.007812 322.25 219.472656 322.226562 219.9375 322.1875 C 220.386719 322.152344 220.835938 322.109375 221.285156 322.078125 C 221.679688 322.050781 222.074219 322.027344 222.46875 322.015625 C 223.535156 321.980469 224.597656 321.9375 225.660156 321.925781 C 226.5 321.917969 227.339844 321.949219 228.175781 321.976562 C 228.757812 321.992188 229.339844 322.035156 229.921875 322.066406 C 230.402344 322.09375 230.882812 322.117188 231.363281 322.152344 C 231.8125 322.183594 232.257812 322.214844 232.707031 322.261719 C 233.449219 322.339844 234.191406 322.410156 234.929688 322.515625 C 236.089844 322.6875 237.246094 322.875 238.402344 323.070312 C 239.042969 323.175781 239.679688 323.308594 240.320312 323.445312 C 241.046875 323.597656 241.777344 323.757812 242.496094 323.941406 C 243.179688 324.117188 243.859375 324.320312 244.535156 324.519531 C 245.035156 324.664062 245.53125 324.8125 246.027344 324.972656 C 246.523438 325.132812 247.015625 325.296875 247.503906 325.476562 C 248.269531 325.757812 249.03125 326.042969 249.789062 326.34375 C 250.300781 326.546875 250.804688 326.777344 251.304688 327 C 251.835938 327.238281 252.367188 327.476562 252.886719 327.730469 C 253.210938 327.882812 253.519531 328.0625 253.832031 328.230469 C 254.183594 328.414062 254.535156 328.597656 254.878906 328.789062 C 255.589844 329.183594 256.296875 329.585938 256.96875 330.046875 C 257.414062 330.355469 257.882812 330.632812 258.324219 330.949219 C 258.878906 331.34375 259.429688 331.75 259.957031 332.183594 C 260.609375 332.71875 261.246094 333.273438 261.871094 333.839844 C 262.269531 334.203125 262.644531 334.601562 263.011719 334.996094 C 263.414062 335.425781 263.804688 335.871094 264.183594 336.320312 C 264.417969 336.597656 264.628906 336.898438 264.839844 337.191406 C 265.09375 337.542969 265.347656 337.898438 265.585938 338.257812 C 265.96875 338.832031 266.304688 339.433594 266.625 340.046875 C 266.945312 340.660156 267.210938 341.296875 267.453125 341.941406 C 267.644531 342.449219 267.828125 342.964844 267.953125 343.488281 C 268.109375 344.160156 268.265625 344.832031 268.339844 345.519531 C 268.414062 346.183594 268.46875 346.847656 268.46875 347.515625 C 268.464844 348.394531 268.425781 349.269531 268.242188 350.132812 C 268.121094 350.6875 268.015625 351.242188 267.882812 351.789062 C 267.820312 352.0625 267.707031 352.320312 267.621094 352.585938 C 267.417969 353.238281 267.152344 353.867188 266.859375 354.484375 C 266.707031 354.804688 266.527344 355.113281 266.359375 355.425781 C 266.285156 355.570312 266.210938 355.714844 266.132812 355.855469 C 265.980469 356.113281 265.839844 356.378906 265.671875 356.625 C 265.3125 357.160156 264.945312 357.6875 264.570312 358.207031 C 264.359375 358.492188 264.117188 358.753906 263.894531 359.035156 C 263.441406 359.605469 262.941406 360.132812 262.425781 360.644531 C 261.878906 361.183594 261.296875 361.6875 260.730469 362.203125 C 260.480469 362.425781 260.226562 362.640625 259.96875 362.851562 C 259.746094 363.03125 259.519531 363.203125 259.289062 363.375 C 259.050781 363.558594 258.8125 363.742188 258.5625 363.914062 C 258.101562 364.238281 257.636719 364.5625 257.164062 364.875 C 256.824219 365.101562 256.46875 365.308594 256.117188 365.519531 C 255.519531 365.875 254.929688 366.25 254.316406 366.578125 C 253.523438 367 252.714844 367.402344 251.902344 367.785156 C 251.136719 368.144531 250.363281 368.484375 249.582031 368.808594 C 249.03125 369.039062 248.46875 369.238281 247.910156 369.445312 C 247.261719 369.679688 246.613281 369.921875 245.957031 370.132812 C 245.1875 370.378906 244.414062 370.601562 243.636719 370.828125 C 243.117188 370.980469 242.59375 371.125 242.066406 371.257812 C 241.449219 371.410156 240.828125 371.546875 240.207031 371.683594 C 239.5625 371.824219 238.917969 371.96875 238.269531 372.089844 C 237.523438 372.226562 236.769531 372.34375 236.019531 372.457031 C 235.175781 372.585938 234.328125 372.710938 233.480469 372.8125 C 232.765625 372.898438 232.042969 372.957031 231.324219 373.015625 C 230.535156 373.074219 229.746094 373.128906 228.953125 373.171875 C 228.242188 373.207031 227.527344 373.21875 226.8125 373.238281 C 226.546875 373.242188 226.285156 373.238281 226.019531 373.238281 C 226.019531 373.246094 226.019531 373.253906 226.019531 373.261719 "/>
<path style=" stroke:none;fill-rule:nonzero;fill:rgb(0%,0%,0%);fill-opacity:1;" d="M 219.785156 325.636719 C 219.953125 325.84375 220.125 326.054688 220.292969 326.265625 C 220.554688 326.597656 220.820312 326.933594 221.082031 327.269531 C 221.398438 327.671875 221.722656 328.070312 222.023438 328.484375 C 222.195312 328.71875 222.378906 328.832031 222.695312 328.824219 C 224.574219 328.789062 226.453125 328.78125 228.335938 328.769531 C 228.488281 328.769531 228.585938 328.71875 228.683594 328.589844 C 229.195312 327.910156 229.71875 327.238281 230.238281 326.558594 C 230.464844 326.265625 230.6875 325.964844 230.914062 325.671875 C 230.957031 325.617188 231.019531 325.574219 231.09375 325.5 C 231.128906 325.582031 231.15625 325.628906 231.160156 325.675781 C 231.273438 326.625 231.386719 327.574219 231.492188 328.523438 C 231.589844 329.433594 231.675781 330.34375 231.769531 331.253906 C 231.867188 332.191406 231.96875 333.121094 232.066406 334.058594 C 232.109375 334.449219 232.152344 334.84375 232.199219 335.234375 C 232.292969 336.082031 232.382812 336.933594 232.488281 337.78125 C 232.515625 338 232.578125 338.21875 232.636719 338.4375 C 232.828125 339.152344 233.089844 339.839844 233.410156 340.503906 C 233.808594 341.324219 234.324219 342.054688 235.003906 342.664062 C 235.660156 343.253906 236.414062 343.636719 237.289062 343.796875 C 238.066406 343.941406 238.824219 343.847656 239.558594 343.597656 C 240.042969 343.433594 240.496094 343.199219 240.917969 342.894531 C 241.5 342.472656 242.003906 341.976562 242.449219 341.414062 C 242.609375 341.214844 242.742188 340.992188 242.871094 340.777344 C 243.011719 340.542969 243.140625 340.304688 243.273438 340.070312 C 243.292969 340.035156 243.316406 340.003906 243.328125 339.96875 C 243.546875 339.414062 243.773438 338.859375 243.910156 338.277344 C 244.042969 337.703125 244.148438 337.125 244.1875 336.535156 C 244.253906 335.570312 244.207031 334.609375 244.039062 333.65625 C 243.921875 332.980469 243.769531 332.308594 243.554688 331.652344 C 243.363281 331.058594 243.148438 330.480469 242.898438 329.910156 C 242.609375 329.25 242.277344 328.617188 241.9375 327.984375 C 241.609375 327.375 241.214844 326.8125 240.84375 326.230469 C 240.703125 326.007812 240.535156 325.800781 240.382812 325.585938 C 240.339844 325.527344 240.304688 325.460938 240.238281 325.359375 C 240.34375 325.351562 240.402344 325.332031 240.453125 325.347656 C 241.050781 325.492188 241.644531 325.640625 242.238281 325.792969 C 242.644531 325.898438 243.050781 326 243.453125 326.113281 C 243.921875 326.246094 244.390625 326.382812 244.859375 326.53125 C 245.382812 326.695312 245.910156 326.855469 246.429688 327.042969 C 247.40625 327.402344 248.378906 327.761719 249.34375 328.152344 C 250.039062 328.433594 250.71875 328.757812 251.402344 329.078125 C 251.957031 329.335938 252.507812 329.601562 253.046875 329.894531 C 253.765625 330.28125 254.46875 330.6875 255.171875 331.101562 C 256.054688 331.617188 256.902344 332.199219 257.726562 332.808594 C 258.160156 333.128906 258.582031 333.472656 259 333.820312 C 259.511719 334.246094 260.027344 334.671875 260.507812 335.132812 C 260.957031 335.558594 261.378906 336.015625 261.796875 336.476562 C 262.199219 336.925781 262.585938 337.394531 262.964844 337.863281 C 263.429688 338.4375 263.832031 339.050781 264.207031 339.6875 C 264.460938 340.121094 264.675781 340.578125 264.914062 341.019531 C 265.394531 341.898438 265.691406 342.84375 265.972656 343.796875 C 266.214844 344.617188 266.347656 345.457031 266.417969 346.3125 C 266.476562 346.996094 266.503906 347.675781 266.453125 348.359375 C 266.410156 348.9375 266.320312 349.511719 266.238281 350.085938 C 266.199219 350.371094 266.144531 350.65625 266.066406 350.929688 C 265.933594 351.40625 265.789062 351.882812 265.628906 352.351562 C 265.507812 352.710938 265.378906 353.070312 265.21875 353.414062 C 264.996094 353.898438 264.746094 354.371094 264.503906 354.847656 C 264.4375 354.980469 264.367188 355.109375 264.285156 355.234375 C 264.023438 355.652344 263.765625 356.078125 263.484375 356.484375 C 263.234375 356.847656 262.960938 357.195312 262.683594 357.539062 C 262.339844 357.964844 261.988281 358.390625 261.621094 358.796875 C 261.359375 359.09375 261.074219 359.371094 260.789062 359.644531 C 260.289062 360.121094 259.785156 360.59375 259.269531 361.050781 C 258.925781 361.355469 258.5625 361.628906 258.195312 361.90625 C 257.703125 362.28125 257.203125 362.648438 256.703125 363.015625 C 256.582031 363.101562 256.453125 363.167969 256.328125 363.25 C 255.726562 363.628906 255.128906 364.023438 254.519531 364.394531 C 254.152344 364.617188 253.761719 364.816406 253.378906 365.019531 C 252.921875 365.265625 252.464844 365.515625 252 365.746094 C 251.5 365.996094 250.992188 366.226562 250.484375 366.460938 C 250.417969 366.492188 250.34375 366.507812 250.269531 366.53125 C 250.207031 366.414062 250.25 366.34375 250.296875 366.273438 C 250.472656 365.996094 250.65625 365.726562 250.816406 365.445312 C 250.992188 365.148438 251.148438 364.835938 251.304688 364.527344 C 251.40625 364.335938 251.488281 364.132812 251.585938 363.945312 C 251.789062 363.558594 251.933594 363.148438 252.058594 362.734375 C 252.261719 362.046875 252.410156 361.351562 252.417969 360.632812 C 252.421875 360.09375 252.363281 359.5625 252.183594 359.050781 C 251.925781 358.324219 251.496094 357.714844 250.855469 357.273438 C 250.285156 356.875 249.65625 356.625 248.960938 356.5625 C 248.652344 356.535156 248.339844 356.503906 248.03125 356.511719 C 247.367188 356.519531 246.714844 356.613281 246.085938 356.832031 C 245.773438 356.945312 245.453125 357.039062 245.152344 357.171875 C 244.523438 357.441406 243.917969 357.753906 243.371094 358.167969 C 242.945312 358.492188 242.507812 358.800781 242.113281 359.160156 C 241.703125 359.535156 241.328125 359.953125 240.953125 360.367188 C 240.363281 361.027344 239.855469 361.746094 239.394531 362.503906 C 239.203125 362.824219 239.027344 363.152344 238.839844 363.472656 C 238.804688 363.527344 238.753906 363.601562 238.703125 363.609375 C 238.613281 363.617188 238.585938 363.53125 238.558594 363.453125 C 238.40625 363.023438 238.269531 362.582031 238.078125 362.167969 C 237.886719 361.746094 237.691406 361.324219 237.410156 360.949219 C 237.246094 360.734375 237.113281 360.492188 236.945312 360.28125 C 236.386719 359.601562 235.726562 359.0625 234.847656 358.855469 C 234.085938 358.671875 233.339844 358.742188 232.613281 359.035156 C 232.210938 359.199219 231.820312 359.386719 231.464844 359.640625 C 231.019531 359.957031 230.601562 360.300781 230.222656 360.691406 C 229.550781 361.375 228.988281 362.140625 228.476562 362.953125 C 227.707031 364.171875 227.109375 365.476562 226.625 366.828125 C 226.339844 367.621094 226.117188 368.441406 225.882812 369.253906 C 225.765625 369.65625 225.679688 370.066406 225.578125 370.46875 C 225.570312 370.511719 225.535156 370.542969 225.484375 370.617188 C 225.429688 370.507812 225.378906 370.433594 225.355469 370.351562 C 225.195312 369.742188 225.042969 369.132812 224.886719 368.527344 C 224.710938 367.855469 224.46875 367.210938 224.242188 366.558594 C 223.988281 365.824219 223.667969 365.113281 223.328125 364.417969 C 222.933594 363.613281 222.480469 362.835938 221.960938 362.101562 C 221.570312 361.550781 221.144531 361.027344 220.667969 360.546875 C 219.960938 359.835938 219.179688 359.234375 218.210938 358.917969 C 217.820312 358.792969 217.421875 358.6875 217 358.710938 C 216.347656 358.75 215.742188 358.925781 215.191406 359.300781 C 214.445312 359.808594 213.921875 360.5 213.484375 361.265625 C 213.097656 361.949219 212.8125 362.675781 212.59375 363.433594 C 212.578125 363.488281 212.535156 363.558594 212.492188 363.574219 C 212.402344 363.601562 212.359375 363.519531 212.320312 363.453125 C 212.101562 363.074219 211.890625 362.695312 211.660156 362.328125 C 211.175781 361.539062 210.636719 360.792969 210.003906 360.117188 C 209.804688 359.902344 209.613281 359.671875 209.398438 359.472656 C 208.773438 358.882812 208.109375 358.339844 207.378906 357.875 C 206.777344 357.496094 206.148438 357.179688 205.480469 356.945312 C 204.964844 356.765625 204.4375 356.597656 203.875 356.574219 C 203.542969 356.5625 203.210938 356.523438 202.878906 356.53125 C 202.257812 356.542969 201.65625 356.660156 201.09375 356.929688 C 200.390625 357.269531 199.828125 357.765625 199.449219 358.457031 C 199.152344 359.003906 199.003906 359.589844 198.988281 360.214844 C 198.972656 360.746094 198.988281 361.273438 199.09375 361.792969 C 199.164062 362.148438 199.273438 362.5 199.382812 362.847656 C 199.472656 363.136719 199.574219 363.421875 199.691406 363.699219 C 199.949219 364.300781 200.242188 364.878906 200.582031 365.4375 C 200.816406 365.820312 201.066406 366.199219 201.304688 366.578125 C 201.320312 366.597656 201.339844 366.613281 201.347656 366.632812 C 201.359375 366.683594 201.363281 366.734375 201.371094 366.78125 C 201.324219 366.785156 201.265625 366.808594 201.222656 366.792969 C 200.945312 366.671875 200.667969 366.550781 200.394531 366.421875 C 200.171875 366.316406 199.949219 366.203125 199.726562 366.09375 C 199.027344 365.742188 198.3125 365.417969 197.628906 365.035156 C 196.9375 364.640625 196.273438 364.195312 195.605469 363.761719 C 195.195312 363.496094 194.796875 363.210938 194.398438 362.929688 C 194.078125 362.699219 193.765625 362.453125 193.453125 362.210938 C 192.648438 361.59375 191.863281 360.949219 191.125 360.25 C 190.78125 359.925781 190.421875 359.617188 190.09375 359.277344 C 189.644531 358.816406 189.207031 358.339844 188.785156 357.855469 C 188.390625 357.398438 188.019531 356.917969 187.640625 356.449219 C 187.363281 356.109375 187.128906 355.734375 186.898438 355.363281 C 186.59375 354.875 186.335938 354.359375 186.101562 353.839844 C 185.867188 353.320312 185.683594 352.773438 185.472656 352.238281 C 185.269531 351.707031 185.160156 351.152344 185.027344 350.601562 C 184.957031 350.300781 184.921875 349.988281 184.878906 349.683594 C 184.789062 349.066406 184.722656 348.449219 184.734375 347.828125 C 184.742188 347.175781 184.773438 346.527344 184.859375 345.878906 C 184.9375 345.320312 185.039062 344.765625 185.179688 344.214844 C 185.257812 343.917969 185.359375 343.625 185.453125 343.328125 C 185.492188 343.195312 185.527344 343.0625 185.578125 342.933594 C 185.78125 342.429688 185.976562 341.921875 186.199219 341.425781 C 186.46875 340.816406 186.796875 340.238281 187.148438 339.667969 C 187.542969 339.03125 187.972656 338.414062 188.4375 337.824219 C 188.921875 337.207031 189.433594 336.613281 189.988281 336.058594 C 190.433594 335.609375 190.90625 335.179688 191.363281 334.738281 C 191.835938 334.28125 192.355469 333.875 192.871094 333.464844 C 193.269531 333.148438 193.691406 332.855469 194.105469 332.558594 C 194.453125 332.308594 194.800781 332.058594 195.160156 331.828125 C 195.59375 331.542969 196.035156 331.269531 196.484375 331.003906 C 196.9375 330.738281 197.394531 330.476562 197.859375 330.226562 C 198.351562 329.960938 198.847656 329.703125 199.347656 329.457031 C 200.035156 329.125 200.722656 328.804688 201.414062 328.488281 C 201.800781 328.316406 202.203125 328.167969 202.597656 328.007812 C 203.023438 327.835938 203.445312 327.65625 203.871094 327.5 C 204.402344 327.304688 204.941406 327.125 205.476562 326.945312 C 205.878906 326.808594 206.28125 326.667969 206.691406 326.542969 C 207.128906 326.40625 207.570312 326.28125 208.011719 326.160156 C 208.621094 325.992188 209.238281 325.824219 209.855469 325.664062 C 210.078125 325.609375 210.308594 325.566406 210.535156 325.527344 C 210.589844 325.515625 210.652344 325.535156 210.746094 325.550781 C 210.707031 325.640625 210.6875 325.703125 210.648438 325.753906 C 210.082031 326.515625 209.578125 327.316406 209.113281 328.140625 C 208.675781 328.925781 208.265625 329.730469 207.953125 330.574219 C 207.753906 331.113281 207.585938 331.660156 207.410156 332.207031 C 207.148438 332.992188 207.007812 333.800781 206.929688 334.621094 C 206.882812 335.167969 206.867188 335.722656 206.871094 336.273438 C 206.878906 336.910156 206.953125 337.542969 207.113281 338.164062 C 207.222656 338.589844 207.328125 339.023438 207.472656 339.4375 C 207.722656 340.152344 208.078125 340.8125 208.523438 341.425781 C 208.785156 341.785156 209.074219 342.121094 209.394531 342.425781 C 209.933594 342.9375 210.539062 343.351562 211.238281 343.621094 C 211.71875 343.808594 212.214844 343.917969 212.730469 343.957031 C 213.238281 344 213.738281 343.921875 214.222656 343.773438 C 214.914062 343.558594 215.523438 343.191406 216.046875 342.6875 C 216.582031 342.167969 217.023438 341.574219 217.382812 340.910156 C 217.710938 340.296875 217.9375 339.648438 218.167969 339 C 218.390625 338.375 218.480469 337.722656 218.539062 337.0625 C 218.613281 336.210938 218.710938 335.363281 218.792969 334.515625 C 218.851562 333.90625 218.898438 333.292969 218.953125 332.683594 C 218.964844 332.558594 218.988281 332.4375 219.003906 332.316406 C 219.058594 331.78125 219.117188 331.25 219.167969 330.71875 C 219.246094 329.921875 219.316406 329.128906 219.394531 328.332031 C 219.476562 327.488281 219.5625 326.648438 219.652344 325.808594 C 219.65625 325.753906 219.691406 325.703125 219.710938 325.648438 C 219.738281 325.644531 219.761719 325.640625 219.785156 325.636719 "/>
<path style=" stroke:none;fill-rule:evenodd;fill:rgb(0.799561%,0.799561%,0.799561%);fill-opacity:1;" d="M 178.636719 193.398438 C 177.429688 192.902344 171.785156 190.488281 170.84375 190.421875 C 170.933594 191.421875 172.074219 193.917969 172.625 194.71875 C 173.519531 196.019531 174.011719 196.925781 175.066406 198.054688 C 179.375 202.679688 184.851562 205.101562 191.691406 205.085938 C 194.960938 205.078125 198.632812 204.511719 201.261719 202.835938 L 190.019531 197.984375 C 188.695312 197.460938 187.605469 196.933594 186.292969 196.425781 C 183.539062 195.367188 181.269531 194.480469 178.636719 193.398438 M 247.550781 202.539062 C 248.039062 203.792969 251.605469 204.308594 252.847656 204.765625 C 255.070312 205.578125 260.035156 205.292969 262.28125 204.664062 C 263.976562 204.1875 265.445312 203.855469 266.890625 203.191406 C 269.257812 202.101562 272.125 199.867188 273.742188 198.09375 C 274.660156 197.082031 278.128906 192.449219 278.011719 190.367188 C 277.300781 190.414062 273.496094 192.09375 272.316406 192.574219 L 262.730469 196.457031 C 261.972656 196.777344 261.695312 196.871094 260.796875 197.195312 C 260.113281 197.4375 259.507812 197.769531 258.984375 197.996094 C 257.855469 198.480469 256.46875 198.941406 255.222656 199.417969 C 252.804688 200.34375 250.140625 201.621094 247.550781 202.539062 M 145.550781 71.136719 C 145.304688 81.71875 145.535156 92.570312 145.535156 103.183594 L 145.535156 207.585938 C 145.535156 208.96875 145.160156 214.5 145.882812 215.125 C 146.339844 215.515625 158.230469 220.816406 159.957031 221.757812 C 162.910156 223.375 169.085938 225.863281 171.152344 227.039062 L 173.917969 228.351562 C 175.890625 229.417969 177.402344 230.074219 179.394531 230.992188 L 212.882812 246.890625 C 213.777344 247.320312 214.804688 247.890625 215.699219 248.277344 L 221.230469 250.898438 C 222.773438 251.609375 224.058594 252.726562 225.675781 251.867188 L 246.496094 241.925781 C 247.078125 241.566406 247.328125 241.609375 248.019531 241.277344 L 263.371094 233.980469 C 265.347656 233.070312 266.945312 232.132812 268.84375 231.335938 C 271.765625 230.105469 274.316406 228.574219 277.191406 227.320312 C 278.164062 226.894531 279.09375 226.402344 279.96875 226.019531 L 288.4375 222.0625 C 289.382812 221.570312 290.3125 221.21875 291.214844 220.757812 L 302.324219 215.445312 C 303.652344 214.832031 303.1875 213.742188 303.1875 212.074219 L 303.1875 135.96875 C 303.1875 134.914062 303.382812 74.394531 303.191406 72.804688 L 303.015625 72.203125 C 303.007812 72.128906 302.976562 72.109375 302.945312 72.070312 L 302.785156 72.292969 C 302.769531 72.3125 302.664062 72.511719 302.652344 72.535156 L 297.996094 85.78125 C 297.308594 87.363281 297 88.941406 296.398438 90.511719 L 293.230469 99.523438 C 293.023438 100.046875 292.683594 100.789062 292.542969 101.222656 C 290.476562 107.605469 288.277344 113.460938 286.214844 119.6875 L 282.394531 130.453125 C 281.832031 131.863281 281.171875 132.632812 279.957031 133.1875 C 275.910156 135.039062 272.925781 131.625 269.871094 129.511719 C 266.84375 127.414062 263.734375 125.707031 260.433594 123.960938 C 258.695312 123.042969 256.863281 122.386719 255.117188 121.632812 C 245.429688 117.464844 234.480469 115.460938 223.582031 115.601562 C 220.566406 115.640625 212.636719 116.246094 209.738281 116.960938 C 208.703125 117.214844 206.625 117.652344 205.488281 117.78125 C 202.679688 118.09375 192.78125 121.96875 190.6875 122.9375 C 188.386719 124.003906 186.128906 125.097656 184.03125 126.355469 L 173.558594 133.339844 C 171.40625 134.183594 169.351562 133.699219 167.792969 132.4375 C 166.671875 131.527344 166.542969 130.828125 166.011719 129.3125 L 158.96875 109.179688 C 158.296875 107.558594 157.765625 105.449219 157.121094 103.6875 L 154.535156 96.371094 C 154.332031 95.773438 154.167969 94.980469 153.964844 94.433594 C 153.757812 93.878906 153.464844 93.300781 153.273438 92.742188 L 146.339844 72.632812 C 145.902344 71.3125 145.898438 71.835938 145.550781 71.136719 "/>
<g clip-path="url(#clip1)" clip-rule="nonzero">
<g clip-path="url(#clip2)" clip-rule="nonzero">
<path style=" stroke:none;fill-rule:nonzero;fill:url(#radial0);" d="M 144.875 71.136719 L 144.875 252.726562 L 226.953125 252.726562 L 226.953125 71.136719 Z M 144.875 71.136719 "/>
</g>
</g>
<path style=" stroke:none;fill-rule:evenodd;fill:rgb(100%,100%,100%);fill-opacity:1;" d="M 178.925781 193.398438 C 177.714844 192.902344 172.074219 190.488281 171.128906 190.421875 C 171.21875 191.421875 172.359375 193.917969 172.914062 194.71875 C 173.804688 196.019531 174.300781 196.925781 175.351562 198.054688 C 179.660156 202.679688 185.136719 205.101562 191.976562 205.085938 C 195.246094 205.078125 198.917969 204.511719 201.550781 202.835938 L 190.304688 197.984375 C 188.980469 197.460938 187.894531 196.933594 186.578125 196.425781 C 183.824219 195.367188 181.554688 194.480469 178.925781 193.398438 M 247.835938 202.539062 C 248.324219 203.792969 251.890625 204.308594 253.132812 204.765625 C 255.355469 205.578125 260.320312 205.292969 262.566406 204.664062 C 264.265625 204.1875 265.734375 203.855469 267.175781 203.191406 C 269.542969 202.101562 272.410156 199.867188 274.027344 198.09375 C 274.949219 197.082031 278.417969 192.449219 278.296875 190.367188 C 277.585938 190.414062 273.78125 192.09375 272.601562 192.574219 L 263.019531 196.457031 C 262.257812 196.777344 261.980469 196.871094 261.082031 197.195312 C 260.398438 197.4375 259.792969 197.769531 259.269531 197.996094 C 258.144531 198.480469 256.757812 198.941406 255.511719 199.417969 C 253.089844 200.34375 250.425781 201.621094 247.835938 202.539062 "/>
<path style=" stroke:none;fill-rule:evenodd;fill:rgb(100%,100%,100%);fill-opacity:1;" d="M 178.636719 193.398438 C 177.429688 192.902344 171.785156 190.488281 170.84375 190.421875 C 170.933594 191.421875 172.074219 193.917969 172.625 194.71875 C 173.519531 196.019531 174.011719 196.925781 175.066406 198.054688 C 179.375 202.679688 184.851562 205.101562 191.691406 205.085938 C 194.960938 205.078125 198.632812 204.511719 201.261719 202.835938 L 190.019531 197.984375 C 188.695312 197.460938 187.605469 196.933594 186.292969 196.425781 C 183.539062 195.367188 181.269531 194.480469 178.636719 193.398438 "/>
<path style=" stroke:none;fill-rule:nonzero;fill:rgb(43.899536%,11.399841%,11.399841%);fill-opacity:1;" d="M 233.40625 282.714844 C 221.03125 282.714844 214.351562 276.914062 209.53125 272.722656 C 205.066406 268.84375 203.875 268.15625 201.402344 269.714844 C 200 270.597656 198.148438 270.179688 197.265625 268.777344 C 196.378906 267.375 196.800781 265.523438 198.203125 264.640625 C 204.679688 260.5625 209.347656 264.613281 213.464844 268.191406 C 219.550781 273.480469 227.121094 280.0625 245.996094 274.789062 C 247.59375 274.347656 249.246094 275.277344 249.691406 276.871094 C 250.136719 278.464844 249.203125 280.121094 247.609375 280.566406 C 242.167969 282.085938 237.476562 282.714844 233.40625 282.714844 "/>
<path style="fill:none;stroke-width:2;stroke-linecap:round;stroke-linejoin:round;stroke:rgb(43.899536%,11.399841%,11.399841%);stroke-opacity:1;stroke-miterlimit:10;" d="M -0.00095 0.00095625 C -12.37595 0.00095625 -19.055638 5.801738 -23.87595 9.993144 C -28.340794 13.87205 -29.5322 14.55955 -32.004856 13.000956 C -33.4072 12.118144 -35.258763 12.536113 -36.141575 13.938456 C -37.028294 15.3408 -36.606419 17.192363 -35.204075 18.075175 C -28.727513 22.1533 -24.059544 18.102519 -19.942356 14.524394 C -13.856419 9.235331 -6.286106 2.6533 12.588894 7.926738 C 14.18655 8.368144 15.838894 7.438456 16.284206 5.844706 C 16.729519 4.250956 15.795925 2.594706 14.202175 2.149394 C 8.760769 0.629863 4.069362 0.00095625 -0.00095 0.00095625 Z M -0.00095 0.00095625 " transform="matrix(1,0,0,-1,233.4072,282.7158)"/>
<path style=" stroke:none;fill-rule:nonzero;fill:rgb(98.399353%,84.698486%,16.899109%);fill-opacity:1;" d="M 302.726562 370.421875 C 301.113281 387.519531 267.539062 401.511719 224.136719 401.511719 C 180.734375 401.511719 145.546875 387.59375 145.546875 370.421875 L 145.546875 363.078125 C 145.546875 380.246094 180.734375 394.164062 224.136719 394.164062 C 267.539062 394.164062 301.113281 380.171875 302.726562 363.078125 Z M 302.726562 370.421875 "/>
<path style=" stroke:none;fill-rule:nonzero;fill:rgb(98.399353%,84.698486%,16.899109%);fill-opacity:1;" d="M 180.441406 399.496094 L 180.851562 399.496094 C 181.9375 399.496094 182.828125 398.605469 182.828125 397.519531 L 182.828125 385.875 C 182.828125 384.785156 181.9375 383.894531 180.851562 383.894531 L 180.441406 383.894531 C 179.351562 383.894531 178.460938 384.785156 178.460938 385.875 L 178.460938 397.519531 C 178.460938 398.605469 179.351562 399.496094 180.441406 399.496094 "/>
<path style=" stroke:none;fill-rule:nonzero;fill:rgb(98.399353%,84.698486%,16.899109%);fill-opacity:1;" d="M 268.261719 399.496094 L 268.671875 399.496094 C 269.761719 399.496094 270.652344 398.605469 270.652344 397.519531 L 270.652344 385.875 C 270.652344 384.785156 269.761719 383.894531 268.671875 383.894531 L 268.261719 383.894531 C 267.175781 383.894531 266.285156 384.785156 266.285156 385.875 L 266.285156 397.519531 C 266.285156 398.605469 267.175781 399.496094 268.261719 399.496094 "/>
<path style="fill:none;stroke-width:8;stroke-linecap:round;stroke-linejoin:round;stroke:rgb(17.599487%,19.198608%,24.699402%);stroke-opacity:1;stroke-miterlimit:10;" d="M -0.000525 0.00100625 C -0.000525 0.00100625 3.183069 13.243194 12.167444 35.09085 C 12.167444 35.09085 19.409631 57.360381 30.843225 69.899444 " transform="matrix(1,0,0,-1,113.6724,371.6846)"/>
<path style="fill:none;stroke-width:8;stroke-linecap:round;stroke-linejoin:round;stroke:rgb(17.599487%,19.198608%,24.699402%);stroke-opacity:1;stroke-miterlimit:10;" d="M 0.000525 0.00000625 L 10.754431 9.140631 L 14.441931 -2.605463 " transform="matrix(1,0,0,-1,109.5776,365.5586)"/>
<path style="fill:none;stroke-width:8;stroke-linecap:round;stroke-linejoin:round;stroke:rgb(17.599487%,19.198608%,24.699402%);stroke-opacity:1;stroke-miterlimit:10;" d="M -0.0009875 0.00000625 C -0.0009875 0.00000625 -3.184581 13.2461 -12.168956 35.08985 C -12.168956 35.08985 -19.407237 57.363287 -30.840831 69.898444 " transform="matrix(1,0,0,-1,331.8213,368.1211)"/>
<path style="fill:none;stroke-width:8;stroke-linecap:round;stroke-linejoin:round;stroke:rgb(17.599487%,19.198608%,24.699402%);stroke-opacity:1;stroke-miterlimit:10;" d="M 0.00146875 0.0019125 L -10.752437 9.142538 L -14.439937 -2.607462 " transform="matrix(1,0,0,-1,335.9165,361.9941)"/>
</g>
</svg>
