<?xml version="1.0" encoding="utf-8"?>
<!-- Generator: Adobe Illustrator 27.9.0, SVG Export Plug-In . SVG Version: 6.00 Build 0)  -->
<svg version="1.1" id="Layer_1" xmlns="http://www.w3.org/2000/svg" xmlns:xlink="http://www.w3.org/1999/xlink" x="0px" y="0px"
	 viewBox="0 0 432 576" style="enable-background:new 0 0 432 576;" xml:space="preserve">
<style type="text/css">
	.st0{opacity:5.000000e-02;}
	.st1{fill:#040D21;}
	.st2{fill:none;stroke:#000000;stroke-width:8;stroke-linecap:round;stroke-linejoin:round;stroke-miterlimit:10;}
	.st3{fill:#6A1577;}
	.st4{fill:#2D313F;}
	.st5{fill:#FEAF06;}
	.st6{fill:#FBD82B;}
	.st7{fill:#FFE278;}
	.st8{fill:#F70000;}
	.st9{fill:#B57817;}
	.st10{fill:#701D1D;}
	.st11{fill:#FFFFFF;}
	.st12{opacity:0.2;fill:url(#SVGID_1_);}
	.st13{opacity:0.2;fill:url(#SVGID_00000043434235314740215220000012249799382665480613_);}
	.st14{fill:#0062B2;}
	.st15{opacity:0.6;fill:#FFFFFF;}
	.st16{opacity:0.7;fill:#FFFFFF;}
	.st17{fill:#F2F2F2;}
	.st18{fill:#C9C9C9;}
	.st19{fill:#677077;}
	.st20{fill:#B8B8B8;}
	.st21{fill:#858D92;}
	.st22{fill:#CCCCCC;}
	.st23{fill:#EDEDED;}
	.st24{fill:#D9D9D9;}
	.st25{fill:#BEBEBE;}
	.st26{fill:#B4B4B4;}
	.st27{fill:url(#SVGID_00000168809245320088881940000012675723156403995015_);}
</style>
<g>
	<g class="st0">
		<g>
			<g id="XMLID_00000168812877933190799880000005877853368968703154_">
				<g id="XMLID_00000008147987598722318380000013193906419904833694_">
					<path id="XMLID_00000145741992188349905420000006142334380017147568_" class="st1" d="M220.1,219.5v15.8h2.9
						c0.7,0,1.2,0.1,1.5,0.4c0.3,0.3,0.4,0.6,0.4,1c0,0.4-0.1,0.8-0.4,1c-0.3,0.3-0.8,0.4-1.5,0.4h-8.7c-0.7,0-1.2-0.1-1.5-0.4
						c-0.3-0.3-0.4-0.6-0.4-1c0-0.4,0.1-0.8,0.4-1c0.3-0.3,0.8-0.4,1.5-0.4h2.9v-12l-2.6,0.7c-0.4,0.1-0.7,0.2-0.9,0.2
						c-0.4,0-0.7-0.1-0.9-0.4c-0.3-0.3-0.4-0.6-0.4-1.1c0-0.4,0.1-0.7,0.3-0.9c0.2-0.2,0.6-0.4,1.2-0.6L220.1,219.5z"/>
					<path id="XMLID_00000020396440960610898250000002221444800121567875_" class="st1" d="M242.2,227.5v3.2c0,1.9-0.5,3.7-1.6,5.4
						c-1.1,1.7-2.6,2.6-4.6,2.6c-1.2,0-2.1-0.3-2.9-0.8c-0.8-0.5-1.6-1.5-2.3-2.8c-0.7-1.4-1.1-2.8-1.1-4.4v-3.2
						c0-1.9,0.5-3.7,1.6-5.4c1.1-1.7,2.6-2.6,4.6-2.6c1.2,0,2.1,0.3,2.9,0.8c0.8,0.5,1.6,1.4,2.3,2.8
						C241.8,224.5,242.2,225.9,242.2,227.5z M239.3,227.5c0-1.6-0.4-2.9-1.3-4.1c-0.5-0.6-1.2-1-2.1-1c-0.9,0-1.6,0.4-2.1,1.1
						c-0.8,1.1-1.3,2.4-1.3,4v3.2c0,1.6,0.4,2.9,1.3,4.1c0.5,0.6,1.2,1,2.1,1c0.9,0,1.6-0.4,2.1-1.1c0.8-1.1,1.3-2.4,1.3-4V227.5z"
						/>
					<path id="XMLID_00000022525804385616799650000014074001595041009854_" class="st1" d="M254.6,219.5v15.8h2.9
						c0.7,0,1.2,0.1,1.5,0.4c0.3,0.3,0.4,0.6,0.4,1c0,0.4-0.1,0.8-0.4,1c-0.3,0.3-0.8,0.4-1.5,0.4h-8.7c-0.7,0-1.2-0.1-1.5-0.4
						c-0.3-0.3-0.4-0.6-0.4-1c0-0.4,0.1-0.8,0.4-1c0.3-0.3,0.8-0.4,1.5-0.4h2.9v-12l-2.6,0.7c-0.4,0.1-0.7,0.2-0.9,0.2
						c-0.4,0-0.7-0.1-0.9-0.4c-0.3-0.3-0.4-0.6-0.4-1.1c0-0.4,0.1-0.7,0.3-0.9c0.2-0.2,0.6-0.4,1.2-0.6L254.6,219.5z"/>
					<path id="XMLID_00000165941653174353878510000009277372544581099668_" class="st1" d="M276.7,227.5v3.2c0,1.9-0.5,3.7-1.6,5.4
						c-1.1,1.7-2.6,2.6-4.6,2.6c-1.2,0-2.1-0.3-2.9-0.8c-0.8-0.5-1.6-1.5-2.3-2.8c-0.7-1.4-1.1-2.8-1.1-4.4v-3.2
						c0-1.9,0.5-3.7,1.6-5.4c1.1-1.7,2.6-2.6,4.6-2.6c1.2,0,2.1,0.3,2.9,0.8c0.8,0.5,1.6,1.4,2.3,2.8
						C276.4,224.5,276.7,225.9,276.7,227.5z M273.8,227.5c0-1.6-0.4-2.9-1.3-4.1c-0.5-0.6-1.2-1-2.1-1c-0.9,0-1.6,0.4-2.1,1.1
						c-0.8,1.1-1.3,2.4-1.3,4v3.2c0,1.6,0.4,2.9,1.3,4.1c0.5,0.6,1.2,1,2.1,1c0.9,0,1.6-0.4,2.1-1.1c0.8-1.1,1.3-2.4,1.3-4V227.5z"
						/>
				</g>
				<g id="XMLID_00000166660189143039466780000015135797451757886130_">
					<path id="XMLID_00000150080719496534248760000000263785681956581251_" class="st1" d="M224.9,277.9v3.2c0,1.9-0.5,3.7-1.6,5.4
						c-1.1,1.7-2.6,2.6-4.6,2.6c-1.2,0-2.1-0.3-2.9-0.8c-0.8-0.5-1.6-1.5-2.3-2.8c-0.7-1.4-1.1-2.8-1.1-4.4v-3.2
						c0-1.9,0.5-3.7,1.6-5.4c1.1-1.7,2.6-2.6,4.6-2.6c1.2,0,2.1,0.3,2.9,0.8c0.8,0.5,1.6,1.4,2.3,2.8
						C224.5,274.9,224.9,276.3,224.9,277.9z M222,277.9c0-1.6-0.4-2.9-1.3-4.1c-0.5-0.6-1.2-1-2.1-1c-0.9,0-1.6,0.4-2.1,1.1
						c-0.8,1.1-1.3,2.4-1.3,4v3.2c0,1.6,0.4,2.9,1.3,4.1c0.5,0.6,1.2,1,2.1,1c0.9,0,1.6-0.4,2.1-1.1c0.8-1.1,1.3-2.4,1.3-4V277.9z"
						/>
					<path id="XMLID_00000086650003953483196360000013903536172670980525_" class="st1" d="M237.4,269.9v15.8h2.9
						c0.7,0,1.2,0.1,1.5,0.4c0.3,0.3,0.4,0.6,0.4,1c0,0.4-0.1,0.8-0.4,1c-0.3,0.3-0.8,0.4-1.5,0.4h-8.7c-0.7,0-1.2-0.1-1.5-0.4
						c-0.3-0.3-0.4-0.6-0.4-1c0-0.4,0.1-0.8,0.4-1c0.3-0.3,0.8-0.4,1.5-0.4h2.9v-12l-2.6,0.7c-0.4,0.1-0.7,0.2-0.9,0.2
						c-0.4,0-0.7-0.1-0.9-0.4c-0.3-0.3-0.4-0.6-0.4-1.1c0-0.4,0.1-0.7,0.3-0.9c0.2-0.2,0.6-0.4,1.2-0.6L237.4,269.9z"/>
					<path id="XMLID_00000029030464635224674160000003355334586680443572_" class="st1" d="M254.6,269.9v15.8h2.9
						c0.7,0,1.2,0.1,1.5,0.4c0.3,0.3,0.4,0.6,0.4,1c0,0.4-0.1,0.8-0.4,1c-0.3,0.3-0.8,0.4-1.5,0.4h-8.7c-0.7,0-1.2-0.1-1.5-0.4
						c-0.3-0.3-0.4-0.6-0.4-1c0-0.4,0.1-0.8,0.4-1c0.3-0.3,0.8-0.4,1.5-0.4h2.9v-12l-2.6,0.7c-0.4,0.1-0.7,0.2-0.9,0.2
						c-0.4,0-0.7-0.1-0.9-0.4c-0.3-0.3-0.4-0.6-0.4-1.1c0-0.4,0.1-0.7,0.3-0.9c0.2-0.2,0.6-0.4,1.2-0.6L254.6,269.9z"/>
					<path id="XMLID_00000024718136838501824420000011213148086247326388_" class="st1" d="M276.7,277.9v3.2c0,1.9-0.5,3.7-1.6,5.4
						c-1.1,1.7-2.6,2.6-4.6,2.6c-1.2,0-2.1-0.3-2.9-0.8c-0.8-0.5-1.6-1.5-2.3-2.8c-0.7-1.4-1.1-2.8-1.1-4.4v-3.2
						c0-1.9,0.5-3.7,1.6-5.4c1.1-1.7,2.6-2.6,4.6-2.6c1.2,0,2.1,0.3,2.9,0.8c0.8,0.5,1.6,1.4,2.3,2.8
						C276.4,274.9,276.7,276.3,276.7,277.9z M273.8,277.9c0-1.6-0.4-2.9-1.3-4.1c-0.5-0.6-1.2-1-2.1-1c-0.9,0-1.6,0.4-2.1,1.1
						c-0.8,1.1-1.3,2.4-1.3,4v3.2c0,1.6,0.4,2.9,1.3,4.1c0.5,0.6,1.2,1,2.1,1c0.9,0,1.6-0.4,2.1-1.1c0.8-1.1,1.3-2.4,1.3-4V277.9z"
						/>
				</g>
				<g id="XMLID_00000096744609625370195420000003218470575529350332_">
					<path id="XMLID_00000045598600825470407100000015393534627338845067_" class="st1" d="M224.9,252.8v3.2c0,1.9-0.5,3.7-1.6,5.4
						c-1.1,1.7-2.6,2.6-4.6,2.6c-1.2,0-2.1-0.3-2.9-0.8c-0.8-0.5-1.6-1.5-2.3-2.8c-0.7-1.4-1.1-2.8-1.1-4.4v-3.2
						c0-1.9,0.5-3.7,1.6-5.4c1.1-1.7,2.6-2.6,4.6-2.6c1.2,0,2.1,0.3,2.9,0.8c0.8,0.5,1.6,1.4,2.3,2.8
						C224.5,249.8,224.9,251.3,224.9,252.8z M222,252.8c0-1.6-0.4-2.9-1.3-4.1c-0.5-0.6-1.2-1-2.1-1c-0.9,0-1.6,0.4-2.1,1.1
						c-0.8,1.1-1.3,2.4-1.3,4v3.2c0,1.6,0.4,2.9,1.3,4.1c0.5,0.6,1.2,1,2.1,1c0.9,0,1.6-0.4,2.1-1.1c0.8-1.1,1.3-2.4,1.3-4V252.8z"
						/>
					<path id="XMLID_00000026869106693422480070000014233892390681097354_" class="st1" d="M237.4,244.9v15.8h2.9
						c0.7,0,1.2,0.1,1.5,0.4c0.3,0.3,0.4,0.6,0.4,1c0,0.4-0.1,0.8-0.4,1c-0.3,0.3-0.8,0.4-1.5,0.4h-8.7c-0.7,0-1.2-0.1-1.5-0.4
						c-0.3-0.3-0.4-0.6-0.4-1c0-0.4,0.1-0.8,0.4-1c0.3-0.3,0.8-0.4,1.5-0.4h2.9v-12l-2.6,0.7c-0.4,0.1-0.7,0.2-0.9,0.2
						c-0.4,0-0.7-0.1-0.9-0.4c-0.3-0.3-0.4-0.6-0.4-1.1c0-0.4,0.1-0.7,0.3-0.9c0.2-0.2,0.6-0.4,1.2-0.6L237.4,244.9z"/>
					<path id="XMLID_00000013167495603646727890000002360873906578484407_" class="st1" d="M259.5,252.8v3.2c0,1.9-0.5,3.7-1.6,5.4
						c-1.1,1.7-2.6,2.6-4.6,2.6c-1.2,0-2.1-0.3-2.9-0.8c-0.8-0.5-1.6-1.5-2.3-2.8c-0.7-1.4-1.1-2.8-1.1-4.4v-3.2
						c0-1.9,0.5-3.7,1.6-5.4c1.1-1.7,2.6-2.6,4.6-2.6c1.2,0,2.1,0.3,2.9,0.8c0.8,0.5,1.6,1.4,2.3,2.8
						C259.1,249.8,259.5,251.3,259.5,252.8z M256.6,252.8c0-1.6-0.4-2.9-1.3-4.1c-0.5-0.6-1.2-1-2.1-1c-0.9,0-1.6,0.4-2.1,1.1
						c-0.8,1.1-1.3,2.4-1.3,4v3.2c0,1.6,0.4,2.9,1.3,4.1c0.5,0.6,1.2,1,2.1,1c0.9,0,1.6-0.4,2.1-1.1c0.8-1.1,1.3-2.4,1.3-4V252.8z"
						/>
					<path id="XMLID_00000111164422804110493480000006818030380911311535_" class="st1" d="M276.7,252.8v3.2c0,1.9-0.5,3.7-1.6,5.4
						c-1.1,1.7-2.6,2.6-4.6,2.6c-1.2,0-2.1-0.3-2.9-0.8c-0.8-0.5-1.6-1.5-2.3-2.8c-0.7-1.4-1.1-2.8-1.1-4.4v-3.2
						c0-1.9,0.5-3.7,1.6-5.4c1.1-1.7,2.6-2.6,4.6-2.6c1.2,0,2.1,0.3,2.9,0.8c0.8,0.5,1.6,1.4,2.3,2.8
						C276.4,249.8,276.7,251.3,276.7,252.8z M273.8,252.8c0-1.6-0.4-2.9-1.3-4.1c-0.5-0.6-1.2-1-2.1-1c-0.9,0-1.6,0.4-2.1,1.1
						c-0.8,1.1-1.3,2.4-1.3,4v3.2c0,1.6,0.4,2.9,1.3,4.1c0.5,0.6,1.2,1,2.1,1c0.9,0,1.6-0.4,2.1-1.1c0.8-1.1,1.3-2.4,1.3-4V252.8z"
						/>
				</g>
			</g>
			<g id="XMLID_00000020385933479631049310000008997116371393279409_">
				<g id="XMLID_00000152963885211413730850000000558456734341034664_">
					<path id="XMLID_00000162324704708792920520000005719552425030894265_" class="st1" d="M290.5,219.5v15.8h2.9
						c0.7,0,1.2,0.1,1.5,0.4c0.3,0.3,0.4,0.6,0.4,1c0,0.4-0.1,0.8-0.4,1c-0.3,0.3-0.8,0.4-1.5,0.4h-8.7c-0.7,0-1.2-0.1-1.5-0.4
						c-0.3-0.3-0.4-0.6-0.4-1c0-0.4,0.1-0.8,0.4-1c0.3-0.3,0.8-0.4,1.5-0.4h2.9v-12l-2.6,0.7c-0.4,0.1-0.7,0.2-0.9,0.2
						c-0.4,0-0.7-0.1-0.9-0.4c-0.3-0.3-0.4-0.6-0.4-1.1c0-0.4,0.1-0.7,0.3-0.9c0.2-0.2,0.6-0.4,1.2-0.6L290.5,219.5z"/>
					<path id="XMLID_00000038408403384383748750000006232759833502776979_" class="st1" d="M312.6,227.5v3.2c0,1.9-0.5,3.7-1.6,5.4
						c-1.1,1.7-2.6,2.6-4.6,2.6c-1.2,0-2.1-0.3-2.9-0.8c-0.8-0.5-1.6-1.5-2.3-2.8c-0.7-1.4-1.1-2.8-1.1-4.4v-3.2
						c0-1.9,0.5-3.7,1.6-5.4c1.1-1.7,2.6-2.6,4.6-2.6c1.2,0,2.1,0.3,2.9,0.8c0.8,0.5,1.6,1.4,2.3,2.8
						C312.2,224.5,312.6,225.9,312.6,227.5z M309.7,227.5c0-1.6-0.4-2.9-1.3-4.1c-0.5-0.6-1.2-1-2.1-1c-0.9,0-1.6,0.4-2.1,1.1
						c-0.8,1.1-1.3,2.4-1.3,4v3.2c0,1.6,0.4,2.9,1.3,4.1c0.5,0.6,1.2,1,2.1,1c0.9,0,1.6-0.4,2.1-1.1c0.8-1.1,1.3-2.4,1.3-4V227.5z"
						/>
					<path id="XMLID_00000110433485084224569120000001319396253134752404_" class="st1" d="M325,219.5v15.8h2.9
						c0.7,0,1.2,0.1,1.5,0.4c0.3,0.3,0.4,0.6,0.4,1c0,0.4-0.1,0.8-0.4,1c-0.3,0.3-0.8,0.4-1.5,0.4h-8.7c-0.7,0-1.2-0.1-1.5-0.4
						c-0.3-0.3-0.4-0.6-0.4-1c0-0.4,0.1-0.8,0.4-1c0.3-0.3,0.8-0.4,1.5-0.4h2.9v-12l-2.6,0.7c-0.4,0.1-0.7,0.2-0.9,0.2
						c-0.4,0-0.7-0.1-0.9-0.4c-0.3-0.3-0.4-0.6-0.4-1.1c0-0.4,0.1-0.7,0.3-0.9c0.2-0.2,0.6-0.4,1.2-0.6L325,219.5z"/>
					<path id="XMLID_00000058583388769061677610000008014604404055662253_" class="st1" d="M347.1,227.5v3.2c0,1.9-0.5,3.7-1.6,5.4
						c-1.1,1.7-2.6,2.6-4.6,2.6c-1.2,0-2.1-0.3-2.9-0.8c-0.8-0.5-1.6-1.5-2.3-2.8c-0.7-1.4-1.1-2.8-1.1-4.4v-3.2
						c0-1.9,0.5-3.7,1.6-5.4c1.1-1.7,2.6-2.6,4.6-2.6c1.2,0,2.1,0.3,2.9,0.8c0.8,0.5,1.6,1.4,2.3,2.8
						C346.8,224.5,347.1,225.9,347.1,227.5z M344.2,227.5c0-1.6-0.4-2.9-1.3-4.1c-0.5-0.6-1.2-1-2.1-1c-0.9,0-1.6,0.4-2.1,1.1
						c-0.8,1.1-1.3,2.4-1.3,4v3.2c0,1.6,0.4,2.9,1.3,4.1c0.5,0.6,1.2,1,2.1,1c0.9,0,1.6-0.4,2.1-1.1c0.8-1.1,1.3-2.4,1.3-4V227.5z"
						/>
				</g>
				<g id="XMLID_00000072276342014285318230000012973423845856795277_">
					<path id="XMLID_00000169537377165132697480000009484143662998138035_" class="st1" d="M295.3,277.9v3.2c0,1.9-0.5,3.7-1.6,5.4
						c-1.1,1.7-2.6,2.6-4.6,2.6c-1.2,0-2.1-0.3-2.9-0.8c-0.8-0.5-1.6-1.5-2.3-2.8c-0.7-1.4-1.1-2.8-1.1-4.4v-3.2
						c0-1.9,0.5-3.7,1.6-5.4c1.1-1.7,2.6-2.6,4.6-2.6c1.2,0,2.1,0.3,2.9,0.8c0.8,0.5,1.6,1.4,2.3,2.8
						C295,274.9,295.3,276.3,295.3,277.9z M292.4,277.9c0-1.6-0.4-2.9-1.3-4.1c-0.5-0.6-1.2-1-2.1-1c-0.9,0-1.6,0.4-2.1,1.1
						c-0.8,1.1-1.3,2.4-1.3,4v3.2c0,1.6,0.4,2.9,1.3,4.1c0.5,0.6,1.2,1,2.1,1c0.9,0,1.6-0.4,2.1-1.1c0.8-1.1,1.3-2.4,1.3-4V277.9z"
						/>
					<path id="XMLID_00000085236774425404242490000009319370190454838449_" class="st1" d="M307.8,269.9v15.8h2.9
						c0.7,0,1.2,0.1,1.5,0.4c0.3,0.3,0.4,0.6,0.4,1c0,0.4-0.1,0.8-0.4,1c-0.3,0.3-0.8,0.4-1.5,0.4H302c-0.7,0-1.2-0.1-1.5-0.4
						c-0.3-0.3-0.4-0.6-0.4-1c0-0.4,0.1-0.8,0.4-1c0.3-0.3,0.8-0.4,1.5-0.4h2.9v-12l-2.6,0.7c-0.4,0.1-0.7,0.2-0.9,0.2
						c-0.4,0-0.7-0.1-0.9-0.4c-0.3-0.3-0.4-0.6-0.4-1.1c0-0.4,0.1-0.7,0.3-0.9c0.2-0.2,0.6-0.4,1.2-0.6L307.8,269.9z"/>
					<path id="XMLID_00000127735863703552902100000004004264867926869129_" class="st1" d="M325,269.9v15.8h2.9
						c0.7,0,1.2,0.1,1.5,0.4c0.3,0.3,0.4,0.6,0.4,1c0,0.4-0.1,0.8-0.4,1c-0.3,0.3-0.8,0.4-1.5,0.4h-8.7c-0.7,0-1.2-0.1-1.5-0.4
						c-0.3-0.3-0.4-0.6-0.4-1c0-0.4,0.1-0.8,0.4-1c0.3-0.3,0.8-0.4,1.5-0.4h2.9v-12l-2.6,0.7c-0.4,0.1-0.7,0.2-0.9,0.2
						c-0.4,0-0.7-0.1-0.9-0.4c-0.3-0.3-0.4-0.6-0.4-1.1c0-0.4,0.1-0.7,0.3-0.9c0.2-0.2,0.6-0.4,1.2-0.6L325,269.9z"/>
					<path id="XMLID_00000005269102299680646060000002423832377431242651_" class="st1" d="M347.1,277.9v3.2c0,1.9-0.5,3.7-1.6,5.4
						c-1.1,1.7-2.6,2.6-4.6,2.6c-1.2,0-2.1-0.3-2.9-0.8c-0.8-0.5-1.6-1.5-2.3-2.8c-0.7-1.4-1.1-2.8-1.1-4.4v-3.2
						c0-1.9,0.5-3.7,1.6-5.4c1.1-1.7,2.6-2.6,4.6-2.6c1.2,0,2.1,0.3,2.9,0.8c0.8,0.5,1.6,1.4,2.3,2.8
						C346.8,274.9,347.1,276.3,347.1,277.9z M344.2,277.9c0-1.6-0.4-2.9-1.3-4.1c-0.5-0.6-1.2-1-2.1-1c-0.9,0-1.6,0.4-2.1,1.1
						c-0.8,1.1-1.3,2.4-1.3,4v3.2c0,1.6,0.4,2.9,1.3,4.1c0.5,0.6,1.2,1,2.1,1c0.9,0,1.6-0.4,2.1-1.1c0.8-1.1,1.3-2.4,1.3-4V277.9z"
						/>
				</g>
				<g id="XMLID_00000116914124497669680070000016700873903423314311_">
					<path id="XMLID_00000117634060647213488260000011603962155193639085_" class="st1" d="M295.3,252.8v3.2c0,1.9-0.5,3.7-1.6,5.4
						c-1.1,1.7-2.6,2.6-4.6,2.6c-1.2,0-2.1-0.3-2.9-0.8c-0.8-0.5-1.6-1.5-2.3-2.8c-0.7-1.4-1.1-2.8-1.1-4.4v-3.2
						c0-1.9,0.5-3.7,1.6-5.4c1.1-1.7,2.6-2.6,4.6-2.6c1.2,0,2.1,0.3,2.9,0.8c0.8,0.5,1.6,1.4,2.3,2.8
						C295,249.8,295.3,251.3,295.3,252.8z M292.4,252.8c0-1.6-0.4-2.9-1.3-4.1c-0.5-0.6-1.2-1-2.1-1c-0.9,0-1.6,0.4-2.1,1.1
						c-0.8,1.1-1.3,2.4-1.3,4v3.2c0,1.6,0.4,2.9,1.3,4.1c0.5,0.6,1.2,1,2.1,1c0.9,0,1.6-0.4,2.1-1.1c0.8-1.1,1.3-2.4,1.3-4V252.8z"
						/>
					<path id="XMLID_00000028300539028555066670000018359267397403441329_" class="st1" d="M307.8,244.9v15.8h2.9
						c0.7,0,1.2,0.1,1.5,0.4c0.3,0.3,0.4,0.6,0.4,1c0,0.4-0.1,0.8-0.4,1c-0.3,0.3-0.8,0.4-1.5,0.4H302c-0.7,0-1.2-0.1-1.5-0.4
						c-0.3-0.3-0.4-0.6-0.4-1c0-0.4,0.1-0.8,0.4-1c0.3-0.3,0.8-0.4,1.5-0.4h2.9v-12l-2.6,0.7c-0.4,0.1-0.7,0.2-0.9,0.2
						c-0.4,0-0.7-0.1-0.9-0.4c-0.3-0.3-0.4-0.6-0.4-1.1c0-0.4,0.1-0.7,0.3-0.9c0.2-0.2,0.6-0.4,1.2-0.6L307.8,244.9z"/>
					<path id="XMLID_00000156579838516702983390000005189512677189522346_" class="st1" d="M329.9,252.8v3.2c0,1.9-0.5,3.7-1.6,5.4
						c-1.1,1.7-2.6,2.6-4.6,2.6c-1.2,0-2.1-0.3-2.9-0.8c-0.8-0.5-1.6-1.5-2.3-2.8c-0.7-1.4-1.1-2.8-1.1-4.4v-3.2
						c0-1.9,0.5-3.7,1.6-5.4c1.1-1.7,2.6-2.6,4.6-2.6c1.2,0,2.1,0.3,2.9,0.8c0.8,0.5,1.6,1.4,2.3,2.8
						C329.5,249.8,329.9,251.3,329.9,252.8z M327,252.8c0-1.6-0.4-2.9-1.3-4.1c-0.5-0.6-1.2-1-2.1-1c-0.9,0-1.6,0.4-2.1,1.1
						c-0.8,1.1-1.3,2.4-1.3,4v3.2c0,1.6,0.4,2.9,1.3,4.1c0.5,0.6,1.2,1,2.1,1c0.9,0,1.6-0.4,2.1-1.1c0.8-1.1,1.3-2.4,1.3-4V252.8z"
						/>
					<path id="XMLID_00000064327863559937525460000009572622566332640913_" class="st1" d="M347.1,252.8v3.2c0,1.9-0.5,3.7-1.6,5.4
						c-1.1,1.7-2.6,2.6-4.6,2.6c-1.2,0-2.1-0.3-2.9-0.8c-0.8-0.5-1.6-1.5-2.3-2.8c-0.7-1.4-1.1-2.8-1.1-4.4v-3.2
						c0-1.9,0.5-3.7,1.6-5.4c1.1-1.7,2.6-2.6,4.6-2.6c1.2,0,2.1,0.3,2.9,0.8c0.8,0.5,1.6,1.4,2.3,2.8
						C346.8,249.8,347.1,251.3,347.1,252.8z M344.2,252.8c0-1.6-0.4-2.9-1.3-4.1c-0.5-0.6-1.2-1-2.1-1c-0.9,0-1.6,0.4-2.1,1.1
						c-0.8,1.1-1.3,2.4-1.3,4v3.2c0,1.6,0.4,2.9,1.3,4.1c0.5,0.6,1.2,1,2.1,1c0.9,0,1.6-0.4,2.1-1.1c0.8-1.1,1.3-2.4,1.3-4V252.8z"
						/>
				</g>
			</g>
			<g id="XMLID_00000036956230442312654510000006942023020827898531_">
				<g id="XMLID_00000170269912807084177610000009963558208823999383_">
					<path id="XMLID_00000119838137072472947690000004912461366800683710_" class="st1" d="M220.1,143.3v15.8h2.9
						c0.7,0,1.2,0.1,1.5,0.4c0.3,0.3,0.4,0.6,0.4,1c0,0.4-0.1,0.8-0.4,1c-0.3,0.3-0.8,0.4-1.5,0.4h-8.7c-0.7,0-1.2-0.1-1.5-0.4
						c-0.3-0.3-0.4-0.6-0.4-1c0-0.4,0.1-0.8,0.4-1c0.3-0.3,0.8-0.4,1.5-0.4h2.9v-12l-2.6,0.7c-0.4,0.1-0.7,0.2-0.9,0.2
						c-0.4,0-0.7-0.1-0.9-0.4c-0.3-0.3-0.4-0.6-0.4-1.1c0-0.4,0.1-0.7,0.3-0.9c0.2-0.2,0.6-0.4,1.2-0.6L220.1,143.3z"/>
					<path id="XMLID_00000052062948381612526630000016751057081134011307_" class="st1" d="M242.2,151.3v3.2c0,1.9-0.5,3.7-1.6,5.4
						c-1.1,1.7-2.6,2.6-4.6,2.6c-1.2,0-2.1-0.3-2.9-0.8c-0.8-0.5-1.6-1.5-2.3-2.8c-0.7-1.4-1.1-2.8-1.1-4.4v-3.2
						c0-1.9,0.5-3.7,1.6-5.4s2.6-2.6,4.6-2.6c1.2,0,2.1,0.3,2.9,0.8c0.8,0.5,1.6,1.4,2.3,2.8C241.8,148.3,242.2,149.7,242.2,151.3z
						 M239.3,151.3c0-1.6-0.4-2.9-1.3-4.1c-0.5-0.6-1.2-1-2.1-1c-0.9,0-1.6,0.4-2.1,1.1c-0.8,1.1-1.3,2.4-1.3,4v3.2
						c0,1.6,0.4,2.9,1.3,4.1c0.5,0.6,1.2,1,2.1,1c0.9,0,1.6-0.4,2.1-1.1c0.8-1.1,1.3-2.4,1.3-4V151.3z"/>
					<path id="XMLID_00000183227172790894876050000017989802483214810500_" class="st1" d="M254.6,143.3v15.8h2.9
						c0.7,0,1.2,0.1,1.5,0.4c0.3,0.3,0.4,0.6,0.4,1c0,0.4-0.1,0.8-0.4,1c-0.3,0.3-0.8,0.4-1.5,0.4h-8.7c-0.7,0-1.2-0.1-1.5-0.4
						c-0.3-0.3-0.4-0.6-0.4-1c0-0.4,0.1-0.8,0.4-1c0.3-0.3,0.8-0.4,1.5-0.4h2.9v-12l-2.6,0.7c-0.4,0.1-0.7,0.2-0.9,0.2
						c-0.4,0-0.7-0.1-0.9-0.4c-0.3-0.3-0.4-0.6-0.4-1.1c0-0.4,0.1-0.7,0.3-0.9c0.2-0.2,0.6-0.4,1.2-0.6L254.6,143.3z"/>
					<path id="XMLID_00000052787031244487869340000006197350857654697908_" class="st1" d="M276.7,151.3v3.2c0,1.9-0.5,3.7-1.6,5.4
						c-1.1,1.7-2.6,2.6-4.6,2.6c-1.2,0-2.1-0.3-2.9-0.8c-0.8-0.5-1.6-1.5-2.3-2.8c-0.7-1.4-1.1-2.8-1.1-4.4v-3.2
						c0-1.9,0.5-3.7,1.6-5.4c1.1-1.7,2.6-2.6,4.6-2.6c1.2,0,2.1,0.3,2.9,0.8c0.8,0.5,1.6,1.4,2.3,2.8
						C276.4,148.3,276.7,149.7,276.7,151.3z M273.8,151.3c0-1.6-0.4-2.9-1.3-4.1c-0.5-0.6-1.2-1-2.1-1c-0.9,0-1.6,0.4-2.1,1.1
						c-0.8,1.1-1.3,2.4-1.3,4v3.2c0,1.6,0.4,2.9,1.3,4.1c0.5,0.6,1.2,1,2.1,1c0.9,0,1.6-0.4,2.1-1.1c0.8-1.1,1.3-2.4,1.3-4V151.3z"
						/>
				</g>
				<g id="XMLID_00000064342690360224652810000007248678146429859970_">
					<path id="XMLID_00000160886959844495457080000017170667511805395851_" class="st1" d="M224.9,201.7v3.2c0,1.9-0.5,3.7-1.6,5.4
						c-1.1,1.7-2.6,2.6-4.6,2.6c-1.2,0-2.1-0.3-2.9-0.8c-0.8-0.5-1.6-1.5-2.3-2.8c-0.7-1.4-1.1-2.8-1.1-4.4v-3.2
						c0-1.9,0.5-3.7,1.6-5.4c1.1-1.7,2.6-2.6,4.6-2.6c1.2,0,2.1,0.3,2.9,0.8c0.8,0.5,1.6,1.4,2.3,2.8
						C224.6,198.7,224.9,200.1,224.9,201.7z M222,201.7c0-1.6-0.4-2.9-1.3-4.1c-0.5-0.6-1.2-1-2.1-1c-0.9,0-1.6,0.4-2.1,1.1
						c-0.8,1.1-1.3,2.4-1.3,4v3.2c0,1.6,0.4,2.9,1.3,4.1c0.5,0.6,1.2,1,2.1,1c0.9,0,1.6-0.4,2.1-1.1c0.8-1.1,1.3-2.4,1.3-4V201.7z"
						/>
					<path id="XMLID_00000104684902349021650470000016322333362764493754_" class="st1" d="M237.4,193.7v15.8h2.9
						c0.7,0,1.2,0.1,1.5,0.4c0.3,0.3,0.4,0.6,0.4,1c0,0.4-0.1,0.8-0.4,1c-0.3,0.3-0.8,0.4-1.5,0.4h-8.7c-0.7,0-1.2-0.1-1.5-0.4
						c-0.3-0.3-0.4-0.6-0.4-1c0-0.4,0.1-0.8,0.4-1c0.3-0.3,0.8-0.4,1.5-0.4h2.9v-12l-2.6,0.7c-0.4,0.1-0.7,0.2-0.9,0.2
						c-0.4,0-0.7-0.1-0.9-0.4c-0.3-0.3-0.4-0.6-0.4-1.1c0-0.4,0.1-0.7,0.3-0.9c0.2-0.2,0.6-0.4,1.2-0.6L237.4,193.7z"/>
					<path id="XMLID_00000068648064570047144910000012246555011626612385_" class="st1" d="M254.6,193.7v15.8h2.9
						c0.7,0,1.2,0.1,1.5,0.4c0.3,0.3,0.4,0.6,0.4,1c0,0.4-0.1,0.8-0.4,1c-0.3,0.3-0.8,0.4-1.5,0.4h-8.7c-0.7,0-1.2-0.1-1.5-0.4
						c-0.3-0.3-0.4-0.6-0.4-1c0-0.4,0.1-0.8,0.4-1c0.3-0.3,0.8-0.4,1.5-0.4h2.9v-12l-2.6,0.7c-0.4,0.1-0.7,0.2-0.9,0.2
						c-0.4,0-0.7-0.1-0.9-0.4c-0.3-0.3-0.4-0.6-0.4-1.1c0-0.4,0.1-0.7,0.3-0.9c0.2-0.2,0.6-0.4,1.2-0.6L254.6,193.7z"/>
					<path id="XMLID_00000103952765408776384690000003396974030573846689_" class="st1" d="M276.7,201.7v3.2c0,1.9-0.5,3.7-1.6,5.4
						c-1.1,1.7-2.6,2.6-4.6,2.6c-1.2,0-2.1-0.3-2.9-0.8c-0.8-0.5-1.6-1.5-2.3-2.8c-0.7-1.4-1.1-2.8-1.1-4.4v-3.2
						c0-1.9,0.5-3.7,1.6-5.4c1.1-1.7,2.6-2.6,4.6-2.6c1.2,0,2.1,0.3,2.9,0.8c0.8,0.5,1.6,1.4,2.3,2.8
						C276.4,198.7,276.7,200.1,276.7,201.7z M273.8,201.7c0-1.6-0.4-2.9-1.3-4.1c-0.5-0.6-1.2-1-2.1-1c-0.9,0-1.6,0.4-2.1,1.1
						c-0.8,1.1-1.3,2.4-1.3,4v3.2c0,1.6,0.4,2.9,1.3,4.1c0.5,0.6,1.2,1,2.1,1c0.9,0,1.6-0.4,2.1-1.1c0.8-1.1,1.3-2.4,1.3-4V201.7z"
						/>
				</g>
				<g id="XMLID_00000034804458889939203150000013464413243978150574_">
					<path id="XMLID_00000168115792371167351360000006855955154887394946_" class="st1" d="M224.9,176.6v3.2c0,1.9-0.5,3.7-1.6,5.4
						c-1.1,1.7-2.6,2.6-4.6,2.6c-1.2,0-2.1-0.3-2.9-0.8c-0.8-0.5-1.6-1.5-2.3-2.8c-0.7-1.4-1.1-2.8-1.1-4.4v-3.2
						c0-1.9,0.5-3.7,1.6-5.4s2.6-2.6,4.6-2.6c1.2,0,2.1,0.3,2.9,0.8c0.8,0.5,1.6,1.4,2.3,2.8C224.6,173.6,224.9,175.1,224.9,176.6z
						 M222,176.6c0-1.6-0.4-2.9-1.3-4.1c-0.5-0.6-1.2-1-2.1-1c-0.9,0-1.6,0.4-2.1,1.1c-0.8,1.1-1.3,2.4-1.3,4v3.2
						c0,1.6,0.4,2.9,1.3,4.1c0.5,0.6,1.2,1,2.1,1c0.9,0,1.6-0.4,2.1-1.1c0.8-1.1,1.3-2.4,1.3-4V176.6z"/>
					<path id="XMLID_00000010311466630318305270000013592665377164551044_" class="st1" d="M237.4,168.6v15.8h2.9
						c0.7,0,1.2,0.1,1.5,0.4c0.3,0.3,0.4,0.6,0.4,1c0,0.4-0.1,0.8-0.4,1c-0.3,0.3-0.8,0.4-1.5,0.4h-8.7c-0.7,0-1.2-0.1-1.5-0.4
						c-0.3-0.3-0.4-0.6-0.4-1c0-0.4,0.1-0.8,0.4-1c0.3-0.3,0.8-0.4,1.5-0.4h2.9v-12l-2.6,0.7c-0.4,0.1-0.7,0.2-0.9,0.2
						c-0.4,0-0.7-0.1-0.9-0.4c-0.3-0.3-0.4-0.6-0.4-1.1c0-0.4,0.1-0.7,0.3-0.9c0.2-0.2,0.6-0.4,1.2-0.6L237.4,168.6z"/>
					<path id="XMLID_00000170993851596721295930000005470977141315016832_" class="st1" d="M259.5,176.6v3.2c0,1.9-0.5,3.7-1.6,5.4
						c-1.1,1.7-2.6,2.6-4.6,2.6c-1.2,0-2.1-0.3-2.9-0.8c-0.8-0.5-1.6-1.5-2.3-2.8c-0.7-1.4-1.1-2.8-1.1-4.4v-3.2
						c0-1.9,0.5-3.7,1.6-5.4c1.1-1.7,2.6-2.6,4.6-2.6c1.2,0,2.1,0.3,2.9,0.8c0.8,0.5,1.6,1.4,2.3,2.8
						C259.1,173.6,259.5,175.1,259.5,176.6z M256.6,176.6c0-1.6-0.4-2.9-1.3-4.1c-0.5-0.6-1.2-1-2.1-1c-0.9,0-1.6,0.4-2.1,1.1
						c-0.8,1.1-1.3,2.4-1.3,4v3.2c0,1.6,0.4,2.9,1.3,4.1c0.5,0.6,1.2,1,2.1,1c0.9,0,1.6-0.4,2.1-1.1c0.8-1.1,1.3-2.4,1.3-4V176.6z"
						/>
					<path id="XMLID_00000103963904655091660670000002867624355166530450_" class="st1" d="M276.7,176.6v3.2c0,1.9-0.5,3.7-1.6,5.4
						c-1.1,1.7-2.6,2.6-4.6,2.6c-1.2,0-2.1-0.3-2.9-0.8c-0.8-0.5-1.6-1.5-2.3-2.8c-0.7-1.4-1.1-2.8-1.1-4.4v-3.2
						c0-1.9,0.5-3.7,1.6-5.4c1.1-1.7,2.6-2.6,4.6-2.6c1.2,0,2.1,0.3,2.9,0.8c0.8,0.5,1.6,1.4,2.3,2.8
						C276.4,173.6,276.7,175.1,276.7,176.6z M273.8,176.6c0-1.6-0.4-2.9-1.3-4.1c-0.5-0.6-1.2-1-2.1-1c-0.9,0-1.6,0.4-2.1,1.1
						c-0.8,1.1-1.3,2.4-1.3,4v3.2c0,1.6,0.4,2.9,1.3,4.1c0.5,0.6,1.2,1,2.1,1c0.9,0,1.6-0.4,2.1-1.1c0.8-1.1,1.3-2.4,1.3-4V176.6z"
						/>
				</g>
			</g>
			<g id="XMLID_00000003093294522799629930000007687357229010328759_">
				<g id="XMLID_00000148652986835724113820000017961905045171980984_">
					<path id="XMLID_00000129170876216700495430000011143651410787136696_" class="st1" d="M290.5,143.3v15.8h2.9
						c0.7,0,1.2,0.1,1.5,0.4c0.3,0.3,0.4,0.6,0.4,1c0,0.4-0.1,0.8-0.4,1c-0.3,0.3-0.8,0.4-1.5,0.4h-8.7c-0.7,0-1.2-0.1-1.5-0.4
						c-0.3-0.3-0.4-0.6-0.4-1c0-0.4,0.1-0.8,0.4-1c0.3-0.3,0.8-0.4,1.5-0.4h2.9v-12l-2.6,0.7c-0.4,0.1-0.7,0.2-0.9,0.2
						c-0.4,0-0.7-0.1-0.9-0.4c-0.3-0.3-0.4-0.6-0.4-1.1c0-0.4,0.1-0.7,0.3-0.9c0.2-0.2,0.6-0.4,1.2-0.6L290.5,143.3z"/>
					<path id="XMLID_00000141439870097258142550000001543449389957035407_" class="st1" d="M312.6,151.3v3.2c0,1.9-0.5,3.7-1.6,5.4
						c-1.1,1.7-2.6,2.6-4.6,2.6c-1.2,0-2.1-0.3-2.9-0.8c-0.8-0.5-1.6-1.5-2.3-2.8c-0.7-1.4-1.1-2.8-1.1-4.4v-3.2
						c0-1.9,0.5-3.7,1.6-5.4s2.6-2.6,4.6-2.6c1.2,0,2.1,0.3,2.9,0.8c0.8,0.5,1.6,1.4,2.3,2.8C312.2,148.3,312.6,149.7,312.6,151.3z
						 M309.7,151.3c0-1.6-0.4-2.9-1.3-4.1c-0.5-0.6-1.2-1-2.1-1c-0.9,0-1.6,0.4-2.1,1.1c-0.8,1.1-1.3,2.4-1.3,4v3.2
						c0,1.6,0.4,2.9,1.3,4.1c0.5,0.6,1.2,1,2.1,1c0.9,0,1.6-0.4,2.1-1.1c0.8-1.1,1.3-2.4,1.3-4V151.3z"/>
					<path id="XMLID_00000111190036388929074510000004740391124847580289_" class="st1" d="M325.1,143.3v15.8h2.9
						c0.7,0,1.2,0.1,1.5,0.4c0.3,0.3,0.4,0.6,0.4,1c0,0.4-0.1,0.8-0.4,1c-0.3,0.3-0.8,0.4-1.5,0.4h-8.7c-0.7,0-1.2-0.1-1.5-0.4
						c-0.3-0.3-0.4-0.6-0.4-1c0-0.4,0.1-0.8,0.4-1c0.3-0.3,0.8-0.4,1.5-0.4h2.9v-12l-2.6,0.7c-0.4,0.1-0.7,0.2-0.9,0.2
						c-0.4,0-0.7-0.1-0.9-0.4c-0.3-0.3-0.4-0.6-0.4-1.1c0-0.4,0.1-0.7,0.3-0.9c0.2-0.2,0.6-0.4,1.2-0.6L325.1,143.3z"/>
					<path id="XMLID_00000008836260055337816150000017707232098579471246_" class="st1" d="M347.1,151.3v3.2c0,1.9-0.5,3.7-1.6,5.4
						c-1.1,1.7-2.6,2.6-4.6,2.6c-1.2,0-2.1-0.3-2.9-0.8c-0.8-0.5-1.6-1.5-2.3-2.8c-0.7-1.4-1.1-2.8-1.1-4.4v-3.2
						c0-1.9,0.5-3.7,1.6-5.4c1.1-1.7,2.6-2.6,4.6-2.6c1.2,0,2.1,0.3,2.9,0.8c0.8,0.5,1.6,1.4,2.3,2.8
						C346.8,148.3,347.1,149.7,347.1,151.3z M344.3,151.3c0-1.6-0.4-2.9-1.3-4.1c-0.5-0.6-1.2-1-2.1-1c-0.9,0-1.6,0.4-2.1,1.1
						c-0.8,1.1-1.3,2.4-1.3,4v3.2c0,1.6,0.4,2.9,1.3,4.1c0.5,0.6,1.2,1,2.1,1c0.9,0,1.6-0.4,2.1-1.1c0.8-1.1,1.3-2.4,1.3-4V151.3z"
						/>
				</g>
				<g id="XMLID_00000165208443164433597610000004669301064524779695_">
					<path id="XMLID_00000163069956003280518530000013934555273567454633_" class="st1" d="M295.3,201.7v3.2c0,1.9-0.5,3.7-1.6,5.4
						c-1.1,1.7-2.6,2.6-4.6,2.6c-1.2,0-2.1-0.3-2.9-0.8c-0.8-0.5-1.6-1.5-2.3-2.8c-0.7-1.4-1.1-2.8-1.1-4.4v-3.2
						c0-1.9,0.5-3.7,1.6-5.4c1.1-1.7,2.6-2.6,4.6-2.6c1.2,0,2.1,0.3,2.9,0.8c0.8,0.5,1.6,1.4,2.3,2.8
						C295,198.7,295.3,200.1,295.3,201.7z M292.4,201.7c0-1.6-0.4-2.9-1.3-4.1c-0.5-0.6-1.2-1-2.1-1c-0.9,0-1.6,0.4-2.1,1.1
						c-0.8,1.1-1.3,2.4-1.3,4v3.2c0,1.6,0.4,2.9,1.3,4.1c0.5,0.6,1.2,1,2.1,1c0.9,0,1.6-0.4,2.1-1.1c0.8-1.1,1.3-2.4,1.3-4V201.7z"
						/>
					<path id="XMLID_00000181062167554271388770000008056634552350640825_" class="st1" d="M307.8,193.7v15.8h2.9
						c0.7,0,1.2,0.1,1.5,0.4c0.3,0.3,0.4,0.6,0.4,1c0,0.4-0.1,0.8-0.4,1c-0.3,0.3-0.8,0.4-1.5,0.4H302c-0.7,0-1.2-0.1-1.5-0.4
						c-0.3-0.3-0.4-0.6-0.4-1c0-0.4,0.1-0.8,0.4-1c0.3-0.3,0.8-0.4,1.5-0.4h2.9v-12l-2.6,0.7c-0.4,0.1-0.7,0.2-0.9,0.2
						c-0.4,0-0.7-0.1-0.9-0.4c-0.3-0.3-0.4-0.6-0.4-1.1c0-0.4,0.1-0.7,0.3-0.9c0.2-0.2,0.6-0.4,1.2-0.6L307.8,193.7z"/>
					<path id="XMLID_00000139274505469063519180000010276347790048317825_" class="st1" d="M325.1,193.7v15.8h2.9
						c0.7,0,1.2,0.1,1.5,0.4c0.3,0.3,0.4,0.6,0.4,1c0,0.4-0.1,0.8-0.4,1c-0.3,0.3-0.8,0.4-1.5,0.4h-8.7c-0.7,0-1.2-0.1-1.5-0.4
						c-0.3-0.3-0.4-0.6-0.4-1c0-0.4,0.1-0.8,0.4-1c0.3-0.3,0.8-0.4,1.5-0.4h2.9v-12l-2.6,0.7c-0.4,0.1-0.7,0.2-0.9,0.2
						c-0.4,0-0.7-0.1-0.9-0.4c-0.3-0.3-0.4-0.6-0.4-1.1c0-0.4,0.1-0.7,0.3-0.9c0.2-0.2,0.6-0.4,1.2-0.6L325.1,193.7z"/>
					<path id="XMLID_00000091017211009715569380000002165480579525364919_" class="st1" d="M347.1,201.7v3.2c0,1.9-0.5,3.7-1.6,5.4
						c-1.1,1.7-2.6,2.6-4.6,2.6c-1.2,0-2.1-0.3-2.9-0.8c-0.8-0.5-1.6-1.5-2.3-2.8c-0.7-1.4-1.1-2.8-1.1-4.4v-3.2
						c0-1.9,0.5-3.7,1.6-5.4c1.1-1.7,2.6-2.6,4.6-2.6c1.2,0,2.1,0.3,2.9,0.8c0.8,0.5,1.6,1.4,2.3,2.8
						C346.8,198.7,347.1,200.1,347.1,201.7z M344.3,201.7c0-1.6-0.4-2.9-1.3-4.1c-0.5-0.6-1.2-1-2.1-1c-0.9,0-1.6,0.4-2.1,1.1
						c-0.8,1.1-1.3,2.4-1.3,4v3.2c0,1.6,0.4,2.9,1.3,4.1c0.5,0.6,1.2,1,2.1,1c0.9,0,1.6-0.4,2.1-1.1c0.8-1.1,1.3-2.4,1.3-4V201.7z"
						/>
				</g>
				<g id="XMLID_00000008124138756570640780000012437524721998681735_">
					<path id="XMLID_00000108288540260520279300000015201586417601444027_" class="st1" d="M295.3,176.6v3.2c0,1.9-0.5,3.7-1.6,5.4
						c-1.1,1.7-2.6,2.6-4.6,2.6c-1.2,0-2.1-0.3-2.9-0.8c-0.8-0.5-1.6-1.5-2.3-2.8c-0.7-1.4-1.1-2.8-1.1-4.4v-3.2
						c0-1.9,0.5-3.7,1.6-5.4s2.6-2.6,4.6-2.6c1.2,0,2.1,0.3,2.9,0.8c0.8,0.5,1.6,1.4,2.3,2.8C295,173.6,295.3,175.1,295.3,176.6z
						 M292.4,176.6c0-1.6-0.4-2.9-1.3-4.1c-0.5-0.6-1.2-1-2.1-1c-0.9,0-1.6,0.4-2.1,1.1c-0.8,1.1-1.3,2.4-1.3,4v3.2
						c0,1.6,0.4,2.9,1.3,4.1c0.5,0.6,1.2,1,2.1,1c0.9,0,1.6-0.4,2.1-1.1c0.8-1.1,1.3-2.4,1.3-4V176.6z"/>
					<path id="XMLID_00000027567151247137173710000000880124389185601455_" class="st1" d="M307.8,168.6v15.8h2.9
						c0.7,0,1.2,0.1,1.5,0.4c0.3,0.3,0.4,0.6,0.4,1c0,0.4-0.1,0.8-0.4,1c-0.3,0.3-0.8,0.4-1.5,0.4H302c-0.7,0-1.2-0.1-1.5-0.4
						c-0.3-0.3-0.4-0.6-0.4-1c0-0.4,0.1-0.8,0.4-1c0.3-0.3,0.8-0.4,1.5-0.4h2.9v-12l-2.6,0.7c-0.4,0.1-0.7,0.2-0.9,0.2
						c-0.4,0-0.7-0.1-0.9-0.4c-0.3-0.3-0.4-0.6-0.4-1.1c0-0.4,0.1-0.7,0.3-0.9c0.2-0.2,0.6-0.4,1.2-0.6L307.8,168.6z"/>
					<path id="XMLID_00000105405801003002237120000002755594931408257690_" class="st1" d="M329.9,176.6v3.2c0,1.9-0.5,3.7-1.6,5.4
						c-1.1,1.7-2.6,2.6-4.6,2.6c-1.2,0-2.1-0.3-2.9-0.8c-0.8-0.5-1.6-1.5-2.3-2.8c-0.7-1.4-1.1-2.8-1.1-4.4v-3.2
						c0-1.9,0.5-3.7,1.6-5.4s2.6-2.6,4.6-2.6c1.2,0,2.1,0.3,2.9,0.8c0.8,0.5,1.6,1.4,2.3,2.8C329.5,173.6,329.9,175.1,329.9,176.6z
						 M327,176.6c0-1.6-0.4-2.9-1.3-4.1c-0.5-0.6-1.2-1-2.1-1c-0.9,0-1.6,0.4-2.1,1.1c-0.8,1.1-1.3,2.4-1.3,4v3.2
						c0,1.6,0.4,2.9,1.3,4.1c0.5,0.6,1.2,1,2.1,1c0.9,0,1.6-0.4,2.1-1.1c0.8-1.1,1.3-2.4,1.3-4V176.6z"/>
					<path id="XMLID_00000007387928226693155010000018043015402013559737_" class="st1" d="M347.1,176.6v3.2c0,1.9-0.5,3.7-1.6,5.4
						c-1.1,1.7-2.6,2.6-4.6,2.6c-1.2,0-2.1-0.3-2.9-0.8c-0.8-0.5-1.6-1.5-2.3-2.8c-0.7-1.4-1.1-2.8-1.1-4.4v-3.2
						c0-1.9,0.5-3.7,1.6-5.4c1.1-1.7,2.6-2.6,4.6-2.6c1.2,0,2.1,0.3,2.9,0.8c0.8,0.5,1.6,1.4,2.3,2.8
						C346.8,173.6,347.1,175.1,347.1,176.6z M344.3,176.6c0-1.6-0.4-2.9-1.3-4.1c-0.5-0.6-1.2-1-2.1-1c-0.9,0-1.6,0.4-2.1,1.1
						c-0.8,1.1-1.3,2.4-1.3,4v3.2c0,1.6,0.4,2.9,1.3,4.1c0.5,0.6,1.2,1,2.1,1c0.9,0,1.6-0.4,2.1-1.1c0.8-1.1,1.3-2.4,1.3-4V176.6z"
						/>
				</g>
			</g>
		</g>
		<g>
			<g id="XMLID_00000122707719756701039890000017611498909048499133_">
				<g id="XMLID_00000000221910429155992140000002605565741230083763_">
					<path id="XMLID_00000099630701295450311790000013787724090902938277_" class="st1" d="M79.3,219.5v15.8h2.9
						c0.7,0,1.2,0.1,1.5,0.4c0.3,0.3,0.4,0.6,0.4,1c0,0.4-0.1,0.8-0.4,1c-0.3,0.3-0.8,0.4-1.5,0.4h-8.7c-0.7,0-1.2-0.1-1.5-0.4
						c-0.3-0.3-0.4-0.6-0.4-1c0-0.4,0.1-0.8,0.4-1c0.3-0.3,0.8-0.4,1.5-0.4h2.9v-12l-2.6,0.7c-0.4,0.1-0.7,0.2-0.9,0.2
						c-0.4,0-0.7-0.1-0.9-0.4c-0.3-0.3-0.4-0.6-0.4-1.1c0-0.4,0.1-0.7,0.3-0.9c0.2-0.2,0.6-0.4,1.2-0.6L79.3,219.5z"/>
					<path id="XMLID_00000044152762535717913350000005753264181026547075_" class="st1" d="M101.4,227.5v3.2c0,1.9-0.5,3.7-1.6,5.4
						c-1.1,1.7-2.6,2.6-4.6,2.6c-1.2,0-2.1-0.3-2.9-0.8c-0.8-0.5-1.6-1.5-2.3-2.8c-0.7-1.4-1.1-2.8-1.1-4.4v-3.2
						c0-1.9,0.5-3.7,1.6-5.4c1.1-1.7,2.6-2.6,4.6-2.6c1.2,0,2.1,0.3,2.9,0.8c0.8,0.5,1.6,1.4,2.3,2.8
						C101,224.5,101.4,225.9,101.4,227.5z M98.5,227.5c0-1.6-0.4-2.9-1.3-4.1c-0.5-0.6-1.2-1-2.1-1c-0.9,0-1.6,0.4-2.1,1.1
						c-0.8,1.1-1.3,2.4-1.3,4v3.2c0,1.6,0.4,2.9,1.3,4.1c0.5,0.6,1.2,1,2.1,1c0.9,0,1.6-0.4,2.1-1.1c0.8-1.1,1.3-2.4,1.3-4V227.5z"
						/>
					<path id="XMLID_00000098211094134407133670000001048745505518093442_" class="st1" d="M113.9,219.5v15.8h2.9
						c0.7,0,1.2,0.1,1.5,0.4c0.3,0.3,0.4,0.6,0.4,1c0,0.4-0.1,0.8-0.4,1c-0.3,0.3-0.8,0.4-1.5,0.4h-8.7c-0.7,0-1.2-0.1-1.5-0.4
						c-0.3-0.3-0.4-0.6-0.4-1c0-0.4,0.1-0.8,0.4-1c0.3-0.3,0.8-0.4,1.5-0.4h2.9v-12l-2.6,0.7c-0.4,0.1-0.7,0.2-0.9,0.2
						c-0.4,0-0.7-0.1-0.9-0.4c-0.3-0.3-0.4-0.6-0.4-1.1c0-0.4,0.1-0.7,0.3-0.9c0.2-0.2,0.6-0.4,1.2-0.6L113.9,219.5z"/>
					<path id="XMLID_00000066504447759341444420000002679438487112646062_" class="st1" d="M135.9,227.5v3.2c0,1.9-0.5,3.7-1.6,5.4
						c-1.1,1.7-2.6,2.6-4.6,2.6c-1.2,0-2.1-0.3-2.9-0.8c-0.8-0.5-1.6-1.5-2.3-2.8c-0.7-1.4-1.1-2.8-1.1-4.4v-3.2
						c0-1.9,0.5-3.7,1.6-5.4c1.1-1.7,2.6-2.6,4.6-2.6c1.2,0,2.1,0.3,2.9,0.8c0.8,0.5,1.6,1.4,2.3,2.8
						C135.6,224.5,135.9,225.9,135.9,227.5z M133,227.5c0-1.6-0.4-2.9-1.3-4.1c-0.5-0.6-1.2-1-2.1-1c-0.9,0-1.6,0.4-2.1,1.1
						c-0.8,1.1-1.3,2.4-1.3,4v3.2c0,1.6,0.4,2.9,1.3,4.1c0.5,0.6,1.2,1,2.1,1c0.9,0,1.6-0.4,2.1-1.1c0.8-1.1,1.3-2.4,1.3-4V227.5z"
						/>
				</g>
				<g id="XMLID_00000089572820859302754760000008183841857649828999_">
					<path id="XMLID_00000012447397520472574790000005423759718120067982_" class="st1" d="M84.1,277.9v3.2c0,1.9-0.5,3.7-1.6,5.4
						c-1.1,1.7-2.6,2.6-4.6,2.6c-1.2,0-2.1-0.3-2.9-0.8c-0.8-0.5-1.6-1.5-2.3-2.8c-0.7-1.4-1.1-2.8-1.1-4.4v-3.2
						c0-1.9,0.5-3.7,1.6-5.4c1.1-1.7,2.6-2.6,4.6-2.6c1.2,0,2.1,0.3,2.9,0.8c0.8,0.5,1.6,1.4,2.3,2.8
						C83.8,274.9,84.1,276.3,84.1,277.9z M81.2,277.9c0-1.6-0.4-2.9-1.3-4.1c-0.5-0.6-1.2-1-2.1-1c-0.9,0-1.6,0.4-2.1,1.1
						c-0.8,1.1-1.3,2.4-1.3,4v3.2c0,1.6,0.4,2.9,1.3,4.1c0.5,0.6,1.2,1,2.1,1c0.9,0,1.6-0.4,2.1-1.1c0.8-1.1,1.3-2.4,1.3-4V277.9z"
						/>
					<path id="XMLID_00000182488837202173768680000015366755707634552200_" class="st1" d="M96.6,269.9v15.8h2.9
						c0.7,0,1.2,0.1,1.5,0.4c0.3,0.3,0.4,0.6,0.4,1c0,0.4-0.1,0.8-0.4,1c-0.3,0.3-0.8,0.4-1.5,0.4h-8.7c-0.7,0-1.2-0.1-1.5-0.4
						c-0.3-0.3-0.4-0.6-0.4-1c0-0.4,0.1-0.8,0.4-1c0.3-0.3,0.8-0.4,1.5-0.4h2.9v-12l-2.6,0.7c-0.4,0.1-0.7,0.2-0.9,0.2
						c-0.4,0-0.7-0.1-0.9-0.4c-0.3-0.3-0.4-0.6-0.4-1.1c0-0.4,0.1-0.7,0.3-0.9c0.2-0.2,0.6-0.4,1.2-0.6L96.6,269.9z"/>
					<path id="XMLID_00000133511316261590704540000008014476502463144869_" class="st1" d="M113.9,269.9v15.8h2.9
						c0.7,0,1.2,0.1,1.5,0.4c0.3,0.3,0.4,0.6,0.4,1c0,0.4-0.1,0.8-0.4,1c-0.3,0.3-0.8,0.4-1.5,0.4h-8.7c-0.7,0-1.2-0.1-1.5-0.4
						c-0.3-0.3-0.4-0.6-0.4-1c0-0.4,0.1-0.8,0.4-1c0.3-0.3,0.8-0.4,1.5-0.4h2.9v-12l-2.6,0.7c-0.4,0.1-0.7,0.2-0.9,0.2
						c-0.4,0-0.7-0.1-0.9-0.4c-0.3-0.3-0.4-0.6-0.4-1.1c0-0.4,0.1-0.7,0.3-0.9c0.2-0.2,0.6-0.4,1.2-0.6L113.9,269.9z"/>
					<path id="XMLID_00000175312061646826971840000018399509562300748452_" class="st1" d="M135.9,277.9v3.2c0,1.9-0.5,3.7-1.6,5.4
						c-1.1,1.7-2.6,2.6-4.6,2.6c-1.2,0-2.1-0.3-2.9-0.8c-0.8-0.5-1.6-1.5-2.3-2.8c-0.7-1.4-1.1-2.8-1.1-4.4v-3.2
						c0-1.9,0.5-3.7,1.6-5.4c1.1-1.7,2.6-2.6,4.6-2.6c1.2,0,2.1,0.3,2.9,0.8c0.8,0.5,1.6,1.4,2.3,2.8
						C135.6,274.9,135.9,276.3,135.9,277.9z M133,277.9c0-1.6-0.4-2.9-1.3-4.1c-0.5-0.6-1.2-1-2.1-1c-0.9,0-1.6,0.4-2.1,1.1
						c-0.8,1.1-1.3,2.4-1.3,4v3.2c0,1.6,0.4,2.9,1.3,4.1c0.5,0.6,1.2,1,2.1,1c0.9,0,1.6-0.4,2.1-1.1c0.8-1.1,1.3-2.4,1.3-4V277.9z"
						/>
				</g>
				<g id="XMLID_00000039836316600602464680000015163106759810739388_">
					<path id="XMLID_00000008132087086579189430000001038467364512105379_" class="st1" d="M84.1,252.8v3.2c0,1.9-0.5,3.7-1.6,5.4
						c-1.1,1.7-2.6,2.6-4.6,2.6c-1.2,0-2.1-0.3-2.9-0.8c-0.8-0.5-1.6-1.5-2.3-2.8c-0.7-1.4-1.1-2.8-1.1-4.4v-3.2
						c0-1.9,0.5-3.7,1.6-5.4c1.1-1.7,2.6-2.6,4.6-2.6c1.2,0,2.1,0.3,2.9,0.8c0.8,0.5,1.6,1.4,2.3,2.8
						C83.8,249.8,84.1,251.3,84.1,252.8z M81.2,252.8c0-1.6-0.4-2.9-1.3-4.1c-0.5-0.6-1.2-1-2.1-1c-0.9,0-1.6,0.4-2.1,1.1
						c-0.8,1.1-1.3,2.4-1.3,4v3.2c0,1.6,0.4,2.9,1.3,4.1c0.5,0.6,1.2,1,2.1,1c0.9,0,1.6-0.4,2.1-1.1c0.8-1.1,1.3-2.4,1.3-4V252.8z"
						/>
					<path id="XMLID_00000053507477689484896590000007633450641202060460_" class="st1" d="M96.6,244.9v15.8h2.9
						c0.7,0,1.2,0.1,1.5,0.4c0.3,0.3,0.4,0.6,0.4,1c0,0.4-0.1,0.8-0.4,1c-0.3,0.3-0.8,0.4-1.5,0.4h-8.7c-0.7,0-1.2-0.1-1.5-0.4
						c-0.3-0.3-0.4-0.6-0.4-1c0-0.4,0.1-0.8,0.4-1c0.3-0.3,0.8-0.4,1.5-0.4h2.9v-12l-2.6,0.7c-0.4,0.1-0.7,0.2-0.9,0.2
						c-0.4,0-0.7-0.1-0.9-0.4c-0.3-0.3-0.4-0.6-0.4-1.1c0-0.4,0.1-0.7,0.3-0.9c0.2-0.2,0.6-0.4,1.2-0.6L96.6,244.9z"/>
					<path id="XMLID_00000034057013174581105150000017973666131758238623_" class="st1" d="M118.7,252.8v3.2c0,1.9-0.5,3.7-1.6,5.4
						c-1.1,1.7-2.6,2.6-4.6,2.6c-1.2,0-2.1-0.3-2.9-0.8c-0.8-0.5-1.6-1.5-2.3-2.8c-0.7-1.4-1.1-2.8-1.1-4.4v-3.2
						c0-1.9,0.5-3.7,1.6-5.4c1.1-1.7,2.6-2.6,4.6-2.6c1.2,0,2.1,0.3,2.9,0.8c0.8,0.5,1.6,1.4,2.3,2.8
						C118.3,249.8,118.7,251.3,118.7,252.8z M115.8,252.8c0-1.6-0.4-2.9-1.3-4.1c-0.5-0.6-1.2-1-2.1-1c-0.9,0-1.6,0.4-2.1,1.1
						c-0.8,1.1-1.3,2.4-1.3,4v3.2c0,1.6,0.4,2.9,1.3,4.1c0.5,0.6,1.2,1,2.1,1c0.9,0,1.6-0.4,2.1-1.1c0.8-1.1,1.3-2.4,1.3-4V252.8z"
						/>
					<path id="XMLID_00000071532936992817236480000003695446341659467431_" class="st1" d="M135.9,252.8v3.2c0,1.9-0.5,3.7-1.6,5.4
						c-1.1,1.7-2.6,2.6-4.6,2.6c-1.2,0-2.1-0.3-2.9-0.8c-0.8-0.5-1.6-1.5-2.3-2.8c-0.7-1.4-1.1-2.8-1.1-4.4v-3.2
						c0-1.9,0.5-3.7,1.6-5.4c1.1-1.7,2.6-2.6,4.6-2.6c1.2,0,2.1,0.3,2.9,0.8c0.8,0.5,1.6,1.4,2.3,2.8
						C135.6,249.8,135.9,251.3,135.9,252.8z M133,252.8c0-1.6-0.4-2.9-1.3-4.1c-0.5-0.6-1.2-1-2.1-1c-0.9,0-1.6,0.4-2.1,1.1
						c-0.8,1.1-1.3,2.4-1.3,4v3.2c0,1.6,0.4,2.9,1.3,4.1c0.5,0.6,1.2,1,2.1,1c0.9,0,1.6-0.4,2.1-1.1c0.8-1.1,1.3-2.4,1.3-4V252.8z"
						/>
				</g>
			</g>
			<g id="XMLID_00000008141249814516038400000005252142652294376077_">
				<g id="XMLID_00000150798111159314602690000014074436169797699988_">
					<path id="XMLID_00000117638000497478043800000004887650694963443105_" class="st1" d="M149.7,219.5v15.8h2.9
						c0.7,0,1.2,0.1,1.5,0.4c0.3,0.3,0.4,0.6,0.4,1c0,0.4-0.1,0.8-0.4,1c-0.3,0.3-0.8,0.4-1.5,0.4h-8.7c-0.7,0-1.2-0.1-1.5-0.4
						c-0.3-0.3-0.4-0.6-0.4-1c0-0.4,0.1-0.8,0.4-1c0.3-0.3,0.8-0.4,1.5-0.4h2.9v-12l-2.6,0.7c-0.4,0.1-0.7,0.2-0.9,0.2
						c-0.4,0-0.7-0.1-0.9-0.4c-0.3-0.3-0.4-0.6-0.4-1.1c0-0.4,0.1-0.7,0.3-0.9c0.2-0.2,0.6-0.4,1.2-0.6L149.7,219.5z"/>
					<path id="XMLID_00000096773081508809112570000003930027514564759727_" class="st1" d="M171.8,227.5v3.2c0,1.9-0.5,3.7-1.6,5.4
						c-1.1,1.7-2.6,2.6-4.6,2.6c-1.2,0-2.1-0.3-2.9-0.8c-0.8-0.5-1.6-1.5-2.3-2.8c-0.7-1.4-1.1-2.8-1.1-4.4v-3.2
						c0-1.9,0.5-3.7,1.6-5.4c1.1-1.7,2.6-2.6,4.6-2.6c1.2,0,2.1,0.3,2.9,0.8c0.8,0.5,1.6,1.4,2.3,2.8
						C171.5,224.5,171.8,225.9,171.8,227.5z M168.9,227.5c0-1.6-0.4-2.9-1.3-4.1c-0.5-0.6-1.2-1-2.1-1c-0.9,0-1.6,0.4-2.1,1.1
						c-0.8,1.1-1.3,2.4-1.3,4v3.2c0,1.6,0.4,2.9,1.3,4.1c0.5,0.6,1.2,1,2.1,1c0.9,0,1.6-0.4,2.1-1.1c0.8-1.1,1.3-2.4,1.3-4V227.5z"
						/>
					<path id="XMLID_00000151536707984472124250000016711087527557382024_" class="st1" d="M184.3,219.5v15.8h2.9
						c0.7,0,1.2,0.1,1.5,0.4c0.3,0.3,0.4,0.6,0.4,1c0,0.4-0.1,0.8-0.4,1c-0.3,0.3-0.8,0.4-1.5,0.4h-8.7c-0.7,0-1.2-0.1-1.5-0.4
						c-0.3-0.3-0.4-0.6-0.4-1c0-0.4,0.1-0.8,0.4-1c0.3-0.3,0.8-0.4,1.5-0.4h2.9v-12l-2.6,0.7c-0.4,0.1-0.7,0.2-0.9,0.2
						c-0.4,0-0.7-0.1-0.9-0.4c-0.3-0.3-0.4-0.6-0.4-1.1c0-0.4,0.1-0.7,0.3-0.9c0.2-0.2,0.6-0.4,1.2-0.6L184.3,219.5z"/>
					<path id="XMLID_00000025439914760307457140000012583144660413695142_" class="st1" d="M206.4,227.5v3.2c0,1.9-0.5,3.7-1.6,5.4
						c-1.1,1.7-2.6,2.6-4.6,2.6c-1.2,0-2.1-0.3-2.9-0.8c-0.8-0.5-1.6-1.5-2.3-2.8c-0.7-1.4-1.1-2.8-1.1-4.4v-3.2
						c0-1.9,0.5-3.7,1.6-5.4c1.1-1.7,2.6-2.6,4.6-2.6c1.2,0,2.1,0.3,2.9,0.8c0.8,0.5,1.6,1.4,2.3,2.8
						C206,224.5,206.4,225.9,206.4,227.5z M203.5,227.5c0-1.6-0.4-2.9-1.3-4.1c-0.5-0.6-1.2-1-2.1-1c-0.9,0-1.6,0.4-2.1,1.1
						c-0.8,1.1-1.3,2.4-1.3,4v3.2c0,1.6,0.4,2.9,1.3,4.1c0.5,0.6,1.2,1,2.1,1c0.9,0,1.6-0.4,2.1-1.1c0.8-1.1,1.3-2.4,1.3-4V227.5z"
						/>
				</g>
				<g id="XMLID_00000065774542144342814940000004277417550234059936_">
					<path id="XMLID_00000179642177367627810760000013712129422640283283_" class="st1" d="M154.5,277.9v3.2c0,1.9-0.5,3.7-1.6,5.4
						c-1.1,1.7-2.6,2.6-4.6,2.6c-1.2,0-2.1-0.3-2.9-0.8c-0.8-0.5-1.6-1.5-2.3-2.8c-0.7-1.4-1.1-2.8-1.1-4.4v-3.2
						c0-1.9,0.5-3.7,1.6-5.4c1.1-1.7,2.6-2.6,4.6-2.6c1.2,0,2.1,0.3,2.9,0.8c0.8,0.5,1.6,1.4,2.3,2.8
						C154.2,274.9,154.5,276.3,154.5,277.9z M151.7,277.9c0-1.6-0.4-2.9-1.3-4.1c-0.5-0.6-1.2-1-2.1-1c-0.9,0-1.6,0.4-2.1,1.1
						c-0.8,1.1-1.3,2.4-1.3,4v3.2c0,1.6,0.4,2.9,1.3,4.1c0.5,0.6,1.2,1,2.1,1c0.9,0,1.6-0.4,2.1-1.1c0.8-1.1,1.3-2.4,1.3-4V277.9z"
						/>
					<path id="XMLID_00000000185297080301616650000004629939556258982032_" class="st1" d="M167,269.9v15.8h2.9
						c0.7,0,1.2,0.1,1.5,0.4c0.3,0.3,0.4,0.6,0.4,1c0,0.4-0.1,0.8-0.4,1c-0.3,0.3-0.8,0.4-1.5,0.4h-8.7c-0.7,0-1.2-0.1-1.5-0.4
						c-0.3-0.3-0.4-0.6-0.4-1c0-0.4,0.1-0.8,0.4-1c0.3-0.3,0.8-0.4,1.5-0.4h2.9v-12l-2.6,0.7c-0.4,0.1-0.7,0.2-0.9,0.2
						c-0.4,0-0.7-0.1-0.9-0.4c-0.3-0.3-0.4-0.6-0.4-1.1c0-0.4,0.1-0.7,0.3-0.9c0.2-0.2,0.6-0.4,1.2-0.6L167,269.9z"/>
					<path id="XMLID_00000144299562440834740990000013933495844081948314_" class="st1" d="M184.3,269.9v15.8h2.9
						c0.7,0,1.2,0.1,1.5,0.4c0.3,0.3,0.4,0.6,0.4,1c0,0.4-0.1,0.8-0.4,1c-0.3,0.3-0.8,0.4-1.5,0.4h-8.7c-0.7,0-1.2-0.1-1.5-0.4
						c-0.3-0.3-0.4-0.6-0.4-1c0-0.4,0.1-0.8,0.4-1c0.3-0.3,0.8-0.4,1.5-0.4h2.9v-12l-2.6,0.7c-0.4,0.1-0.7,0.2-0.9,0.2
						c-0.4,0-0.7-0.1-0.9-0.4c-0.3-0.3-0.4-0.6-0.4-1.1c0-0.4,0.1-0.7,0.3-0.9c0.2-0.2,0.6-0.4,1.2-0.6L184.3,269.9z"/>
					<path id="XMLID_00000083071989773649979590000000879343170558832546_" class="st1" d="M206.4,277.9v3.2c0,1.9-0.5,3.7-1.6,5.4
						c-1.1,1.7-2.6,2.6-4.6,2.6c-1.2,0-2.1-0.3-2.9-0.8c-0.8-0.5-1.6-1.5-2.3-2.8c-0.7-1.4-1.1-2.8-1.1-4.4v-3.2
						c0-1.9,0.5-3.7,1.6-5.4c1.1-1.7,2.6-2.6,4.6-2.6c1.2,0,2.1,0.3,2.9,0.8c0.8,0.5,1.6,1.4,2.3,2.8
						C206,274.9,206.4,276.3,206.4,277.9z M203.5,277.9c0-1.6-0.4-2.9-1.3-4.1c-0.5-0.6-1.2-1-2.1-1c-0.9,0-1.6,0.4-2.1,1.1
						c-0.8,1.1-1.3,2.4-1.3,4v3.2c0,1.6,0.4,2.9,1.3,4.1c0.5,0.6,1.2,1,2.1,1c0.9,0,1.6-0.4,2.1-1.1c0.8-1.1,1.3-2.4,1.3-4V277.9z"
						/>
				</g>
				<g id="XMLID_00000078742841868263944960000001320898204015096215_">
					<path id="XMLID_00000088118889234831489900000003322069128537557421_" class="st1" d="M154.5,252.8v3.2c0,1.9-0.5,3.7-1.6,5.4
						c-1.1,1.7-2.6,2.6-4.6,2.6c-1.2,0-2.1-0.3-2.9-0.8c-0.8-0.5-1.6-1.5-2.3-2.8c-0.7-1.4-1.1-2.8-1.1-4.4v-3.2
						c0-1.9,0.5-3.7,1.6-5.4c1.1-1.7,2.6-2.6,4.6-2.6c1.2,0,2.1,0.3,2.9,0.8c0.8,0.5,1.6,1.4,2.3,2.8
						C154.2,249.8,154.5,251.3,154.5,252.8z M151.7,252.8c0-1.6-0.4-2.9-1.3-4.1c-0.5-0.6-1.2-1-2.1-1c-0.9,0-1.6,0.4-2.1,1.1
						c-0.8,1.1-1.3,2.4-1.3,4v3.2c0,1.6,0.4,2.9,1.3,4.1c0.5,0.6,1.2,1,2.1,1c0.9,0,1.6-0.4,2.1-1.1c0.8-1.1,1.3-2.4,1.3-4V252.8z"
						/>
					<path id="XMLID_00000140730034330846040110000002965350782195004306_" class="st1" d="M167,244.9v15.8h2.9
						c0.7,0,1.2,0.1,1.5,0.4c0.3,0.3,0.4,0.6,0.4,1c0,0.4-0.1,0.8-0.4,1c-0.3,0.3-0.8,0.4-1.5,0.4h-8.7c-0.7,0-1.2-0.1-1.5-0.4
						c-0.3-0.3-0.4-0.6-0.4-1c0-0.4,0.1-0.8,0.4-1c0.3-0.3,0.8-0.4,1.5-0.4h2.9v-12l-2.6,0.7c-0.4,0.1-0.7,0.2-0.9,0.2
						c-0.4,0-0.7-0.1-0.9-0.4c-0.3-0.3-0.4-0.6-0.4-1.1c0-0.4,0.1-0.7,0.3-0.9c0.2-0.2,0.6-0.4,1.2-0.6L167,244.9z"/>
					<path id="XMLID_00000062888303242020250380000003491004253208101799_" class="st1" d="M189.1,252.8v3.2c0,1.9-0.5,3.7-1.6,5.4
						c-1.1,1.7-2.6,2.6-4.6,2.6c-1.2,0-2.1-0.3-2.9-0.8c-0.8-0.5-1.6-1.5-2.3-2.8c-0.7-1.4-1.1-2.8-1.1-4.4v-3.2
						c0-1.9,0.5-3.7,1.6-5.4c1.1-1.7,2.6-2.6,4.6-2.6c1.2,0,2.1,0.3,2.9,0.8c0.8,0.5,1.6,1.4,2.3,2.8
						C188.7,249.8,189.1,251.3,189.1,252.8z M186.2,252.8c0-1.6-0.4-2.9-1.3-4.1c-0.5-0.6-1.2-1-2.1-1c-0.9,0-1.6,0.4-2.1,1.1
						c-0.8,1.1-1.3,2.4-1.3,4v3.2c0,1.6,0.4,2.9,1.3,4.1c0.5,0.6,1.2,1,2.1,1c0.9,0,1.6-0.4,2.1-1.1c0.8-1.1,1.3-2.4,1.3-4V252.8z"
						/>
					<path id="XMLID_00000062910799493921395270000005389366135181643149_" class="st1" d="M206.4,252.8v3.2c0,1.9-0.5,3.7-1.6,5.4
						c-1.1,1.7-2.6,2.6-4.6,2.6c-1.2,0-2.1-0.3-2.9-0.8c-0.8-0.5-1.6-1.5-2.3-2.8c-0.7-1.4-1.1-2.8-1.1-4.4v-3.2
						c0-1.9,0.5-3.7,1.6-5.4c1.1-1.7,2.6-2.6,4.6-2.6c1.2,0,2.1,0.3,2.9,0.8c0.8,0.5,1.6,1.4,2.3,2.8
						C206,249.8,206.4,251.3,206.4,252.8z M203.5,252.8c0-1.6-0.4-2.9-1.3-4.1c-0.5-0.6-1.2-1-2.1-1c-0.9,0-1.6,0.4-2.1,1.1
						c-0.8,1.1-1.3,2.4-1.3,4v3.2c0,1.6,0.4,2.9,1.3,4.1c0.5,0.6,1.2,1,2.1,1c0.9,0,1.6-0.4,2.1-1.1c0.8-1.1,1.3-2.4,1.3-4V252.8z"
						/>
				</g>
			</g>
			<g id="XMLID_00000026133109447213844100000006238648893061440128_">
				<g id="XMLID_00000158717904348138626390000013601490449912153758_">
					<path id="XMLID_00000127032299203867042960000014275998280934794162_" class="st1" d="M79.3,143.3v15.8h2.9
						c0.7,0,1.2,0.1,1.5,0.4c0.3,0.3,0.4,0.6,0.4,1c0,0.4-0.1,0.8-0.4,1c-0.3,0.3-0.8,0.4-1.5,0.4h-8.7c-0.7,0-1.2-0.1-1.5-0.4
						c-0.3-0.3-0.4-0.6-0.4-1c0-0.4,0.1-0.8,0.4-1c0.3-0.3,0.8-0.4,1.5-0.4h2.9v-12l-2.6,0.7c-0.4,0.1-0.7,0.2-0.9,0.2
						c-0.4,0-0.7-0.1-0.9-0.4c-0.3-0.3-0.4-0.6-0.4-1.1c0-0.4,0.1-0.7,0.3-0.9c0.2-0.2,0.6-0.4,1.2-0.6L79.3,143.3z"/>
					<path id="XMLID_00000162330706705750375420000007289210977242398873_" class="st1" d="M101.4,151.3v3.2c0,1.9-0.5,3.7-1.6,5.4
						c-1.1,1.7-2.6,2.6-4.6,2.6c-1.2,0-2.1-0.3-2.9-0.8c-0.8-0.5-1.6-1.5-2.3-2.8c-0.7-1.4-1.1-2.8-1.1-4.4v-3.2
						c0-1.9,0.5-3.7,1.6-5.4c1.1-1.7,2.6-2.6,4.6-2.6c1.2,0,2.1,0.3,2.9,0.8c0.8,0.5,1.6,1.4,2.3,2.8
						C101.1,148.3,101.4,149.7,101.4,151.3z M98.5,151.3c0-1.6-0.4-2.9-1.3-4.1c-0.5-0.6-1.2-1-2.1-1c-0.9,0-1.6,0.4-2.1,1.1
						c-0.8,1.1-1.3,2.4-1.3,4v3.2c0,1.6,0.4,2.9,1.3,4.1c0.5,0.6,1.2,1,2.1,1c0.9,0,1.6-0.4,2.1-1.1c0.8-1.1,1.3-2.4,1.3-4V151.3z"
						/>
					<path id="XMLID_00000127038567105346459840000002537046837458174853_" class="st1" d="M113.9,143.3v15.8h2.9
						c0.7,0,1.2,0.1,1.5,0.4c0.3,0.3,0.4,0.6,0.4,1c0,0.4-0.1,0.8-0.4,1c-0.3,0.3-0.8,0.4-1.5,0.4h-8.7c-0.7,0-1.2-0.1-1.5-0.4
						c-0.3-0.3-0.4-0.6-0.4-1c0-0.4,0.1-0.8,0.4-1c0.3-0.3,0.8-0.4,1.5-0.4h2.9v-12l-2.6,0.7c-0.4,0.1-0.7,0.2-0.9,0.2
						c-0.4,0-0.7-0.1-0.9-0.4c-0.3-0.3-0.4-0.6-0.4-1.1c0-0.4,0.1-0.7,0.3-0.9c0.2-0.2,0.6-0.4,1.2-0.6L113.9,143.3z"/>
					<path id="XMLID_00000065064385187926471120000014166433847098444418_" class="st1" d="M136,151.3v3.2c0,1.9-0.5,3.7-1.6,5.4
						c-1.1,1.7-2.6,2.6-4.6,2.6c-1.2,0-2.1-0.3-2.9-0.8c-0.8-0.5-1.6-1.5-2.3-2.8c-0.7-1.4-1.1-2.8-1.1-4.4v-3.2
						c0-1.9,0.5-3.7,1.6-5.4c1.1-1.7,2.6-2.6,4.6-2.6c1.2,0,2.1,0.3,2.9,0.8c0.8,0.5,1.6,1.4,2.3,2.8
						C135.6,148.3,136,149.7,136,151.3z M133.1,151.3c0-1.6-0.4-2.9-1.3-4.1c-0.5-0.6-1.2-1-2.1-1c-0.9,0-1.6,0.4-2.1,1.1
						c-0.8,1.1-1.3,2.4-1.3,4v3.2c0,1.6,0.4,2.9,1.3,4.1c0.5,0.6,1.2,1,2.1,1c0.9,0,1.6-0.4,2.1-1.1c0.8-1.1,1.3-2.4,1.3-4V151.3z"
						/>
				</g>
				<g id="XMLID_00000104695256559351598990000001467171740101341072_">
					<path id="XMLID_00000155107179858411395960000014125885792584839097_" class="st1" d="M84.1,201.7v3.2c0,1.9-0.5,3.7-1.6,5.4
						c-1.1,1.7-2.6,2.6-4.6,2.6c-1.2,0-2.1-0.3-2.9-0.8c-0.8-0.5-1.6-1.5-2.3-2.8c-0.7-1.4-1.1-2.8-1.1-4.4v-3.2
						c0-1.9,0.5-3.7,1.6-5.4c1.1-1.7,2.6-2.6,4.6-2.6c1.2,0,2.1,0.3,2.9,0.8c0.8,0.5,1.6,1.4,2.3,2.8
						C83.8,198.7,84.1,200.1,84.1,201.7z M81.3,201.7c0-1.6-0.4-2.9-1.3-4.1c-0.5-0.6-1.2-1-2.1-1c-0.9,0-1.6,0.4-2.1,1.1
						c-0.8,1.1-1.3,2.4-1.3,4v3.2c0,1.6,0.4,2.9,1.3,4.1c0.5,0.6,1.2,1,2.1,1c0.9,0,1.6-0.4,2.1-1.1c0.8-1.1,1.3-2.4,1.3-4V201.7z"
						/>
					<path id="XMLID_00000106132459241290866090000007591440302604211343_" class="st1" d="M96.6,193.7v15.8h2.9
						c0.7,0,1.2,0.1,1.5,0.4c0.3,0.3,0.4,0.6,0.4,1c0,0.4-0.1,0.8-0.4,1c-0.3,0.3-0.8,0.4-1.5,0.4h-8.7c-0.7,0-1.2-0.1-1.5-0.4
						c-0.3-0.3-0.4-0.6-0.4-1c0-0.4,0.1-0.8,0.4-1c0.3-0.3,0.8-0.4,1.5-0.4h2.9v-12l-2.6,0.7c-0.4,0.1-0.7,0.2-0.9,0.2
						c-0.4,0-0.7-0.1-0.9-0.4c-0.3-0.3-0.4-0.6-0.4-1.1c0-0.4,0.1-0.7,0.3-0.9c0.2-0.2,0.6-0.4,1.2-0.6L96.6,193.7z"/>
					<path id="XMLID_00000131369009914902532120000016274136943373266618_" class="st1" d="M113.9,193.7v15.8h2.9
						c0.7,0,1.2,0.1,1.5,0.4c0.3,0.3,0.4,0.6,0.4,1c0,0.4-0.1,0.8-0.4,1c-0.3,0.3-0.8,0.4-1.5,0.4h-8.7c-0.7,0-1.2-0.1-1.5-0.4
						c-0.3-0.3-0.4-0.6-0.4-1c0-0.4,0.1-0.8,0.4-1c0.3-0.3,0.8-0.4,1.5-0.4h2.9v-12l-2.6,0.7c-0.4,0.1-0.7,0.2-0.9,0.2
						c-0.4,0-0.7-0.1-0.9-0.4c-0.3-0.3-0.4-0.6-0.4-1.1c0-0.4,0.1-0.7,0.3-0.9c0.2-0.2,0.6-0.4,1.2-0.6L113.9,193.7z"/>
					<path id="XMLID_00000098927096551025735870000001597309610763391164_" class="st1" d="M136,201.7v3.2c0,1.9-0.5,3.7-1.6,5.4
						c-1.1,1.7-2.6,2.6-4.6,2.6c-1.2,0-2.1-0.3-2.9-0.8c-0.8-0.5-1.6-1.5-2.3-2.8c-0.7-1.4-1.1-2.8-1.1-4.4v-3.2
						c0-1.9,0.5-3.7,1.6-5.4c1.1-1.7,2.6-2.6,4.6-2.6c1.2,0,2.1,0.3,2.9,0.8c0.8,0.5,1.6,1.4,2.3,2.8
						C135.6,198.7,136,200.1,136,201.7z M133.1,201.7c0-1.6-0.4-2.9-1.3-4.1c-0.5-0.6-1.2-1-2.1-1c-0.9,0-1.6,0.4-2.1,1.1
						c-0.8,1.1-1.3,2.4-1.3,4v3.2c0,1.6,0.4,2.9,1.3,4.1c0.5,0.6,1.2,1,2.1,1c0.9,0,1.6-0.4,2.1-1.1c0.8-1.1,1.3-2.4,1.3-4V201.7z"
						/>
				</g>
				<g id="XMLID_00000075847663103785292640000007573297095245363389_">
					<path id="XMLID_00000010277322815579087890000017466289238336252584_" class="st1" d="M84.1,176.6v3.2c0,1.9-0.5,3.7-1.6,5.4
						c-1.1,1.7-2.6,2.6-4.6,2.6c-1.2,0-2.1-0.3-2.9-0.8c-0.8-0.5-1.6-1.5-2.3-2.8c-0.7-1.4-1.1-2.8-1.1-4.4v-3.2
						c0-1.9,0.5-3.7,1.6-5.4c1.1-1.7,2.6-2.6,4.6-2.6c1.2,0,2.1,0.3,2.9,0.8c0.8,0.5,1.6,1.4,2.3,2.8
						C83.8,173.6,84.1,175.1,84.1,176.6z M81.3,176.6c0-1.6-0.4-2.9-1.3-4.1c-0.5-0.6-1.2-1-2.1-1c-0.9,0-1.6,0.4-2.1,1.1
						c-0.8,1.1-1.3,2.4-1.3,4v3.2c0,1.6,0.4,2.9,1.3,4.1c0.5,0.6,1.2,1,2.1,1c0.9,0,1.6-0.4,2.1-1.1c0.8-1.1,1.3-2.4,1.3-4V176.6z"
						/>
					<path id="XMLID_00000032607784687200712230000000957071678374711455_" class="st1" d="M96.6,168.6v15.8h2.9
						c0.7,0,1.2,0.1,1.5,0.4c0.3,0.3,0.4,0.6,0.4,1c0,0.4-0.1,0.8-0.4,1c-0.3,0.3-0.8,0.4-1.5,0.4h-8.7c-0.7,0-1.2-0.1-1.5-0.4
						c-0.3-0.3-0.4-0.6-0.4-1c0-0.4,0.1-0.8,0.4-1c0.3-0.3,0.8-0.4,1.5-0.4h2.9v-12l-2.6,0.7c-0.4,0.1-0.7,0.2-0.9,0.2
						c-0.4,0-0.7-0.1-0.9-0.4c-0.3-0.3-0.4-0.6-0.4-1.1c0-0.4,0.1-0.7,0.3-0.9c0.2-0.2,0.6-0.4,1.2-0.6L96.6,168.6z"/>
					<path id="XMLID_00000158715120669952512140000009787080723241226895_" class="st1" d="M118.7,176.6v3.2c0,1.9-0.5,3.7-1.6,5.4
						c-1.1,1.7-2.6,2.6-4.6,2.6c-1.2,0-2.1-0.3-2.9-0.8c-0.8-0.5-1.6-1.5-2.3-2.8c-0.7-1.4-1.1-2.8-1.1-4.4v-3.2
						c0-1.9,0.5-3.7,1.6-5.4c1.1-1.7,2.6-2.6,4.6-2.6c1.2,0,2.1,0.3,2.9,0.8c0.8,0.5,1.6,1.4,2.3,2.8
						C118.3,173.6,118.7,175.1,118.7,176.6z M115.8,176.6c0-1.6-0.4-2.9-1.3-4.1c-0.5-0.6-1.2-1-2.1-1c-0.9,0-1.6,0.4-2.1,1.1
						c-0.8,1.1-1.3,2.4-1.3,4v3.2c0,1.6,0.4,2.9,1.3,4.1c0.5,0.6,1.2,1,2.1,1c0.9,0,1.6-0.4,2.1-1.1c0.8-1.1,1.3-2.4,1.3-4V176.6z"
						/>
					<path id="XMLID_00000126320215213461220880000010907913380670748296_" class="st1" d="M136,176.6v3.2c0,1.9-0.5,3.7-1.6,5.4
						c-1.1,1.7-2.6,2.6-4.6,2.6c-1.2,0-2.1-0.3-2.9-0.8c-0.8-0.5-1.6-1.5-2.3-2.8c-0.7-1.4-1.1-2.8-1.1-4.4v-3.2
						c0-1.9,0.5-3.7,1.6-5.4c1.1-1.7,2.6-2.6,4.6-2.6c1.2,0,2.1,0.3,2.9,0.8c0.8,0.5,1.6,1.4,2.3,2.8
						C135.6,173.6,136,175.1,136,176.6z M133.1,176.6c0-1.6-0.4-2.9-1.3-4.1c-0.5-0.6-1.2-1-2.1-1c-0.9,0-1.6,0.4-2.1,1.1
						c-0.8,1.1-1.3,2.4-1.3,4v3.2c0,1.6,0.4,2.9,1.3,4.1c0.5,0.6,1.2,1,2.1,1c0.9,0,1.6-0.4,2.1-1.1c0.8-1.1,1.3-2.4,1.3-4V176.6z"
						/>
				</g>
			</g>
			<g id="XMLID_00000060025865361728324470000016371132248259730343_">
				<g id="XMLID_00000079475754092602599440000006667715062946755003_">
					<path id="XMLID_00000145038076057207145590000014536094630422716345_" class="st1" d="M149.7,143.3v15.8h2.9
						c0.7,0,1.2,0.1,1.5,0.4c0.3,0.3,0.4,0.6,0.4,1c0,0.4-0.1,0.8-0.4,1c-0.3,0.3-0.8,0.4-1.5,0.4H144c-0.7,0-1.2-0.1-1.5-0.4
						c-0.3-0.3-0.4-0.6-0.4-1c0-0.4,0.1-0.8,0.4-1c0.3-0.3,0.8-0.4,1.5-0.4h2.9v-12l-2.6,0.7c-0.4,0.1-0.7,0.2-0.9,0.2
						c-0.4,0-0.7-0.1-0.9-0.4c-0.3-0.3-0.4-0.6-0.4-1.1c0-0.4,0.1-0.7,0.3-0.9c0.2-0.2,0.6-0.4,1.2-0.6L149.7,143.3z"/>
					<path id="XMLID_00000021079096555849659740000008132673227428568486_" class="st1" d="M171.8,151.3v3.2c0,1.9-0.5,3.7-1.6,5.4
						c-1.1,1.7-2.6,2.6-4.6,2.6c-1.2,0-2.1-0.3-2.9-0.8c-0.8-0.5-1.6-1.5-2.3-2.8c-0.7-1.4-1.1-2.8-1.1-4.4v-3.2
						c0-1.9,0.5-3.7,1.6-5.4s2.6-2.6,4.6-2.6c1.2,0,2.1,0.3,2.9,0.8c0.8,0.5,1.6,1.4,2.3,2.8C171.5,148.3,171.8,149.7,171.8,151.3z
						 M168.9,151.3c0-1.6-0.4-2.9-1.3-4.1c-0.5-0.6-1.2-1-2.1-1c-0.9,0-1.6,0.4-2.1,1.1c-0.8,1.1-1.3,2.4-1.3,4v3.2
						c0,1.6,0.4,2.9,1.3,4.1c0.5,0.6,1.2,1,2.1,1c0.9,0,1.6-0.4,2.1-1.1c0.8-1.1,1.3-2.4,1.3-4V151.3z"/>
					<path id="XMLID_00000164478171856631539780000015959354414612233364_" class="st1" d="M184.3,143.3v15.8h2.9
						c0.7,0,1.2,0.1,1.5,0.4c0.3,0.3,0.4,0.6,0.4,1c0,0.4-0.1,0.8-0.4,1c-0.3,0.3-0.8,0.4-1.5,0.4h-8.7c-0.7,0-1.2-0.1-1.5-0.4
						c-0.3-0.3-0.4-0.6-0.4-1c0-0.4,0.1-0.8,0.4-1c0.3-0.3,0.8-0.4,1.5-0.4h2.9v-12l-2.6,0.7c-0.4,0.1-0.7,0.2-0.9,0.2
						c-0.4,0-0.7-0.1-0.9-0.4c-0.3-0.3-0.4-0.6-0.4-1.1c0-0.4,0.1-0.7,0.3-0.9c0.2-0.2,0.6-0.4,1.2-0.6L184.3,143.3z"/>
					<path id="XMLID_00000181803219415671346200000015024755922396156032_" class="st1" d="M206.4,151.3v3.2c0,1.9-0.5,3.7-1.6,5.4
						c-1.1,1.7-2.6,2.6-4.6,2.6c-1.2,0-2.1-0.3-2.9-0.8c-0.8-0.5-1.6-1.5-2.3-2.8c-0.7-1.4-1.1-2.8-1.1-4.4v-3.2
						c0-1.9,0.5-3.7,1.6-5.4c1.1-1.7,2.6-2.6,4.6-2.6c1.2,0,2.1,0.3,2.9,0.8c0.8,0.5,1.6,1.4,2.3,2.8
						C206,148.3,206.4,149.7,206.4,151.3z M203.5,151.3c0-1.6-0.4-2.9-1.3-4.1c-0.5-0.6-1.2-1-2.1-1c-0.9,0-1.6,0.4-2.1,1.1
						c-0.8,1.1-1.3,2.4-1.3,4v3.2c0,1.6,0.4,2.9,1.3,4.1c0.5,0.6,1.2,1,2.1,1c0.9,0,1.6-0.4,2.1-1.1c0.8-1.1,1.3-2.4,1.3-4V151.3z"
						/>
				</g>
				<g id="XMLID_00000067925888472934139450000001518736274021371036_">
					<path id="XMLID_00000107590183546708322510000009708190686548317595_" class="st1" d="M154.6,201.7v3.2c0,1.9-0.5,3.7-1.6,5.4
						c-1.1,1.7-2.6,2.6-4.6,2.6c-1.2,0-2.1-0.3-2.9-0.8c-0.8-0.5-1.6-1.5-2.3-2.8c-0.7-1.4-1.1-2.8-1.1-4.4v-3.2
						c0-1.9,0.5-3.7,1.6-5.4c1.1-1.7,2.6-2.6,4.6-2.6c1.2,0,2.1,0.3,2.9,0.8c0.8,0.5,1.6,1.4,2.3,2.8
						C154.2,198.7,154.6,200.1,154.6,201.7z M151.7,201.7c0-1.6-0.4-2.9-1.3-4.1c-0.5-0.6-1.2-1-2.1-1c-0.9,0-1.6,0.4-2.1,1.1
						c-0.8,1.1-1.3,2.4-1.3,4v3.2c0,1.6,0.4,2.9,1.3,4.1c0.5,0.6,1.2,1,2.1,1c0.9,0,1.6-0.4,2.1-1.1c0.8-1.1,1.3-2.4,1.3-4V201.7z"
						/>
					<path id="XMLID_00000175289174551388881760000003388718956578513854_" class="st1" d="M167,193.7v15.8h2.9
						c0.7,0,1.2,0.1,1.5,0.4c0.3,0.3,0.4,0.6,0.4,1c0,0.4-0.1,0.8-0.4,1c-0.3,0.3-0.8,0.4-1.5,0.4h-8.7c-0.7,0-1.2-0.1-1.5-0.4
						c-0.3-0.3-0.4-0.6-0.4-1c0-0.4,0.1-0.8,0.4-1c0.3-0.3,0.8-0.4,1.5-0.4h2.9v-12l-2.6,0.7c-0.4,0.1-0.7,0.2-0.9,0.2
						c-0.4,0-0.7-0.1-0.9-0.4c-0.3-0.3-0.4-0.6-0.4-1.1c0-0.4,0.1-0.7,0.3-0.9c0.2-0.2,0.6-0.4,1.2-0.6L167,193.7z"/>
					<path id="XMLID_00000142139053557725034040000007415325725979120303_" class="st1" d="M184.3,193.7v15.8h2.9
						c0.7,0,1.2,0.1,1.5,0.4c0.3,0.3,0.4,0.6,0.4,1c0,0.4-0.1,0.8-0.4,1c-0.3,0.3-0.8,0.4-1.5,0.4h-8.7c-0.7,0-1.2-0.1-1.5-0.4
						c-0.3-0.3-0.4-0.6-0.4-1c0-0.4,0.1-0.8,0.4-1c0.3-0.3,0.8-0.4,1.5-0.4h2.9v-12l-2.6,0.7c-0.4,0.1-0.7,0.2-0.9,0.2
						c-0.4,0-0.7-0.1-0.9-0.4c-0.3-0.3-0.4-0.6-0.4-1.1c0-0.4,0.1-0.7,0.3-0.9c0.2-0.2,0.6-0.4,1.2-0.6L184.3,193.7z"/>
					<path id="XMLID_00000052104370107562793690000014852615237681577610_" class="st1" d="M206.4,201.7v3.2c0,1.9-0.5,3.7-1.6,5.4
						c-1.1,1.7-2.6,2.6-4.6,2.6c-1.2,0-2.1-0.3-2.9-0.8c-0.8-0.5-1.6-1.5-2.3-2.8c-0.7-1.4-1.1-2.8-1.1-4.4v-3.2
						c0-1.9,0.5-3.7,1.6-5.4c1.1-1.7,2.6-2.6,4.6-2.6c1.2,0,2.1,0.3,2.9,0.8c0.8,0.5,1.6,1.4,2.3,2.8
						C206,198.7,206.4,200.1,206.4,201.7z M203.5,201.7c0-1.6-0.4-2.9-1.3-4.1c-0.5-0.6-1.2-1-2.1-1c-0.9,0-1.6,0.4-2.1,1.1
						c-0.8,1.1-1.3,2.4-1.3,4v3.2c0,1.6,0.4,2.9,1.3,4.1c0.5,0.6,1.2,1,2.1,1c0.9,0,1.6-0.4,2.1-1.1c0.8-1.1,1.3-2.4,1.3-4V201.7z"
						/>
				</g>
				<g id="XMLID_00000025423821873634816400000001647968597437118862_">
					<path id="XMLID_00000058566438511079020720000004890783611287874989_" class="st1" d="M154.6,176.6v3.2c0,1.9-0.5,3.7-1.6,5.4
						c-1.1,1.7-2.6,2.6-4.6,2.6c-1.2,0-2.1-0.3-2.9-0.8c-0.8-0.5-1.6-1.5-2.3-2.8c-0.7-1.4-1.1-2.8-1.1-4.4v-3.2
						c0-1.9,0.5-3.7,1.6-5.4s2.6-2.6,4.6-2.6c1.2,0,2.1,0.3,2.9,0.8c0.8,0.5,1.6,1.4,2.3,2.8C154.2,173.6,154.6,175.1,154.6,176.6z
						 M151.7,176.6c0-1.6-0.4-2.9-1.3-4.1c-0.5-0.6-1.2-1-2.1-1c-0.9,0-1.6,0.4-2.1,1.1c-0.8,1.1-1.3,2.4-1.3,4v3.2
						c0,1.6,0.4,2.9,1.3,4.1c0.5,0.6,1.2,1,2.1,1c0.9,0,1.6-0.4,2.1-1.1c0.8-1.1,1.3-2.4,1.3-4V176.6z"/>
					<path id="XMLID_00000092430955368595245960000009958083709846146469_" class="st1" d="M167,168.6v15.8h2.9
						c0.7,0,1.2,0.1,1.5,0.4c0.3,0.3,0.4,0.6,0.4,1c0,0.4-0.1,0.8-0.4,1c-0.3,0.3-0.8,0.4-1.5,0.4h-8.7c-0.7,0-1.2-0.1-1.5-0.4
						c-0.3-0.3-0.4-0.6-0.4-1c0-0.4,0.1-0.8,0.4-1c0.3-0.3,0.8-0.4,1.5-0.4h2.9v-12l-2.6,0.7c-0.4,0.1-0.7,0.2-0.9,0.2
						c-0.4,0-0.7-0.1-0.9-0.4c-0.3-0.3-0.4-0.6-0.4-1.1c0-0.4,0.1-0.7,0.3-0.9c0.2-0.2,0.6-0.4,1.2-0.6L167,168.6z"/>
					<path id="XMLID_00000029014586167043879950000004432513465089142447_" class="st1" d="M189.1,176.6v3.2c0,1.9-0.5,3.7-1.6,5.4
						c-1.1,1.7-2.6,2.6-4.6,2.6c-1.2,0-2.1-0.3-2.9-0.8c-0.8-0.5-1.6-1.5-2.3-2.8c-0.7-1.4-1.1-2.8-1.1-4.4v-3.2
						c0-1.9,0.5-3.7,1.6-5.4c1.1-1.7,2.6-2.6,4.6-2.6c1.2,0,2.1,0.3,2.9,0.8c0.8,0.5,1.6,1.4,2.3,2.8
						C188.7,173.6,189.1,175.1,189.1,176.6z M186.2,176.6c0-1.6-0.4-2.9-1.3-4.1c-0.5-0.6-1.2-1-2.1-1c-0.9,0-1.6,0.4-2.1,1.1
						c-0.8,1.1-1.3,2.4-1.3,4v3.2c0,1.6,0.4,2.9,1.3,4.1c0.5,0.6,1.2,1,2.1,1c0.9,0,1.6-0.4,2.1-1.1c0.8-1.1,1.3-2.4,1.3-4V176.6z"
						/>
					<path id="XMLID_00000031902369472689387040000018029376307094975110_" class="st1" d="M206.4,176.6v3.2c0,1.9-0.5,3.7-1.6,5.4
						c-1.1,1.7-2.6,2.6-4.6,2.6c-1.2,0-2.1-0.3-2.9-0.8c-0.8-0.5-1.6-1.5-2.3-2.8c-0.7-1.4-1.1-2.8-1.1-4.4v-3.2
						c0-1.9,0.5-3.7,1.6-5.4c1.1-1.7,2.6-2.6,4.6-2.6c1.2,0,2.1,0.3,2.9,0.8c0.8,0.5,1.6,1.4,2.3,2.8
						C206,173.6,206.4,175.1,206.4,176.6z M203.5,176.6c0-1.6-0.4-2.9-1.3-4.1c-0.5-0.6-1.2-1-2.1-1c-0.9,0-1.6,0.4-2.1,1.1
						c-0.8,1.1-1.3,2.4-1.3,4v3.2c0,1.6,0.4,2.9,1.3,4.1c0.5,0.6,1.2,1,2.1,1c0.9,0,1.6-0.4,2.1-1.1c0.8-1.1,1.3-2.4,1.3-4V176.6z"
						/>
				</g>
			</g>
		</g>
	</g>
	<path class="st2" d="M188,364.2c0,0,2.8,46.8,2.8,49.1c0,2.3,2.2,55.5,2.2,55.5h-18.7"/>
	<polyline class="st2" points="230.7,364.2 227.7,416.5 225.7,468.7 243.4,468.7 	"/>
	<path class="st3" d="M280.1,276.8H132.8c-6.6,0-12-5.4-12-12v-14.3c0-6.6,5.4-12,12-12h147.3c6.6,0,12,5.4,12,12v14.3
		C292.1,271.4,286.7,276.8,280.1,276.8z"/>
	<g>
		<ellipse class="st4" cx="208" cy="367" rx="63" ry="27.2"/>
		<ellipse class="st5" cx="207.4" cy="131.9" rx="75.3" ry="29.9"/>
		<path class="st6" d="M132.1,131.9c0,16.5,33.7,29.9,75.3,29.9s75.3-13.4,75.3-29.9c0,0,0.4,216.6,0,221.3
			c-1.5,16.4-33.7,29.9-75.3,29.9s-75.3-13.4-75.3-29.9V131.9z"/>
		<path class="st7" d="M145,351.1V184.3l0-35.7c2.4,1.4,5,2.7,7.9,3.9l0,15v190l0,16.3c-2.9-1.2-5.5-2.5-7.9-3.9L145,351.1z"/>
		<path class="st7" d="M179.7,336.8V166.8l0-7.1c-2.7-0.4-5.4-0.9-7.9-1.5l0,6.4v171.8l0,43.1c2.6,0.5,5.2,1,7.9,1.5L179.7,336.8z"
			/>
		<path class="st7" d="M214.3,379V169l0-7.2c-2.3,0.1-4.6,0.1-7,0.1c-0.3,0-0.6,0-0.9,0v7.1V379v4.3c0.3,0,0.6,0,0.9,0
			c2.4,0,4.7,0,7-0.1V379z"/>
		<polygon class="st7" points="235.4,381 235.4,159.7 243.3,158.2 243.3,379.4 		"/>
		<path class="st7" d="M263.1,354.5V373c2.4-1.1,6.3-3.3,7.9-4.3l0-14.2V169.2l0-21.2c-2.3,1.4-5,2.7-7.9,4.1"/>
	</g>
	<path class="st3" d="M129.5,298.7v55c0,16.5,35.2,29.9,78.6,29.9s77-13.5,78.6-29.9c0.2-1.5,0.2-25.9,0.2-57.9l-0.2-37.8
		c0,16.5-35.2,29.9-78.6,29.9s-78.6-13.4-78.6-29.9V298.7z"/>
	<path id="XMLID_00000129894036919783860810000004584167298875946420_" class="st8" d="M244.7,233.2"/>
	<path id="XMLID_00000157310122677991580930000012677343218755792042_" class="st8" d="M257.5,251.3"/>
	<g>
		<path class="st9" d="M152,182.9c-0.4,0-0.8-0.1-1.2-0.2c-1.8-0.7-2.7-2.6-2.1-4.4c3-8.2,12.8-16.4,25.9-16.4c0.1,0,0.3,0,0.4,0
			c1.9,0,3.4,1.6,3.4,3.5c0,1.9-1.6,3.5-3.5,3.4c-0.1,0-0.2,0-0.3,0c-11,0-17.7,7.2-19.4,11.8C154.8,182,153.5,182.9,152,182.9z"/>
	</g>
	<g>
		<path class="st9" d="M263.1,182.9c-1.4,0-2.7-0.9-3.3-2.3c-1.7-4.7-8.5-12-19.7-11.8c-1.9,0.1-3.5-1.5-3.5-3.4
			c0-1.9,1.5-3.5,3.4-3.5c0.1,0,0.3,0,0.4,0c13.1,0,22.9,8.2,25.9,16.4c0.7,1.8-0.3,3.8-2.1,4.4
			C263.9,182.8,263.5,182.9,263.1,182.9z"/>
	</g>
	<g>
		<path class="st10" d="M168.7,238.8c0,0.2,0,0.4,0,0.7c0,17.4,17.8,31.5,39.9,31.5s39.9-14.1,39.9-31.5c0-0.2,0-0.4,0-0.7H168.7z"
			/>
		<path class="st11" d="M168.7,238.6c0,0.2,0,0.6,0,0.8c0,3.8,0.8,7.4,2.4,10.8h75.1c1.5-3.4,2.4-7,2.4-10.8c0-0.2,0-0.6,0-0.8
			H168.7z"/>
		<path class="st8" d="M208.6,270.9c9.4,0,18.1-2.6,24.9-6.9c-1.4-1.4-3-2.7-4.8-3.9c-8.1-5.5-17.4-6.4-22.9-2.8
			c-7.8-2.7-15.4-1.6-18.8,3.5c-0.9,1.3-1.4,2.7-1.6,4.3C192,268.8,200,270.9,208.6,270.9z"/>
	</g>
	<circle class="st11" cx="177.7" cy="204.4" r="20"/>
	<path class="st10" d="M184.9,204.4c0,4-3.2,7.2-7.2,7.2c-4,0-7.2-3.2-7.2-7.2c0-4,3.2-7.2,7.2-7.2
		C181.7,197.2,184.9,200.4,184.9,204.4z"/>
	<path class="st2" d="M134.7,287.2"/>
	<path class="st2" d="M134.5,378.3"/>
	<circle class="st11" cx="235.5" cy="204.4" r="20"/>
	<path class="st10" d="M242.7,204.4c0,4-3.2,7.2-7.2,7.2c-4,0-7.2-3.2-7.2-7.2c0-4,3.2-7.2,7.2-7.2
		C239.5,197.2,242.7,200.4,242.7,204.4z"/>
	<g>
		<g id="mask_00000053522193551587069450000006291125416130928017_">
			<g>
				<linearGradient id="SVGID_1_" gradientUnits="userSpaceOnUse" x1="236.5357" y1="228.5553" x2="236.5357" y2="179.7239">
					<stop  offset="0.3618" style="stop-color:#FFFFFF"/>
					<stop  offset="0.4151" style="stop-color:#F5F9FC"/>
					<stop  offset="0.5063" style="stop-color:#DAE8F4"/>
					<stop  offset="0.624" style="stop-color:#AECDE6"/>
					<stop  offset="0.7639" style="stop-color:#70A7D4"/>
					<stop  offset="0.9207" style="stop-color:#2378BD"/>
					<stop  offset="0.9878" style="stop-color:#0062B2"/>
				</linearGradient>
				<circle class="st12" cx="236.5" cy="204.1" r="24.4"/>
				
					<linearGradient id="SVGID_00000083048284914785170420000013336933759579819192_" gradientUnits="userSpaceOnUse" x1="177.3991" y1="228.5553" x2="177.3991" y2="179.7239">
					<stop  offset="0.3618" style="stop-color:#FFFFFF"/>
					<stop  offset="0.4151" style="stop-color:#F5F9FC"/>
					<stop  offset="0.5063" style="stop-color:#DAE8F4"/>
					<stop  offset="0.624" style="stop-color:#AECDE6"/>
					<stop  offset="0.7639" style="stop-color:#70A7D4"/>
					<stop  offset="0.9207" style="stop-color:#2378BD"/>
					<stop  offset="0.9878" style="stop-color:#0062B2"/>
				</linearGradient>
				
					<circle style="opacity:0.2;fill:url(#SVGID_00000083048284914785170420000013336933759579819192_);" cx="177.4" cy="204.1" r="24.4"/>
				<polygon class="st14" points="152,204.6 132.1,195.3 132.1,191 153.4,201.6 				"/>
				<polygon class="st14" points="261.9,204.6 282.8,195.2 282.8,191.7 260.5,201.6 				"/>
				<path class="st14" d="M151.4,204.4c0,14.4,11.7,26.1,26.1,26.1c12.8,0,23.6-9.2,25.7-21.8l0.1-0.8h7.5l0.1,0.8
					c2.1,12.6,12.9,21.8,25.7,21.8c14.4,0,26.1-11.7,26.1-26.1c0-14.4-11.7-26.1-26.1-26.1c-14.1,0-25.6,11.1-26,25.2l0,0.9h-7.1
					l0-0.9c-0.5-14.1-11.9-25.2-26-25.2C163,178.3,151.4,190,151.4,204.4z M220.7,188.4c4.3-4.3,9.9-6.6,15.9-6.6
					c6,0,11.7,2.3,15.9,6.6c4.3,4.3,6.6,9.9,6.6,15.9c0,6-2.3,11.7-6.6,15.9l0,0c-4.3,4.3-9.9,6.6-15.9,6.6c-6,0-11.7-2.3-15.9-6.6
					c-4.3-4.3-6.6-9.9-6.6-15.9C214.1,198.3,216.4,192.7,220.7,188.4z M177.4,181.8c6,0,11.7,2.3,16,6.6c4.3,4.3,6.6,9.9,6.6,15.9
					c0,6-2.3,11.7-6.6,15.9l0,0c-4.3,4.3-9.9,6.6-16,6.6c-6,0-11.7-2.3-15.9-6.6c-4.3-4.3-6.6-9.9-6.6-15.9c0-6,2.3-11.7,6.6-15.9
					C165.7,184.2,171.4,181.8,177.4,181.8z"/>
				<path class="st15" d="M219.2,193.5c3.5-5.3,7.1-6.8,7.1-6.8l2.8,2.1c0,0-3.4,2.3-5.7,6.3c-2.3,3.8-2.6,7-2.6,7l-4.6-0.9
					C216.2,201.2,216.5,197.6,219.2,193.5z"/>
				<path class="st16" d="M160.1,193.5c3.5-5.3,7-6.8,7-6.8l2.9,2.1c0,0-3.4,2.3-5.7,6.3c-2.3,3.8-2.6,7-2.6,7l-4.6-0.9
					C157.1,201.2,157.3,197.6,160.1,193.5z"/>
			</g>
		</g>
	</g>
	<g>
		<path class="st2" d="M133.1,283.8L133.1,283.8c0,0-29.5,20.6-23.4,34.2"/>
	</g>
	<g>
		<g>
			<path class="st17" d="M67.6,337.4C67.6,337.4,67.6,337.4,67.6,337.4L67.6,337.4C67.6,337.4,67.6,337.4,67.6,337.4 M67.5,336.6
				c0,0.1,0,0.2,0,0.4C67.5,336.8,67.5,336.7,67.5,336.6"/>
			<path class="st18" d="M15.4,284.3c-0.9-1.3-1.4-4.1,3.8-5.3C25,277.8,16.1,285.3,15.4,284.3z"/>
			<polyline class="st19" points="131.2,318.8 167.8,307.5 64.3,329.1 131.2,318.8 			"/>
			<path class="st18" d="M169,311.6l-38,10.9c-0.8,0.2-1.7-0.2-2-1.1l-0.3-1c-0.2-0.8,0.2-1.7,1.1-2l38-10.9c0.8-0.2,1.7,0.2,2,1.1
				l0.3,1C170.3,310.5,169.8,311.4,169,311.6z"/>
			<path class="st20" d="M129,321.5L129,321.5c0.2,0.8,1.2,1.2,2.3,0.9l37.4-10.8c1-0.3,1.6-1.2,1.4-2l0,0L129,321.5z"/>
			<polyline class="st21" points="131.9,314.5 132.5,315.4 132.7,315.7 167.8,307.5 131.9,314.5 			"/>
			<path class="st22" d="M133.4,316.8c0,0,2,3.3-2.5,5.7C127.3,324.4,130.6,317.6,133.4,316.8z"/>
			<path class="st18" d="M131.4,320.8L55.8,337c-1.2,0.2-2.3-0.2-3-1.2l-35.4-52.4c-1.1-1.7-0.2-4,1.8-4.4l75.6-16.3
				c1.2-0.2,2.3,0.2,3,1.2l35.4,52.4C134.3,318,133.4,320.3,131.4,320.8"/>
			<path class="st23" d="M130.1,322.8l-75.6,16.3c-1.2,0.2-2.3-0.2-3-1.2l-36.1-53.4c-0.8-1.2-0.1-2.8,1.3-3.1l76.8-16.6
				c1.2-0.2,2.3,0.2,3,1.2l35.4,52.4C133.1,320,132.1,322.4,130.1,322.8"/>
			<polyline class="st24" points="109.5,285.1 111.1,287.5 109.5,285.1 			"/>
			<path class="st25" d="M70.1,317.6"/>
			<polyline class="st26" points="95.5,330.2 95.5,330.2 95.6,330.2 95.6,330.2 95.5,330.2 			"/>
			<g>
				<polygon class="st18" points="70.7,297.6 70.5,301.4 71.6,301.6 71.7,300.2 75.6,304.4 75.8,300.6 74.7,300.3 74.6,301.7 				
					"/>
				<path class="st18" d="M77.7,297c-0.8-0.6-1.6-1.1-2.5-1.5c-0.9-0.4-1.9-0.6-2.8-0.7c-1-0.1-1.9,0-2.8,0.3
					c-0.9,0.2-1.6,0.6-2.2,1.2c-0.6,0.5-1,1.1-1.2,1.8c-0.2,0.7-0.3,1.5-0.2,2.2c0.1,0.8,0.4,1.6,0.9,2.4s1.1,1.5,1.9,2.1
					c0.8,0.6,1.6,1.1,2.5,1.5c0.9,0.4,1.9,0.6,2.8,0.7c1,0.1,1.9,0,2.8-0.3c0.9-0.2,1.6-0.6,2.2-1.2c0.6-0.5,1-1.1,1.2-1.8
					c0.2-0.7,0.3-1.5,0.2-2.2c-0.1-0.8-0.4-1.6-0.9-2.4S78.4,297.6,77.7,297z M76.3,306l-3.9-4.2l0,0.6l-2.7-0.6L70,296l3.9,4.2
					l0-0.6l2.6,0.6L76.3,306z"/>
			</g>
		</g>
		<line class="st2" x1="94.7" y1="329.8" x2="81.9" y2="332.3"/>
		<line class="st2" x1="88.7" y1="330.4" x2="86.2" y2="326.7"/>
		<line class="st2" x1="81.9" y1="332.3" x2="79.5" y2="328.7"/>
		<line class="st2" x1="95.4" y1="329.6" x2="92.9" y2="325.9"/>
	</g>
	<g>
		<path class="st2" d="M323.1,325.6L323.1,325.6c0,0-25.4,1.8-32.2-11.5c-10.1-19.7-10.1-30.2-10.1-30.2"/>
	</g>
	<line class="st2" x1="327.8" y1="327.3" x2="319.4" y2="327.5"/>
	<line class="st2" x1="328" y1="321.3" x2="319.6" y2="321.5"/>
	<line class="st2" x1="318.8" y1="311.1" x2="318.2" y2="330.8"/>
	<line class="st2" x1="327.8" y1="330.9" x2="319.4" y2="331.1"/>
	
		<radialGradient id="SVGID_00000073713762540716771730000017927690484618110853_" cx="207.9456" cy="159.0711" r="39.3788" gradientTransform="matrix(1.028679e-13 -1 1.8566 1.909891e-13 -87.3929 367.0167)" gradientUnits="userSpaceOnUse">
		<stop  offset="0" style="stop-color:#FF8C1F"/>
		<stop  offset="1" style="stop-color:#FEAF06"/>
	</radialGradient>
	<path style="fill:url(#SVGID_00000073713762540716771730000017927690484618110853_);" d="M262.3,152.3
		c-1.8-37.4-105.4-36-108.7,0.5C180.9,165,235.2,164.7,262.3,152.3z"/>
	<g>
		<path class="st11" d="M239.4,322.2c0-1.2-0.2-2.2-0.8-3.1c-0.5-0.9-1.2-1.6-2.2-2.2c-8.3-4.8-16.5-9.5-24.8-14.3
			c-2.2-1.3-4.4-1.2-6.6,0.1c-3.3,1.9-19.8,11.4-24.7,14.2c-2,1.2-3,3-3,5.3V351c0,1.1,0.2,2.2,0.7,3c0.5,0.9,1.3,1.7,2.3,2.3
			c4.9,2.9,21.4,12.3,24.7,14.2c2.2,1.3,4.4,1.4,6.6,0.1c8.3-4.8,16.5-9.5,24.8-14.3c1-0.6,1.8-1.3,2.3-2.3c0.5-0.9,0.7-1.9,0.7-3
			V322.2z"/>
		<g>
			<path class="st3" d="M217.3,341.6c-1.8,3.1-5.1,5.2-9,5.2c-3.8,0-7.2-2.1-8.9-5.2c-0.9-1.5-1.4-3.2-1.4-5.1
				c0-5.7,4.6-10.3,10.3-10.3c3.8,0,7.1,2.1,8.9,5.1l9-5.2c-3.6-6.2-10.2-10.3-17.9-10.3c-11.4,0-20.6,9.2-20.6,20.6
				c0,3.7,1,7.2,2.7,10.3c3.6,6.2,10.3,10.3,17.9,10.3c7.7,0,14.4-4.2,17.9-10.4L217.3,341.6z"/>
		</g>
	</g>
</g>
<g>
	<path class="st3" d="M221.7,338.5h-1.9c0-0.2,0-0.4,0-0.6c0-0.1,0-0.2,0-0.3c0-0.1,0-0.2,0-0.3h2l0.2-2.6h-1.9
		c0-0.2-0.1-0.4-0.1-0.6c0-0.2,0-0.4,0.1-0.6h2l0.2-2.5c0.1,0,0.2,0,0.4,0c0.1,0,0.2,0,0.4,0c0.1,0,0.2,0,0.3,0s0.2,0,0.3,0
		l-0.2,2.5h2.7l0.2-2.5c0.1,0,0.2,0,0.4,0c0.1,0,0.2,0,0.4,0c0.1,0,0.2,0,0.3,0c0.1,0,0.2,0,0.3,0l-0.2,2.5h1.8c0,0.2,0,0.4,0,0.6
		c0,0.2,0,0.5,0,0.7h-1.9l-0.2,2.6h1.8c0,0.1,0,0.2,0,0.3c0,0.1,0,0.2,0,0.3c0,0.1,0,0.2,0,0.3c0,0.1,0,0.2,0,0.3h-1.9l-0.2,2.8
		c-0.2,0-0.5,0-0.7,0c-0.2,0-0.5,0-0.7,0l0.2-2.8h-2.7l-0.2,2.8c-0.3,0-0.5,0-0.7,0c-0.2,0-0.5,0-0.7,0L221.7,338.5z M225.9,337.3
		l0.2-2.6h-2.7l-0.2,2.6H225.9z"/>
</g>
</svg>
