<svg id="Layer_1" data-name="Layer 1" xmlns="http://www.w3.org/2000/svg" xmlns:xlink="http://www.w3.org/1999/xlink" viewBox="0 0 432 576"><defs><style>.cls-1{opacity:0.05;}.cls-2{fill:#040d21;}.cls-3{fill:none;stroke:#000;stroke-linecap:round;stroke-linejoin:round;stroke-width:8px;}.cls-4{fill:#2d313f;}.cls-5{fill:#feaf06;}.cls-6{fill:#fbd82b;}.cls-7{fill:#ffe278;}.cls-8{fill:#b57817;}.cls-9{fill:#701d1d;}.cls-10,.cls-15,.cls-16{fill:#fff;}.cls-11{fill:#f70000;}.cls-12,.cls-13{opacity:0.2;}.cls-12{fill:url(#linear-gradient);}.cls-13{fill:url(#linear-gradient-2);}.cls-14{fill:#0062b2;}.cls-15{opacity:0.6;}.cls-16{opacity:0.7;}.cls-17{fill:#f2f2f2;}.cls-18{fill:#c9c9c9;}.cls-19{fill:#677077;}.cls-20{fill:#b8b8b8;}.cls-21{fill:#858d92;}.cls-22{fill:#ccc;}.cls-23{fill:#ededed;}.cls-24{fill:#d9d9d9;}.cls-25{fill:#b4b4b4;}.cls-26{fill:url(#radial-gradient);}</style><linearGradient id="linear-gradient" x1="242.09" y1="247.84" x2="242.09" y2="199.01" gradientTransform="translate(38.92 -35.89) rotate(9.22)" gradientUnits="userSpaceOnUse"><stop offset="0.36" stop-color="#fff"/><stop offset="0.42" stop-color="#f5f9fc"/><stop offset="0.51" stop-color="#dae8f4"/><stop offset="0.62" stop-color="#aecde6"/><stop offset="0.76" stop-color="#70a7d4"/><stop offset="0.92" stop-color="#2378bd"/><stop offset="0.99" stop-color="#0062b2"/></linearGradient><linearGradient id="linear-gradient-2" x1="182.95" y1="247.84" x2="182.95" y2="199.01" gradientTransform="translate(354.71 -8.72) rotate(75.81)" xlink:href="#linear-gradient"/><radialGradient id="radial-gradient" cx="213.5" cy="178.36" r="39.38" gradientTransform="translate(-117.65 391.86) rotate(-90) scale(1 1.86)" gradientUnits="userSpaceOnUse"><stop offset="0" stop-color="#ff8c1f"/><stop offset="1" stop-color="#feaf06"/></radialGradient></defs><g class="cls-1"><path class="cls-2" d="M225.65,238.81v15.77h2.9a2.2,2.2,0,0,1,1.49.4,1.34,1.34,0,0,1,.44,1,1.35,1.35,0,0,1-.44,1,2.25,2.25,0,0,1-1.49.4h-8.69a2.25,2.25,0,0,1-1.49-.4,1.37,1.37,0,0,1-.44-1.05,1.33,1.33,0,0,1,.44-1,2.2,2.2,0,0,1,1.49-.4h2.91v-12l-2.58.68a4,4,0,0,1-.92.17,1.25,1.25,0,0,1-1-.44,1.5,1.5,0,0,1-.4-1.07,1.33,1.33,0,0,1,.29-.9,2.67,2.67,0,0,1,1.24-.59Z"/><path class="cls-2" d="M247.74,246.76v3.17a10,10,0,0,1-1.63,5.38,5.18,5.18,0,0,1-4.64,2.57,5.42,5.42,0,0,1-2.95-.77,7.17,7.17,0,0,1-2.27-2.82,9.26,9.26,0,0,1-1.08-4.36v-3.17a10,10,0,0,1,1.62-5.37,5.16,5.16,0,0,1,4.64-2.58,5.35,5.35,0,0,1,2.93.76,7.37,7.37,0,0,1,2.29,2.82A9.28,9.28,0,0,1,247.74,246.76Zm-2.9,0a6.63,6.63,0,0,0-1.31-4.1,2.49,2.49,0,0,0-2.09-1,2.61,2.61,0,0,0-2.14,1.07,6.37,6.37,0,0,0-1.25,4v3.17a6.54,6.54,0,0,0,1.33,4.1,2.44,2.44,0,0,0,2.09,1,2.57,2.57,0,0,0,2.12-1.07,6.37,6.37,0,0,0,1.25-4Z"/><path class="cls-2" d="M260.19,238.81v15.77h2.9a2.2,2.2,0,0,1,1.49.4,1.34,1.34,0,0,1,.44,1,1.35,1.35,0,0,1-.44,1,2.25,2.25,0,0,1-1.49.4H254.4a2.25,2.25,0,0,1-1.49-.4,1.37,1.37,0,0,1-.44-1.05,1.33,1.33,0,0,1,.44-1,2.2,2.2,0,0,1,1.49-.4h2.91v-12l-2.58.68a4,4,0,0,1-.92.17,1.25,1.25,0,0,1-.95-.44,1.5,1.5,0,0,1-.4-1.07,1.33,1.33,0,0,1,.29-.9,2.67,2.67,0,0,1,1.24-.59Z"/><path class="cls-2" d="M282.27,246.76v3.17a10,10,0,0,1-1.62,5.38,5.18,5.18,0,0,1-4.64,2.57,5.42,5.42,0,0,1-2.95-.77,7.17,7.17,0,0,1-2.27-2.82,9.26,9.26,0,0,1-1.08-4.36v-3.17a10,10,0,0,1,1.62-5.37,5.16,5.16,0,0,1,4.64-2.58,5.37,5.37,0,0,1,2.93.76,7.37,7.37,0,0,1,2.29,2.82A9.27,9.27,0,0,1,282.27,246.76Zm-2.89,0a6.69,6.69,0,0,0-1.31-4.1,2.49,2.49,0,0,0-2.09-1,2.61,2.61,0,0,0-2.14,1.07,6.37,6.37,0,0,0-1.25,4v3.17a6.6,6.6,0,0,0,1.32,4.1,2.47,2.47,0,0,0,2.1,1,2.57,2.57,0,0,0,2.12-1.07,6.37,6.37,0,0,0,1.25-4Z"/><path class="cls-2" d="M230.47,297.16v3.16a10,10,0,0,1-1.63,5.38,5.16,5.16,0,0,1-4.64,2.57,5.42,5.42,0,0,1-2.95-.76,7.14,7.14,0,0,1-2.27-2.83,9.23,9.23,0,0,1-1.08-4.36v-3.16a10,10,0,0,1,1.62-5.38,5.15,5.15,0,0,1,4.64-2.57,5.43,5.43,0,0,1,2.93.75,7.37,7.37,0,0,1,2.29,2.82A9.29,9.29,0,0,1,230.47,297.16Zm-2.9,0a6.61,6.61,0,0,0-1.31-4.1,2.46,2.46,0,0,0-2.09-1,2.6,2.6,0,0,0-2.14,1.06,6.39,6.39,0,0,0-1.25,4v3.16a6.54,6.54,0,0,0,1.33,4.1,2.44,2.44,0,0,0,2.09,1,2.55,2.55,0,0,0,2.12-1.07,6.35,6.35,0,0,0,1.25-4Z"/><path class="cls-2" d="M242.92,289.21V305h2.9a2.2,2.2,0,0,1,1.49.4,1.37,1.37,0,0,1,.44,1.05,1.34,1.34,0,0,1-.44,1,2.2,2.2,0,0,1-1.49.4h-8.69a2.2,2.2,0,0,1-1.49-.4,1.45,1.45,0,0,1,0-2.08,2.2,2.2,0,0,1,1.49-.4H240V293l-2.58.67a4,4,0,0,1-.92.17,1.25,1.25,0,0,1-.95-.44,1.49,1.49,0,0,1-.4-1.06,1.34,1.34,0,0,1,.29-.91,2.68,2.68,0,0,1,1.24-.58Z"/><path class="cls-2" d="M260.19,289.21V305h2.9a2.2,2.2,0,0,1,1.49.4,1.37,1.37,0,0,1,.44,1.05,1.34,1.34,0,0,1-.44,1,2.2,2.2,0,0,1-1.49.4H254.4a2.2,2.2,0,0,1-1.49-.4,1.45,1.45,0,0,1,0-2.08,2.2,2.2,0,0,1,1.49-.4h2.91V293l-2.58.67a4,4,0,0,1-.92.17,1.25,1.25,0,0,1-.95-.44,1.49,1.49,0,0,1-.4-1.06,1.34,1.34,0,0,1,.29-.91,2.68,2.68,0,0,1,1.24-.58Z"/><path class="cls-2" d="M282.27,297.16v3.16a9.94,9.94,0,0,1-1.62,5.38,5.16,5.16,0,0,1-4.64,2.57,5.42,5.42,0,0,1-2.95-.76,7.14,7.14,0,0,1-2.27-2.83,9.23,9.23,0,0,1-1.08-4.36v-3.16a10,10,0,0,1,1.62-5.38,5.15,5.15,0,0,1,4.64-2.57,5.45,5.45,0,0,1,2.93.75,7.37,7.37,0,0,1,2.29,2.82A9.28,9.28,0,0,1,282.27,297.16Zm-2.89,0a6.67,6.67,0,0,0-1.31-4.1,2.46,2.46,0,0,0-2.09-1,2.6,2.6,0,0,0-2.14,1.06,6.39,6.39,0,0,0-1.25,4v3.16a6.6,6.6,0,0,0,1.32,4.1,2.47,2.47,0,0,0,2.1,1,2.55,2.55,0,0,0,2.12-1.07,6.35,6.35,0,0,0,1.25-4Z"/><path class="cls-2" d="M230.47,272.1v3.16a10,10,0,0,1-1.63,5.38,5.16,5.16,0,0,1-4.64,2.57,5.42,5.42,0,0,1-2.95-.76,7.14,7.14,0,0,1-2.27-2.83,9.23,9.23,0,0,1-1.08-4.36V272.1a10,10,0,0,1,1.62-5.38,5.15,5.15,0,0,1,4.64-2.57,5.43,5.43,0,0,1,2.93.75,7.37,7.37,0,0,1,2.29,2.82A9.29,9.29,0,0,1,230.47,272.1Zm-2.9,0a6.61,6.61,0,0,0-1.31-4.1,2.46,2.46,0,0,0-2.09-1,2.6,2.6,0,0,0-2.14,1.06,6.39,6.39,0,0,0-1.25,4v3.16a6.54,6.54,0,0,0,1.33,4.1,2.44,2.44,0,0,0,2.09,1,2.55,2.55,0,0,0,2.12-1.07,6.35,6.35,0,0,0,1.25-4Z"/><path class="cls-2" d="M242.92,264.15v15.76h2.9a2.2,2.2,0,0,1,1.49.4,1.37,1.37,0,0,1,.44,1.05,1.34,1.34,0,0,1-.44,1,2.2,2.2,0,0,1-1.49.4h-8.69a2.2,2.2,0,0,1-1.49-.4,1.45,1.45,0,0,1,0-2.08,2.2,2.2,0,0,1,1.49-.4H240v-12l-2.58.67a4,4,0,0,1-.92.17,1.25,1.25,0,0,1-.95-.44,1.49,1.49,0,0,1-.4-1.06,1.34,1.34,0,0,1,.29-.91,2.68,2.68,0,0,1,1.24-.58Z"/><path class="cls-2" d="M265,272.1v3.16a9.87,9.87,0,0,1-1.63,5.38,5.16,5.16,0,0,1-4.64,2.57,5.42,5.42,0,0,1-3-.76,7.14,7.14,0,0,1-2.27-2.83,9.23,9.23,0,0,1-1.08-4.36V272.1a10,10,0,0,1,1.62-5.38,5.15,5.15,0,0,1,4.64-2.57,5.43,5.43,0,0,1,2.93.75,7.37,7.37,0,0,1,2.29,2.82A9.29,9.29,0,0,1,265,272.1Zm-2.9,0a6.61,6.61,0,0,0-1.31-4.1,2.46,2.46,0,0,0-2.09-1,2.6,2.6,0,0,0-2.14,1.06,6.39,6.39,0,0,0-1.25,4v3.16a6.54,6.54,0,0,0,1.33,4.1,2.44,2.44,0,0,0,2.09,1,2.55,2.55,0,0,0,2.12-1.07,6.35,6.35,0,0,0,1.25-4Z"/><path class="cls-2" d="M282.27,272.1v3.16a9.94,9.94,0,0,1-1.62,5.38,5.16,5.16,0,0,1-4.64,2.57,5.42,5.42,0,0,1-2.95-.76,7.14,7.14,0,0,1-2.27-2.83,9.23,9.23,0,0,1-1.08-4.36V272.1a10,10,0,0,1,1.62-5.38,5.15,5.15,0,0,1,4.64-2.57,5.45,5.45,0,0,1,2.93.75,7.37,7.37,0,0,1,2.29,2.82A9.28,9.28,0,0,1,282.27,272.1Zm-2.89,0a6.67,6.67,0,0,0-1.31-4.1,2.46,2.46,0,0,0-2.09-1,2.6,2.6,0,0,0-2.14,1.06,6.39,6.39,0,0,0-1.25,4v3.16a6.6,6.6,0,0,0,1.32,4.1,2.47,2.47,0,0,0,2.1,1,2.55,2.55,0,0,0,2.12-1.07,6.35,6.35,0,0,0,1.25-4Z"/><path class="cls-2" d="M296.06,238.81v15.77H299a2.17,2.17,0,0,1,1.48.4,1.31,1.31,0,0,1,.45,1,1.33,1.33,0,0,1-.45,1,2.22,2.22,0,0,1-1.48.4h-8.7a2.22,2.22,0,0,1-1.48-.4,1.34,1.34,0,0,1-.44-1.05,1.3,1.3,0,0,1,.44-1,2.17,2.17,0,0,1,1.48-.4h2.91v-12l-2.57.68a4,4,0,0,1-.93.17,1.27,1.27,0,0,1-.95-.44,1.54,1.54,0,0,1-.4-1.07,1.29,1.29,0,0,1,.3-.9,2.62,2.62,0,0,1,1.23-.59Z"/><path class="cls-2" d="M318.15,246.76v3.17a10,10,0,0,1-1.62,5.38,5.19,5.19,0,0,1-4.65,2.57,5.36,5.36,0,0,1-2.94-.77,7.27,7.27,0,0,1-2.28-2.82,9.37,9.37,0,0,1-1.07-4.36v-3.17a10,10,0,0,1,1.61-5.37,5.17,5.17,0,0,1,4.64-2.58,5.35,5.35,0,0,1,2.93.76,7.28,7.28,0,0,1,2.29,2.82A9.16,9.16,0,0,1,318.15,246.76Zm-2.89,0a6.69,6.69,0,0,0-1.31-4.1,2.51,2.51,0,0,0-2.09-1,2.58,2.58,0,0,0-2.14,1.07,6.37,6.37,0,0,0-1.25,4v3.17a6.6,6.6,0,0,0,1.32,4.1,2.45,2.45,0,0,0,2.09,1,2.59,2.59,0,0,0,2.13-1.07,6.37,6.37,0,0,0,1.25-4Z"/><path class="cls-2" d="M330.6,238.81v15.77h2.91a2.17,2.17,0,0,1,1.48.4,1.31,1.31,0,0,1,.45,1,1.33,1.33,0,0,1-.45,1,2.22,2.22,0,0,1-1.48.4h-8.7a2.22,2.22,0,0,1-1.48-.4,1.34,1.34,0,0,1-.44-1.05,1.3,1.3,0,0,1,.44-1,2.17,2.17,0,0,1,1.48-.4h2.91v-12l-2.57.68a4,4,0,0,1-.93.17,1.27,1.27,0,0,1-1-.44,1.54,1.54,0,0,1-.4-1.07,1.29,1.29,0,0,1,.3-.9,2.62,2.62,0,0,1,1.23-.59Z"/><path class="cls-2" d="M352.69,246.76v3.17a10,10,0,0,1-1.62,5.38,5.2,5.2,0,0,1-4.65,2.57,5.36,5.36,0,0,1-2.94-.77,7.27,7.27,0,0,1-2.28-2.82,9.37,9.37,0,0,1-1.07-4.36v-3.17a10,10,0,0,1,1.61-5.37,5.17,5.17,0,0,1,4.64-2.58,5.35,5.35,0,0,1,2.93.76,7.37,7.37,0,0,1,2.29,2.82A9.16,9.16,0,0,1,352.69,246.76Zm-2.89,0a6.69,6.69,0,0,0-1.31-4.1,2.52,2.52,0,0,0-2.1-1,2.58,2.58,0,0,0-2.13,1.07,6.37,6.37,0,0,0-1.25,4v3.17a6.6,6.6,0,0,0,1.32,4.1,2.45,2.45,0,0,0,2.09,1,2.57,2.57,0,0,0,2.12-1.07,6.31,6.31,0,0,0,1.26-4Z"/><path class="cls-2" d="M300.88,297.16v3.16a9.94,9.94,0,0,1-1.62,5.38,5.17,5.17,0,0,1-4.65,2.57,5.36,5.36,0,0,1-2.94-.76,7.24,7.24,0,0,1-2.28-2.83,9.34,9.34,0,0,1-1.07-4.36v-3.16a10,10,0,0,1,1.61-5.38,5.16,5.16,0,0,1,4.64-2.57,5.43,5.43,0,0,1,2.93.75,7.28,7.28,0,0,1,2.29,2.82A9.17,9.17,0,0,1,300.88,297.16Zm-2.89,0a6.67,6.67,0,0,0-1.31-4.1,2.49,2.49,0,0,0-2.09-1,2.58,2.58,0,0,0-2.14,1.06,6.39,6.39,0,0,0-1.25,4v3.16a6.6,6.6,0,0,0,1.32,4.1,2.45,2.45,0,0,0,2.09,1,2.57,2.57,0,0,0,2.13-1.07,6.35,6.35,0,0,0,1.25-4Z"/><path class="cls-2" d="M313.33,289.21V305h2.91a2.17,2.17,0,0,1,1.48.4,1.35,1.35,0,0,1,.45,1.05,1.32,1.32,0,0,1-.45,1,2.17,2.17,0,0,1-1.48.4h-8.7a2.17,2.17,0,0,1-1.48-.4,1.33,1.33,0,0,1-.44-1.05,1.31,1.31,0,0,1,.44-1,2.17,2.17,0,0,1,1.48-.4h2.91V293l-2.57.67a4,4,0,0,1-.93.17,1.27,1.27,0,0,1-.95-.44,1.53,1.53,0,0,1-.4-1.06,1.3,1.3,0,0,1,.3-.91,2.63,2.63,0,0,1,1.23-.58Z"/><path class="cls-2" d="M330.6,289.21V305h2.91a2.17,2.17,0,0,1,1.48.4,1.35,1.35,0,0,1,.45,1.05,1.32,1.32,0,0,1-.45,1,2.17,2.17,0,0,1-1.48.4h-8.7a2.17,2.17,0,0,1-1.48-.4,1.33,1.33,0,0,1-.44-1.05,1.31,1.31,0,0,1,.44-1,2.17,2.17,0,0,1,1.48-.4h2.91V293l-2.57.67a4,4,0,0,1-.93.17,1.27,1.27,0,0,1-1-.44,1.53,1.53,0,0,1-.4-1.06,1.3,1.3,0,0,1,.3-.91,2.63,2.63,0,0,1,1.23-.58Z"/><path class="cls-2" d="M352.69,297.16v3.16a9.94,9.94,0,0,1-1.62,5.38,5.18,5.18,0,0,1-4.65,2.57,5.36,5.36,0,0,1-2.94-.76,7.24,7.24,0,0,1-2.28-2.83,9.34,9.34,0,0,1-1.07-4.36v-3.16a10,10,0,0,1,1.61-5.38,5.16,5.16,0,0,1,4.64-2.57,5.43,5.43,0,0,1,2.93.75,7.37,7.37,0,0,1,2.29,2.82A9.17,9.17,0,0,1,352.69,297.16Zm-2.89,0a6.67,6.67,0,0,0-1.31-4.1,2.49,2.49,0,0,0-2.1-1,2.57,2.57,0,0,0-2.13,1.06,6.39,6.39,0,0,0-1.25,4v3.16a6.6,6.6,0,0,0,1.32,4.1,2.45,2.45,0,0,0,2.09,1,2.55,2.55,0,0,0,2.12-1.07,6.29,6.29,0,0,0,1.26-4Z"/><path class="cls-2" d="M300.88,272.1v3.16a9.94,9.94,0,0,1-1.62,5.38,5.17,5.17,0,0,1-4.65,2.57,5.36,5.36,0,0,1-2.94-.76,7.24,7.24,0,0,1-2.28-2.83,9.34,9.34,0,0,1-1.07-4.36V272.1a10.06,10.06,0,0,1,1.61-5.38,5.16,5.16,0,0,1,4.64-2.57,5.43,5.43,0,0,1,2.93.75,7.28,7.28,0,0,1,2.29,2.82A9.17,9.17,0,0,1,300.88,272.1Zm-2.89,0a6.67,6.67,0,0,0-1.31-4.1,2.49,2.49,0,0,0-2.09-1,2.58,2.58,0,0,0-2.14,1.06,6.39,6.39,0,0,0-1.25,4v3.16a6.6,6.6,0,0,0,1.32,4.1,2.45,2.45,0,0,0,2.09,1,2.57,2.57,0,0,0,2.13-1.07,6.35,6.35,0,0,0,1.25-4Z"/><path class="cls-2" d="M313.33,264.15v15.76h2.91a2.17,2.17,0,0,1,1.48.4,1.35,1.35,0,0,1,.45,1.05,1.32,1.32,0,0,1-.45,1,2.17,2.17,0,0,1-1.48.4h-8.7a2.17,2.17,0,0,1-1.48-.4,1.33,1.33,0,0,1-.44-1.05,1.31,1.31,0,0,1,.44-1,2.17,2.17,0,0,1,1.48-.4h2.91v-12l-2.57.67a4,4,0,0,1-.93.17,1.27,1.27,0,0,1-.95-.44,1.53,1.53,0,0,1-.4-1.06,1.3,1.3,0,0,1,.3-.91,2.63,2.63,0,0,1,1.23-.58Z"/><path class="cls-2" d="M335.42,272.1v3.16a9.94,9.94,0,0,1-1.62,5.38,5.17,5.17,0,0,1-4.65,2.57,5.36,5.36,0,0,1-2.94-.76,7.24,7.24,0,0,1-2.28-2.83,9.34,9.34,0,0,1-1.07-4.36V272.1a10.06,10.06,0,0,1,1.61-5.38,5.16,5.16,0,0,1,4.64-2.57,5.43,5.43,0,0,1,2.93.75,7.28,7.28,0,0,1,2.29,2.82A9.17,9.17,0,0,1,335.42,272.1Zm-2.89,0a6.67,6.67,0,0,0-1.31-4.1,2.48,2.48,0,0,0-2.09-1,2.58,2.58,0,0,0-2.14,1.06,6.39,6.39,0,0,0-1.25,4v3.16a6.6,6.6,0,0,0,1.32,4.1,2.45,2.45,0,0,0,2.09,1,2.57,2.57,0,0,0,2.13-1.07,6.35,6.35,0,0,0,1.25-4Z"/><path class="cls-2" d="M352.69,272.1v3.16a9.94,9.94,0,0,1-1.62,5.38,5.18,5.18,0,0,1-4.65,2.57,5.36,5.36,0,0,1-2.94-.76,7.24,7.24,0,0,1-2.28-2.83,9.34,9.34,0,0,1-1.07-4.36V272.1a10.06,10.06,0,0,1,1.61-5.38,5.16,5.16,0,0,1,4.64-2.57,5.43,5.43,0,0,1,2.93.75,7.37,7.37,0,0,1,2.29,2.82A9.17,9.17,0,0,1,352.69,272.1Zm-2.89,0a6.67,6.67,0,0,0-1.31-4.1,2.49,2.49,0,0,0-2.1-1,2.57,2.57,0,0,0-2.13,1.06,6.39,6.39,0,0,0-1.25,4v3.16a6.6,6.6,0,0,0,1.32,4.1,2.45,2.45,0,0,0,2.09,1,2.55,2.55,0,0,0,2.12-1.07,6.29,6.29,0,0,0,1.26-4Z"/><path class="cls-2" d="M225.66,162.6v15.77h2.91a2.17,2.17,0,0,1,1.48.4,1.34,1.34,0,0,1,.44,1,1.31,1.31,0,0,1-.44,1,2.17,2.17,0,0,1-1.48.4h-8.7a2.17,2.17,0,0,1-1.48-.4,1.34,1.34,0,0,1-.44-1,1.31,1.31,0,0,1,.44-1,2.17,2.17,0,0,1,1.48-.4h2.91v-12l-2.57.67a4,4,0,0,1-.93.17,1.25,1.25,0,0,1-.95-.44,1.49,1.49,0,0,1-.4-1.06,1.3,1.3,0,0,1,.3-.91,2.62,2.62,0,0,1,1.23-.59Z"/><path class="cls-2" d="M247.75,170.56v3.16a9.94,9.94,0,0,1-1.62,5.38,5.2,5.2,0,0,1-4.65,2.57,5.36,5.36,0,0,1-2.94-.76,7.31,7.31,0,0,1-2.28-2.83,9.37,9.37,0,0,1-1.07-4.36v-3.16a10,10,0,0,1,1.61-5.38,5.17,5.17,0,0,1,4.64-2.58,5.43,5.43,0,0,1,2.93.76,7.37,7.37,0,0,1,2.29,2.82A9.17,9.17,0,0,1,247.75,170.56Zm-2.89,0a6.7,6.7,0,0,0-1.31-4.11,2.52,2.52,0,0,0-2.1-1,2.58,2.58,0,0,0-2.13,1.07,6.38,6.38,0,0,0-1.25,4v3.16a6.6,6.6,0,0,0,1.32,4.1,2.45,2.45,0,0,0,2.09,1,2.55,2.55,0,0,0,2.12-1.07,6.29,6.29,0,0,0,1.26-4Z"/><path class="cls-2" d="M260.2,162.6v15.77h2.91a2.17,2.17,0,0,1,1.48.4,1.34,1.34,0,0,1,.44,1,1.31,1.31,0,0,1-.44,1,2.17,2.17,0,0,1-1.48.4h-8.7a2.17,2.17,0,0,1-1.48-.4,1.34,1.34,0,0,1-.44-1,1.31,1.31,0,0,1,.44-1,2.17,2.17,0,0,1,1.48-.4h2.91v-12l-2.57.67a4,4,0,0,1-.93.17,1.25,1.25,0,0,1-.95-.44,1.49,1.49,0,0,1-.4-1.06,1.3,1.3,0,0,1,.3-.91,2.62,2.62,0,0,1,1.23-.59Z"/><path class="cls-2" d="M282.29,170.56v3.16a9.94,9.94,0,0,1-1.62,5.38,5.2,5.2,0,0,1-4.65,2.57,5.36,5.36,0,0,1-2.94-.76,7.31,7.31,0,0,1-2.28-2.83,9.25,9.25,0,0,1-1.07-4.36v-3.16a10,10,0,0,1,1.61-5.38A5.17,5.17,0,0,1,276,162.6a5.43,5.43,0,0,1,2.93.76,7.37,7.37,0,0,1,2.29,2.82A9.17,9.17,0,0,1,282.29,170.56Zm-2.9,0a6.69,6.69,0,0,0-1.3-4.11,2.52,2.52,0,0,0-2.1-1,2.58,2.58,0,0,0-2.13,1.07,6.32,6.32,0,0,0-1.25,4v3.16a6.6,6.6,0,0,0,1.32,4.1,2.44,2.44,0,0,0,2.09,1,2.55,2.55,0,0,0,2.12-1.07,6.29,6.29,0,0,0,1.25-4Z"/><path class="cls-2" d="M230.48,221v3.16a9.91,9.91,0,0,1-1.62,5.38,5.19,5.19,0,0,1-4.65,2.58,5.36,5.36,0,0,1-2.94-.77,7.24,7.24,0,0,1-2.28-2.83,9.34,9.34,0,0,1-1.07-4.36V221a10,10,0,0,1,1.61-5.37,5.17,5.17,0,0,1,4.64-2.58,5.35,5.35,0,0,1,2.93.76,7.25,7.25,0,0,1,2.29,2.81A9.2,9.2,0,0,1,230.48,221Zm-2.89,0a6.69,6.69,0,0,0-1.31-4.1,2.49,2.49,0,0,0-2.1-1,2.55,2.55,0,0,0-2.13,1.07,6.35,6.35,0,0,0-1.25,4v3.16a6.58,6.58,0,0,0,1.32,4.1,2.46,2.46,0,0,0,2.09,1,2.57,2.57,0,0,0,2.12-1.07,6.32,6.32,0,0,0,1.26-4Z"/><path class="cls-2" d="M242.93,213v15.76h2.91a2.22,2.22,0,0,1,1.48.4,1.34,1.34,0,0,1,.44,1.05,1.3,1.3,0,0,1-.44,1,2.17,2.17,0,0,1-1.48.4h-8.7a2.17,2.17,0,0,1-1.48-.4,1.3,1.3,0,0,1-.44-1,1.32,1.32,0,0,1,.44-1,2.22,2.22,0,0,1,1.48-.4h2.91v-12l-2.57.67a3.54,3.54,0,0,1-.93.17,1.24,1.24,0,0,1-1-.43,1.51,1.51,0,0,1-.4-1.07,1.3,1.3,0,0,1,.3-.91,2.63,2.63,0,0,1,1.23-.58Z"/><path class="cls-2" d="M260.2,213v15.76h2.91a2.22,2.22,0,0,1,1.48.4,1.34,1.34,0,0,1,.44,1.05,1.3,1.3,0,0,1-.44,1,2.17,2.17,0,0,1-1.48.4h-8.7a2.17,2.17,0,0,1-1.48-.4,1.3,1.3,0,0,1-.44-1,1.32,1.32,0,0,1,.44-1,2.22,2.22,0,0,1,1.48-.4h2.91v-12l-2.57.67a3.54,3.54,0,0,1-.93.17,1.24,1.24,0,0,1-.95-.43,1.51,1.51,0,0,1-.4-1.07,1.3,1.3,0,0,1,.3-.91,2.63,2.63,0,0,1,1.23-.58Z"/><path class="cls-2" d="M282.29,221v3.16a9.91,9.91,0,0,1-1.62,5.38,5.19,5.19,0,0,1-4.65,2.58,5.36,5.36,0,0,1-2.94-.77,7.24,7.24,0,0,1-2.28-2.83,9.22,9.22,0,0,1-1.07-4.36V221a9.92,9.92,0,0,1,1.61-5.37A5.17,5.17,0,0,1,276,213a5.35,5.35,0,0,1,2.93.76,7.25,7.25,0,0,1,2.29,2.81A9.2,9.2,0,0,1,282.29,221Zm-2.9,0a6.69,6.69,0,0,0-1.3-4.1,2.49,2.49,0,0,0-2.1-1,2.55,2.55,0,0,0-2.13,1.07,6.29,6.29,0,0,0-1.25,4v3.16a6.58,6.58,0,0,0,1.32,4.1,2.45,2.45,0,0,0,2.09,1,2.57,2.57,0,0,0,2.12-1.07,6.32,6.32,0,0,0,1.25-4Z"/><path class="cls-2" d="M230.48,195.89v3.16a9.91,9.91,0,0,1-1.62,5.38,5.19,5.19,0,0,1-4.65,2.58,5.36,5.36,0,0,1-2.94-.77,7.27,7.27,0,0,1-2.28-2.82,9.41,9.41,0,0,1-1.07-4.37v-3.16a10,10,0,0,1,1.61-5.37,5.17,5.17,0,0,1,4.64-2.58,5.35,5.35,0,0,1,2.93.76,7.25,7.25,0,0,1,2.29,2.81A9.2,9.2,0,0,1,230.48,195.89Zm-2.89,0a6.69,6.69,0,0,0-1.31-4.1,2.49,2.49,0,0,0-2.1-1,2.55,2.55,0,0,0-2.13,1.07,6.35,6.35,0,0,0-1.25,4v3.16a6.63,6.63,0,0,0,1.32,4.11,2.48,2.48,0,0,0,2.09,1,2.57,2.57,0,0,0,2.12-1.07,6.32,6.32,0,0,0,1.26-4Z"/><path class="cls-2" d="M242.93,187.94V203.7h2.91a2.22,2.22,0,0,1,1.48.4,1.34,1.34,0,0,1,.44,1.05,1.3,1.3,0,0,1-.44,1,2.17,2.17,0,0,1-1.48.4h-8.7a2.17,2.17,0,0,1-1.48-.4,1.3,1.3,0,0,1-.44-1,1.33,1.33,0,0,1,.44-1,2.22,2.22,0,0,1,1.48-.4h2.91v-12l-2.57.67a3.54,3.54,0,0,1-.93.17,1.24,1.24,0,0,1-1-.43,1.51,1.51,0,0,1-.4-1.07,1.3,1.3,0,0,1,.3-.91,2.63,2.63,0,0,1,1.23-.58Z"/><path class="cls-2" d="M265,195.89v3.16a9.91,9.91,0,0,1-1.62,5.38,5.19,5.19,0,0,1-4.65,2.58,5.36,5.36,0,0,1-2.94-.77,7.27,7.27,0,0,1-2.28-2.82,9.41,9.41,0,0,1-1.07-4.37v-3.16a10,10,0,0,1,1.61-5.37,5.17,5.17,0,0,1,4.64-2.58,5.35,5.35,0,0,1,2.93.76,7.25,7.25,0,0,1,2.29,2.81A9.2,9.2,0,0,1,265,195.89Zm-2.89,0a6.69,6.69,0,0,0-1.31-4.1,2.49,2.49,0,0,0-2.1-1,2.55,2.55,0,0,0-2.13,1.07,6.35,6.35,0,0,0-1.25,4v3.16a6.63,6.63,0,0,0,1.32,4.11,2.48,2.48,0,0,0,2.09,1,2.57,2.57,0,0,0,2.12-1.07,6.32,6.32,0,0,0,1.26-4Z"/><path class="cls-2" d="M282.29,195.89v3.16a9.91,9.91,0,0,1-1.62,5.38A5.19,5.19,0,0,1,276,207a5.36,5.36,0,0,1-2.94-.77,7.27,7.27,0,0,1-2.28-2.82,9.29,9.29,0,0,1-1.07-4.37v-3.16a9.92,9.92,0,0,1,1.61-5.37,5.17,5.17,0,0,1,4.64-2.58,5.35,5.35,0,0,1,2.93.76,7.25,7.25,0,0,1,2.29,2.81A9.2,9.2,0,0,1,282.29,195.89Zm-2.9,0a6.69,6.69,0,0,0-1.3-4.1,2.49,2.49,0,0,0-2.1-1,2.55,2.55,0,0,0-2.13,1.07,6.29,6.29,0,0,0-1.25,4v3.16a6.63,6.63,0,0,0,1.32,4.11,2.46,2.46,0,0,0,2.09,1,2.57,2.57,0,0,0,2.12-1.07,6.32,6.32,0,0,0,1.25-4Z"/><path class="cls-2" d="M296.07,162.6v15.77H299a2.2,2.2,0,0,1,1.49.4,1.37,1.37,0,0,1,.44,1,1.34,1.34,0,0,1-.44,1,2.2,2.2,0,0,1-1.49.4h-8.69a2.2,2.2,0,0,1-1.49-.4,1.37,1.37,0,0,1-.44-1,1.34,1.34,0,0,1,.44-1,2.2,2.2,0,0,1,1.49-.4h2.9v-12l-2.57.67a4,4,0,0,1-.92.17,1.24,1.24,0,0,1-.95-.44,1.49,1.49,0,0,1-.4-1.06,1.34,1.34,0,0,1,.29-.91,2.67,2.67,0,0,1,1.24-.59Z"/><path class="cls-2" d="M318.16,170.56v3.16a9.94,9.94,0,0,1-1.62,5.38,5.18,5.18,0,0,1-4.64,2.57,5.39,5.39,0,0,1-2.95-.76,7.21,7.21,0,0,1-2.27-2.83,9.26,9.26,0,0,1-1.08-4.36v-3.16a10,10,0,0,1,1.62-5.38,5.16,5.16,0,0,1,4.64-2.58,5.46,5.46,0,0,1,2.93.76,7.37,7.37,0,0,1,2.29,2.82A9.28,9.28,0,0,1,318.16,170.56Zm-2.89,0a6.7,6.7,0,0,0-1.31-4.11,2.49,2.49,0,0,0-2.09-1,2.61,2.61,0,0,0-2.14,1.07,6.38,6.38,0,0,0-1.25,4v3.16a6.6,6.6,0,0,0,1.32,4.1,2.47,2.47,0,0,0,2.1,1,2.55,2.55,0,0,0,2.12-1.07,6.35,6.35,0,0,0,1.25-4Z"/><path class="cls-2" d="M330.61,162.6v15.77h2.91a2.2,2.2,0,0,1,1.49.4,1.37,1.37,0,0,1,.44,1,1.34,1.34,0,0,1-.44,1,2.2,2.2,0,0,1-1.49.4h-8.69a2.2,2.2,0,0,1-1.49-.4,1.37,1.37,0,0,1-.44-1,1.34,1.34,0,0,1,.44-1,2.2,2.2,0,0,1,1.49-.4h2.9v-12l-2.57.67a4,4,0,0,1-.92.17,1.24,1.24,0,0,1-.95-.44,1.49,1.49,0,0,1-.4-1.06,1.34,1.34,0,0,1,.29-.91,2.67,2.67,0,0,1,1.24-.59Z"/><path class="cls-2" d="M352.7,170.56v3.16a9.94,9.94,0,0,1-1.62,5.38,5.18,5.18,0,0,1-4.64,2.57,5.39,5.39,0,0,1-2.95-.76,7.21,7.21,0,0,1-2.27-2.83,9.26,9.26,0,0,1-1.08-4.36v-3.16a10,10,0,0,1,1.62-5.38,5.15,5.15,0,0,1,4.63-2.58,5.41,5.41,0,0,1,2.93.76,7.38,7.38,0,0,1,2.3,2.82A9.28,9.28,0,0,1,352.7,170.56Zm-2.89,0a6.7,6.7,0,0,0-1.31-4.11,2.49,2.49,0,0,0-2.09-1,2.6,2.6,0,0,0-2.14,1.07,6.38,6.38,0,0,0-1.25,4v3.16a6.6,6.6,0,0,0,1.32,4.1,2.47,2.47,0,0,0,2.1,1,2.55,2.55,0,0,0,2.12-1.07,6.35,6.35,0,0,0,1.25-4Z"/><path class="cls-2" d="M300.89,221v3.16a9.91,9.91,0,0,1-1.62,5.38,5.17,5.17,0,0,1-4.64,2.58,5.4,5.4,0,0,1-2.95-.77,7.14,7.14,0,0,1-2.27-2.83,9.23,9.23,0,0,1-1.08-4.36V221a9.93,9.93,0,0,1,1.62-5.37,5.16,5.16,0,0,1,4.64-2.58,5.37,5.37,0,0,1,2.93.76,7.25,7.25,0,0,1,2.29,2.81A9.31,9.31,0,0,1,300.89,221ZM298,221a6.69,6.69,0,0,0-1.31-4.1,2.46,2.46,0,0,0-2.09-1,2.58,2.58,0,0,0-2.14,1.07,6.35,6.35,0,0,0-1.25,4v3.16a6.58,6.58,0,0,0,1.32,4.1,2.48,2.48,0,0,0,2.1,1,2.57,2.57,0,0,0,2.12-1.07,6.38,6.38,0,0,0,1.25-4Z"/><path class="cls-2" d="M313.34,213v15.76h2.91a2.25,2.25,0,0,1,1.49.4,1.37,1.37,0,0,1,.44,1.05,1.33,1.33,0,0,1-.44,1,2.2,2.2,0,0,1-1.49.4h-8.69a2.2,2.2,0,0,1-1.49-.4,1.34,1.34,0,0,1-.44-1,1.35,1.35,0,0,1,.44-1,2.25,2.25,0,0,1,1.49-.4h2.9v-12l-2.57.67a3.55,3.55,0,0,1-.92.17,1.23,1.23,0,0,1-1-.43,1.51,1.51,0,0,1-.4-1.07,1.34,1.34,0,0,1,.29-.91,2.68,2.68,0,0,1,1.24-.58Z"/><path class="cls-2" d="M330.61,213v15.76h2.91a2.25,2.25,0,0,1,1.49.4,1.37,1.37,0,0,1,.44,1.05,1.33,1.33,0,0,1-.44,1,2.2,2.2,0,0,1-1.49.4h-8.69a2.2,2.2,0,0,1-1.49-.4,1.34,1.34,0,0,1-.44-1,1.35,1.35,0,0,1,.44-1,2.25,2.25,0,0,1,1.49-.4h2.9v-12l-2.57.67a3.55,3.55,0,0,1-.92.17,1.23,1.23,0,0,1-.95-.43,1.51,1.51,0,0,1-.4-1.07,1.34,1.34,0,0,1,.29-.91,2.68,2.68,0,0,1,1.24-.58Z"/><path class="cls-2" d="M352.7,221v3.16a9.91,9.91,0,0,1-1.62,5.38,5.17,5.17,0,0,1-4.64,2.58,5.4,5.4,0,0,1-2.95-.77,7.14,7.14,0,0,1-2.27-2.83,9.23,9.23,0,0,1-1.08-4.36V221a9.93,9.93,0,0,1,1.62-5.37,5.15,5.15,0,0,1,4.63-2.58,5.32,5.32,0,0,1,2.93.76,7.26,7.26,0,0,1,2.3,2.81A9.31,9.31,0,0,1,352.7,221Zm-2.89,0a6.69,6.69,0,0,0-1.31-4.1,2.46,2.46,0,0,0-2.09-1,2.57,2.57,0,0,0-2.14,1.07,6.35,6.35,0,0,0-1.25,4v3.16a6.58,6.58,0,0,0,1.32,4.1,2.48,2.48,0,0,0,2.1,1,2.57,2.57,0,0,0,2.12-1.07,6.38,6.38,0,0,0,1.25-4Z"/><path class="cls-2" d="M300.89,195.89v3.16a9.91,9.91,0,0,1-1.62,5.38,5.17,5.17,0,0,1-4.64,2.58,5.4,5.4,0,0,1-2.95-.77,7.17,7.17,0,0,1-2.27-2.82,9.3,9.3,0,0,1-1.08-4.37v-3.16a9.93,9.93,0,0,1,1.62-5.37,5.16,5.16,0,0,1,4.64-2.58,5.37,5.37,0,0,1,2.93.76,7.25,7.25,0,0,1,2.29,2.81A9.31,9.31,0,0,1,300.89,195.89Zm-2.89,0a6.69,6.69,0,0,0-1.31-4.1,2.46,2.46,0,0,0-2.09-1,2.58,2.58,0,0,0-2.14,1.07,6.35,6.35,0,0,0-1.25,4v3.16a6.63,6.63,0,0,0,1.32,4.11,2.49,2.49,0,0,0,2.1,1,2.57,2.57,0,0,0,2.12-1.07,6.38,6.38,0,0,0,1.25-4Z"/><path class="cls-2" d="M313.34,187.94V203.7h2.91a2.25,2.25,0,0,1,1.49.4,1.37,1.37,0,0,1,.44,1.05,1.33,1.33,0,0,1-.44,1,2.2,2.2,0,0,1-1.49.4h-8.69a2.2,2.2,0,0,1-1.49-.4,1.34,1.34,0,0,1-.44-1,1.37,1.37,0,0,1,.44-1,2.25,2.25,0,0,1,1.49-.4h2.9v-12l-2.57.67a3.55,3.55,0,0,1-.92.17,1.23,1.23,0,0,1-1-.43,1.51,1.51,0,0,1-.4-1.07,1.34,1.34,0,0,1,.29-.91,2.68,2.68,0,0,1,1.24-.58Z"/><path class="cls-2" d="M335.43,195.89v3.16a9.91,9.91,0,0,1-1.62,5.38,5.17,5.17,0,0,1-4.64,2.58,5.42,5.42,0,0,1-2.95-.77,7.17,7.17,0,0,1-2.27-2.82,9.3,9.3,0,0,1-1.08-4.37v-3.16a9.93,9.93,0,0,1,1.62-5.37,5.16,5.16,0,0,1,4.64-2.58,5.37,5.37,0,0,1,2.93.76,7.25,7.25,0,0,1,2.29,2.81A9.31,9.31,0,0,1,335.43,195.89Zm-2.89,0a6.69,6.69,0,0,0-1.31-4.1,2.46,2.46,0,0,0-2.09-1,2.58,2.58,0,0,0-2.14,1.07,6.35,6.35,0,0,0-1.25,4v3.16a6.63,6.63,0,0,0,1.32,4.11,2.49,2.49,0,0,0,2.1,1,2.57,2.57,0,0,0,2.12-1.07,6.38,6.38,0,0,0,1.25-4Z"/><path class="cls-2" d="M352.7,195.89v3.16a9.91,9.91,0,0,1-1.62,5.38,5.17,5.17,0,0,1-4.64,2.58,5.4,5.4,0,0,1-2.95-.77,7.17,7.17,0,0,1-2.27-2.82,9.3,9.3,0,0,1-1.08-4.37v-3.16a9.93,9.93,0,0,1,1.62-5.37,5.15,5.15,0,0,1,4.63-2.58,5.32,5.32,0,0,1,2.93.76,7.26,7.26,0,0,1,2.3,2.81A9.31,9.31,0,0,1,352.7,195.89Zm-2.89,0a6.69,6.69,0,0,0-1.31-4.1,2.46,2.46,0,0,0-2.09-1,2.57,2.57,0,0,0-2.14,1.07,6.35,6.35,0,0,0-1.25,4v3.16a6.63,6.63,0,0,0,1.32,4.11,2.49,2.49,0,0,0,2.1,1,2.57,2.57,0,0,0,2.12-1.07,6.38,6.38,0,0,0,1.25-4Z"/><path class="cls-2" d="M84.87,238.81v15.77h2.91a2.17,2.17,0,0,1,1.48.4,1.3,1.3,0,0,1,.44,1,1.32,1.32,0,0,1-.44,1,2.22,2.22,0,0,1-1.48.4h-8.7a2.22,2.22,0,0,1-1.48-.4,1.35,1.35,0,0,1-.45-1.05,1.31,1.31,0,0,1,.45-1,2.17,2.17,0,0,1,1.48-.4H82v-12l-2.57.68a4.11,4.11,0,0,1-.93.17,1.25,1.25,0,0,1-.95-.44,1.5,1.5,0,0,1-.4-1.07,1.33,1.33,0,0,1,.29-.9,2.67,2.67,0,0,1,1.24-.59Z"/><path class="cls-2" d="M107,246.76v3.17a10,10,0,0,1-1.62,5.38,5.2,5.2,0,0,1-4.65,2.57,5.36,5.36,0,0,1-2.94-.77,7.27,7.27,0,0,1-2.28-2.82,9.25,9.25,0,0,1-1.07-4.36v-3.17A9.94,9.94,0,0,1,96,241.39a5.17,5.17,0,0,1,4.64-2.58,5.35,5.35,0,0,1,2.93.76,7.37,7.37,0,0,1,2.29,2.82A9.16,9.16,0,0,1,107,246.76Zm-2.9,0a6.69,6.69,0,0,0-1.3-4.1,2.52,2.52,0,0,0-2.1-1,2.58,2.58,0,0,0-2.13,1.07,6.31,6.31,0,0,0-1.25,4v3.17A6.6,6.6,0,0,0,98.6,254a2.45,2.45,0,0,0,2.09,1,2.57,2.57,0,0,0,2.12-1.07,6.31,6.31,0,0,0,1.25-4Z"/><path class="cls-2" d="M119.41,238.81v15.77h2.91a2.17,2.17,0,0,1,1.48.4,1.3,1.3,0,0,1,.44,1,1.32,1.32,0,0,1-.44,1,2.22,2.22,0,0,1-1.48.4h-8.7a2.22,2.22,0,0,1-1.48-.4,1.35,1.35,0,0,1-.45-1.05,1.31,1.31,0,0,1,.45-1,2.17,2.17,0,0,1,1.48-.4h2.91v-12l-2.57.68a4.11,4.11,0,0,1-.93.17,1.25,1.25,0,0,1-1-.44,1.5,1.5,0,0,1-.4-1.07,1.29,1.29,0,0,1,.3-.9,2.57,2.57,0,0,1,1.23-.59Z"/><path class="cls-2" d="M141.5,246.76v3.17a9.89,9.89,0,0,1-1.63,5.38,5.18,5.18,0,0,1-4.64,2.57,5.36,5.36,0,0,1-2.94-.77,7.27,7.27,0,0,1-2.28-2.82,9.25,9.25,0,0,1-1.07-4.36v-3.17a9.94,9.94,0,0,1,1.61-5.37,5.16,5.16,0,0,1,4.64-2.58,5.35,5.35,0,0,1,2.93.76,7.37,7.37,0,0,1,2.29,2.82A9.28,9.28,0,0,1,141.5,246.76Zm-2.9,0a6.69,6.69,0,0,0-1.3-4.1,2.52,2.52,0,0,0-2.1-1,2.58,2.58,0,0,0-2.13,1.07,6.31,6.31,0,0,0-1.25,4v3.17a6.6,6.6,0,0,0,1.32,4.1,2.44,2.44,0,0,0,2.09,1,2.57,2.57,0,0,0,2.12-1.07,6.31,6.31,0,0,0,1.25-4Z"/><path class="cls-2" d="M89.69,297.16v3.16a9.94,9.94,0,0,1-1.62,5.38,5.18,5.18,0,0,1-4.65,2.57,5.36,5.36,0,0,1-2.94-.76,7.24,7.24,0,0,1-2.28-2.83,9.22,9.22,0,0,1-1.07-4.36v-3.16a10,10,0,0,1,1.61-5.38,5.16,5.16,0,0,1,4.64-2.57,5.43,5.43,0,0,1,2.93.75,7.37,7.37,0,0,1,2.29,2.82A9.17,9.17,0,0,1,89.69,297.16Zm-2.9,0a6.67,6.67,0,0,0-1.3-4.1,2.49,2.49,0,0,0-2.1-1,2.57,2.57,0,0,0-2.13,1.06,6.33,6.33,0,0,0-1.25,4v3.16a6.6,6.6,0,0,0,1.32,4.1,2.45,2.45,0,0,0,2.09,1,2.55,2.55,0,0,0,2.12-1.07,6.29,6.29,0,0,0,1.25-4Z"/><path class="cls-2" d="M102.14,289.21V305h2.91a2.17,2.17,0,0,1,1.48.4,1.34,1.34,0,0,1,.44,1.05,1.31,1.31,0,0,1-.44,1,2.17,2.17,0,0,1-1.48.4h-8.7a2.17,2.17,0,0,1-1.48-.4,1.43,1.43,0,0,1,0-2.08,2.17,2.17,0,0,1,1.48-.4h2.91V293l-2.57.67a4.11,4.11,0,0,1-.93.17,1.25,1.25,0,0,1-1-.44,1.49,1.49,0,0,1-.4-1.06,1.3,1.3,0,0,1,.3-.91,2.58,2.58,0,0,1,1.23-.58Z"/><path class="cls-2" d="M119.41,289.21V305h2.91a2.17,2.17,0,0,1,1.48.4,1.34,1.34,0,0,1,.44,1.05,1.31,1.31,0,0,1-.44,1,2.17,2.17,0,0,1-1.48.4h-8.7a2.17,2.17,0,0,1-1.48-.4,1.43,1.43,0,0,1,0-2.08,2.17,2.17,0,0,1,1.48-.4h2.91V293l-2.57.67a4.11,4.11,0,0,1-.93.17,1.25,1.25,0,0,1-1-.44,1.49,1.49,0,0,1-.4-1.06,1.3,1.3,0,0,1,.3-.91,2.58,2.58,0,0,1,1.23-.58Z"/><path class="cls-2" d="M141.5,297.16v3.16a9.87,9.87,0,0,1-1.63,5.38,5.16,5.16,0,0,1-4.64,2.57,5.36,5.36,0,0,1-2.94-.76,7.24,7.24,0,0,1-2.28-2.83,9.22,9.22,0,0,1-1.07-4.36v-3.16a10,10,0,0,1,1.61-5.38,5.15,5.15,0,0,1,4.64-2.57,5.43,5.43,0,0,1,2.93.75,7.37,7.37,0,0,1,2.29,2.82A9.29,9.29,0,0,1,141.5,297.16Zm-2.9,0a6.67,6.67,0,0,0-1.3-4.1,2.49,2.49,0,0,0-2.1-1,2.57,2.57,0,0,0-2.13,1.06,6.33,6.33,0,0,0-1.25,4v3.16a6.6,6.6,0,0,0,1.32,4.1,2.44,2.44,0,0,0,2.09,1,2.55,2.55,0,0,0,2.12-1.07,6.29,6.29,0,0,0,1.25-4Z"/><path class="cls-2" d="M89.69,272.1v3.16a9.94,9.94,0,0,1-1.62,5.38,5.18,5.18,0,0,1-4.65,2.57,5.36,5.36,0,0,1-2.94-.76,7.24,7.24,0,0,1-2.28-2.83,9.22,9.22,0,0,1-1.07-4.36V272.1a10,10,0,0,1,1.61-5.38,5.16,5.16,0,0,1,4.64-2.57,5.43,5.43,0,0,1,2.93.75,7.37,7.37,0,0,1,2.29,2.82A9.17,9.17,0,0,1,89.69,272.1Zm-2.9,0a6.67,6.67,0,0,0-1.3-4.1,2.49,2.49,0,0,0-2.1-1,2.57,2.57,0,0,0-2.13,1.06,6.33,6.33,0,0,0-1.25,4v3.16a6.6,6.6,0,0,0,1.32,4.1,2.45,2.45,0,0,0,2.09,1,2.55,2.55,0,0,0,2.12-1.07,6.29,6.29,0,0,0,1.25-4Z"/><path class="cls-2" d="M102.14,264.15v15.76h2.91a2.17,2.17,0,0,1,1.48.4,1.34,1.34,0,0,1,.44,1.05,1.31,1.31,0,0,1-.44,1,2.17,2.17,0,0,1-1.48.4h-8.7a2.17,2.17,0,0,1-1.48-.4,1.43,1.43,0,0,1,0-2.08,2.17,2.17,0,0,1,1.48-.4h2.91v-12l-2.57.67a4.11,4.11,0,0,1-.93.17,1.25,1.25,0,0,1-1-.44,1.49,1.49,0,0,1-.4-1.06,1.3,1.3,0,0,1,.3-.91,2.58,2.58,0,0,1,1.23-.58Z"/><path class="cls-2" d="M124.23,272.1v3.16a9.94,9.94,0,0,1-1.62,5.38,5.18,5.18,0,0,1-4.65,2.57,5.36,5.36,0,0,1-2.94-.76,7.24,7.24,0,0,1-2.28-2.83,9.22,9.22,0,0,1-1.07-4.36V272.1a10.06,10.06,0,0,1,1.61-5.38,5.16,5.16,0,0,1,4.64-2.57,5.43,5.43,0,0,1,2.93.75,7.37,7.37,0,0,1,2.29,2.82A9.17,9.17,0,0,1,124.23,272.1Zm-2.9,0A6.67,6.67,0,0,0,120,268a2.49,2.49,0,0,0-2.1-1,2.57,2.57,0,0,0-2.13,1.06,6.33,6.33,0,0,0-1.25,4v3.16a6.6,6.6,0,0,0,1.32,4.1,2.45,2.45,0,0,0,2.09,1,2.55,2.55,0,0,0,2.12-1.07,6.29,6.29,0,0,0,1.25-4Z"/><path class="cls-2" d="M141.5,272.1v3.16a9.87,9.87,0,0,1-1.63,5.38,5.16,5.16,0,0,1-4.64,2.57,5.36,5.36,0,0,1-2.94-.76,7.24,7.24,0,0,1-2.28-2.83,9.22,9.22,0,0,1-1.07-4.36V272.1a10,10,0,0,1,1.61-5.38,5.15,5.15,0,0,1,4.64-2.57,5.43,5.43,0,0,1,2.93.75,7.37,7.37,0,0,1,2.29,2.82A9.29,9.29,0,0,1,141.5,272.1Zm-2.9,0a6.67,6.67,0,0,0-1.3-4.1,2.49,2.49,0,0,0-2.1-1,2.57,2.57,0,0,0-2.13,1.06,6.33,6.33,0,0,0-1.25,4v3.16a6.6,6.6,0,0,0,1.32,4.1,2.44,2.44,0,0,0,2.09,1,2.55,2.55,0,0,0,2.12-1.07,6.29,6.29,0,0,0,1.25-4Z"/><path class="cls-2" d="M155.28,238.81v15.77h2.91a2.2,2.2,0,0,1,1.49.4,1.34,1.34,0,0,1,.44,1,1.35,1.35,0,0,1-.44,1,2.25,2.25,0,0,1-1.49.4h-8.7a2.24,2.24,0,0,1-1.48-.4,1.37,1.37,0,0,1-.44-1.05,1.33,1.33,0,0,1,.44-1,2.18,2.18,0,0,1,1.48-.4h2.91v-12l-2.57.68a4,4,0,0,1-.93.17A1.23,1.23,0,0,1,148,243a1.5,1.5,0,0,1-.4-1.07,1.28,1.28,0,0,1,.29-.9,2.67,2.67,0,0,1,1.24-.59Z"/><path class="cls-2" d="M177.37,246.76v3.17a10,10,0,0,1-1.62,5.38,5.18,5.18,0,0,1-4.64,2.57,5.4,5.4,0,0,1-3-.77,7.17,7.17,0,0,1-2.27-2.82,9.26,9.26,0,0,1-1.08-4.36v-3.17a10,10,0,0,1,1.62-5.37,5.15,5.15,0,0,1,4.63-2.58,5.32,5.32,0,0,1,2.93.76,7.38,7.38,0,0,1,2.3,2.82A9.27,9.27,0,0,1,177.37,246.76Zm-2.89,0a6.69,6.69,0,0,0-1.31-4.1,2.49,2.49,0,0,0-2.09-1,2.6,2.6,0,0,0-2.14,1.07,6.37,6.37,0,0,0-1.25,4v3.17A6.6,6.6,0,0,0,169,254a2.47,2.47,0,0,0,2.1,1,2.57,2.57,0,0,0,2.12-1.07,6.37,6.37,0,0,0,1.25-4Z"/><path class="cls-2" d="M189.82,238.81v15.77h2.91a2.2,2.2,0,0,1,1.49.4,1.34,1.34,0,0,1,.44,1,1.35,1.35,0,0,1-.44,1,2.25,2.25,0,0,1-1.49.4H184a2.24,2.24,0,0,1-1.48-.4,1.37,1.37,0,0,1-.44-1.05,1.33,1.33,0,0,1,.44-1,2.18,2.18,0,0,1,1.48-.4h2.91v-12l-2.57.68a4,4,0,0,1-.92.17,1.24,1.24,0,0,1-.95-.44,1.5,1.5,0,0,1-.4-1.07,1.28,1.28,0,0,1,.29-.9,2.67,2.67,0,0,1,1.24-.59Z"/><path class="cls-2" d="M211.91,246.76v3.17a10,10,0,0,1-1.62,5.38,5.18,5.18,0,0,1-4.64,2.57,5.37,5.37,0,0,1-3-.77,7.17,7.17,0,0,1-2.27-2.82,9.26,9.26,0,0,1-1.08-4.36v-3.17a10,10,0,0,1,1.62-5.37,5.15,5.15,0,0,1,4.63-2.58,5.32,5.32,0,0,1,2.93.76,7.28,7.28,0,0,1,2.29,2.82A9.16,9.16,0,0,1,211.91,246.76Zm-2.89,0a6.69,6.69,0,0,0-1.31-4.1,2.5,2.5,0,0,0-2.09-1,2.6,2.6,0,0,0-2.14,1.07,6.37,6.37,0,0,0-1.25,4v3.17a6.6,6.6,0,0,0,1.32,4.1,2.47,2.47,0,0,0,2.1,1,2.59,2.59,0,0,0,2.12-1.07,6.37,6.37,0,0,0,1.25-4Z"/><path class="cls-2" d="M160.1,297.16v3.16a9.94,9.94,0,0,1-1.62,5.38,5.16,5.16,0,0,1-4.64,2.57,5.39,5.39,0,0,1-3-.76,7.14,7.14,0,0,1-2.27-2.83,9.23,9.23,0,0,1-1.08-4.36v-3.16a10,10,0,0,1,1.62-5.38,5.14,5.14,0,0,1,4.63-2.57,5.41,5.41,0,0,1,2.93.75,7.38,7.38,0,0,1,2.3,2.82A9.28,9.28,0,0,1,160.1,297.16Zm-2.89,0a6.67,6.67,0,0,0-1.31-4.1,2.46,2.46,0,0,0-2.09-1,2.59,2.59,0,0,0-2.14,1.06,6.39,6.39,0,0,0-1.25,4v3.16a6.6,6.6,0,0,0,1.32,4.1,2.47,2.47,0,0,0,2.1,1,2.55,2.55,0,0,0,2.12-1.07,6.35,6.35,0,0,0,1.25-4Z"/><path class="cls-2" d="M172.55,289.21V305h2.91a2.2,2.2,0,0,1,1.49.4,1.37,1.37,0,0,1,.44,1.05,1.34,1.34,0,0,1-.44,1,2.2,2.2,0,0,1-1.49.4h-8.7a2.18,2.18,0,0,1-1.48-.4,1.45,1.45,0,0,1,0-2.08,2.18,2.18,0,0,1,1.48-.4h2.91V293l-2.57.67a4,4,0,0,1-.93.17,1.23,1.23,0,0,1-.94-.44,1.49,1.49,0,0,1-.4-1.06,1.29,1.29,0,0,1,.29-.91,2.68,2.68,0,0,1,1.24-.58Z"/><path class="cls-2" d="M189.82,289.21V305h2.91a2.2,2.2,0,0,1,1.49.4,1.37,1.37,0,0,1,.44,1.05,1.34,1.34,0,0,1-.44,1,2.2,2.2,0,0,1-1.49.4H184a2.18,2.18,0,0,1-1.48-.4,1.45,1.45,0,0,1,0-2.08A2.18,2.18,0,0,1,184,305h2.91V293l-2.57.67a4,4,0,0,1-.92.17,1.24,1.24,0,0,1-.95-.44,1.49,1.49,0,0,1-.4-1.06,1.29,1.29,0,0,1,.29-.91,2.68,2.68,0,0,1,1.24-.58Z"/><path class="cls-2" d="M211.91,297.16v3.16a9.94,9.94,0,0,1-1.62,5.38,5.16,5.16,0,0,1-4.64,2.57,5.37,5.37,0,0,1-3-.76,7.14,7.14,0,0,1-2.27-2.83,9.23,9.23,0,0,1-1.08-4.36v-3.16a10,10,0,0,1,1.62-5.38,5.14,5.14,0,0,1,4.63-2.57,5.41,5.41,0,0,1,2.93.75,7.28,7.28,0,0,1,2.29,2.82A9.17,9.17,0,0,1,211.91,297.16Zm-2.89,0a6.67,6.67,0,0,0-1.31-4.1,2.48,2.48,0,0,0-2.09-1,2.59,2.59,0,0,0-2.14,1.06,6.39,6.39,0,0,0-1.25,4v3.16a6.6,6.6,0,0,0,1.32,4.1,2.47,2.47,0,0,0,2.1,1,2.56,2.56,0,0,0,2.12-1.07,6.35,6.35,0,0,0,1.25-4Z"/><path class="cls-2" d="M160.1,272.1v3.16a9.94,9.94,0,0,1-1.62,5.38,5.16,5.16,0,0,1-4.64,2.57,5.39,5.39,0,0,1-3-.76,7.14,7.14,0,0,1-2.27-2.83,9.23,9.23,0,0,1-1.08-4.36V272.1a10,10,0,0,1,1.62-5.38,5.14,5.14,0,0,1,4.63-2.57,5.41,5.41,0,0,1,2.93.75,7.38,7.38,0,0,1,2.3,2.82A9.28,9.28,0,0,1,160.1,272.1Zm-2.89,0a6.67,6.67,0,0,0-1.31-4.1,2.46,2.46,0,0,0-2.09-1,2.59,2.59,0,0,0-2.14,1.06,6.39,6.39,0,0,0-1.25,4v3.16a6.6,6.6,0,0,0,1.32,4.1,2.47,2.47,0,0,0,2.1,1,2.55,2.55,0,0,0,2.12-1.07,6.35,6.35,0,0,0,1.25-4Z"/><path class="cls-2" d="M172.55,264.15v15.76h2.91a2.2,2.2,0,0,1,1.49.4,1.37,1.37,0,0,1,.44,1.05,1.34,1.34,0,0,1-.44,1,2.2,2.2,0,0,1-1.49.4h-8.7a2.18,2.18,0,0,1-1.48-.4,1.45,1.45,0,0,1,0-2.08,2.18,2.18,0,0,1,1.48-.4h2.91v-12l-2.57.67a4,4,0,0,1-.93.17,1.23,1.23,0,0,1-.94-.44,1.49,1.49,0,0,1-.4-1.06,1.29,1.29,0,0,1,.29-.91,2.68,2.68,0,0,1,1.24-.58Z"/><path class="cls-2" d="M194.64,272.1v3.16a9.94,9.94,0,0,1-1.62,5.38,5.16,5.16,0,0,1-4.64,2.57,5.39,5.39,0,0,1-2.95-.76,7.14,7.14,0,0,1-2.27-2.83,9.23,9.23,0,0,1-1.08-4.36V272.1a10,10,0,0,1,1.62-5.38,5.14,5.14,0,0,1,4.63-2.57,5.41,5.41,0,0,1,2.93.75,7.29,7.29,0,0,1,2.3,2.82A9.28,9.28,0,0,1,194.64,272.1Zm-2.89,0a6.67,6.67,0,0,0-1.31-4.1,2.46,2.46,0,0,0-2.09-1,2.59,2.59,0,0,0-2.14,1.06,6.39,6.39,0,0,0-1.25,4v3.16a6.6,6.6,0,0,0,1.32,4.1,2.47,2.47,0,0,0,2.1,1,2.55,2.55,0,0,0,2.12-1.07,6.35,6.35,0,0,0,1.25-4Z"/><path class="cls-2" d="M211.91,272.1v3.16a9.94,9.94,0,0,1-1.62,5.38,5.16,5.16,0,0,1-4.64,2.57,5.37,5.37,0,0,1-3-.76,7.14,7.14,0,0,1-2.27-2.83,9.23,9.23,0,0,1-1.08-4.36V272.1a10,10,0,0,1,1.62-5.38,5.14,5.14,0,0,1,4.63-2.57,5.41,5.41,0,0,1,2.93.75,7.28,7.28,0,0,1,2.29,2.82A9.17,9.17,0,0,1,211.91,272.1Zm-2.89,0a6.67,6.67,0,0,0-1.31-4.1,2.48,2.48,0,0,0-2.09-1,2.59,2.59,0,0,0-2.14,1.06,6.39,6.39,0,0,0-1.25,4v3.16a6.6,6.6,0,0,0,1.32,4.1,2.47,2.47,0,0,0,2.1,1,2.56,2.56,0,0,0,2.12-1.07,6.35,6.35,0,0,0,1.25-4Z"/><path class="cls-2" d="M84.88,162.6v15.77h2.91a2.17,2.17,0,0,1,1.48.4,1.35,1.35,0,0,1,.45,1,1.32,1.32,0,0,1-.45,1,2.17,2.17,0,0,1-1.48.4h-8.7a2.18,2.18,0,0,1-1.48-.4,1.37,1.37,0,0,1-.44-1,1.34,1.34,0,0,1,.44-1,2.18,2.18,0,0,1,1.48-.4H82v-12l-2.57.67a4,4,0,0,1-.93.17,1.27,1.27,0,0,1-1-.44,1.53,1.53,0,0,1-.4-1.06,1.3,1.3,0,0,1,.3-.91,2.67,2.67,0,0,1,1.24-.59Z"/><path class="cls-2" d="M107,170.56v3.16a9.94,9.94,0,0,1-1.62,5.38,5.18,5.18,0,0,1-4.64,2.57,5.37,5.37,0,0,1-2.95-.76,7.31,7.31,0,0,1-2.28-2.83,9.37,9.37,0,0,1-1.07-4.36v-3.16A10,10,0,0,1,96,165.18a5.15,5.15,0,0,1,4.63-2.58,5.41,5.41,0,0,1,2.93.76,7.28,7.28,0,0,1,2.29,2.82A9.17,9.17,0,0,1,107,170.56Zm-2.89,0a6.7,6.7,0,0,0-1.31-4.11,2.5,2.5,0,0,0-2.09-1,2.6,2.6,0,0,0-2.14,1.07,6.38,6.38,0,0,0-1.25,4v3.16a6.6,6.6,0,0,0,1.32,4.1,2.47,2.47,0,0,0,2.1,1,2.56,2.56,0,0,0,2.12-1.07,6.35,6.35,0,0,0,1.25-4Z"/><path class="cls-2" d="M119.42,162.6v15.77h2.91a2.17,2.17,0,0,1,1.48.4,1.35,1.35,0,0,1,.45,1,1.32,1.32,0,0,1-.45,1,2.17,2.17,0,0,1-1.48.4h-8.7a2.18,2.18,0,0,1-1.48-.4,1.37,1.37,0,0,1-.44-1,1.34,1.34,0,0,1,.44-1,2.18,2.18,0,0,1,1.48-.4h2.91v-12L114,167a4,4,0,0,1-.93.17,1.27,1.27,0,0,1-1-.44,1.53,1.53,0,0,1-.4-1.06,1.3,1.3,0,0,1,.3-.91,2.67,2.67,0,0,1,1.24-.59Z"/><path class="cls-2" d="M141.51,170.56v3.16a9.94,9.94,0,0,1-1.62,5.38,5.18,5.18,0,0,1-4.64,2.57,5.37,5.37,0,0,1-2.95-.76,7.31,7.31,0,0,1-2.28-2.83,9.37,9.37,0,0,1-1.07-4.36v-3.16a10,10,0,0,1,1.62-5.38,5.15,5.15,0,0,1,4.63-2.58,5.43,5.43,0,0,1,2.93.76,7.28,7.28,0,0,1,2.29,2.82A9.17,9.17,0,0,1,141.51,170.56Zm-2.89,0a6.7,6.7,0,0,0-1.31-4.11,2.5,2.5,0,0,0-2.09-1,2.6,2.6,0,0,0-2.14,1.07,6.38,6.38,0,0,0-1.25,4v3.16a6.6,6.6,0,0,0,1.32,4.1,2.47,2.47,0,0,0,2.1,1,2.56,2.56,0,0,0,2.12-1.07,6.35,6.35,0,0,0,1.25-4Z"/><path class="cls-2" d="M89.7,221v3.16a9.91,9.91,0,0,1-1.62,5.38,5.17,5.17,0,0,1-4.64,2.58,5.37,5.37,0,0,1-3-.77,7.24,7.24,0,0,1-2.28-2.83,9.34,9.34,0,0,1-1.07-4.36V221a9.93,9.93,0,0,1,1.62-5.37A5.15,5.15,0,0,1,83.39,213a5.32,5.32,0,0,1,2.93.76,7.16,7.16,0,0,1,2.29,2.81A9.2,9.2,0,0,1,89.7,221Zm-2.89,0a6.69,6.69,0,0,0-1.31-4.1,2.48,2.48,0,0,0-2.09-1A2.57,2.57,0,0,0,81.27,217,6.35,6.35,0,0,0,80,221v3.16a6.58,6.58,0,0,0,1.32,4.1,2.48,2.48,0,0,0,2.1,1,2.59,2.59,0,0,0,2.12-1.07,6.38,6.38,0,0,0,1.25-4Z"/><path class="cls-2" d="M102.15,213v15.76h2.91a2.22,2.22,0,0,1,1.48.4,1.35,1.35,0,0,1,.45,1.05,1.31,1.31,0,0,1-.45,1,2.17,2.17,0,0,1-1.48.4h-8.7a2.18,2.18,0,0,1-1.48-.4,1.34,1.34,0,0,1-.44-1,1.35,1.35,0,0,1,.44-1,2.24,2.24,0,0,1,1.48-.4h2.91v-12l-2.57.67a3.54,3.54,0,0,1-.93.17,1.26,1.26,0,0,1-1-.43,1.56,1.56,0,0,1-.4-1.07,1.3,1.3,0,0,1,.3-.91A2.68,2.68,0,0,1,96,214.6Z"/><path class="cls-2" d="M119.42,213v15.76h2.91a2.22,2.22,0,0,1,1.48.4,1.35,1.35,0,0,1,.45,1.05,1.31,1.31,0,0,1-.45,1,2.17,2.17,0,0,1-1.48.4h-8.7a2.18,2.18,0,0,1-1.48-.4,1.34,1.34,0,0,1-.44-1,1.35,1.35,0,0,1,.44-1,2.24,2.24,0,0,1,1.48-.4h2.91v-12l-2.57.67a3.54,3.54,0,0,1-.93.17,1.26,1.26,0,0,1-1-.43,1.56,1.56,0,0,1-.4-1.07,1.3,1.3,0,0,1,.3-.91,2.68,2.68,0,0,1,1.24-.58Z"/><path class="cls-2" d="M141.51,221v3.16a9.91,9.91,0,0,1-1.62,5.38,5.17,5.17,0,0,1-4.64,2.58,5.37,5.37,0,0,1-2.95-.77,7.24,7.24,0,0,1-2.28-2.83,9.34,9.34,0,0,1-1.07-4.36V221a9.93,9.93,0,0,1,1.62-5.37A5.15,5.15,0,0,1,135.2,213a5.35,5.35,0,0,1,2.93.76,7.16,7.16,0,0,1,2.29,2.81A9.2,9.2,0,0,1,141.51,221Zm-2.89,0a6.69,6.69,0,0,0-1.31-4.1,2.48,2.48,0,0,0-2.09-1,2.57,2.57,0,0,0-2.14,1.07,6.35,6.35,0,0,0-1.25,4v3.16a6.58,6.58,0,0,0,1.32,4.1,2.48,2.48,0,0,0,2.1,1,2.59,2.59,0,0,0,2.12-1.07,6.38,6.38,0,0,0,1.25-4Z"/><path class="cls-2" d="M89.7,195.89v3.16a9.91,9.91,0,0,1-1.62,5.38A5.17,5.17,0,0,1,83.44,207a5.37,5.37,0,0,1-3-.77,7.27,7.27,0,0,1-2.28-2.82,9.41,9.41,0,0,1-1.07-4.37v-3.16a9.93,9.93,0,0,1,1.62-5.37,5.15,5.15,0,0,1,4.63-2.58,5.32,5.32,0,0,1,2.93.76,7.16,7.16,0,0,1,2.29,2.81A9.2,9.2,0,0,1,89.7,195.89Zm-2.89,0a6.69,6.69,0,0,0-1.31-4.1,2.48,2.48,0,0,0-2.09-1,2.57,2.57,0,0,0-2.14,1.07,6.35,6.35,0,0,0-1.25,4v3.16a6.63,6.63,0,0,0,1.32,4.11,2.49,2.49,0,0,0,2.1,1,2.59,2.59,0,0,0,2.12-1.07,6.38,6.38,0,0,0,1.25-4Z"/><path class="cls-2" d="M102.15,187.94V203.7h2.91a2.22,2.22,0,0,1,1.48.4,1.35,1.35,0,0,1,.45,1.05,1.31,1.31,0,0,1-.45,1,2.17,2.17,0,0,1-1.48.4h-8.7a2.18,2.18,0,0,1-1.48-.4,1.34,1.34,0,0,1-.44-1,1.37,1.37,0,0,1,.44-1,2.24,2.24,0,0,1,1.48-.4h2.91v-12l-2.57.67a3.54,3.54,0,0,1-.93.17,1.26,1.26,0,0,1-1-.43,1.56,1.56,0,0,1-.4-1.07,1.3,1.3,0,0,1,.3-.91,2.68,2.68,0,0,1,1.24-.58Z"/><path class="cls-2" d="M124.24,195.89v3.16a9.91,9.91,0,0,1-1.62,5.38A5.17,5.17,0,0,1,118,207a5.37,5.37,0,0,1-3-.77,7.17,7.17,0,0,1-2.27-2.82,9.3,9.3,0,0,1-1.08-4.37v-3.16a9.93,9.93,0,0,1,1.62-5.37,5.15,5.15,0,0,1,4.63-2.58,5.32,5.32,0,0,1,2.93.76,7.16,7.16,0,0,1,2.29,2.81A9.2,9.2,0,0,1,124.24,195.89Zm-2.89,0a6.69,6.69,0,0,0-1.31-4.1,2.48,2.48,0,0,0-2.09-1,2.57,2.57,0,0,0-2.14,1.07,6.35,6.35,0,0,0-1.25,4v3.16a6.63,6.63,0,0,0,1.32,4.11,2.49,2.49,0,0,0,2.1,1,2.59,2.59,0,0,0,2.12-1.07,6.38,6.38,0,0,0,1.25-4Z"/><path class="cls-2" d="M141.51,195.89v3.16a9.91,9.91,0,0,1-1.62,5.38,5.17,5.17,0,0,1-4.64,2.58,5.37,5.37,0,0,1-2.95-.77,7.27,7.27,0,0,1-2.28-2.82,9.41,9.41,0,0,1-1.07-4.37v-3.16a9.93,9.93,0,0,1,1.62-5.37,5.15,5.15,0,0,1,4.63-2.58,5.35,5.35,0,0,1,2.93.76,7.16,7.16,0,0,1,2.29,2.81A9.2,9.2,0,0,1,141.51,195.89Zm-2.89,0a6.69,6.69,0,0,0-1.31-4.1,2.48,2.48,0,0,0-2.09-1,2.57,2.57,0,0,0-2.14,1.07,6.35,6.35,0,0,0-1.25,4v3.16a6.63,6.63,0,0,0,1.32,4.11,2.49,2.49,0,0,0,2.1,1,2.59,2.59,0,0,0,2.12-1.07,6.38,6.38,0,0,0,1.25-4Z"/><path class="cls-2" d="M155.3,162.6v15.77h2.91a2.18,2.18,0,0,1,1.48.4,1.37,1.37,0,0,1,.44,1,1.34,1.34,0,0,1-.44,1,2.18,2.18,0,0,1-1.48.4h-8.7a2.17,2.17,0,0,1-1.48-.4,1.35,1.35,0,0,1-.45-1,1.32,1.32,0,0,1,.45-1,2.17,2.17,0,0,1,1.48-.4h2.91v-12l-2.57.67a4.2,4.2,0,0,1-.93.17,1.25,1.25,0,0,1-.95-.44,1.49,1.49,0,0,1-.4-1.06,1.34,1.34,0,0,1,.29-.91,2.67,2.67,0,0,1,1.24-.59Z"/><path class="cls-2" d="M177.39,170.56v3.16a9.87,9.87,0,0,1-1.63,5.38,5.18,5.18,0,0,1-4.64,2.57,5.36,5.36,0,0,1-2.94-.76,7.31,7.31,0,0,1-2.28-2.83,9.25,9.25,0,0,1-1.07-4.36v-3.16a10,10,0,0,1,1.61-5.38,5.16,5.16,0,0,1,4.64-2.58,5.43,5.43,0,0,1,2.93.76,7.37,7.37,0,0,1,2.29,2.82A9.29,9.29,0,0,1,177.39,170.56Zm-2.9,0a6.69,6.69,0,0,0-1.3-4.11,2.52,2.52,0,0,0-2.1-1,2.58,2.58,0,0,0-2.13,1.07,6.32,6.32,0,0,0-1.25,4v3.16a6.6,6.6,0,0,0,1.32,4.1,2.44,2.44,0,0,0,2.09,1,2.55,2.55,0,0,0,2.12-1.07,6.29,6.29,0,0,0,1.25-4Z"/><path class="cls-2" d="M189.84,162.6v15.77h2.91a2.18,2.18,0,0,1,1.48.4,1.37,1.37,0,0,1,.44,1,1.34,1.34,0,0,1-.44,1,2.18,2.18,0,0,1-1.48.4h-8.7a2.17,2.17,0,0,1-1.48-.4,1.35,1.35,0,0,1-.45-1,1.32,1.32,0,0,1,.45-1,2.17,2.17,0,0,1,1.48-.4H187v-12l-2.57.67a4.2,4.2,0,0,1-.93.17,1.25,1.25,0,0,1-1-.44,1.49,1.49,0,0,1-.4-1.06,1.34,1.34,0,0,1,.29-.91,2.67,2.67,0,0,1,1.24-.59Z"/><path class="cls-2" d="M211.93,170.56v3.16a9.87,9.87,0,0,1-1.63,5.38,5.18,5.18,0,0,1-4.64,2.57,5.36,5.36,0,0,1-2.94-.76,7.22,7.22,0,0,1-2.28-2.83,9.26,9.26,0,0,1-1.08-4.36v-3.16a10,10,0,0,1,1.62-5.38,5.16,5.16,0,0,1,4.64-2.58,5.43,5.43,0,0,1,2.93.76,7.37,7.37,0,0,1,2.29,2.82A9.29,9.29,0,0,1,211.93,170.56Zm-2.9,0a6.64,6.64,0,0,0-1.31-4.11,2.49,2.49,0,0,0-2.09-1,2.58,2.58,0,0,0-2.13,1.07,6.32,6.32,0,0,0-1.25,4v3.16a6.54,6.54,0,0,0,1.32,4.1,2.44,2.44,0,0,0,2.09,1,2.55,2.55,0,0,0,2.12-1.07,6.29,6.29,0,0,0,1.25-4Z"/><path class="cls-2" d="M160.12,221v3.16a9.84,9.84,0,0,1-1.63,5.38,5.17,5.17,0,0,1-4.64,2.58,5.36,5.36,0,0,1-2.94-.77,7.24,7.24,0,0,1-2.28-2.83,9.22,9.22,0,0,1-1.07-4.36V221a9.92,9.92,0,0,1,1.61-5.37,5.16,5.16,0,0,1,4.64-2.58,5.35,5.35,0,0,1,2.93.76,7.25,7.25,0,0,1,2.29,2.81A9.32,9.32,0,0,1,160.12,221Zm-2.9,0a6.69,6.69,0,0,0-1.3-4.1,2.49,2.49,0,0,0-2.1-1,2.55,2.55,0,0,0-2.13,1.07,6.29,6.29,0,0,0-1.25,4v3.16a6.58,6.58,0,0,0,1.32,4.1,2.45,2.45,0,0,0,2.09,1,2.57,2.57,0,0,0,2.12-1.07,6.32,6.32,0,0,0,1.25-4Z"/><path class="cls-2" d="M172.57,213v15.76h2.91a2.24,2.24,0,0,1,1.48.4,1.37,1.37,0,0,1,.44,1.05,1.33,1.33,0,0,1-.44,1,2.18,2.18,0,0,1-1.48.4h-8.7a2.17,2.17,0,0,1-1.48-.4,1.31,1.31,0,0,1-.45-1,1.33,1.33,0,0,1,.45-1,2.22,2.22,0,0,1,1.48-.4h2.91v-12l-2.57.67a3.68,3.68,0,0,1-.93.17,1.24,1.24,0,0,1-.95-.43,1.51,1.51,0,0,1-.4-1.07,1.34,1.34,0,0,1,.29-.91,2.68,2.68,0,0,1,1.24-.58Z"/><path class="cls-2" d="M189.84,213v15.76h2.91a2.24,2.24,0,0,1,1.48.4,1.37,1.37,0,0,1,.44,1.05,1.33,1.33,0,0,1-.44,1,2.18,2.18,0,0,1-1.48.4h-8.7a2.17,2.17,0,0,1-1.48-.4,1.31,1.31,0,0,1-.45-1,1.33,1.33,0,0,1,.45-1,2.22,2.22,0,0,1,1.48-.4H187v-12l-2.57.67a3.68,3.68,0,0,1-.93.17,1.24,1.24,0,0,1-1-.43,1.51,1.51,0,0,1-.4-1.07,1.34,1.34,0,0,1,.29-.91,2.68,2.68,0,0,1,1.24-.58Z"/><path class="cls-2" d="M211.93,221v3.16a9.84,9.84,0,0,1-1.63,5.38,5.17,5.17,0,0,1-4.64,2.58,5.36,5.36,0,0,1-2.94-.77,7.15,7.15,0,0,1-2.28-2.83,9.23,9.23,0,0,1-1.08-4.36V221a9.93,9.93,0,0,1,1.62-5.37,5.16,5.16,0,0,1,4.64-2.58,5.35,5.35,0,0,1,2.93.76,7.25,7.25,0,0,1,2.29,2.81A9.32,9.32,0,0,1,211.93,221Zm-2.9,0a6.63,6.63,0,0,0-1.31-4.1,2.46,2.46,0,0,0-2.09-1A2.55,2.55,0,0,0,203.5,217a6.29,6.29,0,0,0-1.25,4v3.16a6.52,6.52,0,0,0,1.32,4.1,2.45,2.45,0,0,0,2.09,1,2.57,2.57,0,0,0,2.12-1.07,6.32,6.32,0,0,0,1.25-4Z"/><path class="cls-2" d="M160.12,195.89v3.16a9.84,9.84,0,0,1-1.63,5.38,5.17,5.17,0,0,1-4.64,2.58,5.36,5.36,0,0,1-2.94-.77,7.27,7.27,0,0,1-2.28-2.82,9.29,9.29,0,0,1-1.07-4.37v-3.16a9.92,9.92,0,0,1,1.61-5.37,5.16,5.16,0,0,1,4.64-2.58,5.35,5.35,0,0,1,2.93.76,7.25,7.25,0,0,1,2.29,2.81A9.32,9.32,0,0,1,160.12,195.89Zm-2.9,0a6.69,6.69,0,0,0-1.3-4.1,2.49,2.49,0,0,0-2.1-1,2.55,2.55,0,0,0-2.13,1.07,6.29,6.29,0,0,0-1.25,4v3.16a6.63,6.63,0,0,0,1.32,4.11,2.46,2.46,0,0,0,2.09,1,2.57,2.57,0,0,0,2.12-1.07,6.32,6.32,0,0,0,1.25-4Z"/><path class="cls-2" d="M172.57,187.94V203.7h2.91a2.24,2.24,0,0,1,1.48.4,1.37,1.37,0,0,1,.44,1.05,1.33,1.33,0,0,1-.44,1,2.18,2.18,0,0,1-1.48.4h-8.7a2.17,2.17,0,0,1-1.48-.4,1.31,1.31,0,0,1-.45-1,1.34,1.34,0,0,1,.45-1,2.22,2.22,0,0,1,1.48-.4h2.91v-12l-2.57.67a3.68,3.68,0,0,1-.93.17,1.24,1.24,0,0,1-.95-.43,1.51,1.51,0,0,1-.4-1.07,1.34,1.34,0,0,1,.29-.91,2.68,2.68,0,0,1,1.24-.58Z"/><path class="cls-2" d="M194.66,195.89v3.16a9.84,9.84,0,0,1-1.63,5.38,5.17,5.17,0,0,1-4.64,2.58,5.36,5.36,0,0,1-2.94-.77,7.27,7.27,0,0,1-2.28-2.82,9.29,9.29,0,0,1-1.07-4.37v-3.16a9.92,9.92,0,0,1,1.61-5.37,5.16,5.16,0,0,1,4.64-2.58,5.35,5.35,0,0,1,2.93.76,7.25,7.25,0,0,1,2.29,2.81A9.32,9.32,0,0,1,194.66,195.89Zm-2.9,0a6.69,6.69,0,0,0-1.3-4.1,2.49,2.49,0,0,0-2.1-1,2.55,2.55,0,0,0-2.13,1.07,6.29,6.29,0,0,0-1.25,4v3.16a6.63,6.63,0,0,0,1.32,4.11,2.46,2.46,0,0,0,2.09,1,2.57,2.57,0,0,0,2.12-1.07,6.32,6.32,0,0,0,1.25-4Z"/><path class="cls-2" d="M211.93,195.89v3.16a9.84,9.84,0,0,1-1.63,5.38,5.17,5.17,0,0,1-4.64,2.58,5.36,5.36,0,0,1-2.94-.77,7.18,7.18,0,0,1-2.28-2.82,9.3,9.3,0,0,1-1.08-4.37v-3.16a9.93,9.93,0,0,1,1.62-5.37,5.16,5.16,0,0,1,4.64-2.58,5.35,5.35,0,0,1,2.93.76,7.25,7.25,0,0,1,2.29,2.81A9.32,9.32,0,0,1,211.93,195.89Zm-2.9,0a6.63,6.63,0,0,0-1.31-4.1,2.46,2.46,0,0,0-2.09-1,2.55,2.55,0,0,0-2.13,1.07,6.29,6.29,0,0,0-1.25,4v3.16a6.57,6.57,0,0,0,1.32,4.11,2.46,2.46,0,0,0,2.09,1,2.57,2.57,0,0,0,2.12-1.07,6.32,6.32,0,0,0,1.25-4Z"/></g><path class="cls-3" d="M193.6,383.47s2.79,46.75,2.78,49,2.2,55.49,2.2,55.49H179.85"/><polyline class="cls-3" points="236.28 383.47 233.29 435.74 231.3 488.01 248.91 488.01"/><rect class="cls-2" x="126.36" y="257.82" width="171.26" height="38.29" rx="12"/><ellipse class="cls-4" cx="213.56" cy="386.28" rx="63.04" ry="27.19"/><ellipse class="cls-5" cx="212.92" cy="151.22" rx="75.26" ry="29.88"/><path class="cls-6" d="M137.66,151.22c0,16.5,33.69,29.88,75.26,29.88s75.25-13.38,75.25-29.88c0,0,.44,216.63,0,221.3-1.54,16.43-33.69,29.88-75.25,29.88S137.66,389,137.66,372.52Z"/><path class="cls-7" d="M150.52,370.35V167.91a66.26,66.26,0,0,0,7.91,3.89V393.1a66.26,66.26,0,0,1-7.91-3.89Z"/><path class="cls-7" d="M185.3,356.13V179c-2.72-.42-5.36-.91-7.91-1.45V398.8c2.55.54,5.19,1,7.91,1.45Z"/><path class="cls-7" d="M219.9,398.24V181.1c-2.3.08-4.63.13-7,.13H212v221.3h.93c2.36,0,4.69,0,7-.13Z"/><polygon class="cls-7" points="240.91 400.24 240.91 178.99 248.82 177.51 248.82 398.72 240.91 400.24"/><path class="cls-7" d="M268.69,373.76v18.52c2.37-1.14,6.33-3.3,7.91-4.3V167.23a83.69,83.69,0,0,1-7.91,4.05"/><path class="cls-2" d="M135,318v55c0,16.5,35.19,29.88,78.59,29.88s77-13.45,78.59-29.88c.15-1.54.2-25.9.2-57.93l-.2-37.78c0,16.5-35.19,29.88-78.59,29.88S135,293.75,135,277.25Z"/><path class="cls-8" d="M157.59,202.17a3.51,3.51,0,0,1-1.19-.21,3.47,3.47,0,0,1-2.07-4.45c3-8.2,12.82-16.41,25.91-16.41h.43a3.48,3.48,0,0,1,3.43,3.52,3.43,3.43,0,0,1-3.52,3.42h-.35c-11,0-17.7,7.23-19.38,11.84A3.47,3.47,0,0,1,157.59,202.17Z"/><path class="cls-8" d="M268.67,202.17a3.47,3.47,0,0,1-3.26-2.28c-1.7-4.66-8.55-12-19.73-11.85a3.47,3.47,0,1,1-.1-6.94H246c13.1,0,22.93,8.21,25.92,16.41a3.47,3.47,0,0,1-2.07,4.45A3.6,3.6,0,0,1,268.67,202.17Z"/><path class="cls-9" d="M174.3,258.05c0,.22,0,.44,0,.67,0,17.4,17.84,31.5,39.86,31.5S254,276.12,254,258.72c0-.23,0-.45,0-.67Z"/><path class="cls-10" d="M174.21,257.88c0,.22,0,.6,0,.83a25.62,25.62,0,0,0,2.39,10.75h75.14a25.61,25.61,0,0,0,2.38-10.75c0-.23,0-.61,0-.83Z"/><path class="cls-11" d="M214.14,290.22a46.62,46.62,0,0,0,24.92-6.92,30.84,30.84,0,0,0-4.75-3.93c-8.14-5.46-17.44-6.38-22.91-2.78-7.78-2.71-15.37-1.56-18.76,3.5a10.18,10.18,0,0,0-1.61,4.29A47.1,47.1,0,0,0,214.14,290.22Z"/><circle class="cls-10" cx="183.3" cy="223.66" r="20.04"/><path class="cls-9" d="M190.49,223.66a7.19,7.19,0,1,1-7.19-7.19A7.18,7.18,0,0,1,190.49,223.66Z"/><circle class="cls-10" cx="241.06" cy="223.66" r="20.04"/><path class="cls-9" d="M248.25,223.66a7.19,7.19,0,1,1-7.19-7.19A7.18,7.18,0,0,1,248.25,223.66Z"/><path class="cls-10" d="M178.75,354.37a35.24,35.24,0,0,1,60.16-24.92,35.24,35.24,0,1,1-49.83,49.83A33.92,33.92,0,0,1,178.75,354.37Zm3.86,0a31.35,31.35,0,0,0,53.55,22.16,31.35,31.35,0,1,0-44.33-44.33A30.22,30.22,0,0,0,182.61,354.37Zm9.91,7.57a.34.34,0,0,1,0-.55,1.48,1.48,0,0,1,1.37-.42,2.52,2.52,0,0,1,1,.28,6.07,6.07,0,0,1,2.13,1.86,13.63,13.63,0,0,0,1.86,2,5.12,5.12,0,0,0,6.75.42,4.1,4.1,0,0,1,.89-1.66,4.16,4.16,0,0,1,1.17-1c.37-.18,1-.46,1.93-.83a25.48,25.48,0,0,1-7.37-1.58,12.38,12.38,0,0,1-4.47-3,11.6,11.6,0,0,1-2.69-6.47,16.62,16.62,0,0,1,.62-7.29,12.06,12.06,0,0,1,2.34-3.72,12.36,12.36,0,0,1,.42-7.85,14.38,14.38,0,0,1,8,3,30.23,30.23,0,0,1,14.32-.14,27.41,27.41,0,0,1,3-1.72,12.34,12.34,0,0,1,5-1.17,14.89,14.89,0,0,1,.76,3.58,11.68,11.68,0,0,1-.21,3.86,12.73,12.73,0,0,1,3.31,8.81,15.6,15.6,0,0,1-1.52,7.29,11.6,11.6,0,0,1-5.37,4.82,18.92,18.92,0,0,1-6.88,1.51,9.06,9.06,0,0,1,2.82,2,6,6,0,0,1,1.17,3.24v4.33l.14,4.2a5.09,5.09,0,0,0,1,1.17,5,5,0,0,0,1,.69.47.47,0,0,1,.27.62c-.09.27-.46.41-1.1.41a4.6,4.6,0,0,1-3.72-1.65,3.2,3.2,0,0,1-.41-1.65v-6.61a2,2,0,0,0-.55-1.58,2.68,2.68,0,0,0-1.1-.62v8.67a5.41,5.41,0,0,0,.55,3,3.23,3.23,0,0,1,.69,1.37q.13.15-.21.21a2.53,2.53,0,0,1-1.17-.21,3.41,3.41,0,0,1-2.48-1.85,7.27,7.27,0,0,1-.68-3.1V366.2h-1.79v8.54a7.57,7.57,0,0,1-.69,3.17A3.88,3.88,0,0,1,208.9,380c-.28-.09-.41-.18-.41-.28a12.63,12.63,0,0,0,.82-1.37,6.84,6.84,0,0,0,.35-1.1,8.48,8.48,0,0,0,.2-1.93v-8.67a2.25,2.25,0,0,0-1,.62,2.18,2.18,0,0,0-.48,1.58v6.61a3.2,3.2,0,0,1-.41,1.65,4.37,4.37,0,0,1-3.72,1.65c-.64,0-1-.14-1.1-.41a.38.38,0,0,1,.07-.48,3.8,3.8,0,0,1,.62-.49,5.1,5.1,0,0,0,.55-.41,2.48,2.48,0,0,0,.82-1.1c.28-.37.35-1.33.21-2.89a13.9,13.9,0,0,1-.07-3,8,8,0,0,1-7.3-1.24,13.75,13.75,0,0,1-2.2-3.16,13.76,13.76,0,0,0-3.3-3.58Z"/><g id="mask"><circle class="cls-12" cx="242.09" cy="223.43" r="24.42" transform="matrix(0.99, -0.16, 0.16, 0.99, -32.66, 41.66)"/><circle class="cls-13" cx="182.95" cy="223.43" r="24.42" transform="translate(-78.51 346.02) rotate(-75.81)"/><polygon class="cls-14" points="157.53 223.86 137.66 214.55 137.66 210.28 158.91 220.94 157.53 223.86"/><polygon class="cls-14" points="267.42 223.86 288.37 214.53 288.37 210.99 266.05 220.94 267.42 223.86"/><path class="cls-14" d="M156.91,223.64a26.06,26.06,0,0,0,51.77,4.27l.12-.75h7.53l.13.75a26,26,0,1,0-.34-5.13l0,.86H209l0-.86a26.06,26.06,0,0,0-52.1.86Zm69.31-15.94a22.55,22.55,0,1,1,31.88,31.89h0a22.55,22.55,0,1,1-31.88-31.89ZM183,201.1a22.55,22.55,0,0,1,16,38.49h0a22.55,22.55,0,1,1-16-38.49Z"/><path class="cls-15" d="M224.77,212.74c3.54-5.34,7.14-6.8,7.14-6.8l2.78,2.11a22.1,22.1,0,0,0-5.73,6.29,19.08,19.08,0,0,0-2.61,7l-4.6-.9A17.83,17.83,0,0,1,224.77,212.74Z"/><path class="cls-16" d="M165.65,212.74c3.54-5.34,7-6.8,7-6.8l2.92,2.11a22,22,0,0,0-5.74,6.29,19.31,19.31,0,0,0-2.61,7l-4.6-.9A17.83,17.83,0,0,1,165.65,212.74Z"/></g><path class="cls-3" d="M138.65,303.09h0s-29.53,20.56-23.4,34.21"/><path class="cls-17" d="M73.18,356.65l0,.07h0s0,0,0-.06m-.08-.79a2.28,2.28,0,0,0,0,.37,2.29,2.29,0,0,1,0-.37"/><path class="cls-18" d="M21,303.61c-.89-1.34-1.43-4.15,3.78-5.29C30.51,297.05,21.65,304.58,21,303.61Z"/><polyline class="cls-19" points="136.76 338.1 173.35 326.79 69.85 348.42 136.76 338.1"/><rect class="cls-18" x="133.59" y="332.18" width="42.71" height="4.27" rx="1.6" transform="translate(-86.47 55.94) rotate(-16.07)"/><path class="cls-20" d="M134.59,340.8v0a1.74,1.74,0,0,0,2.25.92L174.23,331a1.75,1.75,0,0,0,1.42-2v0Z"/><polyline class="cls-21" points="137.48 333.81 138.06 334.67 138.29 335 173.35 326.79 137.48 333.81"/><path class="cls-22" d="M139,336.07s2,3.29-2.46,5.69C132.83,343.73,136.12,336.86,139,336.07Z"/><path class="cls-18" d="M136.91,340.05,61.35,356.34a2.88,2.88,0,0,1-3-1.21L23,302.75a2.88,2.88,0,0,1,1.78-4.43L100.34,282a2.9,2.9,0,0,1,3,1.21l35.36,52.38a2.89,2.89,0,0,1-1.79,4.44"/><path class="cls-23" d="M135.7,342.07,60.13,358.36a2.87,2.87,0,0,1-3-1.21L21.06,303.72a2,2,0,0,1,1.25-3.11l76.81-16.56a2.89,2.89,0,0,1,3,1.2l35.36,52.38a2.89,2.89,0,0,1-1.78,4.44"/><polyline class="cls-24" points="115.04 304.39 116.65 306.77 115.04 304.39"/><polyline class="cls-25" points="101.08 349.53 101.08 349.53 101.11 349.52 101.11 349.52 101.08 349.53"/><polygon class="cls-18" points="76.27 316.86 76.06 320.67 77.2 320.92 77.28 319.5 81.19 323.68 81.39 319.87 80.22 319.61 80.15 320.99 76.27 316.86"/><path class="cls-18" d="M83.21,316.26a10.12,10.12,0,0,0-2.54-1.46,9.68,9.68,0,0,0-2.81-.67,7.6,7.6,0,0,0-2.76.26,5.43,5.43,0,0,0-2.19,1.17,4.45,4.45,0,0,0-1.24,1.83,4.72,4.72,0,0,0-.19,2.25,6.31,6.31,0,0,0,.93,2.41,8.65,8.65,0,0,0,1.94,2.13,10.24,10.24,0,0,0,2.53,1.46,9.75,9.75,0,0,0,2.81.67,7.88,7.88,0,0,0,2.77-.26,5.56,5.56,0,0,0,2.19-1.17,4.34,4.34,0,0,0,1.23-1.83,4.72,4.72,0,0,0,.2-2.25,6.33,6.33,0,0,0-.94-2.41A8.43,8.43,0,0,0,83.21,316.26Zm-1.33,9L78,321.12l0,.55-2.71-.58.33-5.84,3.92,4.17,0-.56,2.64.57Z"/><line class="cls-3" x1="100.29" y1="349.11" x2="87.48" y2="351.63"/><line class="cls-3" x1="94.25" y1="349.68" x2="91.79" y2="346"/><line class="cls-3" x1="87.48" y1="351.63" x2="85.02" y2="347.95"/><line class="cls-3" x1="100.93" y1="348.87" x2="98.47" y2="345.19"/><path class="cls-3" d="M328.66,344.86h0s-25.36,1.83-32.21-11.48c-10.12-19.68-10.13-30.16-10.13-30.16"/><line class="cls-3" x1="333.33" y1="346.59" x2="324.94" y2="346.75"/><line class="cls-3" x1="333.53" y1="340.58" x2="325.14" y2="340.75"/><line class="cls-3" x1="324.4" y1="330.38" x2="323.8" y2="350.12"/><line class="cls-3" x1="333.33" y1="350.2" x2="324.94" y2="350.36"/><path class="cls-26" d="M267.86,171.64c-1.79-37.4-105.39-36-108.72.49C186.41,184.33,240.8,183.94,267.86,171.64Z"/></svg>