<svg id="Layer_1" data-name="Layer 1" xmlns="http://www.w3.org/2000/svg" xmlns:xlink="http://www.w3.org/1999/xlink" viewBox="0 0 432 576"><defs><style>.cls-1{opacity:0.05;}.cls-2{fill:#040d21;}.cls-3{fill:none;stroke:#000;stroke-linecap:round;stroke-linejoin:round;stroke-width:8px;}.cls-4{fill:#007d9c;}.cls-5{fill:#2d313f;}.cls-6{fill:#feaf06;}.cls-7{fill:#fbd82b;}.cls-8{fill:#ffe278;}.cls-9{fill:url(#radial-gradient);}.cls-10{fill:#b57817;}.cls-11{fill:#701d1d;}.cls-12,.cls-17,.cls-18{fill:#fff;}.cls-13{fill:#f70000;}.cls-14,.cls-15{opacity:0.2;}.cls-14{fill:url(#linear-gradient);}.cls-15{fill:url(#linear-gradient-2);}.cls-16{fill:#0062b2;}.cls-17{opacity:0.6;}.cls-18{opacity:0.7;}.cls-19{fill:#f2f2f2;}.cls-20{fill:#c9c9c9;}.cls-21{fill:#677077;}.cls-22{fill:#b8b8b8;}.cls-23{fill:#858d92;}.cls-24{fill:#ccc;}.cls-25{fill:#ededed;}.cls-26{fill:#d9d9d9;}.cls-27{fill:#b4b4b4;}.cls-28{fill:#fefefe;}</style><radialGradient id="radial-gradient" cx="212.18" cy="177.32" r="55.03" gradientTransform="translate(-117.04 389.49) rotate(-90) scale(1 1.86)" gradientUnits="userSpaceOnUse"><stop offset="0" stop-color="#f7991f"/><stop offset="0.67" stop-color="#feaf06"/></radialGradient><linearGradient id="linear-gradient" x1="241.15" y1="246.86" x2="241.15" y2="198.03" gradientTransform="translate(38.75 -35.76) rotate(9.22)" gradientUnits="userSpaceOnUse"><stop offset="0.36" stop-color="#fff"/><stop offset="0.42" stop-color="#f5f9fc"/><stop offset="0.51" stop-color="#dae8f4"/><stop offset="0.62" stop-color="#aecde6"/><stop offset="0.76" stop-color="#70a7d4"/><stop offset="0.92" stop-color="#2378bd"/><stop offset="0.99" stop-color="#0062b2"/></linearGradient><linearGradient id="linear-gradient-2" x1="182.02" y1="246.86" x2="182.02" y2="198.03" gradientTransform="translate(353.05 -8.55) rotate(75.81)" xlink:href="#linear-gradient"/></defs><g class="cls-1"><path class="cls-2" d="M224.71,237.83V253.6h2.91a2.18,2.18,0,0,1,1.48.4,1.34,1.34,0,0,1,.44,1,1.37,1.37,0,0,1-.44,1,2.24,2.24,0,0,1-1.48.4h-8.7a2.22,2.22,0,0,1-1.48-.4,1.35,1.35,0,0,1-.45-1,1.31,1.31,0,0,1,.45-1,2.17,2.17,0,0,1,1.48-.4h2.91v-12l-2.57.68a4,4,0,0,1-.93.16,1.24,1.24,0,0,1-1-.43,1.51,1.51,0,0,1-.4-1.07,1.36,1.36,0,0,1,.29-.91,2.68,2.68,0,0,1,1.24-.58Z"/><path class="cls-2" d="M246.8,245.78v3.16a9.9,9.9,0,0,1-1.63,5.39,5.18,5.18,0,0,1-4.64,2.57,5.36,5.36,0,0,1-2.94-.77,7.27,7.27,0,0,1-2.28-2.82,9.26,9.26,0,0,1-1.07-4.37v-3.16a9.94,9.94,0,0,1,1.61-5.37,5.17,5.17,0,0,1,4.64-2.58,5.35,5.35,0,0,1,2.93.76,7.21,7.21,0,0,1,2.29,2.82A9.28,9.28,0,0,1,246.8,245.78Zm-2.9,0a6.69,6.69,0,0,0-1.3-4.1,2.49,2.49,0,0,0-2.1-1,2.58,2.58,0,0,0-2.13,1.07,6.31,6.31,0,0,0-1.25,4v3.16a6.61,6.61,0,0,0,1.32,4.11,2.46,2.46,0,0,0,2.09,1,2.57,2.57,0,0,0,2.12-1.07,6.32,6.32,0,0,0,1.25-4Z"/><path class="cls-2" d="M259.25,237.83V253.6h2.91a2.18,2.18,0,0,1,1.48.4,1.3,1.3,0,0,1,.44,1,1.33,1.33,0,0,1-.44,1,2.24,2.24,0,0,1-1.48.4h-8.7a2.22,2.22,0,0,1-1.48-.4,1.35,1.35,0,0,1-.45-1,1.31,1.31,0,0,1,.45-1,2.17,2.17,0,0,1,1.48-.4h2.91v-12l-2.57.68a4,4,0,0,1-.93.16,1.24,1.24,0,0,1-1-.43,1.51,1.51,0,0,1-.4-1.07,1.36,1.36,0,0,1,.29-.91,2.68,2.68,0,0,1,1.24-.58Z"/><path class="cls-2" d="M281.34,245.78v3.16a9.9,9.9,0,0,1-1.63,5.39,5.18,5.18,0,0,1-4.64,2.57,5.36,5.36,0,0,1-2.94-.77,7.18,7.18,0,0,1-2.28-2.82,9.26,9.26,0,0,1-1.07-4.37v-3.16a9.94,9.94,0,0,1,1.61-5.37,5.16,5.16,0,0,1,4.64-2.58,5.35,5.35,0,0,1,2.93.76,7.21,7.21,0,0,1,2.29,2.82A9.28,9.28,0,0,1,281.34,245.78Zm-2.9,0a6.69,6.69,0,0,0-1.3-4.1,2.49,2.49,0,0,0-2.1-1,2.58,2.58,0,0,0-2.13,1.07,6.31,6.31,0,0,0-1.25,4v3.16a6.61,6.61,0,0,0,1.32,4.11,2.46,2.46,0,0,0,2.09,1,2.57,2.57,0,0,0,2.12-1.07,6.32,6.32,0,0,0,1.25-4Z"/><path class="cls-2" d="M229.53,296.18v3.16a9.87,9.87,0,0,1-1.63,5.38,5.18,5.18,0,0,1-4.64,2.57,5.36,5.36,0,0,1-2.94-.76A7.31,7.31,0,0,1,218,303.7a9.25,9.25,0,0,1-1.07-4.36v-3.16a10,10,0,0,1,1.61-5.38,5.16,5.16,0,0,1,4.64-2.58,5.43,5.43,0,0,1,2.93.76,7.37,7.37,0,0,1,2.29,2.82A9.29,9.29,0,0,1,229.53,296.18Zm-2.9,0a6.69,6.69,0,0,0-1.3-4.11,2.52,2.52,0,0,0-2.1-1,2.58,2.58,0,0,0-2.13,1.07,6.32,6.32,0,0,0-1.25,4v3.16a6.6,6.6,0,0,0,1.32,4.1,2.44,2.44,0,0,0,2.09,1,2.57,2.57,0,0,0,2.12-1.07,6.29,6.29,0,0,0,1.25-4Z"/><path class="cls-2" d="M242,288.22V304h2.91a2.18,2.18,0,0,1,1.48.4,1.34,1.34,0,0,1,.44,1.05,1.31,1.31,0,0,1-.44,1,2.18,2.18,0,0,1-1.48.4h-8.7a2.17,2.17,0,0,1-1.48-.4,1.35,1.35,0,0,1-.45-1.05,1.32,1.32,0,0,1,.45-1,2.17,2.17,0,0,1,1.48-.4h2.91V292l-2.57.68a4.2,4.2,0,0,1-.93.17,1.25,1.25,0,0,1-.95-.44,1.5,1.5,0,0,1-.4-1.07,1.33,1.33,0,0,1,.29-.9,2.67,2.67,0,0,1,1.24-.59Z"/><path class="cls-2" d="M259.25,288.22V304h2.91a2.18,2.18,0,0,1,1.48.4,1.34,1.34,0,0,1,.44,1.05,1.31,1.31,0,0,1-.44,1,2.18,2.18,0,0,1-1.48.4h-8.7a2.17,2.17,0,0,1-1.48-.4,1.35,1.35,0,0,1-.45-1.05,1.32,1.32,0,0,1,.45-1,2.17,2.17,0,0,1,1.48-.4h2.91V292l-2.57.68a4.2,4.2,0,0,1-.93.17,1.25,1.25,0,0,1-1-.44,1.5,1.5,0,0,1-.4-1.07,1.33,1.33,0,0,1,.29-.9,2.67,2.67,0,0,1,1.24-.59Z"/><path class="cls-2" d="M281.34,296.18v3.16a9.87,9.87,0,0,1-1.63,5.38,5.18,5.18,0,0,1-4.64,2.57,5.36,5.36,0,0,1-2.94-.76,7.22,7.22,0,0,1-2.28-2.83,9.25,9.25,0,0,1-1.07-4.36v-3.16a10,10,0,0,1,1.61-5.38,5.16,5.16,0,0,1,4.64-2.58A5.43,5.43,0,0,1,278,289a7.37,7.37,0,0,1,2.29,2.82A9.29,9.29,0,0,1,281.34,296.18Zm-2.9,0a6.69,6.69,0,0,0-1.3-4.11,2.52,2.52,0,0,0-2.1-1,2.58,2.58,0,0,0-2.13,1.07,6.32,6.32,0,0,0-1.25,4v3.16a6.6,6.6,0,0,0,1.32,4.1,2.44,2.44,0,0,0,2.09,1,2.57,2.57,0,0,0,2.12-1.07,6.29,6.29,0,0,0,1.25-4Z"/><path class="cls-2" d="M229.53,271.12v3.16a9.87,9.87,0,0,1-1.63,5.38,5.18,5.18,0,0,1-4.64,2.57,5.36,5.36,0,0,1-2.94-.76,7.31,7.31,0,0,1-2.28-2.83,9.25,9.25,0,0,1-1.07-4.36v-3.16a10,10,0,0,1,1.61-5.38,5.16,5.16,0,0,1,4.64-2.58,5.43,5.43,0,0,1,2.93.76,7.37,7.37,0,0,1,2.29,2.82A9.29,9.29,0,0,1,229.53,271.12Zm-2.9,0a6.69,6.69,0,0,0-1.3-4.11,2.52,2.52,0,0,0-2.1-1,2.58,2.58,0,0,0-2.13,1.07,6.32,6.32,0,0,0-1.25,4v3.16a6.6,6.6,0,0,0,1.32,4.1,2.44,2.44,0,0,0,2.09,1,2.55,2.55,0,0,0,2.12-1.07,6.29,6.29,0,0,0,1.25-4Z"/><path class="cls-2" d="M242,263.16v15.77h2.91a2.18,2.18,0,0,1,1.48.4,1.34,1.34,0,0,1,.44,1.05,1.31,1.31,0,0,1-.44,1,2.18,2.18,0,0,1-1.48.4h-8.7a2.17,2.17,0,0,1-1.48-.4,1.35,1.35,0,0,1-.45-1.05,1.32,1.32,0,0,1,.45-1,2.17,2.17,0,0,1,1.48-.4h2.91v-12l-2.57.67a4.2,4.2,0,0,1-.93.17,1.25,1.25,0,0,1-.95-.44,1.5,1.5,0,0,1-.4-1.07,1.33,1.33,0,0,1,.29-.9,2.67,2.67,0,0,1,1.24-.59Z"/><path class="cls-2" d="M264.07,271.12v3.16a9.87,9.87,0,0,1-1.63,5.38,5.18,5.18,0,0,1-4.64,2.57,5.36,5.36,0,0,1-2.94-.76,7.31,7.31,0,0,1-2.28-2.83,9.25,9.25,0,0,1-1.07-4.36v-3.16a10,10,0,0,1,1.61-5.38,5.17,5.17,0,0,1,4.64-2.58,5.43,5.43,0,0,1,2.93.76,7.37,7.37,0,0,1,2.29,2.82A9.17,9.17,0,0,1,264.07,271.12Zm-2.9,0a6.69,6.69,0,0,0-1.3-4.11,2.52,2.52,0,0,0-2.1-1,2.58,2.58,0,0,0-2.13,1.07,6.32,6.32,0,0,0-1.25,4v3.16a6.6,6.6,0,0,0,1.32,4.1,2.44,2.44,0,0,0,2.09,1,2.55,2.55,0,0,0,2.12-1.07,6.29,6.29,0,0,0,1.25-4Z"/><path class="cls-2" d="M281.34,271.12v3.16a9.87,9.87,0,0,1-1.63,5.38,5.18,5.18,0,0,1-4.64,2.57,5.36,5.36,0,0,1-2.94-.76,7.22,7.22,0,0,1-2.28-2.83,9.25,9.25,0,0,1-1.07-4.36v-3.16a10,10,0,0,1,1.61-5.38,5.16,5.16,0,0,1,4.64-2.58,5.43,5.43,0,0,1,2.93.76,7.37,7.37,0,0,1,2.29,2.82A9.29,9.29,0,0,1,281.34,271.12Zm-2.9,0a6.69,6.69,0,0,0-1.3-4.11,2.52,2.52,0,0,0-2.1-1,2.58,2.58,0,0,0-2.13,1.07,6.32,6.32,0,0,0-1.25,4v3.16a6.6,6.6,0,0,0,1.32,4.1,2.44,2.44,0,0,0,2.09,1,2.55,2.55,0,0,0,2.12-1.07,6.29,6.29,0,0,0,1.25-4Z"/><path class="cls-2" d="M295.12,237.83V253.6H298a2.15,2.15,0,0,1,1.48.4,1.31,1.31,0,0,1,.45,1,1.34,1.34,0,0,1-.45,1,2.2,2.2,0,0,1-1.48.4h-8.7a2.24,2.24,0,0,1-1.48-.4,1.37,1.37,0,0,1-.44-1,1.33,1.33,0,0,1,.44-1,2.18,2.18,0,0,1,1.48-.4h2.91v-12l-2.57.68a3.88,3.88,0,0,1-.93.16,1.22,1.22,0,0,1-.94-.43,1.51,1.51,0,0,1-.4-1.07,1.31,1.31,0,0,1,.29-.91,2.68,2.68,0,0,1,1.24-.58Z"/><path class="cls-2" d="M317.21,245.78v3.16a10,10,0,0,1-1.62,5.39A5.18,5.18,0,0,1,311,256.9a5.37,5.37,0,0,1-2.95-.77,7.17,7.17,0,0,1-2.27-2.82,9.27,9.27,0,0,1-1.08-4.37v-3.16a10,10,0,0,1,1.62-5.37,5.15,5.15,0,0,1,4.63-2.58,5.32,5.32,0,0,1,2.93.76,7.13,7.13,0,0,1,2.29,2.82A9.16,9.16,0,0,1,317.21,245.78Zm-2.89,0a6.69,6.69,0,0,0-1.31-4.1,2.48,2.48,0,0,0-2.09-1,2.6,2.6,0,0,0-2.14,1.07,6.37,6.37,0,0,0-1.25,4v3.16a6.61,6.61,0,0,0,1.32,4.11,2.49,2.49,0,0,0,2.1,1,2.59,2.59,0,0,0,2.12-1.07,6.38,6.38,0,0,0,1.25-4Z"/><path class="cls-2" d="M329.66,237.83V253.6h2.91a2.15,2.15,0,0,1,1.48.4,1.31,1.31,0,0,1,.45,1,1.34,1.34,0,0,1-.45,1,2.2,2.2,0,0,1-1.48.4h-8.7a2.24,2.24,0,0,1-1.48-.4,1.37,1.37,0,0,1-.44-1,1.33,1.33,0,0,1,.44-1,2.18,2.18,0,0,1,1.48-.4h2.91v-12l-2.57.68a3.88,3.88,0,0,1-.93.16,1.22,1.22,0,0,1-.94-.43,1.51,1.51,0,0,1-.4-1.07,1.31,1.31,0,0,1,.29-.91,2.68,2.68,0,0,1,1.24-.58Z"/><path class="cls-2" d="M351.75,245.78v3.16a10,10,0,0,1-1.62,5.39,5.18,5.18,0,0,1-4.64,2.57,5.37,5.37,0,0,1-2.95-.77,7.27,7.27,0,0,1-2.28-2.82,9.38,9.38,0,0,1-1.07-4.37v-3.16a10,10,0,0,1,1.62-5.37,5.15,5.15,0,0,1,4.63-2.58,5.35,5.35,0,0,1,2.93.76,7.13,7.13,0,0,1,2.29,2.82A9.16,9.16,0,0,1,351.75,245.78Zm-2.89,0a6.69,6.69,0,0,0-1.31-4.1,2.48,2.48,0,0,0-2.09-1,2.6,2.6,0,0,0-2.14,1.07,6.37,6.37,0,0,0-1.25,4v3.16a6.61,6.61,0,0,0,1.32,4.11,2.49,2.49,0,0,0,2.1,1,2.59,2.59,0,0,0,2.12-1.07,6.38,6.38,0,0,0,1.25-4Z"/><path class="cls-2" d="M299.94,296.18v3.16a9.94,9.94,0,0,1-1.62,5.38,5.18,5.18,0,0,1-4.64,2.57,5.37,5.37,0,0,1-2.95-.76,7.21,7.21,0,0,1-2.27-2.83,9.26,9.26,0,0,1-1.08-4.36v-3.16A10,10,0,0,1,289,290.8a5.15,5.15,0,0,1,4.63-2.58,5.41,5.41,0,0,1,2.93.76,7.28,7.28,0,0,1,2.29,2.82A9.17,9.17,0,0,1,299.94,296.18Zm-2.89,0a6.7,6.7,0,0,0-1.31-4.11,2.5,2.5,0,0,0-2.09-1,2.6,2.6,0,0,0-2.14,1.07,6.38,6.38,0,0,0-1.25,4v3.16a6.6,6.6,0,0,0,1.32,4.1,2.47,2.47,0,0,0,2.1,1,2.59,2.59,0,0,0,2.12-1.07,6.35,6.35,0,0,0,1.25-4Z"/><path class="cls-2" d="M312.39,288.22V304h2.91a2.15,2.15,0,0,1,1.48.4,1.35,1.35,0,0,1,.45,1.05,1.32,1.32,0,0,1-.45,1,2.15,2.15,0,0,1-1.48.4h-8.7a2.18,2.18,0,0,1-1.48-.4,1.37,1.37,0,0,1-.44-1.05,1.34,1.34,0,0,1,.44-1,2.18,2.18,0,0,1,1.48-.4h2.91V292l-2.57.68a4,4,0,0,1-.93.17,1.23,1.23,0,0,1-.94-.44,1.5,1.5,0,0,1-.4-1.07,1.28,1.28,0,0,1,.29-.9,2.67,2.67,0,0,1,1.24-.59Z"/><path class="cls-2" d="M329.66,288.22V304h2.91a2.15,2.15,0,0,1,1.48.4,1.35,1.35,0,0,1,.45,1.05,1.32,1.32,0,0,1-.45,1,2.15,2.15,0,0,1-1.48.4h-8.7a2.18,2.18,0,0,1-1.48-.4,1.37,1.37,0,0,1-.44-1.05,1.34,1.34,0,0,1,.44-1,2.18,2.18,0,0,1,1.48-.4h2.91V292l-2.57.68a4,4,0,0,1-.93.17,1.23,1.23,0,0,1-.94-.44,1.5,1.5,0,0,1-.4-1.07,1.28,1.28,0,0,1,.29-.9,2.67,2.67,0,0,1,1.24-.59Z"/><path class="cls-2" d="M351.75,296.18v3.16a9.94,9.94,0,0,1-1.62,5.38,5.18,5.18,0,0,1-4.64,2.57,5.37,5.37,0,0,1-2.95-.76,7.31,7.31,0,0,1-2.28-2.83,9.37,9.37,0,0,1-1.07-4.36v-3.16a10,10,0,0,1,1.62-5.38,5.15,5.15,0,0,1,4.63-2.58,5.43,5.43,0,0,1,2.93.76,7.28,7.28,0,0,1,2.29,2.82A9.17,9.17,0,0,1,351.75,296.18Zm-2.89,0a6.7,6.7,0,0,0-1.31-4.11,2.5,2.5,0,0,0-2.09-1,2.6,2.6,0,0,0-2.14,1.07,6.38,6.38,0,0,0-1.25,4v3.16a6.6,6.6,0,0,0,1.32,4.1,2.47,2.47,0,0,0,2.1,1,2.59,2.59,0,0,0,2.12-1.07,6.35,6.35,0,0,0,1.25-4Z"/><path class="cls-2" d="M299.94,271.12v3.16a9.94,9.94,0,0,1-1.62,5.38,5.18,5.18,0,0,1-4.64,2.57,5.37,5.37,0,0,1-2.95-.76,7.21,7.21,0,0,1-2.27-2.83,9.26,9.26,0,0,1-1.08-4.36v-3.16a10,10,0,0,1,1.62-5.38,5.15,5.15,0,0,1,4.63-2.58,5.41,5.41,0,0,1,2.93.76,7.28,7.28,0,0,1,2.29,2.82A9.17,9.17,0,0,1,299.94,271.12Zm-2.89,0a6.7,6.7,0,0,0-1.31-4.11,2.5,2.5,0,0,0-2.09-1,2.6,2.6,0,0,0-2.14,1.07,6.38,6.38,0,0,0-1.25,4v3.16a6.6,6.6,0,0,0,1.32,4.1,2.47,2.47,0,0,0,2.1,1,2.56,2.56,0,0,0,2.12-1.07,6.35,6.35,0,0,0,1.25-4Z"/><path class="cls-2" d="M312.39,263.16v15.77h2.91a2.15,2.15,0,0,1,1.48.4,1.35,1.35,0,0,1,.45,1.05,1.32,1.32,0,0,1-.45,1,2.15,2.15,0,0,1-1.48.4h-8.7a2.18,2.18,0,0,1-1.48-.4,1.37,1.37,0,0,1-.44-1.05,1.34,1.34,0,0,1,.44-1,2.18,2.18,0,0,1,1.48-.4h2.91v-12l-2.57.67a4,4,0,0,1-.93.17,1.23,1.23,0,0,1-.94-.44,1.5,1.5,0,0,1-.4-1.07,1.28,1.28,0,0,1,.29-.9,2.67,2.67,0,0,1,1.24-.59Z"/><path class="cls-2" d="M334.48,271.12v3.16a9.94,9.94,0,0,1-1.62,5.38,5.18,5.18,0,0,1-4.64,2.57,5.37,5.37,0,0,1-3-.76,7.21,7.21,0,0,1-2.27-2.83,9.26,9.26,0,0,1-1.08-4.36v-3.16a10,10,0,0,1,1.62-5.38,5.15,5.15,0,0,1,4.63-2.58,5.41,5.41,0,0,1,2.93.76,7.28,7.28,0,0,1,2.29,2.82A9.17,9.17,0,0,1,334.48,271.12Zm-2.89,0a6.7,6.7,0,0,0-1.31-4.11,2.5,2.5,0,0,0-2.09-1,2.6,2.6,0,0,0-2.14,1.07,6.38,6.38,0,0,0-1.25,4v3.16a6.6,6.6,0,0,0,1.32,4.1,2.47,2.47,0,0,0,2.1,1,2.56,2.56,0,0,0,2.12-1.07,6.35,6.35,0,0,0,1.25-4Z"/><path class="cls-2" d="M351.75,271.12v3.16a9.94,9.94,0,0,1-1.62,5.38,5.18,5.18,0,0,1-4.64,2.57,5.37,5.37,0,0,1-2.95-.76,7.31,7.31,0,0,1-2.28-2.83,9.37,9.37,0,0,1-1.07-4.36v-3.16a10,10,0,0,1,1.62-5.38,5.15,5.15,0,0,1,4.63-2.58,5.43,5.43,0,0,1,2.93.76,7.28,7.28,0,0,1,2.29,2.82A9.17,9.17,0,0,1,351.75,271.12Zm-2.89,0a6.7,6.7,0,0,0-1.31-4.11,2.5,2.5,0,0,0-2.09-1,2.6,2.6,0,0,0-2.14,1.07,6.38,6.38,0,0,0-1.25,4v3.16a6.6,6.6,0,0,0,1.32,4.1,2.47,2.47,0,0,0,2.1,1,2.56,2.56,0,0,0,2.12-1.07,6.35,6.35,0,0,0,1.25-4Z"/><path class="cls-2" d="M224.72,161.62v15.77h2.91a2.17,2.17,0,0,1,1.48.4,1.31,1.31,0,0,1,.45,1,1.33,1.33,0,0,1-.45,1,2.22,2.22,0,0,1-1.48.4h-8.7a2.24,2.24,0,0,1-1.48-.4,1.37,1.37,0,0,1-.44-1.05,1.33,1.33,0,0,1,.44-1,2.18,2.18,0,0,1,1.48-.4h2.91v-12l-2.57.68a4,4,0,0,1-.93.17,1.27,1.27,0,0,1-1-.44,1.56,1.56,0,0,1-.4-1.07,1.29,1.29,0,0,1,.3-.9,2.68,2.68,0,0,1,1.23-.59Z"/><path class="cls-2" d="M246.81,169.57v3.17a10,10,0,0,1-1.62,5.38,5.18,5.18,0,0,1-4.64,2.57,5.37,5.37,0,0,1-3-.77,7.27,7.27,0,0,1-2.28-2.82,9.37,9.37,0,0,1-1.07-4.36v-3.17a10,10,0,0,1,1.62-5.37,5.15,5.15,0,0,1,4.63-2.58,5.35,5.35,0,0,1,2.93.76,7.2,7.2,0,0,1,2.29,2.82A9.16,9.16,0,0,1,246.81,169.57Zm-2.89,0a6.69,6.69,0,0,0-1.31-4.1,2.5,2.5,0,0,0-2.09-1,2.6,2.6,0,0,0-2.14,1.07,6.37,6.37,0,0,0-1.25,4v3.17a6.6,6.6,0,0,0,1.32,4.1,2.47,2.47,0,0,0,2.1,1,2.59,2.59,0,0,0,2.12-1.07,6.37,6.37,0,0,0,1.25-4Z"/><path class="cls-2" d="M259.26,161.62v15.77h2.91a2.17,2.17,0,0,1,1.48.4,1.31,1.31,0,0,1,.45,1,1.33,1.33,0,0,1-.45,1,2.22,2.22,0,0,1-1.48.4h-8.7a2.24,2.24,0,0,1-1.48-.4,1.37,1.37,0,0,1-.44-1.05,1.33,1.33,0,0,1,.44-1,2.18,2.18,0,0,1,1.48-.4h2.91v-12l-2.57.68a4,4,0,0,1-.93.17,1.27,1.27,0,0,1-.95-.44,1.56,1.56,0,0,1-.4-1.07,1.29,1.29,0,0,1,.3-.9,2.67,2.67,0,0,1,1.24-.59Z"/><path class="cls-2" d="M281.35,169.57v3.17a10,10,0,0,1-1.62,5.38,5.19,5.19,0,0,1-4.65,2.57,5.36,5.36,0,0,1-2.94-.77,7.27,7.27,0,0,1-2.28-2.82,9.37,9.37,0,0,1-1.07-4.36v-3.17a10,10,0,0,1,1.61-5.37,5.17,5.17,0,0,1,4.64-2.58,5.35,5.35,0,0,1,2.93.76,7.2,7.2,0,0,1,2.29,2.82A9.16,9.16,0,0,1,281.35,169.57Zm-2.89,0a6.69,6.69,0,0,0-1.31-4.1,2.5,2.5,0,0,0-2.09-1,2.58,2.58,0,0,0-2.14,1.07,6.37,6.37,0,0,0-1.25,4v3.17a6.6,6.6,0,0,0,1.32,4.1,2.45,2.45,0,0,0,2.09,1,2.59,2.59,0,0,0,2.13-1.07,6.37,6.37,0,0,0,1.25-4Z"/><path class="cls-2" d="M229.54,220v3.16a9.94,9.94,0,0,1-1.62,5.38,5.16,5.16,0,0,1-4.64,2.57,5.37,5.37,0,0,1-2.95-.76,7.24,7.24,0,0,1-2.28-2.83,9.34,9.34,0,0,1-1.07-4.36V220a10,10,0,0,1,1.62-5.38,5.15,5.15,0,0,1,4.63-2.58,5.43,5.43,0,0,1,2.93.76,7.28,7.28,0,0,1,2.29,2.82A9.17,9.17,0,0,1,229.54,220Zm-2.89,0a6.67,6.67,0,0,0-1.31-4.1,2.48,2.48,0,0,0-2.09-1,2.59,2.59,0,0,0-2.14,1.06,6.39,6.39,0,0,0-1.25,4v3.16a6.6,6.6,0,0,0,1.32,4.1,2.47,2.47,0,0,0,2.1,1,2.56,2.56,0,0,0,2.12-1.07,6.35,6.35,0,0,0,1.25-4Z"/><path class="cls-2" d="M242,212v15.77h2.91a2.17,2.17,0,0,1,1.48.4,1.35,1.35,0,0,1,.45,1,1.32,1.32,0,0,1-.45,1,2.17,2.17,0,0,1-1.48.4h-8.7a2.18,2.18,0,0,1-1.48-.4,1.45,1.45,0,0,1,0-2.08,2.18,2.18,0,0,1,1.48-.4h2.91v-12l-2.57.67a4,4,0,0,1-.93.17,1.27,1.27,0,0,1-1-.44,1.53,1.53,0,0,1-.4-1.06,1.3,1.3,0,0,1,.3-.91,2.68,2.68,0,0,1,1.24-.58Z"/><path class="cls-2" d="M259.26,212v15.77h2.91a2.17,2.17,0,0,1,1.48.4,1.35,1.35,0,0,1,.45,1,1.32,1.32,0,0,1-.45,1,2.17,2.17,0,0,1-1.48.4h-8.7a2.18,2.18,0,0,1-1.48-.4,1.45,1.45,0,0,1,0-2.08,2.18,2.18,0,0,1,1.48-.4h2.91v-12l-2.57.67a4,4,0,0,1-.93.17,1.27,1.27,0,0,1-.95-.44,1.53,1.53,0,0,1-.4-1.06,1.3,1.3,0,0,1,.3-.91,2.68,2.68,0,0,1,1.24-.58Z"/><path class="cls-2" d="M281.35,220v3.16a9.94,9.94,0,0,1-1.62,5.38,5.17,5.17,0,0,1-4.65,2.57,5.36,5.36,0,0,1-2.94-.76,7.24,7.24,0,0,1-2.28-2.83,9.34,9.34,0,0,1-1.07-4.36V220a10,10,0,0,1,1.61-5.38A5.17,5.17,0,0,1,275,212a5.43,5.43,0,0,1,2.93.76,7.28,7.28,0,0,1,2.29,2.82A9.17,9.17,0,0,1,281.35,220Zm-2.89,0a6.67,6.67,0,0,0-1.31-4.1,2.48,2.48,0,0,0-2.09-1,2.58,2.58,0,0,0-2.14,1.06,6.39,6.39,0,0,0-1.25,4v3.16a6.6,6.6,0,0,0,1.32,4.1,2.45,2.45,0,0,0,2.09,1,2.57,2.57,0,0,0,2.13-1.07,6.35,6.35,0,0,0,1.25-4Z"/><path class="cls-2" d="M229.54,194.91v3.16a9.94,9.94,0,0,1-1.62,5.38,5.16,5.16,0,0,1-4.64,2.57,5.37,5.37,0,0,1-2.95-.76,7.24,7.24,0,0,1-2.28-2.83,9.34,9.34,0,0,1-1.07-4.36v-3.16a10,10,0,0,1,1.62-5.38,5.15,5.15,0,0,1,4.63-2.58,5.43,5.43,0,0,1,2.93.76,7.28,7.28,0,0,1,2.29,2.82A9.17,9.17,0,0,1,229.54,194.91Zm-2.89,0a6.67,6.67,0,0,0-1.31-4.1,2.48,2.48,0,0,0-2.09-1,2.59,2.59,0,0,0-2.14,1.06,6.39,6.39,0,0,0-1.25,4v3.16a6.6,6.6,0,0,0,1.32,4.1,2.47,2.47,0,0,0,2.1,1,2.56,2.56,0,0,0,2.12-1.07,6.35,6.35,0,0,0,1.25-4Z"/><path class="cls-2" d="M242,187v15.77h2.91a2.17,2.17,0,0,1,1.48.4,1.35,1.35,0,0,1,.45,1,1.32,1.32,0,0,1-.45,1,2.17,2.17,0,0,1-1.48.4h-8.7a2.18,2.18,0,0,1-1.48-.4,1.45,1.45,0,0,1,0-2.08,2.18,2.18,0,0,1,1.48-.4h2.91v-12l-2.57.67a4,4,0,0,1-.93.17,1.27,1.27,0,0,1-1-.44,1.53,1.53,0,0,1-.4-1.06,1.3,1.3,0,0,1,.3-.91,2.68,2.68,0,0,1,1.24-.58Z"/><path class="cls-2" d="M264.08,194.91v3.16a9.94,9.94,0,0,1-1.62,5.38,5.16,5.16,0,0,1-4.64,2.57,5.37,5.37,0,0,1-2.95-.76,7.24,7.24,0,0,1-2.28-2.83,9.34,9.34,0,0,1-1.07-4.36v-3.16a10,10,0,0,1,1.62-5.38,5.15,5.15,0,0,1,4.63-2.58,5.43,5.43,0,0,1,2.93.76,7.28,7.28,0,0,1,2.29,2.82A9.17,9.17,0,0,1,264.08,194.91Zm-2.89,0a6.67,6.67,0,0,0-1.31-4.1,2.48,2.48,0,0,0-2.09-1,2.59,2.59,0,0,0-2.14,1.06,6.39,6.39,0,0,0-1.25,4v3.16a6.6,6.6,0,0,0,1.32,4.1,2.47,2.47,0,0,0,2.1,1,2.56,2.56,0,0,0,2.12-1.07,6.35,6.35,0,0,0,1.25-4Z"/><path class="cls-2" d="M281.35,194.91v3.16a9.94,9.94,0,0,1-1.62,5.38,5.17,5.17,0,0,1-4.65,2.57,5.36,5.36,0,0,1-2.94-.76,7.24,7.24,0,0,1-2.28-2.83,9.34,9.34,0,0,1-1.07-4.36v-3.16a10,10,0,0,1,1.61-5.38A5.17,5.17,0,0,1,275,187a5.43,5.43,0,0,1,2.93.76,7.28,7.28,0,0,1,2.29,2.82A9.17,9.17,0,0,1,281.35,194.91Zm-2.89,0a6.67,6.67,0,0,0-1.31-4.1,2.48,2.48,0,0,0-2.09-1,2.58,2.58,0,0,0-2.14,1.06,6.39,6.39,0,0,0-1.25,4v3.16a6.6,6.6,0,0,0,1.32,4.1,2.45,2.45,0,0,0,2.09,1,2.57,2.57,0,0,0,2.13-1.07,6.35,6.35,0,0,0,1.25-4Z"/><path class="cls-2" d="M295.14,161.62v15.77h2.91a2.18,2.18,0,0,1,1.48.4,1.34,1.34,0,0,1,.44,1,1.35,1.35,0,0,1-.44,1,2.24,2.24,0,0,1-1.48.4h-8.7a2.2,2.2,0,0,1-1.48-.4,1.35,1.35,0,0,1-.45-1.05,1.31,1.31,0,0,1,.45-1,2.15,2.15,0,0,1,1.48-.4h2.91v-12l-2.58.68a4,4,0,0,1-.92.17,1.25,1.25,0,0,1-.95-.44,1.51,1.51,0,0,1-.4-1.07,1.33,1.33,0,0,1,.29-.9,2.67,2.67,0,0,1,1.24-.59Z"/><path class="cls-2" d="M317.23,169.57v3.17a9.89,9.89,0,0,1-1.63,5.38,5.18,5.18,0,0,1-4.64,2.57,5.36,5.36,0,0,1-2.94-.77,7.18,7.18,0,0,1-2.28-2.82,9.25,9.25,0,0,1-1.07-4.36v-3.17a9.94,9.94,0,0,1,1.61-5.37,5.16,5.16,0,0,1,4.64-2.58,5.35,5.35,0,0,1,2.93.76,7.29,7.29,0,0,1,2.29,2.82A9.28,9.28,0,0,1,317.23,169.57Zm-2.9,0a6.69,6.69,0,0,0-1.3-4.1,2.52,2.52,0,0,0-2.1-1,2.58,2.58,0,0,0-2.13,1.07,6.31,6.31,0,0,0-1.25,4v3.17a6.6,6.6,0,0,0,1.32,4.1,2.44,2.44,0,0,0,2.09,1,2.57,2.57,0,0,0,2.12-1.07,6.31,6.31,0,0,0,1.25-4Z"/><path class="cls-2" d="M329.68,161.62v15.77h2.91a2.18,2.18,0,0,1,1.48.4,1.34,1.34,0,0,1,.44,1,1.35,1.35,0,0,1-.44,1,2.24,2.24,0,0,1-1.48.4h-8.7a2.2,2.2,0,0,1-1.48-.4,1.35,1.35,0,0,1-.45-1.05,1.31,1.31,0,0,1,.45-1,2.15,2.15,0,0,1,1.48-.4h2.91v-12l-2.58.68a4,4,0,0,1-.92.17,1.25,1.25,0,0,1-.95-.44,1.51,1.51,0,0,1-.4-1.07,1.33,1.33,0,0,1,.29-.9,2.67,2.67,0,0,1,1.24-.59Z"/><path class="cls-2" d="M351.77,169.57v3.17a9.89,9.89,0,0,1-1.63,5.38,5.18,5.18,0,0,1-4.64,2.57,5.36,5.36,0,0,1-2.94-.77,7.18,7.18,0,0,1-2.28-2.82,9.26,9.26,0,0,1-1.08-4.36v-3.17a10,10,0,0,1,1.62-5.37,5.16,5.16,0,0,1,4.64-2.58,5.35,5.35,0,0,1,2.93.76,7.29,7.29,0,0,1,2.29,2.82A9.28,9.28,0,0,1,351.77,169.57Zm-2.9,0a6.63,6.63,0,0,0-1.31-4.1,2.49,2.49,0,0,0-2.09-1,2.61,2.61,0,0,0-2.14,1.07,6.37,6.37,0,0,0-1.25,4v3.17a6.54,6.54,0,0,0,1.33,4.1,2.44,2.44,0,0,0,2.09,1,2.57,2.57,0,0,0,2.12-1.07,6.37,6.37,0,0,0,1.25-4Z"/><path class="cls-2" d="M300,220v3.16a9.87,9.87,0,0,1-1.63,5.38,5.16,5.16,0,0,1-4.64,2.57,5.36,5.36,0,0,1-2.94-.76,7.15,7.15,0,0,1-2.28-2.83,9.22,9.22,0,0,1-1.07-4.36V220a10,10,0,0,1,1.61-5.38,5.16,5.16,0,0,1,4.64-2.58,5.43,5.43,0,0,1,2.93.76,7.37,7.37,0,0,1,2.29,2.82A9.29,9.29,0,0,1,300,220Zm-2.9,0a6.67,6.67,0,0,0-1.3-4.1,2.49,2.49,0,0,0-2.1-1,2.57,2.57,0,0,0-2.13,1.06,6.33,6.33,0,0,0-1.25,4v3.16a6.54,6.54,0,0,0,1.32,4.1,2.44,2.44,0,0,0,2.09,1,2.55,2.55,0,0,0,2.12-1.07,6.29,6.29,0,0,0,1.25-4Z"/><path class="cls-2" d="M312.41,212v15.77h2.91a2.18,2.18,0,0,1,1.48.4,1.37,1.37,0,0,1,.44,1,1.34,1.34,0,0,1-.44,1,2.18,2.18,0,0,1-1.48.4h-8.7a2.15,2.15,0,0,1-1.48-.4,1.43,1.43,0,0,1,0-2.08,2.15,2.15,0,0,1,1.48-.4h2.91v-12l-2.58.67a4,4,0,0,1-.92.17,1.25,1.25,0,0,1-.95-.44,1.49,1.49,0,0,1-.4-1.06,1.34,1.34,0,0,1,.29-.91,2.68,2.68,0,0,1,1.24-.58Z"/><path class="cls-2" d="M329.68,212v15.77h2.91a2.18,2.18,0,0,1,1.48.4,1.37,1.37,0,0,1,.44,1,1.34,1.34,0,0,1-.44,1,2.18,2.18,0,0,1-1.48.4h-8.7a2.15,2.15,0,0,1-1.48-.4,1.43,1.43,0,0,1,0-2.08,2.15,2.15,0,0,1,1.48-.4h2.91v-12l-2.58.67a4,4,0,0,1-.92.17,1.25,1.25,0,0,1-.95-.44,1.49,1.49,0,0,1-.4-1.06,1.34,1.34,0,0,1,.29-.91,2.68,2.68,0,0,1,1.24-.58Z"/><path class="cls-2" d="M351.77,220v3.16a9.87,9.87,0,0,1-1.63,5.38,5.16,5.16,0,0,1-4.64,2.57,5.36,5.36,0,0,1-2.94-.76,7.15,7.15,0,0,1-2.28-2.83,9.23,9.23,0,0,1-1.08-4.36V220a10,10,0,0,1,1.62-5.38,5.16,5.16,0,0,1,4.64-2.58,5.43,5.43,0,0,1,2.93.76,7.37,7.37,0,0,1,2.29,2.82A9.29,9.29,0,0,1,351.77,220Zm-2.9,0a6.61,6.61,0,0,0-1.31-4.1,2.46,2.46,0,0,0-2.09-1,2.6,2.6,0,0,0-2.14,1.06,6.39,6.39,0,0,0-1.25,4v3.16a6.54,6.54,0,0,0,1.33,4.1,2.44,2.44,0,0,0,2.09,1,2.55,2.55,0,0,0,2.12-1.07,6.35,6.35,0,0,0,1.25-4Z"/><path class="cls-2" d="M300,194.91v3.16a9.87,9.87,0,0,1-1.63,5.38,5.16,5.16,0,0,1-4.64,2.57,5.36,5.36,0,0,1-2.94-.76,7.15,7.15,0,0,1-2.28-2.83,9.22,9.22,0,0,1-1.07-4.36v-3.16a10,10,0,0,1,1.61-5.38,5.16,5.16,0,0,1,4.64-2.58,5.43,5.43,0,0,1,2.93.76,7.37,7.37,0,0,1,2.29,2.82A9.29,9.29,0,0,1,300,194.91Zm-2.9,0a6.67,6.67,0,0,0-1.3-4.1,2.49,2.49,0,0,0-2.1-1,2.57,2.57,0,0,0-2.13,1.06,6.33,6.33,0,0,0-1.25,4v3.16a6.54,6.54,0,0,0,1.32,4.1,2.44,2.44,0,0,0,2.09,1,2.55,2.55,0,0,0,2.12-1.07,6.29,6.29,0,0,0,1.25-4Z"/><path class="cls-2" d="M312.41,187v15.77h2.91a2.18,2.18,0,0,1,1.48.4,1.37,1.37,0,0,1,.44,1,1.34,1.34,0,0,1-.44,1,2.18,2.18,0,0,1-1.48.4h-8.7a2.15,2.15,0,0,1-1.48-.4,1.43,1.43,0,0,1,0-2.08,2.15,2.15,0,0,1,1.48-.4h2.91v-12l-2.58.67a4,4,0,0,1-.92.17,1.25,1.25,0,0,1-.95-.44,1.49,1.49,0,0,1-.4-1.06,1.34,1.34,0,0,1,.29-.91,2.68,2.68,0,0,1,1.24-.58Z"/><path class="cls-2" d="M334.5,194.91v3.16a9.87,9.87,0,0,1-1.63,5.38,5.16,5.16,0,0,1-4.64,2.57,5.36,5.36,0,0,1-2.94-.76,7.15,7.15,0,0,1-2.28-2.83,9.22,9.22,0,0,1-1.07-4.36v-3.16a10,10,0,0,1,1.61-5.38,5.16,5.16,0,0,1,4.64-2.58,5.43,5.43,0,0,1,2.93.76,7.37,7.37,0,0,1,2.29,2.82A9.29,9.29,0,0,1,334.5,194.91Zm-2.9,0a6.67,6.67,0,0,0-1.3-4.1,2.49,2.49,0,0,0-2.1-1,2.57,2.57,0,0,0-2.13,1.06,6.33,6.33,0,0,0-1.25,4v3.16a6.6,6.6,0,0,0,1.32,4.1,2.44,2.44,0,0,0,2.09,1,2.55,2.55,0,0,0,2.12-1.07,6.29,6.29,0,0,0,1.25-4Z"/><path class="cls-2" d="M351.77,194.91v3.16a9.87,9.87,0,0,1-1.63,5.38A5.16,5.16,0,0,1,345.5,206a5.36,5.36,0,0,1-2.94-.76,7.15,7.15,0,0,1-2.28-2.83,9.23,9.23,0,0,1-1.08-4.36v-3.16a10,10,0,0,1,1.62-5.38,5.16,5.16,0,0,1,4.64-2.58,5.43,5.43,0,0,1,2.93.76,7.37,7.37,0,0,1,2.29,2.82A9.29,9.29,0,0,1,351.77,194.91Zm-2.9,0a6.61,6.61,0,0,0-1.31-4.1,2.46,2.46,0,0,0-2.09-1,2.6,2.6,0,0,0-2.14,1.06,6.39,6.39,0,0,0-1.25,4v3.16a6.54,6.54,0,0,0,1.33,4.1,2.44,2.44,0,0,0,2.09,1,2.55,2.55,0,0,0,2.12-1.07,6.35,6.35,0,0,0,1.25-4Z"/><path class="cls-2" d="M83.93,237.83V253.6h2.91a2.17,2.17,0,0,1,1.48.4,1.31,1.31,0,0,1,.45,1,1.34,1.34,0,0,1-.45,1,2.22,2.22,0,0,1-1.48.4h-8.7a2.22,2.22,0,0,1-1.48-.4,1.34,1.34,0,0,1-.44-1,1.3,1.3,0,0,1,.44-1,2.17,2.17,0,0,1,1.48-.4h2.91v-12l-2.57.68a3.88,3.88,0,0,1-.93.16,1.26,1.26,0,0,1-1-.43,1.56,1.56,0,0,1-.4-1.07,1.31,1.31,0,0,1,.3-.91,2.63,2.63,0,0,1,1.23-.58Z"/><path class="cls-2" d="M106,245.78v3.16a10,10,0,0,1-1.62,5.39,5.19,5.19,0,0,1-4.65,2.57,5.36,5.36,0,0,1-2.94-.77,7.27,7.27,0,0,1-2.28-2.82,9.38,9.38,0,0,1-1.07-4.37v-3.16a10,10,0,0,1,1.61-5.37,5.17,5.17,0,0,1,4.64-2.58,5.35,5.35,0,0,1,2.93.76,7.13,7.13,0,0,1,2.29,2.82A9.16,9.16,0,0,1,106,245.78Zm-2.89,0a6.69,6.69,0,0,0-1.31-4.1,2.48,2.48,0,0,0-2.09-1,2.58,2.58,0,0,0-2.14,1.07,6.37,6.37,0,0,0-1.25,4v3.16a6.61,6.61,0,0,0,1.32,4.11,2.48,2.48,0,0,0,2.09,1,2.59,2.59,0,0,0,2.13-1.07,6.38,6.38,0,0,0,1.25-4Z"/><path class="cls-2" d="M118.47,237.83V253.6h2.91a2.17,2.17,0,0,1,1.48.4,1.31,1.31,0,0,1,.45,1,1.34,1.34,0,0,1-.45,1,2.22,2.22,0,0,1-1.48.4h-8.7a2.22,2.22,0,0,1-1.48-.4,1.34,1.34,0,0,1-.44-1,1.3,1.3,0,0,1,.44-1,2.17,2.17,0,0,1,1.48-.4h2.91v-12l-2.57.68a3.88,3.88,0,0,1-.93.16,1.26,1.26,0,0,1-1-.43,1.56,1.56,0,0,1-.4-1.07,1.31,1.31,0,0,1,.3-.91,2.63,2.63,0,0,1,1.23-.58Z"/><path class="cls-2" d="M140.56,245.78v3.16a10,10,0,0,1-1.62,5.39,5.19,5.19,0,0,1-4.65,2.57,5.36,5.36,0,0,1-2.94-.77,7.27,7.27,0,0,1-2.28-2.82,9.38,9.38,0,0,1-1.07-4.37v-3.16a10,10,0,0,1,1.61-5.37,5.17,5.17,0,0,1,4.64-2.58,5.35,5.35,0,0,1,2.93.76,7.13,7.13,0,0,1,2.29,2.82A9.16,9.16,0,0,1,140.56,245.78Zm-2.89,0a6.69,6.69,0,0,0-1.31-4.1,2.49,2.49,0,0,0-2.1-1,2.58,2.58,0,0,0-2.13,1.07,6.37,6.37,0,0,0-1.25,4v3.16a6.61,6.61,0,0,0,1.32,4.11,2.48,2.48,0,0,0,2.09,1,2.61,2.61,0,0,0,2.13-1.07,6.38,6.38,0,0,0,1.25-4Z"/><path class="cls-2" d="M88.75,296.18v3.16a9.94,9.94,0,0,1-1.62,5.38,5.19,5.19,0,0,1-4.65,2.57,5.36,5.36,0,0,1-2.94-.76,7.31,7.31,0,0,1-2.28-2.83,9.37,9.37,0,0,1-1.07-4.36v-3.16a10,10,0,0,1,1.61-5.38,5.17,5.17,0,0,1,4.64-2.58,5.43,5.43,0,0,1,2.93.76,7.28,7.28,0,0,1,2.29,2.82A9.17,9.17,0,0,1,88.75,296.18Zm-2.89,0a6.7,6.7,0,0,0-1.31-4.11,2.5,2.5,0,0,0-2.09-1,2.58,2.58,0,0,0-2.14,1.07,6.38,6.38,0,0,0-1.25,4v3.16a6.6,6.6,0,0,0,1.32,4.1,2.45,2.45,0,0,0,2.09,1,2.59,2.59,0,0,0,2.13-1.07,6.35,6.35,0,0,0,1.25-4Z"/><path class="cls-2" d="M101.2,288.22V304h2.91a2.17,2.17,0,0,1,1.48.4,1.35,1.35,0,0,1,.45,1.05,1.32,1.32,0,0,1-.45,1,2.17,2.17,0,0,1-1.48.4h-8.7a2.17,2.17,0,0,1-1.48-.4,1.34,1.34,0,0,1-.44-1.05,1.31,1.31,0,0,1,.44-1,2.17,2.17,0,0,1,1.48-.4h2.91V292l-2.57.68a4,4,0,0,1-.93.17,1.27,1.27,0,0,1-.95-.44,1.54,1.54,0,0,1-.4-1.07,1.29,1.29,0,0,1,.3-.9,2.62,2.62,0,0,1,1.23-.59Z"/><path class="cls-2" d="M118.47,288.22V304h2.91a2.17,2.17,0,0,1,1.48.4,1.35,1.35,0,0,1,.45,1.05,1.32,1.32,0,0,1-.45,1,2.17,2.17,0,0,1-1.48.4h-8.7a2.17,2.17,0,0,1-1.48-.4,1.34,1.34,0,0,1-.44-1.05,1.31,1.31,0,0,1,.44-1,2.17,2.17,0,0,1,1.48-.4h2.91V292l-2.57.68a4,4,0,0,1-.93.17,1.27,1.27,0,0,1-1-.44,1.54,1.54,0,0,1-.4-1.07,1.29,1.29,0,0,1,.3-.9,2.62,2.62,0,0,1,1.23-.59Z"/><path class="cls-2" d="M140.56,296.18v3.16a9.94,9.94,0,0,1-1.62,5.38,5.19,5.19,0,0,1-4.65,2.57,5.36,5.36,0,0,1-2.94-.76,7.31,7.31,0,0,1-2.28-2.83,9.37,9.37,0,0,1-1.07-4.36v-3.16a10,10,0,0,1,1.61-5.38,5.17,5.17,0,0,1,4.64-2.58,5.43,5.43,0,0,1,2.93.76,7.28,7.28,0,0,1,2.29,2.82A9.17,9.17,0,0,1,140.56,296.18Zm-2.89,0a6.7,6.7,0,0,0-1.31-4.11,2.52,2.52,0,0,0-2.1-1,2.58,2.58,0,0,0-2.13,1.07,6.38,6.38,0,0,0-1.25,4v3.16a6.6,6.6,0,0,0,1.32,4.1,2.45,2.45,0,0,0,2.09,1,2.61,2.61,0,0,0,2.13-1.07,6.35,6.35,0,0,0,1.25-4Z"/><path class="cls-2" d="M88.75,271.12v3.16a9.94,9.94,0,0,1-1.62,5.38,5.19,5.19,0,0,1-4.65,2.57,5.36,5.36,0,0,1-2.94-.76,7.31,7.31,0,0,1-2.28-2.83,9.37,9.37,0,0,1-1.07-4.36v-3.16a10,10,0,0,1,1.61-5.38,5.17,5.17,0,0,1,4.64-2.58,5.43,5.43,0,0,1,2.93.76,7.28,7.28,0,0,1,2.29,2.82A9.17,9.17,0,0,1,88.75,271.12Zm-2.89,0A6.7,6.7,0,0,0,84.55,267a2.5,2.5,0,0,0-2.09-1,2.58,2.58,0,0,0-2.14,1.07,6.38,6.38,0,0,0-1.25,4v3.16a6.6,6.6,0,0,0,1.32,4.1,2.45,2.45,0,0,0,2.09,1,2.57,2.57,0,0,0,2.13-1.07,6.35,6.35,0,0,0,1.25-4Z"/><path class="cls-2" d="M101.2,263.16v15.77h2.91a2.17,2.17,0,0,1,1.48.4,1.35,1.35,0,0,1,.45,1.05,1.32,1.32,0,0,1-.45,1,2.17,2.17,0,0,1-1.48.4h-8.7a2.17,2.17,0,0,1-1.48-.4,1.34,1.34,0,0,1-.44-1.05,1.31,1.31,0,0,1,.44-1,2.17,2.17,0,0,1,1.48-.4h2.91v-12l-2.57.67a4,4,0,0,1-.93.17,1.27,1.27,0,0,1-.95-.44,1.54,1.54,0,0,1-.4-1.07,1.29,1.29,0,0,1,.3-.9,2.62,2.62,0,0,1,1.23-.59Z"/><path class="cls-2" d="M123.29,271.12v3.16a9.94,9.94,0,0,1-1.62,5.38,5.19,5.19,0,0,1-4.65,2.57,5.36,5.36,0,0,1-2.94-.76,7.31,7.31,0,0,1-2.28-2.83,9.37,9.37,0,0,1-1.07-4.36v-3.16a10,10,0,0,1,1.61-5.38,5.17,5.17,0,0,1,4.64-2.58,5.43,5.43,0,0,1,2.93.76,7.28,7.28,0,0,1,2.29,2.82A9.17,9.17,0,0,1,123.29,271.12Zm-2.89,0a6.7,6.7,0,0,0-1.31-4.11,2.5,2.5,0,0,0-2.09-1,2.58,2.58,0,0,0-2.14,1.07,6.38,6.38,0,0,0-1.25,4v3.16a6.6,6.6,0,0,0,1.32,4.1,2.46,2.46,0,0,0,2.09,1,2.57,2.57,0,0,0,2.13-1.07,6.35,6.35,0,0,0,1.25-4Z"/><path class="cls-2" d="M140.56,271.12v3.16a9.94,9.94,0,0,1-1.62,5.38,5.19,5.19,0,0,1-4.65,2.57,5.36,5.36,0,0,1-2.94-.76,7.31,7.31,0,0,1-2.28-2.83,9.37,9.37,0,0,1-1.07-4.36v-3.16a10,10,0,0,1,1.61-5.38,5.17,5.17,0,0,1,4.64-2.58,5.43,5.43,0,0,1,2.93.76,7.28,7.28,0,0,1,2.29,2.82A9.17,9.17,0,0,1,140.56,271.12Zm-2.89,0a6.7,6.7,0,0,0-1.31-4.11,2.52,2.52,0,0,0-2.1-1,2.58,2.58,0,0,0-2.13,1.07,6.38,6.38,0,0,0-1.25,4v3.16a6.6,6.6,0,0,0,1.32,4.1,2.45,2.45,0,0,0,2.09,1,2.58,2.58,0,0,0,2.13-1.07,6.35,6.35,0,0,0,1.25-4Z"/><path class="cls-2" d="M154.35,237.83V253.6h2.9a2.2,2.2,0,0,1,1.49.4,1.34,1.34,0,0,1,.44,1,1.37,1.37,0,0,1-.44,1,2.25,2.25,0,0,1-1.49.4h-8.69a2.25,2.25,0,0,1-1.49-.4,1.37,1.37,0,0,1-.44-1,1.33,1.33,0,0,1,.44-1,2.2,2.2,0,0,1,1.49-.4h2.91v-12l-2.58.68a3.9,3.9,0,0,1-.92.16A1.24,1.24,0,0,1,147,242a1.51,1.51,0,0,1-.4-1.07,1.36,1.36,0,0,1,.29-.91,2.68,2.68,0,0,1,1.24-.58Z"/><path class="cls-2" d="M176.44,245.78v3.16a9.9,9.9,0,0,1-1.63,5.39,5.18,5.18,0,0,1-4.64,2.57,5.36,5.36,0,0,1-2.94-.77,7.18,7.18,0,0,1-2.28-2.82,9.27,9.27,0,0,1-1.08-4.37v-3.16a10,10,0,0,1,1.62-5.37,5.16,5.16,0,0,1,4.64-2.58,5.35,5.35,0,0,1,2.93.76,7.21,7.21,0,0,1,2.29,2.82A9.28,9.28,0,0,1,176.44,245.78Zm-2.9,0a6.63,6.63,0,0,0-1.31-4.1,2.46,2.46,0,0,0-2.09-1,2.58,2.58,0,0,0-2.13,1.07,6.31,6.31,0,0,0-1.26,4v3.16a6.55,6.55,0,0,0,1.33,4.11,2.46,2.46,0,0,0,2.09,1,2.57,2.57,0,0,0,2.12-1.07,6.38,6.38,0,0,0,1.25-4Z"/><path class="cls-2" d="M188.89,237.83V253.6h2.91a2.18,2.18,0,0,1,1.48.4,1.34,1.34,0,0,1,.44,1,1.37,1.37,0,0,1-.44,1,2.24,2.24,0,0,1-1.48.4h-8.7a2.2,2.2,0,0,1-1.48-.4,1.35,1.35,0,0,1-.45-1,1.31,1.31,0,0,1,.45-1,2.15,2.15,0,0,1,1.48-.4H186v-12l-2.58.68a3.9,3.9,0,0,1-.92.16,1.24,1.24,0,0,1-.95-.43,1.51,1.51,0,0,1-.4-1.07,1.36,1.36,0,0,1,.29-.91,2.68,2.68,0,0,1,1.24-.58Z"/><path class="cls-2" d="M211,245.78v3.16a10,10,0,0,1-1.62,5.39,5.18,5.18,0,0,1-4.64,2.57,5.42,5.42,0,0,1-3-.77,7.17,7.17,0,0,1-2.27-2.82,9.27,9.27,0,0,1-1.08-4.37v-3.16a10,10,0,0,1,1.62-5.37,5.16,5.16,0,0,1,4.64-2.58,5.37,5.37,0,0,1,2.93.76,7.21,7.21,0,0,1,2.29,2.82A9.27,9.27,0,0,1,211,245.78Zm-2.89,0a6.63,6.63,0,0,0-1.31-4.1,2.46,2.46,0,0,0-2.09-1,2.61,2.61,0,0,0-2.14,1.07,6.37,6.37,0,0,0-1.25,4v3.16a6.61,6.61,0,0,0,1.32,4.11,2.49,2.49,0,0,0,2.1,1,2.57,2.57,0,0,0,2.12-1.07,6.38,6.38,0,0,0,1.25-4Z"/><path class="cls-2" d="M159.17,296.18v3.16a9.87,9.87,0,0,1-1.63,5.38,5.18,5.18,0,0,1-4.64,2.57,5.36,5.36,0,0,1-2.94-.76,7.22,7.22,0,0,1-2.28-2.83,9.26,9.26,0,0,1-1.08-4.36v-3.16a10,10,0,0,1,1.62-5.38,5.16,5.16,0,0,1,4.64-2.58,5.43,5.43,0,0,1,2.93.76,7.37,7.37,0,0,1,2.29,2.82A9.29,9.29,0,0,1,159.17,296.18Zm-2.9,0a6.64,6.64,0,0,0-1.31-4.11,2.49,2.49,0,0,0-2.09-1,2.58,2.58,0,0,0-2.13,1.07,6.32,6.32,0,0,0-1.26,4v3.16a6.54,6.54,0,0,0,1.33,4.1,2.44,2.44,0,0,0,2.09,1,2.57,2.57,0,0,0,2.12-1.07,6.35,6.35,0,0,0,1.25-4Z"/><path class="cls-2" d="M171.62,288.22V304h2.9a2.2,2.2,0,0,1,1.49.4,1.37,1.37,0,0,1,.44,1.05,1.34,1.34,0,0,1-.44,1,2.2,2.2,0,0,1-1.49.4h-8.69a2.15,2.15,0,0,1-1.48-.4,1.35,1.35,0,0,1-.45-1.05,1.32,1.32,0,0,1,.45-1,2.15,2.15,0,0,1,1.48-.4h2.91V292l-2.58.68a4,4,0,0,1-.92.17,1.25,1.25,0,0,1-1-.44,1.5,1.5,0,0,1-.4-1.07,1.33,1.33,0,0,1,.29-.9,2.67,2.67,0,0,1,1.24-.59Z"/><path class="cls-2" d="M188.89,288.22V304h2.91a2.18,2.18,0,0,1,1.48.4,1.37,1.37,0,0,1,.44,1.05,1.34,1.34,0,0,1-.44,1,2.18,2.18,0,0,1-1.48.4h-8.7a2.15,2.15,0,0,1-1.48-.4,1.35,1.35,0,0,1-.45-1.05,1.32,1.32,0,0,1,.45-1,2.15,2.15,0,0,1,1.48-.4H186V292l-2.58.68a4,4,0,0,1-.92.17,1.25,1.25,0,0,1-.95-.44,1.5,1.5,0,0,1-.4-1.07,1.33,1.33,0,0,1,.29-.9,2.67,2.67,0,0,1,1.24-.59Z"/><path class="cls-2" d="M211,296.18v3.16a9.94,9.94,0,0,1-1.62,5.38,5.18,5.18,0,0,1-4.64,2.57,5.42,5.42,0,0,1-3-.76,7.21,7.21,0,0,1-2.27-2.83,9.26,9.26,0,0,1-1.08-4.36v-3.16A10,10,0,0,1,200,290.8a5.16,5.16,0,0,1,4.64-2.58,5.46,5.46,0,0,1,2.93.76,7.37,7.37,0,0,1,2.29,2.82A9.28,9.28,0,0,1,211,296.18Zm-2.89,0a6.64,6.64,0,0,0-1.31-4.11,2.49,2.49,0,0,0-2.09-1,2.61,2.61,0,0,0-2.14,1.07,6.38,6.38,0,0,0-1.25,4v3.16a6.6,6.6,0,0,0,1.32,4.1,2.47,2.47,0,0,0,2.1,1,2.57,2.57,0,0,0,2.12-1.07,6.35,6.35,0,0,0,1.25-4Z"/><path class="cls-2" d="M159.17,271.12v3.16a9.87,9.87,0,0,1-1.63,5.38,5.18,5.18,0,0,1-4.64,2.57,5.36,5.36,0,0,1-2.94-.76,7.22,7.22,0,0,1-2.28-2.83,9.26,9.26,0,0,1-1.08-4.36v-3.16a10,10,0,0,1,1.62-5.38,5.16,5.16,0,0,1,4.64-2.58,5.43,5.43,0,0,1,2.93.76,7.37,7.37,0,0,1,2.29,2.82A9.29,9.29,0,0,1,159.17,271.12Zm-2.9,0A6.64,6.64,0,0,0,155,267a2.49,2.49,0,0,0-2.09-1,2.58,2.58,0,0,0-2.13,1.07,6.32,6.32,0,0,0-1.26,4v3.16a6.54,6.54,0,0,0,1.33,4.1,2.44,2.44,0,0,0,2.09,1,2.55,2.55,0,0,0,2.12-1.07,6.35,6.35,0,0,0,1.25-4Z"/><path class="cls-2" d="M171.62,263.16v15.77h2.9a2.2,2.2,0,0,1,1.49.4,1.37,1.37,0,0,1,.44,1.05,1.34,1.34,0,0,1-.44,1,2.2,2.2,0,0,1-1.49.4h-8.69a2.15,2.15,0,0,1-1.48-.4,1.35,1.35,0,0,1-.45-1.05,1.32,1.32,0,0,1,.45-1,2.15,2.15,0,0,1,1.48-.4h2.91v-12l-2.58.67a4,4,0,0,1-.92.17,1.25,1.25,0,0,1-1-.44,1.5,1.5,0,0,1-.4-1.07,1.33,1.33,0,0,1,.29-.9,2.67,2.67,0,0,1,1.24-.59Z"/><path class="cls-2" d="M193.71,271.12v3.16a9.87,9.87,0,0,1-1.63,5.38,5.18,5.18,0,0,1-4.64,2.57,5.36,5.36,0,0,1-2.94-.76,7.22,7.22,0,0,1-2.28-2.83,9.26,9.26,0,0,1-1.08-4.36v-3.16a10,10,0,0,1,1.62-5.38,5.16,5.16,0,0,1,4.64-2.58,5.43,5.43,0,0,1,2.93.76,7.37,7.37,0,0,1,2.29,2.82A9.29,9.29,0,0,1,193.71,271.12Zm-2.9,0A6.64,6.64,0,0,0,189.5,267a2.49,2.49,0,0,0-2.09-1,2.58,2.58,0,0,0-2.13,1.07,6.32,6.32,0,0,0-1.26,4v3.16a6.54,6.54,0,0,0,1.33,4.1,2.44,2.44,0,0,0,2.09,1,2.55,2.55,0,0,0,2.12-1.07,6.35,6.35,0,0,0,1.25-4Z"/><path class="cls-2" d="M211,271.12v3.16a9.94,9.94,0,0,1-1.62,5.38,5.18,5.18,0,0,1-4.64,2.57,5.42,5.42,0,0,1-3-.76,7.21,7.21,0,0,1-2.27-2.83,9.26,9.26,0,0,1-1.08-4.36v-3.16a10,10,0,0,1,1.62-5.38,5.16,5.16,0,0,1,4.64-2.58,5.46,5.46,0,0,1,2.93.76,7.37,7.37,0,0,1,2.29,2.82A9.28,9.28,0,0,1,211,271.12Zm-2.89,0a6.64,6.64,0,0,0-1.31-4.11,2.49,2.49,0,0,0-2.09-1,2.61,2.61,0,0,0-2.14,1.07,6.38,6.38,0,0,0-1.25,4v3.16a6.6,6.6,0,0,0,1.32,4.1,2.47,2.47,0,0,0,2.1,1,2.55,2.55,0,0,0,2.12-1.07,6.35,6.35,0,0,0,1.25-4Z"/><path class="cls-2" d="M83.94,161.62v15.77h2.91a2.2,2.2,0,0,1,1.49.4,1.34,1.34,0,0,1,.44,1,1.35,1.35,0,0,1-.44,1,2.25,2.25,0,0,1-1.49.4H78.16a2.25,2.25,0,0,1-1.49-.4,1.37,1.37,0,0,1-.44-1.05,1.33,1.33,0,0,1,.44-1,2.2,2.2,0,0,1,1.49-.4h2.9v-12l-2.57.68a4,4,0,0,1-.92.17,1.24,1.24,0,0,1-.95-.44,1.51,1.51,0,0,1-.4-1.07,1.33,1.33,0,0,1,.29-.9,2.67,2.67,0,0,1,1.24-.59Z"/><path class="cls-2" d="M106,169.57v3.17a10,10,0,0,1-1.62,5.38,5.18,5.18,0,0,1-4.64,2.57,5.42,5.42,0,0,1-3-.77,7.17,7.17,0,0,1-2.27-2.82,9.26,9.26,0,0,1-1.08-4.36v-3.17a10,10,0,0,1,1.62-5.37,5.16,5.16,0,0,1,4.64-2.58,5.37,5.37,0,0,1,2.93.76A7.29,7.29,0,0,1,105,165.2,9.27,9.27,0,0,1,106,169.57Zm-2.89,0a6.63,6.63,0,0,0-1.31-4.1,2.49,2.49,0,0,0-2.09-1,2.61,2.61,0,0,0-2.14,1.07,6.37,6.37,0,0,0-1.25,4v3.17a6.6,6.6,0,0,0,1.32,4.1,2.47,2.47,0,0,0,2.1,1,2.57,2.57,0,0,0,2.12-1.07,6.37,6.37,0,0,0,1.25-4Z"/><path class="cls-2" d="M118.48,161.62v15.77h2.91a2.2,2.2,0,0,1,1.49.4,1.34,1.34,0,0,1,.44,1,1.35,1.35,0,0,1-.44,1,2.25,2.25,0,0,1-1.49.4H112.7a2.25,2.25,0,0,1-1.49-.4,1.37,1.37,0,0,1-.44-1.05,1.33,1.33,0,0,1,.44-1,2.2,2.2,0,0,1,1.49-.4h2.9v-12l-2.57.68a4,4,0,0,1-.92.17,1.24,1.24,0,0,1-1-.44,1.51,1.51,0,0,1-.4-1.07,1.33,1.33,0,0,1,.29-.9,2.67,2.67,0,0,1,1.24-.59Z"/><path class="cls-2" d="M140.57,169.57v3.17a10,10,0,0,1-1.62,5.38,5.18,5.18,0,0,1-4.64,2.57,5.4,5.4,0,0,1-2.95-.77,7.17,7.17,0,0,1-2.27-2.82,9.26,9.26,0,0,1-1.08-4.36v-3.17a10,10,0,0,1,1.62-5.37,5.16,5.16,0,0,1,4.63-2.58,5.38,5.38,0,0,1,2.94.76,7.29,7.29,0,0,1,2.29,2.82A9.27,9.27,0,0,1,140.57,169.57Zm-2.89,0a6.69,6.69,0,0,0-1.31-4.1,2.49,2.49,0,0,0-2.09-1,2.61,2.61,0,0,0-2.14,1.07,6.37,6.37,0,0,0-1.25,4v3.17a6.6,6.6,0,0,0,1.32,4.1,2.47,2.47,0,0,0,2.1,1,2.57,2.57,0,0,0,2.12-1.07,6.37,6.37,0,0,0,1.25-4Z"/><path class="cls-2" d="M88.76,220v3.16a9.94,9.94,0,0,1-1.62,5.38,5.16,5.16,0,0,1-4.64,2.57,5.42,5.42,0,0,1-3-.76,7.14,7.14,0,0,1-2.27-2.83,9.23,9.23,0,0,1-1.08-4.36V220a10,10,0,0,1,1.62-5.38A5.16,5.16,0,0,1,82.46,212a5.46,5.46,0,0,1,2.93.76,7.37,7.37,0,0,1,2.29,2.82A9.28,9.28,0,0,1,88.76,220Zm-2.89,0a6.61,6.61,0,0,0-1.31-4.1,2.46,2.46,0,0,0-2.09-1A2.6,2.6,0,0,0,80.33,216a6.39,6.39,0,0,0-1.25,4v3.16a6.6,6.6,0,0,0,1.32,4.1,2.47,2.47,0,0,0,2.1,1,2.55,2.55,0,0,0,2.12-1.07,6.35,6.35,0,0,0,1.25-4Z"/><path class="cls-2" d="M101.21,212v15.77h2.91a2.2,2.2,0,0,1,1.49.4,1.37,1.37,0,0,1,.44,1,1.34,1.34,0,0,1-.44,1,2.2,2.2,0,0,1-1.49.4H95.43a2.2,2.2,0,0,1-1.49-.4,1.45,1.45,0,0,1,0-2.08,2.2,2.2,0,0,1,1.49-.4h2.9v-12l-2.57.67a4,4,0,0,1-.92.17,1.24,1.24,0,0,1-1-.44,1.49,1.49,0,0,1-.4-1.06,1.34,1.34,0,0,1,.29-.91,2.68,2.68,0,0,1,1.24-.58Z"/><path class="cls-2" d="M118.48,212v15.77h2.91a2.2,2.2,0,0,1,1.49.4,1.37,1.37,0,0,1,.44,1,1.34,1.34,0,0,1-.44,1,2.2,2.2,0,0,1-1.49.4H112.7a2.2,2.2,0,0,1-1.49-.4,1.45,1.45,0,0,1,0-2.08,2.2,2.2,0,0,1,1.49-.4h2.9v-12l-2.57.67a4,4,0,0,1-.92.17,1.24,1.24,0,0,1-1-.44,1.49,1.49,0,0,1-.4-1.06,1.34,1.34,0,0,1,.29-.91,2.68,2.68,0,0,1,1.24-.58Z"/><path class="cls-2" d="M140.57,220v3.16a9.94,9.94,0,0,1-1.62,5.38,5.16,5.16,0,0,1-4.64,2.57,5.39,5.39,0,0,1-2.95-.76,7.14,7.14,0,0,1-2.27-2.83,9.23,9.23,0,0,1-1.08-4.36V220a10,10,0,0,1,1.62-5.38,5.16,5.16,0,0,1,4.63-2.58,5.47,5.47,0,0,1,2.94.76,7.37,7.37,0,0,1,2.29,2.82A9.28,9.28,0,0,1,140.57,220Zm-2.89,0a6.67,6.67,0,0,0-1.31-4.1,2.46,2.46,0,0,0-2.09-1,2.6,2.6,0,0,0-2.14,1.06,6.39,6.39,0,0,0-1.25,4v3.16a6.6,6.6,0,0,0,1.32,4.1,2.47,2.47,0,0,0,2.1,1,2.55,2.55,0,0,0,2.12-1.07,6.35,6.35,0,0,0,1.25-4Z"/><path class="cls-2" d="M88.76,194.91v3.16a9.94,9.94,0,0,1-1.62,5.38A5.16,5.16,0,0,1,82.5,206a5.42,5.42,0,0,1-3-.76,7.14,7.14,0,0,1-2.27-2.83,9.23,9.23,0,0,1-1.08-4.36v-3.16a10,10,0,0,1,1.62-5.38A5.16,5.16,0,0,1,82.46,187a5.46,5.46,0,0,1,2.93.76,7.37,7.37,0,0,1,2.29,2.82A9.28,9.28,0,0,1,88.76,194.91Zm-2.89,0a6.61,6.61,0,0,0-1.31-4.1,2.46,2.46,0,0,0-2.09-1,2.6,2.6,0,0,0-2.14,1.06,6.39,6.39,0,0,0-1.25,4v3.16a6.6,6.6,0,0,0,1.32,4.1,2.47,2.47,0,0,0,2.1,1,2.55,2.55,0,0,0,2.12-1.07,6.35,6.35,0,0,0,1.25-4Z"/><path class="cls-2" d="M101.21,187v15.77h2.91a2.2,2.2,0,0,1,1.49.4,1.37,1.37,0,0,1,.44,1,1.34,1.34,0,0,1-.44,1,2.2,2.2,0,0,1-1.49.4H95.43a2.2,2.2,0,0,1-1.49-.4,1.45,1.45,0,0,1,0-2.08,2.2,2.2,0,0,1,1.49-.4h2.9v-12l-2.57.67a4,4,0,0,1-.92.17,1.24,1.24,0,0,1-1-.44,1.49,1.49,0,0,1-.4-1.06,1.34,1.34,0,0,1,.29-.91,2.68,2.68,0,0,1,1.24-.58Z"/><path class="cls-2" d="M123.3,194.91v3.16a9.94,9.94,0,0,1-1.62,5.38A5.16,5.16,0,0,1,117,206a5.42,5.42,0,0,1-3-.76,7.14,7.14,0,0,1-2.27-2.83,9.23,9.23,0,0,1-1.08-4.36v-3.16a10,10,0,0,1,1.62-5.38A5.16,5.16,0,0,1,117,187a5.46,5.46,0,0,1,2.93.76,7.37,7.37,0,0,1,2.29,2.82A9.28,9.28,0,0,1,123.3,194.91Zm-2.89,0a6.61,6.61,0,0,0-1.31-4.1,2.46,2.46,0,0,0-2.09-1,2.6,2.6,0,0,0-2.14,1.06,6.39,6.39,0,0,0-1.25,4v3.16a6.6,6.6,0,0,0,1.32,4.1,2.47,2.47,0,0,0,2.1,1,2.55,2.55,0,0,0,2.12-1.07,6.35,6.35,0,0,0,1.25-4Z"/><path class="cls-2" d="M140.57,194.91v3.16a9.94,9.94,0,0,1-1.62,5.38,5.16,5.16,0,0,1-4.64,2.57,5.39,5.39,0,0,1-2.95-.76,7.14,7.14,0,0,1-2.27-2.83,9.23,9.23,0,0,1-1.08-4.36v-3.16a10,10,0,0,1,1.62-5.38,5.16,5.16,0,0,1,4.63-2.58,5.47,5.47,0,0,1,2.94.76,7.37,7.37,0,0,1,2.29,2.82A9.28,9.28,0,0,1,140.57,194.91Zm-2.89,0a6.67,6.67,0,0,0-1.31-4.1,2.46,2.46,0,0,0-2.09-1,2.6,2.6,0,0,0-2.14,1.06,6.39,6.39,0,0,0-1.25,4v3.16a6.6,6.6,0,0,0,1.32,4.1,2.47,2.47,0,0,0,2.1,1,2.55,2.55,0,0,0,2.12-1.07,6.35,6.35,0,0,0,1.25-4Z"/><path class="cls-2" d="M154.36,161.62v15.77h2.91a2.17,2.17,0,0,1,1.48.4,1.3,1.3,0,0,1,.44,1,1.32,1.32,0,0,1-.44,1,2.22,2.22,0,0,1-1.48.4h-8.7a2.22,2.22,0,0,1-1.48-.4,1.34,1.34,0,0,1-.44-1.05,1.3,1.3,0,0,1,.44-1,2.17,2.17,0,0,1,1.48-.4h2.91v-12l-2.57.68a4,4,0,0,1-.93.17,1.27,1.27,0,0,1-.95-.44,1.51,1.51,0,0,1-.4-1.07,1.29,1.29,0,0,1,.3-.9,2.62,2.62,0,0,1,1.23-.59Z"/><path class="cls-2" d="M176.45,169.57v3.17a10,10,0,0,1-1.62,5.38,5.2,5.2,0,0,1-4.65,2.57,5.36,5.36,0,0,1-2.94-.77A7.27,7.27,0,0,1,165,177.1a9.37,9.37,0,0,1-1.07-4.36v-3.17a10,10,0,0,1,1.61-5.37,5.17,5.17,0,0,1,4.64-2.58,5.35,5.35,0,0,1,2.93.76,7.2,7.2,0,0,1,2.29,2.82A9.16,9.16,0,0,1,176.45,169.57Zm-2.89,0a6.69,6.69,0,0,0-1.31-4.1,2.52,2.52,0,0,0-2.1-1,2.58,2.58,0,0,0-2.13,1.07,6.37,6.37,0,0,0-1.25,4v3.17a6.6,6.6,0,0,0,1.32,4.1,2.45,2.45,0,0,0,2.09,1,2.57,2.57,0,0,0,2.12-1.07,6.31,6.31,0,0,0,1.26-4Z"/><path class="cls-2" d="M188.9,161.62v15.77h2.91a2.17,2.17,0,0,1,1.48.4,1.3,1.3,0,0,1,.44,1,1.32,1.32,0,0,1-.44,1,2.22,2.22,0,0,1-1.48.4h-8.7a2.22,2.22,0,0,1-1.48-.4,1.34,1.34,0,0,1-.44-1.05,1.3,1.3,0,0,1,.44-1,2.17,2.17,0,0,1,1.48-.4H186v-12l-2.57.68a4,4,0,0,1-.93.17,1.27,1.27,0,0,1-1-.44,1.51,1.51,0,0,1-.4-1.07,1.29,1.29,0,0,1,.3-.9,2.62,2.62,0,0,1,1.23-.59Z"/><path class="cls-2" d="M211,169.57v3.17a10,10,0,0,1-1.62,5.38,5.2,5.2,0,0,1-4.65,2.57,5.36,5.36,0,0,1-2.94-.77,7.27,7.27,0,0,1-2.28-2.82,9.25,9.25,0,0,1-1.07-4.36v-3.17A10,10,0,0,1,200,164.2a5.17,5.17,0,0,1,4.64-2.58,5.35,5.35,0,0,1,2.93.76,7.29,7.29,0,0,1,2.29,2.82A9.16,9.16,0,0,1,211,169.57Zm-2.9,0a6.69,6.69,0,0,0-1.3-4.1,2.52,2.52,0,0,0-2.1-1,2.58,2.58,0,0,0-2.13,1.07,6.31,6.31,0,0,0-1.25,4v3.17a6.6,6.6,0,0,0,1.32,4.1,2.45,2.45,0,0,0,2.09,1,2.57,2.57,0,0,0,2.12-1.07,6.31,6.31,0,0,0,1.25-4Z"/><path class="cls-2" d="M159.18,220v3.16a9.94,9.94,0,0,1-1.62,5.38,5.18,5.18,0,0,1-4.65,2.57,5.36,5.36,0,0,1-2.94-.76,7.24,7.24,0,0,1-2.28-2.83,9.34,9.34,0,0,1-1.07-4.36V220a10,10,0,0,1,1.61-5.38,5.17,5.17,0,0,1,4.64-2.58,5.43,5.43,0,0,1,2.93.76,7.28,7.28,0,0,1,2.29,2.82A9.17,9.17,0,0,1,159.18,220Zm-2.89,0a6.67,6.67,0,0,0-1.31-4.1,2.49,2.49,0,0,0-2.1-1,2.57,2.57,0,0,0-2.13,1.06,6.39,6.39,0,0,0-1.25,4v3.16a6.6,6.6,0,0,0,1.32,4.1,2.45,2.45,0,0,0,2.09,1,2.55,2.55,0,0,0,2.12-1.07,6.29,6.29,0,0,0,1.26-4Z"/><path class="cls-2" d="M171.63,212v15.77h2.91a2.17,2.17,0,0,1,1.48.4,1.34,1.34,0,0,1,.44,1,1.31,1.31,0,0,1-.44,1,2.17,2.17,0,0,1-1.48.4h-8.7a2.17,2.17,0,0,1-1.48-.4,1.33,1.33,0,0,1-.44-1,1.31,1.31,0,0,1,.44-1,2.17,2.17,0,0,1,1.48-.4h2.91v-12l-2.57.67a4,4,0,0,1-.93.17,1.27,1.27,0,0,1-.95-.44,1.49,1.49,0,0,1-.4-1.06,1.3,1.3,0,0,1,.3-.91,2.63,2.63,0,0,1,1.23-.58Z"/><path class="cls-2" d="M188.9,212v15.77h2.91a2.17,2.17,0,0,1,1.48.4,1.34,1.34,0,0,1,.44,1,1.31,1.31,0,0,1-.44,1,2.17,2.17,0,0,1-1.48.4h-8.7a2.17,2.17,0,0,1-1.48-.4,1.33,1.33,0,0,1-.44-1,1.31,1.31,0,0,1,.44-1,2.17,2.17,0,0,1,1.48-.4H186v-12l-2.57.67a4,4,0,0,1-.93.17,1.27,1.27,0,0,1-1-.44,1.49,1.49,0,0,1-.4-1.06,1.3,1.3,0,0,1,.3-.91,2.63,2.63,0,0,1,1.23-.58Z"/><path class="cls-2" d="M211,220v3.16a9.94,9.94,0,0,1-1.62,5.38,5.18,5.18,0,0,1-4.65,2.57,5.36,5.36,0,0,1-2.94-.76,7.24,7.24,0,0,1-2.28-2.83,9.22,9.22,0,0,1-1.07-4.36V220a10,10,0,0,1,1.61-5.38,5.17,5.17,0,0,1,4.64-2.58,5.43,5.43,0,0,1,2.93.76,7.37,7.37,0,0,1,2.29,2.82A9.17,9.17,0,0,1,211,220Zm-2.9,0a6.67,6.67,0,0,0-1.3-4.1,2.49,2.49,0,0,0-2.1-1,2.57,2.57,0,0,0-2.13,1.06,6.33,6.33,0,0,0-1.25,4v3.16a6.6,6.6,0,0,0,1.32,4.1,2.45,2.45,0,0,0,2.09,1,2.55,2.55,0,0,0,2.12-1.07,6.29,6.29,0,0,0,1.25-4Z"/><path class="cls-2" d="M159.18,194.91v3.16a9.94,9.94,0,0,1-1.62,5.38,5.18,5.18,0,0,1-4.65,2.57,5.36,5.36,0,0,1-2.94-.76,7.24,7.24,0,0,1-2.28-2.83,9.34,9.34,0,0,1-1.07-4.36v-3.16a10,10,0,0,1,1.61-5.38,5.17,5.17,0,0,1,4.64-2.58,5.43,5.43,0,0,1,2.93.76,7.28,7.28,0,0,1,2.29,2.82A9.17,9.17,0,0,1,159.18,194.91Zm-2.89,0a6.67,6.67,0,0,0-1.31-4.1,2.49,2.49,0,0,0-2.1-1,2.57,2.57,0,0,0-2.13,1.06,6.39,6.39,0,0,0-1.25,4v3.16a6.6,6.6,0,0,0,1.32,4.1,2.45,2.45,0,0,0,2.09,1,2.55,2.55,0,0,0,2.12-1.07,6.29,6.29,0,0,0,1.26-4Z"/><path class="cls-2" d="M171.63,187v15.77h2.91a2.17,2.17,0,0,1,1.48.4,1.34,1.34,0,0,1,.44,1,1.31,1.31,0,0,1-.44,1,2.17,2.17,0,0,1-1.48.4h-8.7a2.17,2.17,0,0,1-1.48-.4,1.33,1.33,0,0,1-.44-1,1.31,1.31,0,0,1,.44-1,2.17,2.17,0,0,1,1.48-.4h2.91v-12l-2.57.67a4,4,0,0,1-.93.17,1.27,1.27,0,0,1-.95-.44,1.49,1.49,0,0,1-.4-1.06,1.3,1.3,0,0,1,.3-.91,2.63,2.63,0,0,1,1.23-.58Z"/><path class="cls-2" d="M193.72,194.91v3.16a9.94,9.94,0,0,1-1.62,5.38,5.17,5.17,0,0,1-4.65,2.57,5.36,5.36,0,0,1-2.94-.76,7.24,7.24,0,0,1-2.28-2.83,9.34,9.34,0,0,1-1.07-4.36v-3.16a10,10,0,0,1,1.61-5.38,5.17,5.17,0,0,1,4.64-2.58,5.43,5.43,0,0,1,2.93.76,7.28,7.28,0,0,1,2.29,2.82A9.17,9.17,0,0,1,193.72,194.91Zm-2.89,0a6.67,6.67,0,0,0-1.31-4.1,2.49,2.49,0,0,0-2.1-1,2.57,2.57,0,0,0-2.13,1.06,6.39,6.39,0,0,0-1.25,4v3.16a6.6,6.6,0,0,0,1.32,4.1,2.45,2.45,0,0,0,2.09,1,2.58,2.58,0,0,0,2.13-1.07,6.35,6.35,0,0,0,1.25-4Z"/><path class="cls-2" d="M211,194.91v3.16a9.94,9.94,0,0,1-1.62,5.38,5.18,5.18,0,0,1-4.65,2.57,5.36,5.36,0,0,1-2.94-.76,7.24,7.24,0,0,1-2.28-2.83,9.22,9.22,0,0,1-1.07-4.36v-3.16a10,10,0,0,1,1.61-5.38,5.17,5.17,0,0,1,4.64-2.58,5.43,5.43,0,0,1,2.93.76,7.37,7.37,0,0,1,2.29,2.82A9.17,9.17,0,0,1,211,194.91Zm-2.9,0a6.67,6.67,0,0,0-1.3-4.1,2.49,2.49,0,0,0-2.1-1,2.57,2.57,0,0,0-2.13,1.06,6.33,6.33,0,0,0-1.25,4v3.16a6.6,6.6,0,0,0,1.32,4.1,2.45,2.45,0,0,0,2.09,1,2.55,2.55,0,0,0,2.12-1.07,6.29,6.29,0,0,0,1.25-4Z"/></g><path class="cls-3" d="M192.66,382.49s2.79,46.75,2.78,49.05,2.2,55.49,2.2,55.49H178.91"/><polyline class="cls-3" points="235.35 382.49 232.35 434.76 230.37 487.03 247.98 487.03"/><rect class="cls-4" x="125.43" y="256.84" width="171.26" height="38.29" rx="12"/><ellipse class="cls-5" cx="212.62" cy="385.3" rx="63.04" ry="27.19"/><ellipse class="cls-6" cx="211.98" cy="150.24" rx="75.26" ry="29.88"/><path class="cls-7" d="M136.72,150.24c0,16.5,33.69,29.88,75.26,29.88s75.26-13.38,75.26-29.88c0,0,.44,216.62,0,221.3-1.55,16.43-33.7,29.88-75.26,29.88S136.72,388,136.72,371.54Z"/><path class="cls-8" d="M149.58,369.37V166.93a66.26,66.26,0,0,0,7.91,3.89v221.3a66.26,66.26,0,0,1-7.91-3.89Z"/><path class="cls-8" d="M184.36,355.15V178c-2.72-.42-5.36-.91-7.91-1.45V397.81c2.55.55,5.19,1,7.91,1.46Z"/><path class="cls-8" d="M219,397.26V180.12q-3.45.12-7,.12h-.93v221.3H212q3.54,0,7-.13Z"/><polygon class="cls-8" points="239.97 399.26 239.97 178 247.88 176.53 247.88 397.74 239.97 399.26"/><path class="cls-8" d="M267.75,372.78v18.51c2.38-1.13,6.33-3.29,7.91-4.29V166.25a83.69,83.69,0,0,1-7.91,4.05"/><path class="cls-9" d="M267,170.64c-1.8-37.39-106.22-36.4-109.55.06C184.68,182.91,239.17,183.44,267,170.64Z"/><path class="cls-4" d="M134.08,317v55c0,16.5,35.19,29.87,78.59,29.87s77-13.45,78.59-29.87c.15-1.54.2-25.9.2-57.94l-.2-37.77c0,16.5-35.19,29.88-78.59,29.88s-78.59-13.38-78.59-29.88Z"/><path class="cls-10" d="M156.65,201.19a3.6,3.6,0,0,1-1.19-.21,3.47,3.47,0,0,1-2.07-4.45c3-8.2,12.82-16.41,25.92-16.41h.42a3.47,3.47,0,0,1,3.43,3.52,3.43,3.43,0,0,1-3.52,3.42h-.34c-11,0-17.71,7.23-19.39,11.84A3.47,3.47,0,0,1,156.65,201.19Z"/><path class="cls-10" d="M267.73,201.19a3.47,3.47,0,0,1-3.26-2.29c-1.7-4.66-8.55-12-19.73-11.84a3.47,3.47,0,1,1-.09-6.94h.42c13.1,0,22.94,8.21,25.92,16.41a3.47,3.47,0,0,1-2.07,4.45A3.56,3.56,0,0,1,267.73,201.19Z"/><path class="cls-11" d="M173.36,257.07c0,.22,0,.44,0,.67,0,17.4,17.84,31.5,39.86,31.5s39.86-14.1,39.86-31.5c0-.23,0-.45,0-.67Z"/><path class="cls-12" d="M173.27,256.9c0,.22,0,.6,0,.82a25.69,25.69,0,0,0,2.38,10.76h75.14a25.69,25.69,0,0,0,2.38-10.76c0-.22,0-.6,0-.82Z"/><path class="cls-13" d="M213.2,289.24a46.63,46.63,0,0,0,24.92-6.93,30.79,30.79,0,0,0-4.75-3.92c-8.13-5.47-17.44-6.38-22.91-2.78-7.78-2.72-15.37-1.56-18.76,3.5a10,10,0,0,0-1.6,4.29A47.17,47.17,0,0,0,213.2,289.24Z"/><circle class="cls-12" cx="182.36" cy="222.68" r="20.04"/><path class="cls-11" d="M189.55,222.68a7.19,7.19,0,1,1-7.19-7.19A7.19,7.19,0,0,1,189.55,222.68Z"/><circle class="cls-12" cx="240.12" cy="222.68" r="20.04"/><path class="cls-11" d="M247.31,222.68a7.19,7.19,0,1,1-7.19-7.19A7.19,7.19,0,0,1,247.31,222.68Z"/><g id="mask"><circle class="cls-14" cx="241.15" cy="222.44" r="24.42" transform="translate(-32.52 41.5) rotate(-9.22)"/><circle class="cls-15" cx="182.02" cy="222.44" r="24.42" transform="translate(-78.26 344.37) rotate(-75.81)"/><polygon class="cls-16" points="156.6 222.88 136.72 213.57 136.72 209.3 157.97 219.95 156.6 222.88"/><polygon class="cls-16" points="266.48 222.88 287.43 213.55 287.43 210 265.11 219.95 266.48 222.88"/><path class="cls-16" d="M156,222.66a26.06,26.06,0,0,0,51.77,4.27l.12-.76h7.53l.13.76a26.09,26.09,0,1,0-.33-5.14l0,.87H208.1l0-.87a26.06,26.06,0,0,0-52.1.87Zm69.31-15.94a22.54,22.54,0,1,1,31.88,31.88h0a22.54,22.54,0,0,1-31.88-31.88ZM182,200.12a22.54,22.54,0,0,1,16,38.48h0a22.55,22.55,0,1,1-16-38.48Z"/><path class="cls-17" d="M223.83,211.76C227.37,206.42,231,205,231,205l2.79,2.11a22.22,22.22,0,0,0-5.74,6.29,19.32,19.32,0,0,0-2.61,7l-4.6-.9A17.83,17.83,0,0,1,223.83,211.76Z"/><path class="cls-18" d="M164.72,211.76c3.54-5.34,7-6.81,7-6.81l2.91,2.11a22.38,22.38,0,0,0-5.74,6.29,19.32,19.32,0,0,0-2.61,7l-4.59-.9A17.83,17.83,0,0,1,164.72,211.76Z"/></g><path class="cls-3" d="M137.71,302.11h0s-29.53,20.55-23.4,34.2"/><path class="cls-19" d="M72.24,355.67l0,.06h0l0-.06m-.08-.79a1.56,1.56,0,0,0,0,.37,2.32,2.32,0,0,1,0-.37"/><path class="cls-20" d="M20.05,302.62c-.89-1.33-1.43-4.14,3.79-5.29C29.57,296.07,20.71,303.6,20.05,302.62Z"/><polyline class="cls-21" points="135.82 337.12 172.41 325.81 68.92 347.44 135.82 337.12"/><rect class="cls-20" x="132.66" y="331.19" width="42.71" height="4.27" rx="1.6" transform="translate(-86.23 55.64) rotate(-16.07)"/><path class="cls-22" d="M133.66,339.82v0a1.74,1.74,0,0,0,2.25.92L173.29,330a1.75,1.75,0,0,0,1.42-2v0Z"/><polyline class="cls-23" points="136.54 332.83 137.13 333.69 137.35 334.02 172.41 325.81 136.54 332.83"/><path class="cls-24" d="M138,335.09s2,3.29-2.46,5.68C131.89,342.75,135.18,335.88,138,335.09Z"/><path class="cls-20" d="M136,339.06,60.41,355.35a2.88,2.88,0,0,1-3-1.2L22.05,301.77a2.89,2.89,0,0,1,1.79-4.44L99.4,281a2.88,2.88,0,0,1,3,1.21l35.36,52.38a2.88,2.88,0,0,1-1.78,4.43"/><path class="cls-25" d="M134.76,341.09,59.2,357.38a2.88,2.88,0,0,1-3-1.21L20.12,302.73a2,2,0,0,1,1.25-3.11l76.81-16.56a2.89,2.89,0,0,1,3,1.21l35.36,52.38a2.88,2.88,0,0,1-1.78,4.44"/><polyline class="cls-26" points="114.1 303.4 115.71 305.79 114.1 303.4"/><polyline class="cls-27" points="100.14 348.55 100.14 348.55 100.17 348.54 100.17 348.54 100.14 348.55"/><polygon class="cls-20" points="75.33 315.88 75.13 319.69 76.26 319.94 76.34 318.52 80.25 322.69 80.45 318.89 79.28 318.62 79.21 320.01 75.33 315.88"/><path class="cls-20" d="M82.27,315.28a9.93,9.93,0,0,0-2.53-1.46,9.82,9.82,0,0,0-2.82-.67,7.62,7.62,0,0,0-2.76.26A5.43,5.43,0,0,0,72,314.58a4.34,4.34,0,0,0-1.23,1.83,4.59,4.59,0,0,0-.2,2.25,6.23,6.23,0,0,0,.94,2.41,8.41,8.41,0,0,0,1.93,2.13,10.24,10.24,0,0,0,2.53,1.46,9.8,9.8,0,0,0,2.82.66,7.62,7.62,0,0,0,2.76-.25,5.56,5.56,0,0,0,2.19-1.17,4.37,4.37,0,0,0,1.23-1.84,4.55,4.55,0,0,0,.2-2.24,6.35,6.35,0,0,0-.93-2.42A8.61,8.61,0,0,0,82.27,315.28Zm-1.33,9L77,320.14l0,.55-2.72-.59.34-5.84,3.91,4.17,0-.55,2.63.57Z"/><line class="cls-3" x1="99.35" y1="348.12" x2="86.54" y2="350.64"/><line class="cls-3" x1="93.31" y1="348.69" x2="90.85" y2="345.01"/><line class="cls-3" x1="86.54" y1="350.64" x2="84.08" y2="346.96"/><line class="cls-3" x1="99.99" y1="347.89" x2="97.53" y2="344.21"/><path class="cls-3" d="M327.73,343.88h0s-25.37,1.83-32.21-11.48c-10.12-19.68-10.13-30.17-10.13-30.17"/><line class="cls-3" x1="332.39" y1="345.61" x2="324" y2="345.77"/><line class="cls-3" x1="332.6" y1="339.6" x2="324.2" y2="339.76"/><line class="cls-3" x1="323.46" y1="329.4" x2="322.86" y2="349.14"/><line class="cls-3" x1="332.39" y1="349.22" x2="324" y2="349.38"/><path class="cls-4" d="M182.19,399.68l-.05-12.57h0c0-2.68-.09-3.87-.18-5.65-.05-.86-.06-.9-.2-.81l-.86.7a5.58,5.58,0,0,1-3.84,1.44,5.75,5.75,0,0,0-2.6.73c-.61.28-1.26.55-1.44.61a30.59,30.59,0,0,1-3.65,0l-3.31-.06-.77.33a7.1,7.1,0,0,1-3.36.79,8.71,8.71,0,0,1-2.15-.57c-.93-.47-1.87-1.48-3.14-3.4-1.6-2.41-2-3.41-1.56-4a2.71,2.71,0,0,1,.67-.47c.92-.46,1-.52,1.15-1.39A.69.69,0,0,1,158,375a3.73,3.73,0,0,1,1.09,1.18,3.17,3.17,0,0,1,.56,1.67,27,27,0,0,0,.88,3.57c.14.32.19.36.62.49a5,5,0,0,0,2.67-.17c.32-.11,1-.32,1.5-.45a9,9,0,0,1,3-.28c2.84,0,4.45-.29,5.08-.82s2.27-4.55,2.87-6.88a7,7,0,0,0,.18-3.77,71.63,71.63,0,0,1-1.16-7.84,13.82,13.82,0,0,1,.48-3.73l.18-.81-.41-.42a5,5,0,0,1-1.17-2,7.74,7.74,0,0,1-.13-3.11,5.24,5.24,0,0,0,.11-.62l-.55-.38a6,6,0,0,1-2.7-5.1,8.44,8.44,0,0,1,.48-3,6.41,6.41,0,0,1,1.73-2.84,5.63,5.63,0,0,1,2.5-1.54,8.48,8.48,0,0,1,3.1-.43h1.27l.19-.9a15.91,15.91,0,0,1,1.11-3.52c.61-1.26,1.66-2.19,3.66-3.24a5.69,5.69,0,0,0,1.56-1.12,16.22,16.22,0,0,1,2-1.52,21,21,0,0,0,3.83-3.2,8.66,8.66,0,0,1,2.17-1.92,49.52,49.52,0,0,1,6.42-3.42c1.19-.51,1.87-.67,5.07-1.21,1.49-.26,3.17-.56,3.73-.68a13.75,13.75,0,0,1,3.77-.22,41.5,41.5,0,0,1,6.7.41,13.59,13.59,0,0,1,3.57.83c.56.26,2.79,1.08,5,1.84,3.54,1.23,4.62,1.62,5.07,1.85a30.15,30.15,0,0,1,5.68,4.56,20.45,20.45,0,0,0,3.48,2.8c2.62,1.79,2.87,2.13,4,5.48,1,3.1.89,2.84,1.18,2.82a15.7,15.7,0,0,1,2.54.27,9,9,0,0,1,1.36.53,6.69,6.69,0,0,1,3.5,4.69,6.23,6.23,0,0,1,.21,1.95,4.39,4.39,0,0,1-.23,1.89,5.66,5.66,0,0,1-2.08,2.83l-.41.27.06.82a18,18,0,0,1-.09,3.92,4.69,4.69,0,0,1-.74,1.83c-.13.14-.15.26-.13.83a18.25,18.25,0,0,1-.35,3.3c-.11.57-.11.59.08.91a8.53,8.53,0,0,0,.69.89,5.8,5.8,0,0,1,.66.88A11.93,11.93,0,0,1,254,368c-.11,2.38-.39,3.32-2.16,7-.7,1.46-.93,2.08-.86,2.41a2.55,2.55,0,0,0,.86,1.23,30.94,30.94,0,0,0,3.32,2.18,8.28,8.28,0,0,1,1.66,1.26c1.07,1,1.52,1.26,2.28,1.26,1,0,1.6-.43,2.3-1.71a10.81,10.81,0,0,1,2.19-2.8,10.11,10.11,0,0,1,2.85-2.3c1.61-.81,3.07-.8,4,0a1.53,1.53,0,0,1,.64,1.23,1.4,1.4,0,0,1-.51,1.11,8.71,8.71,0,0,1-3.58,2,5.29,5.29,0,0,0-2.42,1.55l-.86.85-.33,1a6.66,6.66,0,0,1-.57,1.38,6.4,6.4,0,0,1-2.56,2,2.19,2.19,0,0,1-1.05-.23,10.07,10.07,0,0,0-2.86-.61c-1.47-.14-2.58-.61-5.4-2.38a17.67,17.67,0,0,0-2.38-1.36s0,1.18,0,2.62,0,2.93,0,3.33l.05,9.61a221.91,221.91,0,0,1-33.82,3.14A280.33,280.33,0,0,1,182.19,399.68Z"/><path class="cls-28" d="M214.78,402.21c-20.64,0-31.64-2.53-31.64-2.53v-12c0-1.18,0-3.48-.12-5.14l-.11-3,.3-.24a9.58,9.58,0,0,0,2.57-3.23c.54-1.05.56-1.27.23-2.91-.4-2-.3-3.21.48-6.15.13-.52.26-1,.29-1.12s.06-.18.09-.18a8.74,8.74,0,0,1,.91.44,13.9,13.9,0,0,0,3.35,1.2,9.92,9.92,0,0,0,2.24.17,18.13,18.13,0,0,0,8.39-2,17,17,0,0,0,2.54-1.63s.09.21.15.57a2.91,2.91,0,0,0,2.6,2.72l.56.11,0,.61c0,.33-.05,1.33-.09,2.22-.13,2.6-.12,3,.11,3.5a3,3,0,0,0,3.33,1.49,5.72,5.72,0,0,0,2.12-1.09l.4-.35.36.28a5.21,5.21,0,0,0,2.93,1,2.82,2.82,0,0,0,2.73-2.14,17,17,0,0,0,.07-4.33c-.07-.67-.13-1.27-.13-1.32s.1-.09.23-.09a5.45,5.45,0,0,0,1.66-.41,3.34,3.34,0,0,0,1.77-2.53c.06-.33.11-.6.12-.62a2.75,2.75,0,0,1,.49.28A18.34,18.34,0,0,0,229,365.9a17.61,17.61,0,0,0,4.62.49,10,10,0,0,0,4.21-.62,14.92,14.92,0,0,0,5.11-3.18,1.34,1.34,0,0,1,.35-.29,3,3,0,0,1,.1.84,11.86,11.86,0,0,0,1,4.8,6.41,6.41,0,0,1,.77,3.69v1.58l-.41,1.42a14.18,14.18,0,0,0-.79,3.94,1.92,1.92,0,0,0,.18,1.17,7.74,7.74,0,0,0,2.74,2.43l.6.35v3.55l0,3.53v9.09S235.42,402.21,214.78,402.21Z"/><path class="cls-28" d="M259.45,386.8a11.32,11.32,0,0,0-2.87-.65c-1.55-.13-2.46-.52-5.34-2.32-.82-.51-2-1.21-2.71-1.57-2.16-1.15-3.31-2-3.69-2.81a1.56,1.56,0,0,1-.17-1.09,23.24,23.24,0,0,1,.84-3.8,7.25,7.25,0,0,0,.41-2.43,8.35,8.35,0,0,0-.88-4.52,11.14,11.14,0,0,1-.93-4.82l-.05-1.34.47-.57a14.42,14.42,0,0,0,2-3.19l.18-.43.38.07c.22,0,1,.05,1.68,0a6.66,6.66,0,0,0,2.67-.39c.15-.06.16,0,.1.66,0,.4-.15,1.32-.26,2.06a9.71,9.71,0,0,0-.16,1.57,4.92,4.92,0,0,0,1,1.54,4.84,4.84,0,0,1,.64,1,10.84,10.84,0,0,1,.39,3.47c0,2.76-.17,3.37-2,7.26-.46,1-.88,1.93-.93,2.11-.29,1.09.14,2,1.48,2.95a31.21,31.21,0,0,0,3.14,2,9.43,9.43,0,0,1,1.49,1.16,8.45,8.45,0,0,0,1.38,1.08,2,2,0,0,0,1.31.26,2.2,2.2,0,0,0,1.27-.23,4.57,4.57,0,0,0,1.73-1.88,11.64,11.64,0,0,1,.67-1.09,29.5,29.5,0,0,1,2.32-2.44s.18.48.36,1l.33,1-.46.3A12.81,12.81,0,0,0,263,383c-.07.15-.25.65-.39,1.1a3.8,3.8,0,0,1-1.17,2A4.3,4.3,0,0,1,260,387a4.67,4.67,0,0,1-.56-.17Zm-98.25-2.48a3.64,3.64,0,0,1-2-1,15.59,15.59,0,0,1-2.13-2.76,13.83,13.83,0,0,1-1.46-2.71,1.76,1.76,0,0,1,.63-.43,2,2,0,0,0,1.33-1.59c0-.14.08-.11.37.19a3.78,3.78,0,0,1,.95,2.24c.44,2.34.85,3.67,1.2,4,.65.61,2.58.71,4,.2a9.77,9.77,0,0,1,4.3-.68c3.79-.1,5.19-.44,5.82-1.44a32.33,32.33,0,0,0,2.94-7.7,9.3,9.3,0,0,0-.15-4,51.85,51.85,0,0,1-1-7.79c0-.5.57-3.28.63-3.33a5.25,5.25,0,0,1,.71.21,6.71,6.71,0,0,0,2.49.39c.39,0,.6,0,.6.06a6,6,0,0,0,.36.83,17.24,17.24,0,0,0,5.1,5.93c.29.19.38.3.34.4-.11.27-.77,2.93-.95,3.79a9.83,9.83,0,0,0,0,4c.28,1.48.27,1.75-.09,2.47a11.71,11.71,0,0,1-1.5,2.25c-.2.2-.91.84-1.56,1.42-2.77,2.42-3,2.55-5,2.72a6.17,6.17,0,0,0-3,.82l-1.06.51h-3.61l-3.61,0-1,.41a5.24,5.24,0,0,1-3.61.53Zm105.31-3.86c-.3-.81-.35-1.07-.26-1.13s.21,0,.34.48c.08.25.15.53.18.61S266.57,380.62,266.51,380.46Zm.43-.26c0-.08.1-.16.45-.29a10.67,10.67,0,0,0,2.31-1.2c.59-.47.72-.9.42-1.38-.46-.77-2-.79-3.54-.06-.7.32-.87.23-.25-.12a4.44,4.44,0,0,1,2.78-.66c.76.17,1.42.76,1.42,1.26,0,.7-.94,1.47-2.7,2.22l-.82.34s-.05-.05-.07-.11Z"/><path class="cls-28" d="M266.73,379.53c-.09-.3-.07-.43.08-.43a9.34,9.34,0,0,0,1.63-.79c.2-.18.18-.42,0-.47a4.14,4.14,0,0,0-1.59.44l-.43.17-.14-.34-.15-.35.37-.2a6.35,6.35,0,0,1,2-.62,1.5,1.5,0,0,1,.92.11c.41.19.73.6.66.87a3.58,3.58,0,0,1-1.51,1.24,9.09,9.09,0,0,1-1.66.67c-.05,0-.13-.13-.18-.3Z"/><path class="cls-28" d="M266,379.12c-.18-.19.39-.52,1.57-.92,1-.33,1-.12-.05.35a4.74,4.74,0,0,1-1.52.57Zm-.32-1c-.25-.77-.13-.88.19-.17s.29.67.13.72-.17-.11-.32-.55Zm-56.25-4a2.16,2.16,0,0,1-1.06-1c-.05-.21.11-4.89.19-5.49l0-.34.47,0c.27,0,.67-.12.91-.18a14.3,14.3,0,0,1,2.49-.56l.59-.06,0,3.14,0,3.14-.48.46a3.31,3.31,0,0,1-3.1.94Zm6.63-.16a4.38,4.38,0,0,1-1.8-.86l-.3-.27,0-3.2.05-3.2.63.06a36.05,36.05,0,0,1,3.66.6,8.71,8.71,0,0,1,.19,1.4,14.46,14.46,0,0,1-.07,4.22,1.92,1.92,0,0,1-2.4,1.25Zm-24.36-7.22a14.77,14.77,0,0,1-9.47-6.52c-1.33-2-1.62-3-1.69-5.86a19.15,19.15,0,0,1,.34-4.74,15.81,15.81,0,0,1,6.61-10.51c4-2.68,10.76-4.37,20.17-5,2.58-.18,8.74-.26,11.43-.17,11.21.41,18.07,2.19,21.91,5.7a17,17,0,0,1,5.16,9.84c.49,2.86.32,6.36-.38,8a14.74,14.74,0,0,1-9.4,8,8.16,8.16,0,0,1-2.76.23,17.57,17.57,0,0,1-5.71-.79,15.71,15.71,0,0,1-4.27-1.94c-.52-.36-.58-.44-.73-.86a6.06,6.06,0,0,0-3.64-3.16l-.65-.26-.09-.4a1.92,1.92,0,0,0-.75-1.14c-1.42-1.12-4.23-1.47-6.47-.81-1.65.48-2.61,1.47-2.39,2.45l.05.27-.7.32a7.37,7.37,0,0,0-3.39,2.85,3,3,0,0,1-.9,1,16.55,16.55,0,0,1-5.55,2.87A16.9,16.9,0,0,1,191.73,366.72Zm6.79-4.13a15.68,15.68,0,0,0,6.55-2.74,25.67,25.67,0,0,0,3-2.69,11.2,11.2,0,0,0,2.67-5.25,13.33,13.33,0,0,0,0-4.32,11.58,11.58,0,0,0-6.48-8.24,12.39,12.39,0,0,0-10.05-.31c-5.37,1.95-8.86,5.34-9.94,9.63a11.49,11.49,0,0,0-.38,3.33,10.3,10.3,0,0,0,.46,3.31,10.72,10.72,0,0,0,7.91,7,17.76,17.76,0,0,0,2.23.4,28.6,28.6,0,0,0,4-.15ZM232,361.08a12.6,12.6,0,0,0,7.59-3.21,9.18,9.18,0,0,0,2.73-5.34,19.72,19.72,0,0,0-.17-5.3c-1.17-5.53-5.25-8.93-12-10a26.21,26.21,0,0,0-4.79-.13,12,12,0,0,0-8.87,5.91,10.39,10.39,0,0,0-1.4,5.93,9.81,9.81,0,0,0,.7,3.62,11.89,11.89,0,0,0,4,5.17,24.63,24.63,0,0,0,3.91,2.11,18.13,18.13,0,0,0,8.24,1.2Z"/><path class="cls-28" d="M193.87,361.93a12.55,12.55,0,0,1-5.45-2.17,10.1,10.1,0,0,1-3-3.76,11.55,11.55,0,0,1-.23-7.73,10.48,10.48,0,0,1,2.9-4.63,8,8,0,0,1,1.79-1.52,2.58,2.58,0,0,1-.3.4,11.69,11.69,0,0,0-2,3.53,9,9,0,0,0-.54,3.67,8.7,8.7,0,0,0,.19,2.36,11.64,11.64,0,0,0,3.35,5.8,12,12,0,0,0,7.86,3.26,11.27,11.27,0,0,0,2.8-.19c.06,0,.12,0,.12,0a8.47,8.47,0,0,1-2.07.7,16.73,16.73,0,0,1-5.46.24Z"/><path class="cls-28" d="M197.71,360.14a11.79,11.79,0,0,1-3.52-1,10.62,10.62,0,0,1-6.06-7.82,11.47,11.47,0,0,1,.16-4.1,10.22,10.22,0,0,1,2.8-4.88,11.26,11.26,0,0,1,10.72-2.87,10.81,10.81,0,0,1,8,8.36,14,14,0,0,1,0,3.83,10.4,10.4,0,0,1-2.89,5.29,11.22,11.22,0,0,1-5.68,3.05A20.11,20.11,0,0,1,197.71,360.14Zm9-6.7a3.76,3.76,0,0,0,2-2.38,3.7,3.7,0,0,0-7.09-2.08,3.05,3.05,0,0,0-.14,1.36,2.7,2.7,0,0,0,.34,1.37,3.71,3.71,0,0,0,2.28,2,4.2,4.2,0,0,0,1.18.09,2.5,2.5,0,0,0,1.46-.32Z"/><path class="cls-28" d="M205.85,351.46a1,1,0,0,1-.47-.77,1.05,1.05,0,0,1,.57-.8.91.91,0,0,1,1.17.64.93.93,0,0,1-.44.93A.78.78,0,0,1,205.85,351.46Zm23.1,8.92c-1.5-.17-2.1-.35-1.12-.35a11.9,11.9,0,0,0,10.72-8.24,9.28,9.28,0,0,0,.45-3.32,9.52,9.52,0,0,0-.19-2.15,11.51,11.51,0,0,0-1.88-4.31,14.89,14.89,0,0,0-2.73-2.71c-.33-.22-.56-.42-.52-.43a11.8,11.8,0,0,1,2.33,1,11,11,0,0,1,5.07,6,15.11,15.11,0,0,1,.4,7.31c-1,4-4.32,6.54-9.33,7.15A22.87,22.87,0,0,1,229,360.38Z"/><path class="cls-28" d="M226.31,359.08a11.05,11.05,0,0,1-9.42-6.52,8.61,8.61,0,0,1-.78-3.65,9.36,9.36,0,0,1,.09-2.07,10.85,10.85,0,0,1,7.72-8.4,12.28,12.28,0,0,1,5-.27,10.92,10.92,0,0,1,8.66,7.42,10.21,10.21,0,0,1-2.36,10,11.18,11.18,0,0,1-7.21,3.48A6.83,6.83,0,0,1,226.31,359.08Zm8.13-6.6a3.89,3.89,0,0,0,2.22-2.29,4.15,4.15,0,0,0,0-2.44,3.7,3.7,0,0,0-2.35-2.25,3.06,3.06,0,0,0-1.33-.14,2.41,2.41,0,0,0-1.36.33,3.63,3.63,0,0,0-1.75,1.75,2.48,2.48,0,0,0-.33,1.33A3.54,3.54,0,0,0,230,351a3.92,3.92,0,0,0,2.31,1.63,4.67,4.67,0,0,0,2.1-.16Z"/><path class="cls-28" d="M233.72,350.17c-.26-.26-.29-.32-.25-.63a.86.86,0,0,1,1.66-.25.84.84,0,0,1-.8,1.16A.71.71,0,0,1,233.72,350.17Zm-26.36,16.1a2.62,2.62,0,0,1-1.53-.77,2.78,2.78,0,0,1-.42-1.74,4.18,4.18,0,0,1,1.88-2.73,12.86,12.86,0,0,1,2.27-1.16,2.92,2.92,0,0,1,.57.28,8.3,8.3,0,0,0,7,.15,4.34,4.34,0,0,0,.82-.52l.28-.25.54.21a6.78,6.78,0,0,1,2.45,1.46,2.46,2.46,0,0,1,1,2.19,2.5,2.5,0,0,1-.23,1.33c-.64,1.38-1.88,1.64-5,1.08a13.68,13.68,0,0,0-6.28.07A7.5,7.5,0,0,1,207.36,366.27Zm-28.91-8.93a4,4,0,0,1-3.4-2.81,4.29,4.29,0,0,1-.21-1.64,7.24,7.24,0,0,1,0-1.1,3.31,3.31,0,0,1,1.18,0,24.24,24.24,0,0,0,3.65,0c.08,0,.12.45.14,2.08a15.55,15.55,0,0,0,.25,3.35c0,.17,0,.18-.62.17a6.41,6.41,0,0,1-1-.08Zm68.87-.71c-.24,0-.43-.08-.43-.13a21.23,21.23,0,0,0,.26-3.87l0-1.69.29.07a14.59,14.59,0,0,0,3.68-.18,7,7,0,0,1,1.34-.17,23.07,23.07,0,0,1-.07,3.85,3,3,0,0,1-.72,1.48c-.69.58-2.44.84-4.32.64Zm-69.75-5.58c0-.09.15-.59.26-1.12.29-1.33.82-3.44,1-4.23a32.44,32.44,0,0,1,3.89-7l.15-.23-.23-.08a10.24,10.24,0,0,0-1.59-.4c-.24,0-.24-.16,0-1.15a15.93,15.93,0,0,1,1-3.2,6.74,6.74,0,0,1,3.17-2.82l.7-.38.06.25a6.57,6.57,0,0,1,0,.72,33.22,33.22,0,0,0,.41,3.67,12.53,12.53,0,0,0,.77,2.78l.2.41-.17.12a17.65,17.65,0,0,0-3.89,3.65,18.52,18.52,0,0,0-3.29,8.14c-.11.72-.18.94-.27.94l-1.21.06c-1,.05-1.08.05-1-.1Z"/><path class="cls-28" d="M175.72,350.51a5.42,5.42,0,0,1-3.58-4,8,8,0,0,1,1.32-5.67,5.9,5.9,0,0,1,4-2.12c1.18-.15,3.85.06,3.8.3,0,.05-.34.6-.74,1.24s-.91,1.49-1.12,1.89l-.39.72-.37-.06c-1.48-.21-2.47.19-2.74,1.08a2.78,2.78,0,0,0,.1,1.79,5.37,5.37,0,0,0,1.24,1.38l.18.15-.23,1c-.13.54-.32,1.33-.41,1.77-.14.61-.21.79-.31.79a4.17,4.17,0,0,1-.79-.27Zm71.77-.24c-.38-.08-.45-.12-.47-.3-.08-.59-.46-2.33-.67-3a16.48,16.48,0,0,0-8.15-10.17l-.75-.39a9.88,9.88,0,0,1,.47-1.15c.27-.61.63-1.49.82-1.94.25-.63,2.13-4.7,2.21-4.81a6,6,0,0,1,.82.54c.45.3,1.22.84,1.72,1.19a6.43,6.43,0,0,1,2,2.13c.08.17.48,1.33.89,2.58s.76,2.33.78,2.41,0,.15-.18.19a10,10,0,0,0-1.55.44c-.09.05.07.46.79,2,1.83,3.94,2.43,5.47,2.65,6.73a23.59,23.59,0,0,1,.26,3.52c0,.11-.17.13-.64.12a6.3,6.3,0,0,1-1-.09Z"/><path class="cls-28" d="M250.13,349.1c0-.35-.09-1.05-.14-1.55a7.44,7.44,0,0,1-.05-.94,4.38,4.38,0,0,1,.47-.28,3.59,3.59,0,0,0,1.32-1.27,2.19,2.19,0,0,0-.57-2.48,2.51,2.51,0,0,0-2-.56l-.85,0-.8-1.73a16,16,0,0,1-.74-1.76,10,10,0,0,1,1.87-.21,5.7,5.7,0,0,1,6,4.43,6,6,0,0,1,.26,1.74,4.52,4.52,0,0,1-.44,2.5,5.61,5.61,0,0,1-2,2,9.46,9.46,0,0,1-2.11.71c-.08,0-.13-.18-.16-.62Zm-62.59-11.77a21,21,0,0,1-1-5.73l-.1-1.46.65-.61A14.84,14.84,0,0,1,189,328a22.11,22.11,0,0,0,4.17-3.53c1.43-1.47,2.39-2.11,5.89-3.87,3-1.51,3.35-1.63,7.71-2.35,1.2-.2,2.66-.46,3.23-.58l1.07-.2a9.75,9.75,0,0,1,.31,2.11,53,53,0,0,1,.5,8.56c0,2.23,0,4.26.07,4.51l.07.46-1.29.05c-9.95.41-17.07,1.79-21.94,4.28l-1,.48a2.69,2.69,0,0,1-.29-.63Zm48.54-1.48a47.16,47.16,0,0,0-12-2.39,77.21,77.21,0,0,0-8-.32h-3.65l-.06-1.1c0-.6,0-2.57,0-4.38a51,51,0,0,0-.54-8.51,13.37,13.37,0,0,1-.16-1.62c.08-.09,4.2,0,5.39.06a32.2,32.2,0,0,1,5.72.82c.27.08.92.34,1.46.56.87.35,3.56,1.32,5.72,2.05,1.65.55,3.38,1.19,3.78,1.39a37,37,0,0,1,5.57,4.56l1.27,1.18-.23.51c-.13.28-.51,1.09-.86,1.8s-.79,1.72-1,2.23c-.81,1.95-1.49,3.49-1.54,3.48s-.43-.14-.87-.31Z"/></svg>