<?xml version="1.0" encoding="UTF-8"?>
<svg xmlns="http://www.w3.org/2000/svg" xmlns:xlink="http://www.w3.org/1999/xlink" width="432pt" height="576pt" viewBox="0 0 432 576" version="1.1">
<defs>
<filter id="alpha" filterUnits="objectBoundingBox" x="0%" y="0%" width="100%" height="100%">
  <feColorMatrix type="matrix" in="SourceGraphic" values="0 0 0 0 1 0 0 0 0 1 0 0 0 0 1 0 0 0 1 0"/>
</filter>
<mask id="mask0">
  <g filter="url(#alpha)">
<rect x="0" y="0" width="432" height="576" style="fill:rgb(0%,0%,0%);fill-opacity:0.179993;stroke:none;"/>
  </g>
</mask>
<clipPath id="clip2">
  <path d="M 0.328125 0.359375 L 205 0.359375 L 205 79 L 0.328125 79 Z M 0.328125 0.359375 "/>
</clipPath>
<clipPath id="clip3">
  <path d="M 6 8 L 237.625 8 L 237.625 92.628906 L 6 92.628906 Z M 6 8 "/>
</clipPath>
<clipPath id="clip1">
  <rect x="0" y="0" width="238" height="93"/>
</clipPath>
<g id="surface5" clip-path="url(#clip1)">
<g clip-path="url(#clip2)" clip-rule="nonzero">
<path style=" stroke:none;fill-rule:nonzero;fill:rgb(90.19928%,90.19928%,90.19928%);fill-opacity:1;" d="M 0.484375 78.339844 L 0.328125 77.933594 L 204.207031 0.359375 L 204.359375 0.765625 Z M 0.484375 78.339844 "/>
</g>
<path style=" stroke:none;fill-rule:nonzero;fill:rgb(90.19928%,90.19928%,90.19928%);fill-opacity:1;" d="M 1.636719 81.261719 L 1.480469 80.855469 L 193.542969 7.109375 L 211.273438 1.511719 L 211.40625 1.925781 L 193.6875 7.523438 Z M 1.636719 81.261719 "/>
<path style=" stroke:none;fill-rule:nonzero;fill:rgb(90.19928%,90.19928%,90.19928%);fill-opacity:1;" d="M 2.851562 84.335938 L 2.695312 83.929688 L 194.394531 9.273438 L 217.773438 3.398438 L 217.878906 3.820312 L 194.527344 9.6875 Z M 2.851562 84.335938 "/>
<path style=" stroke:none;fill-rule:nonzero;fill:rgb(90.19928%,90.19928%,90.19928%);fill-opacity:1;" d="M 3.921875 87.035156 L 3.84375 86.832031 L 195.234375 11.402344 L 224.59375 4.976562 L 224.640625 5.1875 L 195.300781 11.609375 Z M 3.921875 87.035156 "/>
<path style=" stroke:none;fill-rule:nonzero;fill:rgb(90.19928%,90.19928%,90.19928%);fill-opacity:1;" d="M 4.910156 89.539062 L 196.085938 13.554688 L 231.214844 6.753906 L 231.257812 6.96875 L 196.148438 13.761719 L 4.992188 89.742188 Z M 4.910156 89.539062 "/>
<g clip-path="url(#clip3)" clip-rule="nonzero">
<path style=" stroke:none;fill-rule:nonzero;fill:rgb(90.19928%,90.19928%,90.19928%);fill-opacity:1;" d="M 6.339844 92.425781 L 196.851562 15.488281 L 237.585938 8.296875 L 237.625 8.511719 L 196.910156 15.695312 L 6.421875 92.628906 Z M 6.339844 92.425781 "/>
</g>
</g>
</defs>
<g id="surface1">
<path style="fill:none;stroke-width:10;stroke-linecap:round;stroke-linejoin:round;stroke:rgb(0%,0%,0%);stroke-opacity:1;stroke-miterlimit:10;" d="M -0.001475 -0.001425 L 32.697744 5.861856 C 32.697744 5.861856 51.896962 9.924356 62.771962 29.205606 C 73.646962 48.48295 77.119619 66.002481 77.119619 66.002481 " transform="matrix(1,0,0,-1,260.9546,334.5142)"/>
<path style="fill:none;stroke-width:10;stroke-linecap:round;stroke-linejoin:round;stroke:rgb(0%,0%,0%);stroke-opacity:1;stroke-miterlimit:10;" d="M -0.0005125 0.001925 L -0.0005125 -16.806669 L 15.886206 -15.654325 L 15.956519 -0.412137 " transform="matrix(1,0,0,-1,329.3677,251.8613)"/>
<path style="fill:none;stroke-width:10;stroke-linecap:round;stroke-linejoin:round;stroke:rgb(0%,0%,0%);stroke-opacity:1;stroke-miterlimit:10;" d="M -0.00193125 0.00146875 L -0.00193125 -5.506344 " transform="matrix(1,0,0,-1,335.1074,263.396)"/>
<path style="fill:none;stroke-width:10;stroke-linecap:round;stroke-linejoin:round;stroke:rgb(0%,0%,0%);stroke-opacity:1;stroke-miterlimit:10;" d="M -0.00095625 0.00044375 L -0.00095625 -5.507369 " transform="matrix(1,0,0,-1,340.2158,263.3481)"/>
<path style="fill:none;stroke-width:10;stroke-linecap:round;stroke-linejoin:round;stroke:rgb(0%,0%,0%);stroke-opacity:1;stroke-miterlimit:10;" d="M -0.0015125 -0.00145 L -6.673387 4.697769 " transform="matrix(1,0,0,-1,328.6812,268.0923)"/>
<path style="fill:none;stroke-width:8;stroke-linecap:round;stroke-linejoin:round;stroke:rgb(0%,0%,0%);stroke-opacity:1;stroke-miterlimit:10;" d="M 0.00100625 -0.00048125 L 13.012725 -87.004388 L 30.583037 -87.004388 " transform="matrix(1,0,0,-1,235.9404,391.1128)"/>
<path style="fill:none;stroke-width:8;stroke-linecap:round;stroke-linejoin:round;stroke:rgb(0%,0%,0%);stroke-opacity:1;stroke-miterlimit:10;" d="M 0.0010125 -0.00146875 L -7.877894 -91.450687 L -28.467737 -91.450687 " transform="matrix(1,0,0,-1,203.6943,386.6665)"/>
<path style=" stroke:none;fill-rule:nonzero;fill:rgb(8.599854%,8.599854%,8.599854%);fill-opacity:1;" d="M 290.910156 298.980469 L 140.945312 298.980469 C 134.347656 298.980469 128.945312 293.582031 128.945312 286.980469 L 128.945312 277.300781 C 128.945312 270.699219 134.347656 265.300781 140.945312 265.300781 L 290.910156 265.300781 C 297.511719 265.300781 302.910156 270.699219 302.910156 277.300781 L 302.910156 286.980469 C 302.910156 293.582031 297.511719 298.980469 290.910156 298.980469 "/>
<path style="fill:none;stroke-width:1;stroke-linecap:butt;stroke-linejoin:miter;stroke:rgb(8.599854%,8.599854%,8.599854%);stroke-opacity:1;stroke-miterlimit:10;" d="M -0.00094375 0.00143125 L -149.965787 0.00143125 C -156.563444 0.00143125 -161.965787 5.399869 -161.965787 12.001431 L -161.965787 21.681119 C -161.965787 28.282681 -156.563444 33.681119 -149.965787 33.681119 L -0.00094375 33.681119 C 6.600619 33.681119 11.999056 28.282681 11.999056 21.681119 L 11.999056 12.001431 C 11.999056 5.399869 6.600619 0.00143125 -0.00094375 0.00143125 Z M -0.00094375 0.00143125 " transform="matrix(1,0,0,-1,290.9111,298.9819)"/>
<path style=" stroke:none;fill-rule:nonzero;fill:rgb(99.598694%,68.598938%,2.398682%);fill-opacity:1;" d="M 216.851562 183.972656 C 175.285156 183.972656 141.589844 170.59375 141.589844 154.089844 C 141.589844 137.589844 175.285156 124.210938 216.851562 124.210938 C 258.417969 124.210938 292.113281 137.589844 292.113281 154.089844 C 292.113281 170.59375 258.417969 183.972656 216.851562 183.972656 "/>
<path style=" stroke:none;fill-rule:nonzero;fill:rgb(17.599487%,19.198608%,24.699402%);fill-opacity:1;" d="M 280.535156 389.152344 C 280.535156 404.167969 252.308594 416.339844 217.496094 416.339844 C 182.679688 416.339844 154.457031 404.167969 154.457031 389.152344 C 154.457031 374.136719 182.679688 361.964844 217.496094 361.964844 C 252.308594 361.964844 280.535156 374.136719 280.535156 389.152344 "/>
<path style=" stroke:none;fill-rule:nonzero;fill:rgb(98.399353%,84.698486%,16.899109%);fill-opacity:1;" d="M 141.59375 154.089844 C 141.59375 170.59375 175.285156 183.972656 216.851562 183.972656 C 258.417969 183.972656 292.113281 170.59375 292.113281 154.089844 C 292.113281 154.089844 292.550781 370.71875 292.113281 375.390625 C 290.566406 391.820312 258.417969 405.269531 216.851562 405.269531 C 175.285156 405.269531 141.59375 391.890625 141.59375 375.390625 Z M 141.59375 154.089844 "/>
<path style=" stroke:none;fill-rule:nonzero;fill:rgb(100%,88.598633%,47.099304%);fill-opacity:1;" d="M 154.457031 373.21875 L 154.457031 170.78125 C 156.820312 172.164062 159.464844 173.464844 162.363281 174.671875 L 162.367188 189.65625 L 162.367188 379.644531 L 162.363281 395.96875 C 159.464844 394.765625 156.820312 393.464844 154.457031 392.078125 Z M 154.457031 373.21875 "/>
<path style=" stroke:none;fill-rule:nonzero;fill:rgb(100%,88.598633%,47.099304%);fill-opacity:1;" d="M 189.234375 359.003906 L 189.234375 181.824219 C 186.515625 181.398438 183.878906 180.914062 181.324219 180.367188 L 181.324219 401.667969 C 183.878906 402.210938 186.515625 402.699219 189.234375 403.125 Z M 189.234375 359.003906 "/>
<path style=" stroke:none;fill-rule:nonzero;fill:rgb(100%,88.598633%,47.099304%);fill-opacity:1;" d="M 223.839844 401.109375 L 223.839844 183.972656 C 221.539062 184.054688 219.207031 184.097656 216.851562 184.097656 C 216.542969 184.097656 216.234375 184.097656 215.929688 184.09375 L 215.929688 405.394531 C 216.234375 405.394531 216.542969 405.398438 216.851562 405.398438 C 219.210938 405.398438 221.542969 405.355469 223.839844 405.269531 Z M 223.839844 401.109375 "/>
<path style=" stroke:none;fill-rule:nonzero;fill:rgb(100%,88.598633%,47.099304%);fill-opacity:1;" d="M 244.847656 403.113281 L 244.847656 181.855469 L 252.757812 180.378906 L 252.757812 401.59375 Z M 244.847656 403.113281 "/>
<path style=" stroke:none;fill-rule:nonzero;fill:rgb(100%,88.598633%,47.099304%);fill-opacity:1;" d="M 280.53125 376.628906 L 280.53125 191.335938 L 280.535156 170.101562 C 278.234375 171.476562 275.574219 172.800781 272.621094 174.152344 L 272.621094 395.148438 C 275 394.015625 278.960938 391.855469 280.53125 390.855469 Z M 280.53125 376.628906 "/>
<path style="fill-rule:nonzero;fill:rgb(8.599854%,8.599854%,8.599854%);fill-opacity:1;stroke-width:1;stroke-linecap:butt;stroke-linejoin:miter;stroke:rgb(8.599854%,8.599854%,8.599854%);stroke-opacity:1;stroke-miterlimit:10;" d="M 0.0005375 0.0005125 L 0.0005375 -54.964331 C 0.0005375 -71.468237 35.184131 -84.847144 78.590381 -84.847144 C 121.992725 -84.847144 155.563037 -71.397925 157.176319 -54.964331 C 157.328662 -53.433081 157.379444 -29.073706 157.38335 2.965356 L 157.176319 40.7427 C 157.176319 24.2427 121.992725 10.863794 78.590381 10.863794 C 35.184131 10.863794 0.0005375 24.2427 0.0005375 40.7427 Z M 0.0005375 0.0005125 " transform="matrix(1,0,0,-1,138.3354,320.2427)"/>
<path style=" stroke:none;fill-rule:nonzero;fill:rgb(21.199036%,47.499084%,100%);fill-opacity:1;" d="M 166.195312 301.847656 C 166.195312 301.847656 157.808594 299.03125 154.515625 297.109375 C 154.515625 297.109375 151.023438 272.875 164.898438 242.542969 C 164.898438 242.542969 161.8125 244.375 157.546875 247.269531 C 155.378906 248.738281 161.945312 246.664062 159.417969 248.582031 C 156.558594 250.753906 154.886719 256.242188 154.453125 260.527344 L 142.015625 247.472656 C 142.015625 247.472656 157.8125 194.921875 174.660156 178.863281 C 190.742188 182.5 187.824219 181.535156 187.824219 181.535156 C 177.546875 190.597656 201.027344 211.960938 191.066406 227.515625 L 166.195312 301.847656 "/>
<path style=" stroke:none;fill-rule:nonzero;fill:rgb(90.99884%,0%,23.899841%);fill-opacity:1;" d="M 187.410156 181.535156 C 170.5625 197.59375 152.871094 256.121094 152.871094 256.121094 L 154.457031 259.488281 C 163.972656 250.570312 177.652344 245.214844 177.652344 245.214844 C 163.773438 275.546875 166.445312 299.96875 166.445312 299.96875 C 194.199219 234.355469 230.777344 207.550781 230.777344 207.550781 C 218.882812 207.355469 196.878906 224.796875 196.878906 224.796875 C 206.839844 209.242188 225.375 192.089844 235.652344 183.027344 C 235.652344 183.027344 203.496094 185.171875 187.410156 181.535156 "/>
<path style="fill:none;stroke-width:1;stroke-linecap:butt;stroke-linejoin:miter;stroke:rgb(90.99884%,0%,23.899841%);stroke-opacity:1;stroke-miterlimit:10;" d="M -0.00094375 0.00044375 C -16.8486 -16.05815 -34.540006 -74.585494 -34.540006 -74.585494 L -32.954069 -77.952681 C -23.438444 -69.034713 -9.758756 -63.679244 -9.758756 -63.679244 C -23.637663 -94.011275 -20.965788 -118.43315 -20.965788 -118.43315 C 6.788119 -52.819869 43.366244 -26.015181 43.366244 -26.015181 C 31.471712 -25.819869 9.467806 -43.261275 9.467806 -43.261275 C 19.428744 -27.706588 37.9639 -10.554244 48.241244 -1.491744 C 48.241244 -1.491744 16.084994 -3.636275 -0.00094375 0.00044375 Z M -0.00094375 0.00044375 " transform="matrix(1,0,0,-1,187.4111,181.5356)"/>
<path style="fill-rule:nonzero;fill:rgb(0%,94.898987%,38.398743%);fill-opacity:1;stroke-width:5;stroke-linecap:butt;stroke-linejoin:miter;stroke:rgb(0%,79.998779%,32.199097%);stroke-opacity:1;stroke-miterlimit:10;" d="M -0.0005 0.00045625 C -0.0005 0.00045625 -0.0005 49.1528 1.483875 53.844206 C 2.964344 58.535612 3.456531 62.242644 4.198719 62.734831 C 4.940906 63.230925 28.15575 75.578581 29.147937 75.578581 C 30.132312 75.578581 52.116687 68.168425 67.429187 72.863737 L 76.890125 78.297331 C 76.890125 78.297331 81.015125 74.8403 86.940906 75.086394 C 86.940906 75.086394 109.417469 77.30905 112.382312 82.742644 C 112.382312 82.742644 122.507312 75.086394 126.706531 74.5903 C 126.706531 74.5903 134.858875 71.629362 138.562 56.80905 C 142.269031 41.988737 144.245594 21.488737 149.429187 11.609831 C 154.616687 1.730925 153.628406 -2.2222 153.628406 -2.2222 L 165.979969 18.523894 C 165.979969 18.523894 162.026844 51.62155 162.026844 54.336394 C 162.026844 57.055144 170.179187 80.273894 168.944812 86.695769 C 167.710437 93.117644 166.226062 97.562956 165.487781 98.797331 C 164.745594 100.031706 164.2495 108.430144 164.2495 108.430144 C 164.2495 108.430144 163.015125 112.629362 163.757312 113.617644 C 164.4995 114.605925 164.745594 118.062956 164.745594 118.062956 L 163.015125 121.273894 C 163.015125 121.273894 160.546375 123.992644 160.546375 125.227019 C 160.546375 126.461394 158.815906 129.176237 158.815906 129.176237 L 156.59325 131.648894 L 153.382312 133.129362 L 148.937 134.117644 L 145.972156 137.328581 L 149.183094 141.281706 L 144.245594 146.4653 L 140.538562 147.949675 L 132.390125 147.949675 C 135.104969 147.949675 134.858875 151.9028 135.601062 152.394987 C 136.339344 152.887175 136.589344 155.113737 136.589344 155.113737 L 131.647937 158.816862 L 128.929187 160.793425 L 116.581531 164.74655 L 111.886219 164.74655 L 107.440906 163.262175 L 98.058094 166.969206 L 92.128406 166.969206 L 86.940906 168.449675 L 82.741687 169.437956 L 58.292469 169.437956 L 52.608875 166.719206 L 45.448719 164.250456 L 38.776844 166.969206 C 38.776844 166.969206 35.319812 168.449675 35.319812 167.707487 C 35.319812 166.969206 33.839344 161.285612 33.839344 161.285612 L 29.640125 159.805144 L 25.440906 161.285612 L 21.737781 156.594206 C 21.737781 156.594206 20.7495 154.125456 20.007312 154.125456 C 19.265125 154.125456 17.042469 153.383269 17.042469 153.383269 L 17.042469 148.691862 L 18.03075 145.973112 L 13.089344 146.7153 L 10.128406 148.937956 L 8.397937 140.785612 L 4.444812 138.316862 L 2.46825 134.859831 L -3.953625 132.633269 C -3.953625 132.633269 -8.645031 128.68405 -7.902844 127.695769 C -7.164563 126.707487 -7.984875 123.992644 -7.984875 123.992644 L -13.582531 118.805144 L -17.535656 111.641081 C -17.535656 111.641081 -17.289563 108.676237 -17.535656 107.93405 C -17.78175 107.195769 -19.266125 101.512175 -19.266125 101.512175 L -19.266125 93.117644 L -20.992688 84.719206 C -20.992688 84.719206 -16.055188 79.039519 -15.313 78.543425 C -14.570813 78.051237 -11.855969 65.699675 -11.609875 64.957487 C -11.359875 64.219206 -8.891125 51.125456 -8.891125 51.125456 C -8.891125 51.125456 -9.387219 32.602019 -9.137219 31.613737 C -8.891125 30.625456 -8.398938 19.512175 -8.152844 18.523894 C -7.902844 17.535612 -7.902844 11.359831 -7.902844 11.359831 Z M -0.0005 0.00045625 " transform="matrix(1,0,0,-1,140.438,259.3403)"/>
<path style="fill:none;stroke-width:5;stroke-linecap:butt;stroke-linejoin:miter;stroke:rgb(0%,79.998779%,32.199097%);stroke-opacity:1;stroke-miterlimit:10;" d="M -0.00146875 -0.00141875 C -0.00146875 -0.00141875 -39.767094 26.182175 -42.731937 43.225144 " transform="matrix(1,0,0,-1,169.5835,183.7603)"/>
<path style="fill:none;stroke-width:5;stroke-linecap:butt;stroke-linejoin:miter;stroke:rgb(0%,79.998779%,32.199097%);stroke-opacity:1;stroke-miterlimit:10;" d="M 0.00005 0.0000125 C 0.00005 0.0000125 24.460987 -55.890613 54.714894 -70.058581 " transform="matrix(1,0,0,-1,158.4687,113.3672)"/>
<path style="fill:none;stroke-width:5;stroke-linecap:butt;stroke-linejoin:miter;stroke:rgb(0%,79.998779%,32.199097%);stroke-opacity:1;stroke-miterlimit:10;" d="M 0.0000125 0.00004375 C 0.0000125 0.00004375 -56.808581 51.621138 -41.988269 86.695356 " transform="matrix(1,0,0,-1,252.8203,176.5977)"/>
<path style="fill:none;stroke-width:5;stroke-linecap:butt;stroke-linejoin:miter;stroke:rgb(0%,79.998779%,32.199097%);stroke-opacity:1;stroke-miterlimit:10;" d="M -0.00144375 0.00048125 C -0.00144375 0.00048125 -23.907694 -23.147956 -16.520975 -64.429206 " transform="matrix(1,0,0,-1,286.4116,122.0122)"/>
<path style="fill:none;stroke-width:5;stroke-linecap:butt;stroke-linejoin:miter;stroke:rgb(0%,79.998779%,32.199097%);stroke-opacity:1;stroke-miterlimit:10;" d="M 0.0000375 0.00150625 C 0.0000375 0.00150625 -29.726525 -11.193806 -28.480431 -38.361775 " transform="matrix(1,0,0,-1,308.4609,168.3726)"/>
<path style="fill:none;stroke-width:8;stroke-linecap:round;stroke-linejoin:round;stroke:rgb(43.899536%,11.399841%,11.399841%);stroke-opacity:1;stroke-miterlimit:10;" d="M 0.0005 -0.00095 C -3.667469 -4.239231 -10.062 -4.504856 -15.663562 -4.204075 C -20.538562 -3.942356 -25.472156 -3.481419 -30.050281 -1.793919 C -35.319812 0.151394 -39.858875 3.627956 -44.312 7.057644 C -46.386219 8.6553 -48.464344 10.24905 -50.538562 11.850613 " transform="matrix(1,0,0,-1,234.6245,271.5928)"/>
<path style=" stroke:none;fill-rule:nonzero;fill:rgb(90.19928%,90.19928%,90.19928%);fill-opacity:1;" d="M 372.003906 280.222656 C 372.132812 279.765625 371.886719 279.140625 371.480469 278.894531 C 370.71875 278.453125 369.921875 278.105469 369.082031 277.855469 C 368.621094 277.722656 367.996094 277.972656 367.75 278.378906 C 367.308594 279.136719 366.960938 279.9375 366.710938 280.777344 C 366.578125 281.238281 366.828125 281.863281 367.234375 282.109375 C 367.992188 282.550781 368.792969 282.898438 369.632812 283.148438 C 370.09375 283.277344 370.71875 283.03125 370.964844 282.625 C 371.40625 281.863281 371.753906 281.066406 372.003906 280.222656 "/>
<path style=" stroke:none;fill-rule:nonzero;fill:rgb(90.19928%,90.19928%,90.19928%);fill-opacity:1;" d="M 378.914062 282.179688 C 379.042969 281.71875 378.796875 281.097656 378.390625 280.851562 C 377.632812 280.40625 376.832031 280.0625 375.992188 279.808594 C 375.53125 279.679688 374.90625 279.925781 374.660156 280.335938 C 374.21875 281.09375 373.871094 281.894531 373.621094 282.734375 C 373.488281 283.195312 373.738281 283.816406 374.144531 284.0625 C 374.902344 284.507812 375.703125 284.851562 376.542969 285.105469 C 377.003906 285.234375 377.628906 284.988281 377.875 284.578125 C 378.316406 283.820312 378.664062 283.019531 378.914062 282.179688 "/>
<path style=" stroke:none;fill-rule:nonzero;fill:rgb(90.19928%,90.19928%,90.19928%);fill-opacity:1;" d="M 386.175781 284.238281 C 386.304688 283.777344 386.058594 283.15625 385.648438 282.90625 C 384.890625 282.464844 384.09375 282.117188 383.25 281.867188 C 382.789062 281.738281 382.167969 281.984375 381.921875 282.394531 C 381.476562 283.152344 381.128906 283.949219 380.878906 284.792969 C 380.75 285.25 380.996094 285.875 381.40625 286.121094 C 382.164062 286.566406 382.964844 286.910156 383.804688 287.160156 C 384.265625 287.292969 384.886719 287.046875 385.136719 286.636719 C 385.578125 285.878906 385.921875 285.078125 386.175781 284.238281 "/>
<path style=" stroke:none;fill-rule:nonzero;fill:rgb(90.19928%,90.19928%,90.19928%);fill-opacity:1;" d="M 392.726562 285.984375 C 392.859375 285.523438 392.613281 284.902344 392.203125 284.652344 C 391.445312 284.210938 390.644531 283.863281 389.804688 283.613281 C 389.34375 283.484375 388.71875 283.730469 388.472656 284.140625 C 388.03125 284.898438 387.683594 285.695312 387.433594 286.539062 C 387.304688 286.996094 387.550781 287.621094 387.960938 287.867188 C 388.71875 288.3125 389.515625 288.65625 390.359375 288.910156 C 390.820312 289.039062 391.441406 288.792969 391.6875 288.382812 C 392.128906 287.625 392.476562 286.824219 392.726562 285.984375 "/>
<path style=" stroke:none;fill-rule:nonzero;fill:rgb(90.19928%,90.19928%,90.19928%);fill-opacity:1;" d="M 399.339844 287.582031 C 399.472656 287.121094 399.226562 286.5 398.816406 286.25 C 398.058594 285.808594 397.257812 285.460938 396.417969 285.210938 C 395.957031 285.082031 395.332031 285.328125 395.085938 285.738281 C 394.644531 286.496094 394.296875 287.292969 394.046875 288.136719 C 393.917969 288.59375 394.164062 289.21875 394.574219 289.464844 C 395.332031 289.90625 396.128906 290.253906 396.972656 290.503906 C 397.429688 290.636719 398.054688 290.390625 398.300781 289.980469 C 398.746094 289.222656 399.089844 288.421875 399.339844 287.582031 "/>
<path style=" stroke:none;fill-rule:nonzero;fill:rgb(90.19928%,90.19928%,90.19928%);fill-opacity:1;" d="M 405.683594 289.109375 C 405.816406 288.648438 405.570312 288.023438 405.160156 287.777344 C 404.402344 287.335938 403.601562 286.988281 402.761719 286.738281 C 402.300781 286.609375 401.675781 286.855469 401.429688 287.261719 C 400.988281 288.023438 400.640625 288.820312 400.390625 289.660156 C 400.261719 290.121094 400.507812 290.746094 400.917969 290.992188 C 401.675781 291.433594 402.472656 291.78125 403.316406 292.03125 C 403.773438 292.164062 404.398438 291.914062 404.644531 291.507812 C 405.089844 290.75 405.433594 289.949219 405.683594 289.109375 "/>
<path style=" stroke:none;fill-rule:nonzero;fill:rgb(21.199036%,47.499084%,100%);fill-opacity:1;" d="M 73.949219 332.265625 C 73.949219 332.265625 115.167969 406.339844 158.820312 432.316406 C 158.820312 432.316406 161.011719 432.972656 166.171875 427.949219 C 171.332031 422.921875 197.597656 399.714844 200.59375 397.359375 C 203.585938 395.007812 206.914062 394.980469 211.664062 394.625 C 216.417969 394.269531 272.71875 390.785156 274.847656 390.648438 C 276.980469 390.507812 277.871094 388.964844 278.0625 387.660156 C 278.246094 386.355469 278.953125 384.144531 274.433594 381.890625 C 269.910156 379.636719 252.808594 371.363281 246.722656 368.238281 C 239.886719 364.730469 233.828125 359.917969 244.945312 350.546875 C 256.0625 341.175781 235.878906 336.207031 233.191406 336.214844 C 230.5 336.222656 226.84375 334.972656 222.332031 330.078125 C 217.820312 325.183594 215.785156 323.296875 206.789062 328.546875 C 197.792969 333.800781 184.0625 342.332031 178.335938 342.367188 C 172.609375 342.40625 79.960938 329.695312 77.046875 329.441406 C 74.136719 329.183594 73.398438 329.984375 73.949219 332.265625 "/>
<path style=" stroke:none;fill-rule:nonzero;fill:rgb(64.698792%,49.398804%,46.699524%);fill-opacity:1;" d="M 359.300781 303.429688 L 354.296875 290.761719 L 224.828125 339.734375 L 231.101562 355.609375 Z M 359.300781 303.429688 "/>
<path style=" stroke:none;fill-rule:nonzero;fill:rgb(100%,76.499939%,16.499329%);fill-opacity:1;" d="M 354.296875 290.761719 L 359.300781 303.429688 L 361.304688 302.636719 L 356.300781 289.96875 Z M 354.296875 290.761719 "/>
<path style=" stroke:none;fill-rule:nonzero;fill:rgb(100%,100%,100%);fill-opacity:1;" d="M 194.660156 353.371094 L 211.332031 346.785156 L 218.6875 365.402344 L 232.769531 359.839844 C 232.769531 359.839844 234.480469 366.261719 245.5 371.121094 C 256.519531 375.984375 272.128906 383.171875 273.179688 383.652344 C 274.226562 384.136719 275.632812 385.027344 275.503906 386.679688 C 275.378906 388.332031 273.804688 388.601562 273.023438 388.597656 C 272.238281 388.59375 183.4375 392.484375 183.4375 392.484375 L 179.773438 383.210938 C 179.773438 383.210938 187.632812 378.203125 190.367188 377.121094 C 193.105469 376.039062 202.261719 372.230469 202.261719 372.230469 Z M 194.660156 353.371094 "/>
<path style=" stroke:none;fill-rule:nonzero;fill:rgb(100%,70.599365%,0%);fill-opacity:1;" d="M 255.320312 384.8125 C 256.554688 384.328125 257.15625 382.933594 256.667969 381.703125 C 256.183594 380.472656 254.789062 379.867188 253.558594 380.355469 C 252.328125 380.839844 251.726562 382.234375 252.210938 383.464844 C 252.699219 384.695312 254.089844 385.300781 255.320312 384.8125 "/>
<path style=" stroke:none;fill-rule:nonzero;fill:rgb(100%,70.599365%,0%);fill-opacity:1;" d="M 179.796875 404.171875 C 181.949219 403.320312 183.007812 400.882812 182.15625 398.730469 C 181.304688 396.574219 178.867188 395.519531 176.714844 396.371094 C 174.558594 397.222656 173.5 399.660156 174.355469 401.8125 C 175.203125 403.96875 177.640625 405.023438 179.796875 404.171875 "/>
<path style=" stroke:none;fill-rule:nonzero;fill:rgb(100%,70.599365%,0%);fill-opacity:1;" d="M 164.25 404.753906 C 166.402344 403.902344 167.460938 401.464844 166.609375 399.308594 C 165.757812 397.15625 163.320312 396.097656 161.164062 396.949219 C 159.011719 397.800781 157.953125 400.238281 158.808594 402.394531 C 159.65625 404.546875 162.09375 405.601562 164.25 404.753906 "/>
<path style=" stroke:none;fill-rule:nonzero;fill:rgb(100%,70.599365%,0%);fill-opacity:1;" d="M 148.5625 405.445312 C 150.71875 404.59375 151.773438 402.15625 150.921875 400.003906 C 150.070312 397.847656 147.636719 396.792969 145.480469 397.644531 C 143.324219 398.492188 142.269531 400.929688 143.121094 403.085938 C 143.972656 405.238281 146.410156 406.296875 148.5625 405.445312 "/>
<path style=" stroke:none;fill-rule:nonzero;fill:rgb(21.199036%,47.499084%,100%);fill-opacity:1;" d="M 356.46875 290.402344 C 356.46875 290.402344 361.960938 288.046875 361.484375 280.894531 C 361.4375 280.179688 361.460938 279.203125 363.070312 279.945312 C 364.683594 280.683594 407.46875 291.949219 409.519531 292.839844 C 411.570312 293.726562 418.007812 298.851562 416.789062 303.867188 C 416.074219 306.804688 410.566406 304.726562 409.582031 304.609375 C 408.597656 304.488281 373.207031 297.816406 361.304688 302.636719 Z M 356.46875 290.402344 "/>
<path style=" stroke:none;fill-rule:nonzero;fill:rgb(59.999084%,59.999084%,59.999084%);fill-opacity:1;" d="M 350.308594 307.089844 L 345.214844 294.195312 L 344.398438 294.503906 L 349.5 307.417969 Z M 350.308594 307.089844 "/>
<path style=" stroke:none;fill-rule:nonzero;fill:rgb(59.999084%,59.999084%,59.999084%);fill-opacity:1;" d="M 334.957031 298.078125 L 340.148438 311.222656 L 340.957031 310.894531 L 335.769531 297.769531 Z M 334.957031 298.078125 "/>
<path style=" stroke:none;fill-rule:nonzero;fill:rgb(59.999084%,59.999084%,59.999084%);fill-opacity:1;" d="M 326.15625 301.40625 L 331.4375 314.769531 L 332.246094 314.441406 L 326.972656 301.097656 Z M 326.15625 301.40625 "/>
<path style=" stroke:none;fill-rule:nonzero;fill:rgb(59.999084%,59.999084%,59.999084%);fill-opacity:1;" d="M 317.832031 304.554688 L 323.195312 318.125 L 324.003906 317.796875 L 318.648438 304.246094 Z M 317.832031 304.554688 "/>
<path style=" stroke:none;fill-rule:nonzero;fill:rgb(59.999084%,59.999084%,59.999084%);fill-opacity:1;" d="M 309.953125 307.535156 L 315.390625 321.300781 L 316.199219 320.972656 L 310.765625 307.226562 Z M 309.953125 307.535156 "/>
<path style=" stroke:none;fill-rule:nonzero;fill:rgb(59.999084%,59.999084%,59.999084%);fill-opacity:1;" d="M 302.308594 310.425781 L 307.824219 324.378906 L 308.628906 324.050781 L 303.125 310.117188 Z M 302.308594 310.425781 "/>
<path style=" stroke:none;fill-rule:nonzero;fill:rgb(59.999084%,59.999084%,59.999084%);fill-opacity:1;" d="M 295.175781 313.125 L 300.757812 327.257812 L 301.566406 326.925781 L 295.988281 312.816406 Z M 295.175781 313.125 "/>
<path style=" stroke:none;fill-rule:nonzero;fill:rgb(59.999084%,59.999084%,59.999084%);fill-opacity:1;" d="M 288.601562 315.609375 L 294.25 329.90625 L 295.058594 329.578125 L 289.417969 315.304688 Z M 288.601562 315.609375 "/>
<path style=" stroke:none;fill-rule:nonzero;fill:rgb(59.999084%,59.999084%,59.999084%);fill-opacity:1;" d="M 282.230469 318.019531 L 287.941406 332.472656 L 288.75 332.144531 L 283.046875 317.710938 Z M 282.230469 318.019531 "/>
<path style=" stroke:none;fill-rule:nonzero;fill:rgb(59.999084%,59.999084%,59.999084%);fill-opacity:1;" d="M 276.371094 320.238281 L 282.140625 334.835938 L 282.945312 334.507812 L 277.1875 319.929688 Z M 276.371094 320.238281 "/>
<path style=" stroke:none;fill-rule:nonzero;fill:rgb(59.999084%,59.999084%,59.999084%);fill-opacity:1;" d="M 270.613281 322.414062 L 276.4375 337.15625 L 277.246094 336.828125 L 271.429688 322.105469 Z M 270.613281 322.414062 "/>
<path style=" stroke:none;fill-rule:nonzero;fill:rgb(59.999084%,59.999084%,59.999084%);fill-opacity:1;" d="M 265.363281 324.402344 L 271.242188 339.269531 L 272.046875 338.941406 L 266.179688 324.09375 Z M 265.363281 324.402344 "/>
<path style=" stroke:none;fill-rule:nonzero;fill:rgb(59.999084%,59.999084%,59.999084%);fill-opacity:1;" d="M 260.269531 326.328125 L 266.195312 341.324219 L 267 340.996094 L 261.082031 326.019531 Z M 260.269531 326.328125 "/>
<path style=" stroke:none;fill-rule:nonzero;fill:rgb(59.999084%,59.999084%,59.999084%);fill-opacity:1;" d="M 255.53125 328.121094 L 261.5 343.234375 L 262.308594 342.90625 L 256.34375 327.8125 Z M 255.53125 328.121094 "/>
<path style=" stroke:none;fill-rule:nonzero;fill:rgb(59.999084%,59.999084%,59.999084%);fill-opacity:1;" d="M 250.992188 329.835938 L 257.011719 345.0625 L 257.816406 344.734375 L 251.808594 329.527344 Z M 250.992188 329.835938 "/>
<path style=" stroke:none;fill-rule:nonzero;fill:rgb(59.999084%,59.999084%,59.999084%);fill-opacity:1;" d="M 246.714844 331.457031 L 252.773438 346.789062 L 253.578125 346.457031 L 247.527344 331.148438 Z M 246.714844 331.457031 "/>
<path style=" stroke:none;fill-rule:nonzero;fill:rgb(59.999084%,59.999084%,59.999084%);fill-opacity:1;" d="M 242.789062 332.941406 L 248.886719 348.371094 L 249.695312 348.039062 L 243.605469 332.632812 Z M 242.789062 332.941406 "/>
<path style=" stroke:none;fill-rule:nonzero;fill:rgb(59.999084%,59.999084%,59.999084%);fill-opacity:1;" d="M 239.019531 334.367188 L 245.152344 349.890625 L 245.960938 349.558594 L 239.835938 334.058594 Z M 239.019531 334.367188 "/>
<path style=" stroke:none;fill-rule:nonzero;fill:rgb(59.999084%,59.999084%,59.999084%);fill-opacity:1;" d="M 235.476562 335.707031 L 241.644531 351.316406 L 242.453125 350.988281 L 236.292969 335.398438 Z M 235.476562 335.707031 "/>
<path style=" stroke:none;fill-rule:nonzero;fill:rgb(59.999084%,59.999084%,59.999084%);fill-opacity:1;" d="M 232.039062 337.007812 L 238.238281 352.703125 L 239.046875 352.375 L 232.851562 336.699219 Z M 232.039062 337.007812 "/>
<path style=" stroke:none;fill-rule:nonzero;fill:rgb(59.999084%,59.999084%,59.999084%);fill-opacity:1;" d="M 228.929688 338.183594 L 235.160156 353.957031 L 235.96875 353.625 L 229.746094 337.875 Z M 228.929688 338.183594 "/>
<path style=" stroke:none;fill-rule:nonzero;fill:rgb(59.999084%,59.999084%,59.999084%);fill-opacity:1;" d="M 225.820312 339.359375 L 232.085938 355.207031 L 232.890625 354.878906 L 226.636719 339.050781 Z M 225.820312 339.359375 "/>
<path style=" stroke:none;fill-rule:nonzero;fill:rgb(100%,76.499939%,16.499329%);fill-opacity:1;" d="M 232.265625 360.917969 C 232.710938 360.742188 232.929688 360.238281 232.753906 359.792969 L 223.394531 336.109375 C 223.21875 335.664062 222.714844 335.445312 222.269531 335.621094 L 208.855469 340.921875 C 208.410156 341.097656 208.191406 341.601562 208.367188 342.046875 L 217.726562 365.730469 C 217.902344 366.175781 218.40625 366.394531 218.851562 366.21875 Z M 232.265625 360.917969 "/>
<path style=" stroke:none;fill-rule:nonzero;fill:rgb(39.199829%,14.898682%,7.099915%);fill-opacity:1;" d="M 227.042969 360.125 C 228.402344 359.585938 229.070312 358.050781 228.53125 356.6875 L 222.433594 341.257812 C 221.898438 339.898438 220.359375 339.230469 219 339.769531 C 217.640625 340.304688 216.972656 341.84375 217.511719 343.203125 L 223.609375 358.636719 C 224.148438 359.996094 225.683594 360.660156 227.042969 360.125 "/>
<path style=" stroke:none;fill-rule:nonzero;fill:rgb(59.999084%,59.999084%,59.999084%);fill-opacity:1;" d="M 220.363281 343.21875 C 220.765625 343.058594 220.964844 342.601562 220.804688 342.195312 C 220.644531 341.792969 220.1875 341.59375 219.785156 341.753906 C 219.378906 341.914062 219.183594 342.371094 219.34375 342.773438 C 219.5 343.179688 219.960938 343.378906 220.363281 343.21875 "/>
<path style=" stroke:none;fill-rule:nonzero;fill:rgb(59.999084%,59.999084%,59.999084%);fill-opacity:1;" d="M 221.542969 346.203125 C 221.945312 346.042969 222.144531 345.585938 221.984375 345.179688 C 221.824219 344.777344 221.367188 344.578125 220.964844 344.738281 C 220.558594 344.898438 220.363281 345.355469 220.523438 345.757812 C 220.679688 346.164062 221.136719 346.363281 221.542969 346.203125 "/>
<path style=" stroke:none;fill-rule:nonzero;fill:rgb(59.999084%,59.999084%,59.999084%);fill-opacity:1;" d="M 222.722656 349.1875 C 223.125 349.027344 223.324219 348.570312 223.164062 348.164062 C 223.003906 347.761719 222.546875 347.5625 222.144531 347.722656 C 221.738281 347.882812 221.539062 348.339844 221.699219 348.742188 C 221.859375 349.148438 222.316406 349.347656 222.722656 349.1875 "/>
<path style=" stroke:none;fill-rule:nonzero;fill:rgb(59.999084%,59.999084%,59.999084%);fill-opacity:1;" d="M 223.902344 352.171875 C 224.304688 352.011719 224.503906 351.554688 224.34375 351.148438 C 224.183594 350.746094 223.726562 350.546875 223.320312 350.707031 C 222.917969 350.867188 222.71875 351.324219 222.878906 351.726562 C 223.039062 352.132812 223.496094 352.332031 223.902344 352.171875 "/>
<path style=" stroke:none;fill-rule:nonzero;fill:rgb(59.999084%,59.999084%,59.999084%);fill-opacity:1;" d="M 225.082031 355.15625 C 225.484375 354.996094 225.683594 354.539062 225.523438 354.132812 C 225.363281 353.730469 224.90625 353.53125 224.5 353.691406 C 224.097656 353.851562 223.898438 354.308594 224.058594 354.710938 C 224.21875 355.117188 224.675781 355.316406 225.082031 355.15625 "/>
<path style=" stroke:none;fill-rule:nonzero;fill:rgb(59.999084%,59.999084%,59.999084%);fill-opacity:1;" d="M 226.261719 358.140625 C 226.664062 357.980469 226.863281 357.523438 226.703125 357.117188 C 226.542969 356.714844 226.085938 356.515625 225.679688 356.675781 C 225.277344 356.835938 225.078125 357.292969 225.238281 357.695312 C 225.398438 358.101562 225.855469 358.300781 226.261719 358.140625 "/>
<path style=" stroke:none;fill-rule:nonzero;fill:rgb(39.199829%,14.898682%,7.099915%);fill-opacity:1;" d="M 222.121094 362.070312 C 223.480469 361.53125 224.144531 359.996094 223.609375 358.636719 L 217.511719 343.203125 C 216.972656 341.84375 215.4375 341.175781 214.078125 341.714844 C 212.71875 342.25 212.050781 343.789062 212.589844 345.148438 L 218.683594 360.582031 C 219.222656 361.941406 220.761719 362.605469 222.121094 362.070312 "/>
<path style=" stroke:none;fill-rule:nonzero;fill:rgb(59.999084%,59.999084%,59.999084%);fill-opacity:1;" d="M 215.441406 345.164062 C 215.84375 345.003906 216.042969 344.546875 215.882812 344.140625 C 215.722656 343.738281 215.265625 343.539062 214.859375 343.699219 C 214.457031 343.859375 214.257812 344.316406 214.417969 344.71875 C 214.578125 345.125 215.035156 345.324219 215.441406 345.164062 "/>
<path style=" stroke:none;fill-rule:nonzero;fill:rgb(59.999084%,59.999084%,59.999084%);fill-opacity:1;" d="M 216.617188 348.148438 C 217.023438 347.988281 217.222656 347.53125 217.0625 347.125 C 216.902344 346.722656 216.445312 346.523438 216.039062 346.683594 C 215.636719 346.84375 215.4375 347.300781 215.597656 347.703125 C 215.757812 348.109375 216.214844 348.308594 216.617188 348.148438 "/>
<path style=" stroke:none;fill-rule:nonzero;fill:rgb(59.999084%,59.999084%,59.999084%);fill-opacity:1;" d="M 217.796875 351.132812 C 218.203125 350.972656 218.402344 350.515625 218.242188 350.109375 C 218.082031 349.707031 217.625 349.507812 217.21875 349.667969 C 216.816406 349.828125 216.617188 350.285156 216.777344 350.6875 C 216.9375 351.09375 217.394531 351.292969 217.796875 351.132812 "/>
<path style=" stroke:none;fill-rule:nonzero;fill:rgb(59.999084%,59.999084%,59.999084%);fill-opacity:1;" d="M 218.976562 354.117188 C 219.382812 353.957031 219.582031 353.5 219.421875 353.09375 C 219.261719 352.691406 218.804688 352.492188 218.398438 352.652344 C 217.996094 352.8125 217.796875 353.269531 217.957031 353.675781 C 218.117188 354.078125 218.574219 354.277344 218.976562 354.117188 "/>
<path style=" stroke:none;fill-rule:nonzero;fill:rgb(59.999084%,59.999084%,59.999084%);fill-opacity:1;" d="M 220.15625 357.101562 C 220.5625 356.941406 220.757812 356.484375 220.601562 356.082031 C 220.441406 355.675781 219.984375 355.476562 219.578125 355.636719 C 219.171875 355.796875 218.976562 356.253906 219.136719 356.65625 C 219.292969 357.0625 219.75 357.261719 220.15625 357.101562 "/>
<path style=" stroke:none;fill-rule:nonzero;fill:rgb(59.999084%,59.999084%,59.999084%);fill-opacity:1;" d="M 221.335938 360.085938 C 221.738281 359.925781 221.9375 359.46875 221.777344 359.0625 C 221.617188 358.660156 221.160156 358.460938 220.757812 358.621094 C 220.351562 358.78125 220.15625 359.238281 220.316406 359.640625 C 220.472656 360.046875 220.933594 360.246094 221.335938 360.085938 "/>
<path style=" stroke:none;fill-rule:nonzero;fill:rgb(100%,76.499939%,16.499329%);fill-opacity:1;" d="M 201.800781 372.957031 C 202.246094 372.777344 202.464844 372.277344 202.289062 371.832031 L 192.929688 348.144531 C 192.753906 347.699219 192.25 347.484375 191.804688 347.660156 L 178.390625 352.960938 C 177.945312 353.136719 177.726562 353.640625 177.902344 354.085938 L 187.261719 377.769531 C 187.4375 378.214844 187.941406 378.433594 188.386719 378.257812 Z M 201.800781 372.957031 "/>
<path style=" stroke:none;fill-rule:nonzero;fill:rgb(39.199829%,14.898682%,7.099915%);fill-opacity:1;" d="M 196.578125 372.164062 C 197.9375 371.625 198.605469 370.085938 198.066406 368.726562 L 191.96875 353.296875 C 191.433594 351.9375 189.894531 351.269531 188.535156 351.808594 C 187.175781 352.34375 186.507812 353.882812 187.046875 355.242188 L 193.144531 370.671875 C 193.679688 372.035156 195.21875 372.699219 196.578125 372.164062 "/>
<path style=" stroke:none;fill-rule:nonzero;fill:rgb(59.999084%,59.999084%,59.999084%);fill-opacity:1;" d="M 189.898438 355.257812 C 190.300781 355.097656 190.5 354.640625 190.339844 354.234375 C 190.179688 353.828125 189.722656 353.632812 189.320312 353.792969 C 188.914062 353.949219 188.714844 354.410156 188.875 354.8125 C 189.035156 355.21875 189.492188 355.414062 189.898438 355.257812 "/>
<path style=" stroke:none;fill-rule:nonzero;fill:rgb(59.999084%,59.999084%,59.999084%);fill-opacity:1;" d="M 191.078125 358.238281 C 191.480469 358.082031 191.679688 357.625 191.519531 357.21875 C 191.359375 356.8125 190.902344 356.617188 190.496094 356.777344 C 190.09375 356.933594 189.894531 357.394531 190.054688 357.796875 C 190.214844 358.203125 190.671875 358.398438 191.078125 358.238281 "/>
<path style=" stroke:none;fill-rule:nonzero;fill:rgb(59.999084%,59.999084%,59.999084%);fill-opacity:1;" d="M 192.257812 361.222656 C 192.660156 361.066406 192.859375 360.609375 192.699219 360.203125 C 192.539062 359.796875 192.082031 359.601562 191.675781 359.761719 C 191.273438 359.917969 191.074219 360.378906 191.234375 360.78125 C 191.394531 361.1875 191.851562 361.382812 192.257812 361.222656 "/>
<path style=" stroke:none;fill-rule:nonzero;fill:rgb(59.999084%,59.999084%,59.999084%);fill-opacity:1;" d="M 193.433594 364.210938 C 193.839844 364.050781 194.039062 363.59375 193.878906 363.1875 C 193.71875 362.78125 193.261719 362.585938 192.855469 362.746094 C 192.453125 362.902344 192.253906 363.363281 192.414062 363.765625 C 192.574219 364.171875 193.03125 364.367188 193.433594 364.210938 "/>
<path style=" stroke:none;fill-rule:nonzero;fill:rgb(59.999084%,59.999084%,59.999084%);fill-opacity:1;" d="M 194.613281 367.195312 C 195.019531 367.035156 195.21875 366.578125 195.058594 366.171875 C 194.898438 365.769531 194.441406 365.570312 194.035156 365.730469 C 193.632812 365.890625 193.433594 366.347656 193.59375 366.75 C 193.753906 367.15625 194.210938 367.355469 194.613281 367.195312 "/>
<path style=" stroke:none;fill-rule:nonzero;fill:rgb(59.999084%,59.999084%,59.999084%);fill-opacity:1;" d="M 195.792969 370.179688 C 196.199219 370.019531 196.398438 369.5625 196.238281 369.15625 C 196.078125 368.753906 195.621094 368.554688 195.214844 368.714844 C 194.8125 368.875 194.613281 369.332031 194.773438 369.734375 C 194.933594 370.140625 195.390625 370.339844 195.792969 370.179688 "/>
<path style=" stroke:none;fill-rule:nonzero;fill:rgb(39.199829%,14.898682%,7.099915%);fill-opacity:1;" d="M 191.65625 374.109375 C 193.015625 373.570312 193.679688 372.03125 193.144531 370.671875 L 187.046875 355.242188 C 186.507812 353.882812 184.96875 353.214844 183.609375 353.753906 C 182.25 354.289062 181.585938 355.828125 182.121094 357.1875 L 188.21875 372.617188 C 188.757812 373.980469 190.296875 374.644531 191.65625 374.109375 "/>
<path style=" stroke:none;fill-rule:nonzero;fill:rgb(59.999084%,59.999084%,59.999084%);fill-opacity:1;" d="M 184.972656 357.203125 C 185.378906 357.042969 185.578125 356.585938 185.417969 356.179688 C 185.257812 355.773438 184.800781 355.578125 184.394531 355.738281 C 183.992188 355.898438 183.792969 356.355469 183.953125 356.757812 C 184.113281 357.164062 184.570312 357.359375 184.972656 357.203125 "/>
<path style=" stroke:none;fill-rule:nonzero;fill:rgb(59.999084%,59.999084%,59.999084%);fill-opacity:1;" d="M 186.152344 360.1875 C 186.558594 360.027344 186.757812 359.570312 186.597656 359.164062 C 186.4375 358.761719 185.980469 358.5625 185.574219 358.722656 C 185.171875 358.882812 184.972656 359.339844 185.132812 359.742188 C 185.292969 360.148438 185.75 360.347656 186.152344 360.1875 "/>
<path style=" stroke:none;fill-rule:nonzero;fill:rgb(59.999084%,59.999084%,59.999084%);fill-opacity:1;" d="M 187.332031 363.171875 C 187.738281 363.011719 187.933594 362.554688 187.777344 362.148438 C 187.617188 361.746094 187.160156 361.546875 186.753906 361.707031 C 186.347656 361.867188 186.152344 362.324219 186.3125 362.726562 C 186.46875 363.132812 186.929688 363.332031 187.332031 363.171875 "/>
<path style=" stroke:none;fill-rule:nonzero;fill:rgb(59.999084%,59.999084%,59.999084%);fill-opacity:1;" d="M 188.511719 366.15625 C 188.914062 365.996094 189.113281 365.539062 188.953125 365.132812 C 188.792969 364.730469 188.335938 364.53125 187.933594 364.691406 C 187.527344 364.851562 187.328125 365.308594 187.492188 365.710938 C 187.648438 366.117188 188.109375 366.316406 188.511719 366.15625 "/>
<path style=" stroke:none;fill-rule:nonzero;fill:rgb(59.999084%,59.999084%,59.999084%);fill-opacity:1;" d="M 189.691406 369.140625 C 190.09375 368.980469 190.292969 368.523438 190.132812 368.117188 C 189.972656 367.714844 189.515625 367.515625 189.113281 367.675781 C 188.707031 367.835938 188.511719 368.292969 188.667969 368.695312 C 188.828125 369.101562 189.285156 369.300781 189.691406 369.140625 "/>
<path style=" stroke:none;fill-rule:nonzero;fill:rgb(59.999084%,59.999084%,59.999084%);fill-opacity:1;" d="M 190.871094 372.125 C 191.273438 371.964844 191.472656 371.507812 191.3125 371.101562 C 191.152344 370.699219 190.695312 370.5 190.292969 370.660156 C 189.886719 370.820312 189.6875 371.277344 189.847656 371.679688 C 190.007812 372.085938 190.464844 372.285156 190.871094 372.125 "/>
<use xlink:href="#surface5" transform="matrix(1,0,0,1,164,286)" mask="url(#mask0)"/>
<path style=" stroke:none;fill-rule:nonzero;fill:rgb(59.999084%,59.999084%,59.999084%);fill-opacity:1;" d="M 369.144531 287.53125 C 370.332031 287.0625 370.914062 285.714844 370.445312 284.527344 C 369.976562 283.335938 368.632812 282.753906 367.441406 283.226562 C 366.253906 283.695312 365.671875 285.039062 366.140625 286.230469 C 366.609375 287.417969 367.953125 288 369.144531 287.53125 "/>
<path style=" stroke:none;fill-rule:nonzero;fill:rgb(59.999084%,59.999084%,59.999084%);fill-opacity:1;" d="M 375.910156 289.515625 C 377.097656 289.042969 377.683594 287.699219 377.210938 286.507812 C 376.742188 285.320312 375.398438 284.738281 374.207031 285.207031 C 373.019531 285.675781 372.4375 287.023438 372.90625 288.210938 C 373.375 289.402344 374.71875 289.984375 375.910156 289.515625 "/>
<path style=" stroke:none;fill-rule:nonzero;fill:rgb(59.999084%,59.999084%,59.999084%);fill-opacity:1;" d="M 382.636719 291.398438 C 383.824219 290.929688 384.410156 289.582031 383.9375 288.394531 C 383.46875 287.207031 382.125 286.621094 380.933594 287.09375 C 379.746094 287.5625 379.164062 288.90625 379.632812 290.097656 C 380.101562 291.285156 381.449219 291.867188 382.636719 291.398438 "/>
<path style=" stroke:none;fill-rule:nonzero;fill:rgb(59.999084%,59.999084%,59.999084%);fill-opacity:1;" d="M 389.253906 293.007812 C 390.445312 292.539062 391.027344 291.191406 390.554688 290.003906 C 390.085938 288.816406 388.742188 288.230469 387.550781 288.703125 C 386.363281 289.171875 385.78125 290.515625 386.25 291.707031 C 386.71875 292.894531 388.066406 293.476562 389.253906 293.007812 "/>
<path style=" stroke:none;fill-rule:nonzero;fill:rgb(59.999084%,59.999084%,59.999084%);fill-opacity:1;" d="M 395.902344 294.695312 C 397.09375 294.222656 397.675781 292.878906 397.203125 291.691406 C 396.734375 290.5 395.390625 289.917969 394.199219 290.386719 C 393.011719 290.859375 392.429688 292.203125 392.898438 293.390625 C 393.367188 294.582031 394.714844 295.164062 395.902344 294.695312 "/>
<path style=" stroke:none;fill-rule:nonzero;fill:rgb(59.999084%,59.999084%,59.999084%);fill-opacity:1;" d="M 402.46875 296.167969 C 403.65625 295.699219 404.238281 294.355469 403.769531 293.164062 C 403.300781 291.976562 401.957031 291.394531 400.765625 291.863281 C 399.578125 292.332031 398.992188 293.679688 399.464844 294.867188 C 399.933594 296.054688 401.277344 296.640625 402.46875 296.167969 "/>
<path style=" stroke:none;fill-rule:nonzero;fill:rgb(59.999084%,59.999084%,59.999084%);fill-opacity:1;" d="M 170.738281 386.253906 L 159.839844 358.675781 L 164.503906 356.832031 L 175.402344 384.410156 Z M 170.738281 386.253906 "/>
<path style=" stroke:none;fill-rule:nonzero;fill:rgb(99.598694%,98.799133%,97.599792%);fill-opacity:1;" d="M 261.011719 220 C 261.011719 228.855469 253.828125 236.039062 244.972656 236.039062 C 236.113281 236.039062 228.933594 228.855469 228.933594 220 "/>
<path style=" stroke:none;fill-rule:nonzero;fill:rgb(43.899536%,11.399841%,11.399841%);fill-opacity:1;" d="M 253.292969 220 C 253.292969 224.59375 249.566406 228.320312 244.972656 228.320312 C 240.375 228.320312 236.652344 224.59375 236.652344 220 "/>
<path style=" stroke:none;fill-rule:nonzero;fill:rgb(99.598694%,98.799133%,97.599792%);fill-opacity:1;" d="M 199.933594 220 C 199.933594 228.855469 192.75 236.039062 183.894531 236.039062 C 175.035156 236.039062 167.855469 228.855469 167.855469 220 "/>
<path style=" stroke:none;fill-rule:nonzero;fill:rgb(43.899536%,11.399841%,11.399841%);fill-opacity:1;" d="M 192.214844 220 C 192.214844 224.59375 188.488281 228.320312 183.894531 228.320312 C 179.296875 228.320312 175.574219 224.59375 175.574219 220 "/>
<path style=" stroke:none;fill-rule:nonzero;fill:rgb(100%,100%,100%);fill-opacity:1;" d="M 127.699219 372.609375 L 122.71875 376.03125 L 108.539062 356.089844 L 138.027344 361.101562 L 132.757812 353.675781 L 137.558594 350.273438 L 151.765625 370.296875 L 122.53125 365.328125 Z M 160.441406 375.535156 L 138.753906 344.800781 L 127.316406 352.917969 L 129.363281 355.804688 L 99.9375 350.800781 L 121.914062 381.304688 L 133.027344 373.425781 L 130.949219 370.519531 Z M 160.441406 375.535156 "/>
<path style="fill:none;stroke-width:8;stroke-linecap:round;stroke-linejoin:round;stroke:rgb(0%,0%,0%);stroke-opacity:1;stroke-miterlimit:10;" d="M -0.00093125 -0.000525 L -13.864213 -23.637244 C -13.864213 -23.637244 -21.184525 -33.871619 -0.383744 -41.441931 C 20.413131 -49.012244 38.436569 -50.574744 38.436569 -50.574744 " transform="matrix(1,0,0,-1,144.1064,319.3901)"/>
<path style="fill:none;stroke-width:8;stroke-linecap:round;stroke-linejoin:round;stroke:rgb(0%,0%,0%);stroke-opacity:1;stroke-miterlimit:10;" d="M -0.0000375 0.00044375 L -11.859412 9.828569 L 4.515588 13.527787 " transform="matrix(1,0,0,-1,174.2266,376.0356)"/>
<path style=" stroke:none;fill-rule:nonzero;fill:rgb(70.999146%,47.099304%,8.999634%);fill-opacity:1;" d="M 164.269531 216.800781 C 163.820312 216.800781 163.367188 216.722656 162.925781 216.5625 C 160.886719 215.820312 159.835938 213.566406 160.578125 211.527344 C 163.957031 202.25 175.085938 192.960938 189.902344 192.960938 C 190.0625 192.960938 190.222656 192.960938 190.386719 192.964844 C 192.554688 192.992188 194.289062 194.777344 194.257812 196.945312 C 194.226562 199.113281 192.421875 200.894531 190.277344 200.816406 C 177.632812 200.664062 169.875 208.945312 167.960938 214.214844 C 167.378906 215.808594 165.871094 216.800781 164.269531 216.800781 "/>
<path style=" stroke:none;fill-rule:nonzero;fill:rgb(70.999146%,47.099304%,8.999634%);fill-opacity:1;" d="M 266.03125 216.800781 C 264.429688 216.800781 262.921875 215.808594 262.339844 214.214844 C 260.441406 208.996094 252.828125 200.816406 240.410156 200.816406 C 240.261719 200.816406 240.113281 200.816406 239.96875 200.816406 C 237.824219 200.816406 236.070312 199.09375 236.042969 196.945312 C 236.011719 194.777344 237.746094 192.992188 239.914062 192.964844 C 240.078125 192.960938 240.238281 192.960938 240.398438 192.960938 C 255.21875 192.960938 266.347656 202.25 269.722656 211.527344 C 270.464844 213.566406 269.414062 215.820312 267.375 216.5625 C 266.933594 216.722656 266.476562 216.800781 266.03125 216.800781 "/>
</g>
</svg>
