<?xml version="1.0" encoding="utf-8"?>
<!-- Generator: Adobe Illustrator 26.0.3, SVG Export Plug-In . SVG Version: 6.00 Build 0)  -->
<svg version="1.1" id="Layer_1" xmlns="http://www.w3.org/2000/svg" xmlns:xlink="http://www.w3.org/1999/xlink" x="0px" y="0px"
	 viewBox="0 0 432 576" style="enable-background:new 0 0 432 576;" xml:space="preserve">
<style type="text/css">
	.st0{opacity:5.000000e-02;}
	.st1{fill:#040D21;}
	.st2{fill:#3E4454;}
	.st3{fill:#2D313F;}
	.st4{fill:#FEAF06;}
	.st5{fill:#FBD82B;}
	.st6{fill:#FFE278;}
	.st7{fill:#F70000;}
	.st8{fill:#B57817;}
	.st9{fill:#701D1D;}
	.st10{fill:#FFFFFF;}
	.st11{fill:none;stroke:#000000;stroke-width:8;stroke-linecap:round;stroke-linejoin:round;stroke-miterlimit:10;}
	.st12{opacity:0.2;fill:url(#SVGID_1_);enable-background:new    ;}
	.st13{opacity:0.2;fill:url(#SVGID_00000181805044549842247910000000285348279629356178_);enable-background:new    ;}
	.st14{fill:#0062B2;}
	.st15{opacity:0.6;fill:#FFFFFF;enable-background:new    ;}
	.st16{opacity:0.7;fill:#FFFFFF;enable-background:new    ;}
	.st17{fill:#F2F2F2;}
	.st18{fill:#C9C9C9;}
	.st19{fill:#677077;}
	.st20{fill:#B8B8B8;}
	.st21{fill:#858D92;}
	.st22{fill:#CCCCCC;}
	.st23{fill:#EDEDED;}
	.st24{fill:#D9D9D9;}
	.st25{fill:#BEBEBE;}
	.st26{fill:#B4B4B4;}
	.st27{fill:url(#SVGID_00000165940196291218717900000006710426841247060868_);}
	.st28{fill:#F7DF1E;}
</style>
<g>
	<g class="st0">
		<g>
			<g id="XMLID_00000004536885134055101530000009484155371619527100_">
				<g id="XMLID_00000139983336851981050320000003696972459241238701_">
					<path id="XMLID_00000094618609359742334090000004151460867349892485_" class="st1" d="M226.3,220.1v15.8h2.9
						c0.7,0,1.2,0.1,1.5,0.4c0.3,0.3,0.4,0.6,0.4,1s-0.1,0.8-0.4,1c-0.3,0.3-0.8,0.4-1.5,0.4h-8.7c-0.7,0-1.2-0.1-1.5-0.4
						c-0.3-0.3-0.4-0.6-0.4-1s0.1-0.8,0.4-1c0.3-0.3,0.8-0.4,1.5-0.4h2.9v-12l-2.6,0.7c-0.4,0.1-0.7,0.2-0.9,0.2
						c-0.4,0-0.7-0.1-0.9-0.4c-0.3-0.3-0.4-0.6-0.4-1.1c0-0.4,0.1-0.7,0.3-0.9c0.2-0.2,0.6-0.4,1.2-0.6L226.3,220.1z"/>
					<path id="XMLID_00000052793132328646830830000009175327268170192271_" class="st1" d="M248.4,228v3.2c0,1.9-0.5,3.7-1.6,5.4
						s-2.6,2.6-4.6,2.6c-1.2,0-2.1-0.3-2.9-0.8c-0.8-0.5-1.6-1.5-2.3-2.8c-0.7-1.4-1.1-2.8-1.1-4.4v-3.2c0-1.9,0.5-3.7,1.6-5.4
						c1.1-1.7,2.6-2.6,4.6-2.6c1.2,0,2.1,0.3,2.9,0.8c0.8,0.5,1.6,1.4,2.3,2.8C248.1,225,248.4,226.5,248.4,228z M245.5,228
						c0-1.6-0.4-2.9-1.3-4.1c-0.5-0.6-1.2-1-2.1-1c-0.9,0-1.6,0.4-2.1,1.1c-0.8,1.1-1.3,2.4-1.3,4v3.2c0,1.6,0.4,2.9,1.3,4.1
						c0.5,0.6,1.2,1,2.1,1c0.9,0,1.6-0.4,2.1-1.1c0.8-1.1,1.3-2.4,1.3-4V228z"/>
					<path id="XMLID_00000177460798468483465780000002872001605274265523_" class="st1" d="M260.9,220.1v15.8h2.9
						c0.7,0,1.2,0.1,1.5,0.4c0.3,0.3,0.4,0.6,0.4,1s-0.1,0.8-0.4,1c-0.3,0.3-0.8,0.4-1.5,0.4h-8.7c-0.7,0-1.2-0.1-1.5-0.4
						c-0.3-0.3-0.4-0.6-0.4-1s0.1-0.8,0.4-1c0.3-0.3,0.8-0.4,1.5-0.4h2.9v-12l-2.6,0.7c-0.4,0.1-0.7,0.2-0.9,0.2
						c-0.4,0-0.7-0.1-0.9-0.4c-0.3-0.3-0.4-0.6-0.4-1.1c0-0.4,0.1-0.7,0.3-0.9c0.2-0.2,0.6-0.4,1.2-0.6L260.9,220.1z"/>
					<path id="XMLID_00000080192927635421059570000009373585402655948206_" class="st1" d="M283,228v3.2c0,1.9-0.5,3.7-1.6,5.4
						s-2.6,2.6-4.6,2.6c-1.2,0-2.1-0.3-2.9-0.8c-0.8-0.5-1.6-1.5-2.3-2.8c-0.7-1.4-1.1-2.8-1.1-4.4v-3.2c0-1.9,0.5-3.7,1.6-5.4
						c1.1-1.7,2.6-2.6,4.6-2.6c1.2,0,2.1,0.3,2.9,0.8c0.8,0.5,1.6,1.4,2.3,2.8C282.6,225,283,226.5,283,228z M280.1,228
						c0-1.6-0.4-2.9-1.3-4.1c-0.5-0.6-1.2-1-2.1-1s-1.6,0.4-2.1,1.1c-0.8,1.1-1.3,2.4-1.3,4v3.2c0,1.6,0.4,2.9,1.3,4.1
						c0.5,0.6,1.2,1,2.1,1c0.9,0,1.6-0.4,2.1-1.1c0.8-1.1,1.3-2.4,1.3-4V228z"/>
				</g>
				<g id="XMLID_00000134971221914602515560000002455301465918230692_">
					<path id="XMLID_00000012437215694330507590000016330013189127743891_" class="st1" d="M231.2,278.5v3.2c0,1.9-0.5,3.7-1.6,5.4
						s-2.6,2.6-4.6,2.6c-1.2,0-2.1-0.3-2.9-0.8c-0.8-0.5-1.6-1.5-2.3-2.8c-0.7-1.4-1.1-2.8-1.1-4.4v-3.2c0-1.9,0.5-3.7,1.6-5.4
						c1.1-1.7,2.6-2.6,4.6-2.6c1.2,0,2.1,0.3,2.9,0.8c0.8,0.5,1.6,1.4,2.3,2.8C230.8,275.5,231.2,277,231.2,278.5z M228.3,278.5
						c0-1.6-0.4-2.9-1.3-4.1c-0.5-0.6-1.2-1-2.1-1c-0.9,0-1.6,0.4-2.1,1.1c-0.8,1.1-1.3,2.4-1.3,4v3.2c0,1.6,0.4,2.9,1.3,4.1
						c0.5,0.6,1.2,1,2.1,1c0.9,0,1.6-0.4,2.1-1.1c0.8-1.1,1.3-2.4,1.3-4V278.5z"/>
					<path id="XMLID_00000166649511810868629490000003063931004955929999_" class="st1" d="M243.6,270.5v15.8h2.9
						c0.7,0,1.2,0.1,1.5,0.4s0.4,0.6,0.4,1c0,0.4-0.1,0.8-0.4,1c-0.3,0.3-0.8,0.4-1.5,0.4h-8.7c-0.7,0-1.2-0.1-1.5-0.4
						c-0.3-0.3-0.4-0.6-0.4-1c0-0.4,0.1-0.8,0.4-1c0.3-0.3,0.8-0.4,1.5-0.4h2.9v-12l-2.6,0.7c-0.4,0.1-0.7,0.2-0.9,0.2
						c-0.4,0-0.7-0.1-0.9-0.4c-0.3-0.3-0.4-0.6-0.4-1.1c0-0.4,0.1-0.7,0.3-0.9c0.2-0.2,0.6-0.4,1.2-0.6L243.6,270.5z"/>
					<path id="XMLID_00000035527588835850285110000000816736996108055441_" class="st1" d="M260.9,270.5v15.8h2.9
						c0.7,0,1.2,0.1,1.5,0.4c0.3,0.3,0.4,0.6,0.4,1c0,0.4-0.1,0.8-0.4,1c-0.3,0.3-0.8,0.4-1.5,0.4h-8.7c-0.7,0-1.2-0.1-1.5-0.4
						c-0.3-0.3-0.4-0.6-0.4-1c0-0.4,0.1-0.8,0.4-1c0.3-0.3,0.8-0.4,1.5-0.4h2.9v-12l-2.6,0.7c-0.4,0.1-0.7,0.2-0.9,0.2
						c-0.4,0-0.7-0.1-0.9-0.4c-0.3-0.3-0.4-0.6-0.4-1.1c0-0.4,0.1-0.7,0.3-0.9c0.2-0.2,0.6-0.4,1.2-0.6L260.9,270.5z"/>
					<path id="XMLID_00000070078645650838897520000010549358279724500903_" class="st1" d="M283,278.5v3.2c0,1.9-0.5,3.7-1.6,5.4
						s-2.6,2.6-4.6,2.6c-1.2,0-2.1-0.3-2.9-0.8c-0.8-0.5-1.6-1.5-2.3-2.8c-0.7-1.4-1.1-2.8-1.1-4.4v-3.2c0-1.9,0.5-3.7,1.6-5.4
						c1.1-1.7,2.6-2.6,4.6-2.6c1.2,0,2.1,0.3,2.9,0.8c0.8,0.5,1.6,1.4,2.3,2.8C282.6,275.5,283,277,283,278.5z M280.1,278.5
						c0-1.6-0.4-2.9-1.3-4.1c-0.5-0.6-1.2-1-2.1-1s-1.6,0.4-2.1,1.1c-0.8,1.1-1.3,2.4-1.3,4v3.2c0,1.6,0.4,2.9,1.3,4.1
						c0.5,0.6,1.2,1,2.1,1c0.9,0,1.6-0.4,2.1-1.1c0.8-1.1,1.3-2.4,1.3-4V278.5z"/>
				</g>
				<g id="XMLID_00000053527947353455468460000005380810491075548828_">
					<path id="XMLID_00000145052015987180300510000008795780994603160765_" class="st1" d="M231.2,253.4v3.2c0,1.9-0.5,3.7-1.6,5.4
						s-2.6,2.6-4.6,2.6c-1.2,0-2.1-0.3-2.9-0.8c-0.8-0.5-1.6-1.5-2.3-2.8c-0.7-1.4-1.1-2.8-1.1-4.4v-3.2c0-1.9,0.5-3.7,1.6-5.4
						s2.6-2.6,4.6-2.6c1.2,0,2.1,0.3,2.9,0.8c0.8,0.5,1.6,1.4,2.3,2.8C230.8,250.4,231.2,251.8,231.2,253.4z M228.3,253.4
						c0-1.6-0.4-2.9-1.3-4.1c-0.5-0.6-1.2-1-2.1-1c-0.9,0-1.6,0.4-2.1,1.1c-0.8,1.1-1.3,2.4-1.3,4v3.2c0,1.6,0.4,2.9,1.3,4.1
						c0.5,0.6,1.2,1,2.1,1c0.9,0,1.6-0.4,2.1-1.1c0.8-1.1,1.3-2.4,1.3-4V253.4z"/>
					<path id="XMLID_00000016041009198795807010000013571766058631214742_" class="st1" d="M243.6,245.4v15.8h2.9
						c0.7,0,1.2,0.1,1.5,0.4c0.3,0.3,0.4,0.6,0.4,1s-0.1,0.8-0.4,1c-0.3,0.3-0.8,0.4-1.5,0.4h-8.7c-0.7,0-1.2-0.1-1.5-0.4
						c-0.3-0.3-0.4-0.6-0.4-1s0.1-0.8,0.4-1c0.3-0.3,0.8-0.4,1.5-0.4h2.9v-12l-2.6,0.7c-0.4,0.1-0.7,0.2-0.9,0.2
						c-0.4,0-0.7-0.1-0.9-0.4c-0.3-0.3-0.4-0.6-0.4-1.1c0-0.4,0.1-0.7,0.3-0.9s0.6-0.4,1.2-0.6L243.6,245.4z"/>
					<path id="XMLID_00000089572971327817579650000014440224721642485422_" class="st1" d="M265.7,253.4v3.2c0,1.9-0.5,3.7-1.6,5.4
						s-2.6,2.6-4.6,2.6c-1.2,0-2.1-0.3-2.9-0.8c-0.8-0.5-1.6-1.5-2.3-2.8c-0.7-1.4-1.1-2.8-1.1-4.4v-3.2c0-1.9,0.5-3.7,1.6-5.4
						s2.6-2.6,4.6-2.6c1.2,0,2.1,0.3,2.9,0.8c0.8,0.5,1.6,1.4,2.3,2.8C265.3,250.4,265.7,251.8,265.7,253.4z M262.8,253.4
						c0-1.6-0.4-2.9-1.3-4.1c-0.5-0.6-1.2-1-2.1-1s-1.6,0.4-2.1,1.1c-0.8,1.1-1.3,2.4-1.3,4v3.2c0,1.6,0.4,2.9,1.3,4.1
						c0.5,0.6,1.2,1,2.1,1c0.9,0,1.6-0.4,2.1-1.1c0.8-1.1,1.3-2.4,1.3-4V253.4z"/>
					<path id="XMLID_00000042717003817383504580000003472490443840400545_" class="st1" d="M283,253.4v3.2c0,1.9-0.5,3.7-1.6,5.4
						s-2.6,2.6-4.6,2.6c-1.2,0-2.1-0.3-2.9-0.8c-0.8-0.5-1.6-1.5-2.3-2.8c-0.7-1.4-1.1-2.8-1.1-4.4v-3.2c0-1.9,0.5-3.7,1.6-5.4
						s2.6-2.6,4.6-2.6c1.2,0,2.1,0.3,2.9,0.8c0.8,0.5,1.6,1.4,2.3,2.8C282.6,250.4,283,251.8,283,253.4z M280.1,253.4
						c0-1.6-0.4-2.9-1.3-4.1c-0.5-0.6-1.2-1-2.1-1s-1.6,0.4-2.1,1.1c-0.8,1.1-1.3,2.4-1.3,4v3.2c0,1.6,0.4,2.9,1.3,4.1
						c0.5,0.6,1.2,1,2.1,1c0.9,0,1.6-0.4,2.1-1.1c0.8-1.1,1.3-2.4,1.3-4V253.4z"/>
				</g>
			</g>
			<g id="XMLID_00000110459203494404502240000014739483533902245566_">
				<g id="XMLID_00000062914658719636386980000002191164941805704123_">
					<path id="XMLID_00000158007235251614801780000002682558211604285613_" class="st1" d="M296.7,220.1v15.8h2.9
						c0.7,0,1.2,0.1,1.5,0.4c0.3,0.3,0.4,0.6,0.4,1s-0.1,0.8-0.4,1c-0.3,0.3-0.8,0.4-1.5,0.4h-8.7c-0.7,0-1.2-0.1-1.5-0.4
						c-0.3-0.3-0.4-0.6-0.4-1s0.1-0.8,0.4-1c0.3-0.3,0.8-0.4,1.5-0.4h2.9v-12l-2.6,0.7c-0.4,0.1-0.7,0.2-0.9,0.2
						c-0.4,0-0.7-0.1-0.9-0.4c-0.3-0.3-0.4-0.6-0.4-1.1c0-0.4,0.1-0.7,0.3-0.9c0.2-0.2,0.6-0.4,1.2-0.6L296.7,220.1z"/>
					<path id="XMLID_00000007386330038297447070000016813615056904538294_" class="st1" d="M318.8,228v3.2c0,1.9-0.5,3.7-1.6,5.4
						s-2.6,2.6-4.6,2.6c-1.2,0-2.1-0.3-2.9-0.8s-1.6-1.5-2.3-2.8c-0.7-1.4-1.1-2.8-1.1-4.4v-3.2c0-1.9,0.5-3.7,1.6-5.4
						c1.1-1.7,2.6-2.6,4.6-2.6c1.2,0,2.1,0.3,2.9,0.8s1.6,1.4,2.3,2.8C318.5,225,318.8,226.5,318.8,228z M315.9,228
						c0-1.6-0.4-2.9-1.3-4.1c-0.5-0.6-1.2-1-2.1-1s-1.6,0.4-2.1,1.1c-0.8,1.1-1.3,2.4-1.3,4v3.2c0,1.6,0.4,2.9,1.3,4.1
						c0.5,0.6,1.2,1,2.1,1s1.6-0.4,2.1-1.1c0.8-1.1,1.3-2.4,1.3-4V228z"/>
					<path id="XMLID_00000060009085338534989320000011731483387062724283_" class="st1" d="M331.3,220.1v15.8h2.9
						c0.7,0,1.2,0.1,1.5,0.4c0.3,0.3,0.4,0.6,0.4,1s-0.1,0.8-0.4,1c-0.3,0.3-0.8,0.4-1.5,0.4h-8.7c-0.7,0-1.2-0.1-1.5-0.4
						c-0.3-0.3-0.4-0.6-0.4-1s0.1-0.8,0.4-1c0.3-0.3,0.8-0.4,1.5-0.4h2.9v-12l-2.6,0.7c-0.4,0.1-0.7,0.2-0.9,0.2
						c-0.4,0-0.7-0.1-0.9-0.4c-0.3-0.3-0.4-0.6-0.4-1.1c0-0.4,0.1-0.7,0.3-0.9c0.2-0.2,0.6-0.4,1.2-0.6L331.3,220.1z"/>
					<path id="XMLID_00000118385581141278084940000014845837234814916774_" class="st1" d="M353.4,228v3.2c0,1.9-0.5,3.7-1.6,5.4
						s-2.6,2.6-4.6,2.6c-1.2,0-2.1-0.3-2.9-0.8s-1.6-1.5-2.3-2.8c-0.7-1.4-1.1-2.8-1.1-4.4v-3.2c0-1.9,0.5-3.7,1.6-5.4
						c1.1-1.7,2.6-2.6,4.6-2.6c1.2,0,2.1,0.3,2.9,0.8s1.6,1.4,2.3,2.8C353,225,353.4,226.5,353.4,228z M350.5,228
						c0-1.6-0.4-2.9-1.3-4.1c-0.5-0.6-1.2-1-2.1-1s-1.6,0.4-2.1,1.1c-0.8,1.1-1.3,2.4-1.3,4v3.2c0,1.6,0.4,2.9,1.3,4.1
						c0.5,0.6,1.2,1,2.1,1s1.6-0.4,2.1-1.1c0.8-1.1,1.3-2.4,1.3-4V228z"/>
				</g>
				<g id="XMLID_00000056397460044287652930000015132516047840226488_">
					<path id="XMLID_00000107583526759196270360000012982062723089069211_" class="st1" d="M301.6,278.5v3.2c0,1.9-0.5,3.7-1.6,5.4
						s-2.6,2.6-4.6,2.6c-1.2,0-2.1-0.3-2.9-0.8s-1.6-1.5-2.3-2.8c-0.7-1.4-1.1-2.8-1.1-4.4v-3.2c0-1.9,0.5-3.7,1.6-5.4
						c1.1-1.7,2.6-2.6,4.6-2.6c1.2,0,2.1,0.3,2.9,0.8s1.6,1.4,2.3,2.8C301.2,275.5,301.6,277,301.6,278.5z M298.7,278.5
						c0-1.6-0.4-2.9-1.3-4.1c-0.5-0.6-1.2-1-2.1-1s-1.6,0.4-2.1,1.1c-0.8,1.1-1.3,2.4-1.3,4v3.2c0,1.6,0.4,2.9,1.3,4.1
						c0.5,0.6,1.2,1,2.1,1s1.6-0.4,2.1-1.1c0.8-1.1,1.3-2.4,1.3-4V278.5z"/>
					<path id="XMLID_00000159445892432985950960000014635447196491109794_" class="st1" d="M314,270.5v15.8h2.9
						c0.7,0,1.2,0.1,1.5,0.4s0.4,0.6,0.4,1c0,0.4-0.1,0.8-0.4,1c-0.3,0.3-0.8,0.4-1.5,0.4h-8.7c-0.7,0-1.2-0.1-1.5-0.4
						c-0.3-0.3-0.4-0.6-0.4-1c0-0.4,0.1-0.8,0.4-1c0.3-0.3,0.8-0.4,1.5-0.4h2.9v-12l-2.6,0.7c-0.4,0.1-0.7,0.2-0.9,0.2
						c-0.4,0-0.7-0.1-0.9-0.4c-0.3-0.3-0.4-0.6-0.4-1.1c0-0.4,0.1-0.7,0.3-0.9c0.2-0.2,0.6-0.4,1.2-0.6L314,270.5z"/>
					<path id="XMLID_00000133521718033312102830000006970935170432198294_" class="st1" d="M331.3,270.5v15.8h2.9
						c0.7,0,1.2,0.1,1.5,0.4s0.4,0.6,0.4,1c0,0.4-0.1,0.8-0.4,1c-0.3,0.3-0.8,0.4-1.5,0.4h-8.7c-0.7,0-1.2-0.1-1.5-0.4
						c-0.3-0.3-0.4-0.6-0.4-1c0-0.4,0.1-0.8,0.4-1c0.3-0.3,0.8-0.4,1.5-0.4h2.9v-12l-2.6,0.7c-0.4,0.1-0.7,0.2-0.9,0.2
						c-0.4,0-0.7-0.1-0.9-0.4c-0.3-0.3-0.4-0.6-0.4-1.1c0-0.4,0.1-0.7,0.3-0.9c0.2-0.2,0.6-0.4,1.2-0.6L331.3,270.5z"/>
					<path id="XMLID_00000045605856944157481360000001464007516735175043_" class="st1" d="M353.4,278.5v3.2c0,1.9-0.5,3.7-1.6,5.4
						s-2.6,2.6-4.6,2.6c-1.2,0-2.1-0.3-2.9-0.8s-1.6-1.5-2.3-2.8c-0.7-1.4-1.1-2.8-1.1-4.4v-3.2c0-1.9,0.5-3.7,1.6-5.4
						c1.1-1.7,2.6-2.6,4.6-2.6c1.2,0,2.1,0.3,2.9,0.8s1.6,1.4,2.3,2.8C353,275.5,353.4,277,353.4,278.5z M350.5,278.5
						c0-1.6-0.4-2.9-1.3-4.1c-0.5-0.6-1.2-1-2.1-1s-1.6,0.4-2.1,1.1c-0.8,1.1-1.3,2.4-1.3,4v3.2c0,1.6,0.4,2.9,1.3,4.1
						c0.5,0.6,1.2,1,2.1,1s1.6-0.4,2.1-1.1c0.8-1.1,1.3-2.4,1.3-4V278.5z"/>
				</g>
				<g id="XMLID_00000182505747254642186370000012651856893337600186_">
					<path id="XMLID_00000088096005879006326260000017196240183977555082_" class="st1" d="M301.6,253.4v3.2c0,1.9-0.5,3.7-1.6,5.4
						s-2.6,2.6-4.6,2.6c-1.2,0-2.1-0.3-2.9-0.8s-1.6-1.5-2.3-2.8c-0.7-1.4-1.1-2.8-1.1-4.4v-3.2c0-1.9,0.5-3.7,1.6-5.4
						s2.6-2.6,4.6-2.6c1.2,0,2.1,0.3,2.9,0.8s1.6,1.4,2.3,2.8C301.2,250.4,301.6,251.8,301.6,253.4z M298.7,253.4
						c0-1.6-0.4-2.9-1.3-4.1c-0.5-0.6-1.2-1-2.1-1s-1.6,0.4-2.1,1.1c-0.8,1.1-1.3,2.4-1.3,4v3.2c0,1.6,0.4,2.9,1.3,4.1
						c0.5,0.6,1.2,1,2.1,1s1.6-0.4,2.1-1.1c0.8-1.1,1.3-2.4,1.3-4V253.4z"/>
					<path id="XMLID_00000152257962422943251190000011961886425014092436_" class="st1" d="M314,245.4v15.8h2.9
						c0.7,0,1.2,0.1,1.5,0.4c0.3,0.3,0.4,0.6,0.4,1s-0.1,0.8-0.4,1c-0.3,0.3-0.8,0.4-1.5,0.4h-8.7c-0.7,0-1.2-0.1-1.5-0.4
						c-0.3-0.3-0.4-0.6-0.4-1s0.1-0.8,0.4-1c0.3-0.3,0.8-0.4,1.5-0.4h2.9v-12l-2.6,0.7c-0.4,0.1-0.7,0.2-0.9,0.2
						c-0.4,0-0.7-0.1-0.9-0.4c-0.3-0.3-0.4-0.6-0.4-1.1c0-0.4,0.1-0.7,0.3-0.9c0.2-0.2,0.6-0.4,1.2-0.6L314,245.4z"/>
					<path id="XMLID_00000079443651822115893340000013375477668871264680_" class="st1" d="M336.1,253.4v3.2c0,1.9-0.5,3.7-1.6,5.4
						s-2.6,2.6-4.6,2.6c-1.2,0-2.1-0.3-2.9-0.8s-1.6-1.5-2.3-2.8c-0.7-1.4-1.1-2.8-1.1-4.4v-3.2c0-1.9,0.5-3.7,1.6-5.4
						s2.6-2.6,4.6-2.6c1.2,0,2.1,0.3,2.9,0.8s1.6,1.4,2.3,2.8C335.7,250.4,336.1,251.8,336.1,253.4z M333.2,253.4
						c0-1.6-0.4-2.9-1.3-4.1c-0.5-0.6-1.2-1-2.1-1s-1.6,0.4-2.1,1.1c-0.8,1.1-1.3,2.4-1.3,4v3.2c0,1.6,0.4,2.9,1.3,4.1
						c0.5,0.6,1.2,1,2.1,1s1.6-0.4,2.1-1.1c0.8-1.1,1.3-2.4,1.3-4V253.4z"/>
					<path id="XMLID_00000116194093097192017510000017203277126610424751_" class="st1" d="M353.4,253.4v3.2c0,1.9-0.5,3.7-1.6,5.4
						s-2.6,2.6-4.6,2.6c-1.2,0-2.1-0.3-2.9-0.8s-1.6-1.5-2.3-2.8c-0.7-1.4-1.1-2.8-1.1-4.4v-3.2c0-1.9,0.5-3.7,1.6-5.4
						s2.6-2.6,4.6-2.6c1.2,0,2.1,0.3,2.9,0.8s1.6,1.4,2.3,2.8C353,250.4,353.4,251.8,353.4,253.4z M350.5,253.4
						c0-1.6-0.4-2.9-1.3-4.1c-0.5-0.6-1.2-1-2.1-1s-1.6,0.4-2.1,1.1c-0.8,1.1-1.3,2.4-1.3,4v3.2c0,1.6,0.4,2.9,1.3,4.1
						c0.5,0.6,1.2,1,2.1,1s1.6-0.4,2.1-1.1c0.8-1.1,1.3-2.4,1.3-4V253.4z"/>
				</g>
			</g>
			<g id="XMLID_00000098926756194165032790000016774676176177263511_">
				<g id="XMLID_00000036223714695966742390000000105827057270196864_">
					<path id="XMLID_00000084496289421403125970000007008351656415039116_" class="st1" d="M226.3,143.9v15.7h2.9
						c0.7,0,1.2,0.1,1.5,0.4c0.3,0.3,0.4,0.6,0.4,1c0,0.4-0.1,0.8-0.4,1c-0.3,0.3-0.8,0.4-1.5,0.4h-8.7c-0.7,0-1.2-0.1-1.5-0.4
						c-0.3-0.3-0.4-0.6-0.4-1c0-0.4,0.1-0.8,0.4-1c0.3-0.3,0.8-0.4,1.5-0.4h2.9v-12l-2.6,0.7c-0.4,0.1-0.7,0.2-0.9,0.2
						c-0.4,0-0.7-0.1-0.9-0.4c-0.3-0.3-0.4-0.6-0.4-1.1c0-0.4,0.1-0.7,0.3-0.9s0.6-0.4,1.2-0.6L226.3,143.9z"/>
					<path id="XMLID_00000021833411893051095540000005408285241791584954_" class="st1" d="M248.4,151.8v3.2c0,1.9-0.5,3.7-1.6,5.4
						s-2.6,2.6-4.6,2.6c-1.2,0-2.1-0.3-2.9-0.8c-0.8-0.5-1.6-1.5-2.3-2.8c-0.7-1.4-1.1-2.8-1.1-4.4v-3.2c0-1.9,0.5-3.7,1.6-5.4
						s2.6-2.6,4.6-2.6c1.2,0,2.1,0.3,2.9,0.8c0.8,0.5,1.6,1.4,2.3,2.8C248.1,148.8,248.4,150.3,248.4,151.8z M245.5,151.8
						c0-1.6-0.4-2.9-1.3-4.1c-0.5-0.6-1.2-1-2.1-1c-0.9,0-1.6,0.4-2.1,1.1c-0.8,1.1-1.3,2.4-1.3,4v3.2c0,1.6,0.4,2.9,1.3,4.1
						c0.5,0.6,1.2,1,2.1,1c0.9,0,1.6-0.4,2.1-1.1c0.8-1.1,1.3-2.4,1.3-4V151.8z"/>
					<path id="XMLID_00000108293809654815553100000016464570179670705559_" class="st1" d="M260.9,143.9v15.7h2.9
						c0.7,0,1.2,0.1,1.5,0.4c0.3,0.3,0.4,0.6,0.4,1c0,0.4-0.1,0.8-0.4,1c-0.3,0.3-0.8,0.4-1.5,0.4h-8.7c-0.7,0-1.2-0.1-1.5-0.4
						c-0.3-0.3-0.4-0.6-0.4-1c0-0.4,0.1-0.8,0.4-1c0.3-0.3,0.8-0.4,1.5-0.4h2.9v-12l-2.6,0.7c-0.4,0.1-0.7,0.2-0.9,0.2
						c-0.4,0-0.7-0.1-0.9-0.4c-0.3-0.3-0.4-0.6-0.4-1.1c0-0.4,0.1-0.7,0.3-0.9s0.6-0.4,1.2-0.6L260.9,143.9z"/>
					<path id="XMLID_00000009586170456835694860000006116402628006220457_" class="st1" d="M283,151.8v3.2c0,1.9-0.5,3.7-1.6,5.4
						s-2.6,2.6-4.6,2.6c-1.2,0-2.1-0.3-2.9-0.8c-0.8-0.5-1.6-1.5-2.3-2.8c-0.7-1.4-1.1-2.8-1.1-4.4v-3.2c0-1.9,0.5-3.7,1.6-5.4
						s2.6-2.6,4.6-2.6c1.2,0,2.1,0.3,2.9,0.8c0.8,0.5,1.6,1.4,2.3,2.8C282.6,148.8,283,150.3,283,151.8z M280.1,151.8
						c0-1.6-0.4-2.9-1.3-4.1c-0.5-0.6-1.2-1-2.1-1s-1.6,0.4-2.1,1.1c-0.8,1.1-1.3,2.4-1.3,4v3.2c0,1.6,0.4,2.9,1.3,4.1
						c0.5,0.6,1.2,1,2.1,1c0.9,0,1.6-0.4,2.1-1.1c0.8-1.1,1.3-2.4,1.3-4V151.8z"/>
				</g>
				<g id="XMLID_00000093135865721140748410000012153217610400354730_">
					<path id="XMLID_00000078028132380522284130000004688768506648035495_" class="st1" d="M231.2,202.2v3.2c0,1.9-0.5,3.7-1.6,5.4
						s-2.6,2.6-4.6,2.6c-1.2,0-2.1-0.3-2.9-0.8c-0.8-0.5-1.6-1.5-2.3-2.8c-0.7-1.4-1.1-2.8-1.1-4.4v-3.2c0-1.9,0.5-3.7,1.6-5.4
						c1.1-1.7,2.6-2.6,4.6-2.6c1.2,0,2.1,0.3,2.9,0.8c0.8,0.5,1.6,1.4,2.3,2.8S231.2,200.8,231.2,202.2z M228.3,202.2
						c0-1.6-0.4-2.9-1.3-4.1c-0.5-0.6-1.2-1-2.1-1c-0.9,0-1.6,0.4-2.1,1.1c-0.8,1.1-1.3,2.4-1.3,4v3.2c0,1.6,0.4,2.9,1.3,4.1
						c0.5,0.6,1.2,1,2.1,1c0.9,0,1.6-0.4,2.1-1.1c0.8-1.1,1.3-2.4,1.3-4V202.2z"/>
					<path id="XMLID_00000053518687210040853410000017004414284259601567_" class="st1" d="M243.6,194.3v15.8h2.9
						c0.7,0,1.2,0.1,1.5,0.4c0.3,0.3,0.4,0.6,0.4,1c0,0.4-0.1,0.8-0.4,1c-0.3,0.3-0.8,0.4-1.5,0.4h-8.7c-0.7,0-1.2-0.1-1.5-0.4
						c-0.3-0.3-0.4-0.6-0.4-1c0-0.4,0.1-0.8,0.4-1c0.3-0.3,0.8-0.4,1.5-0.4h2.9v-12l-2.6,0.7c-0.4,0.1-0.7,0.2-0.9,0.2
						c-0.4,0-0.7-0.1-0.9-0.4c-0.3-0.3-0.4-0.6-0.4-1.1c0-0.4,0.1-0.7,0.3-0.9c0.2-0.2,0.6-0.4,1.2-0.6L243.6,194.3z"/>
					<path id="XMLID_00000159440483878786971610000011173771423082888878_" class="st1" d="M260.9,194.3v15.8h2.9
						c0.7,0,1.2,0.1,1.5,0.4c0.3,0.3,0.4,0.6,0.4,1c0,0.4-0.1,0.8-0.4,1c-0.3,0.3-0.8,0.4-1.5,0.4h-8.7c-0.7,0-1.2-0.1-1.5-0.4
						c-0.3-0.3-0.4-0.6-0.4-1c0-0.4,0.1-0.8,0.4-1c0.3-0.3,0.8-0.4,1.5-0.4h2.9v-12l-2.6,0.7c-0.4,0.1-0.7,0.2-0.9,0.2
						c-0.4,0-0.7-0.1-0.9-0.4c-0.3-0.3-0.4-0.6-0.4-1.1c0-0.4,0.1-0.7,0.3-0.9c0.2-0.2,0.6-0.4,1.2-0.6L260.9,194.3z"/>
					<path id="XMLID_00000174584747732725321780000017322330316925878434_" class="st1" d="M283,202.2v3.2c0,1.9-0.5,3.7-1.6,5.4
						s-2.6,2.6-4.6,2.6c-1.2,0-2.1-0.3-2.9-0.8c-0.8-0.5-1.6-1.5-2.3-2.8c-0.7-1.4-1.1-2.8-1.1-4.4v-3.2c0-1.9,0.5-3.7,1.6-5.4
						c1.1-1.7,2.6-2.6,4.6-2.6c1.2,0,2.1,0.3,2.9,0.8c0.8,0.5,1.6,1.4,2.3,2.8C282.6,199.2,283,200.8,283,202.2z M280.1,202.2
						c0-1.6-0.4-2.9-1.3-4.1c-0.5-0.6-1.2-1-2.1-1s-1.6,0.4-2.1,1.1c-0.8,1.1-1.3,2.4-1.3,4v3.2c0,1.6,0.4,2.9,1.3,4.1
						c0.5,0.6,1.2,1,2.1,1c0.9,0,1.6-0.4,2.1-1.1c0.8-1.1,1.3-2.4,1.3-4V202.2z"/>
				</g>
				<g id="XMLID_00000180324375438556675910000016969561176669123741_">
					<path id="XMLID_00000090292112632184434810000017572243018583590016_" class="st1" d="M231.2,177.2v3.2c0,1.9-0.5,3.7-1.6,5.4
						s-2.6,2.6-4.6,2.6c-1.2,0-2.1-0.3-2.9-0.8c-0.8-0.5-1.6-1.5-2.3-2.8c-0.7-1.4-1.1-2.8-1.1-4.4v-3.2c0-1.9,0.5-3.7,1.6-5.4
						c1.1-1.7,2.6-2.6,4.6-2.6c1.2,0,2.1,0.3,2.9,0.8c0.8,0.5,1.6,1.4,2.3,2.8C230.8,174.1,231.2,175.6,231.2,177.2z M228.3,177.2
						c0-1.6-0.4-2.9-1.3-4.1c-0.5-0.6-1.2-1-2.1-1c-0.9,0-1.6,0.4-2.1,1.1c-0.8,1.1-1.3,2.4-1.3,4v3.2c0,1.6,0.4,2.9,1.3,4.1
						c0.5,0.6,1.2,1,2.1,1c0.9,0,1.6-0.4,2.1-1.1c0.8-1.1,1.3-2.4,1.3-4V177.2z"/>
					<path id="XMLID_00000038390305715230936170000007578087247826128799_" class="st1" d="M243.6,169.2V185h2.9
						c0.7,0,1.2,0.1,1.5,0.4s0.4,0.6,0.4,1s-0.1,0.8-0.4,1c-0.3,0.3-0.8,0.4-1.5,0.4h-8.7c-0.7,0-1.2-0.1-1.5-0.4s-0.4-0.6-0.4-1
						s0.1-0.8,0.4-1c0.3-0.3,0.8-0.4,1.5-0.4h2.9v-12l-2.6,0.7c-0.4,0.1-0.7,0.2-0.9,0.2c-0.4,0-0.7-0.1-0.9-0.4
						c-0.3-0.3-0.4-0.6-0.4-1.1c0-0.4,0.1-0.7,0.3-0.9c0.2-0.2,0.6-0.4,1.2-0.6L243.6,169.2z"/>
					<path id="XMLID_00000123417132097286509640000000882303995726893236_" class="st1" d="M265.7,177.2v3.2c0,1.9-0.5,3.7-1.6,5.4
						s-2.6,2.6-4.6,2.6c-1.2,0-2.1-0.3-2.9-0.8c-0.8-0.5-1.6-1.5-2.3-2.8c-0.7-1.4-1.1-2.8-1.1-4.4v-3.2c0-1.9,0.5-3.7,1.6-5.4
						c1.1-1.7,2.6-2.6,4.6-2.6c1.2,0,2.1,0.3,2.9,0.8c0.8,0.5,1.6,1.4,2.3,2.8C265.3,174.1,265.7,175.6,265.7,177.2z M262.8,177.2
						c0-1.6-0.4-2.9-1.3-4.1c-0.5-0.6-1.2-1-2.1-1s-1.6,0.4-2.1,1.1c-0.8,1.1-1.3,2.4-1.3,4v3.2c0,1.6,0.4,2.9,1.3,4.1
						c0.5,0.6,1.2,1,2.1,1c0.9,0,1.6-0.4,2.1-1.1c0.8-1.1,1.3-2.4,1.3-4V177.2z"/>
					<path id="XMLID_00000114069503983911838510000007579115614544238761_" class="st1" d="M283,177.2v3.2c0,1.9-0.5,3.7-1.6,5.4
						s-2.6,2.6-4.6,2.6c-1.2,0-2.1-0.3-2.9-0.8c-0.8-0.5-1.6-1.5-2.3-2.8c-0.7-1.4-1.1-2.8-1.1-4.4v-3.2c0-1.9,0.5-3.7,1.6-5.4
						c1.1-1.7,2.6-2.6,4.6-2.6c1.2,0,2.1,0.3,2.9,0.8c0.8,0.5,1.6,1.4,2.3,2.8C282.6,174.1,283,175.6,283,177.2z M280.1,177.2
						c0-1.6-0.4-2.9-1.3-4.1c-0.5-0.6-1.2-1-2.1-1s-1.6,0.4-2.1,1.1c-0.8,1.1-1.3,2.4-1.3,4v3.2c0,1.6,0.4,2.9,1.3,4.1
						c0.5,0.6,1.2,1,2.1,1c0.9,0,1.6-0.4,2.1-1.1c0.8-1.1,1.3-2.4,1.3-4V177.2z"/>
				</g>
			</g>
			<g id="XMLID_00000116233094021219871460000005540682725130858412_">
				<g id="XMLID_00000061436638215418386950000015365523369118025363_">
					<path id="XMLID_00000150786787036591809520000015005998383107164832_" class="st1" d="M296.8,143.9v15.7h2.9
						c0.7,0,1.2,0.1,1.5,0.4c0.3,0.3,0.4,0.6,0.4,1c0,0.4-0.1,0.8-0.4,1c-0.3,0.3-0.8,0.4-1.5,0.4H291c-0.7,0-1.2-0.1-1.5-0.4
						c-0.3-0.3-0.4-0.6-0.4-1c0-0.4,0.1-0.8,0.4-1c0.3-0.3,0.8-0.4,1.5-0.4h2.9v-12l-2.6,0.7c-0.4,0.1-0.7,0.2-0.9,0.2
						c-0.4,0-0.7-0.1-0.9-0.4c-0.3-0.3-0.4-0.6-0.4-1.1c0-0.4,0.1-0.7,0.3-0.9c0.2-0.2,0.6-0.4,1.2-0.6L296.8,143.9z"/>
					<path id="XMLID_00000142140676740734145030000012250522732824624050_" class="st1" d="M318.8,151.8v3.2c0,1.9-0.5,3.7-1.6,5.4
						s-2.6,2.6-4.6,2.6c-1.2,0-2.1-0.3-2.9-0.8s-1.6-1.5-2.3-2.8c-0.7-1.4-1.1-2.8-1.1-4.4v-3.2c0-1.9,0.5-3.7,1.6-5.4
						s2.6-2.6,4.6-2.6c1.2,0,2.1,0.3,2.9,0.8s1.6,1.4,2.3,2.8C318.5,148.8,318.8,150.3,318.8,151.8z M316,151.8
						c0-1.6-0.4-2.9-1.3-4.1c-0.5-0.6-1.2-1-2.1-1s-1.6,0.4-2.1,1.1c-0.8,1.1-1.3,2.4-1.3,4v3.2c0,1.6,0.4,2.9,1.3,4.1
						c0.5,0.6,1.2,1,2.1,1s1.6-0.4,2.1-1.1c0.8-1.1,1.3-2.4,1.3-4V151.8z"/>
					<path id="XMLID_00000088099811720342929270000015976671719295594151_" class="st1" d="M331.3,143.9v15.7h2.9
						c0.7,0,1.2,0.1,1.5,0.4c0.3,0.3,0.4,0.6,0.4,1c0,0.4-0.1,0.8-0.4,1c-0.3,0.3-0.8,0.4-1.5,0.4h-8.7c-0.7,0-1.2-0.1-1.5-0.4
						c-0.3-0.3-0.4-0.6-0.4-1c0-0.4,0.1-0.8,0.4-1c0.3-0.3,0.8-0.4,1.5-0.4h2.9v-12l-2.6,0.7c-0.4,0.1-0.7,0.2-0.9,0.2
						c-0.4,0-0.7-0.1-0.9-0.4c-0.3-0.3-0.4-0.6-0.4-1.1c0-0.4,0.1-0.7,0.3-0.9c0.2-0.2,0.6-0.4,1.2-0.6L331.3,143.9z"/>
					<path id="XMLID_00000162333182243512583860000002345274365560303004_" class="st1" d="M353.4,151.8v3.2c0,1.9-0.5,3.7-1.6,5.4
						s-2.6,2.6-4.6,2.6c-1.2,0-2.1-0.3-2.9-0.8s-1.6-1.5-2.3-2.8c-0.7-1.4-1.1-2.8-1.1-4.4v-3.2c0-1.9,0.5-3.7,1.6-5.4
						s2.6-2.6,4.6-2.6c1.2,0,2.1,0.3,2.9,0.8s1.6,1.4,2.3,2.8C353,148.8,353.4,150.3,353.4,151.8z M350.5,151.8
						c0-1.6-0.4-2.9-1.3-4.1c-0.5-0.6-1.2-1-2.1-1s-1.6,0.4-2.1,1.1c-0.8,1.1-1.3,2.4-1.3,4v3.2c0,1.6,0.4,2.9,1.3,4.1
						c0.5,0.6,1.2,1,2.1,1s1.6-0.4,2.1-1.1c0.8-1.1,1.3-2.4,1.3-4V151.8z"/>
				</g>
				<g id="XMLID_00000158005772924738798600000003667105472321256603_">
					<path id="XMLID_00000006669727815014028410000006382548626110388920_" class="st1" d="M301.6,202.2v3.2c0,1.9-0.5,3.7-1.6,5.4
						s-2.6,2.6-4.6,2.6c-1.2,0-2.1-0.3-2.9-0.8s-1.6-1.5-2.3-2.8c-0.7-1.4-1.1-2.8-1.1-4.4v-3.2c0-1.9,0.5-3.7,1.6-5.4
						c1.1-1.7,2.6-2.6,4.6-2.6c1.2,0,2.1,0.3,2.9,0.8s1.6,1.4,2.3,2.8C301.2,199.2,301.6,200.8,301.6,202.2z M298.7,202.2
						c0-1.6-0.4-2.9-1.3-4.1c-0.5-0.6-1.2-1-2.1-1s-1.6,0.4-2.1,1.1c-0.8,1.1-1.3,2.4-1.3,4v3.2c0,1.6,0.4,2.9,1.3,4.1
						c0.5,0.6,1.2,1,2.1,1s1.6-0.4,2.1-1.1c0.8-1.1,1.3-2.4,1.3-4V202.2z"/>
					<path id="XMLID_00000010311202739869542240000007748125804450652036_" class="st1" d="M314,194.3v15.8h2.9
						c0.7,0,1.2,0.1,1.5,0.4c0.3,0.3,0.4,0.6,0.4,1c0,0.4-0.1,0.8-0.4,1c-0.3,0.3-0.8,0.4-1.5,0.4h-8.7c-0.7,0-1.2-0.1-1.5-0.4
						c-0.3-0.3-0.4-0.6-0.4-1c0-0.4,0.1-0.8,0.4-1c0.3-0.3,0.8-0.4,1.5-0.4h2.9v-12l-2.6,0.7c-0.4,0.1-0.7,0.2-0.9,0.2
						c-0.4,0-0.7-0.1-0.9-0.4c-0.3-0.3-0.4-0.6-0.4-1.1c0-0.4,0.1-0.7,0.3-0.9c0.2-0.2,0.6-0.4,1.2-0.6L314,194.3z"/>
					<path id="XMLID_00000142888987767954054430000000996980232745680027_" class="st1" d="M331.3,194.3v15.8h2.9
						c0.7,0,1.2,0.1,1.5,0.4c0.3,0.3,0.4,0.6,0.4,1c0,0.4-0.1,0.8-0.4,1c-0.3,0.3-0.8,0.4-1.5,0.4h-8.7c-0.7,0-1.2-0.1-1.5-0.4
						c-0.3-0.3-0.4-0.6-0.4-1c0-0.4,0.1-0.8,0.4-1c0.3-0.3,0.8-0.4,1.5-0.4h2.9v-12l-2.6,0.7c-0.4,0.1-0.7,0.2-0.9,0.2
						c-0.4,0-0.7-0.1-0.9-0.4c-0.3-0.3-0.4-0.6-0.4-1.1c0-0.4,0.1-0.7,0.3-0.9c0.2-0.2,0.6-0.4,1.2-0.6L331.3,194.3z"/>
					<path id="XMLID_00000050631287403143916180000008361776068762111361_" class="st1" d="M353.4,202.2v3.2c0,1.9-0.5,3.7-1.6,5.4
						s-2.6,2.6-4.6,2.6c-1.2,0-2.1-0.3-2.9-0.8s-1.6-1.5-2.3-2.8c-0.7-1.4-1.1-2.8-1.1-4.4v-3.2c0-1.9,0.5-3.7,1.6-5.4
						c1.1-1.7,2.6-2.6,4.6-2.6c1.2,0,2.1,0.3,2.9,0.8s1.6,1.4,2.3,2.8C353,199.2,353.4,200.8,353.4,202.2z M350.5,202.2
						c0-1.6-0.4-2.9-1.3-4.1c-0.5-0.6-1.2-1-2.1-1s-1.6,0.4-2.1,1.1c-0.8,1.1-1.3,2.4-1.3,4v3.2c0,1.6,0.4,2.9,1.3,4.1
						c0.5,0.6,1.2,1,2.1,1s1.6-0.4,2.1-1.1c0.8-1.1,1.3-2.4,1.3-4V202.2z"/>
				</g>
				<g id="XMLID_00000153707237103201064150000010058515354132864912_">
					<path id="XMLID_00000053547556790920937560000008519633197369664905_" class="st1" d="M301.6,177.2v3.2c0,1.9-0.5,3.7-1.6,5.4
						s-2.6,2.6-4.6,2.6c-1.2,0-2.1-0.3-2.9-0.8s-1.6-1.5-2.3-2.8c-0.7-1.4-1.1-2.8-1.1-4.4v-3.2c0-1.9,0.5-3.7,1.6-5.4
						c1.1-1.7,2.6-2.6,4.6-2.6c1.2,0,2.1,0.3,2.9,0.8s1.6,1.4,2.3,2.8C301.2,174.1,301.6,175.6,301.6,177.2z M298.7,177.2
						c0-1.6-0.4-2.9-1.3-4.1c-0.5-0.6-1.2-1-2.1-1s-1.6,0.4-2.1,1.1c-0.8,1.1-1.3,2.4-1.3,4v3.2c0,1.6,0.4,2.9,1.3,4.1
						c0.5,0.6,1.2,1,2.1,1s1.6-0.4,2.1-1.1c0.8-1.1,1.3-2.4,1.3-4V177.2z"/>
					<path id="XMLID_00000009586620927107269040000014340494138009804959_" class="st1" d="M314,169.2V185h2.9
						c0.7,0,1.2,0.1,1.5,0.4s0.4,0.6,0.4,1s-0.1,0.8-0.4,1c-0.3,0.3-0.8,0.4-1.5,0.4h-8.7c-0.7,0-1.2-0.1-1.5-0.4s-0.4-0.6-0.4-1
						s0.1-0.8,0.4-1c0.3-0.3,0.8-0.4,1.5-0.4h2.9v-12l-2.6,0.7c-0.4,0.1-0.7,0.2-0.9,0.2c-0.4,0-0.7-0.1-0.9-0.4
						c-0.3-0.3-0.4-0.6-0.4-1.1c0-0.4,0.1-0.7,0.3-0.9c0.2-0.2,0.6-0.4,1.2-0.6L314,169.2z"/>
					<path id="XMLID_00000098941317628535131740000006805773507519147186_" class="st1" d="M336.1,177.2v3.2c0,1.9-0.5,3.7-1.6,5.4
						s-2.6,2.6-4.6,2.6c-1.2,0-2.1-0.3-2.9-0.8s-1.6-1.5-2.3-2.8c-0.7-1.4-1.1-2.8-1.1-4.4v-3.2c0-1.9,0.5-3.7,1.6-5.4
						c1.1-1.7,2.6-2.6,4.6-2.6c1.2,0,2.1,0.3,2.9,0.8s1.6,1.4,2.3,2.8C335.8,174.1,336.1,175.6,336.1,177.2z M333.2,177.2
						c0-1.6-0.4-2.9-1.3-4.1c-0.5-0.6-1.2-1-2.1-1s-1.6,0.4-2.1,1.1c-0.8,1.1-1.3,2.4-1.3,4v3.2c0,1.6,0.4,2.9,1.3,4.1
						c0.5,0.6,1.2,1,2.1,1s1.6-0.4,2.1-1.1c0.8-1.1,1.3-2.4,1.3-4V177.2z"/>
					<path id="XMLID_00000147190029555468170140000014141319142157570234_" class="st1" d="M353.4,177.2v3.2c0,1.9-0.5,3.7-1.6,5.4
						s-2.6,2.6-4.6,2.6c-1.2,0-2.1-0.3-2.9-0.8s-1.6-1.5-2.3-2.8c-0.7-1.4-1.1-2.8-1.1-4.4v-3.2c0-1.9,0.5-3.7,1.6-5.4
						c1.1-1.7,2.6-2.6,4.6-2.6c1.2,0,2.1,0.3,2.9,0.8s1.6,1.4,2.3,2.8C353,174.1,353.4,175.6,353.4,177.2z M350.5,177.2
						c0-1.6-0.4-2.9-1.3-4.1c-0.5-0.6-1.2-1-2.1-1s-1.6,0.4-2.1,1.1c-0.8,1.1-1.3,2.4-1.3,4v3.2c0,1.6,0.4,2.9,1.3,4.1
						c0.5,0.6,1.2,1,2.1,1s1.6-0.4,2.1-1.1c0.8-1.1,1.3-2.4,1.3-4V177.2z"/>
				</g>
			</g>
		</g>
		<g>
			<g id="XMLID_00000155137733385036488140000004622478993469248171_">
				<g id="XMLID_00000092444970452661537980000015858253104440121772_">
					<path id="XMLID_00000093897450747056773630000011635752731414173591_" class="st1" d="M85.6,220.1v15.8h2.9
						c0.7,0,1.2,0.1,1.5,0.4c0.3,0.3,0.4,0.6,0.4,1s-0.1,0.8-0.4,1c-0.3,0.3-0.8,0.4-1.5,0.4h-8.7c-0.7,0-1.2-0.1-1.5-0.4
						c-0.3-0.3-0.4-0.6-0.4-1s0.1-0.8,0.4-1c0.3-0.3,0.8-0.4,1.5-0.4h2.9v-12l-2.6,0.7c-0.4,0.1-0.7,0.2-0.9,0.2
						c-0.4,0-0.7-0.1-0.9-0.4c-0.3-0.3-0.4-0.6-0.4-1.1c0-0.4,0.1-0.7,0.3-0.9c0.2-0.2,0.6-0.4,1.2-0.6L85.6,220.1z"/>
					<path id="XMLID_00000026164746131882542180000005360271900589900703_" class="st1" d="M107.6,228v3.2c0,1.9-0.5,3.7-1.6,5.4
						s-2.6,2.6-4.6,2.6c-1.2,0-2.1-0.3-2.9-0.8s-1.6-1.5-2.3-2.8c-0.7-1.4-1.1-2.8-1.1-4.4v-3.2c0-1.9,0.5-3.7,1.6-5.4
						c1.1-1.7,2.6-2.6,4.6-2.6c1.2,0,2.1,0.3,2.9,0.8s1.6,1.4,2.3,2.8C107.3,225,107.6,226.5,107.6,228z M104.7,228
						c0-1.6-0.4-2.9-1.3-4.1c-0.5-0.6-1.2-1-2.1-1s-1.6,0.4-2.1,1.1c-0.8,1.1-1.3,2.4-1.3,4v3.2c0,1.6,0.4,2.9,1.3,4.1
						c0.5,0.6,1.2,1,2.1,1s1.6-0.4,2.1-1.1c0.8-1.1,1.3-2.4,1.3-4V228z"/>
					<path id="XMLID_00000018924651936385407660000011414570821928453809_" class="st1" d="M120.1,220.1v15.8h2.9
						c0.7,0,1.2,0.1,1.5,0.4c0.3,0.3,0.4,0.6,0.4,1s-0.1,0.8-0.4,1c-0.3,0.3-0.8,0.4-1.5,0.4h-8.7c-0.7,0-1.2-0.1-1.5-0.4
						c-0.3-0.3-0.4-0.6-0.4-1s0.1-0.8,0.4-1c0.3-0.3,0.8-0.4,1.5-0.4h2.9v-12l-2.6,0.7c-0.4,0.1-0.7,0.2-0.9,0.2
						c-0.4,0-0.7-0.1-0.9-0.4c-0.3-0.3-0.4-0.6-0.4-1.1c0-0.4,0.1-0.7,0.3-0.9c0.2-0.2,0.6-0.4,1.2-0.6L120.1,220.1z"/>
					<path id="XMLID_00000148619057838509530660000007261270231303647675_" class="st1" d="M142.2,228v3.2c0,1.9-0.5,3.7-1.6,5.4
						c-1.1,1.7-2.6,2.6-4.6,2.6c-1.2,0-2.1-0.3-2.9-0.8s-1.6-1.5-2.3-2.8c-0.7-1.4-1.1-2.8-1.1-4.4v-3.2c0-1.9,0.5-3.7,1.6-5.4
						c1.1-1.7,2.6-2.6,4.6-2.6c1.2,0,2.1,0.3,2.9,0.8s1.6,1.4,2.3,2.8C141.8,225,142.2,226.5,142.2,228z M139.3,228
						c0-1.6-0.4-2.9-1.3-4.1c-0.5-0.6-1.2-1-2.1-1c-0.9,0-1.6,0.4-2.1,1.1c-0.8,1.1-1.3,2.4-1.3,4v3.2c0,1.6,0.4,2.9,1.3,4.1
						c0.5,0.6,1.2,1,2.1,1c0.9,0,1.6-0.4,2.1-1.1c0.8-1.1,1.3-2.4,1.3-4V228z"/>
				</g>
				<g id="XMLID_00000142151869250610475460000000131213978045722026_">
					<path id="XMLID_00000109724470637380294730000003847492850022532018_" class="st1" d="M90.4,278.5v3.2c0,1.9-0.5,3.7-1.6,5.4
						s-2.6,2.6-4.6,2.6c-1.2,0-2.1-0.3-2.9-0.8c-0.8-0.5-1.6-1.5-2.3-2.8c-0.7-1.4-1.1-2.8-1.1-4.4v-3.2c0-1.9,0.5-3.7,1.6-5.4
						c1.1-1.7,2.6-2.6,4.6-2.6c1.2,0,2.1,0.3,2.9,0.8c0.8,0.5,1.6,1.4,2.3,2.8C90,275.5,90.4,277,90.4,278.5z M87.5,278.5
						c0-1.6-0.4-2.9-1.3-4.1c-0.5-0.6-1.2-1-2.1-1s-1.6,0.4-2.1,1.1c-0.8,1.1-1.3,2.4-1.3,4v3.2c0,1.6,0.4,2.9,1.3,4.1
						c0.5,0.6,1.2,1,2.1,1c0.9,0,1.6-0.4,2.1-1.1c0.8-1.1,1.3-2.4,1.3-4V278.5z"/>
					<path id="XMLID_00000168103645984873628770000013163686889509620663_" class="st1" d="M102.8,270.5v15.8h2.9
						c0.7,0,1.2,0.1,1.5,0.4s0.4,0.6,0.4,1c0,0.4-0.1,0.8-0.4,1c-0.3,0.3-0.8,0.4-1.5,0.4H97c-0.7,0-1.2-0.1-1.5-0.4
						c-0.3-0.3-0.4-0.6-0.4-1c0-0.4,0.1-0.8,0.4-1c0.3-0.3,0.8-0.4,1.5-0.4h2.9v-12l-2.6,0.7c-0.4,0.1-0.7,0.2-0.9,0.2
						c-0.4,0-0.7-0.1-0.9-0.4c-0.3-0.3-0.4-0.6-0.4-1.1c0-0.4,0.1-0.7,0.3-0.9c0.2-0.2,0.6-0.4,1.2-0.6L102.8,270.5z"/>
					<path id="XMLID_00000017483796815951710130000013502847465035206805_" class="st1" d="M120.1,270.5v15.8h2.9
						c0.7,0,1.2,0.1,1.5,0.4s0.4,0.6,0.4,1c0,0.4-0.1,0.8-0.4,1c-0.3,0.3-0.8,0.4-1.5,0.4h-8.7c-0.7,0-1.2-0.1-1.5-0.4
						c-0.3-0.3-0.4-0.6-0.4-1c0-0.4,0.1-0.8,0.4-1c0.3-0.3,0.8-0.4,1.5-0.4h2.9v-12l-2.6,0.7c-0.4,0.1-0.7,0.2-0.9,0.2
						c-0.4,0-0.7-0.1-0.9-0.4c-0.3-0.3-0.4-0.6-0.4-1.1c0-0.4,0.1-0.7,0.3-0.9c0.2-0.2,0.6-0.4,1.2-0.6L120.1,270.5z"/>
					<path id="XMLID_00000124841768825114363830000018421755880956697227_" class="st1" d="M142.2,278.5v3.2c0,1.9-0.5,3.7-1.6,5.4
						c-1.1,1.7-2.6,2.6-4.6,2.6c-1.2,0-2.1-0.3-2.9-0.8s-1.6-1.5-2.3-2.8c-0.7-1.4-1.1-2.8-1.1-4.4v-3.2c0-1.9,0.5-3.7,1.6-5.4
						c1.1-1.7,2.6-2.6,4.6-2.6c1.2,0,2.1,0.3,2.9,0.8s1.6,1.4,2.3,2.8C141.8,275.5,142.2,277,142.2,278.5z M139.3,278.5
						c0-1.6-0.4-2.9-1.3-4.1c-0.5-0.6-1.2-1-2.1-1c-0.9,0-1.6,0.4-2.1,1.1c-0.8,1.1-1.3,2.4-1.3,4v3.2c0,1.6,0.4,2.9,1.3,4.1
						c0.5,0.6,1.2,1,2.1,1c0.9,0,1.6-0.4,2.1-1.1c0.8-1.1,1.3-2.4,1.3-4V278.5z"/>
				</g>
				<g id="XMLID_00000005238994585452280430000003163377870539262369_">
					<path id="XMLID_00000023977908267687484640000017679221401460080554_" class="st1" d="M90.4,253.4v3.2c0,1.9-0.5,3.7-1.6,5.4
						s-2.6,2.6-4.6,2.6c-1.2,0-2.1-0.3-2.9-0.8c-0.8-0.5-1.6-1.5-2.3-2.8c-0.7-1.4-1.1-2.8-1.1-4.4v-3.2c0-1.9,0.5-3.7,1.6-5.4
						s2.6-2.6,4.6-2.6c1.2,0,2.1,0.3,2.9,0.8c0.8,0.5,1.6,1.4,2.3,2.8C90,250.4,90.4,251.8,90.4,253.4z M87.5,253.4
						c0-1.6-0.4-2.9-1.3-4.1c-0.5-0.6-1.2-1-2.1-1s-1.6,0.4-2.1,1.1c-0.8,1.1-1.3,2.4-1.3,4v3.2c0,1.6,0.4,2.9,1.3,4.1
						c0.5,0.6,1.2,1,2.1,1c0.9,0,1.6-0.4,2.1-1.1c0.8-1.1,1.3-2.4,1.3-4V253.4z"/>
					<path id="XMLID_00000152235750587398271380000005811773571674853560_" class="st1" d="M102.8,245.4v15.8h2.9
						c0.7,0,1.2,0.1,1.5,0.4c0.3,0.3,0.4,0.6,0.4,1s-0.1,0.8-0.4,1c-0.3,0.3-0.8,0.4-1.5,0.4H97c-0.7,0-1.2-0.1-1.5-0.4
						c-0.3-0.3-0.4-0.6-0.4-1s0.1-0.8,0.4-1c0.3-0.3,0.8-0.4,1.5-0.4h2.9v-12l-2.6,0.7c-0.4,0.1-0.7,0.2-0.9,0.2
						c-0.4,0-0.7-0.1-0.9-0.4c-0.3-0.3-0.4-0.6-0.4-1.1c0-0.4,0.1-0.7,0.3-0.9c0.2-0.2,0.6-0.4,1.2-0.6L102.8,245.4z"/>
					<path id="XMLID_00000080928230364641536040000005472935642295829648_" class="st1" d="M124.9,253.4v3.2c0,1.9-0.5,3.7-1.6,5.4
						s-2.6,2.6-4.6,2.6c-1.2,0-2.1-0.3-2.9-0.8s-1.6-1.5-2.3-2.8c-0.7-1.4-1.1-2.8-1.1-4.4v-3.2c0-1.9,0.5-3.7,1.6-5.4
						s2.6-2.6,4.6-2.6c1.2,0,2.1,0.3,2.9,0.8s1.6,1.4,2.3,2.8C124.6,250.4,124.9,251.8,124.9,253.4z M122,253.4
						c0-1.6-0.4-2.9-1.3-4.1c-0.5-0.6-1.2-1-2.1-1s-1.6,0.4-2.1,1.1c-0.8,1.1-1.3,2.4-1.3,4v3.2c0,1.6,0.4,2.9,1.3,4.1
						c0.5,0.6,1.2,1,2.1,1s1.6-0.4,2.1-1.1c0.8-1.1,1.3-2.4,1.3-4V253.4z"/>
					<path id="XMLID_00000131369765240500394460000006873362397010604929_" class="st1" d="M142.2,253.4v3.2c0,1.9-0.5,3.7-1.6,5.4
						c-1.1,1.7-2.6,2.6-4.6,2.6c-1.2,0-2.1-0.3-2.9-0.8s-1.6-1.5-2.3-2.8c-0.7-1.4-1.1-2.8-1.1-4.4v-3.2c0-1.9,0.5-3.7,1.6-5.4
						c1.1-1.7,2.6-2.6,4.6-2.6c1.2,0,2.1,0.3,2.9,0.8s1.6,1.4,2.3,2.8C141.8,250.4,142.2,251.8,142.2,253.4z M139.3,253.4
						c0-1.6-0.4-2.9-1.3-4.1c-0.5-0.6-1.2-1-2.1-1c-0.9,0-1.6,0.4-2.1,1.1c-0.8,1.1-1.3,2.4-1.3,4v3.2c0,1.6,0.4,2.9,1.3,4.1
						c0.5,0.6,1.2,1,2.1,1c0.9,0,1.6-0.4,2.1-1.1c0.8-1.1,1.3-2.4,1.3-4V253.4z"/>
				</g>
			</g>
			<g id="XMLID_00000144328748461341805220000006165897244087397533_">
				<g id="XMLID_00000158744141867832548260000008373903049572069031_">
					<path id="XMLID_00000000186423814856524810000009539040716741394108_" class="st1" d="M156,220.1v15.8h2.9
						c0.7,0,1.2,0.1,1.5,0.4c0.3,0.3,0.4,0.6,0.4,1s-0.1,0.8-0.4,1c-0.3,0.3-0.8,0.4-1.5,0.4h-8.7c-0.7,0-1.2-0.1-1.5-0.4
						c-0.3-0.3-0.4-0.6-0.4-1s0.1-0.8,0.4-1c0.3-0.3,0.8-0.4,1.5-0.4h2.9v-12l-2.6,0.7c-0.4,0.1-0.7,0.2-0.9,0.2
						c-0.4,0-0.7-0.1-0.9-0.4c-0.3-0.3-0.4-0.6-0.4-1.1c0-0.4,0.1-0.7,0.3-0.9c0.2-0.2,0.6-0.4,1.2-0.6L156,220.1z"/>
					<path id="XMLID_00000183946856569382467430000007596225999905030552_" class="st1" d="M178.1,228v3.2c0,1.9-0.5,3.7-1.6,5.4
						s-2.6,2.6-4.6,2.6c-1.2,0-2.1-0.3-2.9-0.8c-0.8-0.5-1.6-1.5-2.3-2.8c-0.7-1.4-1.1-2.8-1.1-4.4v-3.2c0-1.9,0.5-3.7,1.6-5.4
						c1.1-1.7,2.6-2.6,4.6-2.6c1.2,0,2.1,0.3,2.9,0.8c0.8,0.5,1.6,1.4,2.3,2.8C177.7,225,178.1,226.5,178.1,228z M175.2,228
						c0-1.6-0.4-2.9-1.3-4.1c-0.5-0.6-1.2-1-2.1-1c-0.9,0-1.6,0.4-2.1,1.1c-0.8,1.1-1.3,2.4-1.3,4v3.2c0,1.6,0.4,2.9,1.3,4.1
						c0.5,0.6,1.2,1,2.1,1c0.9,0,1.6-0.4,2.1-1.1c0.8-1.1,1.3-2.4,1.3-4V228z"/>
					<path id="XMLID_00000008863738437690509110000000682587511735939466_" class="st1" d="M190.5,220.1v15.8h2.9
						c0.7,0,1.2,0.1,1.5,0.4c0.3,0.3,0.4,0.6,0.4,1s-0.1,0.8-0.4,1c-0.3,0.3-0.8,0.4-1.5,0.4h-8.7c-0.7,0-1.2-0.1-1.5-0.4
						c-0.3-0.3-0.4-0.6-0.4-1s0.1-0.8,0.4-1c0.3-0.3,0.8-0.4,1.5-0.4h2.9v-12l-2.6,0.7c-0.4,0.1-0.7,0.2-0.9,0.2
						c-0.4,0-0.7-0.1-0.9-0.4c-0.3-0.3-0.4-0.6-0.4-1.1c0-0.4,0.1-0.7,0.3-0.9c0.2-0.2,0.6-0.4,1.2-0.6L190.5,220.1z"/>
					<path id="XMLID_00000072255314651109860820000016263649003237798571_" class="st1" d="M212.6,228v3.2c0,1.9-0.5,3.7-1.6,5.4
						s-2.6,2.6-4.6,2.6c-1.2,0-2.1-0.3-2.9-0.8c-0.8-0.5-1.6-1.5-2.3-2.8c-0.7-1.4-1.1-2.8-1.1-4.4v-3.2c0-1.9,0.5-3.7,1.6-5.4
						c1.1-1.7,2.6-2.6,4.6-2.6c1.2,0,2.1,0.3,2.9,0.8c0.8,0.5,1.6,1.4,2.3,2.8C212.2,225,212.6,226.5,212.6,228z M209.7,228
						c0-1.6-0.4-2.9-1.3-4.1c-0.5-0.6-1.2-1-2.1-1c-0.9,0-1.6,0.4-2.1,1.1c-0.8,1.1-1.3,2.4-1.3,4v3.2c0,1.6,0.4,2.9,1.3,4.1
						c0.5,0.6,1.2,1,2.1,1c0.9,0,1.6-0.4,2.1-1.1c0.8-1.1,1.3-2.4,1.3-4V228z"/>
				</g>
				<g id="XMLID_00000060742402362163233940000006715618251392937616_">
					<path id="XMLID_00000173132064173678827320000007916175515470429591_" class="st1" d="M160.8,278.5v3.2c0,1.9-0.5,3.7-1.6,5.4
						s-2.6,2.6-4.6,2.6c-1.2,0-2.1-0.3-2.9-0.8c-0.8-0.5-1.6-1.5-2.3-2.8c-0.7-1.4-1.1-2.8-1.1-4.4v-3.2c0-1.9,0.5-3.7,1.6-5.4
						c1.1-1.7,2.6-2.6,4.6-2.6c1.2,0,2.1,0.3,2.9,0.8c0.8,0.5,1.6,1.4,2.3,2.8C160.4,275.5,160.8,277,160.8,278.5z M157.9,278.5
						c0-1.6-0.4-2.9-1.3-4.1c-0.5-0.6-1.2-1-2.1-1c-0.9,0-1.6,0.4-2.1,1.1c-0.8,1.1-1.3,2.4-1.3,4v3.2c0,1.6,0.4,2.9,1.3,4.1
						c0.5,0.6,1.2,1,2.1,1c0.9,0,1.6-0.4,2.1-1.1c0.8-1.1,1.3-2.4,1.3-4V278.5z"/>
					<path id="XMLID_00000064348962590864637450000001767169109993056688_" class="st1" d="M173.2,270.5v15.8h2.9
						c0.7,0,1.2,0.1,1.5,0.4s0.4,0.6,0.4,1c0,0.4-0.1,0.8-0.4,1c-0.3,0.3-0.8,0.4-1.5,0.4h-8.7c-0.7,0-1.2-0.1-1.5-0.4
						c-0.3-0.3-0.4-0.6-0.4-1c0-0.4,0.1-0.8,0.4-1c0.3-0.3,0.8-0.4,1.5-0.4h2.9v-12l-2.6,0.7c-0.4,0.1-0.7,0.2-0.9,0.2
						c-0.4,0-0.7-0.1-0.9-0.4c-0.3-0.3-0.4-0.6-0.4-1.1c0-0.4,0.1-0.7,0.3-0.9c0.2-0.2,0.6-0.4,1.2-0.6L173.2,270.5z"/>
					<path id="XMLID_00000166655389283164661310000012121260467696729224_" class="st1" d="M190.5,270.5v15.8h2.9
						c0.7,0,1.2,0.1,1.5,0.4s0.4,0.6,0.4,1c0,0.4-0.1,0.8-0.4,1c-0.3,0.3-0.8,0.4-1.5,0.4h-8.7c-0.7,0-1.2-0.1-1.5-0.4
						c-0.3-0.3-0.4-0.6-0.4-1c0-0.4,0.1-0.8,0.4-1c0.3-0.3,0.8-0.4,1.5-0.4h2.9v-12L185,275c-0.4,0.1-0.7,0.2-0.9,0.2
						c-0.4,0-0.7-0.1-0.9-0.4c-0.3-0.3-0.4-0.6-0.4-1.1c0-0.4,0.1-0.7,0.3-0.9c0.2-0.2,0.6-0.4,1.2-0.6L190.5,270.5z"/>
					<path id="XMLID_00000024688598489201390510000009464182676389908628_" class="st1" d="M212.6,278.5v3.2c0,1.9-0.5,3.7-1.6,5.4
						s-2.6,2.6-4.6,2.6c-1.2,0-2.1-0.3-2.9-0.8c-0.8-0.5-1.6-1.5-2.3-2.8c-0.7-1.4-1.1-2.8-1.1-4.4v-3.2c0-1.9,0.5-3.7,1.6-5.4
						c1.1-1.7,2.6-2.6,4.6-2.6c1.2,0,2.1,0.3,2.9,0.8c0.8,0.5,1.6,1.4,2.3,2.8C212.2,275.5,212.6,277,212.6,278.5z M209.7,278.5
						c0-1.6-0.4-2.9-1.3-4.1c-0.5-0.6-1.2-1-2.1-1c-0.9,0-1.6,0.4-2.1,1.1c-0.8,1.1-1.3,2.4-1.3,4v3.2c0,1.6,0.4,2.9,1.3,4.1
						c0.5,0.6,1.2,1,2.1,1c0.9,0,1.6-0.4,2.1-1.1c0.8-1.1,1.3-2.4,1.3-4V278.5z"/>
				</g>
				<g id="XMLID_00000129914817619900646520000010481844752299656368_">
					<path id="XMLID_00000091005688798684313980000000915205739412810120_" class="st1" d="M160.8,253.4v3.2c0,1.9-0.5,3.7-1.6,5.4
						s-2.6,2.6-4.6,2.6c-1.2,0-2.1-0.3-2.9-0.8c-0.8-0.5-1.6-1.5-2.3-2.8c-0.7-1.4-1.1-2.8-1.1-4.4v-3.2c0-1.9,0.5-3.7,1.6-5.4
						s2.6-2.6,4.6-2.6c1.2,0,2.1,0.3,2.9,0.8c0.8,0.5,1.6,1.4,2.3,2.8C160.4,250.4,160.8,251.8,160.8,253.4z M157.9,253.4
						c0-1.6-0.4-2.9-1.3-4.1c-0.5-0.6-1.2-1-2.1-1c-0.9,0-1.6,0.4-2.1,1.1c-0.8,1.1-1.3,2.4-1.3,4v3.2c0,1.6,0.4,2.9,1.3,4.1
						c0.5,0.6,1.2,1,2.1,1c0.9,0,1.6-0.4,2.1-1.1c0.8-1.1,1.3-2.4,1.3-4V253.4z"/>
					<path id="XMLID_00000090254409591757625140000008932050338298639248_" class="st1" d="M173.2,245.4v15.8h2.9
						c0.7,0,1.2,0.1,1.5,0.4c0.3,0.3,0.4,0.6,0.4,1s-0.1,0.8-0.4,1c-0.3,0.3-0.8,0.4-1.5,0.4h-8.7c-0.7,0-1.2-0.1-1.5-0.4
						c-0.3-0.3-0.4-0.6-0.4-1s0.1-0.8,0.4-1c0.3-0.3,0.8-0.4,1.5-0.4h2.9v-12l-2.6,0.7c-0.4,0.1-0.7,0.2-0.9,0.2
						c-0.4,0-0.7-0.1-0.9-0.4c-0.3-0.3-0.4-0.6-0.4-1.1c0-0.4,0.1-0.7,0.3-0.9s0.6-0.4,1.2-0.6L173.2,245.4z"/>
					<path id="XMLID_00000041282585768427020850000004632432208830967705_" class="st1" d="M195.3,253.4v3.2c0,1.9-0.5,3.7-1.6,5.4
						s-2.6,2.6-4.6,2.6c-1.2,0-2.1-0.3-2.9-0.8c-0.8-0.5-1.6-1.5-2.3-2.8c-0.7-1.4-1.1-2.8-1.1-4.4v-3.2c0-1.9,0.5-3.7,1.6-5.4
						s2.6-2.6,4.6-2.6c1.2,0,2.1,0.3,2.9,0.8c0.8,0.5,1.6,1.4,2.3,2.8C195,250.4,195.3,251.8,195.3,253.4z M192.4,253.4
						c0-1.6-0.4-2.9-1.3-4.1c-0.5-0.6-1.2-1-2.1-1c-0.9,0-1.6,0.4-2.1,1.1c-0.8,1.1-1.3,2.4-1.3,4v3.2c0,1.6,0.4,2.9,1.3,4.1
						c0.5,0.6,1.2,1,2.1,1c0.9,0,1.6-0.4,2.1-1.1c0.8-1.1,1.3-2.4,1.3-4V253.4z"/>
					<path id="XMLID_00000039827791484264146180000010529878512912991674_" class="st1" d="M212.6,253.4v3.2c0,1.9-0.5,3.7-1.6,5.4
						s-2.6,2.6-4.6,2.6c-1.2,0-2.1-0.3-2.9-0.8c-0.8-0.5-1.6-1.5-2.3-2.8c-0.7-1.4-1.1-2.8-1.1-4.4v-3.2c0-1.9,0.5-3.7,1.6-5.4
						s2.6-2.6,4.6-2.6c1.2,0,2.1,0.3,2.9,0.8c0.8,0.5,1.6,1.4,2.3,2.8C212.2,250.4,212.6,251.8,212.6,253.4z M209.7,253.4
						c0-1.6-0.4-2.9-1.3-4.1c-0.5-0.6-1.2-1-2.1-1c-0.9,0-1.6,0.4-2.1,1.1c-0.8,1.1-1.3,2.4-1.3,4v3.2c0,1.6,0.4,2.9,1.3,4.1
						c0.5,0.6,1.2,1,2.1,1c0.9,0,1.6-0.4,2.1-1.1c0.8-1.1,1.3-2.4,1.3-4V253.4z"/>
				</g>
			</g>
			<g id="XMLID_00000004539415315978736400000006381392272597399711_">
				<g id="XMLID_00000153684981496078970730000001184622678656927645_">
					<path id="XMLID_00000044153078743629354730000006195818593610832777_" class="st1" d="M85.6,143.9v15.7h2.9
						c0.7,0,1.2,0.1,1.5,0.4c0.3,0.3,0.4,0.6,0.4,1c0,0.4-0.1,0.8-0.4,1c-0.3,0.3-0.8,0.4-1.5,0.4h-8.7c-0.7,0-1.2-0.1-1.5-0.4
						c-0.3-0.3-0.4-0.6-0.4-1c0-0.4,0.1-0.8,0.4-1c0.3-0.3,0.8-0.4,1.5-0.4h2.9v-12l-2.6,0.7c-0.4,0.1-0.7,0.2-0.9,0.2
						c-0.4,0-0.7-0.1-0.9-0.4c-0.3-0.3-0.4-0.6-0.4-1.1c0-0.4,0.1-0.7,0.3-0.9c0.2-0.2,0.6-0.4,1.2-0.6L85.6,143.9z"/>
					<path id="XMLID_00000136405805331597397890000000370235996567326604_" class="st1" d="M107.7,151.8v3.2c0,1.9-0.5,3.7-1.6,5.4
						s-2.6,2.6-4.6,2.6c-1.2,0-2.1-0.3-2.9-0.8s-1.6-1.5-2.3-2.8c-0.7-1.4-1.1-2.8-1.1-4.4v-3.2c0-1.9,0.5-3.7,1.6-5.4
						s2.6-2.6,4.6-2.6c1.2,0,2.1,0.3,2.9,0.8s1.6,1.4,2.3,2.8C107.3,148.8,107.7,150.3,107.7,151.8z M104.8,151.8
						c0-1.6-0.4-2.9-1.3-4.1c-0.5-0.6-1.2-1-2.1-1s-1.6,0.4-2.1,1.1c-0.8,1.1-1.3,2.4-1.3,4v3.2c0,1.6,0.4,2.9,1.3,4.1
						c0.5,0.6,1.2,1,2.1,1s1.6-0.4,2.1-1.1c0.8-1.1,1.3-2.4,1.3-4V151.8z"/>
					<path id="XMLID_00000021832456966805578530000003041100593664247226_" class="st1" d="M120.1,143.9v15.7h2.9
						c0.7,0,1.2,0.1,1.5,0.4c0.3,0.3,0.4,0.6,0.4,1c0,0.4-0.1,0.8-0.4,1c-0.3,0.3-0.8,0.4-1.5,0.4h-8.7c-0.7,0-1.2-0.1-1.5-0.4
						c-0.3-0.3-0.4-0.6-0.4-1c0-0.4,0.1-0.8,0.4-1c0.3-0.3,0.8-0.4,1.5-0.4h2.9v-12l-2.6,0.7c-0.4,0.1-0.7,0.2-0.9,0.2
						c-0.4,0-0.7-0.1-0.9-0.4c-0.3-0.3-0.4-0.6-0.4-1.1c0-0.4,0.1-0.7,0.3-0.9c0.2-0.2,0.6-0.4,1.2-0.6L120.1,143.9z"/>
					<path id="XMLID_00000103246382948597564470000005587543085818804866_" class="st1" d="M142.2,151.8v3.2c0,1.9-0.5,3.7-1.6,5.4
						c-1.1,1.7-2.6,2.6-4.6,2.6c-1.2,0-2.1-0.3-2.9-0.8s-1.6-1.5-2.3-2.8c-0.7-1.4-1.1-2.8-1.1-4.4v-3.2c0-1.9,0.5-3.7,1.6-5.4
						c1.1-1.7,2.6-2.6,4.6-2.6c1.2,0,2.1,0.3,2.9,0.8s1.6,1.4,2.3,2.8C141.8,148.8,142.2,150.3,142.2,151.8z M139.3,151.8
						c0-1.6-0.4-2.9-1.3-4.1c-0.5-0.6-1.2-1-2.1-1c-0.9,0-1.6,0.4-2.1,1.1c-0.8,1.1-1.3,2.4-1.3,4v3.2c0,1.6,0.4,2.9,1.3,4.1
						c0.5,0.6,1.2,1,2.1,1c0.9,0,1.6-0.4,2.1-1.1c0.8-1.1,1.3-2.4,1.3-4V151.8z"/>
				</g>
				<g id="XMLID_00000178200323714344295070000002466640740560697472_">
					<path id="XMLID_00000109717723219149495850000001629881428141002629_" class="st1" d="M90.4,202.2v3.2c0,1.9-0.5,3.7-1.6,5.4
						s-2.6,2.6-4.6,2.6c-1.2,0-2.1-0.3-2.9-0.8c-0.8-0.5-1.6-1.5-2.3-2.8c-0.7-1.4-1.1-2.8-1.1-4.4v-3.2c0-1.9,0.5-3.7,1.6-5.4
						c1.1-1.7,2.6-2.6,4.6-2.6c1.2,0,2.1,0.3,2.9,0.8c0.8,0.5,1.6,1.4,2.3,2.8C90,199.2,90.4,200.8,90.4,202.2z M87.5,202.2
						c0-1.6-0.4-2.9-1.3-4.1c-0.5-0.6-1.2-1-2.1-1s-1.6,0.4-2.1,1.1c-0.8,1.1-1.3,2.4-1.3,4v3.2c0,1.6,0.4,2.9,1.3,4.1
						c0.5,0.6,1.2,1,2.1,1c0.9,0,1.6-0.4,2.1-1.1c0.8-1.1,1.3-2.4,1.3-4V202.2z"/>
					<path id="XMLID_00000082326321797232222070000014788311880863823547_" class="st1" d="M102.8,194.3v15.8h2.9
						c0.7,0,1.2,0.1,1.5,0.4c0.3,0.3,0.4,0.6,0.4,1c0,0.4-0.1,0.8-0.4,1c-0.3,0.3-0.8,0.4-1.5,0.4H97c-0.7,0-1.2-0.1-1.5-0.4
						c-0.3-0.3-0.4-0.6-0.4-1c0-0.4,0.1-0.8,0.4-1c0.3-0.3,0.8-0.4,1.5-0.4h2.9v-12l-2.6,0.7c-0.4,0.1-0.7,0.2-0.9,0.2
						c-0.4,0-0.7-0.1-0.9-0.4c-0.3-0.3-0.4-0.6-0.4-1.1c0-0.4,0.1-0.7,0.3-0.9c0.2-0.2,0.6-0.4,1.2-0.6L102.8,194.3z"/>
					<path id="XMLID_00000127022721647479493640000003837967477216139393_" class="st1" d="M120.1,194.3v15.8h2.9
						c0.7,0,1.2,0.1,1.5,0.4c0.3,0.3,0.4,0.6,0.4,1c0,0.4-0.1,0.8-0.4,1c-0.3,0.3-0.8,0.4-1.5,0.4h-8.7c-0.7,0-1.2-0.1-1.5-0.4
						c-0.3-0.3-0.4-0.6-0.4-1c0-0.4,0.1-0.8,0.4-1c0.3-0.3,0.8-0.4,1.5-0.4h2.9v-12l-2.6,0.7c-0.4,0.1-0.7,0.2-0.9,0.2
						c-0.4,0-0.7-0.1-0.9-0.4c-0.3-0.3-0.4-0.6-0.4-1.1c0-0.4,0.1-0.7,0.3-0.9c0.2-0.2,0.6-0.4,1.2-0.6L120.1,194.3z"/>
					<path id="XMLID_00000173842928635804698210000008086824908777558961_" class="st1" d="M142.2,202.2v3.2c0,1.9-0.5,3.7-1.6,5.4
						c-1.1,1.7-2.6,2.6-4.6,2.6c-1.2,0-2.1-0.3-2.9-0.8s-1.6-1.5-2.3-2.8c-0.7-1.4-1.1-2.8-1.1-4.4v-3.2c0-1.9,0.5-3.7,1.6-5.4
						c1.1-1.7,2.6-2.6,4.6-2.6c1.2,0,2.1,0.3,2.9,0.8s1.6,1.4,2.3,2.8C141.8,199.2,142.2,200.8,142.2,202.2z M139.3,202.2
						c0-1.6-0.4-2.9-1.3-4.1c-0.5-0.6-1.2-1-2.1-1c-0.9,0-1.6,0.4-2.1,1.1c-0.8,1.1-1.3,2.4-1.3,4v3.2c0,1.6,0.4,2.9,1.3,4.1
						c0.5,0.6,1.2,1,2.1,1c0.9,0,1.6-0.4,2.1-1.1c0.8-1.1,1.3-2.4,1.3-4V202.2z"/>
				</g>
				<g id="XMLID_00000155125319652371877370000007106133507034499489_">
					<path id="XMLID_00000030470395143114170550000009520402601440651139_" class="st1" d="M90.4,177.2v3.2c0,1.9-0.5,3.7-1.6,5.4
						s-2.6,2.6-4.6,2.6c-1.2,0-2.1-0.3-2.9-0.8c-0.8-0.5-1.6-1.5-2.3-2.8c-0.7-1.4-1.1-2.8-1.1-4.4v-3.2c0-1.9,0.5-3.7,1.6-5.4
						c1.1-1.7,2.6-2.6,4.6-2.6c1.2,0,2.1,0.3,2.9,0.8c0.8,0.5,1.6,1.4,2.3,2.8C90,174.1,90.4,175.6,90.4,177.2z M87.5,177.2
						c0-1.6-0.4-2.9-1.3-4.1c-0.5-0.6-1.2-1-2.1-1s-1.6,0.4-2.1,1.1c-0.8,1.1-1.3,2.4-1.3,4v3.2c0,1.6,0.4,2.9,1.3,4.1
						c0.5,0.6,1.2,1,2.1,1c0.9,0,1.6-0.4,2.1-1.1c0.8-1.1,1.3-2.4,1.3-4V177.2z"/>
					<path id="XMLID_00000121251984535046572890000001136068237714741147_" class="st1" d="M102.8,169.2V185h2.9
						c0.7,0,1.2,0.1,1.5,0.4s0.4,0.6,0.4,1s-0.1,0.8-0.4,1c-0.3,0.3-0.8,0.4-1.5,0.4H97c-0.7,0-1.2-0.1-1.5-0.4s-0.4-0.6-0.4-1
						s0.1-0.8,0.4-1c0.3-0.3,0.8-0.4,1.5-0.4h2.9v-12l-2.5,0.6c-0.4,0.1-0.7,0.2-0.9,0.2c-0.4,0-0.7-0.1-0.9-0.4
						c-0.3-0.3-0.4-0.6-0.4-1.1c0-0.4,0.1-0.7,0.3-0.9c0.2-0.2,0.6-0.4,1.2-0.6L102.8,169.2z"/>
					<path id="XMLID_00000140732613586063083230000007114025646480688528_" class="st1" d="M124.9,177.2v3.2c0,1.9-0.5,3.7-1.6,5.4
						s-2.6,2.6-4.6,2.6c-1.2,0-2.1-0.3-2.9-0.8s-1.6-1.5-2.3-2.8c-0.7-1.4-1.1-2.8-1.1-4.4v-3.2c0-1.9,0.5-3.7,1.6-5.4
						c1.1-1.7,2.6-2.6,4.6-2.6c1.2,0,2.1,0.3,2.9,0.8s1.6,1.4,2.3,2.8C124.6,174.1,124.9,175.6,124.9,177.2z M122,177.2
						c0-1.6-0.4-2.9-1.3-4.1c-0.5-0.6-1.2-1-2.1-1s-1.6,0.4-2.1,1.1c-0.8,1.1-1.3,2.4-1.3,4v3.2c0,1.6,0.4,2.9,1.3,4.1
						c0.5,0.6,1.2,1,2.1,1s1.6-0.4,2.1-1.1c0.8-1.1,1.3-2.4,1.3-4V177.2z"/>
					<path id="XMLID_00000173861379206701944540000004925930816375120793_" class="st1" d="M142.2,177.2v3.2c0,1.9-0.5,3.7-1.6,5.4
						c-1.1,1.7-2.6,2.6-4.6,2.6c-1.2,0-2.1-0.3-2.9-0.8s-1.6-1.5-2.3-2.8c-0.7-1.4-1.1-2.8-1.1-4.4v-3.2c0-1.9,0.5-3.7,1.6-5.4
						c1.1-1.7,2.6-2.6,4.6-2.6c1.2,0,2.1,0.3,2.9,0.8s1.6,1.4,2.3,2.8C141.8,174.1,142.2,175.6,142.2,177.2z M139.3,177.2
						c0-1.6-0.4-2.9-1.3-4.1c-0.5-0.6-1.2-1-2.1-1c-0.9,0-1.6,0.4-2.1,1.1c-0.8,1.1-1.3,2.4-1.3,4v3.2c0,1.6,0.4,2.9,1.3,4.1
						c0.5,0.6,1.2,1,2.1,1c0.9,0,1.6-0.4,2.1-1.1c0.8-1.1,1.3-2.4,1.3-4V177.2z"/>
				</g>
			</g>
			<g id="XMLID_00000116206844218105390090000010671938565448615831_">
				<g id="XMLID_00000088848603813738614380000009682857476571117995_">
					<path id="XMLID_00000155120408367655017480000003851834671115033022_" class="st1" d="M156,143.9v15.7h2.9
						c0.7,0,1.2,0.1,1.5,0.4c0.3,0.3,0.4,0.6,0.4,1c0,0.4-0.1,0.8-0.4,1c-0.3,0.3-0.8,0.4-1.5,0.4h-8.7c-0.7,0-1.2-0.1-1.5-0.4
						c-0.3-0.3-0.4-0.6-0.4-1c0-0.4,0.1-0.8,0.4-1c0.3-0.3,0.8-0.4,1.5-0.4h2.9v-12l-2.6,0.7c-0.4,0.1-0.7,0.2-0.9,0.2
						c-0.4,0-0.7-0.1-0.9-0.4c-0.3-0.3-0.4-0.6-0.4-1.1c0-0.4,0.1-0.7,0.3-0.9c0.2-0.2,0.6-0.4,1.2-0.6L156,143.9z"/>
					<path id="XMLID_00000000901394661672874050000000786799214430123159_" class="st1" d="M178.1,151.8v3.2c0,1.9-0.5,3.7-1.6,5.4
						s-2.6,2.6-4.6,2.6c-1.2,0-2.1-0.3-2.9-0.8c-0.8-0.5-1.6-1.5-2.3-2.8c-0.7-1.4-1.1-2.8-1.1-4.4v-3.2c0-1.9,0.5-3.7,1.6-5.4
						s2.6-2.6,4.6-2.6c1.2,0,2.1,0.3,2.9,0.8c0.8,0.5,1.6,1.4,2.3,2.8C177.7,148.8,178.1,150.3,178.1,151.8z M175.2,151.8
						c0-1.6-0.4-2.9-1.3-4.1c-0.5-0.6-1.2-1-2.1-1c-0.9,0-1.6,0.4-2.1,1.1c-0.8,1.1-1.3,2.4-1.3,4v3.2c0,1.6,0.4,2.9,1.3,4.1
						c0.5,0.6,1.2,1,2.1,1c0.9,0,1.6-0.4,2.1-1.1c0.8-1.1,1.3-2.4,1.3-4V151.8z"/>
					<path id="XMLID_00000137122762880484100780000009058070763316888461_" class="st1" d="M190.5,143.9v15.7h2.9
						c0.7,0,1.2,0.1,1.5,0.4c0.3,0.3,0.4,0.6,0.4,1c0,0.4-0.1,0.8-0.4,1c-0.3,0.3-0.8,0.4-1.5,0.4h-8.7c-0.7,0-1.2-0.1-1.5-0.4
						c-0.3-0.3-0.4-0.6-0.4-1c0-0.4,0.1-0.8,0.4-1c0.3-0.3,0.8-0.4,1.5-0.4h2.9v-12l-2.6,0.7c-0.4,0.1-0.7,0.2-0.9,0.2
						c-0.4,0-0.7-0.1-0.9-0.4c-0.3-0.3-0.4-0.6-0.4-1.1c0-0.4,0.1-0.7,0.3-0.9s0.6-0.4,1.2-0.6L190.5,143.9z"/>
					<path id="XMLID_00000023279724881442724710000001957438625722759589_" class="st1" d="M212.6,151.8v3.2c0,1.9-0.5,3.7-1.6,5.4
						s-2.6,2.6-4.6,2.6c-1.2,0-2.1-0.3-2.9-0.8c-0.8-0.5-1.6-1.5-2.3-2.8c-0.7-1.4-1.1-2.8-1.1-4.4v-3.2c0-1.9,0.5-3.7,1.6-5.4
						s2.6-2.6,4.6-2.6c1.2,0,2.1,0.3,2.9,0.8c0.8,0.5,1.6,1.4,2.3,2.8C212.2,148.8,212.6,150.3,212.6,151.8z M209.7,151.8
						c0-1.6-0.4-2.9-1.3-4.1c-0.5-0.6-1.2-1-2.1-1c-0.9,0-1.6,0.4-2.1,1.1c-0.8,1.1-1.3,2.4-1.3,4v3.2c0,1.6,0.4,2.9,1.3,4.1
						c0.5,0.6,1.2,1,2.1,1c0.9,0,1.6-0.4,2.1-1.1c0.8-1.1,1.3-2.4,1.3-4V151.8z"/>
				</g>
				<g id="XMLID_00000106851073894337545160000006008334947016553123_">
					<path id="XMLID_00000132067360819984694700000000923040179392756140_" class="st1" d="M160.8,202.2v3.2c0,1.9-0.5,3.7-1.6,5.4
						s-2.6,2.6-4.6,2.6c-1.2,0-2.1-0.3-2.9-0.8c-0.8-0.5-1.6-1.5-2.3-2.8c-0.7-1.4-1.1-2.8-1.1-4.4v-3.2c0-1.9,0.5-3.7,1.6-5.4
						c1.1-1.7,2.6-2.6,4.6-2.6c1.2,0,2.1,0.3,2.9,0.8c0.8,0.5,1.6,1.4,2.3,2.8C160.4,199.2,160.8,200.8,160.8,202.2z M157.9,202.2
						c0-1.6-0.4-2.9-1.3-4.1c-0.5-0.6-1.2-1-2.1-1c-0.9,0-1.6,0.4-2.1,1.1c-0.8,1.1-1.3,2.4-1.3,4v3.2c0,1.6,0.4,2.9,1.3,4.1
						c0.5,0.6,1.2,1,2.1,1c0.9,0,1.6-0.4,2.1-1.1c0.8-1.1,1.3-2.4,1.3-4V202.2z"/>
					<path id="XMLID_00000060023373195576586020000003073022403998913447_" class="st1" d="M173.3,194.3v15.8h2.9
						c0.7,0,1.2,0.1,1.5,0.4c0.3,0.3,0.4,0.6,0.4,1c0,0.4-0.1,0.8-0.4,1c-0.3,0.3-0.8,0.4-1.5,0.4h-8.7c-0.7,0-1.2-0.1-1.5-0.4
						c-0.3-0.3-0.4-0.6-0.4-1c0-0.4,0.1-0.8,0.4-1c0.3-0.3,0.8-0.4,1.5-0.4h2.9v-12l-2.6,0.7c-0.4,0.1-0.7,0.2-0.9,0.2
						c-0.4,0-0.7-0.1-0.9-0.4c-0.3-0.3-0.4-0.6-0.4-1.1c0-0.4,0.1-0.7,0.3-0.9c0.2-0.2,0.6-0.4,1.2-0.6L173.3,194.3z"/>
					<path id="XMLID_00000178169270683468197710000013196425799776487082_" class="st1" d="M190.5,194.3v15.8h2.9
						c0.7,0,1.2,0.1,1.5,0.4c0.3,0.3,0.4,0.6,0.4,1c0,0.4-0.1,0.8-0.4,1c-0.3,0.3-0.8,0.4-1.5,0.4h-8.7c-0.7,0-1.2-0.1-1.5-0.4
						c-0.3-0.3-0.4-0.6-0.4-1c0-0.4,0.1-0.8,0.4-1c0.3-0.3,0.8-0.4,1.5-0.4h2.9v-12l-2.6,0.7c-0.4,0.1-0.7,0.2-0.9,0.2
						c-0.4,0-0.7-0.1-0.9-0.4c-0.3-0.3-0.4-0.6-0.4-1.1c0-0.4,0.1-0.7,0.3-0.9c0.2-0.2,0.6-0.4,1.2-0.6L190.5,194.3z"/>
					<path id="XMLID_00000031191691565258772350000015243939200713659306_" class="st1" d="M212.6,202.2v3.2c0,1.9-0.5,3.7-1.6,5.4
						s-2.6,2.6-4.6,2.6c-1.2,0-2.1-0.3-2.9-0.8c-0.8-0.5-1.6-1.5-2.3-2.8c-0.7-1.4-1.1-2.8-1.1-4.4v-3.2c0-1.9,0.5-3.7,1.6-5.4
						c1.1-1.7,2.6-2.6,4.6-2.6c1.2,0,2.1,0.3,2.9,0.8c0.8,0.5,1.6,1.4,2.3,2.8C212.2,199.2,212.6,200.8,212.6,202.2z M209.7,202.2
						c0-1.6-0.4-2.9-1.3-4.1c-0.5-0.6-1.2-1-2.1-1c-0.9,0-1.6,0.4-2.1,1.1c-0.8,1.1-1.3,2.4-1.3,4v3.2c0,1.6,0.4,2.9,1.3,4.1
						c0.5,0.6,1.2,1,2.1,1c0.9,0,1.6-0.4,2.1-1.1c0.8-1.1,1.3-2.4,1.3-4V202.2z"/>
				</g>
				<g id="XMLID_00000122686496934141318630000005879381173884830647_">
					<path id="XMLID_00000026869806251045309780000001995667536169453458_" class="st1" d="M160.8,177.2v3.2c0,1.9-0.5,3.7-1.6,5.4
						s-2.6,2.6-4.6,2.6c-1.2,0-2.1-0.3-2.9-0.8c-0.8-0.5-1.6-1.5-2.3-2.8c-0.7-1.4-1.1-2.8-1.1-4.4v-3.2c0-1.9,0.5-3.7,1.6-5.4
						c1.1-1.7,2.6-2.6,4.6-2.6c1.2,0,2.1,0.3,2.9,0.8c0.8,0.5,1.6,1.4,2.3,2.8C160.4,174.1,160.8,175.6,160.8,177.2z M157.9,177.2
						c0-1.6-0.4-2.9-1.3-4.1c-0.5-0.6-1.2-1-2.1-1c-0.9,0-1.6,0.4-2.1,1.1c-0.8,1.1-1.3,2.4-1.3,4v3.2c0,1.6,0.4,2.9,1.3,4.1
						c0.5,0.6,1.2,1,2.1,1c0.9,0,1.6-0.4,2.1-1.1c0.8-1.1,1.3-2.4,1.3-4V177.2z"/>
					<path id="XMLID_00000060014137732381110480000009973750188718770358_" class="st1" d="M173.3,169.2V185h2.9
						c0.7,0,1.2,0.1,1.5,0.4s0.4,0.6,0.4,1s-0.1,0.8-0.4,1c-0.3,0.3-0.8,0.4-1.5,0.4h-8.7c-0.7,0-1.2-0.1-1.5-0.4s-0.4-0.6-0.4-1
						s0.1-0.8,0.4-1c0.3-0.3,0.8-0.4,1.5-0.4h2.9v-12l-2.6,0.7c-0.4,0.1-0.7,0.2-0.9,0.2c-0.4,0-0.7-0.1-0.9-0.4
						c-0.3-0.3-0.4-0.6-0.4-1.1c0-0.4,0.1-0.7,0.3-0.9c0.2-0.2,0.6-0.4,1.2-0.6L173.3,169.2z"/>
					<path id="XMLID_00000130625683903430119560000016735307058614059673_" class="st1" d="M195.3,177.2v3.2c0,1.9-0.5,3.7-1.6,5.4
						s-2.6,2.6-4.6,2.6c-1.2,0-2.1-0.3-2.9-0.8c-0.8-0.5-1.6-1.5-2.3-2.8c-0.7-1.4-1.1-2.8-1.1-4.4v-3.2c0-1.9,0.5-3.7,1.6-5.4
						c1.1-1.7,2.6-2.6,4.6-2.6c1.2,0,2.1,0.3,2.9,0.8c0.8,0.5,1.6,1.4,2.3,2.8C195,174.1,195.3,175.6,195.3,177.2z M192.4,177.2
						c0-1.6-0.4-2.9-1.3-4.1c-0.5-0.6-1.2-1-2.1-1c-0.9,0-1.6,0.4-2.1,1.1c-0.8,1.1-1.3,2.4-1.3,4v3.2c0,1.6,0.4,2.9,1.3,4.1
						c0.5,0.6,1.2,1,2.1,1c0.9,0,1.6-0.4,2.1-1.1c0.8-1.1,1.3-2.4,1.3-4V177.2z"/>
					<path id="XMLID_00000101077195548068291490000014232852150825837187_" class="st1" d="M212.6,177.2v3.2c0,1.9-0.5,3.7-1.6,5.4
						s-2.6,2.6-4.6,2.6c-1.2,0-2.1-0.3-2.9-0.8c-0.8-0.5-1.6-1.5-2.3-2.8c-0.7-1.4-1.1-2.8-1.1-4.4v-3.2c0-1.9,0.5-3.7,1.6-5.4
						c1.1-1.7,2.6-2.6,4.6-2.6c1.2,0,2.1,0.3,2.9,0.8c0.8,0.5,1.6,1.4,2.3,2.8C212.2,174.1,212.6,175.6,212.6,177.2z M209.7,177.2
						c0-1.6-0.4-2.9-1.3-4.1c-0.5-0.6-1.2-1-2.1-1c-0.9,0-1.6,0.4-2.1,1.1c-0.8,1.1-1.3,2.4-1.3,4v3.2c0,1.6,0.4,2.9,1.3,4.1
						c0.5,0.6,1.2,1,2.1,1c0.9,0,1.6-0.4,2.1-1.1c0.8-1.1,1.3-2.4,1.3-4V177.2z"/>
				</g>
			</g>
		</g>
	</g>
	<g>
		<path d="M199.3,473.4h-18.7c-2.2,0-4-1.8-4-4s1.8-4,4-4h14.5c-0.5-13.1-2-49.5-2-51.5c0-1.8-1.7-30.2-2.8-48.8
			c-0.1-2.2,1.5-4.1,3.8-4.2c2.2-0.1,4.1,1.5,4.2,3.8c0.3,4.8,2.8,46.9,2.8,49.3c0,1.7,1.3,34,2.2,55.3c0,1.1-0.4,2.1-1.1,2.9
			C201.4,472.9,200.4,473.4,199.3,473.4z"/>
	</g>
	<g>
		<path d="M249.6,473.4H232c-1.1,0-2.1-0.4-2.9-1.2s-1.2-1.8-1.1-2.9l2-52.3l3-52.3c0.1-2.2,2-3.9,4.2-3.8s3.9,2,3.8,4.2l-3,52.3
			l-1.8,48h13.5c2.2,0,4,1.8,4,4S251.8,473.4,249.6,473.4z"/>
	</g>
	<path class="st2" d="M286.3,277.5H139c-6.6,0-12-5.4-12-12v-14.3c0-6.6,5.4-12,12-12h147.3c6.6,0,12,5.4,12,12v14.3
		C298.3,272,292.9,277.5,286.3,277.5z"/>
	<g>
		<ellipse class="st3" cx="214.2" cy="367.5" rx="63" ry="27.2"/>
		<ellipse class="st4" cx="213.6" cy="132.5" rx="75.3" ry="29.9"/>
		<path class="st5" d="M138.3,132.5c0,16.5,33.7,29.9,75.3,29.9s75.3-13.4,75.3-29.9c0,0,0.4,216.6,0,221.3
			c-1.5,16.4-33.7,29.9-75.3,29.9s-75.3-13.4-75.3-29.9L138.3,132.5L138.3,132.5z"/>
		<path class="st6" d="M151.2,351.6V184.9v-35.7c2.4,1.4,5,2.7,7.9,3.9v15v190v16.3c-2.9-1.2-5.5-2.5-7.9-3.9V351.6z"/>
		<path class="st6" d="M186,337.5V167.3v-7.1c-2.7-0.4-5.4-0.9-7.9-1.5v6.4V337V380c2.6,0.5,5.2,1,7.9,1.5V337.5z"/>
		<path class="st6" d="M220.6,379.5V169.6v-7.2c-2.3,0.1-4.6,0.1-7,0.1c-0.3,0-0.6,0-0.9,0v7.1v209.9v4.3c0.3,0,0.6,0,0.9,0
			c2.4,0,4.7,0,7-0.1V379.5z"/>
		<polygon class="st6" points="241.6,381.5 241.6,160.2 249.5,158.8 249.5,380 		"/>
		<path class="st6" d="M269.4,355v18.5c2.4-1.1,6.3-3.3,7.9-4.3V355V169.8v-21.2c-2.3,1.4-5,2.7-7.9,4.1"/>
	</g>
	<path class="st2" d="M135.7,299.3v55c0,16.5,35.2,29.9,78.6,29.9s77-13.5,78.6-29.9c0.2-1.5,0.2-25.9,0.2-57.9l-0.2-37.8
		c0,16.5-35.2,29.9-78.6,29.9s-78.6-13.4-78.6-29.9L135.7,299.3L135.7,299.3z"/>
	<path id="XMLID_00000100370364804066671100000006578375793878570112_" class="st7" d="M251,233.8"/>
	<path id="XMLID_00000124132167710361242860000011526781682303256978_" class="st7" d="M263.7,251.9"/>
	<g>
		<path class="st8" d="M158.3,183.4c-0.4,0-0.8-0.1-1.2-0.2c-1.8-0.7-2.7-2.6-2.1-4.4c3-8.2,12.8-16.4,25.9-16.4c0.1,0,0.3,0,0.4,0
			c1.9,0,3.4,1.6,3.4,3.5s-1.6,3.5-3.5,3.4c-0.1,0-0.2,0-0.3,0c-11,0-17.7,7.2-19.4,11.8C161,182.6,159.7,183.4,158.3,183.4z"/>
	</g>
	<g>
		<path class="st8" d="M269.4,183.4c-1.4,0-2.7-0.9-3.3-2.3c-1.7-4.7-8.5-12-19.7-11.8c-1.9,0.1-3.5-1.5-3.5-3.4
			c0-1.9,1.5-3.5,3.4-3.5c0.1,0,0.3,0,0.4,0c13.1,0,22.9,8.2,25.9,16.4c0.7,1.8-0.3,3.8-2.1,4.4
			C270.1,183.4,269.7,183.4,269.4,183.4z"/>
	</g>
	<g>
		<path class="st9" d="M175,239.3c0,0.2,0,0.4,0,0.7c0,17.4,17.8,31.5,39.9,31.5s39.9-14.1,39.9-31.5c0-0.2,0-0.4,0-0.7H175z"/>
		<path class="st10" d="M174.9,239.1c0,0.2,0,0.6,0,0.8c0,3.8,0.8,7.4,2.4,10.8h75.1c1.5-3.4,2.4-7,2.4-10.8c0-0.2,0-0.6,0-0.8
			H174.9z"/>
		<path class="st7" d="M214.8,271.5c9.4,0,18.1-2.6,24.9-6.9c-1.4-1.4-3-2.7-4.8-3.9c-8.1-5.5-17.4-6.4-22.9-2.8
			c-7.8-2.7-15.4-1.6-18.8,3.5c-0.9,1.3-1.4,2.7-1.6,4.3C198.2,269.3,206.2,271.5,214.8,271.5z"/>
	</g>
	<circle class="st10" cx="184" cy="204.9" r="20"/>
	<path class="st9" d="M191.2,204.9c0,4-3.2,7.2-7.2,7.2s-7.2-3.2-7.2-7.2s3.2-7.2,7.2-7.2C188,197.8,191.2,200.9,191.2,204.9z"/>
	<g>
		<path class="st11" d="M140.9,287.8"/>
	</g>
	<g>
		<path class="st11" d="M140.7,378.9"/>
	</g>
	<circle class="st10" cx="241.7" cy="204.9" r="20"/>
	<path class="st9" d="M248.9,204.9c0,4-3.2,7.2-7.2,7.2s-7.2-3.2-7.2-7.2s3.2-7.2,7.2-7.2S248.9,200.9,248.9,204.9z"/>
	<g>
		<g id="mask_00000161599945077493085050000004946923271459997881_">
			<g>
				
					<linearGradient id="SVGID_1_" gradientUnits="userSpaceOnUse" x1="242.7855" y1="348.85" x2="242.7855" y2="397.65" gradientTransform="matrix(1 0 0 -1 0 578)">
					<stop  offset="0.3618" style="stop-color:#FFFFFF"/>
					<stop  offset="0.4151" style="stop-color:#F5F9FC"/>
					<stop  offset="0.5063" style="stop-color:#DAE8F4"/>
					<stop  offset="0.624" style="stop-color:#AECDE6"/>
					<stop  offset="0.7639" style="stop-color:#70A7D4"/>
					<stop  offset="0.9207" style="stop-color:#2378BD"/>
					<stop  offset="0.9878" style="stop-color:#0062B2"/>
				</linearGradient>
				<circle class="st12" cx="242.8" cy="204.8" r="24.4"/>
				
					<linearGradient id="SVGID_00000072959838678965841470000010303233523559831473_" gradientUnits="userSpaceOnUse" x1="183.5855" y1="348.85" x2="183.5855" y2="397.65" gradientTransform="matrix(1 0 0 -1 0 578)">
					<stop  offset="0.3618" style="stop-color:#FFFFFF"/>
					<stop  offset="0.4151" style="stop-color:#F5F9FC"/>
					<stop  offset="0.5063" style="stop-color:#DAE8F4"/>
					<stop  offset="0.624" style="stop-color:#AECDE6"/>
					<stop  offset="0.7639" style="stop-color:#70A7D4"/>
					<stop  offset="0.9207" style="stop-color:#2378BD"/>
					<stop  offset="0.9878" style="stop-color:#0062B2"/>
				</linearGradient>
				
					<circle style="opacity:0.2;fill:url(#SVGID_00000072959838678965841470000010303233523559831473_);enable-background:new    ;" cx="183.6" cy="204.8" r="24.4"/>
				<polygon class="st14" points="158.2,205.1 138.3,195.8 138.3,191.5 159.6,202.2 				"/>
				<polygon class="st14" points="268.1,205.1 289.1,195.8 289.1,192.2 266.7,202.2 				"/>
				<path class="st14" d="M157.6,204.9c0,14.4,11.7,26.1,26.1,26.1c12.8,0,23.6-9.2,25.7-21.8l0.1-0.8h7.5l0.1,0.8
					c2.1,12.6,12.9,21.8,25.7,21.8c14.4,0,26.1-11.7,26.1-26.1c0-14.4-11.7-26.1-26.1-26.1c-14.1,0-25.6,11.1-26,25.2v0.9h-7.1v-0.9
					c-0.5-14.1-11.9-25.2-26-25.2C169.3,178.9,157.6,190.5,157.6,204.9z M226.9,189c4.3-4.3,9.9-6.6,15.9-6.6s11.7,2.3,15.9,6.6
					c4.3,4.3,6.6,9.9,6.6,15.9s-2.3,11.7-6.6,15.9l0,0c-4.3,4.3-9.9,6.6-15.9,6.6s-11.7-2.3-15.9-6.6c-4.3-4.3-6.6-9.9-6.6-15.9
					S222.6,193.2,226.9,189z M183.6,182.4c6,0,11.7,2.3,16,6.6c4.3,4.3,6.6,9.9,6.6,15.9s-2.3,11.7-6.6,15.9l0,0
					c-4.3,4.3-9.9,6.6-16,6.6c-6,0-11.7-2.3-15.9-6.6c-4.3-4.3-6.6-9.9-6.6-15.9s2.3-11.7,6.6-15.9
					C172,184.8,177.6,182.4,183.6,182.4z"/>
				<path class="st15" d="M225.5,194c3.5-5.3,7.1-6.8,7.1-6.8l2.8,2.1c0,0-3.4,2.3-5.7,6.3c-2.3,3.8-2.6,7-2.6,7l-4.6-0.9
					C222.4,201.8,222.7,198.2,225.5,194z"/>
				<path class="st16" d="M166.3,194c3.5-5.3,7-6.8,7-6.8l2.9,2.1c0,0-3.4,2.3-5.7,6.3c-2.3,3.8-2.6,7-2.6,7l-4.6-0.9
					C163.3,201.8,163.6,198.2,166.3,194z"/>
			</g>
		</g>
	</g>
	<g>
		<g>
			<path d="M115.9,322.6c-1.5,0-3-0.9-3.7-2.4c-7.3-16.2,21.5-36.8,24.8-39.1c1.8-1.3,4.3-0.8,5.6,1c1.3,1.8,0.8,4.3-1,5.6
				c-8.7,6.1-25.6,21.3-22,29.3c0.9,2,0,4.4-2,5.3C117,322.5,116.5,322.6,115.9,322.6z"/>
		</g>
	</g>
	<g>
		<g>
			<path class="st17" d="M73.9,338C73.9,338,73.9,338,73.9,338L73.9,338C73.9,338,73.9,338,73.9,338 M73.8,337.1c0,0.1,0,0.2,0,0.4
				C73.8,337.5,73.8,337.2,73.8,337.1"/>
			<path class="st18" d="M21.7,285c-0.9-1.3-1.4-4.1,3.8-5.3C31.2,278.3,22.3,285.8,21.7,285z"/>
			<polyline class="st19" points="137.4,319.5 174,308.1 70.5,329.8 137.4,319.5 			"/>
			<path class="st18" d="M175.2,312.2l-38,10.9c-0.8,0.2-1.7-0.2-2-1.1l-0.3-1c-0.2-0.8,0.2-1.7,1.1-2l38-10.9
				c0.8-0.2,1.7,0.2,2,1.1l0.3,1C176.6,311,176.1,312,175.2,312.2z"/>
			<path class="st20" d="M135.3,322.1L135.3,322.1c0.2,0.8,1.2,1.2,2.3,0.9l37.4-10.8c1-0.3,1.6-1.2,1.4-2l0,0L135.3,322.1z"/>
			<polyline class="st21" points="138.2,315.1 138.7,316 139,316.3 174,308.1 138.2,315.1 			"/>
			<path class="st22" d="M139.7,317.3c0,0,2,3.3-2.5,5.7C133.5,325,136.8,318.1,139.7,317.3z"/>
			<path class="st18" d="M137.6,321.3L62,337.6c-1.2,0.2-2.3-0.2-3-1.2L23.7,284c-1.1-1.7-0.2-4,1.8-4.4l75.6-16.3
				c1.2-0.2,2.3,0.2,3,1.2l35.4,52.4C140.5,318.6,139.6,321,137.6,321.3"/>
			<path class="st23" d="M136.4,323.3l-75.6,16.3c-1.2,0.2-2.3-0.2-3-1.2L21.7,285c-0.8-1.2-0.1-2.8,1.3-3.1l76.8-16.6
				c1.2-0.2,2.3,0.2,3,1.2l35.4,52.4C139.3,320.6,138.4,323,136.4,323.3"/>
			<polyline class="st24" points="115.7,285.6 117.3,288 115.7,285.6 			"/>
			<path class="st25" d="M76.4,318.2"/>
			<polyline class="st26" points="101.8,330.8 101.8,330.8 101.8,330.8 101.8,330.8 101.8,330.8 			"/>
			<g>
				<polygon class="st18" points="77,298.1 76.7,302 77.9,302.2 78,300.8 81.9,305 82.1,301.1 80.9,301 80.8,302.3 				"/>
				<path class="st18" d="M83.9,297.5c-0.8-0.6-1.6-1.1-2.5-1.5s-1.9-0.6-2.8-0.7c-1-0.1-1.9,0-2.8,0.3c-0.9,0.2-1.6,0.6-2.2,1.2
					c-0.6,0.5-1,1.1-1.2,1.8c-0.2,0.7-0.3,1.5-0.2,2.2c0.1,0.8,0.4,1.6,0.9,2.4s1.1,1.5,1.9,2.1c0.8,0.6,1.6,1.1,2.5,1.5
					c0.9,0.4,1.9,0.6,2.8,0.7c1,0.1,1.9,0,2.8-0.3c0.9-0.2,1.6-0.6,2.2-1.2c0.6-0.5,1-1.1,1.2-1.8c0.2-0.7,0.3-1.5,0.2-2.2
					c-0.1-0.8-0.4-1.6-0.9-2.4C85.3,299,84.7,298.1,83.9,297.5z M82.6,306.5l-3.9-4.2v0.6l-2.7-0.6l0.3-5.8l3.9,4.2v-0.6l2.6,0.6
					L82.6,306.5z"/>
			</g>
		</g>
		<g>
			<path d="M88.2,337c-1.9,0-3.5-1.3-3.9-3.2c-0.4-2.2,1-4.3,3.2-4.7l12.8-2.5c2.2-0.4,4.3,1,4.7,3.2c0.4,2.2-1,4.3-3.2,4.7L89,337
				C88.7,337,88.4,337,88.2,337z"/>
		</g>
		<g>
			<path d="M94.9,335c-1.3,0-2.6-0.6-3.3-1.8l-2.5-3.7c-1.2-1.8-0.7-4.3,1.1-5.5c1.8-1.2,4.3-0.7,5.5,1.1l2.5,3.7
				c1.2,1.8,0.7,4.3-1.1,5.5C96.5,334.8,95.7,335,94.9,335z"/>
		</g>
		<g>
			<path d="M88.2,337c-1.3,0-2.6-0.6-3.3-1.8l-2.5-3.7c-1.2-1.8-0.7-4.3,1.1-5.5c1.8-1.2,4.3-0.7,5.5,1.1l2.5,3.7
				c1.2,1.8,0.7,4.3-1.1,5.5C89.7,336.8,88.9,337,88.2,337z"/>
		</g>
		<g>
			<path d="M101.6,334.1c-1.3,0-2.6-0.6-3.3-1.8l-2.5-3.7c-1.2-1.8-0.7-4.3,1.1-5.5c1.8-1.2,4.3-0.7,5.5,1.1l2.5,3.7
				c1.2,1.8,0.7,4.3-1.1,5.5C103.1,334,102.4,334.1,101.6,334.1z"/>
		</g>
	</g>
	<g>
		<g>
			<path d="M326.2,330.2c-7.7,0-26.3-1.3-32.7-13.7c-10.4-20.3-10.6-31.5-10.6-32c0-2.2,1.8-4,4-4l0,0c2.2,0,4,1.8,4,4
				c0,0.1,0.3,10,9.7,28.3c4.6,9,22,9.8,28.4,9.3c2.2-0.2,4.1,1.5,4.3,3.7c0.2,2.2-1.5,4.1-3.7,4.3
				C329.4,330.1,328.2,330.2,326.2,330.2z"/>
		</g>
	</g>
	<g>
		<path d="M325.6,332c-2.2,0-4-1.7-4-3.9s1.7-4,3.9-4.1l8.4-0.2c2.2-0.1,4,1.7,4.1,3.9c0.1,2.2-1.7,4-3.9,4.1L325.6,332
			C325.7,332,325.6,332,325.6,332z"/>
	</g>
	<g>
		<path d="M325.8,326c-2.2,0-4-1.7-4-3.9s1.7-4,3.9-4.1l8.4-0.2c2.2-0.1,4,1.7,4.1,3.9c0,2.2-1.7,4-3.9,4.1L325.8,326
			C325.9,326,325.9,326,325.8,326z"/>
	</g>
	<g>
		<path d="M324.5,335.5h-0.1c-2.2-0.1-3.9-1.9-3.9-4.1l0.6-19.7c0.1-2.2,1.9-3.9,4.1-3.9c2.2,0.1,3.9,1.9,3.9,4.1l-0.6,19.7
			C328.4,333.8,326.6,335.5,324.5,335.5z"/>
	</g>
	<g>
		<path d="M325.6,335.6c-2.2,0-4-1.7-4-3.9s1.7-4,3.9-4.1l8.4-0.2c2.2-0.1,4,1.7,4.1,3.9c0.1,2.2-1.7,4-3.9,4.1L325.6,335.6
			C325.7,335.6,325.6,335.6,325.6,335.6z"/>
	</g>
	
		<radialGradient id="SVGID_00000127735753398387678820000001383800656751418815_" cx="-267.5645" cy="536.8388" r="39.3687" gradientTransform="matrix(1.028679e-13 -1 -1.8566 -1.909891e-13 1210.8306 -107.8957)" gradientUnits="userSpaceOnUse">
		<stop  offset="0" style="stop-color:#FF8C1F"/>
		<stop  offset="1" style="stop-color:#FEAF06"/>
	</radialGradient>
	<path style="fill:url(#SVGID_00000127735753398387678820000001383800656751418815_);" d="M268.5,152.9
		c-1.8-37.4-105.4-36-108.7,0.5C187.1,165.6,241.5,165.2,268.5,152.9z"/>
</g>
<g>
	<path class="st28" d="M187.8,306.2h49.6c3.3,0,6,2.7,6,6v49.6c0,3.3-2.7,6-6,6h-49.6c-3.3,0-6-2.7-6-6v-49.6
		C181.8,309,184.5,306.2,187.8,306.2z"/>
</g>
<path d="M221.7,353.2c1.2,2,2.8,3.4,5.6,3.4c2.3,0,3.8-1.2,3.8-2.8c0-1.9-1.5-2.6-4.1-3.8l-1.4-0.6c-4.1-1.7-6.8-3.9-6.8-8.5
	c0-4.2,3.2-7.5,8.3-7.5c3.6,0,6.2,1.3,8,4.5l-4.4,2.8c-1-1.7-2-2.4-3.6-2.4c-1.7,0-2.7,1-2.7,2.4c0,1.7,1,2.4,3.5,3.4l1.4,0.6
	c4.8,2.1,7.5,4.2,7.5,8.9c0,5.1-4,7.9-9.4,7.9c-5.2,0-8.6-2.5-10.3-5.8L221.7,353.2z M201.8,353.8c0.9,1.6,1.7,2.9,3.6,2.9
	c1.9,0,3-0.7,3-3.6v-19.2h5.7v19.3c0,5.9-3.4,8.5-8.4,8.5c-4.5,0-7.1-2.3-8.5-5.2L201.8,353.8z"/>
</svg>
