<svg id="Layer_1" data-name="Layer 1" xmlns="http://www.w3.org/2000/svg" xmlns:xlink="http://www.w3.org/1999/xlink" viewBox="0 0 432 576"><defs><style>.cls-1{opacity:0.05;}.cls-2{fill:#040d21;}.cls-3{fill:none;stroke:#000;stroke-linecap:round;stroke-linejoin:round;stroke-width:8px;}.cls-4{fill:#ff491f;}.cls-5{fill:#2d313f;}.cls-6{fill:#feaf06;}.cls-7{fill:#fbd82b;}.cls-8{fill:#ffe278;}.cls-9{fill:#b57817;}.cls-10{fill:#701d1d;}.cls-11,.cls-16,.cls-17{fill:#fff;}.cls-12{fill:#f70000;}.cls-13,.cls-14{opacity:0.2;}.cls-13{fill:url(#linear-gradient);}.cls-14{fill:url(#linear-gradient-2);}.cls-15{fill:#0062b2;}.cls-16{opacity:0.6;}.cls-17{opacity:0.7;}.cls-18{fill:#f2f2f2;}.cls-19{fill:#c9c9c9;}.cls-20{fill:#677077;}.cls-21{fill:#b8b8b8;}.cls-22{fill:#858d92;}.cls-23{fill:#ccc;}.cls-24{fill:#ededed;}.cls-25{fill:#d9d9d9;}.cls-26{fill:#b4b4b4;}.cls-27{fill:url(#radial-gradient);}</style><linearGradient id="linear-gradient" x1="242.22" y1="242" x2="242.22" y2="193.17" gradientTransform="translate(37.98 -35.99) rotate(9.22)" gradientUnits="userSpaceOnUse"><stop offset="0.36" stop-color="#fff"/><stop offset="0.42" stop-color="#f5f9fc"/><stop offset="0.51" stop-color="#dae8f4"/><stop offset="0.62" stop-color="#aecde6"/><stop offset="0.76" stop-color="#70a7d4"/><stop offset="0.92" stop-color="#2378bd"/><stop offset="0.99" stop-color="#0062b2"/></linearGradient><linearGradient id="linear-gradient-2" x1="183.08" y1="242" x2="183.08" y2="193.17" gradientTransform="translate(349.14 -13.25) rotate(75.81)" xlink:href="#linear-gradient"/><radialGradient id="radial-gradient" cx="213.75" cy="172.4" r="39.53" gradientTransform="translate(-106.33 386.15) rotate(-90) scale(1 1.86)" gradientUnits="userSpaceOnUse"><stop offset="0" stop-color="#ff8c1f"/><stop offset="1" stop-color="#feaf06"/></radialGradient></defs><g class="cls-1"><path class="cls-2" d="M225.77,233v15.77h2.91a2.17,2.17,0,0,1,1.48.4,1.31,1.31,0,0,1,.45,1,1.34,1.34,0,0,1-.45,1,2.22,2.22,0,0,1-1.48.4H220a2.22,2.22,0,0,1-1.48-.4,1.37,1.37,0,0,1-.44-1.05,1.33,1.33,0,0,1,.44-1,2.17,2.17,0,0,1,1.48-.4h2.91v-12l-2.57.68a3.88,3.88,0,0,1-.93.16,1.26,1.26,0,0,1-.95-.43,1.56,1.56,0,0,1-.4-1.07,1.31,1.31,0,0,1,.3-.91,2.63,2.63,0,0,1,1.23-.58Z"/><path class="cls-2" d="M247.86,240.92v3.16a10,10,0,0,1-1.62,5.39,5.19,5.19,0,0,1-4.65,2.57,5.36,5.36,0,0,1-2.94-.77,7.27,7.27,0,0,1-2.28-2.82,9.38,9.38,0,0,1-1.07-4.37v-3.16a10,10,0,0,1,1.62-5.37,5.15,5.15,0,0,1,4.63-2.58,5.35,5.35,0,0,1,2.93.76,7.13,7.13,0,0,1,2.29,2.82A9.16,9.16,0,0,1,247.86,240.92Zm-2.89,0a6.69,6.69,0,0,0-1.31-4.1,2.48,2.48,0,0,0-2.09-1,2.6,2.6,0,0,0-2.14,1.07,6.37,6.37,0,0,0-1.25,4v3.16a6.61,6.61,0,0,0,1.32,4.11,2.49,2.49,0,0,0,2.09,1,2.59,2.59,0,0,0,2.13-1.07,6.38,6.38,0,0,0,1.25-4Z"/><path class="cls-2" d="M260.31,233v15.77h2.91a2.17,2.17,0,0,1,1.48.4,1.31,1.31,0,0,1,.45,1,1.34,1.34,0,0,1-.45,1,2.22,2.22,0,0,1-1.48.4h-8.7a2.22,2.22,0,0,1-1.48-.4,1.37,1.37,0,0,1-.44-1.05,1.33,1.33,0,0,1,.44-1,2.17,2.17,0,0,1,1.48-.4h2.91v-12l-2.57.68a3.88,3.88,0,0,1-.93.16,1.26,1.26,0,0,1-1-.43,1.56,1.56,0,0,1-.4-1.07,1.31,1.31,0,0,1,.3-.91,2.63,2.63,0,0,1,1.23-.58Z"/><path class="cls-2" d="M282.4,240.92v3.16a10,10,0,0,1-1.62,5.39,5.19,5.19,0,0,1-4.65,2.57,5.36,5.36,0,0,1-2.94-.77,7.27,7.27,0,0,1-2.28-2.82,9.38,9.38,0,0,1-1.07-4.37v-3.16a10,10,0,0,1,1.61-5.37,5.17,5.17,0,0,1,4.64-2.58,5.35,5.35,0,0,1,2.93.76,7.13,7.13,0,0,1,2.29,2.82A9.16,9.16,0,0,1,282.4,240.92Zm-2.89,0a6.69,6.69,0,0,0-1.31-4.1,2.49,2.49,0,0,0-2.09-1,2.58,2.58,0,0,0-2.14,1.07,6.37,6.37,0,0,0-1.25,4v3.16a6.61,6.61,0,0,0,1.32,4.11,2.48,2.48,0,0,0,2.09,1,2.59,2.59,0,0,0,2.13-1.07,6.38,6.38,0,0,0,1.25-4Z"/><path class="cls-2" d="M230.59,291.32v3.16a9.94,9.94,0,0,1-1.62,5.38,5.19,5.19,0,0,1-4.65,2.57,5.36,5.36,0,0,1-2.94-.76,7.31,7.31,0,0,1-2.28-2.83,9.37,9.37,0,0,1-1.07-4.36v-3.16a10,10,0,0,1,1.62-5.38,5.15,5.15,0,0,1,4.63-2.58,5.43,5.43,0,0,1,2.93.76,7.28,7.28,0,0,1,2.29,2.82A9.17,9.17,0,0,1,230.59,291.32Zm-2.89,0a6.7,6.7,0,0,0-1.31-4.11,2.5,2.5,0,0,0-2.09-1,2.6,2.6,0,0,0-2.14,1.07,6.38,6.38,0,0,0-1.25,4v3.16a6.6,6.6,0,0,0,1.32,4.1,2.46,2.46,0,0,0,2.09,1,2.59,2.59,0,0,0,2.13-1.07,6.35,6.35,0,0,0,1.25-4Z"/><path class="cls-2" d="M243,283.36v15.77H246a2.17,2.17,0,0,1,1.48.4,1.35,1.35,0,0,1,.45,1.05,1.32,1.32,0,0,1-.45,1,2.17,2.17,0,0,1-1.48.4h-8.7a2.17,2.17,0,0,1-1.48-.4,1.37,1.37,0,0,1-.44-1.05,1.34,1.34,0,0,1,.44-1,2.17,2.17,0,0,1,1.48-.4h2.91v-12l-2.57.68a4,4,0,0,1-.93.17,1.27,1.27,0,0,1-.95-.44,1.54,1.54,0,0,1-.4-1.07,1.29,1.29,0,0,1,.3-.9,2.62,2.62,0,0,1,1.23-.59Z"/><path class="cls-2" d="M260.31,283.36v15.77h2.91a2.17,2.17,0,0,1,1.48.4,1.35,1.35,0,0,1,.45,1.05,1.32,1.32,0,0,1-.45,1,2.17,2.17,0,0,1-1.48.4h-8.7a2.17,2.17,0,0,1-1.48-.4,1.37,1.37,0,0,1-.44-1.05,1.34,1.34,0,0,1,.44-1,2.17,2.17,0,0,1,1.48-.4h2.91v-12l-2.57.68a4,4,0,0,1-.93.17,1.27,1.27,0,0,1-1-.44,1.54,1.54,0,0,1-.4-1.07,1.29,1.29,0,0,1,.3-.9,2.62,2.62,0,0,1,1.23-.59Z"/><path class="cls-2" d="M282.4,291.32v3.16a9.94,9.94,0,0,1-1.62,5.38,5.19,5.19,0,0,1-4.65,2.57,5.36,5.36,0,0,1-2.94-.76,7.31,7.31,0,0,1-2.28-2.83,9.37,9.37,0,0,1-1.07-4.36v-3.16a10,10,0,0,1,1.61-5.38,5.17,5.17,0,0,1,4.64-2.58,5.43,5.43,0,0,1,2.93.76,7.28,7.28,0,0,1,2.29,2.82A9.17,9.17,0,0,1,282.4,291.32Zm-2.89,0a6.7,6.7,0,0,0-1.31-4.11,2.51,2.51,0,0,0-2.09-1,2.58,2.58,0,0,0-2.14,1.07,6.38,6.38,0,0,0-1.25,4v3.16a6.6,6.6,0,0,0,1.32,4.1,2.45,2.45,0,0,0,2.09,1,2.59,2.59,0,0,0,2.13-1.07,6.35,6.35,0,0,0,1.25-4Z"/><path class="cls-2" d="M230.59,266.26v3.16A9.94,9.94,0,0,1,229,274.8a5.19,5.19,0,0,1-4.65,2.57,5.36,5.36,0,0,1-2.94-.76,7.31,7.31,0,0,1-2.28-2.83,9.37,9.37,0,0,1-1.07-4.36v-3.16a10,10,0,0,1,1.62-5.38,5.15,5.15,0,0,1,4.63-2.58,5.43,5.43,0,0,1,2.93.76,7.28,7.28,0,0,1,2.29,2.82A9.17,9.17,0,0,1,230.59,266.26Zm-2.89,0a6.7,6.7,0,0,0-1.31-4.11,2.5,2.5,0,0,0-2.09-1,2.6,2.6,0,0,0-2.14,1.07,6.38,6.38,0,0,0-1.25,4v3.16a6.6,6.6,0,0,0,1.32,4.1,2.46,2.46,0,0,0,2.09,1,2.57,2.57,0,0,0,2.13-1.07,6.35,6.35,0,0,0,1.25-4Z"/><path class="cls-2" d="M243,258.3v15.77H246a2.17,2.17,0,0,1,1.48.4,1.35,1.35,0,0,1,.45,1,1.32,1.32,0,0,1-.45,1,2.17,2.17,0,0,1-1.48.4h-8.7a2.17,2.17,0,0,1-1.48-.4,1.37,1.37,0,0,1-.44-1.05,1.34,1.34,0,0,1,.44-1,2.17,2.17,0,0,1,1.48-.4h2.91v-12l-2.57.67a4,4,0,0,1-.93.17,1.27,1.27,0,0,1-.95-.44,1.54,1.54,0,0,1-.4-1.07,1.29,1.29,0,0,1,.3-.9,2.62,2.62,0,0,1,1.23-.59Z"/><path class="cls-2" d="M265.13,266.26v3.16a9.94,9.94,0,0,1-1.62,5.38,5.18,5.18,0,0,1-4.64,2.57,5.37,5.37,0,0,1-3-.76,7.31,7.31,0,0,1-2.28-2.83,9.37,9.37,0,0,1-1.07-4.36v-3.16a10,10,0,0,1,1.62-5.38,5.15,5.15,0,0,1,4.63-2.58,5.43,5.43,0,0,1,2.93.76,7.28,7.28,0,0,1,2.29,2.82A9.17,9.17,0,0,1,265.13,266.26Zm-2.89,0a6.7,6.7,0,0,0-1.31-4.11,2.5,2.5,0,0,0-2.09-1,2.6,2.6,0,0,0-2.14,1.07,6.38,6.38,0,0,0-1.25,4v3.16a6.6,6.6,0,0,0,1.32,4.1,2.47,2.47,0,0,0,2.1,1,2.56,2.56,0,0,0,2.12-1.07,6.35,6.35,0,0,0,1.25-4Z"/><path class="cls-2" d="M282.4,266.26v3.16a9.94,9.94,0,0,1-1.62,5.38,5.19,5.19,0,0,1-4.65,2.57,5.36,5.36,0,0,1-2.94-.76,7.31,7.31,0,0,1-2.28-2.83,9.37,9.37,0,0,1-1.07-4.36v-3.16a10,10,0,0,1,1.61-5.38,5.17,5.17,0,0,1,4.64-2.58,5.43,5.43,0,0,1,2.93.76,7.28,7.28,0,0,1,2.29,2.82A9.17,9.17,0,0,1,282.4,266.26Zm-2.89,0a6.7,6.7,0,0,0-1.31-4.11,2.51,2.51,0,0,0-2.09-1,2.58,2.58,0,0,0-2.14,1.07,6.38,6.38,0,0,0-1.25,4v3.16a6.6,6.6,0,0,0,1.32,4.1,2.45,2.45,0,0,0,2.09,1,2.57,2.57,0,0,0,2.13-1.07,6.35,6.35,0,0,0,1.25-4Z"/><path class="cls-2" d="M296.19,233v15.77h2.91a2.18,2.18,0,0,1,1.48.4,1.34,1.34,0,0,1,.44,1,1.37,1.37,0,0,1-.44,1,2.24,2.24,0,0,1-1.48.4h-8.7a2.2,2.2,0,0,1-1.48-.4,1.35,1.35,0,0,1-.45-1.05,1.31,1.31,0,0,1,.45-1,2.15,2.15,0,0,1,1.48-.4h2.91v-12l-2.58.68a3.9,3.9,0,0,1-.92.16,1.24,1.24,0,0,1-.95-.43,1.51,1.51,0,0,1-.4-1.07,1.36,1.36,0,0,1,.29-.91,2.68,2.68,0,0,1,1.24-.58Z"/><path class="cls-2" d="M318.28,240.92v3.16a9.9,9.9,0,0,1-1.63,5.39A5.18,5.18,0,0,1,312,252a5.36,5.36,0,0,1-2.94-.77,7.18,7.18,0,0,1-2.28-2.82,9.27,9.27,0,0,1-1.08-4.37v-3.16a10,10,0,0,1,1.62-5.37A5.16,5.16,0,0,1,312,233a5.35,5.35,0,0,1,2.93.76,7.21,7.21,0,0,1,2.29,2.82A9.28,9.28,0,0,1,318.28,240.92Zm-2.9,0a6.63,6.63,0,0,0-1.31-4.1,2.46,2.46,0,0,0-2.09-1,2.58,2.58,0,0,0-2.13,1.07,6.31,6.31,0,0,0-1.26,4v3.16a6.55,6.55,0,0,0,1.33,4.11,2.46,2.46,0,0,0,2.09,1,2.57,2.57,0,0,0,2.12-1.07,6.32,6.32,0,0,0,1.25-4Z"/><path class="cls-2" d="M330.73,233v15.77h2.91a2.18,2.18,0,0,1,1.48.4,1.34,1.34,0,0,1,.44,1,1.37,1.37,0,0,1-.44,1,2.24,2.24,0,0,1-1.48.4h-8.7a2.2,2.2,0,0,1-1.48-.4,1.35,1.35,0,0,1-.45-1.05,1.31,1.31,0,0,1,.45-1,2.15,2.15,0,0,1,1.48-.4h2.91v-12l-2.58.68a3.9,3.9,0,0,1-.92.16,1.24,1.24,0,0,1-1-.43,1.51,1.51,0,0,1-.4-1.07,1.36,1.36,0,0,1,.29-.91,2.68,2.68,0,0,1,1.24-.58Z"/><path class="cls-2" d="M352.82,240.92v3.16a9.9,9.9,0,0,1-1.63,5.39,5.18,5.18,0,0,1-4.64,2.57,5.42,5.42,0,0,1-2.95-.77,7.17,7.17,0,0,1-2.27-2.82,9.27,9.27,0,0,1-1.08-4.37v-3.16a10,10,0,0,1,1.62-5.37,5.16,5.16,0,0,1,4.64-2.58,5.35,5.35,0,0,1,2.93.76,7.21,7.21,0,0,1,2.29,2.82A9.28,9.28,0,0,1,352.82,240.92Zm-2.9,0a6.63,6.63,0,0,0-1.31-4.1,2.46,2.46,0,0,0-2.09-1,2.61,2.61,0,0,0-2.14,1.07,6.37,6.37,0,0,0-1.25,4v3.16a6.55,6.55,0,0,0,1.33,4.11,2.46,2.46,0,0,0,2.09,1,2.57,2.57,0,0,0,2.12-1.07,6.38,6.38,0,0,0,1.25-4Z"/><path class="cls-2" d="M301,291.32v3.16a9.87,9.87,0,0,1-1.63,5.38,5.18,5.18,0,0,1-4.64,2.57,5.36,5.36,0,0,1-2.94-.76,7.22,7.22,0,0,1-2.28-2.83,9.26,9.26,0,0,1-1.08-4.36v-3.16a10,10,0,0,1,1.62-5.38,5.16,5.16,0,0,1,4.64-2.58,5.43,5.43,0,0,1,2.93.76,7.37,7.37,0,0,1,2.29,2.82A9.29,9.29,0,0,1,301,291.32Zm-2.9,0a6.64,6.64,0,0,0-1.31-4.11,2.49,2.49,0,0,0-2.09-1,2.58,2.58,0,0,0-2.13,1.07,6.32,6.32,0,0,0-1.26,4v3.16a6.54,6.54,0,0,0,1.33,4.1,2.44,2.44,0,0,0,2.09,1,2.57,2.57,0,0,0,2.12-1.07,6.35,6.35,0,0,0,1.25-4Z"/><path class="cls-2" d="M313.46,283.36v15.77h2.91a2.18,2.18,0,0,1,1.48.4,1.37,1.37,0,0,1,.44,1.05,1.34,1.34,0,0,1-.44,1,2.18,2.18,0,0,1-1.48.4h-8.7a2.15,2.15,0,0,1-1.48-.4,1.35,1.35,0,0,1-.45-1.05,1.32,1.32,0,0,1,.45-1,2.15,2.15,0,0,1,1.48-.4h2.91v-12l-2.58.68a4,4,0,0,1-.92.17,1.25,1.25,0,0,1-.95-.44,1.5,1.5,0,0,1-.4-1.07,1.33,1.33,0,0,1,.29-.9,2.67,2.67,0,0,1,1.24-.59Z"/><path class="cls-2" d="M330.73,283.36v15.77h2.91a2.18,2.18,0,0,1,1.48.4,1.37,1.37,0,0,1,.44,1.05,1.34,1.34,0,0,1-.44,1,2.18,2.18,0,0,1-1.48.4h-8.7a2.15,2.15,0,0,1-1.48-.4,1.35,1.35,0,0,1-.45-1.05,1.32,1.32,0,0,1,.45-1,2.15,2.15,0,0,1,1.48-.4h2.91v-12l-2.58.68a4,4,0,0,1-.92.17,1.25,1.25,0,0,1-1-.44,1.5,1.5,0,0,1-.4-1.07,1.33,1.33,0,0,1,.29-.9,2.67,2.67,0,0,1,1.24-.59Z"/><path class="cls-2" d="M352.82,291.32v3.16a9.87,9.87,0,0,1-1.63,5.38,5.18,5.18,0,0,1-4.64,2.57,5.42,5.42,0,0,1-2.95-.76,7.21,7.21,0,0,1-2.27-2.83,9.26,9.26,0,0,1-1.08-4.36v-3.16a10,10,0,0,1,1.62-5.38,5.16,5.16,0,0,1,4.64-2.58,5.43,5.43,0,0,1,2.93.76,7.37,7.37,0,0,1,2.29,2.82A9.29,9.29,0,0,1,352.82,291.32Zm-2.9,0a6.64,6.64,0,0,0-1.31-4.11,2.49,2.49,0,0,0-2.09-1,2.61,2.61,0,0,0-2.14,1.07,6.38,6.38,0,0,0-1.25,4v3.16a6.54,6.54,0,0,0,1.33,4.1,2.44,2.44,0,0,0,2.09,1,2.57,2.57,0,0,0,2.12-1.07,6.35,6.35,0,0,0,1.25-4Z"/><path class="cls-2" d="M301,266.26v3.16a9.87,9.87,0,0,1-1.63,5.38,5.18,5.18,0,0,1-4.64,2.57,5.36,5.36,0,0,1-2.94-.76,7.22,7.22,0,0,1-2.28-2.83,9.26,9.26,0,0,1-1.08-4.36v-3.16a10,10,0,0,1,1.62-5.38,5.16,5.16,0,0,1,4.64-2.58,5.43,5.43,0,0,1,2.93.76,7.37,7.37,0,0,1,2.29,2.82A9.29,9.29,0,0,1,301,266.26Zm-2.9,0a6.64,6.64,0,0,0-1.31-4.11,2.49,2.49,0,0,0-2.09-1,2.58,2.58,0,0,0-2.13,1.07,6.32,6.32,0,0,0-1.26,4v3.16a6.54,6.54,0,0,0,1.33,4.1,2.44,2.44,0,0,0,2.09,1,2.55,2.55,0,0,0,2.12-1.07,6.35,6.35,0,0,0,1.25-4Z"/><path class="cls-2" d="M313.46,258.3v15.77h2.91a2.18,2.18,0,0,1,1.48.4,1.37,1.37,0,0,1,.44,1,1.34,1.34,0,0,1-.44,1,2.18,2.18,0,0,1-1.48.4h-8.7a2.15,2.15,0,0,1-1.48-.4,1.35,1.35,0,0,1-.45-1.05,1.32,1.32,0,0,1,.45-1,2.15,2.15,0,0,1,1.48-.4h2.91v-12l-2.58.67a4,4,0,0,1-.92.17,1.25,1.25,0,0,1-.95-.44,1.5,1.5,0,0,1-.4-1.07,1.33,1.33,0,0,1,.29-.9,2.67,2.67,0,0,1,1.24-.59Z"/><path class="cls-2" d="M335.55,266.26v3.16a9.87,9.87,0,0,1-1.63,5.38,5.18,5.18,0,0,1-4.64,2.57,5.36,5.36,0,0,1-2.94-.76,7.22,7.22,0,0,1-2.28-2.83,9.26,9.26,0,0,1-1.08-4.36v-3.16a10,10,0,0,1,1.62-5.38,5.16,5.16,0,0,1,4.64-2.58,5.43,5.43,0,0,1,2.93.76,7.37,7.37,0,0,1,2.29,2.82A9.29,9.29,0,0,1,335.55,266.26Zm-2.9,0a6.64,6.64,0,0,0-1.31-4.11,2.49,2.49,0,0,0-2.09-1,2.58,2.58,0,0,0-2.13,1.07,6.32,6.32,0,0,0-1.26,4v3.16a6.54,6.54,0,0,0,1.33,4.1,2.44,2.44,0,0,0,2.09,1,2.55,2.55,0,0,0,2.12-1.07,6.29,6.29,0,0,0,1.25-4Z"/><path class="cls-2" d="M352.82,266.26v3.16a9.87,9.87,0,0,1-1.63,5.38,5.18,5.18,0,0,1-4.64,2.57,5.42,5.42,0,0,1-2.95-.76,7.21,7.21,0,0,1-2.27-2.83,9.26,9.26,0,0,1-1.08-4.36v-3.16a10,10,0,0,1,1.62-5.38,5.16,5.16,0,0,1,4.64-2.58,5.43,5.43,0,0,1,2.93.76,7.37,7.37,0,0,1,2.29,2.82A9.29,9.29,0,0,1,352.82,266.26Zm-2.9,0a6.64,6.64,0,0,0-1.31-4.11,2.49,2.49,0,0,0-2.09-1,2.61,2.61,0,0,0-2.14,1.07,6.38,6.38,0,0,0-1.25,4v3.16a6.54,6.54,0,0,0,1.33,4.1,2.44,2.44,0,0,0,2.09,1,2.55,2.55,0,0,0,2.12-1.07,6.35,6.35,0,0,0,1.25-4Z"/><path class="cls-2" d="M225.79,156.76v15.77h2.9a2.2,2.2,0,0,1,1.49.4,1.34,1.34,0,0,1,.44,1,1.35,1.35,0,0,1-.44,1,2.25,2.25,0,0,1-1.49.4H220a2.25,2.25,0,0,1-1.49-.4,1.37,1.37,0,0,1-.44-1,1.33,1.33,0,0,1,.44-1,2.2,2.2,0,0,1,1.49-.4h2.91v-12l-2.58.68a4,4,0,0,1-.92.17,1.25,1.25,0,0,1-.95-.44,1.51,1.51,0,0,1-.4-1.07,1.33,1.33,0,0,1,.29-.9,2.67,2.67,0,0,1,1.24-.59Z"/><path class="cls-2" d="M247.88,164.71v3.17a10,10,0,0,1-1.63,5.38,5.18,5.18,0,0,1-4.64,2.57,5.42,5.42,0,0,1-3-.77,7.17,7.17,0,0,1-2.27-2.82,9.26,9.26,0,0,1-1.08-4.36v-3.17a10,10,0,0,1,1.62-5.37,5.16,5.16,0,0,1,4.64-2.58,5.35,5.35,0,0,1,2.93.76,7.29,7.29,0,0,1,2.29,2.82A9.28,9.28,0,0,1,247.88,164.71Zm-2.9,0a6.63,6.63,0,0,0-1.31-4.1,2.49,2.49,0,0,0-2.09-1,2.61,2.61,0,0,0-2.14,1.07,6.37,6.37,0,0,0-1.25,4v3.17a6.54,6.54,0,0,0,1.33,4.1,2.44,2.44,0,0,0,2.09,1,2.57,2.57,0,0,0,2.12-1.07,6.37,6.37,0,0,0,1.25-4Z"/><path class="cls-2" d="M260.33,156.76v15.77h2.9a2.2,2.2,0,0,1,1.49.4,1.34,1.34,0,0,1,.44,1,1.35,1.35,0,0,1-.44,1,2.25,2.25,0,0,1-1.49.4h-8.69a2.25,2.25,0,0,1-1.49-.4,1.37,1.37,0,0,1-.44-1,1.33,1.33,0,0,1,.44-1,2.2,2.2,0,0,1,1.49-.4h2.91v-12l-2.58.68a4,4,0,0,1-.92.17,1.25,1.25,0,0,1-.95-.44,1.51,1.51,0,0,1-.4-1.07,1.33,1.33,0,0,1,.29-.9,2.67,2.67,0,0,1,1.24-.59Z"/><path class="cls-2" d="M282.41,164.71v3.17a10,10,0,0,1-1.62,5.38,5.18,5.18,0,0,1-4.64,2.57,5.4,5.4,0,0,1-2.95-.77,7.17,7.17,0,0,1-2.27-2.82,9.26,9.26,0,0,1-1.08-4.36v-3.17a10,10,0,0,1,1.62-5.37,5.16,5.16,0,0,1,4.64-2.58,5.37,5.37,0,0,1,2.93.76,7.29,7.29,0,0,1,2.29,2.82A9.27,9.27,0,0,1,282.41,164.71Zm-2.89,0a6.69,6.69,0,0,0-1.31-4.1,2.49,2.49,0,0,0-2.09-1,2.61,2.61,0,0,0-2.14,1.07,6.37,6.37,0,0,0-1.25,4v3.17a6.6,6.6,0,0,0,1.32,4.1,2.47,2.47,0,0,0,2.1,1,2.57,2.57,0,0,0,2.12-1.07,6.37,6.37,0,0,0,1.25-4Z"/><path class="cls-2" d="M230.61,215.11v3.16a10,10,0,0,1-1.63,5.38,5.16,5.16,0,0,1-4.64,2.57,5.42,5.42,0,0,1-3-.76,7.14,7.14,0,0,1-2.27-2.83,9.23,9.23,0,0,1-1.08-4.36v-3.16a10,10,0,0,1,1.62-5.38,5.16,5.16,0,0,1,4.64-2.58,5.43,5.43,0,0,1,2.93.76,7.37,7.37,0,0,1,2.29,2.82A9.29,9.29,0,0,1,230.61,215.11Zm-2.9,0a6.61,6.61,0,0,0-1.31-4.1,2.46,2.46,0,0,0-2.09-1,2.6,2.6,0,0,0-2.14,1.06,6.39,6.39,0,0,0-1.25,4v3.16a6.54,6.54,0,0,0,1.33,4.1,2.44,2.44,0,0,0,2.09,1,2.55,2.55,0,0,0,2.12-1.07,6.35,6.35,0,0,0,1.25-4Z"/><path class="cls-2" d="M243.06,207.15v15.77H246a2.2,2.2,0,0,1,1.49.4,1.37,1.37,0,0,1,.44,1.05,1.34,1.34,0,0,1-.44,1,2.2,2.2,0,0,1-1.49.4h-8.69a2.2,2.2,0,0,1-1.49-.4,1.45,1.45,0,0,1,0-2.08,2.2,2.2,0,0,1,1.49-.4h2.91v-12l-2.58.67a4,4,0,0,1-.92.17,1.25,1.25,0,0,1-1-.44,1.49,1.49,0,0,1-.4-1.06,1.34,1.34,0,0,1,.29-.91,2.68,2.68,0,0,1,1.24-.58Z"/><path class="cls-2" d="M260.33,207.15v15.77h2.9a2.2,2.2,0,0,1,1.49.4,1.37,1.37,0,0,1,.44,1.05,1.34,1.34,0,0,1-.44,1,2.2,2.2,0,0,1-1.49.4h-8.69a2.2,2.2,0,0,1-1.49-.4,1.45,1.45,0,0,1,0-2.08,2.2,2.2,0,0,1,1.49-.4h2.91v-12l-2.58.67a4,4,0,0,1-.92.17,1.25,1.25,0,0,1-.95-.44,1.49,1.49,0,0,1-.4-1.06,1.34,1.34,0,0,1,.29-.91,2.68,2.68,0,0,1,1.24-.58Z"/><path class="cls-2" d="M282.41,215.11v3.16a9.94,9.94,0,0,1-1.62,5.38,5.16,5.16,0,0,1-4.64,2.57,5.39,5.39,0,0,1-2.95-.76,7.14,7.14,0,0,1-2.27-2.83,9.23,9.23,0,0,1-1.08-4.36v-3.16a10,10,0,0,1,1.62-5.38,5.16,5.16,0,0,1,4.64-2.58,5.46,5.46,0,0,1,2.93.76,7.37,7.37,0,0,1,2.29,2.82A9.28,9.28,0,0,1,282.41,215.11Zm-2.89,0a6.67,6.67,0,0,0-1.31-4.1,2.46,2.46,0,0,0-2.09-1A2.6,2.6,0,0,0,274,211.1a6.39,6.39,0,0,0-1.25,4v3.16a6.6,6.6,0,0,0,1.32,4.1,2.47,2.47,0,0,0,2.1,1,2.55,2.55,0,0,0,2.12-1.07,6.35,6.35,0,0,0,1.25-4Z"/><path class="cls-2" d="M230.61,190.05v3.16a10,10,0,0,1-1.63,5.38,5.16,5.16,0,0,1-4.64,2.57,5.42,5.42,0,0,1-3-.76,7.14,7.14,0,0,1-2.27-2.83,9.23,9.23,0,0,1-1.08-4.36v-3.16a10,10,0,0,1,1.62-5.38,5.16,5.16,0,0,1,4.64-2.58,5.43,5.43,0,0,1,2.93.76,7.37,7.37,0,0,1,2.29,2.82A9.29,9.29,0,0,1,230.61,190.05Zm-2.9,0a6.61,6.61,0,0,0-1.31-4.1,2.46,2.46,0,0,0-2.09-1,2.6,2.6,0,0,0-2.14,1.06,6.39,6.39,0,0,0-1.25,4v3.16a6.54,6.54,0,0,0,1.33,4.1,2.44,2.44,0,0,0,2.09,1,2.55,2.55,0,0,0,2.12-1.07,6.35,6.35,0,0,0,1.25-4Z"/><path class="cls-2" d="M243.06,182.09v15.77H246a2.2,2.2,0,0,1,1.49.4,1.37,1.37,0,0,1,.44,1.05,1.34,1.34,0,0,1-.44,1,2.2,2.2,0,0,1-1.49.4h-8.69a2.2,2.2,0,0,1-1.49-.4,1.45,1.45,0,0,1,0-2.08,2.2,2.2,0,0,1,1.49-.4h2.91v-12l-2.58.67a4,4,0,0,1-.92.17,1.25,1.25,0,0,1-1-.44,1.49,1.49,0,0,1-.4-1.06,1.34,1.34,0,0,1,.29-.91,2.68,2.68,0,0,1,1.24-.58Z"/><path class="cls-2" d="M265.15,190.05v3.16a10,10,0,0,1-1.63,5.38,5.16,5.16,0,0,1-4.64,2.57,5.42,5.42,0,0,1-2.95-.76,7.14,7.14,0,0,1-2.27-2.83,9.23,9.23,0,0,1-1.08-4.36v-3.16a10,10,0,0,1,1.62-5.38,5.16,5.16,0,0,1,4.64-2.58,5.43,5.43,0,0,1,2.93.76,7.37,7.37,0,0,1,2.29,2.82A9.29,9.29,0,0,1,265.15,190.05Zm-2.9,0a6.61,6.61,0,0,0-1.31-4.1,2.46,2.46,0,0,0-2.09-1,2.6,2.6,0,0,0-2.14,1.06,6.39,6.39,0,0,0-1.25,4v3.16a6.54,6.54,0,0,0,1.33,4.1,2.44,2.44,0,0,0,2.09,1,2.55,2.55,0,0,0,2.12-1.07,6.35,6.35,0,0,0,1.25-4Z"/><path class="cls-2" d="M282.41,190.05v3.16a9.94,9.94,0,0,1-1.62,5.38,5.16,5.16,0,0,1-4.64,2.57,5.39,5.39,0,0,1-2.95-.76,7.14,7.14,0,0,1-2.27-2.83,9.23,9.23,0,0,1-1.08-4.36v-3.16a10,10,0,0,1,1.62-5.38,5.16,5.16,0,0,1,4.64-2.58,5.46,5.46,0,0,1,2.93.76,7.37,7.37,0,0,1,2.29,2.82A9.28,9.28,0,0,1,282.41,190.05Zm-2.89,0a6.67,6.67,0,0,0-1.31-4.1,2.46,2.46,0,0,0-2.09-1A2.6,2.6,0,0,0,274,186a6.39,6.39,0,0,0-1.25,4v3.16a6.6,6.6,0,0,0,1.32,4.1,2.47,2.47,0,0,0,2.1,1,2.55,2.55,0,0,0,2.12-1.07,6.35,6.35,0,0,0,1.25-4Z"/><path class="cls-2" d="M296.2,156.76v15.77h2.91a2.17,2.17,0,0,1,1.48.4,1.31,1.31,0,0,1,.45,1,1.33,1.33,0,0,1-.45,1,2.22,2.22,0,0,1-1.48.4h-8.7a2.22,2.22,0,0,1-1.48-.4,1.34,1.34,0,0,1-.44-1,1.3,1.3,0,0,1,.44-1,2.17,2.17,0,0,1,1.48-.4h2.91v-12l-2.57.68a4,4,0,0,1-.93.17,1.27,1.27,0,0,1-.95-.44,1.56,1.56,0,0,1-.4-1.07,1.29,1.29,0,0,1,.3-.9,2.62,2.62,0,0,1,1.23-.59Z"/><path class="cls-2" d="M318.29,164.71v3.17a10,10,0,0,1-1.62,5.38,5.19,5.19,0,0,1-4.65,2.57,5.36,5.36,0,0,1-2.94-.77,7.27,7.27,0,0,1-2.28-2.82,9.37,9.37,0,0,1-1.07-4.36v-3.17a10,10,0,0,1,1.61-5.37,5.17,5.17,0,0,1,4.64-2.58,5.35,5.35,0,0,1,2.93.76,7.2,7.2,0,0,1,2.29,2.82A9.16,9.16,0,0,1,318.29,164.71Zm-2.89,0a6.69,6.69,0,0,0-1.31-4.1,2.51,2.51,0,0,0-2.09-1,2.58,2.58,0,0,0-2.14,1.07,6.37,6.37,0,0,0-1.25,4v3.17a6.6,6.6,0,0,0,1.32,4.1,2.45,2.45,0,0,0,2.09,1,2.59,2.59,0,0,0,2.13-1.07,6.37,6.37,0,0,0,1.25-4Z"/><path class="cls-2" d="M330.74,156.76v15.77h2.91a2.17,2.17,0,0,1,1.48.4,1.31,1.31,0,0,1,.45,1,1.33,1.33,0,0,1-.45,1,2.22,2.22,0,0,1-1.48.4H325a2.22,2.22,0,0,1-1.48-.4,1.34,1.34,0,0,1-.44-1,1.3,1.3,0,0,1,.44-1,2.17,2.17,0,0,1,1.48-.4h2.91v-12l-2.57.68a4,4,0,0,1-.93.17,1.27,1.27,0,0,1-.95-.44,1.56,1.56,0,0,1-.4-1.07,1.29,1.29,0,0,1,.3-.9,2.62,2.62,0,0,1,1.23-.59Z"/><path class="cls-2" d="M352.83,164.71v3.17a10,10,0,0,1-1.62,5.38,5.2,5.2,0,0,1-4.65,2.57,5.36,5.36,0,0,1-2.94-.77,7.27,7.27,0,0,1-2.28-2.82,9.37,9.37,0,0,1-1.07-4.36v-3.17a10,10,0,0,1,1.61-5.37,5.17,5.17,0,0,1,4.64-2.58,5.35,5.35,0,0,1,2.93.76,7.29,7.29,0,0,1,2.29,2.82A9.16,9.16,0,0,1,352.83,164.71Zm-2.89,0a6.69,6.69,0,0,0-1.31-4.1,2.52,2.52,0,0,0-2.1-1,2.58,2.58,0,0,0-2.13,1.07,6.37,6.37,0,0,0-1.25,4v3.17a6.6,6.6,0,0,0,1.32,4.1,2.45,2.45,0,0,0,2.09,1,2.57,2.57,0,0,0,2.12-1.07,6.31,6.31,0,0,0,1.26-4Z"/><path class="cls-2" d="M301,215.11v3.16a9.94,9.94,0,0,1-1.62,5.38,5.17,5.17,0,0,1-4.65,2.57,5.36,5.36,0,0,1-2.94-.76,7.24,7.24,0,0,1-2.28-2.83,9.34,9.34,0,0,1-1.07-4.36v-3.16a10,10,0,0,1,1.61-5.38,5.17,5.17,0,0,1,4.64-2.58,5.43,5.43,0,0,1,2.93.76,7.28,7.28,0,0,1,2.29,2.82A9.17,9.17,0,0,1,301,215.11Zm-2.89,0a6.67,6.67,0,0,0-1.31-4.1,2.49,2.49,0,0,0-2.09-1,2.58,2.58,0,0,0-2.14,1.06,6.39,6.39,0,0,0-1.25,4v3.16a6.6,6.6,0,0,0,1.32,4.1,2.45,2.45,0,0,0,2.09,1,2.57,2.57,0,0,0,2.13-1.07,6.35,6.35,0,0,0,1.25-4Z"/><path class="cls-2" d="M313.47,207.15v15.77h2.91a2.17,2.17,0,0,1,1.48.4,1.35,1.35,0,0,1,.45,1.05,1.32,1.32,0,0,1-.45,1,2.17,2.17,0,0,1-1.48.4h-8.7a2.17,2.17,0,0,1-1.48-.4,1.33,1.33,0,0,1-.44-1.05,1.31,1.31,0,0,1,.44-1,2.17,2.17,0,0,1,1.48-.4h2.91v-12l-2.57.67a4,4,0,0,1-.93.17,1.27,1.27,0,0,1-.95-.44,1.53,1.53,0,0,1-.4-1.06,1.3,1.3,0,0,1,.3-.91,2.63,2.63,0,0,1,1.23-.58Z"/><path class="cls-2" d="M330.74,207.15v15.77h2.91a2.17,2.17,0,0,1,1.48.4,1.35,1.35,0,0,1,.45,1.05,1.32,1.32,0,0,1-.45,1,2.17,2.17,0,0,1-1.48.4H325a2.17,2.17,0,0,1-1.48-.4,1.33,1.33,0,0,1-.44-1.05,1.31,1.31,0,0,1,.44-1,2.17,2.17,0,0,1,1.48-.4h2.91v-12l-2.57.67a4,4,0,0,1-.93.17,1.27,1.27,0,0,1-.95-.44,1.53,1.53,0,0,1-.4-1.06,1.3,1.3,0,0,1,.3-.91,2.63,2.63,0,0,1,1.23-.58Z"/><path class="cls-2" d="M352.83,215.11v3.16a9.94,9.94,0,0,1-1.62,5.38,5.18,5.18,0,0,1-4.65,2.57,5.36,5.36,0,0,1-2.94-.76,7.24,7.24,0,0,1-2.28-2.83,9.34,9.34,0,0,1-1.07-4.36v-3.16a10,10,0,0,1,1.61-5.38,5.17,5.17,0,0,1,4.64-2.58,5.43,5.43,0,0,1,2.93.76,7.37,7.37,0,0,1,2.29,2.82A9.17,9.17,0,0,1,352.83,215.11Zm-2.89,0a6.67,6.67,0,0,0-1.31-4.1,2.49,2.49,0,0,0-2.1-1,2.57,2.57,0,0,0-2.13,1.06,6.39,6.39,0,0,0-1.25,4v3.16a6.6,6.6,0,0,0,1.32,4.1,2.45,2.45,0,0,0,2.09,1,2.55,2.55,0,0,0,2.12-1.07,6.29,6.29,0,0,0,1.26-4Z"/><path class="cls-2" d="M301,190.05v3.16a9.94,9.94,0,0,1-1.62,5.38,5.17,5.17,0,0,1-4.65,2.57,5.36,5.36,0,0,1-2.94-.76,7.24,7.24,0,0,1-2.28-2.83,9.34,9.34,0,0,1-1.07-4.36v-3.16a10,10,0,0,1,1.61-5.38,5.17,5.17,0,0,1,4.64-2.58,5.43,5.43,0,0,1,2.93.76,7.28,7.28,0,0,1,2.29,2.82A9.17,9.17,0,0,1,301,190.05Zm-2.89,0a6.67,6.67,0,0,0-1.31-4.1,2.49,2.49,0,0,0-2.09-1,2.58,2.58,0,0,0-2.14,1.06,6.39,6.39,0,0,0-1.25,4v3.16a6.6,6.6,0,0,0,1.32,4.1,2.45,2.45,0,0,0,2.09,1,2.57,2.57,0,0,0,2.13-1.07,6.35,6.35,0,0,0,1.25-4Z"/><path class="cls-2" d="M313.47,182.09v15.77h2.91a2.17,2.17,0,0,1,1.48.4,1.35,1.35,0,0,1,.45,1.05,1.32,1.32,0,0,1-.45,1,2.17,2.17,0,0,1-1.48.4h-8.7a2.17,2.17,0,0,1-1.48-.4,1.33,1.33,0,0,1-.44-1.05,1.31,1.31,0,0,1,.44-1,2.17,2.17,0,0,1,1.48-.4h2.91v-12l-2.57.67a4,4,0,0,1-.93.17,1.27,1.27,0,0,1-.95-.44,1.53,1.53,0,0,1-.4-1.06,1.3,1.3,0,0,1,.3-.91,2.63,2.63,0,0,1,1.23-.58Z"/><path class="cls-2" d="M335.56,190.05v3.16a9.94,9.94,0,0,1-1.62,5.38,5.17,5.17,0,0,1-4.65,2.57,5.36,5.36,0,0,1-2.94-.76,7.24,7.24,0,0,1-2.28-2.83,9.34,9.34,0,0,1-1.07-4.36v-3.16a10,10,0,0,1,1.61-5.38,5.17,5.17,0,0,1,4.64-2.58,5.43,5.43,0,0,1,2.93.76,7.28,7.28,0,0,1,2.29,2.82A9.17,9.17,0,0,1,335.56,190.05Zm-2.89,0a6.67,6.67,0,0,0-1.31-4.1,2.49,2.49,0,0,0-2.09-1,2.58,2.58,0,0,0-2.14,1.06,6.39,6.39,0,0,0-1.25,4v3.16a6.6,6.6,0,0,0,1.32,4.1,2.45,2.45,0,0,0,2.09,1,2.57,2.57,0,0,0,2.13-1.07,6.35,6.35,0,0,0,1.25-4Z"/><path class="cls-2" d="M352.83,190.05v3.16a9.94,9.94,0,0,1-1.62,5.38,5.18,5.18,0,0,1-4.65,2.57,5.36,5.36,0,0,1-2.94-.76,7.24,7.24,0,0,1-2.28-2.83,9.34,9.34,0,0,1-1.07-4.36v-3.16a10,10,0,0,1,1.61-5.38,5.17,5.17,0,0,1,4.64-2.58,5.43,5.43,0,0,1,2.93.76,7.37,7.37,0,0,1,2.29,2.82A9.17,9.17,0,0,1,352.83,190.05Zm-2.89,0a6.67,6.67,0,0,0-1.31-4.1,2.49,2.49,0,0,0-2.1-1A2.57,2.57,0,0,0,344.4,186a6.39,6.39,0,0,0-1.25,4v3.16a6.6,6.6,0,0,0,1.32,4.1,2.45,2.45,0,0,0,2.09,1,2.55,2.55,0,0,0,2.12-1.07,6.29,6.29,0,0,0,1.26-4Z"/><path class="cls-2" d="M85,233v15.77H87.9a2.2,2.2,0,0,1,1.49.4,1.34,1.34,0,0,1,.44,1,1.37,1.37,0,0,1-.44,1,2.25,2.25,0,0,1-1.49.4H79.21a2.25,2.25,0,0,1-1.49-.4,1.37,1.37,0,0,1-.44-1.05,1.33,1.33,0,0,1,.44-1,2.2,2.2,0,0,1,1.49-.4h2.9v-12l-2.57.68a3.9,3.9,0,0,1-.92.16,1.23,1.23,0,0,1-1-.43,1.51,1.51,0,0,1-.4-1.07,1.36,1.36,0,0,1,.29-.91,2.68,2.68,0,0,1,1.24-.58Z"/><path class="cls-2" d="M107.08,240.92v3.16a10,10,0,0,1-1.62,5.39,5.18,5.18,0,0,1-4.64,2.57,5.42,5.42,0,0,1-2.95-.77,7.17,7.17,0,0,1-2.27-2.82,9.27,9.27,0,0,1-1.08-4.37v-3.16a10,10,0,0,1,1.62-5.37,5.16,5.16,0,0,1,4.64-2.58,5.37,5.37,0,0,1,2.93.76,7.21,7.21,0,0,1,2.29,2.82A9.27,9.27,0,0,1,107.08,240.92Zm-2.89,0a6.69,6.69,0,0,0-1.31-4.1,2.46,2.46,0,0,0-2.09-1,2.61,2.61,0,0,0-2.14,1.07,6.37,6.37,0,0,0-1.25,4v3.16a6.61,6.61,0,0,0,1.32,4.11,2.49,2.49,0,0,0,2.1,1,2.57,2.57,0,0,0,2.12-1.07,6.38,6.38,0,0,0,1.25-4Z"/><path class="cls-2" d="M119.53,233v15.77h2.91a2.2,2.2,0,0,1,1.49.4,1.34,1.34,0,0,1,.44,1,1.37,1.37,0,0,1-.44,1,2.25,2.25,0,0,1-1.49.4h-8.69a2.25,2.25,0,0,1-1.49-.4,1.37,1.37,0,0,1-.44-1.05,1.33,1.33,0,0,1,.44-1,2.2,2.2,0,0,1,1.49-.4h2.9v-12l-2.57.68a3.9,3.9,0,0,1-.92.16,1.23,1.23,0,0,1-1-.43,1.51,1.51,0,0,1-.4-1.07,1.36,1.36,0,0,1,.29-.91,2.68,2.68,0,0,1,1.24-.58Z"/><path class="cls-2" d="M141.62,240.92v3.16a10,10,0,0,1-1.62,5.39,5.18,5.18,0,0,1-4.64,2.57,5.4,5.4,0,0,1-3-.77,7.17,7.17,0,0,1-2.27-2.82,9.27,9.27,0,0,1-1.08-4.37v-3.16a10,10,0,0,1,1.62-5.37,5.15,5.15,0,0,1,4.63-2.58,5.32,5.32,0,0,1,2.93.76,7.22,7.22,0,0,1,2.3,2.82A9.27,9.27,0,0,1,141.62,240.92Zm-2.89,0a6.69,6.69,0,0,0-1.31-4.1,2.46,2.46,0,0,0-2.09-1,2.6,2.6,0,0,0-2.14,1.07,6.37,6.37,0,0,0-1.25,4v3.16a6.61,6.61,0,0,0,1.32,4.11,2.49,2.49,0,0,0,2.1,1,2.57,2.57,0,0,0,2.12-1.07,6.38,6.38,0,0,0,1.25-4Z"/><path class="cls-2" d="M89.81,291.32v3.16a9.94,9.94,0,0,1-1.62,5.38,5.18,5.18,0,0,1-4.64,2.57,5.39,5.39,0,0,1-3-.76,7.21,7.21,0,0,1-2.27-2.83,9.26,9.26,0,0,1-1.08-4.36v-3.16a10,10,0,0,1,1.62-5.38,5.16,5.16,0,0,1,4.64-2.58,5.46,5.46,0,0,1,2.93.76,7.37,7.37,0,0,1,2.29,2.82A9.28,9.28,0,0,1,89.81,291.32Zm-2.89,0a6.7,6.7,0,0,0-1.31-4.11,2.49,2.49,0,0,0-2.09-1,2.61,2.61,0,0,0-2.14,1.07,6.38,6.38,0,0,0-1.25,4v3.16a6.6,6.6,0,0,0,1.32,4.1,2.47,2.47,0,0,0,2.1,1,2.57,2.57,0,0,0,2.12-1.07,6.35,6.35,0,0,0,1.25-4Z"/><path class="cls-2" d="M102.26,283.36v15.77h2.91a2.2,2.2,0,0,1,1.49.4,1.37,1.37,0,0,1,.44,1.05,1.34,1.34,0,0,1-.44,1,2.2,2.2,0,0,1-1.49.4H96.48a2.2,2.2,0,0,1-1.49-.4,1.37,1.37,0,0,1-.44-1.05,1.34,1.34,0,0,1,.44-1,2.2,2.2,0,0,1,1.49-.4h2.9v-12l-2.57.68a4,4,0,0,1-.92.17,1.24,1.24,0,0,1-1-.44,1.5,1.5,0,0,1-.4-1.07,1.33,1.33,0,0,1,.29-.9,2.67,2.67,0,0,1,1.24-.59Z"/><path class="cls-2" d="M119.53,283.36v15.77h2.91a2.2,2.2,0,0,1,1.49.4,1.37,1.37,0,0,1,.44,1.05,1.34,1.34,0,0,1-.44,1,2.2,2.2,0,0,1-1.49.4h-8.69a2.2,2.2,0,0,1-1.49-.4,1.37,1.37,0,0,1-.44-1.05,1.34,1.34,0,0,1,.44-1,2.2,2.2,0,0,1,1.49-.4h2.9v-12l-2.57.68a4,4,0,0,1-.92.17,1.24,1.24,0,0,1-1-.44,1.5,1.5,0,0,1-.4-1.07,1.33,1.33,0,0,1,.29-.9,2.67,2.67,0,0,1,1.24-.59Z"/><path class="cls-2" d="M141.62,291.32v3.16a9.94,9.94,0,0,1-1.62,5.38,5.18,5.18,0,0,1-4.64,2.57,5.39,5.39,0,0,1-3-.76,7.21,7.21,0,0,1-2.27-2.83,9.26,9.26,0,0,1-1.08-4.36v-3.16a10,10,0,0,1,1.62-5.38,5.15,5.15,0,0,1,4.63-2.58,5.41,5.41,0,0,1,2.93.76,7.38,7.38,0,0,1,2.3,2.82A9.28,9.28,0,0,1,141.62,291.32Zm-2.89,0a6.7,6.7,0,0,0-1.31-4.11,2.49,2.49,0,0,0-2.09-1,2.6,2.6,0,0,0-2.14,1.07,6.38,6.38,0,0,0-1.25,4v3.16a6.6,6.6,0,0,0,1.32,4.1,2.47,2.47,0,0,0,2.1,1,2.57,2.57,0,0,0,2.12-1.07,6.35,6.35,0,0,0,1.25-4Z"/><path class="cls-2" d="M89.81,266.26v3.16a9.94,9.94,0,0,1-1.62,5.38,5.18,5.18,0,0,1-4.64,2.57,5.39,5.39,0,0,1-3-.76,7.21,7.21,0,0,1-2.27-2.83,9.26,9.26,0,0,1-1.08-4.36v-3.16a10,10,0,0,1,1.62-5.38,5.16,5.16,0,0,1,4.64-2.58,5.46,5.46,0,0,1,2.93.76,7.37,7.37,0,0,1,2.29,2.82A9.28,9.28,0,0,1,89.81,266.26Zm-2.89,0a6.7,6.7,0,0,0-1.31-4.11,2.49,2.49,0,0,0-2.09-1,2.61,2.61,0,0,0-2.14,1.07,6.38,6.38,0,0,0-1.25,4v3.16a6.6,6.6,0,0,0,1.32,4.1,2.47,2.47,0,0,0,2.1,1,2.55,2.55,0,0,0,2.12-1.07,6.35,6.35,0,0,0,1.25-4Z"/><path class="cls-2" d="M102.26,258.3v15.77h2.91a2.2,2.2,0,0,1,1.49.4,1.37,1.37,0,0,1,.44,1,1.34,1.34,0,0,1-.44,1,2.2,2.2,0,0,1-1.49.4H96.48a2.2,2.2,0,0,1-1.49-.4,1.37,1.37,0,0,1-.44-1.05,1.34,1.34,0,0,1,.44-1,2.2,2.2,0,0,1,1.49-.4h2.9v-12l-2.57.67a4,4,0,0,1-.92.17,1.24,1.24,0,0,1-1-.44,1.5,1.5,0,0,1-.4-1.07,1.33,1.33,0,0,1,.29-.9,2.67,2.67,0,0,1,1.24-.59Z"/><path class="cls-2" d="M124.35,266.26v3.16a9.94,9.94,0,0,1-1.62,5.38,5.18,5.18,0,0,1-4.64,2.57,5.42,5.42,0,0,1-3-.76,7.21,7.21,0,0,1-2.27-2.83,9.26,9.26,0,0,1-1.08-4.36v-3.16a10,10,0,0,1,1.62-5.38,5.16,5.16,0,0,1,4.64-2.58,5.46,5.46,0,0,1,2.93.76,7.37,7.37,0,0,1,2.29,2.82A9.28,9.28,0,0,1,124.35,266.26Zm-2.89,0a6.7,6.7,0,0,0-1.31-4.11,2.49,2.49,0,0,0-2.09-1,2.61,2.61,0,0,0-2.14,1.07,6.38,6.38,0,0,0-1.25,4v3.16a6.6,6.6,0,0,0,1.32,4.1,2.47,2.47,0,0,0,2.1,1,2.55,2.55,0,0,0,2.12-1.07,6.35,6.35,0,0,0,1.25-4Z"/><path class="cls-2" d="M141.62,266.26v3.16A9.94,9.94,0,0,1,140,274.8a5.18,5.18,0,0,1-4.64,2.57,5.39,5.39,0,0,1-3-.76,7.21,7.21,0,0,1-2.27-2.83,9.26,9.26,0,0,1-1.08-4.36v-3.16a10,10,0,0,1,1.62-5.38,5.15,5.15,0,0,1,4.63-2.58,5.41,5.41,0,0,1,2.93.76,7.38,7.38,0,0,1,2.3,2.82A9.28,9.28,0,0,1,141.62,266.26Zm-2.89,0a6.7,6.7,0,0,0-1.31-4.11,2.49,2.49,0,0,0-2.09-1,2.6,2.6,0,0,0-2.14,1.07,6.38,6.38,0,0,0-1.25,4v3.16a6.6,6.6,0,0,0,1.32,4.1,2.47,2.47,0,0,0,2.1,1,2.55,2.55,0,0,0,2.12-1.07,6.35,6.35,0,0,0,1.25-4Z"/><path class="cls-2" d="M155.41,233v15.77h2.91a2.17,2.17,0,0,1,1.48.4,1.3,1.3,0,0,1,.44,1,1.33,1.33,0,0,1-.44,1,2.22,2.22,0,0,1-1.48.4h-8.7a2.22,2.22,0,0,1-1.48-.4,1.34,1.34,0,0,1-.44-1.05,1.3,1.3,0,0,1,.44-1,2.17,2.17,0,0,1,1.48-.4h2.91v-12l-2.57.68a3.88,3.88,0,0,1-.93.16,1.24,1.24,0,0,1-.95-.43,1.51,1.51,0,0,1-.4-1.07,1.31,1.31,0,0,1,.3-.91,2.63,2.63,0,0,1,1.23-.58Z"/><path class="cls-2" d="M177.5,240.92v3.16a10,10,0,0,1-1.62,5.39,5.2,5.2,0,0,1-4.65,2.57,5.36,5.36,0,0,1-2.94-.77,7.27,7.27,0,0,1-2.28-2.82,9.38,9.38,0,0,1-1.07-4.37v-3.16a10,10,0,0,1,1.61-5.37,5.17,5.17,0,0,1,4.64-2.58,5.35,5.35,0,0,1,2.93.76,7.21,7.21,0,0,1,2.29,2.82A9.16,9.16,0,0,1,177.5,240.92Zm-2.89,0a6.69,6.69,0,0,0-1.31-4.1,2.49,2.49,0,0,0-2.1-1,2.58,2.58,0,0,0-2.13,1.07,6.37,6.37,0,0,0-1.25,4v3.16a6.61,6.61,0,0,0,1.32,4.11,2.48,2.48,0,0,0,2.09,1,2.57,2.57,0,0,0,2.12-1.07,6.32,6.32,0,0,0,1.26-4Z"/><path class="cls-2" d="M190,233v15.77h2.91a2.17,2.17,0,0,1,1.48.4,1.3,1.3,0,0,1,.44,1,1.33,1.33,0,0,1-.44,1,2.22,2.22,0,0,1-1.48.4h-8.7a2.22,2.22,0,0,1-1.48-.4,1.34,1.34,0,0,1-.44-1.05,1.3,1.3,0,0,1,.44-1,2.17,2.17,0,0,1,1.48-.4h2.91v-12l-2.57.68a3.88,3.88,0,0,1-.93.16,1.26,1.26,0,0,1-.95-.43,1.51,1.51,0,0,1-.4-1.07,1.31,1.31,0,0,1,.3-.91,2.63,2.63,0,0,1,1.23-.58Z"/><path class="cls-2" d="M212,240.92v3.16a10,10,0,0,1-1.62,5.39,5.2,5.2,0,0,1-4.65,2.57,5.36,5.36,0,0,1-2.94-.77,7.27,7.27,0,0,1-2.28-2.82,9.26,9.26,0,0,1-1.07-4.37v-3.16a10,10,0,0,1,1.61-5.37,5.17,5.17,0,0,1,4.64-2.58,5.35,5.35,0,0,1,2.93.76,7.21,7.21,0,0,1,2.29,2.82A9.16,9.16,0,0,1,212,240.92Zm-2.9,0a6.69,6.69,0,0,0-1.3-4.1,2.49,2.49,0,0,0-2.1-1,2.58,2.58,0,0,0-2.13,1.07,6.31,6.31,0,0,0-1.25,4v3.16a6.61,6.61,0,0,0,1.32,4.11,2.48,2.48,0,0,0,2.09,1,2.57,2.57,0,0,0,2.12-1.07,6.32,6.32,0,0,0,1.25-4Z"/><path class="cls-2" d="M160.23,291.32v3.16a9.94,9.94,0,0,1-1.62,5.38,5.2,5.2,0,0,1-4.65,2.57,5.36,5.36,0,0,1-2.94-.76,7.31,7.31,0,0,1-2.28-2.83,9.37,9.37,0,0,1-1.07-4.36v-3.16a10,10,0,0,1,1.61-5.38,5.17,5.17,0,0,1,4.64-2.58,5.43,5.43,0,0,1,2.93.76,7.37,7.37,0,0,1,2.29,2.82A9.17,9.17,0,0,1,160.23,291.32Zm-2.89,0a6.7,6.7,0,0,0-1.31-4.11,2.52,2.52,0,0,0-2.1-1,2.58,2.58,0,0,0-2.13,1.07,6.38,6.38,0,0,0-1.25,4v3.16a6.6,6.6,0,0,0,1.32,4.1,2.45,2.45,0,0,0,2.09,1,2.57,2.57,0,0,0,2.12-1.07,6.29,6.29,0,0,0,1.26-4Z"/><path class="cls-2" d="M172.68,283.36v15.77h2.91a2.17,2.17,0,0,1,1.48.4,1.34,1.34,0,0,1,.44,1.05,1.31,1.31,0,0,1-.44,1,2.17,2.17,0,0,1-1.48.4h-8.7a2.17,2.17,0,0,1-1.48-.4,1.34,1.34,0,0,1-.44-1.05,1.31,1.31,0,0,1,.44-1,2.17,2.17,0,0,1,1.48-.4h2.91v-12l-2.57.68a4,4,0,0,1-.93.17,1.25,1.25,0,0,1-1-.44,1.5,1.5,0,0,1-.4-1.07,1.29,1.29,0,0,1,.3-.9,2.62,2.62,0,0,1,1.23-.59Z"/><path class="cls-2" d="M190,283.36v15.77h2.91a2.17,2.17,0,0,1,1.48.4,1.34,1.34,0,0,1,.44,1.05,1.31,1.31,0,0,1-.44,1,2.17,2.17,0,0,1-1.48.4h-8.7a2.17,2.17,0,0,1-1.48-.4,1.34,1.34,0,0,1-.44-1.05,1.31,1.31,0,0,1,.44-1,2.17,2.17,0,0,1,1.48-.4h2.91v-12l-2.57.68a4,4,0,0,1-.93.17,1.27,1.27,0,0,1-.95-.44,1.5,1.5,0,0,1-.4-1.07,1.29,1.29,0,0,1,.3-.9,2.62,2.62,0,0,1,1.23-.59Z"/><path class="cls-2" d="M212,291.32v3.16a9.94,9.94,0,0,1-1.62,5.38,5.2,5.2,0,0,1-4.65,2.57,5.36,5.36,0,0,1-2.94-.76,7.31,7.31,0,0,1-2.28-2.83,9.25,9.25,0,0,1-1.07-4.36v-3.16a10,10,0,0,1,1.61-5.38,5.17,5.17,0,0,1,4.64-2.58,5.43,5.43,0,0,1,2.93.76,7.37,7.37,0,0,1,2.29,2.82A9.17,9.17,0,0,1,212,291.32Zm-2.9,0a6.69,6.69,0,0,0-1.3-4.11,2.52,2.52,0,0,0-2.1-1,2.58,2.58,0,0,0-2.13,1.07,6.32,6.32,0,0,0-1.25,4v3.16a6.6,6.6,0,0,0,1.32,4.1,2.45,2.45,0,0,0,2.09,1,2.57,2.57,0,0,0,2.12-1.07,6.29,6.29,0,0,0,1.25-4Z"/><path class="cls-2" d="M160.23,266.26v3.16a9.94,9.94,0,0,1-1.62,5.38,5.2,5.2,0,0,1-4.65,2.57,5.36,5.36,0,0,1-2.94-.76,7.31,7.31,0,0,1-2.28-2.83,9.37,9.37,0,0,1-1.07-4.36v-3.16a10,10,0,0,1,1.61-5.38,5.17,5.17,0,0,1,4.64-2.58,5.43,5.43,0,0,1,2.93.76,7.37,7.37,0,0,1,2.29,2.82A9.17,9.17,0,0,1,160.23,266.26Zm-2.89,0a6.7,6.7,0,0,0-1.31-4.11,2.52,2.52,0,0,0-2.1-1,2.58,2.58,0,0,0-2.13,1.07,6.38,6.38,0,0,0-1.25,4v3.16a6.6,6.6,0,0,0,1.32,4.1,2.45,2.45,0,0,0,2.09,1,2.55,2.55,0,0,0,2.12-1.07,6.29,6.29,0,0,0,1.26-4Z"/><path class="cls-2" d="M172.68,258.3v15.77h2.91a2.17,2.17,0,0,1,1.48.4,1.34,1.34,0,0,1,.44,1,1.31,1.31,0,0,1-.44,1,2.17,2.17,0,0,1-1.48.4h-8.7a2.17,2.17,0,0,1-1.48-.4,1.34,1.34,0,0,1-.44-1.05,1.31,1.31,0,0,1,.44-1,2.17,2.17,0,0,1,1.48-.4h2.91v-12l-2.57.67a4,4,0,0,1-.93.17,1.25,1.25,0,0,1-1-.44,1.5,1.5,0,0,1-.4-1.07,1.29,1.29,0,0,1,.3-.9,2.62,2.62,0,0,1,1.23-.59Z"/><path class="cls-2" d="M194.77,266.26v3.16a9.94,9.94,0,0,1-1.62,5.38,5.2,5.2,0,0,1-4.65,2.57,5.36,5.36,0,0,1-2.94-.76,7.31,7.31,0,0,1-2.28-2.83,9.37,9.37,0,0,1-1.07-4.36v-3.16a10,10,0,0,1,1.61-5.38,5.17,5.17,0,0,1,4.64-2.58,5.43,5.43,0,0,1,2.93.76,7.37,7.37,0,0,1,2.29,2.82A9.17,9.17,0,0,1,194.77,266.26Zm-2.89,0a6.7,6.7,0,0,0-1.31-4.11,2.52,2.52,0,0,0-2.1-1,2.58,2.58,0,0,0-2.13,1.07,6.38,6.38,0,0,0-1.25,4v3.16a6.6,6.6,0,0,0,1.32,4.1,2.45,2.45,0,0,0,2.09,1,2.55,2.55,0,0,0,2.12-1.07,6.29,6.29,0,0,0,1.26-4Z"/><path class="cls-2" d="M212,266.26v3.16a9.94,9.94,0,0,1-1.62,5.38,5.2,5.2,0,0,1-4.65,2.57,5.36,5.36,0,0,1-2.94-.76,7.31,7.31,0,0,1-2.28-2.83,9.25,9.25,0,0,1-1.07-4.36v-3.16a10,10,0,0,1,1.61-5.38,5.17,5.17,0,0,1,4.64-2.58,5.43,5.43,0,0,1,2.93.76,7.37,7.37,0,0,1,2.29,2.82A9.17,9.17,0,0,1,212,266.26Zm-2.9,0a6.69,6.69,0,0,0-1.3-4.11,2.52,2.52,0,0,0-2.1-1,2.58,2.58,0,0,0-2.13,1.07,6.32,6.32,0,0,0-1.25,4v3.16a6.6,6.6,0,0,0,1.32,4.1,2.45,2.45,0,0,0,2.09,1,2.55,2.55,0,0,0,2.12-1.07,6.29,6.29,0,0,0,1.25-4Z"/><path class="cls-2" d="M85,156.76v15.77h2.91a2.18,2.18,0,0,1,1.48.4,1.3,1.3,0,0,1,.44,1,1.32,1.32,0,0,1-.44,1,2.24,2.24,0,0,1-1.48.4h-8.7a2.22,2.22,0,0,1-1.48-.4,1.35,1.35,0,0,1-.45-1,1.31,1.31,0,0,1,.45-1,2.17,2.17,0,0,1,1.48-.4h2.91v-12l-2.57.68a4.11,4.11,0,0,1-.93.17,1.25,1.25,0,0,1-.95-.44,1.51,1.51,0,0,1-.4-1.07,1.33,1.33,0,0,1,.29-.9,2.67,2.67,0,0,1,1.24-.59Z"/><path class="cls-2" d="M107.1,164.71v3.17a10,10,0,0,1-1.62,5.38,5.2,5.2,0,0,1-4.65,2.57,5.36,5.36,0,0,1-2.94-.77,7.27,7.27,0,0,1-2.28-2.82,9.25,9.25,0,0,1-1.07-4.36v-3.17a9.94,9.94,0,0,1,1.61-5.37,5.17,5.17,0,0,1,4.64-2.58,5.35,5.35,0,0,1,2.93.76,7.29,7.29,0,0,1,2.29,2.82A9.16,9.16,0,0,1,107.1,164.71Zm-2.9,0a6.69,6.69,0,0,0-1.3-4.1,2.52,2.52,0,0,0-2.1-1,2.58,2.58,0,0,0-2.13,1.07,6.31,6.31,0,0,0-1.25,4v3.17a6.6,6.6,0,0,0,1.32,4.1,2.44,2.44,0,0,0,2.09,1,2.57,2.57,0,0,0,2.12-1.07,6.31,6.31,0,0,0,1.25-4Z"/><path class="cls-2" d="M119.55,156.76v15.77h2.91a2.17,2.17,0,0,1,1.48.4,1.3,1.3,0,0,1,.44,1,1.32,1.32,0,0,1-.44,1,2.22,2.22,0,0,1-1.48.4h-8.7a2.22,2.22,0,0,1-1.48-.4,1.35,1.35,0,0,1-.45-1,1.31,1.31,0,0,1,.45-1,2.17,2.17,0,0,1,1.48-.4h2.91v-12l-2.57.68a4.11,4.11,0,0,1-.93.17,1.25,1.25,0,0,1-1-.44,1.51,1.51,0,0,1-.4-1.07,1.33,1.33,0,0,1,.29-.9,2.67,2.67,0,0,1,1.24-.59Z"/><path class="cls-2" d="M141.64,164.71v3.17a9.89,9.89,0,0,1-1.63,5.38,5.18,5.18,0,0,1-4.64,2.57,5.36,5.36,0,0,1-2.94-.77,7.27,7.27,0,0,1-2.28-2.82,9.25,9.25,0,0,1-1.07-4.36v-3.17a9.94,9.94,0,0,1,1.61-5.37,5.16,5.16,0,0,1,4.64-2.58,5.35,5.35,0,0,1,2.93.76,7.29,7.29,0,0,1,2.29,2.82A9.28,9.28,0,0,1,141.64,164.71Zm-2.9,0a6.69,6.69,0,0,0-1.3-4.1,2.52,2.52,0,0,0-2.1-1,2.58,2.58,0,0,0-2.13,1.07,6.31,6.31,0,0,0-1.25,4v3.17a6.6,6.6,0,0,0,1.32,4.1,2.44,2.44,0,0,0,2.09,1,2.57,2.57,0,0,0,2.12-1.07,6.31,6.31,0,0,0,1.25-4Z"/><path class="cls-2" d="M89.83,215.11v3.16a9.94,9.94,0,0,1-1.62,5.38,5.18,5.18,0,0,1-4.65,2.57,5.36,5.36,0,0,1-2.94-.76,7.24,7.24,0,0,1-2.28-2.83,9.22,9.22,0,0,1-1.07-4.36v-3.16a10,10,0,0,1,1.61-5.38,5.17,5.17,0,0,1,4.64-2.58,5.43,5.43,0,0,1,2.93.76,7.37,7.37,0,0,1,2.29,2.82A9.17,9.17,0,0,1,89.83,215.11Zm-2.9,0a6.67,6.67,0,0,0-1.3-4.1,2.49,2.49,0,0,0-2.1-1,2.57,2.57,0,0,0-2.13,1.06,6.33,6.33,0,0,0-1.25,4v3.16a6.6,6.6,0,0,0,1.32,4.1,2.44,2.44,0,0,0,2.09,1,2.55,2.55,0,0,0,2.12-1.07,6.29,6.29,0,0,0,1.25-4Z"/><path class="cls-2" d="M102.28,207.15v15.77h2.91a2.17,2.17,0,0,1,1.48.4,1.34,1.34,0,0,1,.44,1.05,1.31,1.31,0,0,1-.44,1,2.17,2.17,0,0,1-1.48.4h-8.7a2.17,2.17,0,0,1-1.48-.4,1.43,1.43,0,0,1,0-2.08,2.17,2.17,0,0,1,1.48-.4H99.4v-12l-2.57.67a4.11,4.11,0,0,1-.93.17,1.25,1.25,0,0,1-1-.44,1.49,1.49,0,0,1-.4-1.06,1.34,1.34,0,0,1,.29-.91,2.68,2.68,0,0,1,1.24-.58Z"/><path class="cls-2" d="M119.55,207.15v15.77h2.91a2.17,2.17,0,0,1,1.48.4,1.34,1.34,0,0,1,.44,1.05,1.31,1.31,0,0,1-.44,1,2.17,2.17,0,0,1-1.48.4h-8.7a2.17,2.17,0,0,1-1.48-.4,1.43,1.43,0,0,1,0-2.08,2.17,2.17,0,0,1,1.48-.4h2.91v-12l-2.57.67a4.11,4.11,0,0,1-.93.17,1.25,1.25,0,0,1-1-.44,1.49,1.49,0,0,1-.4-1.06,1.34,1.34,0,0,1,.29-.91,2.68,2.68,0,0,1,1.24-.58Z"/><path class="cls-2" d="M141.64,215.11v3.16a9.87,9.87,0,0,1-1.63,5.38,5.16,5.16,0,0,1-4.64,2.57,5.36,5.36,0,0,1-2.94-.76,7.24,7.24,0,0,1-2.28-2.83,9.22,9.22,0,0,1-1.07-4.36v-3.16a10,10,0,0,1,1.61-5.38,5.16,5.16,0,0,1,4.64-2.58,5.43,5.43,0,0,1,2.93.76,7.37,7.37,0,0,1,2.29,2.82A9.29,9.29,0,0,1,141.64,215.11Zm-2.9,0a6.67,6.67,0,0,0-1.3-4.1,2.49,2.49,0,0,0-2.1-1,2.57,2.57,0,0,0-2.13,1.06,6.33,6.33,0,0,0-1.25,4v3.16a6.6,6.6,0,0,0,1.32,4.1,2.44,2.44,0,0,0,2.09,1,2.55,2.55,0,0,0,2.12-1.07,6.29,6.29,0,0,0,1.25-4Z"/><path class="cls-2" d="M89.83,190.05v3.16a9.94,9.94,0,0,1-1.62,5.38,5.18,5.18,0,0,1-4.65,2.57,5.36,5.36,0,0,1-2.94-.76,7.24,7.24,0,0,1-2.28-2.83,9.22,9.22,0,0,1-1.07-4.36v-3.16a10,10,0,0,1,1.61-5.38,5.17,5.17,0,0,1,4.64-2.58,5.43,5.43,0,0,1,2.93.76,7.37,7.37,0,0,1,2.29,2.82A9.17,9.17,0,0,1,89.83,190.05Zm-2.9,0a6.67,6.67,0,0,0-1.3-4.1,2.49,2.49,0,0,0-2.1-1A2.57,2.57,0,0,0,81.4,186a6.33,6.33,0,0,0-1.25,4v3.16a6.6,6.6,0,0,0,1.32,4.1,2.44,2.44,0,0,0,2.09,1,2.55,2.55,0,0,0,2.12-1.07,6.29,6.29,0,0,0,1.25-4Z"/><path class="cls-2" d="M102.28,182.09v15.77h2.91a2.17,2.17,0,0,1,1.48.4,1.34,1.34,0,0,1,.44,1.05,1.31,1.31,0,0,1-.44,1,2.17,2.17,0,0,1-1.48.4h-8.7a2.17,2.17,0,0,1-1.48-.4,1.43,1.43,0,0,1,0-2.08,2.17,2.17,0,0,1,1.48-.4H99.4v-12l-2.57.67a4.11,4.11,0,0,1-.93.17,1.25,1.25,0,0,1-1-.44,1.49,1.49,0,0,1-.4-1.06,1.34,1.34,0,0,1,.29-.91,2.68,2.68,0,0,1,1.24-.58Z"/><path class="cls-2" d="M124.37,190.05v3.16a9.94,9.94,0,0,1-1.62,5.38,5.18,5.18,0,0,1-4.65,2.57,5.36,5.36,0,0,1-2.94-.76,7.24,7.24,0,0,1-2.28-2.83,9.22,9.22,0,0,1-1.07-4.36v-3.16a10,10,0,0,1,1.61-5.38,5.17,5.17,0,0,1,4.64-2.58,5.43,5.43,0,0,1,2.93.76,7.37,7.37,0,0,1,2.29,2.82A9.17,9.17,0,0,1,124.37,190.05Zm-2.9,0a6.67,6.67,0,0,0-1.3-4.1,2.49,2.49,0,0,0-2.1-1,2.57,2.57,0,0,0-2.13,1.06,6.33,6.33,0,0,0-1.25,4v3.16a6.6,6.6,0,0,0,1.32,4.1,2.45,2.45,0,0,0,2.09,1,2.55,2.55,0,0,0,2.12-1.07,6.29,6.29,0,0,0,1.25-4Z"/><path class="cls-2" d="M141.64,190.05v3.16a9.87,9.87,0,0,1-1.63,5.38,5.16,5.16,0,0,1-4.64,2.57,5.36,5.36,0,0,1-2.94-.76,7.24,7.24,0,0,1-2.28-2.83,9.22,9.22,0,0,1-1.07-4.36v-3.16a10,10,0,0,1,1.61-5.38,5.16,5.16,0,0,1,4.64-2.58,5.43,5.43,0,0,1,2.93.76,7.37,7.37,0,0,1,2.29,2.82A9.29,9.29,0,0,1,141.64,190.05Zm-2.9,0a6.67,6.67,0,0,0-1.3-4.1,2.49,2.49,0,0,0-2.1-1,2.57,2.57,0,0,0-2.13,1.06,6.33,6.33,0,0,0-1.25,4v3.16a6.6,6.6,0,0,0,1.32,4.1,2.44,2.44,0,0,0,2.09,1,2.55,2.55,0,0,0,2.12-1.07,6.29,6.29,0,0,0,1.25-4Z"/><path class="cls-2" d="M155.42,156.76v15.77h2.91a2.2,2.2,0,0,1,1.49.4,1.34,1.34,0,0,1,.44,1,1.35,1.35,0,0,1-.44,1,2.25,2.25,0,0,1-1.49.4h-8.7a2.24,2.24,0,0,1-1.48-.4,1.37,1.37,0,0,1-.44-1,1.33,1.33,0,0,1,.44-1,2.18,2.18,0,0,1,1.48-.4h2.91v-12l-2.57.68a4,4,0,0,1-.93.17,1.23,1.23,0,0,1-.94-.44,1.51,1.51,0,0,1-.4-1.07,1.28,1.28,0,0,1,.29-.9,2.67,2.67,0,0,1,1.24-.59Z"/><path class="cls-2" d="M177.51,164.71v3.17a10,10,0,0,1-1.62,5.38,5.18,5.18,0,0,1-4.64,2.57,5.4,5.4,0,0,1-2.95-.77,7.17,7.17,0,0,1-2.27-2.82,9.26,9.26,0,0,1-1.08-4.36v-3.17a10,10,0,0,1,1.62-5.37,5.15,5.15,0,0,1,4.63-2.58,5.32,5.32,0,0,1,2.93.76,7.3,7.3,0,0,1,2.3,2.82A9.27,9.27,0,0,1,177.51,164.71Zm-2.89,0a6.69,6.69,0,0,0-1.31-4.1,2.49,2.49,0,0,0-2.09-1,2.6,2.6,0,0,0-2.14,1.07,6.37,6.37,0,0,0-1.25,4v3.17a6.6,6.6,0,0,0,1.32,4.1,2.47,2.47,0,0,0,2.1,1,2.57,2.57,0,0,0,2.12-1.07,6.37,6.37,0,0,0,1.25-4Z"/><path class="cls-2" d="M190,156.76v15.77h2.91a2.2,2.2,0,0,1,1.49.4,1.34,1.34,0,0,1,.44,1,1.35,1.35,0,0,1-.44,1,2.25,2.25,0,0,1-1.49.4h-8.7a2.24,2.24,0,0,1-1.48-.4,1.37,1.37,0,0,1-.44-1,1.33,1.33,0,0,1,.44-1,2.18,2.18,0,0,1,1.48-.4h2.91v-12l-2.57.68a4,4,0,0,1-.93.17,1.23,1.23,0,0,1-.94-.44,1.51,1.51,0,0,1-.4-1.07,1.28,1.28,0,0,1,.29-.9,2.67,2.67,0,0,1,1.24-.59Z"/><path class="cls-2" d="M212.05,164.71v3.17a10,10,0,0,1-1.62,5.38,5.18,5.18,0,0,1-4.64,2.57,5.37,5.37,0,0,1-2.95-.77,7.27,7.27,0,0,1-2.28-2.82,9.37,9.37,0,0,1-1.07-4.36v-3.17a10,10,0,0,1,1.62-5.37,5.15,5.15,0,0,1,4.63-2.58,5.32,5.32,0,0,1,2.93.76,7.2,7.2,0,0,1,2.29,2.82A9.16,9.16,0,0,1,212.05,164.71Zm-2.89,0a6.69,6.69,0,0,0-1.31-4.1,2.5,2.5,0,0,0-2.09-1,2.6,2.6,0,0,0-2.14,1.07,6.37,6.37,0,0,0-1.25,4v3.17a6.6,6.6,0,0,0,1.32,4.1,2.47,2.47,0,0,0,2.1,1,2.59,2.59,0,0,0,2.12-1.07,6.37,6.37,0,0,0,1.25-4Z"/><path class="cls-2" d="M160.24,215.11v3.16a9.94,9.94,0,0,1-1.62,5.38,5.16,5.16,0,0,1-4.64,2.57,5.39,5.39,0,0,1-2.95-.76,7.14,7.14,0,0,1-2.27-2.83,9.23,9.23,0,0,1-1.08-4.36v-3.16a10,10,0,0,1,1.62-5.38,5.15,5.15,0,0,1,4.63-2.58,5.41,5.41,0,0,1,2.93.76,7.38,7.38,0,0,1,2.3,2.82A9.28,9.28,0,0,1,160.24,215.11Zm-2.89,0A6.67,6.67,0,0,0,156,211a2.46,2.46,0,0,0-2.09-1,2.59,2.59,0,0,0-2.14,1.06,6.39,6.39,0,0,0-1.25,4v3.16a6.6,6.6,0,0,0,1.32,4.1,2.47,2.47,0,0,0,2.1,1,2.55,2.55,0,0,0,2.12-1.07,6.35,6.35,0,0,0,1.25-4Z"/><path class="cls-2" d="M172.69,207.15v15.77h2.91a2.2,2.2,0,0,1,1.49.4,1.37,1.37,0,0,1,.44,1.05,1.34,1.34,0,0,1-.44,1,2.2,2.2,0,0,1-1.49.4h-8.7a2.18,2.18,0,0,1-1.48-.4,1.45,1.45,0,0,1,0-2.08,2.18,2.18,0,0,1,1.48-.4h2.91v-12l-2.57.67a4,4,0,0,1-.93.17,1.23,1.23,0,0,1-.94-.44,1.49,1.49,0,0,1-.4-1.06,1.29,1.29,0,0,1,.29-.91,2.68,2.68,0,0,1,1.24-.58Z"/><path class="cls-2" d="M190,207.15v15.77h2.91a2.2,2.2,0,0,1,1.49.4,1.37,1.37,0,0,1,.44,1.05,1.34,1.34,0,0,1-.44,1,2.2,2.2,0,0,1-1.49.4h-8.7a2.18,2.18,0,0,1-1.48-.4,1.45,1.45,0,0,1,0-2.08,2.18,2.18,0,0,1,1.48-.4h2.91v-12l-2.57.67a4,4,0,0,1-.93.17,1.23,1.23,0,0,1-.94-.44,1.49,1.49,0,0,1-.4-1.06,1.29,1.29,0,0,1,.29-.91,2.68,2.68,0,0,1,1.24-.58Z"/><path class="cls-2" d="M212.05,215.11v3.16a9.94,9.94,0,0,1-1.62,5.38,5.16,5.16,0,0,1-4.64,2.57,5.37,5.37,0,0,1-2.95-.76,7.24,7.24,0,0,1-2.28-2.83,9.34,9.34,0,0,1-1.07-4.36v-3.16a10,10,0,0,1,1.62-5.38,5.15,5.15,0,0,1,4.63-2.58,5.41,5.41,0,0,1,2.93.76,7.28,7.28,0,0,1,2.29,2.82A9.17,9.17,0,0,1,212.05,215.11Zm-2.89,0a6.67,6.67,0,0,0-1.31-4.1,2.48,2.48,0,0,0-2.09-1,2.59,2.59,0,0,0-2.14,1.06,6.39,6.39,0,0,0-1.25,4v3.16a6.6,6.6,0,0,0,1.32,4.1,2.47,2.47,0,0,0,2.1,1,2.56,2.56,0,0,0,2.12-1.07,6.35,6.35,0,0,0,1.25-4Z"/><path class="cls-2" d="M160.24,190.05v3.16a9.94,9.94,0,0,1-1.62,5.38,5.16,5.16,0,0,1-4.64,2.57,5.39,5.39,0,0,1-2.95-.76,7.14,7.14,0,0,1-2.27-2.83,9.23,9.23,0,0,1-1.08-4.36v-3.16a10,10,0,0,1,1.62-5.38,5.15,5.15,0,0,1,4.63-2.58,5.41,5.41,0,0,1,2.93.76,7.38,7.38,0,0,1,2.3,2.82A9.28,9.28,0,0,1,160.24,190.05Zm-2.89,0A6.67,6.67,0,0,0,156,186a2.46,2.46,0,0,0-2.09-1,2.59,2.59,0,0,0-2.14,1.06,6.39,6.39,0,0,0-1.25,4v3.16a6.6,6.6,0,0,0,1.32,4.1,2.47,2.47,0,0,0,2.1,1,2.55,2.55,0,0,0,2.12-1.07,6.35,6.35,0,0,0,1.25-4Z"/><path class="cls-2" d="M172.69,182.09v15.77h2.91a2.2,2.2,0,0,1,1.49.4,1.37,1.37,0,0,1,.44,1.05,1.34,1.34,0,0,1-.44,1,2.2,2.2,0,0,1-1.49.4h-8.7a2.18,2.18,0,0,1-1.48-.4,1.45,1.45,0,0,1,0-2.08,2.18,2.18,0,0,1,1.48-.4h2.91v-12l-2.57.67a4,4,0,0,1-.93.17,1.23,1.23,0,0,1-.94-.44,1.49,1.49,0,0,1-.4-1.06,1.29,1.29,0,0,1,.29-.91,2.68,2.68,0,0,1,1.24-.58Z"/><path class="cls-2" d="M194.78,190.05v3.16a9.94,9.94,0,0,1-1.62,5.38,5.16,5.16,0,0,1-4.64,2.57,5.39,5.39,0,0,1-3-.76,7.14,7.14,0,0,1-2.27-2.83,9.23,9.23,0,0,1-1.08-4.36v-3.16a10,10,0,0,1,1.62-5.38,5.15,5.15,0,0,1,4.63-2.58,5.41,5.41,0,0,1,2.93.76,7.38,7.38,0,0,1,2.3,2.82A9.28,9.28,0,0,1,194.78,190.05Zm-2.89,0a6.67,6.67,0,0,0-1.31-4.1,2.46,2.46,0,0,0-2.09-1,2.59,2.59,0,0,0-2.14,1.06,6.39,6.39,0,0,0-1.25,4v3.16a6.6,6.6,0,0,0,1.32,4.1,2.47,2.47,0,0,0,2.1,1,2.55,2.55,0,0,0,2.12-1.07,6.35,6.35,0,0,0,1.25-4Z"/><path class="cls-2" d="M212.05,190.05v3.16a9.94,9.94,0,0,1-1.62,5.38,5.16,5.16,0,0,1-4.64,2.57,5.37,5.37,0,0,1-2.95-.76,7.24,7.24,0,0,1-2.28-2.83,9.34,9.34,0,0,1-1.07-4.36v-3.16a10,10,0,0,1,1.62-5.38,5.15,5.15,0,0,1,4.63-2.58,5.41,5.41,0,0,1,2.93.76,7.28,7.28,0,0,1,2.29,2.82A9.17,9.17,0,0,1,212.05,190.05Zm-2.89,0a6.67,6.67,0,0,0-1.31-4.1,2.48,2.48,0,0,0-2.09-1,2.59,2.59,0,0,0-2.14,1.06,6.39,6.39,0,0,0-1.25,4v3.16a6.6,6.6,0,0,0,1.32,4.1,2.47,2.47,0,0,0,2.1,1,2.56,2.56,0,0,0,2.12-1.07,6.35,6.35,0,0,0,1.25-4Z"/></g><path class="cls-3" d="M193.73,377.63s2.78,46.75,2.77,49.05,2.21,55.49,2.21,55.49H180"/><polyline class="cls-3" points="236.41 377.63 233.41 429.9 231.43 482.17 249.04 482.17"/><rect class="cls-4" x="126.49" y="251.98" width="171.26" height="38.29" rx="12"/><ellipse class="cls-5" cx="213.68" cy="380.44" rx="63.04" ry="27.19"/><ellipse class="cls-6" cx="213.04" cy="145.38" rx="75.26" ry="29.88"/><path class="cls-7" d="M137.78,145.38c0,16.5,33.7,29.88,75.26,29.88s75.26-13.38,75.26-29.88c0,0,.44,216.62,0,221.3-1.54,16.43-33.69,29.88-75.26,29.88s-75.26-13.38-75.26-29.88Z"/><path class="cls-8" d="M150.65,364.51V162.07a67.79,67.79,0,0,0,7.91,3.89v221.3a66.85,66.85,0,0,1-7.9-3.89Z"/><path class="cls-8" d="M185.42,350.29V173.11c-2.71-.42-5.35-.91-7.9-1.45V393c2.56.55,5.2,1,7.91,1.46Z"/><path class="cls-8" d="M220,392.4V175.26q-3.45.12-7,.12h-.92v221.3H213q3.54,0,7-.13Z"/><polygon class="cls-8" points="241.04 394.4 241.04 173.14 248.95 171.66 248.95 392.88 241.04 394.4"/><path class="cls-8" d="M268.81,367.92v18.51c2.38-1.13,6.34-3.29,7.91-4.29V161.39a83.69,83.69,0,0,1-7.91,4.05"/><path class="cls-4" d="M135.15,312.15v55c0,16.5,35.18,29.87,78.58,29.87s77-13.45,78.59-29.87c.15-1.54.21-25.9.21-57.94l-.21-37.77c0,16.5-35.18,29.88-78.59,29.88s-78.58-13.38-78.58-29.88Z"/><path class="cls-9" d="M157.71,196.33a3.48,3.48,0,0,1-3.26-4.66c3-8.2,12.82-16.41,25.92-16.41h.43a3.47,3.47,0,0,1,3.42,3.52,3.42,3.42,0,0,1-3.52,3.42h-.34c-11,0-17.71,7.23-19.38,11.84A3.49,3.49,0,0,1,157.71,196.33Z"/><path class="cls-9" d="M268.79,196.33a3.49,3.49,0,0,1-3.26-2.29c-1.69-4.66-8.54-12-19.73-11.84a3.47,3.47,0,0,1-.09-6.94h.43c13.09,0,22.93,8.21,25.92,16.41a3.48,3.48,0,0,1-3.27,4.66Z"/><path class="cls-10" d="M174.42,252.21c0,.22,0,.44,0,.67,0,17.4,17.85,31.5,39.86,31.5s39.86-14.1,39.86-31.5c0-.23,0-.45,0-.67Z"/><path class="cls-11" d="M174.33,252c0,.22,0,.6,0,.82a25.69,25.69,0,0,0,2.38,10.76h75.14a25.69,25.69,0,0,0,2.38-10.76c0-.22,0-.6,0-.82Z"/><path class="cls-12" d="M214.26,284.38a46.66,46.66,0,0,0,24.93-6.93,31.36,31.36,0,0,0-4.76-3.92c-8.13-5.47-17.44-6.38-22.9-2.78-7.78-2.72-15.37-1.56-18.77,3.5a10.12,10.12,0,0,0-1.6,4.29A47.2,47.2,0,0,0,214.26,284.38Z"/><circle class="cls-11" cx="183.42" cy="217.82" r="20.04"/><path class="cls-10" d="M190.61,217.82a7.19,7.19,0,1,1-7.19-7.19A7.19,7.19,0,0,1,190.61,217.82Z"/><circle class="cls-11" cx="241.19" cy="217.82" r="20.04"/><path class="cls-10" d="M248.37,217.82a7.19,7.19,0,1,1-7.18-7.19A7.18,7.18,0,0,1,248.37,217.82Z"/><g id="mask"><circle class="cls-13" cx="242.22" cy="217.58" r="24.42" transform="translate(-31.73 41.61) rotate(-9.22)"/><circle class="cls-14" cx="183.08" cy="217.58" r="24.42" transform="translate(-72.75 341.73) rotate(-75.81)"/><polygon class="cls-15" points="157.66 218.02 137.78 208.71 137.78 204.44 159.03 215.09 157.66 218.02"/><polygon class="cls-15" points="267.55 218.02 288.5 208.69 288.5 205.15 266.18 215.09 267.55 218.02"/><path class="cls-15" d="M157,217.8a26.06,26.06,0,0,0,51.77,4.27l.13-.76h7.53l.12.76a26.09,26.09,0,1,0-.33-5.14l0,.87h-7.06l0-.87a26.06,26.06,0,0,0-52.11.87Zm69.32-15.94a22.54,22.54,0,0,1,31.88,31.88h0a22.54,22.54,0,1,1-31.88-31.88Zm-43.26-6.6A22.54,22.54,0,0,1,199,233.74h0a22.55,22.55,0,1,1-15.95-38.48Z"/><path class="cls-16" d="M224.9,206.9c3.54-5.34,7.14-6.81,7.14-6.81l2.78,2.11a22.38,22.38,0,0,0-5.74,6.29,19.17,19.17,0,0,0-2.6,7l-4.6-.9A17.83,17.83,0,0,1,224.9,206.9Z"/><path class="cls-17" d="M165.78,206.9c3.54-5.34,7-6.81,7-6.81l2.91,2.11a22.38,22.38,0,0,0-5.74,6.29,19.17,19.17,0,0,0-2.6,7l-4.6-.9A17.83,17.83,0,0,1,165.78,206.9Z"/></g><path class="cls-3" d="M138.77,297.25h0s-29.52,20.55-23.39,34.2"/><path class="cls-18" d="M73.31,350.81v.06h0a.14.14,0,0,1,0-.06m-.08-.79a2.28,2.28,0,0,0,0,.37,2.28,2.28,0,0,1,0-.37"/><path class="cls-19" d="M21.12,297.76c-.9-1.33-1.43-4.14,3.78-5.29C30.64,291.21,21.77,298.74,21.12,297.76Z"/><polyline class="cls-20" points="136.89 332.26 173.47 320.95 69.98 342.58 136.89 332.26"/><rect class="cls-19" x="133.72" y="326.33" width="42.71" height="4.27" rx="1.6" transform="translate(-84.85 55.75) rotate(-16.07)"/><path class="cls-21" d="M134.72,335v0a1.74,1.74,0,0,0,2.25.92l37.38-10.76a1.75,1.75,0,0,0,1.41-2v0Z"/><polyline class="cls-22" points="137.61 327.97 138.19 328.83 138.41 329.16 173.47 320.95 137.61 327.97"/><path class="cls-23" d="M139.11,330.23s2,3.29-2.46,5.68C133,337.89,136.24,331,139.11,330.23Z"/><path class="cls-19" d="M137,334.2,61.48,350.49a2.87,2.87,0,0,1-3-1.2L23.12,296.91a2.88,2.88,0,0,1,1.78-4.44l75.56-16.29a2.88,2.88,0,0,1,3,1.21l35.36,52.38A2.88,2.88,0,0,1,137,334.2"/><path class="cls-24" d="M135.82,336.23,60.26,352.52a2.88,2.88,0,0,1-3-1.21L21.19,297.87a2,2,0,0,1,1.25-3.11L99.25,278.2a2.9,2.9,0,0,1,3,1.21l35.36,52.38a2.89,2.89,0,0,1-1.79,4.44"/><polyline class="cls-25" points="115.16 298.55 116.78 300.93 115.16 298.55"/><polyline class="cls-26" points="101.2 343.69 101.2 343.69 101.24 343.68 101.24 343.68 101.2 343.69"/><polygon class="cls-19" points="76.39 311.01 76.19 314.83 77.33 315.08 77.4 313.66 81.32 317.83 81.52 314.03 80.35 313.76 80.27 315.15 76.39 311.01"/><path class="cls-19" d="M83.33,310.42A10.08,10.08,0,0,0,78,308.29a7.65,7.65,0,0,0-2.77.26A5.5,5.5,0,0,0,73,309.72a4.43,4.43,0,0,0-1.23,1.83,4.59,4.59,0,0,0-.19,2.25,6.21,6.21,0,0,0,.93,2.41,8.8,8.8,0,0,0,1.93,2.13A10.3,10.3,0,0,0,77,319.8a9.73,9.73,0,0,0,2.81.66,7.66,7.66,0,0,0,2.77-.25A5.51,5.51,0,0,0,84.77,319,4.39,4.39,0,0,0,86,317.2,4.67,4.67,0,0,0,86.2,315a6.19,6.19,0,0,0-.93-2.42A8.61,8.61,0,0,0,83.33,310.42Zm-1.32,9-3.91-4.16,0,.55-2.71-.59.33-5.84,3.91,4.17,0-.55,2.64.57Z"/><line class="cls-3" x1="100.42" y1="343.26" x2="87.6" y2="345.78"/><line class="cls-3" x1="94.37" y1="343.83" x2="91.92" y2="340.15"/><line class="cls-3" x1="87.6" y1="345.78" x2="85.15" y2="342.1"/><line class="cls-3" x1="101.05" y1="343.03" x2="98.59" y2="339.35"/><path class="cls-3" d="M328.79,339h0s-25.37,1.83-32.21-11.48c-10.12-19.68-10.13-30.17-10.13-30.17"/><line class="cls-3" x1="333.45" y1="340.75" x2="325.06" y2="340.91"/><line class="cls-3" x1="333.66" y1="334.74" x2="325.27" y2="334.9"/><line class="cls-3" x1="324.53" y1="324.54" x2="323.92" y2="344.28"/><line class="cls-3" x1="333.45" y1="344.36" x2="325.06" y2="344.52"/><path class="cls-27" d="M268.33,165.65c-1.8-37.39-105.82-35.92-109.15.54C186.45,178.4,241.26,178,268.33,165.65Z"/><path class="cls-11" d="M214.26,315.42a33.6,33.6,0,1,0,33.6,33.6A33.6,33.6,0,0,0,214.26,315.42Zm0,62.89c-5.28,0-9.56-3.53-9.56-7.88h19.12C223.82,374.78,219.54,378.31,214.26,378.31Zm15.79-10.49H198.47V362.1h31.58v5.72Zm-.11-8.67H198.56l-.31-.36a23,23,0,0,1-4.73-8.07c0-.06,3.92.81,6.7,1.43,0,0,1.44.34,3.54.72a13.07,13.07,0,0,1-3.21-8.43c0-6.74,5.16-12.62,3.3-17.38,1.81.15,3.75,3.83,3.88,9.58,1.93-2.66,2.74-7.53,2.74-10.51s2-6.68,4.07-6.8c-1.81,3,.47,5.55,2.5,11.92.76,2.39.67,6.41,1.25,9,.2-5.3,1.11-13,4.47-15.7-1.48,3.36.22,7.57,1.38,9.59,1.88,3.26,3,5.73,3,10.4a13,13,0,0,1-3.11,8.39c2.22-.41,3.75-.79,3.75-.79l7.21-1.4A20.5,20.5,0,0,1,229.94,359.15Z"/></svg>