<svg id="Layer_1" data-name="Layer 1" xmlns="http://www.w3.org/2000/svg" xmlns:xlink="http://www.w3.org/1999/xlink" viewBox="0 0 432 576"><defs><style>.cls-1{fill:#d97818;}.cls-2{fill:url(#_ÂÁ_Ï_ÌÌ_È_ËÂÌÚ_130);}.cls-3{fill:url(#_ÂÁ_Ï_ÌÌ_È_ËÂÌÚ_389);}.cls-14,.cls-4{fill:#e8003d;}.cls-4{stroke:#e8003d;stroke-miterlimit:10;}.cls-5{fill:url(#_ÂÁ_Ï_ÌÌ_È_ËÂÌÚ_285);}.cls-6{fill:url(#_ÂÁ_Ï_ÌÌ_È_ËÂÌÚ_389-2);}.cls-7{fill:#fed223;}.cls-8{fill:none;stroke:#000;stroke-linecap:round;stroke-linejoin:round;stroke-width:8px;}.cls-9{fill:#d04;}.cls-10{fill:#2d313f;}.cls-11{fill:#fbd82b;}.cls-12{fill:#ffe278;}.cls-13{fill:#fff;}.cls-15{fill:#701d1d;}.cls-16{fill:#fefcf9;}.cls-17{fill:#f70000;}.cls-18{fill:#b57817;}</style><linearGradient id="_ÂÁ_Ï_ÌÌ_È_ËÂÌÚ_130" x1="210.58" y1="35.77" x2="210.58" y2="121.4" gradientUnits="userSpaceOnUse"><stop offset="0.25" stop-color="#526470"/><stop offset="0.45" stop-color="#4b5c67"/><stop offset="0.78" stop-color="#37454f"/><stop offset="1" stop-color="#27333b"/></linearGradient><linearGradient id="_ÂÁ_Ï_ÌÌ_È_ËÂÌÚ_389" x1="210.58" y1="89.01" x2="210.58" y2="35.77" gradientUnits="userSpaceOnUse"><stop offset="0.25" stop-color="#dbdbdb"/><stop offset="0.43" stop-color="#d2d5d6"/><stop offset="0.71" stop-color="#bac4ca"/><stop offset="1" stop-color="#9bafba"/></linearGradient><linearGradient id="_ÂÁ_Ï_ÌÌ_È_ËÂÌÚ_285" x1="209.62" y1="183.19" x2="209.62" y2="129.74" gradientUnits="userSpaceOnUse"><stop offset="0.25" stop-color="#f55151"/><stop offset="0.44" stop-color="#f75a5a"/><stop offset="0.75" stop-color="#fb7272"/><stop offset="1" stop-color="#ff8a8a"/></linearGradient><linearGradient id="_ÂÁ_Ï_ÌÌ_È_ËÂÌÚ_389-2" x1="209.57" y1="149.83" x2="209.57" y2="117.61" xlink:href="#_ÂÁ_Ï_ÌÌ_È_ËÂÌÚ_389"/></defs><path class="cls-1" d="M285.27,154.74l-22.36,6.31-17-10.16L222.4,161.05l-20.46-8.51-19.55,5.6s-20.65-9.55-22-8.89-7.17,9.22-8.86,8.89-16.81-3.4-16.81-3.4l16.81,16.69,51.84,11.76,42.51-5.6,31.83-6.84Z"/><g id="Exploding_Head_Gradients" data-name="Exploding Head — Gradients"><g id="Face"><path class="cls-2" d="M324,82.06A22.86,22.86,0,0,1,293.66,104a22.91,22.91,0,0,1-38.83,3.75,23.06,23.06,0,0,1-41.94.46,23.05,23.05,0,0,1-43.5-5.46A23.05,23.05,0,0,1,127.5,104,23.08,23.08,0,1,1,120,59a23.14,23.14,0,0,1,34.07-10,23,23,0,0,1,37.17-2.55,22.94,22.94,0,0,1,36.75-2.59,22.82,22.82,0,0,1,15-5.69,23.06,23.06,0,0,1,19.53,10.83,23.16,23.16,0,0,1,34.25,10.41,23.89,23.89,0,0,1,4.07-.41A23.15,23.15,0,0,1,324,82.06Z"/><path class="cls-3" d="M300.83,58.92a23.89,23.89,0,0,0-4.07.41,23.16,23.16,0,0,0-34.25-10.41A23.06,23.06,0,0,0,243,38.09a22.82,22.82,0,0,0-15,5.69,22.94,22.94,0,0,0-36.75,2.59A23,23,0,0,0,154,48.92,23.14,23.14,0,0,0,120,59a23.09,23.09,0,0,0-21.7,30,23.14,23.14,0,0,1,21.44-16.17,18.49,18.49,0,0,1,34.9-.75,18.49,18.49,0,0,1,32-.93,18.55,18.55,0,0,0-12.2-11.71,18.46,18.46,0,0,1,25.41,1.05,18.5,18.5,0,0,1,32.46,5.64,18.49,18.49,0,0,1,32.79,2l.07-.26a18.45,18.45,0,0,1,25.75-6.73,18.49,18.49,0,0,0-8.18,8,18.49,18.49,0,0,1,30.52,7.28A23.28,23.28,0,0,1,322.91,89a23.14,23.14,0,0,0-22.08-30.09Z"/><path class="cls-4" d="M231.06,101.87a17.18,17.18,0,0,1-4.68.66,17.75,17.75,0,0,1-16.51-11.46c-3.51,4.41-10.9,7.55-19.64,8-.5,12.75-3.23,46-18.1,74.65l27.66,9.5L247,169.61C234.83,143.91,231.81,115.51,231.06,101.87Z"/><path class="cls-5" d="M204.65,129.74c-3.52,14.48-8.12,31.07-17.8,49l12.94,4.45,32.6-9.37c-6.58-10.46-11.11-27-15.56-44.08Z"/><path class="cls-6" d="M243,123.68a95,95,0,0,0-66.81,0A14.14,14.14,0,0,0,168,142.11a14.14,14.14,0,0,0,7.16,5.73c1.88.68,3.94,1.35,6.09,2,1.39-4.39,2.64-8.75,3.63-13,16.46-8.19,33.57-8.53,51.45,0,.95,4,2.12,8.21,3.43,12.41,1.48-.47,2.92-1,4.27-1.43a14.22,14.22,0,0,0,7.14-5.72A14.12,14.12,0,0,0,243,123.68Z"/><path class="cls-7" d="M308.62,119.73l11.11,30.4L299.26,153S293.25,133.48,308.62,119.73Z"/><path class="cls-1" d="M308.62,119.73l-6.1-.9c-7.5,6.37-11.2,12.1-7.68,29.87l4.42,4.25S293.25,133.48,308.62,119.73Z"/><path class="cls-7" d="M108.26,149.57,97.18,115.79s-9.25,10.69-9,17.18l10,14.26Z"/><polygon class="cls-1" points="103.62 117.89 97.18 115.79 108.26 149.57 114.58 142.65 103.62 117.89"/><polygon class="cls-1" points="135.91 118.11 149.87 135.94 135.04 144.23 132.23 140.38 126.46 142.61 130.28 123.32 135.91 118.11"/><polygon class="cls-7" points="135.91 118.11 132.76 116.89 123.63 120.37 123.11 140.18 126.46 142.61 130.28 123.32 135.91 118.11"/><polygon class="cls-7" points="132.23 140.38 129.51 141.43 135.04 144.23 132.23 140.38"/><polygon class="cls-7" points="236.09 106.2 261.48 132.72 267.69 129.42 258.32 97.78 236.09 106.2"/><polygon class="cls-1" points="264.32 100.43 258.32 97.78 267.69 129.42 270.37 124.04 264.32 100.43"/><polygon class="cls-7" points="323.98 82.06 310.45 89.01 325.89 116.89 331.53 116.89 323.98 82.06"/><polygon class="cls-1" points="320.99 79.92 315.92 81.95 310.45 89.01 323.98 82.06 320.99 79.92"/><polygon class="cls-7" points="131.11 93.18 143.57 59.37 156.27 72.96 142.6 93.18 131.11 93.18"/><polygon class="cls-1" points="151.29 60.88 143.57 59.37 156.27 72.96 142.6 93.18 149.98 89.95 162.18 74.21 151.29 60.88"/></g></g><polyline class="cls-8" points="236.08 394.35 222.18 480.12 242.49 480.12"/><polyline class="cls-8" points="186.59 394.35 196.55 480.12 176.24 480.12"/><rect class="cls-9" x="123.45" y="254.89" width="171.26" height="38.29" rx="12"/><ellipse class="cls-10" cx="210.65" cy="383.34" rx="63.04" ry="27.19"/><path class="cls-11" d="M285.27,376c.44-4.67,0-221.3,0-221.3L265.78,169l-24.91-5.6L209.08,176.6l-39.43-15.55-18.09,6-16.81-12.3V376"/><path class="cls-12" d="M147.61,164.15V386.27a63.36,63.36,0,0,0,7.91,3.89V165.73l-4,1.31Z"/><path class="cls-12" d="M174.48,168.16v227.7q3.83.81,7.91,1.46V166.07L174.48,163Z"/><path class="cls-12" d="M209.08,178.29v221.3H210q3.54,0,7-.13V173.32l-7.91,3.28Z"/><polygon class="cls-12" points="238 397.31 238 164.61 240.87 163.42 245.91 164.63 245.91 395.79 238 397.31"/><path class="cls-12" d="M265.78,169V389.34c2.37-1.13,6.33-3.29,7.91-4.29V163.22"/><path class="cls-4" d="M131.49,314.43v55c0,16.5,35.19,29.88,78.59,29.88s77-13.45,78.59-29.88c.15-1.53.2-25.89.2-57.93l-.2-37.78c0,16.5-35.19,29.88-78.59,29.88s-78.59-13.38-78.59-29.88Z"/><path class="cls-13" d="M213.05,315.88l-22,33.45,12.49,8.17,2.06-3.15,6.51,31.09,21.65-33.65-12.13-7.94L219.58,347Zm9.87,33.57,5.32,3.59L214,374.86,207.5,343.7l-5.31,8.11L197,348.39l14.3-21.88,6.47,30.89Z"/><rect class="cls-14" x="130.96" y="292.29" width="12.6" height="20.93"/><ellipse class="cls-15" cx="212.77" cy="264.49" rx="21.71" ry="19.43"/><circle class="cls-16" cx="240.87" cy="222.1" r="15.77"/><circle class="cls-15" cx="241.12" cy="221.41" r="8.18"/><circle class="cls-16" cx="180.63" cy="222.1" r="15.77"/><circle class="cls-15" cx="180.63" cy="221.41" r="8.18"/><path class="cls-8" d="M283.52,311.18c7.86,8.48,7.86,8.48,11.09,20.1s4,23.73,4,35.74c0,6.08-.43,12.45-3.5,17.65"/><path class="cls-8" d="M290.24,378.72l8.05-4.7s7,9.87,6.39,9.56"/><path class="cls-8" d="M126.05,384.67c-3.06-5.2-3.48-11.57-3.49-17.65,0-12,.7-24.19,4-35.74s4.94-13,13.07-21.42"/><path class="cls-8" d="M116.48,383.58c-.65.31,6.39-9.56,6.39-9.56l8,4.7"/><ellipse class="cls-17" cx="212.94" cy="271.89" rx="12.16" ry="6.93"/><path class="cls-18" d="M161.91,204.58a3.94,3.94,0,0,1-3.69-5.27c3.38-9.28,14.51-18.57,29.32-18.57H188a3.93,3.93,0,0,1-.11,7.86c-12.64-.16-20.4,8.12-22.32,13.39A3.93,3.93,0,0,1,161.91,204.58Z"/><path class="cls-18" d="M263.68,204.58A3.94,3.94,0,0,1,260,202c-1.89-5.22-9.51-13.4-21.93-13.4h-.44a3.93,3.93,0,0,1-.05-7.86H238c14.82,0,26,9.29,29.33,18.57a3.94,3.94,0,0,1-3.69,5.27Z"/></svg>