<svg id="Layer_1" data-name="Layer 1" xmlns="http://www.w3.org/2000/svg" viewBox="0 0 432 576"><defs><style>.cls-1,.cls-11,.cls-12,.cls-2{fill:none;}.cls-1,.cls-2{stroke:#000;}.cls-1,.cls-12,.cls-2{stroke-linecap:round;stroke-linejoin:round;}.cls-1{stroke-width:10px;}.cls-12,.cls-2{stroke-width:8px;}.cls-3{fill:#161616;stroke:#161616;}.cls-10,.cls-11,.cls-3,.cls-9{stroke-miterlimit:10;}.cls-4{fill:#feaf06;}.cls-5{fill:#2d313f;}.cls-6{fill:#fbd82b;}.cls-7{fill:#ffe278;}.cls-8{fill:#3679ff;}.cls-9{fill:#e8003d;stroke:#e8003d;}.cls-10{fill:#00f262;}.cls-10,.cls-11{stroke:#00cc52;stroke-width:5px;}.cls-12{stroke:#701d1d;}.cls-13{fill:#e6e6e6;}.cls-14{fill:#a57e77;}.cls-15{fill:#ffc32a;}.cls-16{fill:#fff;}.cls-17{fill:#ffb400;}.cls-18{fill:#999;}.cls-19{fill:#642612;}.cls-20{opacity:0.18;}.cls-21{fill:#fefcf9;}.cls-22{fill:#701d1d;}.cls-23{fill:#b57817;}</style></defs><path class="cls-1" d="M261,334.51l32.7-5.86a49.5,49.5,0,0,0,30.08-23.34,138.28,138.28,0,0,0,14.34-36.8"/><polyline class="cls-1" points="329.37 251.86 329.37 268.67 345.25 267.51 345.32 252.27"/><line class="cls-1" x1="335.11" y1="263.4" x2="335.11" y2="268.9"/><line class="cls-1" x1="340.22" y1="263.35" x2="340.22" y2="268.86"/><line class="cls-1" x1="328.68" y1="268.09" x2="322.01" y2="263.4"/><polyline class="cls-2" points="235.94 391.11 248.95 478.12 266.52 478.12"/><polyline class="cls-2" points="203.69 386.67 195.81 478.12 175.23 478.12"/><rect class="cls-3" x="128.95" y="265.3" width="173.96" height="33.68" rx="12"/><ellipse class="cls-4" cx="216.85" cy="154.09" rx="75.26" ry="29.88"/><ellipse class="cls-5" cx="217.49" cy="389.15" rx="63.04" ry="27.19"/><path class="cls-6" d="M141.59,154.09c0,16.5,33.7,29.88,75.26,29.88s75.26-13.38,75.26-29.88c0,0,.44,216.63,0,221.3-1.54,16.43-33.69,29.88-75.26,29.88s-75.26-13.38-75.26-29.88Z"/><path class="cls-7" d="M154.46,373.22V170.78a65.33,65.33,0,0,0,7.9,3.89V396a65.33,65.33,0,0,1-7.9-3.89Z"/><path class="cls-7" d="M189.24,359V181.83c-2.71-.43-5.35-.92-7.9-1.46v221.3c2.55.54,5.19,1,7.9,1.45Z"/><path class="cls-7" d="M223.84,401.11V184q-3.45.14-7,.13h-.92V405.4h.92c2.36,0,4.69,0,7-.13Z"/><polygon class="cls-7" points="244.85 403.11 244.85 181.86 252.76 180.38 252.76 401.6 244.85 403.11"/><path class="cls-7" d="M280.53,376.63V170.1a81.39,81.39,0,0,1-7.91,4.05v221c2.38-1.13,6.34-3.29,7.91-4.29Z"/><path class="cls-3" d="M138.34,320.24v55c0,16.5,35.18,29.88,78.58,29.88s77-13.45,78.59-29.88c.15-1.53.21-25.89.21-57.93l-.21-37.78c0,16.5-35.18,29.88-78.59,29.88S138.34,296,138.34,279.5Z"/><path class="cls-8" d="M166.19,301.85s-8.38-2.82-11.68-4.74c0,0-3.49-24.24,10.39-54.57,0,0-3.09,1.84-7.35,4.73-2.17,1.47,4.39-.61,1.87,1.31-2.86,2.17-4.53,7.66-5,11.95L142,247.47s15.79-52.55,32.64-68.61c16.08,3.64,13.16,2.68,13.16,2.68-10.27,9.06,13.21,30.42,3.25,46l-24.88,74.33"/><path class="cls-9" d="M187.41,181.54c-16.85,16.05-34.54,74.58-34.54,74.58l1.59,3.37c9.51-8.92,23.19-14.27,23.19-14.27-13.88,30.33-11.2,54.75-11.2,54.75,27.75-65.62,64.33-92.42,64.33-92.42-11.9-.2-33.9,17.25-33.9,17.25,10-15.56,28.49-32.71,38.77-41.77C235.65,183,203.5,185.17,187.41,181.54Z"/><path class="cls-10" d="M140.44,259.34s0-49.15,1.48-53.84,2-8.4,2.72-8.9,24-12.84,24.94-12.84,23,7.41,38.29,2.72l9.46-5.44a15.84,15.84,0,0,0,10,3.21s22.48-2.22,25.44-7.65c0,0,10.13,7.65,14.33,8.15,0,0,8.15,3,11.85,17.78s5.68,35.32,10.87,45.2,4.2,13.83,4.2,13.83l12.35-20.74s-3.95-33.1-3.95-35.82,8.15-25.93,6.91-32.35-2.72-10.87-3.46-12.11-1.23-9.63-1.23-9.63-1.24-4.2-.49-5.19,1-4.44,1-4.44l-1.73-3.21s-2.47-2.72-2.47-4-1.72-4-1.72-4L297,127.69l-3.21-1.48-4.44-1-3-3.21,3.21-4-4.94-5.19-3.7-1.48h-8.15c2.71,0,2.47-4,3.21-4.44s1-2.72,1-2.72l-4.94-3.71-2.72-2L257,94.6h-4.69l-4.45,1.48-9.39-3.71h-5.92l-5.19-1.48-4.2-1H198.73l-5.68,2.72-7.17,2.47-6.66-2.72s-3.46-1.48-3.46-.74-1.48,6.42-1.48,6.42l-4.2,1.49-4.2-1.49-3.71,4.7s-1,2.47-1.73,2.47a16.79,16.79,0,0,0-3,.74v4.69l1,2.72-4.94-.74-3-2.23-1.72,8.15-4,2.47-2,3.46-6.42,2.22s-4.7,4-4,4.94-.08,3.71-.08,3.71l-5.6,5.19-3.95,7.16a17.89,17.89,0,0,1,0,3.7c-.25.75-1.73,6.43-1.73,6.43v8.39l-1.73,8.4s4.94,5.68,5.68,6.18,3.46,12.84,3.71,13.58,2.72,13.83,2.72,13.83-.5,18.53-.25,19.52.74,12.1,1,13.09.24,7.16.24,7.16Z"/><path class="cls-11" d="M169.58,183.76s-39.76-26.18-42.73-43.22"/><path class="cls-11" d="M158.47,113.37s24.46,55.89,54.71,70"/><path class="cls-11" d="M252.82,176.6S196,125,210.83,89.9"/><path class="cls-11" d="M286.41,122s-23.9,23.15-16.52,64.43"/><path class="cls-11" d="M308.46,168.37s-29.73,11.2-28.48,38.36"/><path class="cls-12" d="M234.62,271.59c-3.67,4.24-10.06,4.51-15.66,4.21-4.87-.26-9.81-.72-14.39-2.41-5.27-1.95-9.81-5.43-14.26-8.85l-6.23-4.8"/><path class="cls-13" d="M372,280.22a1.28,1.28,0,0,0-.52-1.33,11.1,11.1,0,0,0-2.4-1,1.29,1.29,0,0,0-1.33.53,11.1,11.1,0,0,0-1,2.4,1.29,1.29,0,0,0,.53,1.33,10.82,10.82,0,0,0,2.39,1,1.28,1.28,0,0,0,1.33-.53A10.44,10.44,0,0,0,372,280.22Z"/><path class="cls-13" d="M378.91,282.18a1.28,1.28,0,0,0-.52-1.33,11.1,11.1,0,0,0-2.4-1,1.29,1.29,0,0,0-1.33.53,10.82,10.82,0,0,0-1,2.39,1.28,1.28,0,0,0,.53,1.33,10.37,10.37,0,0,0,2.39,1,1.28,1.28,0,0,0,1.33-.52A10.63,10.63,0,0,0,378.91,282.18Z"/><path class="cls-13" d="M386.17,284.24a1.28,1.28,0,0,0-.52-1.33,11.1,11.1,0,0,0-2.4-1,1.28,1.28,0,0,0-1.33.52,11.1,11.1,0,0,0-1,2.4,1.28,1.28,0,0,0,.53,1.33,10.82,10.82,0,0,0,2.39,1,1.28,1.28,0,0,0,1.33-.52A10.63,10.63,0,0,0,386.17,284.24Z"/><path class="cls-13" d="M392.73,286a1.29,1.29,0,0,0-.53-1.33,10.89,10.89,0,0,0-2.4-1,1.29,1.29,0,0,0-1.33.53,11.1,11.1,0,0,0-1,2.4,1.29,1.29,0,0,0,.53,1.33,11.1,11.1,0,0,0,2.4,1,1.29,1.29,0,0,0,1.33-.53A10.89,10.89,0,0,0,392.73,286Z"/><path class="cls-13" d="M399.34,287.58a1.28,1.28,0,0,0-.52-1.33,11.1,11.1,0,0,0-2.4-1,1.28,1.28,0,0,0-1.33.53,10.26,10.26,0,0,0-1,2.4,1.28,1.28,0,0,0,.52,1.33,11.62,11.62,0,0,0,2.4,1,1.29,1.29,0,0,0,1.33-.53A11.1,11.1,0,0,0,399.34,287.58Z"/><path class="cls-13" d="M405.69,289.11a1.28,1.28,0,0,0-.53-1.33,11.1,11.1,0,0,0-2.4-1,1.28,1.28,0,0,0-1.33.52,11.1,11.1,0,0,0-1,2.4,1.28,1.28,0,0,0,.53,1.33,10.69,10.69,0,0,0,2.4,1,1.29,1.29,0,0,0,1.33-.52A11.62,11.62,0,0,0,405.69,289.11Z"/><path class="cls-8" d="M74,332.27s41.22,74.07,84.87,100.05c0,0,2.19.65,7.35-4.37s31.43-28.24,34.42-30.59,6.32-2.38,11.08-2.73,61.05-3.84,63.18-4a3.34,3.34,0,0,0,3.21-3c.19-1.3.9-3.52-3.63-5.77s-21.62-10.53-27.71-13.65c-6.83-3.51-12.89-8.32-1.78-17.69s-9.06-14.34-11.75-14.34-6.35-1.24-10.86-6.13-6.55-6.79-15.54-1.53-22.73,13.78-28.45,13.82S80,329.69,77.05,329.44,73.4,330,74,332.27Z"/><polygon class="cls-14" points="359.3 303.43 354.3 290.76 224.83 339.73 231.1 355.61 359.3 303.43"/><rect class="cls-15" x="356.72" y="289.89" width="2.15" height="13.62" transform="matrix(0.93, -0.37, 0.37, 0.93, -84, 152.25)"/><path class="cls-16" d="M194.66,353.37l16.67-6.58,7.36,18.61,14.08-5.56s1.71,6.42,12.73,11.28,26.63,12.05,27.68,12.53,2.45,1.38,2.33,3A2.23,2.23,0,0,1,273,388.6c-.78,0-89.58,3.88-89.58,3.88l-3.67-9.27s7.86-5,10.6-6.09,11.89-4.89,11.89-4.89Z"/><path class="cls-17" d="M255.32,384.81a2.39,2.39,0,1,0-3.11-1.34A2.39,2.39,0,0,0,255.32,384.81Z"/><circle class="cls-17" cx="178.25" cy="400.27" r="4.19"/><path class="cls-17" d="M164.25,404.75a4.19,4.19,0,1,0-5.44-2.36A4.2,4.2,0,0,0,164.25,404.75Z"/><path class="cls-17" d="M148.56,405.45a4.2,4.2,0,1,0-5.44-2.36A4.2,4.2,0,0,0,148.56,405.45Z"/><path class="cls-8" d="M356.47,290.4s5.49-2.35,5-9.51c0-.71,0-1.69,1.59-.95s44.4,12,46.45,12.9,8.49,6,7.27,11c-.72,2.94-6.22.86-7.21.74s-36.37-6.79-48.28-2Z"/><polygon class="cls-18" points="350.31 307.09 345.21 294.2 344.4 294.5 349.5 307.42 350.31 307.09"/><polygon class="cls-18" points="334.95 298.08 340.15 311.22 340.96 310.89 335.77 297.77 334.95 298.08"/><polygon class="cls-18" points="326.16 301.41 331.44 314.77 332.25 314.44 326.97 301.1 326.16 301.41"/><polygon class="cls-18" points="317.83 304.55 323.2 318.12 324 317.8 318.65 304.25 317.83 304.55"/><polygon class="cls-18" points="309.95 307.54 315.39 321.3 316.2 320.97 310.77 307.23 309.95 307.54"/><polygon class="cls-18" points="302.31 310.43 307.82 324.38 308.63 324.05 303.12 310.12 302.31 310.43"/><polygon class="cls-18" points="295.18 313.13 300.76 327.26 301.57 326.93 295.99 312.82 295.18 313.13"/><polygon class="cls-18" points="288.6 315.61 294.25 329.9 295.06 329.58 289.42 315.3 288.6 315.61"/><polygon class="cls-18" points="282.23 318.02 287.94 332.47 288.75 332.14 283.05 317.71 282.23 318.02"/><polygon class="cls-18" points="276.37 320.24 282.14 334.83 282.95 334.51 277.19 319.93 276.37 320.24"/><polygon class="cls-18" points="270.61 322.42 276.44 337.15 277.25 336.83 271.43 322.11 270.61 322.42"/><polygon class="cls-18" points="265.36 324.4 271.24 339.27 272.05 338.94 266.18 324.09 265.36 324.4"/><polygon class="cls-18" points="260.27 326.33 266.19 341.32 267 341 261.08 326.02 260.27 326.33"/><polygon class="cls-18" points="255.53 328.12 261.5 343.23 262.31 342.91 256.35 327.81 255.53 328.12"/><polygon class="cls-18" points="250.99 329.84 257.01 345.06 257.82 344.73 251.81 329.53 250.99 329.84"/><polygon class="cls-18" points="246.71 331.46 252.77 346.79 253.58 346.46 247.53 331.15 246.71 331.46"/><polygon class="cls-18" points="242.79 332.94 248.89 348.37 249.69 348.04 243.6 332.63 242.79 332.94"/><polygon class="cls-18" points="239.02 334.37 245.15 349.89 245.96 349.56 239.84 334.06 239.02 334.37"/><polygon class="cls-18" points="235.48 335.7 241.65 351.32 242.45 350.99 236.29 335.4 235.48 335.7"/><polygon class="cls-18" points="232.04 337.01 238.24 352.7 239.05 352.37 232.85 336.7 232.04 337.01"/><polygon class="cls-18" points="228.93 338.18 235.16 353.95 235.97 353.63 229.75 337.87 228.93 338.18"/><polygon class="cls-18" points="225.82 339.36 232.08 355.21 232.89 354.88 226.64 339.05 225.82 339.36"/><rect class="cls-15" x="212.48" y="337.32" width="16.16" height="27.2" rx="0.87" transform="translate(-113.53 105.61) rotate(-21.56)"/><path class="cls-19" d="M227,360.12a2.64,2.64,0,0,0,1.49-3.43l-6.09-15.43a2.65,2.65,0,0,0-3.44-1.49h0a2.64,2.64,0,0,0-1.49,3.43l6.1,15.44a2.64,2.64,0,0,0,3.43,1.48Z"/><path class="cls-18" d="M220.36,343.22a.79.79,0,1,0-1-.45A.79.79,0,0,0,220.36,343.22Z"/><path class="cls-18" d="M221.54,346.2a.79.79,0,0,0,.45-1,.8.8,0,0,0-1-.44.79.79,0,0,0,.58,1.46Z"/><path class="cls-18" d="M222.72,349.19a.79.79,0,1,0-1-.45A.79.79,0,0,0,222.72,349.19Z"/><path class="cls-18" d="M223.9,352.17a.79.79,0,1,0-1-.44A.79.79,0,0,0,223.9,352.17Z"/><circle class="cls-18" cx="224.79" cy="354.42" r="0.79"/><path class="cls-18" d="M226.26,358.14a.79.79,0,0,0,.44-1,.78.78,0,0,0-1-.44.79.79,0,0,0,.58,1.46Z"/><path class="cls-19" d="M222.12,362.07a2.64,2.64,0,0,0,1.49-3.43l-6.1-15.44a2.65,2.65,0,0,0-3.43-1.49h0a2.65,2.65,0,0,0-1.49,3.44l6.1,15.43a2.64,2.64,0,0,0,3.43,1.49Z"/><path class="cls-18" d="M215.44,345.16a.79.79,0,1,0-1-.44A.79.79,0,0,0,215.44,345.16Z"/><path class="cls-18" d="M216.62,348.15a.79.79,0,1,0-1-.45A.79.79,0,0,0,216.62,348.15Z"/><path class="cls-18" d="M217.8,351.13a.79.79,0,1,0-1-.44A.79.79,0,0,0,217.8,351.13Z"/><path class="cls-18" d="M219,354.12a.79.79,0,0,0-.58-1.47.79.79,0,0,0,.58,1.47Z"/><path class="cls-18" d="M220.16,357.1a.79.79,0,0,0-.58-1.46.79.79,0,1,0,.58,1.46Z"/><path class="cls-18" d="M221.34,360.09a.79.79,0,0,0-.58-1.47.79.79,0,1,0,.58,1.47Z"/><rect class="cls-15" x="182.02" y="349.36" width="16.16" height="27.2" rx="0.87" transform="translate(-120.08 95.26) rotate(-21.56)"/><path class="cls-19" d="M196.58,372.16a2.65,2.65,0,0,0,1.49-3.43L192,353.3a2.65,2.65,0,0,0-3.44-1.49h0a2.64,2.64,0,0,0-1.48,3.43l6.09,15.43a2.65,2.65,0,0,0,3.44,1.49Z"/><path class="cls-18" d="M189.9,355.26a.79.79,0,0,0-.58-1.47.79.79,0,0,0,.58,1.47Z"/><path class="cls-18" d="M191.08,358.24a.79.79,0,0,0,.44-1,.79.79,0,1,0-.44,1Z"/><path class="cls-18" d="M192.26,361.22a.79.79,0,1,0-1-.44A.78.78,0,0,0,192.26,361.22Z"/><path class="cls-18" d="M193.44,364.21a.79.79,0,1,0-1-.44A.79.79,0,0,0,193.44,364.21Z"/><path class="cls-18" d="M194.61,367.19a.78.78,0,1,0-1-.44A.78.78,0,0,0,194.61,367.19Z"/><path class="cls-18" d="M195.79,370.18a.79.79,0,1,0-1-.44A.79.79,0,0,0,195.79,370.18Z"/><path class="cls-19" d="M191.65,374.11a2.65,2.65,0,0,0,1.49-3.44l-6.09-15.43a2.66,2.66,0,0,0-3.44-1.49h0a2.65,2.65,0,0,0-1.49,3.44l6.1,15.43a2.64,2.64,0,0,0,3.43,1.49Z"/><path class="cls-18" d="M185,357.2a.78.78,0,1,0-1-.44A.79.79,0,0,0,185,357.2Z"/><path class="cls-18" d="M186.15,360.19a.79.79,0,1,0-1-.45A.79.79,0,0,0,186.15,360.19Z"/><path class="cls-18" d="M187.33,363.17a.79.79,0,1,0-1-.44A.79.79,0,0,0,187.33,363.17Z"/><path class="cls-18" d="M188.51,366.15a.78.78,0,0,0,.44-1,.79.79,0,1,0-.44,1Z"/><path class="cls-18" d="M189.69,369.14a.78.78,0,0,0,.44-1,.79.79,0,1,0-.44,1Z"/><path class="cls-18" d="M190.87,372.12a.79.79,0,1,0-1-.44A.79.79,0,0,0,190.87,372.12Z"/><g class="cls-20"><rect class="cls-13" x="157.28" y="325.13" width="218.14" height="0.44" transform="translate(-98.49 116.33) rotate(-20.89)"/><polygon class="cls-13" points="165.64 367.26 165.48 366.85 357.54 293.11 375.27 287.51 375.4 287.93 357.69 293.52 165.64 367.26"/><polygon class="cls-13" points="166.85 370.33 166.69 369.93 358.4 295.27 381.77 289.4 381.88 289.82 358.53 295.69 166.85 370.33"/><polygon class="cls-13" points="167.92 373.04 167.84 372.83 359.24 297.4 388.59 290.98 388.64 291.19 359.3 297.61 167.92 373.04"/><polygon class="cls-13" points="168.91 375.54 360.09 299.56 395.21 292.75 395.26 292.97 360.15 299.76 168.99 375.74 168.91 375.54"/><polygon class="cls-13" points="170.34 378.43 360.85 301.49 401.59 294.3 401.63 294.51 360.91 301.7 170.42 378.63 170.34 378.43"/></g><circle class="cls-18" cx="368.29" cy="285.38" r="2.32"/><circle class="cls-18" cx="375.06" cy="287.36" r="2.32" transform="translate(-79.36 157.94) rotate(-21.56)"/><circle class="cls-18" cx="381.79" cy="289.25" r="2.32"/><circle class="cls-18" cx="388.4" cy="290.85" r="2.32"/><path class="cls-18" d="M395.9,294.69a2.31,2.31,0,1,0-3-1.3A2.32,2.32,0,0,0,395.9,294.69Z"/><path class="cls-18" d="M402.47,296.17a2.32,2.32,0,1,0-3-1.3A2.31,2.31,0,0,0,402.47,296.17Z"/><rect class="cls-18" x="165.11" y="356.71" width="5.02" height="29.66" transform="translate(-124.81 87.6) rotate(-21.56)"/><path class="cls-21" d="M261,220a16,16,0,0,1-32.08,0"/><path class="cls-22" d="M253.29,220a8.32,8.32,0,0,1-16.64,0"/><path class="cls-21" d="M199.93,220a16,16,0,1,1-32.07,0"/><path class="cls-22" d="M192.21,220a8.32,8.32,0,0,1-16.64,0"/><path class="cls-16" d="M160.44,375.53,138.75,344.8l-11.44,8.12,2.05,2.88-29.42-5,22,30.5L133,373.43,131,370.52Zm-32.74-2.92-5,3.42-14.18-19.94,29.49,5-5.27-7.42,4.8-3.41,14.21,20-29.24-5Z"/><path class="cls-2" d="M144.11,319.39,130.24,343s-7.32,10.23,13.48,17.8A169.29,169.29,0,0,0,182.54,370"/><polyline class="cls-2" points="174.23 376.04 162.37 366.21 178.74 362.51"/><path class="cls-23" d="M164.27,216.8a4,4,0,0,1-1.35-.24,3.93,3.93,0,0,1-2.34-5C164,202.25,175.09,193,189.9,193h.49a3.93,3.93,0,0,1-.11,7.86c-12.65-.16-20.4,8.12-22.32,13.4A3.93,3.93,0,0,1,164.27,216.8Z"/><path class="cls-23" d="M266,216.8a3.93,3.93,0,0,1-3.69-2.59c-1.9-5.21-9.51-13.4-21.93-13.4H240a3.93,3.93,0,0,1-.06-7.86h.49c14.82,0,26,9.29,29.32,18.57A3.94,3.94,0,0,1,266,216.8Z"/></svg>