<svg xmlns="http://www.w3.org/2000/svg" xmlns:xlink="http://www.w3.org/1999/xlink" viewBox="0 0 432 576"><defs><style>.cls-1{isolation:isolate;}.cls-2{fill:#96681d;}.cls-3{fill:#47321f;}.cls-4{fill:#ededed;}.cls-5{fill:#e0e0e0;mix-blend-mode:multiply;}.cls-6{fill:#ffe33d;}.cls-7{fill:#282828;}.cls-8{fill:#fbd82b;}.cls-9{fill:#ffe278;}.cls-10,.cls-17{fill:#fff;}.cls-10,.cls-22,.cls-23{fill-rule:evenodd;}.cls-11{fill:#a36400;}.cls-12{fill:url(#radial-gradient);}.cls-13{fill:url(#radial-gradient-2);}.cls-14{fill:#535353;}.cls-15{fill:url(#radial-gradient-3);}.cls-16{fill:#b57817;}.cls-18{fill:#701d1d;}.cls-19,.cls-21{fill:none;stroke-linecap:round;stroke-linejoin:round;stroke-width:8px;}.cls-19{stroke:#701d1d;}.cls-20{fill:#f7f7f7;}.cls-21{stroke:#000;}.cls-23{fill:#3f3f3f;}.cls-24{fill:#b1b1b1;}.cls-25{fill:#979797;}</style><radialGradient id="radial-gradient" cx="188.35" cy="316.1" r="105.82" gradientTransform="translate(26.63 -463.89) scale(0.99 1.62)" gradientUnits="userSpaceOnUse"><stop offset="0" stop-color="#535353"/><stop offset="1"/></radialGradient><radialGradient id="radial-gradient-2" cx="183.06" cy="195.77" r="101.34" gradientTransform="translate(26.63 -166.53) scale(0.99 1.34)" xlink:href="#radial-gradient"/><radialGradient id="radial-gradient-3" cx="215.51" cy="127.16" r="138.01" gradientTransform="translate(0.81) scale(0.99 1)" xlink:href="#radial-gradient"/></defs><g class="cls-1"><g id="Layer_1" data-name="Layer 1"><path class="cls-2" d="M281.91,486c0-7.71-6.54-11.78-23.43-15.73l-.52-17-29.82,1.36,1.55,32.64h51.14C281.19,486.81,281.57,486.39,281.91,486Z"/><path class="cls-3" d="M281.87,485.24a.6.6,0,0,0-.48-.2H229.6a.6.6,0,0,0-.4.13.4.4,0,0,0-.17.32l.09,2.62a.52.52,0,0,0,.57.43h51.25a.78.78,0,0,0,.31-.07A2,2,0,0,0,281.87,485.24Z"/><path class="cls-3" d="M248.89,457.72H255a1,1,0,1,0,0-2h-6.06a1,1,0,1,0,0,2Z"/><path class="cls-3" d="M249.74,462.17h5.5a1,1,0,1,0,0-2h-5.5a1,1,0,1,0,0,2Z"/><path class="cls-3" d="M250.25,466.49h5.27a1,1,0,1,0,0-2h-5.27a1,1,0,1,0,0,2Z"/><path class="cls-3" d="M251.6,470.87h3.92a1,1,0,1,0,0-2H251.6a1,1,0,1,0,0,2Z"/><path class="cls-2" d="M161.91,486c0-7.71,6.54-11.78,23.43-15.73l.52-17,29.82,1.36-1.55,32.63H163C162.64,486.82,162.25,486.41,161.91,486Z"/><path class="cls-3" d="M162,485.26a.63.63,0,0,1,.48-.2h51.79a.65.65,0,0,1,.41.13.42.42,0,0,1,.16.32l-.09,2.62a.52.52,0,0,1-.57.43H162.88a.78.78,0,0,1-.31-.07A2,2,0,0,1,162,485.26Z"/><path class="cls-3" d="M194.93,457.74h-6.06a1,1,0,1,1,0-2h6.06a1,1,0,1,1,0,2Z"/><path class="cls-3" d="M194.08,462.19h-5.5a1,1,0,1,1,0-2h5.5a1,1,0,1,1,0,2Z"/><path class="cls-3" d="M193.57,466.51H188.3a1,1,0,1,1,0-2h5.27a1,1,0,1,1,0,2Z"/><path class="cls-3" d="M192.22,470.89H188.3a1,1,0,1,1,0-2h3.92a1,1,0,1,1,0,2Z"/><g id="_36" data-name="36"><path class="cls-4" d="M207,316.05c-2.72-1.54-9.25-7-12.72-5.67-2.92,1.09-4.09,7.28-4.46,14.82-.56,11.65.83,26.55.79,31,0,7,.31,30-1.72,36.81-.28.95-2.06,34.31-2.06,34.31l-2.43,45.26c2-.35,3.22-.82,5-1a22.52,22.52,0,0,1,5.3.06c7.68.85,21,5.27,21,1.15,0-18.19,2-26.7,1-48.46l1.72-27.88s-.92-64.09,6.35-56.72c-.33-.33-.39-1.94-.35-4.07.08-3.07.38-7.2.56-9.92.06-1.13.09-2,.08-2.51C218.43,322.47,212.68,319.27,207,316.05Z"/><path class="cls-4" d="M251,343.87c-.81-7.8.53-23.73-7-28.78-7-4.65-19.52,4.89-26.35,6.85.37,3.3-.79,6.43-.44,9.73.31,2.77,1.37,5.7,1.79,8.5.14.91.29,1.84.43,2.75a165.93,165.93,0,0,0,3.22,16.42c3.68,14.27,3.39,26,4.29,41.28.46,8,.8,15.93.59,24-.41,15.77.68,46.3.68,46.3s4.6.41,6.9.51a17.06,17.06,0,0,1,3.12.38,35.37,35.37,0,0,0,20.71-1.18c0-5.06-.06-10.11-.07-15.18,0-4.61-1-8.44-1.61-13-.77-5.47-2-17.78-1.58-23.29"/><path class="cls-5" d="M225,325.75c-10.76-.18-23.82-.37-35.16-.55-.56,11.65.83,26.55.79,31,0,7,.31,30-1.72,36.81-.28.95-2.06,34.31-2.06,34.31l-2.43,45.26c2-.35,3.22-.82,5-1l5-84-3-57.82s3.85.33,17.35,2.91c4.4.85,10.73,3,15.76,3,10.43,0,24.26-5.45,24.26-5.45l-1.6-4.12Z"/><path class="cls-5" d="M226.12,394.81l.85-51-7.61-.89a165.93,165.93,0,0,0,3.22,16.42c3.68,14.27,2.64,20.16,3.54,35.47.47,8,1.55,21.74,1.34,29.78-.41,15.77.68,46.3.68,46.3s4.6.41,6.9.51c-.83-15.82-4.3-49.28-5.63-51.07Z"/></g><g id="_19" data-name="19"><path class="cls-6" d="M269.39,470.63v0S269.37,470.63,269.39,470.63Z"/></g><ellipse class="cls-7" cx="215.77" cy="384.5" rx="63.04" ry="27.19"/><path class="cls-8" d="M139.87,178.62c0,16.5,29.86-26.79,71.43-26.79s79.08,43.34,79.08,26.84c0,0,.44,187.4,0,192.07-1.54,16.43-33.69,29.88-75.25,29.88s-75.26-13.38-75.26-29.88Z"/><path class="cls-9" d="M152.73,368.57V166.13a66.26,66.26,0,0,0,7.91,3.89v221.3a66.26,66.26,0,0,1-7.91-3.89Z"/><path class="cls-9" d="M187.51,354.35V177.17c-2.72-.42-5.36-.91-7.91-1.45V397c2.55.54,5.19,1,7.91,1.45Z"/><path class="cls-9" d="M222.11,396.14V163.06q-3.45.13-7,.14h-.93V400.74h.93q3.54,0,7-.13Z"/><polygon class="cls-9" points="243.12 398.46 243.12 177.21 251.03 175.73 251.03 396.94 243.12 398.46"/><path class="cls-9" d="M278.81,372V165.45a83.69,83.69,0,0,1-7.91,4.05v221c2.37-1.14,6.33-3.3,7.91-4.3Z"/><path class="cls-4" d="M137.66,317.87v55c0,16.5,35.19,29.88,78.59,29.88s77-13.45,78.59-29.88c.15-1.53.21-25.89.21-57.93l-.21-37.78c0,16.5-35.18,29.88-78.59,29.88s-78.59-13.38-78.59-29.88Z"/><path class="cls-10" d="M216.84,131.6c-1.24-.09-1.05.87-1,2.36s.9.15,1.33-1.06.68-1.2-.34-1.3Zm-2.85,0c1.21-.09,1,.87,1,2.36s-.86.15-1.33-1.06-.68-1.2.37-1.3Z"/><path d="M295.35,372.63c-1.62,17.09-35.19,31.09-78.59,31.09s-78.59-13.92-78.59-31.09v-7.35c0,17.17,35.18,31.09,78.59,31.09s77-14,78.59-31.09Z"/><rect class="cls-8" x="208.07" y="390.06" width="22.25" height="18.74"/><rect class="cls-11" x="214.48" y="396.46" width="9.43" height="5.92"/><path class="cls-12" d="M141.43,178.62s15.82-64.46,67.45-67.27c52.9-2.88,75.8,41,78.58,54.73C287.46,166.08,175.15,147.83,141.43,178.62Z"/><path class="cls-13" d="M140,173.4c-3.44,2.47-7.31,10.91-7.65,15.65s1,7.1,3.47,6.63,7.65-16.59,68.85-19,78.58,8.06,83.1,10.9,7.3,2.37,8-1-1.39-17.53-4.87-19.9S205.4,126.48,140,173.4Z"/><path class="cls-14" d="M293.07,169.94a7.27,7.27,0,0,0-2.13-3.17c-3.48-2.37-85.54-40.29-150.9,6.63a16.63,16.63,0,0,0-4.11,5.27C185.31,148.31,241.44,151.59,293.07,169.94Z"/><path class="cls-14" d="M195.32,116.48c.07.46-9.3,5-18.31,17.93-9.27,12.31-14.06,26.24-14.37,26-.58-.28,3.77-15.48,13.29-28.11C185.16,119,195.3,115.36,195.32,116.48Z"/><path class="cls-14" d="M201.93,115.91c.09.54-6,4.35-10.55,15.13-4.68,10.31-7.38,20-7.88,19.64-.35-.21,1.66-10.56,6.53-21.32C194.81,118,201.92,114.81,201.93,115.91Z"/><path class="cls-14" d="M205.75,143.27c-.47.1-1.08-6.38-.49-14.2s1.79-13.9,2.23-13.73,0,6.4-.54,14S206.21,143.19,205.75,143.27Z"/><path class="cls-14" d="M217.92,145c-.52.12-1.16-7-2.52-15.24-1.32-8.41-4.35-13.2-4.08-13.83.2-.8,4.3,4,5.71,13.05C218.46,137.7,218.32,144.92,217.92,145Z"/><path class="cls-14" d="M237.74,151.82c-.2.06-1-12.81-7.94-23.46-6.49-11.36-14.35-12.7-14.31-13s2-1,5.08.42,7,5.07,10.43,10.64a50.71,50.71,0,0,1,6.48,17.08C238.37,148.56,237.91,151.89,237.74,151.82Z"/><path class="cls-14" d="M246.43,142.13c-.44.45-3.39-10.12-10.56-17.23s-13.93-9.2-13.78-10.13c0-.57,7.2.23,14.69,7.78S246.9,142.12,246.43,142.13Z"/><path class="cls-14" d="M270.77,151.25c-.42.6-4.83-15.54-16-25-11-9.74-21.61-8.77-21.51-9.74-.21-.54,10.77-2.86,22.31,7.29C267.29,133.79,271.26,151.4,270.77,151.25Z"/><path class="cls-15" d="M290.58,210.52s-8.31-17.66-32.14-19.78-45.55,14.13-45.55,14.13-3.51-8.48-28-13.42-45.46,20-45.46,20l.21,26.36,3.9,3.84c5.15,5.07,18.22,23.31,37.85,26.14s28-14.84,32.94-14.84,8.41,12,23.83,14.13,33.64-11.3,41.35-16.95,11.11-8.66,11.11-10.78ZM206.38,244c-2.65,3.63-13.94,9.81-25.16,7.25-21.18-4.83-23.17-26-23.17-26s16.55-19.93,35.75-12.69S209,240.38,206.38,244Zm42.37,7.25c-11.22,2.56-22.51-3.62-25.16-7.25s-6.62-24.16,12.58-31.41,35.75,12.69,35.75,12.69S269.94,246.42,248.75,251.25Z"/><path class="cls-16" d="M158.74,168.82a3.72,3.72,0,0,1-1.34-.24,3.92,3.92,0,0,1-2.35-5c3.38-9.28,14.51-18.57,29.33-18.57h.48a3.93,3.93,0,1,1-.11,7.85c-12.64-.15-20.4,8.13-22.32,13.4A3.92,3.92,0,0,1,158.74,168.82Z"/><path class="cls-16" d="M276.1,168.82a3.93,3.93,0,0,1-3.69-2.58c-1.9-5.22-9.51-13.4-21.93-13.4H250a3.93,3.93,0,0,1,0-7.85h.48c14.82,0,26,9.29,29.32,18.57a3.92,3.92,0,0,1-2.34,5A4,4,0,0,1,276.1,168.82Z"/><circle class="cls-17" cx="246.49" cy="231.96" r="19.65"/><circle class="cls-18" cx="243.22" cy="232.64" r="5.93"/><circle class="cls-17" cx="183.46" cy="231.96" r="19.65"/><circle class="cls-18" cx="187.51" cy="232.62" r="5.93"/><path class="cls-19" d="M190.43,292.21c1.72-5.34,7.5-8.08,12.77-10,4.59-1.67,9.31-3.17,14.19-3.41,5.61-.26,11.15,1.16,16.58,2.58l7.61,2"/><path d="M294.86,358.94C293.24,376,259.67,390,216.27,390s-78.59-13.92-78.59-31.09V351.6c0,17.17,35.18,31.09,78.59,31.09s77-14,78.59-31.09Z"/><path d="M294.86,345.41c-1.62,17.1-35.19,31.09-78.59,31.09s-78.59-13.92-78.59-31.09v-7.34c0,17.17,35.18,31.09,78.59,31.09s77-14,78.59-31.09Z"/><path d="M295.12,330.34c-1.61,17.09-35.19,31.09-78.59,31.09s-78.59-13.92-78.59-31.09V323c0,17.17,35.19,31.09,78.59,31.09s77-14,78.59-31.09Z"/><path d="M295,315.68c-1.62,17.09-35.19,31.09-78.59,31.09s-78.59-13.92-78.59-31.09v-7.35c0,17.17,35.18,31.09,78.59,31.09s77-14,78.59-31.09Z"/><path d="M294.86,301.15c-1.62,17.09-35.19,31.09-78.59,31.09s-78.59-13.92-78.59-31.09V293.8c0,17.17,35.18,31.09,78.59,31.09s77-14,78.59-31.09Z"/><path d="M295.08,287.48c-1.61,17.1-35.19,31.09-78.59,31.09s-78.59-13.92-78.59-31.09v-7.34c0,17.17,35.19,31.08,78.59,31.08s77-14,78.59-31.08Z"/><rect class="cls-20" x="210.8" y="316.01" width="16.94" height="74.05"/><path id="path592" class="cls-7" d="M234.05,303.7c-5.64,6.49-14.74,11.39-14.74,11.39l35.23,29.49,1.77-43.18"/><path id="path594" class="cls-7" d="M204.48,304.56c5.64,6.49,15,10.51,15,10.51l-36.06,29.51-1.11-41.95"/><circle cx="219.52" cy="328.7" r="2.8"/><circle cx="219.52" cy="345.32" r="2.8"/><circle cx="219.56" cy="362.23" r="2.8"/><circle cx="219.56" cy="378.99" r="2.8"/><path class="cls-4" d="M290.55,274.59l-.19,12.5a15.39,15.39,0,0,0,4.48-10A4.8,4.8,0,0,0,290.55,274.59Z"/><path class="cls-4" d="M139.9,274.59l.19,9.88a11.65,11.65,0,0,1-2.43-7.34S137.77,274.59,139.9,274.59Z"/><path d="M187.68,408.79a181,181,0,0,0,29.63,2.62l-.45,7.34a184.81,184.81,0,0,1-29.58-2.65Z"/><path d="M216.93,431.52a199.87,199.87,0,0,1-30.19-2.65l.4-7.35a188.93,188.93,0,0,0,29.56,2.6"/><path d="M216.93,437a197.76,197.76,0,0,1-30.48-2.71l-.39,7.3a204.07,204.07,0,0,0,30.76,2.77"/><path d="M216.13,457.73A216.59,216.59,0,0,1,185.34,455l.38-7.24a210.69,210.69,0,0,0,30.81,2.72Z"/><path d="M215.87,463.31A215.49,215.49,0,0,1,185,460.63l-.39,7.16a221.8,221.8,0,0,0,31,2.9Z"/><path d="M254.78,405.73c-9.19,1.61-17.09,4.53-27.71,5.38l.35,7.12a165.68,165.68,0,0,0,28-2.52Z"/><path d="M227.48,423.66a190.13,190.13,0,0,0,28.05-2.46l.26,7.38a203.17,203.17,0,0,1-28.42,2.47"/><path d="M227.37,436.49a199.33,199.33,0,0,0,28.86-2.56l.8,7.24a205.17,205.17,0,0,1-29.57,2.68Z"/><path d="M258.78,454.65a238.45,238.45,0,0,1-31,2.61l-.16-7.21A231.19,231.19,0,0,0,258,447.47l.79,6.32Z"/><path d="M258.92,467.59a250.64,250.64,0,0,1-30.82,2.64l-.22-7.38a241.48,241.48,0,0,0,31-2.49Z"/><path class="cls-21" d="M290,308.36s41.31,4.49,47.9-28.73c6.2-31.23.63-67,.63-67l9.2-11.94"/><polyline class="cls-21" points="336.53 196.51 338.48 212.63 329.23 206.66"/><path class="cls-21" d="M140.53,308.33s-25.18,8.69-36.37-23.27C93.63,255,94.08,217.43,94.08,217.43l-9-9.81"/><polyline class="cls-21" points="93.78 202.58 94.08 217.44 103.15 207.62"/><path class="cls-22" d="M326.39,488.49a21.86,21.86,0,1,0-21.86-21.85A21.9,21.9,0,0,0,326.39,488.49Z"/><path d="M304,466.64A22.36,22.36,0,1,1,326.39,489,22.39,22.39,0,0,1,304,466.64Zm1,0a21.35,21.35,0,1,0,21.35-21.35A21.37,21.37,0,0,0,305,466.64Z"/><path class="cls-22" d="M225.08,458.42c.9-.34,1.83-.66,2.77-.94,0,.69,0,1.38-.07,2.07,9.74,1.44,20.42.29,31-2.3l-.06-1.55c.89.1,1.7.22,2.52.34s1.16.25,1.07.87l.2,9.1c0,1.25.22,1.33-1.41,1.8-11,3.17-24.52,5.45-35.6,2.41-1.07-.3-.89-.53-.91-1.4l-.21-9.21C224.32,458.82,224.14,458.78,225.08,458.42Z"/><path d="M225.21,470.7c-1.28-.35-1.34-.81-1.33-1.53v-.33l-.22-9.2c0-.11,0-.21,0-.29-.05-.71.1-1,1.14-1.38h0c.9-.34,1.85-.67,2.83-1l.93-.28,0,.75-.06,1.66c8.58,1.18,18.53.42,29.58-2.24,0-.39,0-.77-.05-1.15l0-.63.82.09c.9.1,1.68.21,2.55.34s1.73.33,1.6,1.37l.2,9.08c0,.12,0,.23,0,.33,0,1.14-.12,1.46-1.88,2A96.23,96.23,0,0,1,241.41,472,48.52,48.52,0,0,1,225.21,470.7ZM261,456.54c-.57-.09-1.11-.16-1.66-.23,0,.3,0,.6,0,.9v.4l-.5.12c-11.71,2.88-22.25,3.66-31.31,2.32l-.53-.08v-.41c0-.44,0-.88.05-1.32-.61.2-1.21.42-1.78.64h0L225,459a1.93,1.93,0,0,0,0,.23c0,.09,0,.2,0,.33l.22,9.2v.35a1.44,1.44,0,0,0,0,.42s.05.07.46.18c9,2.46,21.11,1.63,35.12-2.41a4.93,4.93,0,0,0,1-.34,2.05,2.05,0,0,0,0-.6c0-.1,0-.22,0-.35l-.2-9.11v-.06a.48.48,0,0,0,0-.22A2.59,2.59,0,0,0,261,456.54Z"/><path d="M241.41,460.49a109.39,109.39,0,0,0,19.4-3.21l-.39-1c-13.11,3.37-26.09,4.27-34.73,2.4l-.42,1A59.55,59.55,0,0,0,241.41,460.49Z"/><path class="cls-22" d="M302,471.85c2.61.41,4.5,2.21,4.22,4a3.07,3.07,0,0,1-2.24,2.28l-1.06-1.28c.9-.18,1.54-.64,1.64-1.26.15-1-1.1-2-2.8-2.25a4.7,4.7,0,0,0-1.72,0L299,472.07A6.33,6.33,0,0,1,302,471.85Zm2,6.28a6.34,6.34,0,0,1-3,.23c-2.62-.42-4.51-2.21-4.22-4a3.08,3.08,0,0,1,2.24-2.29l1.05,1.29c-.89.18-1.53.64-1.63,1.26-.16,1,1.1,2,2.79,2.25a4.7,4.7,0,0,0,1.72,0Z"/><path class="cls-22" d="M302,471.85c2.61.41,4.5,2.21,4.22,4s-2.63,2.92-5.25,2.51-4.51-2.21-4.22-4,2.63-2.92,5.25-2.51Zm-.24,1.49c1.7.26,2.95,1.27,2.8,2.25s-1.66,1.55-3.36,1.28-3-1.27-2.79-2.25S300,473.07,301.72,473.34Z"/><path d="M304.65,478.39a6.93,6.93,0,0,1-7.27-1.15,3.13,3.13,0,0,1,.86-5.42,6.48,6.48,0,0,1,3.8-.47h0a6.59,6.59,0,0,1,3.47,1.61,3.36,3.36,0,0,1,1.17,3,3,3,0,0,1-1.13,1.89A4.06,4.06,0,0,1,304.65,478.39Zm-7.44-3.95a2.4,2.4,0,0,0,.87,2.07,6,6,0,0,0,6.13,1,2.36,2.36,0,0,0,1.47-1.7,2.39,2.39,0,0,0-.87-2.07,5.66,5.66,0,0,0-2.93-1.35h0a5.54,5.54,0,0,0-3.2.38,3.64,3.64,0,0,0-.7.44A2,2,0,0,0,297.21,474.44Zm6.39,2.73a5,5,0,0,1-2.52.21,5.12,5.12,0,0,1-2.33-1,2,2,0,0,1-.88-1.87h0a2,2,0,0,1,1.41-1.51,5.1,5.1,0,0,1,2.52-.2c2,.32,3.42,1.56,3.22,2.84a1.66,1.66,0,0,1-.64,1.06A2.44,2.44,0,0,1,303.6,477.17Zm-4.73-2.47h0a1.13,1.13,0,0,0,.52.92,4,4,0,0,0,1.85.75,4,4,0,0,0,2-.15c.45-.17.73-.43.78-.71.09-.6-.86-1.43-2.38-1.67a4,4,0,0,0-2,.14,1.82,1.82,0,0,0-.5.28A.7.7,0,0,0,298.87,474.7Z"/><path class="cls-22" d="M306.87,467.42l-2.17,7.31a1,1,0,0,1-1.29.7h0a1,1,0,0,1-.7-1.29l2.16-7.31a1,1,0,0,1,1.29-.71h0A1,1,0,0,1,306.87,467.42Z"/><path d="M303.43,476h0l-.15,0a1.56,1.56,0,0,1-.92-.75,1.54,1.54,0,0,1-.12-1.17l2.16-7.32a1.59,1.59,0,0,1,.75-.92,1.51,1.51,0,0,1,1.18-.12,1.53,1.53,0,0,1,1,1.92l-2.16,7.32a1.55,1.55,0,0,1-1.76,1.08Zm2.95-8.69a.54.54,0,0,0-.36-.66.51.51,0,0,0-.4.05.5.5,0,0,0-.26.31l-2.17,7.32a.52.52,0,0,0,.05.4.48.48,0,0,0,.29.25h0a.53.53,0,0,0,.66-.36l2.17-7.32Z"/><path class="cls-22" d="M291.59,468.21c2.16,1.53,3.06,4,2,5.46a2.4,2.4,0,0,1-1,.8l-1.08-1.32a1.19,1.19,0,0,0,.69-.45c.57-.81-.11-2.27-1.51-3.26a3.75,3.75,0,0,0-2.89-.79l-1.08-1.31A5.13,5.13,0,0,1,291.59,468.21Zm1,6.26a5.09,5.09,0,0,1-4.83-.88c-2.17-1.52-3.07-4-2-5.45a2.32,2.32,0,0,1,1-.8l1.08,1.31a1.2,1.2,0,0,0-.69.46c-.57.81.11,2.26,1.51,3.26a3.74,3.74,0,0,0,2.89.78Z"/><path class="cls-22" d="M291.59,468.21c2.16,1.53,3.06,4,2,5.46s-3.65,1.45-5.81-.08-3.07-4-2-5.45,3.65-1.45,5.82.07Zm-.87,1.23c1.4,1,2.08,2.45,1.51,3.26s-2.17.66-3.58-.33-2.08-2.45-1.51-3.26S289.31,468.45,290.72,469.44Z"/><path d="M287.49,474c-2.39-1.69-3.35-4.45-2.14-6.17s4.14-1.73,6.53,0h0a6.61,6.61,0,0,1,2.4,3A3.35,3.35,0,0,1,294,474a3,3,0,0,1-.51.55C292.12,475.66,289.6,475.49,287.49,474Zm-1.31-5.58c-.88,1.25,0,3.38,1.9,4.75s4.24,1.43,5.11.2a2.4,2.4,0,0,0,.13-2.25,5.46,5.46,0,0,0-2-2.5h0c-1.72-1.22-3.73-1.42-4.77-.56A1.67,1.67,0,0,0,286.18,468.43Zm2.18,4.35c-1.66-1.17-2.38-2.91-1.63-4h0c.74-1.05,2.62-1,4.28.21a5.16,5.16,0,0,1,1.67,1.91,2,2,0,0,1,0,2.06,1.38,1.38,0,0,1-.28.31C291.49,474,289.84,473.82,288.36,472.78Zm-.8-3.38h0c-.35.5.13,1.67,1.39,2.55s2.51.95,2.86.46a1.07,1.07,0,0,0-.06-1.06,3.91,3.91,0,0,0-1.32-1.49c-1.16-.82-2.32-.94-2.77-.57A.52.52,0,0,0,287.56,469.4Z"/><path class="cls-22" d="M282.1,460.11c2.09,1.63,2.87,4.11,1.76,5.54a2.31,2.31,0,0,1-.82.67L282,465a1.13,1.13,0,0,0,.57-.38c.61-.78,0-2.27-1.36-3.33a3.56,3.56,0,0,0-3-.88l-1.08-1.31C278.41,458.45,280.42,458.8,282.1,460.11Zm.94,6.21c-1.3.65-3.31.29-5-1-2.09-1.63-2.88-4.11-1.76-5.55a2.36,2.36,0,0,1,.81-.66l1.08,1.31a1.12,1.12,0,0,0-.56.39c-.61.78,0,2.27,1.35,3.32a3.56,3.56,0,0,0,3,.88Z"/><path class="cls-22" d="M282.1,460.11c2.09,1.63,2.87,4.11,1.76,5.54s-3.72,1.28-5.81-.34-2.88-4.11-1.76-5.55,3.72-1.28,5.81.35Zm-.93,1.18c1.36,1.06,2,2.55,1.36,3.33s-2.2.56-3.56-.5-2-2.54-1.35-3.32S279.82,460.24,281.17,461.29Z"/><path d="M281.29,467.14a7,7,0,0,1-5.81-4.52,3.14,3.14,0,0,1,3.38-4.34,6.52,6.52,0,0,1,3.55,1.43h0a6.53,6.53,0,0,1,2.25,3.09,3.37,3.37,0,0,1-.4,3.17,3.73,3.73,0,0,1-.44.45A3.61,3.61,0,0,1,281.29,467.14Zm-4.6-7.07a2.41,2.41,0,0,0-.24,2.24,5.91,5.91,0,0,0,4.9,3.81,2.12,2.12,0,0,0,2.34-3,5.55,5.55,0,0,0-1.91-2.6h0a5.56,5.56,0,0,0-3-1.22,2.59,2.59,0,0,0-1.83.5A1.48,1.48,0,0,0,276.69,460.07Zm2,4.45c-1.6-1.25-2.24-3-1.45-4h0c.8-1,2.67-.83,4.28.41s2.23,3,1.44,4a1.42,1.42,0,0,1-.24.25C281.8,465.91,280.12,465.66,278.66,464.52Zm-.64-3.41c-.38.48.05,1.67,1.26,2.61s2.47,1.07,2.85.59-.06-1.67-1.27-2.61-2.31-1.05-2.76-.68Z"/><path class="cls-22" d="M267.58,455.34c2.64-.21,4.9,1.09,5.05,2.9.1,1.31-.92,2.52-2.48,3.18l-1-1.23c1.12-.35,1.88-1.06,1.82-1.81-.08-1-1.53-1.68-3.25-1.54a5.12,5.12,0,0,0-1.14.22l-1-1.23A6.43,6.43,0,0,1,267.58,455.34Zm2.57,6.08a6.56,6.56,0,0,1-2,.49c-2.64.21-4.9-1.09-5-2.9-.11-1.31.91-2.52,2.48-3.18l1,1.23c-1.12.36-1.88,1.06-1.82,1.81.08,1,1.54,1.68,3.25,1.54a5,5,0,0,0,1.14-.22Z"/><path class="cls-22" d="M267.58,455.34c2.64-.21,4.9,1.09,5.05,2.9s-1.88,3.46-4.52,3.67-4.9-1.09-5-2.9,1.87-3.46,4.51-3.67Zm.12,1.5c1.72-.14,3.17.55,3.25,1.54s-1.25,1.89-3,2-3.17-.55-3.25-1.54S266,457,267.7,456.84Z"/><path d="M268.15,462.41a6.45,6.45,0,0,1-3.75-.75,3.14,3.14,0,0,1-.47-5.46l0,0a6.49,6.49,0,0,1,3.58-1.34c2.92-.24,5.43,1.27,5.59,3.36a3.38,3.38,0,0,1-1.38,2.85A6.48,6.48,0,0,1,268.15,462.41ZM263.57,459a2.42,2.42,0,0,0,1.33,1.81,5.56,5.56,0,0,0,3.17.62c2.35-.19,4.17-1.59,4.05-3.12s-2.14-2.62-4.5-2.43h0a5.47,5.47,0,0,0-3,1.12l0,0A2.38,2.38,0,0,0,263.57,459Zm6.86,1.16a5.1,5.1,0,0,1-2.4.79c-2,.16-3.69-.72-3.79-2h0c-.11-1.28,1.4-2.42,3.42-2.58s3.69.72,3.8,2a1.93,1.93,0,0,1-.8,1.62Zm-5.18-1.3c.05.61,1.17,1.2,2.7,1.07a3.92,3.92,0,0,0,1.9-.61c.4-.27.62-.59.59-.87-.05-.61-1.17-1.2-2.7-1.07a3.73,3.73,0,0,0-2.06.72A1,1,0,0,0,265.25,458.83Z"/><path class="cls-22" d="M258.65,463.47l5.63-5.14a1.05,1.05,0,0,1,1.47.07h0a1,1,0,0,1-.07,1.47L260.05,465a1,1,0,0,1-1.47-.07h0A1,1,0,0,1,258.65,463.47Z"/><path d="M258.21,465.29h0a1.56,1.56,0,0,1,.1-2.18l5.64-5.14a1.55,1.55,0,0,1,2.59,1.21,1.57,1.57,0,0,1-.5,1.08l-5.64,5.14-.06.05A1.54,1.54,0,0,1,258.21,465.29Zm6.41-6.58L259,463.85a.53.53,0,0,0,0,.75h0a.54.54,0,0,0,.75,0l5.63-5.15a.46.46,0,0,0,.17-.36.54.54,0,0,0-.13-.39.53.53,0,0,0-.73-.05Z"/><path class="cls-22" d="M271.1,457.41l7,2.9a1,1,0,0,1,.57,1.36h0a1,1,0,0,1-1.36.57l-7.05-2.9a1,1,0,0,1-.57-1.36h0A1.05,1.05,0,0,1,271.1,457.41Z"/><path d="M278.35,462.7a1.51,1.51,0,0,1-1.18,0l-7.05-2.9a1.54,1.54,0,0,1-.84-.84,1.54,1.54,0,0,1,2-2l7.06,2.9a1.57,1.57,0,0,1,.84.84,1.53,1.53,0,0,1,.09.87l0,0-.12.29a1.64,1.64,0,0,1-.44.6A1.44,1.44,0,0,1,278.35,462.7Zm-.1-1.22a.58.58,0,0,0,0-.41.58.58,0,0,0-.29-.29l-7-2.89h0a.53.53,0,0,0-.7.28.58.58,0,0,0,0,.41.58.58,0,0,0,.29.29l7.06,2.9a.55.55,0,0,0,.4,0,.53.53,0,0,0,.28-.27Z"/><path class="cls-22" d="M282.73,463.63l5.65,5.12a1,1,0,0,1,.08,1.47h0a1.05,1.05,0,0,1-1.47.07l-5.66-5.12a1,1,0,0,1-.07-1.47h0A1.05,1.05,0,0,1,282.73,463.63Z"/><path d="M287.76,471.06a1.5,1.5,0,0,1-1.11-.39L281,465.55a1.55,1.55,0,0,1,2.08-2.3l5.65,5.12a1.54,1.54,0,0,1,.11,2.19l-.16.16A1.5,1.5,0,0,1,287.76,471.06ZM282,463.87a.53.53,0,0,0-.36.17.55.55,0,0,0,0,.76l5.66,5.11a.49.49,0,0,0,.38.14.58.58,0,0,0,.37-.17.54.54,0,0,0,0-.76L282.39,464A.51.51,0,0,0,282,463.87Z"/><path class="cls-22" d="M292.34,470.87l7,3a1,1,0,0,1,.54,1.36h0a1,1,0,0,1-1.36.54l-7-3a1,1,0,0,1-.54-1.37h0A1,1,0,0,1,292.34,470.87Z"/><path d="M299.5,476.29a1.58,1.58,0,0,1-1.19,0l-7-3a1.55,1.55,0,0,1-.9-1.72l0,0,.12-.29a1.57,1.57,0,0,1,2-.81l7,3a1.54,1.54,0,0,1,.83.85,1.56,1.56,0,0,1,0,1.18l-.05.12h0a1.3,1.3,0,0,1-.38.46A1.55,1.55,0,0,1,299.5,476.29Zm-.08-1.64a.53.53,0,0,0-.28-.29l-7-3h0a.52.52,0,0,0-.69.26v0a.52.52,0,0,0,.28.69l7,3a.51.51,0,0,0,.4,0,.52.52,0,0,0,.3-.28v0A.53.53,0,0,0,299.42,474.65Z"/><path class="cls-23" d="M322,452a2.58,2.58,0,1,0-2.57-2.58A2.58,2.58,0,0,0,322,452Z"/><path class="cls-23" d="M325.41,451.86c9.67-.5,18.37,4.07,18.56,19.88a18.1,18.1,0,0,0,1.14-6.35c0-10.65-9-19.35-19.55-18.53C326.65,447.84,326.31,450.86,325.41,451.86Z"/><polygon class="cls-24" points="364.06 506.38 356.18 506.38 357.18 86.53 365.06 86.53 364.06 506.38"/><polygon class="cls-17" points="358.84 506.38 357.58 506.38 358.58 86.53 359.84 86.53 358.84 506.38"/><polygon class="cls-25" points="363.31 506.38 361.46 506.38 362.46 86.53 364.31 86.53 363.31 506.38"/><polygon class="cls-24" points="396.07 506.38 388.2 506.38 389.2 86.53 397.07 86.53 396.07 506.38"/><polygon class="cls-17" points="390.86 506.38 389.6 506.38 390.6 86.53 391.86 86.53 390.86 506.38"/><polygon class="cls-25" points="395.33 506.38 393.48 506.38 394.48 86.53 396.33 86.53 395.33 506.38"/><polygon class="cls-24" points="268.04 506.38 260.17 506.38 261.17 86.53 269.04 86.53 268.04 506.38"/><polygon class="cls-17" points="262.82 506.38 261.57 506.38 262.57 86.53 263.82 86.53 262.82 506.38"/><polygon class="cls-25" points="267.3 506.38 265.45 506.38 266.45 86.53 268.3 86.53 267.3 506.38"/><polygon class="cls-24" points="300.06 506.38 292.19 506.38 293.19 86.53 301.06 86.53 300.06 506.38"/><polygon class="cls-17" points="294.84 506.38 293.59 506.38 294.59 86.53 295.84 86.53 294.84 506.38"/><polygon class="cls-25" points="299.32 506.38 297.47 506.38 298.47 86.53 300.32 86.53 299.32 506.38"/><polygon class="cls-24" points="331.28 506.38 323.41 506.38 324.41 86.53 332.28 86.53 331.28 506.38"/><polygon class="cls-17" points="326.06 506.38 324.81 506.38 325.81 86.53 327.06 86.53 326.06 506.38"/><polygon class="cls-25" points="330.53 506.38 328.69 506.38 329.69 86.53 331.53 86.53 330.53 506.38"/><polygon class="cls-24" points="174.64 506.38 166.76 506.38 167.76 86.53 175.64 86.53 174.64 506.38"/><polygon class="cls-17" points="169.42 506.38 168.17 506.38 169.17 86.53 170.42 86.53 169.42 506.38"/><polygon class="cls-25" points="173.89 506.38 172.04 506.38 173.04 86.53 174.89 86.53 173.89 506.38"/><polygon class="cls-24" points="206.66 506.38 198.78 506.38 199.78 86.53 207.66 86.53 206.66 506.38"/><polygon class="cls-17" points="201.44 506.38 200.19 506.38 201.19 86.53 202.44 86.53 201.44 506.38"/><polygon class="cls-25" points="205.91 506.38 204.06 506.38 205.06 86.53 206.91 86.53 205.91 506.38"/><polygon class="cls-24" points="237.88 506.38 230 506.38 231 86.53 238.88 86.53 237.88 506.38"/><polygon class="cls-17" points="232.66 506.38 231.41 506.38 232.41 86.53 233.66 86.53 232.66 506.38"/><polygon class="cls-25" points="237.13 506.38 235.28 506.38 236.28 86.53 238.13 86.53 237.13 506.38"/><polygon class="cls-24" points="79.69 506.38 71.82 506.38 72.82 86.53 80.69 86.53 79.69 506.38"/><polygon class="cls-17" points="74.48 506.38 73.22 506.38 74.22 86.53 75.48 86.53 74.48 506.38"/><polygon class="cls-25" points="78.95 506.38 77.1 506.38 78.1 86.53 79.95 86.53 78.95 506.38"/><polygon class="cls-24" points="111.72 506.38 103.84 506.38 104.84 86.53 112.72 86.53 111.72 506.38"/><polygon class="cls-17" points="106.5 506.38 105.24 506.38 106.24 86.53 107.5 86.53 106.5 506.38"/><polygon class="cls-25" points="110.97 506.38 109.12 506.38 110.12 86.53 111.97 86.53 110.97 506.38"/><polygon class="cls-24" points="142.93 506.38 135.06 506.38 136.06 86.53 143.93 86.53 142.93 506.38"/><polygon class="cls-17" points="137.71 506.38 136.46 506.38 137.46 86.53 138.71 86.53 137.71 506.38"/><polygon class="cls-25" points="142.19 506.38 140.34 506.38 141.34 86.53 143.19 86.53 142.19 506.38"/><polygon class="cls-24" points="46.92 506.38 39.05 506.38 40.05 86.53 47.92 86.53 46.92 506.38"/><polygon class="cls-17" points="41.7 506.38 40.45 506.38 41.45 86.53 42.7 86.53 41.7 506.38"/><polygon class="cls-25" points="46.17 506.38 44.32 506.38 45.32 86.53 47.17 86.53 46.17 506.38"/></g></g></svg>