<svg id="Layer_1" data-name="Layer 1" xmlns="http://www.w3.org/2000/svg" xmlns:xlink="http://www.w3.org/1999/xlink" viewBox="0 0 432 576"><defs><style>.cls-1,.cls-5{fill:none;}.cls-2{fill:#ef5350;}.cls-3{fill:#b71c1c;}.cls-4{fill:#fbd82b;}.cls-5{stroke:#000;stroke-linecap:round;stroke-linejoin:round;stroke-width:8px;}.cls-6{fill:#e53935;}.cls-7{fill:#fdd835;}.cls-8{fill:#ffe278;}.cls-9{clip-path:url(#clip-path);}.cls-10{fill:#c62828;}.cls-11{fill:#ffca28;}.cls-12{fill:#795548;}.cls-13{fill:#ffeb3b;}.cls-14{fill:#c69c6d;}.cls-15{fill:#b78d63;}.cls-16{fill:#fff;}.cls-17{fill:#ccc;}.cls-18{fill:#ec1c24;}.cls-19{fill:#c82526;}.cls-20{fill:#434343;}.cls-21{fill:#ff4c1f;}.cls-22{fill:#ff9c45;}.cls-23{fill:#ffdd56;}.cls-24{fill:#fcfbcc;}.cls-25{fill:#d32f37;}.cls-26{fill:#d3d3d3;}.cls-27{fill:#0c0c0c;}.cls-28{fill:#929293;}.cls-29{fill:#a31a21;}.cls-30{fill:#00da01;}.cls-31{fill:#a3a3a3;}.cls-32{fill:#b9b6b8;}.cls-33{fill:#e0dfde;}.cls-34{fill:#d12222;}.cls-35,.cls-38{fill:#701d1d;}.cls-35,.cls-36{fill-rule:evenodd;}.cls-36{fill:#fefefd;}.cls-37{fill:#f70000;}.cls-39{fill:#b57817;}</style><clipPath id="clip-path"><path class="cls-1" d="M220.29,106.61c-85.3,0-78.88,78.78-78.88,78.78s22.28-18.32,79.36-18.32,76.78,16.62,76.78,16.62S305.6,106.61,220.29,106.61Z"/></clipPath></defs><path class="cls-2" d="M305.91,193.69s4.39,25.08,4.39,30.18c0,30.67-42.66,43-89.26,43V164.42C259.9,164.49,305.91,193.69,305.91,193.69Z"/><path class="cls-3" d="M295.17,187.33s7,31.79,7,36.82c0,30.28-39.66,44.67-84.47,44.69l-3.54-104.42C251.51,164.48,295.17,187.33,295.17,187.33Z"/><path class="cls-2" d="M133.63,193.69s-4.38,25.08-4.38,30.18c0,30.67,42.66,43,89.26,43L204,164.42C165.11,164.49,133.63,193.69,133.63,193.69Z"/><path class="cls-3" d="M144.38,187.33s-7,31.79-7,36.82c0,30.28,39.67,44.67,84.47,44.69l-2.09-98.41C182.41,170.49,144.38,187.33,144.38,187.33Z"/><path class="cls-2" d="M219.77,157.33c-81.66,0-86.06,36.33-86.06,36.33l8.38,4.36s1.9-10.09,8.07-13.12c13.31-6.56,33.48-14.45,69.63-14.47v-13.1Z"/><path class="cls-2" d="M219.77,157.33c81.67,0,86.07,36.33,86.07,36.33l-8.79,3.48S295.15,187.06,289,184c-13.32-6.55-33.09-13.57-69.25-13.59v-13.1Z"/><rect class="cls-4" x="149.27" y="153.8" width="143.84" height="38.9" rx="12"/><polyline class="cls-5" points="239.15 392.25 252.16 479.25 269.73 479.25"/><polyline class="cls-5" points="206.9 387.8 199.02 479.25 178.43 479.25"/><rect class="cls-6" x="132.97" y="255.35" width="171.26" height="38.29" rx="12"/><ellipse class="cls-7" cx="220.16" cy="383.8" rx="63.04" ry="27.19"/><path class="cls-4" d="M144.26,166.19c0,16.5,33.69,12.43,75.26,12.43s75.26,14.08,75.26-2.42c0,0,.44,189.17,0,193.84-1.55,16.43-33.7,29.88-75.26,29.88S144.26,386.54,144.26,370Z"/><path class="cls-8" d="M157.12,364.63V141.77a63.59,63.59,0,0,0,7.91,4.28V389.67a64.31,64.31,0,0,1-7.91-4.28Z"/><path class="cls-8" d="M191.9,349V153.92c-2.72-.46-5.36-1-7.91-1.6V395.94q3.82.9,7.91,1.61Z"/><path class="cls-8" d="M226.51,395.33v-239q-3.47.14-7,.14h-.92V400.05h.92q3.54,0,7-.14Z"/><polygon class="cls-8" points="247.51 397.54 247.51 153.96 255.42 152.33 255.42 395.86 247.51 397.54"/><path class="cls-8" d="M283.2,368.38V141a81.53,81.53,0,0,1-7.91,4.46V388.77c2.38-1.25,6.34-3.63,7.91-4.73Z"/><path class="cls-6" d="M142.5,317.73v55c0,16.5,35.18,29.88,78.59,29.88s77-13.45,78.59-29.88c.15-1.53.2-25.89.2-57.93l-.2-37.78c0,16.5-35.19,29.88-78.59,29.88S142.5,293.48,142.5,277Z"/><path class="cls-5" d="M115.22,375.45s3.18-13.25,12.17-35.09c0,0,7.24-22.27,18.67-34.81"/><polyline class="cls-5" points="107.6 367.03 120.94 357.18 125.57 371.93"/><path class="cls-5" d="M324.47,373.39s-3.19-13.24-12.17-35.09c0,0-7.24-22.27-18.67-34.81"/><polyline class="cls-5" points="328.56 367.27 317.81 358.13 314.12 369.87"/><path class="cls-6" d="M220.29,106.61c-85.3,0-78.88,78.78-78.88,78.78s22.28-18.32,79.36-18.32,76.78,16.62,76.78,16.62S305.6,106.61,220.29,106.61Z"/><g class="cls-9"><path class="cls-10" d="M188.75,110.52l12.68-3.91v39.51C198.86,129.06,195.17,116.71,188.75,110.52Z"/></g><g class="cls-9"><path class="cls-10" d="M251.85,110.52l-12.67-3.91v39.51C241.75,129.06,245.43,116.71,251.85,110.52Z"/></g><path class="cls-6" d="M228.65,167.45H209.57c-5.08,0-9.19-3.74-9.19-8.37V111.93c0-4.63,4.11-8.37,9.19-8.37h19.08c5.08,0,9.19,3.74,9.19,8.37v47.13C237.84,163.69,233.73,167.45,228.65,167.45Z"/><path class="cls-11" d="M217.6,165.22a2.84,2.84,0,0,1-1.66-.52,2.75,2.75,0,0,1-.52-.5,46.91,46.91,0,0,0-8.75-1.93c-13.17-1.35-18.53-6.44-20.73-10.48-2.7-5-2-11,1.89-16.93,2-3,2.68-5.67,2.07-7.88a6.57,6.57,0,0,0-3-3.78,2.53,2.53,0,0,1-1.3-1.69,2.28,2.28,0,0,1,.56-2l7.4-8.26a2.86,2.86,0,0,1,2.09-.9,3,3,0,0,1,.78.1,33.35,33.35,0,0,0,7.63.92,25.86,25.86,0,0,0,3.24-.2c4.63-.61,8.43-4,9.08-4.57a2.44,2.44,0,0,1,.73-.57,2.85,2.85,0,0,1,1.37-.35,3.27,3.27,0,0,1,.87.13,2.71,2.71,0,0,1,1.29.86c.83.75,4.52,3.92,9,4.5a25.62,25.62,0,0,0,3.24.2,33.75,33.75,0,0,0,7.65-.92,2.78,2.78,0,0,1,.76-.1,2.87,2.87,0,0,1,2.09.9l7.4,8.26a2.31,2.31,0,0,1,.55,2,2.45,2.45,0,0,1-1.33,1.69,6.54,6.54,0,0,0-2.93,3.76c-.62,2.22.09,4.88,2.07,7.88,3.9,5.93,4.59,11.94,1.89,16.93-2.18,4-7.55,9.14-20.73,10.5a45.61,45.61,0,0,0-8.75,1.94,2.71,2.71,0,0,1-.52.49,2.89,2.89,0,0,1-1.66.52,3.34,3.34,0,0,1-.7-.08l-.2-.08-.23.07A4.23,4.23,0,0,1,217.6,165.22Z"/><path class="cls-10" d="M218.55,108.16v0c.31.29,4.81,4.66,10.77,5.43a26.57,26.57,0,0,0,3.62.23,36,36,0,0,0,8.41-1l7.4,8.26s-8.81,4.53-1.86,15.06,2.69,21.69-16.82,23.71a49.36,49.36,0,0,0-10.33,2.4l-.29.06v.46l-.92-.26-.93.23v-.46l-.29-.07a50.47,50.47,0,0,0-10.34-2.4c-19.5-2-23.77-13.18-16.82-23.71s-1.85-15.06-1.85-15.06l7.4-8.26a35.63,35.63,0,0,0,8.41,1,26.47,26.47,0,0,0,3.62-.23c6-.77,10.46-5.12,10.77-5.43v0s0,0,.05,0h0m0-4.93a5.39,5.39,0,0,0-1.9.33,5.32,5.32,0,0,0-2.29,1.51c-1.19,1.05-4.18,3.27-7.33,3.66a21.62,21.62,0,0,1-2.86.18,31.06,31.06,0,0,1-6.9-.82,6,6,0,0,0-1.51-.2,5.64,5.64,0,0,0-4.2,1.81l-7.4,8.26a4.58,4.58,0,0,0-1.22,4.09,4.78,4.78,0,0,0,2.7,3.3c1.21.72,3.44,2.94-.07,8.24-4.41,6.67-5.12,13.53-2,19.3,2.48,4.58,8.46,10.38,22.83,11.86a44.25,44.25,0,0,1,7.53,1.6,3,3,0,0,0,.39.32,5.77,5.77,0,0,0,4.25,1,6,6,0,0,0,.94.08,5.77,5.77,0,0,0,3.31-1,3.12,3.12,0,0,0,.4-.32,41.73,41.73,0,0,1,7.51-1.6c14.38-1.48,20.36-7.26,22.83-11.86,3.11-5.77,2.41-12.61-2-19.3-3.51-5.3-1.28-7.52-.07-8.24a4.74,4.74,0,0,0,2.7-3.3,4.55,4.55,0,0,0-1.23-4.09l-7.38-8.26a5.59,5.59,0,0,0-4.18-1.81,5.36,5.36,0,0,0-1.54.22,30.43,30.43,0,0,1-6.88.82,23.76,23.76,0,0,1-2.87-.18,15.39,15.39,0,0,1-7.43-3.78,5,5,0,0,0-1.44-1.08,5.55,5.55,0,0,0-2.69-.66Z"/><ellipse class="cls-12" cx="218.53" cy="135.1" rx="22.53" ry="19.43"/><path class="cls-13" d="M216.39,124.45a3.64,3.64,0,0,1-1.35-3.29,4.32,4.32,0,0,0-1.06,2.37c-.38,3.17,3.65,4.17,3.72,4.1a1.2,1.2,0,0,0,.08-1.31,1.47,1.47,0,0,1,.75-1.79s-.47.92-.12,1.31c.54.63,1,.59,1.26.91a.71.71,0,0,1-.29,1,4.17,4.17,0,0,0,3.64-3.09,6.78,6.78,0,0,0-.83-4.56,2.66,2.66,0,0,1-2.79,2.08,3.4,3.4,0,0,0,.63-3c-.4-1.35-2.72-2.07-2.72-2.07a2.66,2.66,0,0,1,.68,1.84C218,120.13,214.84,121.56,216.39,124.45Z"/><path class="cls-13" d="M228.08,146.76,210.2,130.87,207,133l17.94,15.87a1.72,1.72,0,0,0,1.13.36,2.5,2.5,0,0,0,1.33-.36,2.06,2.06,0,0,0,1-1.37A.81.81,0,0,0,228.08,146.76Z"/><path class="cls-13" d="M211.71,129.13a2.68,2.68,0,0,0-1.05-.23c.06-.1.6-1.14,1.35-1.33s.47-.89-.1-1.07a7.09,7.09,0,0,0-6.07,1.44c-.25.2-3.55,2.94-5.19,4.36a1,1,0,0,1-.41.18,1.55,1.55,0,0,0-1.33,1.85,4.93,4.93,0,0,0,2.08,2.76,13.29,13.29,0,0,0,3.5,1.25,2,2,0,0,0,2-1.1c.16-.44-.22-.71.3-1.28,0,0,5.26-4.27,5.78-4.93S212.64,129.77,211.71,129.13Z"/><path class="cls-13" d="M209,146.76l17.88-15.89,3.22,2.08-17.93,15.87a1.75,1.75,0,0,1-1.14.36,2.55,2.55,0,0,1-1.33-.36,2,2,0,0,1-.95-1.37A.78.78,0,0,1,209,146.76Z"/><path class="cls-13" d="M225.36,129.13a2.63,2.63,0,0,1,1-.23c-.05-.1-.59-1.14-1.35-1.33s-.47-.89.11-1.07a7.09,7.09,0,0,1,6.07,1.44c.25.2,3.54,2.94,5.18,4.36a1.09,1.09,0,0,0,.42.18,1.55,1.55,0,0,1,1.33,1.85,4.91,4.91,0,0,1-2.09,2.76,13.26,13.26,0,0,1-3.49,1.25,2,2,0,0,1-2-1.1c-.17-.44.21-.71-.31-1.28,0,0-5.26-4.27-5.78-4.93S224.42,129.77,225.36,129.13Z"/><path class="cls-2" d="M219.72,155.91c-80.18,0-84.5,34.24-84.5,34.24l8.23,4.1s1.87-9.5,7.92-12.36c13.07-6.18,32.88-13.61,68.37-13.63V155.91Z"/><path class="cls-2" d="M218.72,155.91c81.13,0,85.5,34.24,85.5,34.24l-8.72,3.28s-1.9-9.5-8-12.36c-13.23-6.18-32.87-12.79-68.79-12.81V155.91Z"/><path class="cls-14" d="M304.22,404l10.54-1.77,7.65-1.28s-4.76-17.16,7.42-43.42,27-77.74,27-77.74L346,274.93s-.1.38-.3,1.1c-2.34,8.43-17.51,62.67-26.63,80.61C307.84,378.81,304.22,404,304.22,404Z"/><path class="cls-14" d="M326,350.33a1.2,1.2,0,0,0,.76.64,13.34,13.34,0,0,0,5.63.83c.46-1.07.92-2.15,1.37-3.28a9.18,9.18,0,0,1-2.76-.41,11,11,0,0,1-3.49-1.68,7.34,7.34,0,0,1-1.27,3A1.27,1.27,0,0,0,326,350.33Z"/><path class="cls-14" d="M320.13,354.51h0a6.52,6.52,0,0,0,1.63,4.13.86.86,0,0,0,.18.2,5.88,5.88,0,0,0-1.33,5.51,7.08,7.08,0,0,0,1.61,2.88,8.27,8.27,0,0,0,.72.73,8.15,8.15,0,0,0,1.68,1.11,3.75,3.75,0,0,0,.61.27c.08-.26.17-.52.25-.8q1-3.07,2.35-6.37l.32-.8c.52-1.24,1.09-2.52,1.69-3.82.77-1.68,1.57-3.47,2.36-5.33.13-.28.25-.57.38-.86,1-2.44,2.06-5,3.1-7.66.1-.26.2-.52.29-.78a.07.07,0,0,0-.06,0,21.44,21.44,0,0,0-7.61-.5h0a10.71,10.71,0,0,0-.4-1.85c-.1-.27-.2-.54-.32-.8a7.08,7.08,0,0,0-1-1.61c-.11.32-.22.65-.34,1-1.77,5-3.51,9.46-5.12,13.15v.05c-.12.26-.23.5-.33.74C320.57,353.54,320.35,354,320.13,354.51Z"/><path class="cls-15" d="M304.22,404l10.54-1.77c-.83-8.37-.12-26.93,8.94-46.47,12.21-26.31,25.81-78,25.81-78L345.72,276c-2.34,8.43-17.51,62.67-26.63,80.61C307.84,378.81,304.22,404,304.22,404Z"/><path class="cls-16" d="M360.41,262c.35,2.12,1.33,12-6.81,26.37h0c.3.15.6.3.9.47s.58.31.86.48c.56.31,1.11.64,1.63,1l.76.49.73.5c.24.16.48.32.7.49l.2.15.94.71.44.35.83.68.57.51a4.77,4.77,0,0,1,.4.35c.52.47,1,.91,1.39,1.32a23.7,23.7,0,0,1,2.18,2.48c13.75-19.78,10.62-33,10.62-33-1.09-.31-2.16-.6-3.23-.87-.88-.22-1.75-.43-2.61-.62l-1.23-.28c-.76-.17-1.5-.32-2.24-.46-.45-.1-.89-.18-1.32-.26Q363.18,262.36,360.41,262Z"/><path class="cls-17" d="M353.6,288.4c-.55-.28-1.12-.54-1.7-.8.58.26,1.15.53,1.7.81l.9.47.86.48c.56.32,1.11.64,1.63,1l.76.49.73.5.7.49.2.15.94.71.44.35.83.68.57.51a4.77,4.77,0,0,1,.4.35c.52.47,1,.91,1.39,1.32,12-18.15,9.78-30.4,9.57-31.37-.88-.22-1.75-.43-2.61-.62l-1.23-.28c-.76-.17-1.5-.32-2.24-.46-.45-.1-.89-.18-1.32-.26q-2.94-.54-5.71-.87C360.76,264.15,361.74,274,353.6,288.4Z"/><path class="cls-6" d="M313.94,274.6c14.39-3.09,15.76,9.46,15.76,9.46a43.46,43.46,0,0,1,23.9,4.35c8.14-14.39,7.16-24.26,6.81-26.38C327.1,257.92,313.94,274.6,313.94,274.6Z"/><path class="cls-16" d="M319.37,269.88c-.46.32-.89.62-1.28.92C318.49,270.51,318.91,270.2,319.37,269.88Z"/><path class="cls-17" d="M338.72,284.1a41.64,41.64,0,0,1,13.18,3.5A41.64,41.64,0,0,0,338.72,284.1Z"/><path class="cls-18" d="M353.6,288.4c-.55-.28-1.12-.54-1.7-.8.58.26,1.15.53,1.7.81Z"/><path class="cls-18" d="M338.72,284.1a41.64,41.64,0,0,1,13.18,3.5A41.64,41.64,0,0,0,338.72,284.1Z"/><line class="cls-5" x1="317.24" y1="350.44" x2="320.84" y2="357.43"/><path class="cls-19" d="M109.56,397.5c-10.62.81-19.39-.55-19.58-3l4.1,53.9h0c.5,2.39,9.13,3.67,19.55,2.88s18.76-3.37,18.9-5.8h0l-4.1-53.9C128.65,394,120.19,396.69,109.56,397.5Z"/><path class="cls-20" d="M112.65,438.08c-10.42.79-19.05-.5-19.56-2.88h0l.42,5.53h0c.51,2.39,9.14,3.67,19.56,2.88s18.76-3.37,18.9-5.8h0l-.42-5.53h0C131.41,434.71,123.07,437.28,112.65,438.08Z"/><path class="cls-16" d="M109.68,402.53a64.51,64.51,0,0,1-13.27-.21l2.43,31.88a63.73,63.73,0,0,0,13.27.22,64.9,64.9,0,0,0,13.08-2.22l-2.42-31.89A64.44,64.44,0,0,1,109.68,402.53Z"/><path class="cls-20" d="M96.41,402.32l.38,4.95a64.51,64.51,0,0,0,13.27.21,64.2,64.2,0,0,0,13.08-2.22l-.37-4.95a64.44,64.44,0,0,1-13.09,2.22A64.51,64.51,0,0,1,96.41,402.32Z"/><path class="cls-21" d="M116.6,418.94c.19.56-.39,1.22-.39,1.22s-1.07.84-1.09-2.38-5.33-6-5.33-6,0,.31.18,2.42c.17,2.66-1.43,1.87-1.43,1.87-1.4,1.75-1,5.44-1,5.44-1.77,1.82-2.1-1.65-2.1-1.65a5.21,5.21,0,0,0,.83,7.52s.61.52-.31.41c-.66-.08-.82-.33-.82-.33s.25,1.61,4.87,2.27a8.69,8.69,0,0,0,3.1-.26c3.44-1.06,3.94-2.57,3.94-2.57s-.06.14-.64.25-.13-.54-.13-.54C120.22,423.72,116.41,418.37,116.6,418.94Z"/><path class="cls-22" d="M115.51,424.37a2.11,2.11,0,0,0,0-2.26c-1.24.76-1.66.33-1.8,0a.92.92,0,0,1-.06-.46c.46-4.93-3-7.32-2.84-6.68a2.25,2.25,0,0,1,0,.73,5.09,5.09,0,0,1-.64,1.81,12.8,12.8,0,0,0-1.57,4.78c-.45,3.41-2.68,1.13-2.68,1.13s-.89,4.19,4.19,6.36a9.17,9.17,0,0,0,2.31-.11,9.18,9.18,0,0,0,4-4.79S114.78,425.71,115.51,424.37Z"/><path class="cls-23" d="M114.32,423.58Z"/><path class="cls-23" d="M114.32,423.58a2,2,0,0,1-1.56,1.22c-1.29.32-1.06-4.29-1.06-4.29a4.92,4.92,0,0,0-2.24,5.31.89.89,0,0,1-1.17.09c-.24-.15.49,2.86,2.68,3.87a10,10,0,0,0,1.41-.13c1.38-1.12,1.91-4.34,1.91-4.34l-.64.46Z"/><path class="cls-21" d="M104.69,419.48a3,3,0,0,1,.56-2.44.88.88,0,0,0,.28-.4.87.87,0,0,0,.06-.53C105.45,415.71,107,417.88,104.69,419.48Z"/><path class="cls-24" d="M112.39,429.64a12.91,12.91,0,0,0,1.14-3.17.75.75,0,0,1-.77.5c-.88,0-1.53-2.3-1.53-2.3s-.58,2-.71,2.32c-.27.64-.91.07-.91.07-.08,1,1.28,2.35,1.67,2.71A8.08,8.08,0,0,0,112.39,429.64Z"/><path class="cls-25" d="M128.46,391.55c.19,2.48-8.27,5.14-18.9,5.95s-19.39-.55-19.58-3,8-9.35,18.58-10.16S128.27,389.08,128.46,391.55Z"/><path class="cls-26" d="M136.68,390.13C116.53,370.06,101,382,101,382l-1.27-16.71,34-2.58s2.71,7.71-13.12,9.53c0,0,16.51,5.35,16.07,17.94Z"/><path class="cls-20" d="M100.15,370.47a28.62,28.62,0,0,0-8.84.34,18.34,18.34,0,0,0-7.83,3.57A16.08,16.08,0,0,0,78,383.29c-2.14,8.73.06,14.1,2.19,19.3a39.27,39.27,0,0,1,3.37,12.3l3.06,35,6.35-.56-3.06-35a45.27,45.27,0,0,0-3.82-14.16c-2.06-5-3.54-8.65-1.9-15.36,1-4.2,3.73-6.73,8.26-7.72a22.57,22.57,0,0,1,8.2.08Z"/><path class="cls-27" d="M84.22,434.55l.41,5.4a11.66,11.66,0,0,0,8.75-.78L93,433.76A11.69,11.69,0,0,1,84.22,434.55Z"/><path class="cls-28" d="M92.79,447.13l-.47-5.38a11.7,11.7,0,0,1-6.36.5l.48,5.42A11.73,11.73,0,0,0,92.79,447.13Z"/><circle class="cls-19" cx="112.49" cy="379.41" r="8.72"/><path class="cls-29" d="M113.05,386.67a7.28,7.28,0,1,1,6.7-7.81A7.3,7.3,0,0,1,113.05,386.67ZM112,372.84a6.59,6.59,0,1,0,7.07,6.07A6.59,6.59,0,0,0,112,372.84Z"/><path class="cls-29" d="M112.66,381.65a2.25,2.25,0,1,1,2.07-2.41A2.25,2.25,0,0,1,112.66,381.65Zm-.29-3.9a1.66,1.66,0,1,0,1.78,1.53A1.66,1.66,0,0,0,112.37,377.75Z"/><path class="cls-30" d="M112.49,379.41l2.08-6.61a6.79,6.79,0,0,0-2.6-.3,6.91,6.91,0,0,0-2.5.67C110.28,374.72,112.49,379.41,112.49,379.41Z"/><path class="cls-29" d="M103.83,380.38a19.22,19.22,0,0,0-1.72.87s.13,2.25.29,4.24a31.23,31.23,0,0,1,3.17-.78A8.62,8.62,0,0,1,103.83,380.38Z"/><rect class="cls-26" x="91.56" y="368.36" width="6.15" height="4.56" transform="matrix(1, -0.08, 0.08, 1, -27.85, 8.25)"/><rect class="cls-31" x="92.32" y="379.05" width="6.15" height="3.32" transform="translate(-28.61 8.34) rotate(-4.35)"/><rect class="cls-32" x="91.96" y="372.9" width="6.15" height="6.16" transform="translate(-28.26 8.3) rotate(-4.35)"/><polyline class="cls-5" points="114.74 366.48 120.94 357.18 125.57 371.93"/><path class="cls-33" d="M142.5,346s28.32,16.15,78.69,14.5v10.88s-62.38,0-78.69-16.15Z"/><path class="cls-33" d="M299.87,350.59s-22.56,11.59-72.93,9.94v10.88s55.13.47,72.94-12Z"/><path class="cls-33" d="M142.5,361.08s28.32,16.15,78.69,14.5l-4.38,10.88s-58,0-74.31-16.15Z"/><path class="cls-33" d="M299.87,365.65s-22.56,11.58-72.93,9.93v10.88s55.14.48,72.95-12Z"/><rect class="cls-34" x="214.97" y="306.74" width="15.17" height="95.83"/><path id="path592" class="cls-34" d="M238.45,306.17c-5.64,6.49-14.74,11.4-14.74,11.4l35.23,29.48,1.86-44.28"/><path id="path594" class="cls-34" d="M208.61,306.49c5.64,6.49,15.1,11.36,15.1,11.36l-36.06,29.51-1.15-43.31"/><path class="cls-35" d="M221.46,254.63h0c-21.38,0-25.82-2-34.83-4.29-5.59-1.43-7.19-.46-6.7,3.86.43,3.71,2.44,9.71,7.46,16.87,5.8,8.3,15.35,15.89,34.1,15.89s28.26-7.59,34.09-15.89c5-7.16,7-13.16,7.43-16.87.52-4.32-1.11-5.29-6.7-3.86-9,2.31-13.45,4.29-34.82,4.29Z"/><path class="cls-36" d="M221.46,257.8h0c-19.23,0-23.25-1.68-31.36-3.69-5-1.24-6.48-.38-6,3.34a15.41,15.41,0,0,0,2.22,5.94l1,.25c8.82,2.22,13.21,4.12,34.18,4.12h0c21,0,25.36-1.9,34.17-4.12l1-.25a15.36,15.36,0,0,0,2.25-5.94c.46-3.72-1-4.58-6.05-3.34-8.08,2-12.12,3.69-31.35,3.69Z"/><path class="cls-37" d="M220.7,288c7.82,0,16-1.81,21.65-5.4a38,38,0,0,0-4.94-3.6c-6.74-4.52-14.45-5.28-19-2.3-6.44-2.25-12.73-1.29-15.55,2.9a8.4,8.4,0,0,0-1.32,3.56A39.09,39.09,0,0,0,220.7,288Z"/><circle class="cls-16" cx="195.3" cy="211.2" r="16.79"/><circle class="cls-16" cx="249.8" cy="211.79" r="16.79"/><circle class="cls-38" cx="247.01" cy="213.58" r="5.59"/><circle class="cls-38" cx="196.68" cy="213.68" r="5.59"/><path class="cls-39" d="M172,196.61a3.28,3.28,0,0,1-1.19-.21,3.47,3.47,0,0,1-2.08-4.44c3-8.21,12.83-16.42,25.92-16.42h.43a3.47,3.47,0,0,1-.09,6.94h-.35c-11,0-17.7,7.23-19.38,11.84A3.47,3.47,0,0,1,172,196.61Z"/><path class="cls-39" d="M270.36,196.61a3.46,3.46,0,0,1-3.26-2.28c-1.7-4.66-8.55-12-19.73-11.84a3.47,3.47,0,1,1-.09-6.94h.42c13.1,0,22.94,8.21,25.92,16.41a3.46,3.46,0,0,1-2.07,4.45A3.32,3.32,0,0,1,270.36,196.61Z"/></svg>