<svg xmlns="http://www.w3.org/2000/svg" xmlns:xlink="http://www.w3.org/1999/xlink" viewBox="0 0 432 576"><defs><style>.cls-1{isolation:isolate;}.cls-16,.cls-2,.cls-22{fill:none;}.cls-2{stroke:#000;stroke-width:8px;}.cls-2,.cls-22{stroke-linecap:round;stroke-linejoin:round;}.cls-3{fill:#ededed;}.cls-4{fill:url(#linear-gradient);}.cls-5{fill:#fbd82b;}.cls-6{fill:#ffe278;}.cls-7{fill:#f7f7f7;}.cls-8{fill:#a36400;}.cls-9{fill:#fff;}.cls-10{fill:url(#linear-gradient-2);}.cls-11{fill:#834c3f;}.cls-12{opacity:0.1;}.cls-13{fill:#701d1d;}.cls-14{fill:#f0fdff;}.cls-15{fill:#060302;}.cls-17{fill:url(#linear-gradient-3);}.cls-18{mix-blend-mode:multiply;opacity:0.39;}.cls-19{fill:url(#linear-gradient-4);}.cls-20{fill:#080403;}.cls-21{fill:url(#linear-gradient-5);}.cls-22{stroke:#060302;stroke-width:3px;}</style><linearGradient id="linear-gradient" x1="150.27" y1="385.06" x2="276.35" y2="385.06" gradientUnits="userSpaceOnUse"><stop offset="0"/><stop offset="0.17" stop-color="#100906"/><stop offset="0.45" stop-color="#25130d"/><stop offset="0.73" stop-color="#321a12"/><stop offset="1" stop-color="#361c13"/></linearGradient><linearGradient id="linear-gradient-2" x1="212.76" y1="198.88" x2="212.76" y2="101.03" xlink:href="#linear-gradient"/><linearGradient id="linear-gradient-3" x1="215.61" y1="330.03" x2="215.61" y2="293.39" gradientUnits="userSpaceOnUse"><stop offset="0"/><stop offset="0.28" stop-color="#040201"/><stop offset="0.55" stop-color="#0f0805"/><stop offset="0.8" stop-color="#22110c"/><stop offset="1" stop-color="#361c13"/></linearGradient><linearGradient id="linear-gradient-4" x1="85.03" y1="294.89" x2="167.06" y2="294.89" gradientTransform="matrix(-1, 0, 0, 1, 373.89, 0)" gradientUnits="userSpaceOnUse"><stop offset="0" stop-color="#361c13"/><stop offset="0.36" stop-color="#21110c"/><stop offset="1"/></linearGradient><linearGradient id="linear-gradient-5" x1="215.05" y1="278.29" x2="215.05" y2="246.61" xlink:href="#linear-gradient"/></defs><g class="cls-1"><g id="Layer_1" data-name="Layer 1"><path class="cls-2" d="M194.84,375.41s2.79,46.75,2.78,49,2.2,55.49,2.2,55.49H181.09"/><polyline class="cls-2" points="237.53 375.41 234.53 427.68 232.54 479.95 250.16 479.95"/><rect class="cls-3" x="126.11" y="256.61" width="171.26" height="38.29" rx="12"/><ellipse class="cls-4" cx="213.31" cy="385.06" rx="63.04" ry="27.19"/><path class="cls-5" d="M137.41,179.27c0,16.51,34.68-25.39,76.25-25.39s74.26,44.22,74.26,27.72c0,0,.44,185,0,189.7-1.54,16.43-33.69,29.88-75.25,29.88s-75.26-13.38-75.26-29.88Z"/><path class="cls-6" d="M150.27,369.13V166.69a63.36,63.36,0,0,0,7.91,3.89v221.3a63.36,63.36,0,0,1-7.91-3.89Z"/><path class="cls-6" d="M185.05,350V152.84q-4.08-.72-7.91-1.62v246.2q3.83.9,7.91,1.62Z"/><path class="cls-6" d="M219.65,396.42V148.86q-3.45.15-7,.15h-.93v252.3h.93q3.54,0,7-.15Z"/><polygon class="cls-6" points="240.66 399.02 240.66 150.53 248.57 148.87 248.57 397.32 240.66 399.02"/><path class="cls-6" d="M276.35,372.54V166a83.62,83.62,0,0,1-7.91,4.06v221c2.37-1.13,6.33-3.29,7.91-4.29Z"/><path class="cls-3" d="M135.2,318.44v55c0,16.5,35.19,29.88,78.59,29.88s77-13.45,78.59-29.88c.15-1.53.21-25.89.21-57.93l-.21-37.78c0,16.5-35.18,29.88-78.59,29.88s-78.59-13.38-78.59-29.88Z"/><rect class="cls-7" x="208.27" y="315.5" width="16.94" height="87.78"/><path class="cls-8" d="M292.49,373.19c-1.62,17.1-35.19,31.09-78.59,31.09s-78.59-13.92-78.59-31.09v-7.34c0,17.16,35.18,31.08,78.59,31.08s77-14,78.59-31.08Z"/><rect class="cls-5" x="205.61" y="390.62" width="22.25" height="18.74"/><rect class="cls-8" x="212.02" y="397.03" width="9.43" height="5.92"/><circle class="cls-9" cx="216.99" cy="328.2" r="2.8"/><circle class="cls-9" cx="216.99" cy="344.82" r="2.8"/><circle class="cls-9" cx="217.03" cy="361.73" r="2.8"/><circle class="cls-9" cx="217.03" cy="378.49" r="2.8"/><path class="cls-10" d="M277.64,166.68c-2.77-17.1-12.05-62.08-33.29-64.95-26.26-3.55-35.4,7.73-49.1,2.36s-35.39-3-38.25,22.06c-1.6,14-5.71,29.56-9,40.5-16.59,4.57-26.84,10.89-26.84,17.87,0,5.33,6,10.28,16.27,14.36C150.91,181.21,179.58,169,212.76,169c33.53,0,62,11.77,75.27,29.74,10.78-4.18,16.35-8.65,16.35-14.23C304.38,177.56,294.16,171.25,277.64,166.68Z"/><path class="cls-11" d="M162.94,120.38c3.23-10.73,22.16-8.87,34.11-6.18s20.14-4.57,43.15-3.15c9.56.56,16.48,5.88,21.4,12-5-9.32-12-17.52-21.46-18.41-22.85-2.24-31,7.61-42.9,3.69S166.6,103.06,163,119.5c-.18.84-.38,1.68-.6,2.53C162.59,121.48,162.77,120.93,162.94,120.38Z"/><path class="cls-11" d="M149,166.07c.88-.49,2.17-1.22,3.86-2.06s3.75-1.81,6.17-2.81,5.18-2.07,8.25-3.08,6.4-2,10-2.86c1.79-.44,3.64-.84,5.54-1.23,1-.19,1.9-.39,2.9-.55l2.93-.48c1-.17,2-.29,3-.43l3.07-.4,3.1-.32,1.57-.15,1.58-.1,3.17-.2c1.06-.07,2.12-.07,3.19-.11s2.14-.07,3.21-.07l3.21,0c4.29,0,8.57.34,12.77.73,2.11.19,4.18.5,6.23.76l.77.1.76.13,1.52.26,3,.51c4,.74,7.75,1.58,11.31,2.55l2.64.68,2.53.77,2.44.76c.8.25,1.59.47,2.35.76,3,1.09,5.83,2,8.23,3.05s4.55,1.83,6.24,2.66,3,1.43,3.94,1.86l1.4.66-1.45-.53c-.94-.35-2.33-.84-4.08-1.5l-1.38-.52c-.48-.18-1-.33-1.53-.51l-3.46-1.16-1.9-.64c-.65-.22-1.34-.4-2-.61l-4.39-1.3c-.76-.25-1.55-.43-2.35-.64l-2.46-.62-2.53-.67-2.63-.58c-3.55-.83-7.33-1.5-11.24-2.17l-3-.44-1.5-.22-.75-.11-.76-.08-3.06-.34c-1-.11-2.05-.26-3.09-.32-4.14-.36-8.36-.61-12.58-.64l-3.17,0c-1.05,0-2.11,0-3.16,0s-2.1,0-3.15.09l-3.12.17c-.52,0-1,0-1.55.09l-1.55.13-3.06.24-3,.33c-1,.11-2,.21-3,.37l-2.94.41-2.85.45c-1.88.31-3.72.64-5.5,1s-3.51.76-5.18,1.15-3.27.82-4.81,1.24c-3.07.85-5.86,1.72-8.32,2.56s-4.57,1.65-6.3,2.35-3.09,1.29-4,1.71l-1,.48C147.85,166.74,148.51,166.33,149,166.07Z"/><path class="cls-12" d="M288,198.75c-14-20.15-38.21-29.58-75.27-29.74-30.36-.13-56.14,9.91-70.9,24.81-4.12.69-3.17.61-4.44,5.06.14.05-.13,7.89,0,7.94C150.91,189.15,179.58,177,212.76,177c33.53,0,61.91,14.42,75.22,32.39Z"/><circle class="cls-9" cx="246.22" cy="220.58" r="19.18"/><path class="cls-9" d="M246.22,241a20.38,20.38,0,1,1,20.38-20.38A20.4,20.4,0,0,1,246.22,241Zm0-38.36a18,18,0,1,0,18,18A18,18,0,0,0,246.22,202.6Z"/><circle class="cls-13" cx="242.62" cy="224.17" r="10.07"/><circle class="cls-9" cx="183.88" cy="220.58" r="19.18"/><path class="cls-9" d="M183.88,241a20.38,20.38,0,1,1,20.38-20.38A20.4,20.4,0,0,1,183.88,241Zm0-38.36a18,18,0,1,0,18,18A18,18,0,0,0,183.88,202.6Z"/><circle class="cls-13" cx="188.68" cy="224.17" r="10.07"/><path class="cls-14" d="M161.24,220.53a22.63,22.63,0,0,0,2.21,9.79l15.6-32s0,0-.05-.05A22.79,22.79,0,0,0,161.24,220.53Z"/><path class="cls-14" d="M167.77,236.49,187,198a22.45,22.45,0,0,0-3-.2c-.37,0-.74,0-1.1,0l-17.73,35.56A22.3,22.3,0,0,0,167.77,236.49Z"/><path class="cls-15" d="M157.16,223.67h1.65a2.36,2.36,0,0,0,1.28-.45,24.15,24.15,0,1,0,0-5.5,2.28,2.28,0,0,0-1.31-.37h-2.33a2.43,2.43,0,0,0-2.4,2.46V221a2.42,2.42,0,0,0,.48,1.47C155.05,224,157.16,223.67,157.16,223.67ZM184,242a21.48,21.48,0,1,1,21.48-21.47A21.5,21.5,0,0,1,184,242Z"/><ellipse class="cls-16" cx="184.02" cy="221.46" rx="21.45" ry="20.55"/><path class="cls-17" d="M241.78,293.8l-22.69,13.08a4,4,0,0,0-1.52-.3h-3.89a4,4,0,0,0-1.51.3L189.45,293.8a3,3,0,0,0-4.52,2.58V327a3,3,0,0,0,4.52,2.58l22.7-13a4.17,4.17,0,0,0,1.53.4h3.89a4.12,4.12,0,0,0,1.51-.4l22.7,13a3,3,0,0,0,4.5-2.63V296.38A3,3,0,0,0,241.78,293.8Z"/><path class="cls-11" d="M241.74,294.54l-22.66,13.09a4,4,0,0,0-1.51-.3h-3.89a4,4,0,0,0-1.51.3l-22.76-13.09c-2-1.15,22.76,14.59,22.76,14.59a4,4,0,0,1,1.51-.32h3.89a4.23,4.23,0,0,1,1.51.3S243.73,293.4,241.74,294.54Z"/><path class="cls-18" d="M196.18,297.65l-6.45-4.19c-2.36,3.31-4.42,6.44-5.91,9v23.42a2.91,2.91,0,0,0,.41,1.56,207.12,207.12,0,0,1,6.88-19.62A100.28,100.28,0,0,1,196.18,297.65Z"/><path class="cls-19" d="M215.34,262.3c18.87,2.53,38.19,26.9,42.62,32.25s5.16,1.24,5.16,1.24c0-1,2.83-5.5,12.95-4.8,0,0,9.11.8,11,5.27v0a27.68,27.68,0,0,1,1.82,9.76,28.36,28.36,0,0,1-.47,5.36C286.55,321,280,328,272.07,328c-11.66,0-11.55-10.83-24.45-31.69-18.4-29.76-33.18-27.91-38.19-29.25s-1.23-3.41-1.23-3.41C214.74,260.52,215.34,262.3,215.34,262.3Z"/><ellipse cx="273.98" cy="296.34" rx="7.38" ry="2.95"/><path class="cls-20" d="M227.59,278.77H202.41a1.86,1.86,0,0,1,0-3.72h25.18a1.86,1.86,0,0,1,0,3.72Z"/><path class="cls-21" d="M262,266.46c-4.45,0-6.18-4.93-8.43-7.49-3.32-3.74-9.5-7.19-22-7a22,22,0,0,0-14.94,6.16l-1.55,1.48-1.55-1.48a22.18,22.18,0,0,0-15.15-6.16c-12.35-.12-18.48,3.31-21.78,7-2.25,2.56-4,7.49-8.43,7.49-15.6,0,19.11,22.43,38.84,12.41a21.83,21.83,0,0,0,8.07-7.35,21.83,21.83,0,0,0,8.07,7.35C242.86,288.89,277.56,266.46,262,266.46Z"/><path class="cls-11" d="M189.32,257.2a.62.62,0,0,1-.24-1.2c4.95-1.65,13.56-3.33,20.25,1.62,0,0,5.28,3.54,4.47,4.22S207.52,255.9,189.32,257.2Z"/><path class="cls-11" d="M240.19,257.2a.62.62,0,0,0,.24-1.2c-5-1.65-13.56-3.33-20.25,1.62,0,0-5.28,3.54-4.47,4.22S222,255.9,240.19,257.2Z"/><path class="cls-22" d="M155.88,222.52s.58,60-8.07,44.08S137.41,256,137.41,256"/><path class="cls-2" d="M293.29,300.63l8.9,16s16.92,28.56-1.4,16.14-27.25-23-27.25-23"/><polyline class="cls-2" points="272.61 322.85 286.23 320.11 285.63 307.57"/><path class="cls-2" d="M138.61,301.7l-13.87,23.64s-7.32,10.24,13.48,17.81A169.29,169.29,0,0,0,177,352.28"/><polyline class="cls-2" points="168.73 358.35 156.87 348.52 173.24 344.82"/></g></g></svg>