<svg id="Layer_1" data-name="Layer 1" xmlns="http://www.w3.org/2000/svg" xmlns:xlink="http://www.w3.org/1999/xlink" viewBox="0 0 432 576"><defs><style>.cls-1{opacity:0.05;}.cls-2{fill:#040d21;}.cls-3{fill:none;stroke:#000;stroke-linecap:round;stroke-linejoin:round;stroke-width:8px;}.cls-4{fill:#ff491f;}.cls-5{fill:#2d313f;}.cls-6{fill:#feaf06;}.cls-7{fill:#fbd82b;}.cls-8{fill:#ffe278;}.cls-9{fill:#b57817;}.cls-10{fill:#701d1d;}.cls-11,.cls-16,.cls-17{fill:#fff;}.cls-12{fill:#f70000;}.cls-13,.cls-14{opacity:0.2;}.cls-13{fill:url(#linear-gradient);}.cls-14{fill:url(#linear-gradient-2);}.cls-15{fill:#0062b2;}.cls-16{opacity:0.6;}.cls-17{opacity:0.7;}.cls-18{fill:#f2f2f2;}.cls-19{fill:#c9c9c9;}.cls-20{fill:#677077;}.cls-21{fill:#b8b8b8;}.cls-22{fill:#858d92;}.cls-23{fill:#ccc;}.cls-24{fill:#ededed;}.cls-25{fill:#d9d9d9;}.cls-26{fill:#b4b4b4;}.cls-27{fill:url(#radial-gradient);}</style><linearGradient id="linear-gradient" x1="241.94" y1="246.08" x2="241.94" y2="197.25" gradientTransform="matrix(0.99, 0.16, -0.16, 0.99, 38.63, -35.89)" gradientUnits="userSpaceOnUse"><stop offset="0.36" stop-color="#fff"/><stop offset="0.42" stop-color="#f5f9fc"/><stop offset="0.51" stop-color="#dae8f4"/><stop offset="0.62" stop-color="#aecde6"/><stop offset="0.76" stop-color="#70a7d4"/><stop offset="0.92" stop-color="#2378bd"/><stop offset="0.99" stop-color="#0062b2"/></linearGradient><linearGradient id="linear-gradient-2" x1="182.8" y1="246.08" x2="182.8" y2="197.25" gradientTransform="translate(352.89 -9.9) rotate(75.81)" xlink:href="#linear-gradient"/><radialGradient id="radial-gradient" cx="213.47" cy="176.48" r="39.53" gradientTransform="translate(-114.19 389.96) rotate(-90) scale(1 1.86)" gradientUnits="userSpaceOnUse"><stop offset="0" stop-color="#ff8c1f"/><stop offset="1" stop-color="#feaf06"/></radialGradient></defs><g class="cls-1"><path class="cls-2" d="M225.49,237.05v15.77h2.91a2.2,2.2,0,0,1,1.49.4,1.37,1.37,0,0,1,.44,1.05,1.34,1.34,0,0,1-.44,1,2.2,2.2,0,0,1-1.49.4h-8.7a2.18,2.18,0,0,1-1.48-.4,1.37,1.37,0,0,1-.44-1.05,1.34,1.34,0,0,1,.44-1,2.18,2.18,0,0,1,1.48-.4h2.91v-12l-2.57.67a4,4,0,0,1-.93.17,1.23,1.23,0,0,1-.94-.44,1.49,1.49,0,0,1-.4-1.06,1.29,1.29,0,0,1,.29-.91,2.58,2.58,0,0,1,1.24-.58Z"/><path class="cls-2" d="M247.58,245v3.16a9.94,9.94,0,0,1-1.62,5.38,5.18,5.18,0,0,1-4.64,2.57,5.39,5.39,0,0,1-2.95-.76,7.21,7.21,0,0,1-2.27-2.83,9.26,9.26,0,0,1-1.08-4.36V245a10,10,0,0,1,1.62-5.38,5.15,5.15,0,0,1,4.63-2.58,5.41,5.41,0,0,1,2.93.76,7.38,7.38,0,0,1,2.3,2.82A9.28,9.28,0,0,1,247.58,245Zm-2.89,0a6.7,6.7,0,0,0-1.31-4.11,2.49,2.49,0,0,0-2.09-1,2.6,2.6,0,0,0-2.14,1.07,6.38,6.38,0,0,0-1.25,4v3.16a6.6,6.6,0,0,0,1.32,4.1,2.47,2.47,0,0,0,2.1,1,2.55,2.55,0,0,0,2.12-1.07,6.35,6.35,0,0,0,1.25-4Z"/><path class="cls-2" d="M260,237.05v15.77h2.91a2.2,2.2,0,0,1,1.49.4,1.37,1.37,0,0,1,.44,1.05,1.34,1.34,0,0,1-.44,1,2.2,2.2,0,0,1-1.49.4h-8.7a2.18,2.18,0,0,1-1.48-.4,1.37,1.37,0,0,1-.44-1.05,1.34,1.34,0,0,1,.44-1,2.18,2.18,0,0,1,1.48-.4h2.91v-12l-2.57.67a4,4,0,0,1-.93.17,1.23,1.23,0,0,1-.94-.44,1.49,1.49,0,0,1-.4-1.06,1.29,1.29,0,0,1,.29-.91,2.58,2.58,0,0,1,1.24-.58Z"/><path class="cls-2" d="M282.12,245v3.16a9.94,9.94,0,0,1-1.62,5.38,5.18,5.18,0,0,1-4.64,2.57,5.37,5.37,0,0,1-2.95-.76,7.31,7.31,0,0,1-2.28-2.83,9.37,9.37,0,0,1-1.07-4.36V245a10,10,0,0,1,1.62-5.38,5.15,5.15,0,0,1,4.63-2.58,5.41,5.41,0,0,1,2.93.76,7.28,7.28,0,0,1,2.29,2.82A9.17,9.17,0,0,1,282.12,245Zm-2.89,0a6.7,6.7,0,0,0-1.31-4.11,2.5,2.5,0,0,0-2.09-1,2.6,2.6,0,0,0-2.14,1.07,6.38,6.38,0,0,0-1.25,4v3.16a6.6,6.6,0,0,0,1.32,4.1,2.47,2.47,0,0,0,2.1,1,2.56,2.56,0,0,0,2.12-1.07,6.35,6.35,0,0,0,1.25-4Z"/><path class="cls-2" d="M230.31,295.4v3.16a9.91,9.91,0,0,1-1.62,5.38,5.17,5.17,0,0,1-4.64,2.58,5.37,5.37,0,0,1-3-.77,7.17,7.17,0,0,1-2.27-2.82,9.3,9.3,0,0,1-1.08-4.37V295.4a9.93,9.93,0,0,1,1.62-5.37,5.15,5.15,0,0,1,4.63-2.58,5.32,5.32,0,0,1,2.93.76,7.26,7.26,0,0,1,2.3,2.81A9.31,9.31,0,0,1,230.31,295.4Zm-2.89,0a6.69,6.69,0,0,0-1.31-4.1,2.46,2.46,0,0,0-2.09-1,2.57,2.57,0,0,0-2.14,1.07,6.35,6.35,0,0,0-1.25,4v3.16a6.63,6.63,0,0,0,1.32,4.11,2.49,2.49,0,0,0,2.1,1,2.57,2.57,0,0,0,2.12-1.07,6.38,6.38,0,0,0,1.25-4Z"/><path class="cls-2" d="M242.76,287.45v15.76h2.91a2.25,2.25,0,0,1,1.49.4,1.37,1.37,0,0,1,.44,1.05,1.33,1.33,0,0,1-.44,1,2.2,2.2,0,0,1-1.49.4H237a2.18,2.18,0,0,1-1.48-.4,1.34,1.34,0,0,1-.44-1,1.35,1.35,0,0,1,.44-1,2.24,2.24,0,0,1,1.48-.4h2.91v-12l-2.57.67a3.54,3.54,0,0,1-.93.17,1.22,1.22,0,0,1-.94-.43,1.51,1.51,0,0,1-.4-1.07,1.29,1.29,0,0,1,.29-.91,2.68,2.68,0,0,1,1.24-.58Z"/><path class="cls-2" d="M260,287.45v15.76h2.91a2.25,2.25,0,0,1,1.49.4,1.37,1.37,0,0,1,.44,1.05,1.33,1.33,0,0,1-.44,1,2.2,2.2,0,0,1-1.49.4h-8.7a2.18,2.18,0,0,1-1.48-.4,1.34,1.34,0,0,1-.44-1,1.35,1.35,0,0,1,.44-1,2.24,2.24,0,0,1,1.48-.4h2.91v-12l-2.57.67a3.54,3.54,0,0,1-.93.17,1.22,1.22,0,0,1-.94-.43,1.51,1.51,0,0,1-.4-1.07,1.29,1.29,0,0,1,.29-.91,2.68,2.68,0,0,1,1.24-.58Z"/><path class="cls-2" d="M282.12,295.4v3.16a9.91,9.91,0,0,1-1.62,5.38,5.17,5.17,0,0,1-4.64,2.58,5.37,5.37,0,0,1-2.95-.77,7.27,7.27,0,0,1-2.28-2.82,9.41,9.41,0,0,1-1.07-4.37V295.4a9.93,9.93,0,0,1,1.62-5.37,5.15,5.15,0,0,1,4.63-2.58,5.32,5.32,0,0,1,2.93.76A7.16,7.16,0,0,1,281,291,9.2,9.2,0,0,1,282.12,295.4Zm-2.89,0a6.69,6.69,0,0,0-1.31-4.1,2.48,2.48,0,0,0-2.09-1,2.57,2.57,0,0,0-2.14,1.07,6.35,6.35,0,0,0-1.25,4v3.16a6.63,6.63,0,0,0,1.32,4.11,2.49,2.49,0,0,0,2.1,1,2.59,2.59,0,0,0,2.12-1.07,6.38,6.38,0,0,0,1.25-4Z"/><path class="cls-2" d="M230.31,270.34v3.16a9.91,9.91,0,0,1-1.62,5.38,5.17,5.17,0,0,1-4.64,2.58,5.37,5.37,0,0,1-3-.77,7.17,7.17,0,0,1-2.27-2.82,9.3,9.3,0,0,1-1.08-4.37v-3.16a9.93,9.93,0,0,1,1.62-5.37,5.15,5.15,0,0,1,4.63-2.58,5.32,5.32,0,0,1,2.93.76,7.26,7.26,0,0,1,2.3,2.81A9.31,9.31,0,0,1,230.31,270.34Zm-2.89,0a6.69,6.69,0,0,0-1.31-4.1,2.46,2.46,0,0,0-2.09-1,2.57,2.57,0,0,0-2.14,1.07,6.35,6.35,0,0,0-1.25,4v3.16a6.63,6.63,0,0,0,1.32,4.11,2.49,2.49,0,0,0,2.1,1,2.57,2.57,0,0,0,2.12-1.07,6.38,6.38,0,0,0,1.25-4Z"/><path class="cls-2" d="M242.76,262.39v15.76h2.91a2.25,2.25,0,0,1,1.49.4,1.37,1.37,0,0,1,.44,1.05,1.33,1.33,0,0,1-.44,1,2.2,2.2,0,0,1-1.49.4H237a2.18,2.18,0,0,1-1.48-.4,1.34,1.34,0,0,1-.44-1,1.37,1.37,0,0,1,.44-1,2.24,2.24,0,0,1,1.48-.4h2.91v-12l-2.57.67a3.54,3.54,0,0,1-.93.17,1.22,1.22,0,0,1-.94-.43,1.51,1.51,0,0,1-.4-1.07,1.31,1.31,0,0,1,.29-.91,2.68,2.68,0,0,1,1.24-.58Z"/><path class="cls-2" d="M264.85,270.34v3.16a9.91,9.91,0,0,1-1.62,5.38,5.17,5.17,0,0,1-4.64,2.58,5.4,5.4,0,0,1-2.95-.77,7.17,7.17,0,0,1-2.27-2.82,9.3,9.3,0,0,1-1.08-4.37v-3.16a9.93,9.93,0,0,1,1.62-5.37,5.15,5.15,0,0,1,4.63-2.58,5.32,5.32,0,0,1,2.93.76,7.26,7.26,0,0,1,2.3,2.81A9.31,9.31,0,0,1,264.85,270.34Zm-2.89,0a6.69,6.69,0,0,0-1.31-4.1,2.46,2.46,0,0,0-2.09-1,2.57,2.57,0,0,0-2.14,1.07,6.35,6.35,0,0,0-1.25,4v3.16a6.63,6.63,0,0,0,1.32,4.11,2.49,2.49,0,0,0,2.1,1,2.57,2.57,0,0,0,2.12-1.07,6.38,6.38,0,0,0,1.25-4Z"/><path class="cls-2" d="M282.12,270.34v3.16a9.91,9.91,0,0,1-1.62,5.38,5.17,5.17,0,0,1-4.64,2.58,5.37,5.37,0,0,1-2.95-.77,7.27,7.27,0,0,1-2.28-2.82,9.41,9.41,0,0,1-1.07-4.37v-3.16a9.93,9.93,0,0,1,1.62-5.37,5.15,5.15,0,0,1,4.63-2.58,5.32,5.32,0,0,1,2.93.76A7.16,7.16,0,0,1,281,266,9.2,9.2,0,0,1,282.12,270.34Zm-2.89,0a6.69,6.69,0,0,0-1.31-4.1,2.48,2.48,0,0,0-2.09-1,2.57,2.57,0,0,0-2.14,1.07,6.35,6.35,0,0,0-1.25,4v3.16a6.63,6.63,0,0,0,1.32,4.11,2.49,2.49,0,0,0,2.1,1,2.59,2.59,0,0,0,2.12-1.07,6.38,6.38,0,0,0,1.25-4Z"/><path class="cls-2" d="M295.91,237.05v15.77h2.91a2.18,2.18,0,0,1,1.48.4,1.34,1.34,0,0,1,.44,1.05,1.31,1.31,0,0,1-.44,1,2.18,2.18,0,0,1-1.48.4h-8.7a2.17,2.17,0,0,1-1.48-.4,1.35,1.35,0,0,1-.45-1.05,1.32,1.32,0,0,1,.45-1,2.17,2.17,0,0,1,1.48-.4H293v-12l-2.57.67a4.11,4.11,0,0,1-.93.17,1.25,1.25,0,0,1-.95-.44,1.49,1.49,0,0,1-.4-1.06,1.34,1.34,0,0,1,.29-.91,2.58,2.58,0,0,1,1.24-.58Z"/><path class="cls-2" d="M318,245v3.16a9.94,9.94,0,0,1-1.62,5.38,5.2,5.2,0,0,1-4.65,2.57,5.36,5.36,0,0,1-2.94-.76,7.31,7.31,0,0,1-2.28-2.83,9.25,9.25,0,0,1-1.07-4.36V245a10,10,0,0,1,1.61-5.38,5.17,5.17,0,0,1,4.64-2.58,5.43,5.43,0,0,1,2.93.76,7.37,7.37,0,0,1,2.29,2.82A9.17,9.17,0,0,1,318,245Zm-2.9,0a6.69,6.69,0,0,0-1.3-4.11,2.52,2.52,0,0,0-2.1-1,2.58,2.58,0,0,0-2.13,1.07,6.32,6.32,0,0,0-1.25,4v3.16a6.6,6.6,0,0,0,1.32,4.1,2.44,2.44,0,0,0,2.09,1,2.55,2.55,0,0,0,2.12-1.07,6.29,6.29,0,0,0,1.25-4Z"/><path class="cls-2" d="M330.45,237.05v15.77h2.91a2.17,2.17,0,0,1,1.48.4,1.34,1.34,0,0,1,.44,1.05,1.31,1.31,0,0,1-.44,1,2.17,2.17,0,0,1-1.48.4h-8.7a2.17,2.17,0,0,1-1.48-.4,1.35,1.35,0,0,1-.45-1.05,1.32,1.32,0,0,1,.45-1,2.17,2.17,0,0,1,1.48-.4h2.91v-12l-2.57.67a4.11,4.11,0,0,1-.93.17,1.25,1.25,0,0,1-.95-.44,1.49,1.49,0,0,1-.4-1.06,1.34,1.34,0,0,1,.29-.91,2.58,2.58,0,0,1,1.24-.58Z"/><path class="cls-2" d="M352.54,245v3.16a9.87,9.87,0,0,1-1.63,5.38,5.18,5.18,0,0,1-4.64,2.57,5.36,5.36,0,0,1-2.94-.76,7.31,7.31,0,0,1-2.28-2.83,9.25,9.25,0,0,1-1.07-4.36V245a10,10,0,0,1,1.61-5.38,5.16,5.16,0,0,1,4.64-2.58,5.43,5.43,0,0,1,2.93.76,7.37,7.37,0,0,1,2.29,2.82A9.29,9.29,0,0,1,352.54,245Zm-2.9,0a6.69,6.69,0,0,0-1.3-4.11,2.52,2.52,0,0,0-2.1-1,2.58,2.58,0,0,0-2.13,1.07,6.32,6.32,0,0,0-1.25,4v3.16a6.6,6.6,0,0,0,1.32,4.1,2.44,2.44,0,0,0,2.09,1,2.55,2.55,0,0,0,2.12-1.07,6.29,6.29,0,0,0,1.25-4Z"/><path class="cls-2" d="M300.73,295.4v3.16a9.91,9.91,0,0,1-1.62,5.38,5.19,5.19,0,0,1-4.65,2.58,5.36,5.36,0,0,1-2.94-.77,7.27,7.27,0,0,1-2.28-2.82,9.29,9.29,0,0,1-1.07-4.37V295.4a9.92,9.92,0,0,1,1.61-5.37,5.17,5.17,0,0,1,4.64-2.58,5.35,5.35,0,0,1,2.93.76,7.25,7.25,0,0,1,2.29,2.81A9.2,9.2,0,0,1,300.73,295.4Zm-2.9,0a6.69,6.69,0,0,0-1.3-4.1,2.49,2.49,0,0,0-2.1-1,2.55,2.55,0,0,0-2.13,1.07,6.29,6.29,0,0,0-1.25,4v3.16a6.63,6.63,0,0,0,1.32,4.11,2.46,2.46,0,0,0,2.09,1,2.57,2.57,0,0,0,2.12-1.07,6.32,6.32,0,0,0,1.25-4Z"/><path class="cls-2" d="M313.18,287.45v15.76h2.91a2.22,2.22,0,0,1,1.48.4,1.34,1.34,0,0,1,.44,1.05,1.3,1.3,0,0,1-.44,1,2.17,2.17,0,0,1-1.48.4h-8.7a2.17,2.17,0,0,1-1.48-.4,1.31,1.31,0,0,1-.45-1,1.33,1.33,0,0,1,.45-1,2.22,2.22,0,0,1,1.48-.4h2.91v-12l-2.57.67a3.61,3.61,0,0,1-.93.17,1.24,1.24,0,0,1-.95-.43,1.51,1.51,0,0,1-.4-1.07,1.34,1.34,0,0,1,.29-.91,2.68,2.68,0,0,1,1.24-.58Z"/><path class="cls-2" d="M330.45,287.45v15.76h2.91a2.22,2.22,0,0,1,1.48.4,1.34,1.34,0,0,1,.44,1.05,1.3,1.3,0,0,1-.44,1,2.17,2.17,0,0,1-1.48.4h-8.7a2.17,2.17,0,0,1-1.48-.4,1.31,1.31,0,0,1-.45-1,1.33,1.33,0,0,1,.45-1,2.22,2.22,0,0,1,1.48-.4h2.91v-12l-2.57.67a3.61,3.61,0,0,1-.93.17,1.24,1.24,0,0,1-.95-.43,1.51,1.51,0,0,1-.4-1.07,1.34,1.34,0,0,1,.29-.91,2.68,2.68,0,0,1,1.24-.58Z"/><path class="cls-2" d="M352.54,295.4v3.16a9.84,9.84,0,0,1-1.63,5.38,5.17,5.17,0,0,1-4.64,2.58,5.36,5.36,0,0,1-2.94-.77,7.27,7.27,0,0,1-2.28-2.82,9.29,9.29,0,0,1-1.07-4.37V295.4a9.92,9.92,0,0,1,1.61-5.37,5.16,5.16,0,0,1,4.64-2.58,5.35,5.35,0,0,1,2.93.76,7.25,7.25,0,0,1,2.29,2.81A9.32,9.32,0,0,1,352.54,295.4Zm-2.9,0a6.69,6.69,0,0,0-1.3-4.1,2.49,2.49,0,0,0-2.1-1,2.55,2.55,0,0,0-2.13,1.07,6.29,6.29,0,0,0-1.25,4v3.16a6.63,6.63,0,0,0,1.32,4.11,2.46,2.46,0,0,0,2.09,1,2.57,2.57,0,0,0,2.12-1.07,6.32,6.32,0,0,0,1.25-4Z"/><path class="cls-2" d="M300.73,270.34v3.16a9.91,9.91,0,0,1-1.62,5.38,5.19,5.19,0,0,1-4.65,2.58,5.36,5.36,0,0,1-2.94-.77,7.27,7.27,0,0,1-2.28-2.82,9.29,9.29,0,0,1-1.07-4.37v-3.16a9.92,9.92,0,0,1,1.61-5.37,5.17,5.17,0,0,1,4.64-2.58,5.35,5.35,0,0,1,2.93.76,7.25,7.25,0,0,1,2.29,2.81A9.2,9.2,0,0,1,300.73,270.34Zm-2.9,0a6.69,6.69,0,0,0-1.3-4.1,2.49,2.49,0,0,0-2.1-1,2.55,2.55,0,0,0-2.13,1.07,6.29,6.29,0,0,0-1.25,4v3.16a6.63,6.63,0,0,0,1.32,4.11,2.46,2.46,0,0,0,2.09,1,2.57,2.57,0,0,0,2.12-1.07,6.32,6.32,0,0,0,1.25-4Z"/><path class="cls-2" d="M313.18,262.39v15.76h2.91a2.22,2.22,0,0,1,1.48.4,1.34,1.34,0,0,1,.44,1.05,1.3,1.3,0,0,1-.44,1,2.17,2.17,0,0,1-1.48.4h-8.7a2.17,2.17,0,0,1-1.48-.4,1.31,1.31,0,0,1-.45-1,1.34,1.34,0,0,1,.45-1,2.22,2.22,0,0,1,1.48-.4h2.91v-12l-2.57.67a3.61,3.61,0,0,1-.93.17,1.24,1.24,0,0,1-.95-.43,1.51,1.51,0,0,1-.4-1.07,1.36,1.36,0,0,1,.29-.91A2.68,2.68,0,0,1,307,264Z"/><path class="cls-2" d="M335.27,270.34v3.16a9.91,9.91,0,0,1-1.62,5.38,5.19,5.19,0,0,1-4.65,2.58,5.36,5.36,0,0,1-2.94-.77,7.27,7.27,0,0,1-2.28-2.82,9.29,9.29,0,0,1-1.07-4.37v-3.16a9.92,9.92,0,0,1,1.61-5.37,5.17,5.17,0,0,1,4.64-2.58,5.35,5.35,0,0,1,2.93.76,7.25,7.25,0,0,1,2.29,2.81A9.2,9.2,0,0,1,335.27,270.34Zm-2.9,0a6.69,6.69,0,0,0-1.3-4.1,2.49,2.49,0,0,0-2.1-1,2.55,2.55,0,0,0-2.13,1.07,6.29,6.29,0,0,0-1.25,4v3.16a6.63,6.63,0,0,0,1.32,4.11,2.48,2.48,0,0,0,2.09,1,2.57,2.57,0,0,0,2.12-1.07,6.32,6.32,0,0,0,1.25-4Z"/><path class="cls-2" d="M352.54,270.34v3.16a9.84,9.84,0,0,1-1.63,5.38,5.17,5.17,0,0,1-4.64,2.58,5.36,5.36,0,0,1-2.94-.77,7.27,7.27,0,0,1-2.28-2.82A9.29,9.29,0,0,1,340,273.5v-3.16a9.92,9.92,0,0,1,1.61-5.37,5.16,5.16,0,0,1,4.64-2.58,5.35,5.35,0,0,1,2.93.76,7.25,7.25,0,0,1,2.29,2.81A9.32,9.32,0,0,1,352.54,270.34Zm-2.9,0a6.69,6.69,0,0,0-1.3-4.1,2.49,2.49,0,0,0-2.1-1,2.55,2.55,0,0,0-2.13,1.07,6.29,6.29,0,0,0-1.25,4v3.16a6.63,6.63,0,0,0,1.32,4.11,2.46,2.46,0,0,0,2.09,1,2.57,2.57,0,0,0,2.12-1.07,6.32,6.32,0,0,0,1.25-4Z"/><path class="cls-2" d="M225.51,160.85v15.76h2.91a2.18,2.18,0,0,1,1.48.4,1.37,1.37,0,0,1,.44,1.05,1.34,1.34,0,0,1-.44,1,2.18,2.18,0,0,1-1.48.4h-8.7a2.15,2.15,0,0,1-1.48-.4,1.43,1.43,0,0,1,0-2.08,2.15,2.15,0,0,1,1.48-.4h2.91v-12l-2.57.67a4.2,4.2,0,0,1-.93.17,1.25,1.25,0,0,1-.95-.44,1.49,1.49,0,0,1-.4-1.06,1.34,1.34,0,0,1,.29-.91,2.68,2.68,0,0,1,1.24-.58Z"/><path class="cls-2" d="M247.6,168.8V172a9.87,9.87,0,0,1-1.63,5.38,5.16,5.16,0,0,1-4.64,2.57,5.36,5.36,0,0,1-2.94-.76,7.24,7.24,0,0,1-2.28-2.83A9.22,9.22,0,0,1,235,172V168.8a10,10,0,0,1,1.61-5.38,5.15,5.15,0,0,1,4.64-2.57,5.43,5.43,0,0,1,2.93.75,7.37,7.37,0,0,1,2.29,2.82A9.29,9.29,0,0,1,247.6,168.8Zm-2.9,0a6.67,6.67,0,0,0-1.3-4.1,2.49,2.49,0,0,0-2.1-1,2.57,2.57,0,0,0-2.13,1.06,6.33,6.33,0,0,0-1.25,4V172a6.6,6.6,0,0,0,1.32,4.1,2.44,2.44,0,0,0,2.09,1,2.55,2.55,0,0,0,2.12-1.07,6.29,6.29,0,0,0,1.25-4Z"/><path class="cls-2" d="M260.05,160.85v15.76H263a2.18,2.18,0,0,1,1.48.4,1.37,1.37,0,0,1,.44,1.05,1.34,1.34,0,0,1-.44,1,2.18,2.18,0,0,1-1.48.4h-8.7a2.15,2.15,0,0,1-1.48-.4,1.43,1.43,0,0,1,0-2.08,2.15,2.15,0,0,1,1.48-.4h2.91v-12l-2.57.67a4.2,4.2,0,0,1-.93.17,1.25,1.25,0,0,1-.95-.44,1.49,1.49,0,0,1-.4-1.06,1.34,1.34,0,0,1,.29-.91,2.68,2.68,0,0,1,1.24-.58Z"/><path class="cls-2" d="M282.14,168.8V172a9.87,9.87,0,0,1-1.63,5.38,5.16,5.16,0,0,1-4.64,2.57,5.36,5.36,0,0,1-2.94-.76,7.15,7.15,0,0,1-2.28-2.83,9.23,9.23,0,0,1-1.08-4.36V168.8a10,10,0,0,1,1.62-5.38,5.15,5.15,0,0,1,4.64-2.57,5.43,5.43,0,0,1,2.93.75,7.37,7.37,0,0,1,2.29,2.82A9.29,9.29,0,0,1,282.14,168.8Zm-2.9,0a6.61,6.61,0,0,0-1.31-4.1,2.46,2.46,0,0,0-2.09-1,2.57,2.57,0,0,0-2.13,1.06,6.34,6.34,0,0,0-1.26,4V172a6.54,6.54,0,0,0,1.33,4.1,2.44,2.44,0,0,0,2.09,1A2.55,2.55,0,0,0,278,176a6.35,6.35,0,0,0,1.25-4Z"/><path class="cls-2" d="M230.33,219.19v3.16a9.9,9.9,0,0,1-1.63,5.39,5.18,5.18,0,0,1-4.64,2.57,5.36,5.36,0,0,1-2.94-.77,7.27,7.27,0,0,1-2.28-2.82,9.26,9.26,0,0,1-1.07-4.37v-3.16a9.94,9.94,0,0,1,1.61-5.37,5.16,5.16,0,0,1,4.64-2.58A5.35,5.35,0,0,1,227,212a7.21,7.21,0,0,1,2.29,2.82A9.28,9.28,0,0,1,230.33,219.19Zm-2.9,0a6.69,6.69,0,0,0-1.3-4.1,2.49,2.49,0,0,0-2.1-1,2.58,2.58,0,0,0-2.13,1.07,6.31,6.31,0,0,0-1.25,4v3.16a6.61,6.61,0,0,0,1.32,4.11,2.46,2.46,0,0,0,2.09,1,2.57,2.57,0,0,0,2.12-1.07,6.32,6.32,0,0,0,1.25-4Z"/><path class="cls-2" d="M242.78,211.24V227h2.91a2.18,2.18,0,0,1,1.48.4,1.34,1.34,0,0,1,.44,1,1.37,1.37,0,0,1-.44,1,2.24,2.24,0,0,1-1.48.4H237a2.2,2.2,0,0,1-1.48-.4,1.35,1.35,0,0,1-.45-1.05,1.31,1.31,0,0,1,.45-1A2.15,2.15,0,0,1,237,227h2.91V215l-2.57.68a4,4,0,0,1-.93.16,1.24,1.24,0,0,1-1-.43,1.51,1.51,0,0,1-.4-1.07,1.36,1.36,0,0,1,.29-.91,2.68,2.68,0,0,1,1.24-.58Z"/><path class="cls-2" d="M260.05,211.24V227H263a2.18,2.18,0,0,1,1.48.4,1.34,1.34,0,0,1,.44,1,1.37,1.37,0,0,1-.44,1,2.24,2.24,0,0,1-1.48.4h-8.7a2.2,2.2,0,0,1-1.48-.4,1.35,1.35,0,0,1-.45-1.05,1.31,1.31,0,0,1,.45-1,2.15,2.15,0,0,1,1.48-.4h2.91V215l-2.57.68a4,4,0,0,1-.93.16,1.24,1.24,0,0,1-.95-.43,1.51,1.51,0,0,1-.4-1.07,1.36,1.36,0,0,1,.29-.91,2.68,2.68,0,0,1,1.24-.58Z"/><path class="cls-2" d="M282.14,219.19v3.16a9.9,9.9,0,0,1-1.63,5.39,5.18,5.18,0,0,1-4.64,2.57,5.36,5.36,0,0,1-2.94-.77,7.18,7.18,0,0,1-2.28-2.82,9.27,9.27,0,0,1-1.08-4.37v-3.16a10,10,0,0,1,1.62-5.37,5.16,5.16,0,0,1,4.64-2.58,5.35,5.35,0,0,1,2.93.76,7.21,7.21,0,0,1,2.29,2.82A9.28,9.28,0,0,1,282.14,219.19Zm-2.9,0a6.63,6.63,0,0,0-1.31-4.1,2.46,2.46,0,0,0-2.09-1,2.58,2.58,0,0,0-2.13,1.07,6.31,6.31,0,0,0-1.26,4v3.16a6.55,6.55,0,0,0,1.33,4.11,2.46,2.46,0,0,0,2.09,1,2.57,2.57,0,0,0,2.12-1.07,6.38,6.38,0,0,0,1.25-4Z"/><path class="cls-2" d="M230.33,194.13v3.16a9.9,9.9,0,0,1-1.63,5.39,5.18,5.18,0,0,1-4.64,2.57,5.36,5.36,0,0,1-2.94-.77,7.27,7.27,0,0,1-2.28-2.82,9.26,9.26,0,0,1-1.07-4.37v-3.16a9.94,9.94,0,0,1,1.61-5.37,5.16,5.16,0,0,1,4.64-2.58,5.35,5.35,0,0,1,2.93.76,7.21,7.21,0,0,1,2.29,2.82A9.28,9.28,0,0,1,230.33,194.13Zm-2.9,0a6.69,6.69,0,0,0-1.3-4.1,2.49,2.49,0,0,0-2.1-1,2.58,2.58,0,0,0-2.13,1.07,6.31,6.31,0,0,0-1.25,4v3.16A6.61,6.61,0,0,0,222,201.4a2.46,2.46,0,0,0,2.09,1,2.57,2.57,0,0,0,2.12-1.07,6.32,6.32,0,0,0,1.25-4Z"/><path class="cls-2" d="M242.78,186.18V202h2.91a2.18,2.18,0,0,1,1.48.4,1.34,1.34,0,0,1,.44,1,1.37,1.37,0,0,1-.44,1,2.24,2.24,0,0,1-1.48.4H237a2.2,2.2,0,0,1-1.48-.4,1.35,1.35,0,0,1-.45-1.05,1.31,1.31,0,0,1,.45-1A2.15,2.15,0,0,1,237,202h2.91v-12l-2.57.68a4,4,0,0,1-.93.16,1.24,1.24,0,0,1-1-.43,1.51,1.51,0,0,1-.4-1.07,1.36,1.36,0,0,1,.29-.91,2.68,2.68,0,0,1,1.24-.58Z"/><path class="cls-2" d="M264.87,194.13v3.16a9.9,9.9,0,0,1-1.63,5.39,5.18,5.18,0,0,1-4.64,2.57,5.36,5.36,0,0,1-2.94-.77,7.27,7.27,0,0,1-2.28-2.82,9.26,9.26,0,0,1-1.07-4.37v-3.16a9.94,9.94,0,0,1,1.61-5.37,5.16,5.16,0,0,1,4.64-2.58,5.35,5.35,0,0,1,2.93.76,7.21,7.21,0,0,1,2.29,2.82A9.28,9.28,0,0,1,264.87,194.13Zm-2.9,0a6.69,6.69,0,0,0-1.3-4.1,2.49,2.49,0,0,0-2.1-1,2.58,2.58,0,0,0-2.13,1.07,6.31,6.31,0,0,0-1.25,4v3.16a6.61,6.61,0,0,0,1.32,4.11,2.46,2.46,0,0,0,2.09,1,2.57,2.57,0,0,0,2.12-1.07,6.32,6.32,0,0,0,1.25-4Z"/><path class="cls-2" d="M282.14,194.13v3.16a9.9,9.9,0,0,1-1.63,5.39,5.18,5.18,0,0,1-4.64,2.57,5.36,5.36,0,0,1-2.94-.77,7.18,7.18,0,0,1-2.28-2.82,9.27,9.27,0,0,1-1.08-4.37v-3.16a10,10,0,0,1,1.62-5.37,5.16,5.16,0,0,1,4.64-2.58,5.35,5.35,0,0,1,2.93.76,7.21,7.21,0,0,1,2.29,2.82A9.28,9.28,0,0,1,282.14,194.13Zm-2.9,0a6.63,6.63,0,0,0-1.31-4.1,2.46,2.46,0,0,0-2.09-1,2.58,2.58,0,0,0-2.13,1.07,6.31,6.31,0,0,0-1.26,4v3.16a6.55,6.55,0,0,0,1.33,4.11,2.46,2.46,0,0,0,2.09,1A2.57,2.57,0,0,0,278,201.3a6.38,6.38,0,0,0,1.25-4Z"/><path class="cls-2" d="M295.92,160.85v15.76h2.91a2.17,2.17,0,0,1,1.48.4,1.35,1.35,0,0,1,.45,1.05,1.32,1.32,0,0,1-.45,1,2.17,2.17,0,0,1-1.48.4h-8.7a2.18,2.18,0,0,1-1.48-.4,1.45,1.45,0,0,1,0-2.08,2.18,2.18,0,0,1,1.48-.4H293v-12l-2.57.67a4,4,0,0,1-.93.17,1.27,1.27,0,0,1-1-.44,1.53,1.53,0,0,1-.4-1.06,1.3,1.3,0,0,1,.3-.91,2.68,2.68,0,0,1,1.24-.58Z"/><path class="cls-2" d="M318,168.8V172a9.94,9.94,0,0,1-1.62,5.38,5.16,5.16,0,0,1-4.64,2.57,5.37,5.37,0,0,1-2.95-.76,7.24,7.24,0,0,1-2.28-2.83,9.34,9.34,0,0,1-1.07-4.36V168.8a10,10,0,0,1,1.62-5.38,5.14,5.14,0,0,1,4.63-2.57,5.41,5.41,0,0,1,2.93.75,7.28,7.28,0,0,1,2.29,2.82A9.17,9.17,0,0,1,318,168.8Zm-2.89,0a6.67,6.67,0,0,0-1.31-4.1,2.48,2.48,0,0,0-2.09-1,2.59,2.59,0,0,0-2.14,1.06,6.39,6.39,0,0,0-1.25,4V172a6.6,6.6,0,0,0,1.32,4.1,2.47,2.47,0,0,0,2.1,1,2.56,2.56,0,0,0,2.12-1.07,6.35,6.35,0,0,0,1.25-4Z"/><path class="cls-2" d="M330.46,160.85v15.76h2.91a2.17,2.17,0,0,1,1.48.4,1.35,1.35,0,0,1,.45,1.05,1.32,1.32,0,0,1-.45,1,2.17,2.17,0,0,1-1.48.4h-8.7a2.18,2.18,0,0,1-1.48-.4,1.45,1.45,0,0,1,0-2.08,2.18,2.18,0,0,1,1.48-.4h2.91v-12l-2.57.67a4,4,0,0,1-.93.17,1.27,1.27,0,0,1-.95-.44,1.53,1.53,0,0,1-.4-1.06,1.3,1.3,0,0,1,.3-.91,2.68,2.68,0,0,1,1.24-.58Z"/><path class="cls-2" d="M352.55,168.8V172a9.94,9.94,0,0,1-1.62,5.38,5.17,5.17,0,0,1-4.65,2.57,5.36,5.36,0,0,1-2.94-.76,7.24,7.24,0,0,1-2.28-2.83A9.34,9.34,0,0,1,340,172V168.8a10,10,0,0,1,1.62-5.38,5.14,5.14,0,0,1,4.63-2.57,5.43,5.43,0,0,1,2.93.75,7.28,7.28,0,0,1,2.29,2.82A9.17,9.17,0,0,1,352.55,168.8Zm-2.89,0a6.67,6.67,0,0,0-1.31-4.1,2.48,2.48,0,0,0-2.09-1,2.59,2.59,0,0,0-2.14,1.06,6.39,6.39,0,0,0-1.25,4V172a6.6,6.6,0,0,0,1.32,4.1,2.46,2.46,0,0,0,2.09,1,2.57,2.57,0,0,0,2.13-1.07,6.35,6.35,0,0,0,1.25-4Z"/><path class="cls-2" d="M300.74,219.19v3.16a10,10,0,0,1-1.62,5.39,5.18,5.18,0,0,1-4.64,2.57,5.37,5.37,0,0,1-3-.77,7.27,7.27,0,0,1-2.28-2.82,9.38,9.38,0,0,1-1.07-4.37v-3.16a10,10,0,0,1,1.62-5.37,5.15,5.15,0,0,1,4.63-2.58,5.32,5.32,0,0,1,2.93.76,7.13,7.13,0,0,1,2.29,2.82A9.16,9.16,0,0,1,300.74,219.19Zm-2.89,0a6.69,6.69,0,0,0-1.31-4.1,2.48,2.48,0,0,0-2.09-1,2.6,2.6,0,0,0-2.14,1.07,6.37,6.37,0,0,0-1.25,4v3.16a6.61,6.61,0,0,0,1.32,4.11,2.49,2.49,0,0,0,2.1,1,2.59,2.59,0,0,0,2.12-1.07,6.38,6.38,0,0,0,1.25-4Z"/><path class="cls-2" d="M313.19,211.24V227h2.91a2.17,2.17,0,0,1,1.48.4,1.31,1.31,0,0,1,.45,1,1.34,1.34,0,0,1-.45,1,2.22,2.22,0,0,1-1.48.4h-8.7a2.24,2.24,0,0,1-1.48-.4,1.37,1.37,0,0,1-.44-1.05,1.33,1.33,0,0,1,.44-1,2.18,2.18,0,0,1,1.48-.4h2.91V215l-2.57.68a3.88,3.88,0,0,1-.93.16,1.26,1.26,0,0,1-.95-.43,1.56,1.56,0,0,1-.4-1.07,1.31,1.31,0,0,1,.3-.91,2.68,2.68,0,0,1,1.24-.58Z"/><path class="cls-2" d="M330.46,211.24V227h2.91a2.17,2.17,0,0,1,1.48.4,1.31,1.31,0,0,1,.45,1,1.34,1.34,0,0,1-.45,1,2.22,2.22,0,0,1-1.48.4h-8.7a2.24,2.24,0,0,1-1.48-.4,1.37,1.37,0,0,1-.44-1.05,1.33,1.33,0,0,1,.44-1,2.18,2.18,0,0,1,1.48-.4h2.91V215l-2.57.68a3.88,3.88,0,0,1-.93.16,1.26,1.26,0,0,1-.95-.43,1.56,1.56,0,0,1-.4-1.07,1.31,1.31,0,0,1,.3-.91,2.68,2.68,0,0,1,1.24-.58Z"/><path class="cls-2" d="M352.55,219.19v3.16a10,10,0,0,1-1.62,5.39,5.19,5.19,0,0,1-4.65,2.57,5.36,5.36,0,0,1-2.94-.77,7.27,7.27,0,0,1-2.28-2.82,9.38,9.38,0,0,1-1.07-4.37v-3.16a10,10,0,0,1,1.62-5.37,5.15,5.15,0,0,1,4.63-2.58,5.35,5.35,0,0,1,2.93.76,7.13,7.13,0,0,1,2.29,2.82A9.16,9.16,0,0,1,352.55,219.19Zm-2.89,0a6.69,6.69,0,0,0-1.31-4.1,2.48,2.48,0,0,0-2.09-1,2.6,2.6,0,0,0-2.14,1.07,6.37,6.37,0,0,0-1.25,4v3.16a6.61,6.61,0,0,0,1.32,4.11,2.49,2.49,0,0,0,2.09,1,2.59,2.59,0,0,0,2.13-1.07,6.38,6.38,0,0,0,1.25-4Z"/><path class="cls-2" d="M300.74,194.13v3.16a10,10,0,0,1-1.62,5.39,5.18,5.18,0,0,1-4.64,2.57,5.37,5.37,0,0,1-3-.77,7.27,7.27,0,0,1-2.28-2.82,9.38,9.38,0,0,1-1.07-4.37v-3.16a10,10,0,0,1,1.62-5.37,5.15,5.15,0,0,1,4.63-2.58,5.32,5.32,0,0,1,2.93.76,7.13,7.13,0,0,1,2.29,2.82A9.16,9.16,0,0,1,300.74,194.13Zm-2.89,0a6.69,6.69,0,0,0-1.31-4.1,2.48,2.48,0,0,0-2.09-1,2.6,2.6,0,0,0-2.14,1.07,6.37,6.37,0,0,0-1.25,4v3.16a6.61,6.61,0,0,0,1.32,4.11,2.49,2.49,0,0,0,2.1,1,2.59,2.59,0,0,0,2.12-1.07,6.38,6.38,0,0,0,1.25-4Z"/><path class="cls-2" d="M313.19,186.18V202h2.91a2.17,2.17,0,0,1,1.48.4,1.31,1.31,0,0,1,.45,1,1.34,1.34,0,0,1-.45,1,2.22,2.22,0,0,1-1.48.4h-8.7a2.24,2.24,0,0,1-1.48-.4,1.37,1.37,0,0,1-.44-1.05,1.33,1.33,0,0,1,.44-1,2.18,2.18,0,0,1,1.48-.4h2.91v-12l-2.57.68a3.88,3.88,0,0,1-.93.16,1.26,1.26,0,0,1-.95-.43,1.56,1.56,0,0,1-.4-1.07,1.31,1.31,0,0,1,.3-.91,2.68,2.68,0,0,1,1.24-.58Z"/><path class="cls-2" d="M335.28,194.13v3.16a10,10,0,0,1-1.62,5.39,5.18,5.18,0,0,1-4.64,2.57,5.37,5.37,0,0,1-2.95-.77,7.27,7.27,0,0,1-2.28-2.82,9.38,9.38,0,0,1-1.07-4.37v-3.16a10,10,0,0,1,1.62-5.37,5.15,5.15,0,0,1,4.63-2.58,5.32,5.32,0,0,1,2.93.76,7.13,7.13,0,0,1,2.29,2.82A9.16,9.16,0,0,1,335.28,194.13Zm-2.89,0a6.69,6.69,0,0,0-1.31-4.1,2.48,2.48,0,0,0-2.09-1,2.6,2.6,0,0,0-2.14,1.07,6.37,6.37,0,0,0-1.25,4v3.16a6.61,6.61,0,0,0,1.32,4.11,2.49,2.49,0,0,0,2.1,1,2.59,2.59,0,0,0,2.12-1.07,6.38,6.38,0,0,0,1.25-4Z"/><path class="cls-2" d="M352.55,194.13v3.16a10,10,0,0,1-1.62,5.39,5.19,5.19,0,0,1-4.65,2.57,5.36,5.36,0,0,1-2.94-.77,7.27,7.27,0,0,1-2.28-2.82,9.38,9.38,0,0,1-1.07-4.37v-3.16a10,10,0,0,1,1.62-5.37,5.15,5.15,0,0,1,4.63-2.58,5.35,5.35,0,0,1,2.93.76,7.13,7.13,0,0,1,2.29,2.82A9.16,9.16,0,0,1,352.55,194.13Zm-2.89,0a6.69,6.69,0,0,0-1.31-4.1,2.48,2.48,0,0,0-2.09-1,2.6,2.6,0,0,0-2.14,1.07,6.37,6.37,0,0,0-1.25,4v3.16a6.61,6.61,0,0,0,1.32,4.11,2.49,2.49,0,0,0,2.09,1,2.59,2.59,0,0,0,2.13-1.07,6.38,6.38,0,0,0,1.25-4Z"/><path class="cls-2" d="M84.72,237.05v15.77h2.91a2.18,2.18,0,0,1,1.48.4,1.37,1.37,0,0,1,.44,1.05,1.34,1.34,0,0,1-.44,1,2.18,2.18,0,0,1-1.48.4h-8.7a2.15,2.15,0,0,1-1.48-.4,1.35,1.35,0,0,1-.45-1.05,1.32,1.32,0,0,1,.45-1,2.15,2.15,0,0,1,1.48-.4h2.91v-12l-2.58.67a4,4,0,0,1-.92.17,1.25,1.25,0,0,1-1-.44,1.49,1.49,0,0,1-.4-1.06,1.34,1.34,0,0,1,.29-.91,2.58,2.58,0,0,1,1.24-.58Z"/><path class="cls-2" d="M106.81,245v3.16a9.87,9.87,0,0,1-1.63,5.38,5.18,5.18,0,0,1-4.64,2.57,5.36,5.36,0,0,1-2.94-.76,7.22,7.22,0,0,1-2.28-2.83,9.26,9.26,0,0,1-1.08-4.36V245a10,10,0,0,1,1.62-5.38,5.16,5.16,0,0,1,4.64-2.58,5.43,5.43,0,0,1,2.93.76,7.37,7.37,0,0,1,2.29,2.82A9.29,9.29,0,0,1,106.81,245Zm-2.9,0a6.64,6.64,0,0,0-1.31-4.11,2.49,2.49,0,0,0-2.09-1A2.58,2.58,0,0,0,98.38,241a6.32,6.32,0,0,0-1.26,4v3.16a6.54,6.54,0,0,0,1.33,4.1,2.44,2.44,0,0,0,2.09,1,2.55,2.55,0,0,0,2.12-1.07,6.35,6.35,0,0,0,1.25-4Z"/><path class="cls-2" d="M119.26,237.05v15.77h2.91a2.18,2.18,0,0,1,1.48.4,1.37,1.37,0,0,1,.44,1.05,1.34,1.34,0,0,1-.44,1,2.18,2.18,0,0,1-1.48.4h-8.7a2.15,2.15,0,0,1-1.48-.4,1.35,1.35,0,0,1-.45-1.05,1.32,1.32,0,0,1,.45-1,2.15,2.15,0,0,1,1.48-.4h2.91v-12l-2.58.67a4,4,0,0,1-.92.17,1.25,1.25,0,0,1-.95-.44,1.49,1.49,0,0,1-.4-1.06,1.34,1.34,0,0,1,.29-.91,2.58,2.58,0,0,1,1.24-.58Z"/><path class="cls-2" d="M141.35,245v3.16a10,10,0,0,1-1.63,5.38,5.18,5.18,0,0,1-4.64,2.57,5.42,5.42,0,0,1-3-.76,7.21,7.21,0,0,1-2.27-2.83,9.26,9.26,0,0,1-1.08-4.36V245a10,10,0,0,1,1.62-5.38,5.16,5.16,0,0,1,4.64-2.58,5.43,5.43,0,0,1,2.93.76,7.37,7.37,0,0,1,2.29,2.82A9.29,9.29,0,0,1,141.35,245Zm-2.9,0a6.64,6.64,0,0,0-1.31-4.11,2.49,2.49,0,0,0-2.09-1,2.61,2.61,0,0,0-2.14,1.07,6.38,6.38,0,0,0-1.25,4v3.16a6.54,6.54,0,0,0,1.33,4.1,2.44,2.44,0,0,0,2.09,1,2.55,2.55,0,0,0,2.12-1.07,6.35,6.35,0,0,0,1.25-4Z"/><path class="cls-2" d="M89.54,295.4v3.16a9.84,9.84,0,0,1-1.63,5.38,5.17,5.17,0,0,1-4.64,2.58,5.36,5.36,0,0,1-2.94-.77,7.18,7.18,0,0,1-2.28-2.82A9.3,9.3,0,0,1,77,298.56V295.4A9.93,9.93,0,0,1,78.59,290a5.16,5.16,0,0,1,4.64-2.58,5.35,5.35,0,0,1,2.93.76A7.25,7.25,0,0,1,88.45,291,9.32,9.32,0,0,1,89.54,295.4Zm-2.9,0a6.63,6.63,0,0,0-1.31-4.1,2.46,2.46,0,0,0-2.09-1,2.55,2.55,0,0,0-2.13,1.07,6.29,6.29,0,0,0-1.26,4v3.16a6.57,6.57,0,0,0,1.33,4.11,2.46,2.46,0,0,0,2.09,1,2.57,2.57,0,0,0,2.12-1.07,6.38,6.38,0,0,0,1.25-4Z"/><path class="cls-2" d="M102,287.45v15.76h2.91a2.24,2.24,0,0,1,1.48.4,1.37,1.37,0,0,1,.44,1.05,1.33,1.33,0,0,1-.44,1,2.18,2.18,0,0,1-1.48.4H96.2a2.15,2.15,0,0,1-1.48-.4,1.31,1.31,0,0,1-.45-1,1.33,1.33,0,0,1,.45-1,2.2,2.2,0,0,1,1.48-.4h2.91v-12l-2.58.67a3.55,3.55,0,0,1-.92.17,1.24,1.24,0,0,1-1-.43,1.51,1.51,0,0,1-.4-1.07,1.34,1.34,0,0,1,.29-.91,2.68,2.68,0,0,1,1.24-.58Z"/><path class="cls-2" d="M119.26,287.45v15.76h2.91a2.24,2.24,0,0,1,1.48.4,1.37,1.37,0,0,1,.44,1.05,1.33,1.33,0,0,1-.44,1,2.18,2.18,0,0,1-1.48.4h-8.7a2.15,2.15,0,0,1-1.48-.4,1.31,1.31,0,0,1-.45-1,1.33,1.33,0,0,1,.45-1,2.2,2.2,0,0,1,1.48-.4h2.91v-12l-2.58.67a3.55,3.55,0,0,1-.92.17,1.24,1.24,0,0,1-.95-.43,1.51,1.51,0,0,1-.4-1.07,1.34,1.34,0,0,1,.29-.91,2.68,2.68,0,0,1,1.24-.58Z"/><path class="cls-2" d="M141.35,295.4v3.16a9.93,9.93,0,0,1-1.63,5.38,5.17,5.17,0,0,1-4.64,2.58,5.42,5.42,0,0,1-3-.77,7.17,7.17,0,0,1-2.27-2.82,9.3,9.3,0,0,1-1.08-4.37V295.4A9.93,9.93,0,0,1,130.4,290a5.16,5.16,0,0,1,4.64-2.58,5.35,5.35,0,0,1,2.93.76,7.25,7.25,0,0,1,2.29,2.81A9.32,9.32,0,0,1,141.35,295.4Zm-2.9,0a6.63,6.63,0,0,0-1.31-4.1,2.46,2.46,0,0,0-2.09-1,2.58,2.58,0,0,0-2.14,1.07,6.35,6.35,0,0,0-1.25,4v3.16a6.57,6.57,0,0,0,1.33,4.11,2.46,2.46,0,0,0,2.09,1,2.57,2.57,0,0,0,2.12-1.07,6.38,6.38,0,0,0,1.25-4Z"/><path class="cls-2" d="M89.54,270.34v3.16a9.84,9.84,0,0,1-1.63,5.38,5.17,5.17,0,0,1-4.64,2.58,5.36,5.36,0,0,1-2.94-.77,7.18,7.18,0,0,1-2.28-2.82A9.3,9.3,0,0,1,77,273.5v-3.16A9.93,9.93,0,0,1,78.59,265a5.16,5.16,0,0,1,4.64-2.58,5.35,5.35,0,0,1,2.93.76A7.25,7.25,0,0,1,88.45,266,9.32,9.32,0,0,1,89.54,270.34Zm-2.9,0a6.63,6.63,0,0,0-1.31-4.1,2.46,2.46,0,0,0-2.09-1,2.55,2.55,0,0,0-2.13,1.07,6.29,6.29,0,0,0-1.26,4v3.16a6.57,6.57,0,0,0,1.33,4.11,2.46,2.46,0,0,0,2.09,1,2.57,2.57,0,0,0,2.12-1.07,6.38,6.38,0,0,0,1.25-4Z"/><path class="cls-2" d="M102,262.39v15.76h2.91a2.24,2.24,0,0,1,1.48.4,1.37,1.37,0,0,1,.44,1.05,1.33,1.33,0,0,1-.44,1,2.18,2.18,0,0,1-1.48.4H96.2a2.15,2.15,0,0,1-1.48-.4,1.31,1.31,0,0,1-.45-1,1.34,1.34,0,0,1,.45-1,2.2,2.2,0,0,1,1.48-.4h2.91v-12l-2.58.67a3.55,3.55,0,0,1-.92.17,1.24,1.24,0,0,1-1-.43,1.51,1.51,0,0,1-.4-1.07,1.36,1.36,0,0,1,.29-.91,2.68,2.68,0,0,1,1.24-.58Z"/><path class="cls-2" d="M124.08,270.34v3.16a9.84,9.84,0,0,1-1.63,5.38,5.17,5.17,0,0,1-4.64,2.58,5.36,5.36,0,0,1-2.94-.77,7.18,7.18,0,0,1-2.28-2.82,9.3,9.3,0,0,1-1.08-4.37v-3.16a9.93,9.93,0,0,1,1.62-5.37,5.16,5.16,0,0,1,4.64-2.58,5.35,5.35,0,0,1,2.93.76A7.25,7.25,0,0,1,123,266,9.32,9.32,0,0,1,124.08,270.34Zm-2.9,0a6.63,6.63,0,0,0-1.31-4.1,2.46,2.46,0,0,0-2.09-1,2.55,2.55,0,0,0-2.13,1.07,6.29,6.29,0,0,0-1.26,4v3.16a6.57,6.57,0,0,0,1.33,4.11,2.46,2.46,0,0,0,2.09,1,2.57,2.57,0,0,0,2.12-1.07,6.32,6.32,0,0,0,1.25-4Z"/><path class="cls-2" d="M141.35,270.34v3.16a9.93,9.93,0,0,1-1.63,5.38,5.17,5.17,0,0,1-4.64,2.58,5.42,5.42,0,0,1-3-.77,7.17,7.17,0,0,1-2.27-2.82,9.3,9.3,0,0,1-1.08-4.37v-3.16A9.93,9.93,0,0,1,130.4,265a5.16,5.16,0,0,1,4.64-2.58,5.35,5.35,0,0,1,2.93.76,7.25,7.25,0,0,1,2.29,2.81A9.32,9.32,0,0,1,141.35,270.34Zm-2.9,0a6.63,6.63,0,0,0-1.31-4.1,2.46,2.46,0,0,0-2.09-1,2.58,2.58,0,0,0-2.14,1.07,6.35,6.35,0,0,0-1.25,4v3.16a6.57,6.57,0,0,0,1.33,4.11,2.46,2.46,0,0,0,2.09,1,2.57,2.57,0,0,0,2.12-1.07,6.38,6.38,0,0,0,1.25-4Z"/><path class="cls-2" d="M155.13,237.05v15.77H158a2.17,2.17,0,0,1,1.48.4,1.35,1.35,0,0,1,.45,1.05,1.32,1.32,0,0,1-.45,1,2.17,2.17,0,0,1-1.48.4h-8.7a2.17,2.17,0,0,1-1.48-.4,1.37,1.37,0,0,1-.44-1.05,1.34,1.34,0,0,1,.44-1,2.17,2.17,0,0,1,1.48-.4h2.91v-12l-2.57.67a4,4,0,0,1-.93.17,1.27,1.27,0,0,1-.95-.44,1.53,1.53,0,0,1-.4-1.06,1.3,1.3,0,0,1,.3-.91,2.54,2.54,0,0,1,1.23-.58Z"/><path class="cls-2" d="M177.22,245v3.16a9.94,9.94,0,0,1-1.62,5.38,5.19,5.19,0,0,1-4.65,2.57,5.36,5.36,0,0,1-2.94-.76,7.31,7.31,0,0,1-2.28-2.83,9.37,9.37,0,0,1-1.07-4.36V245a10,10,0,0,1,1.62-5.38,5.15,5.15,0,0,1,4.63-2.58,5.43,5.43,0,0,1,2.93.76,7.28,7.28,0,0,1,2.29,2.82A9.17,9.17,0,0,1,177.22,245Zm-2.89,0A6.7,6.7,0,0,0,173,240.9a2.5,2.5,0,0,0-2.09-1,2.6,2.6,0,0,0-2.14,1.07,6.38,6.38,0,0,0-1.25,4v3.16a6.6,6.6,0,0,0,1.32,4.1,2.46,2.46,0,0,0,2.09,1,2.57,2.57,0,0,0,2.13-1.07,6.35,6.35,0,0,0,1.25-4Z"/><path class="cls-2" d="M189.67,237.05v15.77h2.91a2.17,2.17,0,0,1,1.48.4,1.35,1.35,0,0,1,.45,1.05,1.32,1.32,0,0,1-.45,1,2.17,2.17,0,0,1-1.48.4h-8.7a2.17,2.17,0,0,1-1.48-.4,1.37,1.37,0,0,1-.44-1.05,1.34,1.34,0,0,1,.44-1,2.17,2.17,0,0,1,1.48-.4h2.91v-12l-2.57.67a4,4,0,0,1-.93.17,1.27,1.27,0,0,1-.95-.44,1.53,1.53,0,0,1-.4-1.06,1.3,1.3,0,0,1,.3-.91,2.54,2.54,0,0,1,1.23-.58Z"/><path class="cls-2" d="M211.76,245v3.16a9.94,9.94,0,0,1-1.62,5.38,5.19,5.19,0,0,1-4.65,2.57,5.36,5.36,0,0,1-2.94-.76,7.31,7.31,0,0,1-2.28-2.83,9.37,9.37,0,0,1-1.07-4.36V245a10,10,0,0,1,1.61-5.38,5.17,5.17,0,0,1,4.64-2.58,5.43,5.43,0,0,1,2.93.76,7.28,7.28,0,0,1,2.29,2.82A9.17,9.17,0,0,1,211.76,245Zm-2.89,0a6.7,6.7,0,0,0-1.31-4.11,2.51,2.51,0,0,0-2.09-1,2.58,2.58,0,0,0-2.14,1.07,6.38,6.38,0,0,0-1.25,4v3.16a6.6,6.6,0,0,0,1.32,4.1,2.45,2.45,0,0,0,2.09,1,2.57,2.57,0,0,0,2.13-1.07,6.35,6.35,0,0,0,1.25-4Z"/><path class="cls-2" d="M160,295.4v3.16a9.91,9.91,0,0,1-1.62,5.38,5.18,5.18,0,0,1-4.65,2.58,5.36,5.36,0,0,1-2.94-.77,7.27,7.27,0,0,1-2.28-2.82,9.41,9.41,0,0,1-1.07-4.37V295.4A9.93,9.93,0,0,1,149,290a5.15,5.15,0,0,1,4.63-2.58,5.35,5.35,0,0,1,2.93.76,7.16,7.16,0,0,1,2.29,2.81A9.2,9.2,0,0,1,160,295.4Zm-2.89,0a6.69,6.69,0,0,0-1.31-4.1,2.48,2.48,0,0,0-2.09-1,2.57,2.57,0,0,0-2.14,1.07,6.35,6.35,0,0,0-1.25,4v3.16a6.63,6.63,0,0,0,1.32,4.11,2.49,2.49,0,0,0,2.09,1,2.59,2.59,0,0,0,2.13-1.07,6.38,6.38,0,0,0,1.25-4Z"/><path class="cls-2" d="M172.4,287.45v15.76h2.91a2.22,2.22,0,0,1,1.48.4,1.35,1.35,0,0,1,.45,1.05,1.31,1.31,0,0,1-.45,1,2.17,2.17,0,0,1-1.48.4h-8.7a2.17,2.17,0,0,1-1.48-.4,1.34,1.34,0,0,1-.44-1,1.35,1.35,0,0,1,.44-1,2.22,2.22,0,0,1,1.48-.4h2.91v-12l-2.57.67a3.54,3.54,0,0,1-.93.17,1.26,1.26,0,0,1-1-.43,1.56,1.56,0,0,1-.4-1.07,1.3,1.3,0,0,1,.3-.91,2.63,2.63,0,0,1,1.23-.58Z"/><path class="cls-2" d="M189.67,287.45v15.76h2.91a2.22,2.22,0,0,1,1.48.4,1.35,1.35,0,0,1,.45,1.05,1.31,1.31,0,0,1-.45,1,2.17,2.17,0,0,1-1.48.4h-8.7a2.17,2.17,0,0,1-1.48-.4,1.34,1.34,0,0,1-.44-1,1.35,1.35,0,0,1,.44-1,2.22,2.22,0,0,1,1.48-.4h2.91v-12l-2.57.67a3.54,3.54,0,0,1-.93.17,1.26,1.26,0,0,1-.95-.43,1.56,1.56,0,0,1-.4-1.07,1.3,1.3,0,0,1,.3-.91,2.63,2.63,0,0,1,1.23-.58Z"/><path class="cls-2" d="M211.76,295.4v3.16a9.91,9.91,0,0,1-1.62,5.38,5.18,5.18,0,0,1-4.65,2.58,5.36,5.36,0,0,1-2.94-.77,7.27,7.27,0,0,1-2.28-2.82,9.41,9.41,0,0,1-1.07-4.37V295.4a10,10,0,0,1,1.61-5.37,5.17,5.17,0,0,1,4.64-2.58,5.35,5.35,0,0,1,2.93.76,7.16,7.16,0,0,1,2.29,2.81A9.2,9.2,0,0,1,211.76,295.4Zm-2.89,0a6.69,6.69,0,0,0-1.31-4.1,2.49,2.49,0,0,0-2.09-1,2.56,2.56,0,0,0-2.14,1.07,6.35,6.35,0,0,0-1.25,4v3.16a6.63,6.63,0,0,0,1.32,4.11,2.48,2.48,0,0,0,2.09,1,2.59,2.59,0,0,0,2.13-1.07,6.38,6.38,0,0,0,1.25-4Z"/><path class="cls-2" d="M160,270.34v3.16a9.91,9.91,0,0,1-1.62,5.38,5.18,5.18,0,0,1-4.65,2.58,5.36,5.36,0,0,1-2.94-.77,7.27,7.27,0,0,1-2.28-2.82,9.41,9.41,0,0,1-1.07-4.37v-3.16A9.93,9.93,0,0,1,149,265a5.15,5.15,0,0,1,4.63-2.58,5.35,5.35,0,0,1,2.93.76,7.16,7.16,0,0,1,2.29,2.81A9.2,9.2,0,0,1,160,270.34Zm-2.89,0a6.69,6.69,0,0,0-1.31-4.1,2.48,2.48,0,0,0-2.09-1,2.57,2.57,0,0,0-2.14,1.07,6.35,6.35,0,0,0-1.25,4v3.16a6.63,6.63,0,0,0,1.32,4.11,2.49,2.49,0,0,0,2.09,1,2.59,2.59,0,0,0,2.13-1.07,6.38,6.38,0,0,0,1.25-4Z"/><path class="cls-2" d="M172.4,262.39v15.76h2.91a2.22,2.22,0,0,1,1.48.4,1.35,1.35,0,0,1,.45,1.05,1.31,1.31,0,0,1-.45,1,2.17,2.17,0,0,1-1.48.4h-8.7a2.17,2.17,0,0,1-1.48-.4,1.34,1.34,0,0,1-.44-1,1.37,1.37,0,0,1,.44-1,2.22,2.22,0,0,1,1.48-.4h2.91v-12l-2.57.67a3.54,3.54,0,0,1-.93.17,1.26,1.26,0,0,1-1-.43,1.56,1.56,0,0,1-.4-1.07,1.31,1.31,0,0,1,.3-.91,2.63,2.63,0,0,1,1.23-.58Z"/><path class="cls-2" d="M194.49,270.34v3.16a9.91,9.91,0,0,1-1.62,5.38,5.17,5.17,0,0,1-4.64,2.58,5.37,5.37,0,0,1-2.95-.77,7.27,7.27,0,0,1-2.28-2.82,9.41,9.41,0,0,1-1.07-4.37v-3.16a9.93,9.93,0,0,1,1.62-5.37,5.15,5.15,0,0,1,4.63-2.58,5.35,5.35,0,0,1,2.93.76A7.16,7.16,0,0,1,193.4,266,9.2,9.2,0,0,1,194.49,270.34Zm-2.89,0a6.69,6.69,0,0,0-1.31-4.1,2.48,2.48,0,0,0-2.09-1,2.57,2.57,0,0,0-2.14,1.07,6.35,6.35,0,0,0-1.25,4v3.16a6.63,6.63,0,0,0,1.32,4.11,2.49,2.49,0,0,0,2.1,1,2.59,2.59,0,0,0,2.12-1.07,6.38,6.38,0,0,0,1.25-4Z"/><path class="cls-2" d="M211.76,270.34v3.16a9.91,9.91,0,0,1-1.62,5.38,5.18,5.18,0,0,1-4.65,2.58,5.36,5.36,0,0,1-2.94-.77,7.27,7.27,0,0,1-2.28-2.82,9.41,9.41,0,0,1-1.07-4.37v-3.16a10,10,0,0,1,1.61-5.37,5.17,5.17,0,0,1,4.64-2.58,5.35,5.35,0,0,1,2.93.76,7.16,7.16,0,0,1,2.29,2.81A9.2,9.2,0,0,1,211.76,270.34Zm-2.89,0a6.69,6.69,0,0,0-1.31-4.1,2.49,2.49,0,0,0-2.09-1,2.56,2.56,0,0,0-2.14,1.07,6.35,6.35,0,0,0-1.25,4v3.16a6.63,6.63,0,0,0,1.32,4.11,2.48,2.48,0,0,0,2.09,1,2.59,2.59,0,0,0,2.13-1.07,6.38,6.38,0,0,0,1.25-4Z"/><path class="cls-2" d="M84.73,160.85v15.76h2.91a2.17,2.17,0,0,1,1.48.4,1.35,1.35,0,0,1,.45,1.05,1.32,1.32,0,0,1-.45,1,2.17,2.17,0,0,1-1.48.4h-8.7a2.17,2.17,0,0,1-1.48-.4A1.33,1.33,0,0,1,77,178a1.31,1.31,0,0,1,.44-1,2.17,2.17,0,0,1,1.48-.4h2.91v-12l-2.57.67a4,4,0,0,1-.93.17,1.27,1.27,0,0,1-.95-.44,1.53,1.53,0,0,1-.4-1.06,1.3,1.3,0,0,1,.3-.91,2.63,2.63,0,0,1,1.23-.58Z"/><path class="cls-2" d="M106.82,168.8V172a9.94,9.94,0,0,1-1.62,5.38,5.17,5.17,0,0,1-4.65,2.57,5.36,5.36,0,0,1-2.94-.76,7.24,7.24,0,0,1-2.28-2.83A9.34,9.34,0,0,1,94.26,172V168.8a10.06,10.06,0,0,1,1.61-5.38,5.16,5.16,0,0,1,4.64-2.57,5.43,5.43,0,0,1,2.93.75,7.28,7.28,0,0,1,2.29,2.82A9.17,9.17,0,0,1,106.82,168.8Zm-2.89,0a6.67,6.67,0,0,0-1.31-4.1,2.49,2.49,0,0,0-2.1-1,2.57,2.57,0,0,0-2.13,1.06,6.39,6.39,0,0,0-1.25,4V172a6.6,6.6,0,0,0,1.32,4.1,2.45,2.45,0,0,0,2.09,1,2.57,2.57,0,0,0,2.13-1.07,6.35,6.35,0,0,0,1.25-4Z"/><path class="cls-2" d="M119.27,160.85v15.76h2.91a2.17,2.17,0,0,1,1.48.4,1.35,1.35,0,0,1,.45,1.05,1.32,1.32,0,0,1-.45,1,2.17,2.17,0,0,1-1.48.4h-8.7a2.17,2.17,0,0,1-1.48-.4,1.33,1.33,0,0,1-.44-1.05,1.31,1.31,0,0,1,.44-1,2.17,2.17,0,0,1,1.48-.4h2.91v-12l-2.57.67a4,4,0,0,1-.93.17,1.27,1.27,0,0,1-1-.44,1.53,1.53,0,0,1-.4-1.06,1.3,1.3,0,0,1,.3-.91,2.63,2.63,0,0,1,1.23-.58Z"/><path class="cls-2" d="M141.36,168.8V172a9.94,9.94,0,0,1-1.62,5.38,5.18,5.18,0,0,1-4.65,2.57,5.36,5.36,0,0,1-2.94-.76,7.24,7.24,0,0,1-2.28-2.83A9.34,9.34,0,0,1,128.8,172V168.8a10.06,10.06,0,0,1,1.61-5.38,5.16,5.16,0,0,1,4.64-2.57,5.43,5.43,0,0,1,2.93.75,7.37,7.37,0,0,1,2.29,2.82A9.17,9.17,0,0,1,141.36,168.8Zm-2.89,0a6.67,6.67,0,0,0-1.31-4.1,2.49,2.49,0,0,0-2.1-1,2.57,2.57,0,0,0-2.13,1.06,6.39,6.39,0,0,0-1.25,4V172a6.6,6.6,0,0,0,1.32,4.1,2.45,2.45,0,0,0,2.09,1,2.55,2.55,0,0,0,2.12-1.07,6.29,6.29,0,0,0,1.26-4Z"/><path class="cls-2" d="M89.55,219.19v3.16a10,10,0,0,1-1.62,5.39,5.19,5.19,0,0,1-4.65,2.57,5.36,5.36,0,0,1-2.94-.77,7.27,7.27,0,0,1-2.28-2.82A9.38,9.38,0,0,1,77,222.35v-3.16a10,10,0,0,1,1.61-5.37,5.17,5.17,0,0,1,4.64-2.58,5.35,5.35,0,0,1,2.93.76,7.13,7.13,0,0,1,2.29,2.82A9.16,9.16,0,0,1,89.55,219.19Zm-2.89,0a6.69,6.69,0,0,0-1.31-4.1,2.49,2.49,0,0,0-2.1-1,2.58,2.58,0,0,0-2.13,1.07,6.37,6.37,0,0,0-1.25,4v3.16a6.61,6.61,0,0,0,1.32,4.11,2.48,2.48,0,0,0,2.09,1,2.59,2.59,0,0,0,2.13-1.07,6.38,6.38,0,0,0,1.25-4Z"/><path class="cls-2" d="M102,211.24V227h2.91a2.17,2.17,0,0,1,1.48.4,1.31,1.31,0,0,1,.45,1,1.34,1.34,0,0,1-.45,1,2.22,2.22,0,0,1-1.48.4h-8.7a2.22,2.22,0,0,1-1.48-.4,1.34,1.34,0,0,1-.44-1.05,1.3,1.3,0,0,1,.44-1,2.17,2.17,0,0,1,1.48-.4h2.91V215l-2.57.68a3.88,3.88,0,0,1-.93.16,1.26,1.26,0,0,1-1-.43,1.56,1.56,0,0,1-.4-1.07,1.31,1.31,0,0,1,.3-.91,2.63,2.63,0,0,1,1.23-.58Z"/><path class="cls-2" d="M119.27,211.24V227h2.91a2.17,2.17,0,0,1,1.48.4,1.31,1.31,0,0,1,.45,1,1.34,1.34,0,0,1-.45,1,2.22,2.22,0,0,1-1.48.4h-8.7a2.22,2.22,0,0,1-1.48-.4,1.34,1.34,0,0,1-.44-1.05,1.3,1.3,0,0,1,.44-1,2.17,2.17,0,0,1,1.48-.4h2.91V215l-2.57.68a3.88,3.88,0,0,1-.93.16,1.26,1.26,0,0,1-1-.43,1.56,1.56,0,0,1-.4-1.07,1.31,1.31,0,0,1,.3-.91,2.63,2.63,0,0,1,1.23-.58Z"/><path class="cls-2" d="M141.36,219.19v3.16a10,10,0,0,1-1.62,5.39,5.2,5.2,0,0,1-4.65,2.57,5.36,5.36,0,0,1-2.94-.77,7.27,7.27,0,0,1-2.28-2.82,9.38,9.38,0,0,1-1.07-4.37v-3.16a10,10,0,0,1,1.61-5.37,5.17,5.17,0,0,1,4.64-2.58A5.35,5.35,0,0,1,138,212a7.21,7.21,0,0,1,2.29,2.82A9.16,9.16,0,0,1,141.36,219.19Zm-2.89,0a6.69,6.69,0,0,0-1.31-4.1,2.49,2.49,0,0,0-2.1-1,2.58,2.58,0,0,0-2.13,1.07,6.37,6.37,0,0,0-1.25,4v3.16a6.61,6.61,0,0,0,1.32,4.11,2.48,2.48,0,0,0,2.09,1,2.57,2.57,0,0,0,2.12-1.07,6.32,6.32,0,0,0,1.26-4Z"/><path class="cls-2" d="M89.55,194.13v3.16a10,10,0,0,1-1.62,5.39,5.19,5.19,0,0,1-4.65,2.57,5.36,5.36,0,0,1-2.94-.77,7.27,7.27,0,0,1-2.28-2.82A9.38,9.38,0,0,1,77,197.29v-3.16a10,10,0,0,1,1.61-5.37,5.17,5.17,0,0,1,4.64-2.58,5.35,5.35,0,0,1,2.93.76,7.13,7.13,0,0,1,2.29,2.82A9.16,9.16,0,0,1,89.55,194.13Zm-2.89,0a6.69,6.69,0,0,0-1.31-4.1,2.49,2.49,0,0,0-2.1-1,2.58,2.58,0,0,0-2.13,1.07,6.37,6.37,0,0,0-1.25,4v3.16a6.61,6.61,0,0,0,1.32,4.11,2.48,2.48,0,0,0,2.09,1,2.59,2.59,0,0,0,2.13-1.07,6.38,6.38,0,0,0,1.25-4Z"/><path class="cls-2" d="M102,186.18V202h2.91a2.17,2.17,0,0,1,1.48.4,1.31,1.31,0,0,1,.45,1,1.34,1.34,0,0,1-.45,1,2.22,2.22,0,0,1-1.48.4h-8.7a2.22,2.22,0,0,1-1.48-.4,1.34,1.34,0,0,1-.44-1.05,1.3,1.3,0,0,1,.44-1,2.17,2.17,0,0,1,1.48-.4h2.91v-12l-2.57.68a3.88,3.88,0,0,1-.93.16,1.26,1.26,0,0,1-1-.43,1.56,1.56,0,0,1-.4-1.07,1.31,1.31,0,0,1,.3-.91,2.63,2.63,0,0,1,1.23-.58Z"/><path class="cls-2" d="M124.09,194.13v3.16a10,10,0,0,1-1.62,5.39,5.19,5.19,0,0,1-4.65,2.57,5.36,5.36,0,0,1-2.94-.77,7.27,7.27,0,0,1-2.28-2.82,9.38,9.38,0,0,1-1.07-4.37v-3.16a10,10,0,0,1,1.61-5.37,5.17,5.17,0,0,1,4.64-2.58,5.35,5.35,0,0,1,2.93.76,7.13,7.13,0,0,1,2.29,2.82A9.16,9.16,0,0,1,124.09,194.13Zm-2.89,0a6.69,6.69,0,0,0-1.31-4.1,2.49,2.49,0,0,0-2.09-1,2.58,2.58,0,0,0-2.14,1.07,6.37,6.37,0,0,0-1.25,4v3.16a6.61,6.61,0,0,0,1.32,4.11,2.48,2.48,0,0,0,2.09,1A2.59,2.59,0,0,0,120,201.3a6.38,6.38,0,0,0,1.25-4Z"/><path class="cls-2" d="M141.36,194.13v3.16a10,10,0,0,1-1.62,5.39,5.2,5.2,0,0,1-4.65,2.57,5.36,5.36,0,0,1-2.94-.77,7.27,7.27,0,0,1-2.28-2.82,9.38,9.38,0,0,1-1.07-4.37v-3.16a10,10,0,0,1,1.61-5.37,5.17,5.17,0,0,1,4.64-2.58,5.35,5.35,0,0,1,2.93.76,7.21,7.21,0,0,1,2.29,2.82A9.16,9.16,0,0,1,141.36,194.13Zm-2.89,0a6.69,6.69,0,0,0-1.31-4.1,2.49,2.49,0,0,0-2.1-1,2.58,2.58,0,0,0-2.13,1.07,6.37,6.37,0,0,0-1.25,4v3.16A6.61,6.61,0,0,0,133,201.4a2.48,2.48,0,0,0,2.09,1,2.57,2.57,0,0,0,2.12-1.07,6.32,6.32,0,0,0,1.26-4Z"/><path class="cls-2" d="M155.15,160.85v15.76h2.9a2.2,2.2,0,0,1,1.49.4,1.37,1.37,0,0,1,.44,1.05,1.34,1.34,0,0,1-.44,1,2.2,2.2,0,0,1-1.49.4h-8.69a2.2,2.2,0,0,1-1.49-.4,1.45,1.45,0,0,1,0-2.08,2.2,2.2,0,0,1,1.49-.4h2.91v-12l-2.58.67a4,4,0,0,1-.92.17,1.25,1.25,0,0,1-1-.44,1.49,1.49,0,0,1-.4-1.06,1.34,1.34,0,0,1,.29-.91,2.68,2.68,0,0,1,1.24-.58Z"/><path class="cls-2" d="M177.24,168.8V172a10,10,0,0,1-1.63,5.38,5.16,5.16,0,0,1-4.64,2.57,5.42,5.42,0,0,1-2.95-.76,7.14,7.14,0,0,1-2.27-2.83,9.23,9.23,0,0,1-1.08-4.36V168.8a10,10,0,0,1,1.62-5.38,5.15,5.15,0,0,1,4.64-2.57,5.43,5.43,0,0,1,2.93.75,7.37,7.37,0,0,1,2.29,2.82A9.29,9.29,0,0,1,177.24,168.8Zm-2.9,0a6.61,6.61,0,0,0-1.31-4.1,2.46,2.46,0,0,0-2.09-1,2.6,2.6,0,0,0-2.14,1.06,6.39,6.39,0,0,0-1.25,4V172a6.54,6.54,0,0,0,1.33,4.1,2.44,2.44,0,0,0,2.09,1,2.55,2.55,0,0,0,2.12-1.07,6.35,6.35,0,0,0,1.25-4Z"/><path class="cls-2" d="M189.69,160.85v15.76h2.9a2.2,2.2,0,0,1,1.49.4,1.37,1.37,0,0,1,.44,1.05,1.34,1.34,0,0,1-.44,1,2.2,2.2,0,0,1-1.49.4H183.9a2.2,2.2,0,0,1-1.49-.4,1.45,1.45,0,0,1,0-2.08,2.2,2.2,0,0,1,1.49-.4h2.91v-12l-2.58.67a4,4,0,0,1-.92.17,1.25,1.25,0,0,1-.95-.44,1.49,1.49,0,0,1-.4-1.06,1.34,1.34,0,0,1,.29-.91,2.68,2.68,0,0,1,1.24-.58Z"/><path class="cls-2" d="M211.77,168.8V172a9.94,9.94,0,0,1-1.62,5.38,5.16,5.16,0,0,1-4.64,2.57,5.39,5.39,0,0,1-2.95-.76,7.14,7.14,0,0,1-2.27-2.83,9.23,9.23,0,0,1-1.08-4.36V168.8a10,10,0,0,1,1.62-5.38,5.15,5.15,0,0,1,4.64-2.57,5.45,5.45,0,0,1,2.93.75,7.37,7.37,0,0,1,2.29,2.82A9.28,9.28,0,0,1,211.77,168.8Zm-2.89,0a6.67,6.67,0,0,0-1.31-4.1,2.46,2.46,0,0,0-2.09-1,2.6,2.6,0,0,0-2.14,1.06,6.39,6.39,0,0,0-1.25,4V172a6.6,6.6,0,0,0,1.32,4.1,2.47,2.47,0,0,0,2.1,1,2.55,2.55,0,0,0,2.12-1.07,6.35,6.35,0,0,0,1.25-4Z"/><path class="cls-2" d="M160,219.19v3.16a10,10,0,0,1-1.63,5.39,5.18,5.18,0,0,1-4.64,2.57,5.42,5.42,0,0,1-2.95-.77,7.17,7.17,0,0,1-2.27-2.82,9.27,9.27,0,0,1-1.08-4.37v-3.16a10,10,0,0,1,1.62-5.37,5.16,5.16,0,0,1,4.64-2.58,5.35,5.35,0,0,1,2.93.76,7.21,7.21,0,0,1,2.29,2.82A9.28,9.28,0,0,1,160,219.19Zm-2.9,0a6.63,6.63,0,0,0-1.31-4.1,2.46,2.46,0,0,0-2.09-1,2.61,2.61,0,0,0-2.14,1.07,6.37,6.37,0,0,0-1.25,4v3.16a6.55,6.55,0,0,0,1.33,4.11,2.46,2.46,0,0,0,2.09,1,2.57,2.57,0,0,0,2.12-1.07,6.38,6.38,0,0,0,1.25-4Z"/><path class="cls-2" d="M172.42,211.24V227h2.9a2.2,2.2,0,0,1,1.49.4,1.34,1.34,0,0,1,.44,1,1.37,1.37,0,0,1-.44,1,2.25,2.25,0,0,1-1.49.4h-8.69a2.25,2.25,0,0,1-1.49-.4,1.37,1.37,0,0,1-.44-1.05,1.33,1.33,0,0,1,.44-1,2.2,2.2,0,0,1,1.49-.4h2.91V215l-2.58.68a3.9,3.9,0,0,1-.92.16,1.24,1.24,0,0,1-.95-.43,1.51,1.51,0,0,1-.4-1.07,1.36,1.36,0,0,1,.29-.91,2.68,2.68,0,0,1,1.24-.58Z"/><path class="cls-2" d="M189.69,211.24V227h2.9a2.2,2.2,0,0,1,1.49.4,1.34,1.34,0,0,1,.44,1,1.37,1.37,0,0,1-.44,1,2.25,2.25,0,0,1-1.49.4H183.9a2.25,2.25,0,0,1-1.49-.4,1.37,1.37,0,0,1-.44-1.05,1.33,1.33,0,0,1,.44-1,2.2,2.2,0,0,1,1.49-.4h2.91V215l-2.58.68a3.9,3.9,0,0,1-.92.16,1.24,1.24,0,0,1-.95-.43,1.51,1.51,0,0,1-.4-1.07,1.36,1.36,0,0,1,.29-.91,2.68,2.68,0,0,1,1.24-.58Z"/><path class="cls-2" d="M211.77,219.19v3.16a10,10,0,0,1-1.62,5.39,5.18,5.18,0,0,1-4.64,2.57,5.4,5.4,0,0,1-2.95-.77,7.17,7.17,0,0,1-2.27-2.82,9.27,9.27,0,0,1-1.08-4.37v-3.16a10,10,0,0,1,1.62-5.37,5.16,5.16,0,0,1,4.64-2.58,5.37,5.37,0,0,1,2.93.76,7.21,7.21,0,0,1,2.29,2.82A9.27,9.27,0,0,1,211.77,219.19Zm-2.89,0a6.69,6.69,0,0,0-1.31-4.1,2.46,2.46,0,0,0-2.09-1,2.61,2.61,0,0,0-2.14,1.07,6.37,6.37,0,0,0-1.25,4v3.16a6.61,6.61,0,0,0,1.32,4.11,2.49,2.49,0,0,0,2.1,1,2.57,2.57,0,0,0,2.12-1.07,6.38,6.38,0,0,0,1.25-4Z"/><path class="cls-2" d="M160,194.13v3.16a10,10,0,0,1-1.63,5.39,5.18,5.18,0,0,1-4.64,2.57,5.42,5.42,0,0,1-2.95-.77,7.17,7.17,0,0,1-2.27-2.82,9.27,9.27,0,0,1-1.08-4.37v-3.16a10,10,0,0,1,1.62-5.37,5.16,5.16,0,0,1,4.64-2.58,5.35,5.35,0,0,1,2.93.76,7.21,7.21,0,0,1,2.29,2.82A9.28,9.28,0,0,1,160,194.13Zm-2.9,0a6.63,6.63,0,0,0-1.31-4.1,2.46,2.46,0,0,0-2.09-1,2.61,2.61,0,0,0-2.14,1.07,6.37,6.37,0,0,0-1.25,4v3.16a6.55,6.55,0,0,0,1.33,4.11,2.46,2.46,0,0,0,2.09,1,2.57,2.57,0,0,0,2.12-1.07,6.38,6.38,0,0,0,1.25-4Z"/><path class="cls-2" d="M172.42,186.18V202h2.9a2.2,2.2,0,0,1,1.49.4,1.34,1.34,0,0,1,.44,1,1.37,1.37,0,0,1-.44,1,2.25,2.25,0,0,1-1.49.4h-8.69a2.25,2.25,0,0,1-1.49-.4,1.37,1.37,0,0,1-.44-1.05,1.33,1.33,0,0,1,.44-1,2.2,2.2,0,0,1,1.49-.4h2.91v-12l-2.58.68a3.9,3.9,0,0,1-.92.16,1.24,1.24,0,0,1-.95-.43,1.51,1.51,0,0,1-.4-1.07,1.36,1.36,0,0,1,.29-.91,2.68,2.68,0,0,1,1.24-.58Z"/><path class="cls-2" d="M194.51,194.13v3.16a10,10,0,0,1-1.63,5.39,5.18,5.18,0,0,1-4.64,2.57,5.42,5.42,0,0,1-3-.77,7.17,7.17,0,0,1-2.27-2.82,9.27,9.27,0,0,1-1.08-4.37v-3.16a10,10,0,0,1,1.62-5.37,5.16,5.16,0,0,1,4.64-2.58,5.35,5.35,0,0,1,2.93.76,7.21,7.21,0,0,1,2.29,2.82A9.28,9.28,0,0,1,194.51,194.13Zm-2.9,0a6.63,6.63,0,0,0-1.31-4.1,2.46,2.46,0,0,0-2.09-1,2.61,2.61,0,0,0-2.14,1.07,6.37,6.37,0,0,0-1.25,4v3.16a6.55,6.55,0,0,0,1.33,4.11,2.46,2.46,0,0,0,2.09,1,2.57,2.57,0,0,0,2.12-1.07,6.38,6.38,0,0,0,1.25-4Z"/><path class="cls-2" d="M211.77,194.13v3.16a10,10,0,0,1-1.62,5.39,5.18,5.18,0,0,1-4.64,2.57,5.4,5.4,0,0,1-2.95-.77,7.17,7.17,0,0,1-2.27-2.82,9.27,9.27,0,0,1-1.08-4.37v-3.16a10,10,0,0,1,1.62-5.37,5.16,5.16,0,0,1,4.64-2.58,5.37,5.37,0,0,1,2.93.76,7.21,7.21,0,0,1,2.29,2.82A9.27,9.27,0,0,1,211.77,194.13Zm-2.89,0a6.69,6.69,0,0,0-1.31-4.1,2.46,2.46,0,0,0-2.09-1,2.61,2.61,0,0,0-2.14,1.07,6.37,6.37,0,0,0-1.25,4v3.16a6.61,6.61,0,0,0,1.32,4.11,2.49,2.49,0,0,0,2.1,1,2.57,2.57,0,0,0,2.12-1.07,6.38,6.38,0,0,0,1.25-4Z"/></g><path class="cls-3" d="M193.45,381.71s2.78,46.76,2.78,49.05,2.2,55.5,2.2,55.5H179.7"/><polyline class="cls-3" points="236.13 381.71 233.14 433.99 231.15 486.26 248.76 486.26"/><rect class="cls-4" x="126.21" y="256.06" width="171.26" height="38.29" rx="12"/><ellipse class="cls-5" cx="213.41" cy="384.52" rx="63.04" ry="27.19"/><ellipse class="cls-6" cx="212.76" cy="149.46" rx="75.26" ry="29.88"/><path class="cls-7" d="M137.5,149.46c0,16.5,33.7,29.88,75.26,29.88S288,166,288,149.46c0,0,.44,216.63,0,221.3-1.54,16.43-33.69,29.88-75.26,29.88s-75.26-13.38-75.26-29.88Z"/><path class="cls-8" d="M150.37,368.59V166.15a64.78,64.78,0,0,0,7.91,3.89v221.3a64.78,64.78,0,0,1-7.91-3.89Z"/><path class="cls-8" d="M185.15,354.37V177.2q-4.08-.64-7.91-1.46V397c2.55.54,5.19,1,7.91,1.45Z"/><path class="cls-8" d="M219.75,396.48V179.34c-2.3.08-4.63.13-7,.13h-.92V400.76h.92c2.36,0,4.69,0,7-.13Z"/><polygon class="cls-8" points="240.76 398.48 240.76 177.23 248.67 175.75 248.67 396.96 240.76 398.48"/><path class="cls-8" d="M268.53,372v18.52c2.38-1.13,6.34-3.29,7.91-4.29V165.47a80.48,80.48,0,0,1-7.92,4.05"/><path class="cls-4" d="M134.87,316.23v55c0,16.5,35.18,29.88,78.59,29.88s77-13.45,78.59-29.88c.15-1.53.2-25.89.2-57.93l-.2-37.78c0,16.5-35.19,29.88-78.59,29.88S134.87,292,134.87,275.49Z"/><path class="cls-9" d="M157.44,200.41a3.48,3.48,0,0,1-3.27-4.66c3-8.2,12.83-16.41,25.92-16.41h.43a3.47,3.47,0,0,1,3.42,3.52,3.43,3.43,0,0,1-3.52,3.43h-.34c-11,0-17.7,7.23-19.38,11.85A3.48,3.48,0,0,1,157.44,200.41Z"/><path class="cls-9" d="M268.52,200.41a3.48,3.48,0,0,1-3.27-2.28c-1.69-4.66-8.54-12-19.72-11.84a3.48,3.48,0,0,1-.1-6.95h.43c13.1,0,22.93,8.21,25.92,16.41a3.48,3.48,0,0,1-3.26,4.66Z"/><path class="cls-10" d="M174.15,256.29c0,.22,0,.45,0,.67,0,17.4,17.85,31.5,39.86,31.5s39.86-14.1,39.86-31.5c0-.22,0-.45,0-.67Z"/><path class="cls-11" d="M174.05,256.12c0,.22,0,.6,0,.83a25.69,25.69,0,0,0,2.38,10.76h75.14A25.7,25.7,0,0,0,253.94,257c0-.23,0-.61,0-.83Z"/><path class="cls-12" d="M214,288.46a46.66,46.66,0,0,0,24.93-6.92,30.92,30.92,0,0,0-4.76-3.93c-8.13-5.46-17.44-6.38-22.9-2.78-7.78-2.71-15.37-1.55-18.77,3.5a10.29,10.29,0,0,0-1.6,4.3A47.19,47.19,0,0,0,214,288.46Z"/><circle class="cls-11" cx="183.15" cy="221.9" r="20.04"/><path class="cls-10" d="M190.33,221.9a7.19,7.19,0,1,1-7.18-7.19A7.18,7.18,0,0,1,190.33,221.9Z"/><circle class="cls-11" cx="240.91" cy="221.9" r="20.04"/><path class="cls-10" d="M248.1,221.9a7.19,7.19,0,1,1-7.19-7.19A7.19,7.19,0,0,1,248.1,221.9Z"/><g id="mask"><circle class="cls-13" cx="241.94" cy="221.67" r="24.42" transform="translate(-32.38 41.62) rotate(-9.22)"/><circle class="cls-14" cx="182.8" cy="221.67" r="24.42" transform="translate(-76.92 344.55) rotate(-75.81)"/><polygon class="cls-15" points="157.38 222.1 137.5 212.79 137.5 208.53 158.75 219.18 157.38 222.1"/><polygon class="cls-15" points="267.27 222.1 288.22 212.77 288.22 209.23 265.9 219.18 267.27 222.1"/><path class="cls-15" d="M156.76,221.89a26.06,26.06,0,0,0,51.77,4.26l.12-.75h7.53l.12.75A26.09,26.09,0,1,0,216,221l0,.87h-7.05l0-.87a26.06,26.06,0,0,0-52.1.87Zm69.31-15.95A22.55,22.55,0,1,1,258,237.83h0a22.55,22.55,0,1,1-31.88-31.89Zm-43.26-6.6a22.55,22.55,0,0,1,16,38.49h0a22.55,22.55,0,1,1-15.95-38.49Z"/><path class="cls-16" d="M224.62,211c3.54-5.34,7.14-6.8,7.14-6.8l2.78,2.11a22.21,22.21,0,0,0-5.74,6.29,19.16,19.16,0,0,0-2.6,7l-4.6-.9A17.83,17.83,0,0,1,224.62,211Z"/><path class="cls-17" d="M165.5,211c3.54-5.34,7-6.8,7-6.8l2.92,2.11a22,22,0,0,0-5.74,6.29,19.31,19.31,0,0,0-2.61,7l-4.6-.9A17.83,17.83,0,0,1,165.5,211Z"/></g><path class="cls-3" d="M138.49,301.33h0S109,321.89,115.1,335.54"/><path class="cls-18" d="M73,354.89l0,.07h0a.25.25,0,0,1,0-.07m-.08-.78a2.15,2.15,0,0,0,0,.36,2.16,2.16,0,0,1,0-.36"/><path class="cls-19" d="M20.84,301.85c-.9-1.33-1.43-4.15,3.78-5.29C30.36,295.3,21.5,302.82,20.84,301.85Z"/><polyline class="cls-20" points="136.61 336.34 173.19 325.03 69.7 346.67 136.61 336.34"/><rect class="cls-19" x="133.44" y="330.42" width="42.71" height="4.27" rx="1.6" transform="translate(-85.99 55.83) rotate(-16.07)"/><path class="cls-21" d="M134.44,339v0a1.74,1.74,0,0,0,2.25.92l37.38-10.77a1.75,1.75,0,0,0,1.42-2v0Z"/><polyline class="cls-22" points="137.33 332.05 137.91 332.91 138.13 333.25 173.19 325.03 137.33 332.05"/><path class="cls-23" d="M138.83,334.31s2,3.3-2.46,5.69C132.68,342,136,335.1,138.83,334.31Z"/><path class="cls-19" d="M136.76,338.29,61.2,354.58a2.88,2.88,0,0,1-3-1.21L22.84,301a2.88,2.88,0,0,1,1.78-4.43l75.57-16.29a2.85,2.85,0,0,1,3,1.2l35.37,52.38a2.89,2.89,0,0,1-1.79,4.44"/><path class="cls-24" d="M135.55,340.31,60,356.6a2.89,2.89,0,0,1-3-1.2L20.91,302a2,2,0,0,1,1.25-3.11L99,282.29a2.89,2.89,0,0,1,3,1.2l35.36,52.39a2.88,2.88,0,0,1-1.78,4.43"/><polyline class="cls-25" points="114.89 302.63 116.5 305.02 114.89 302.63"/><polyline class="cls-26" points="100.93 347.77 100.93 347.77 100.96 347.76 100.96 347.76 100.93 347.77"/><polygon class="cls-19" points="76.12 315.1 75.91 318.92 77.05 319.16 77.13 317.75 81.04 321.92 81.24 318.11 80.07 317.85 80 319.24 76.12 315.1"/><path class="cls-19" d="M83.06,314.5A10.3,10.3,0,0,0,80.52,313a9.75,9.75,0,0,0-2.81-.67,7.88,7.88,0,0,0-2.77.26,5.51,5.51,0,0,0-2.18,1.17,4.36,4.36,0,0,0-1.24,1.83,4.72,4.72,0,0,0-.19,2.25,6.15,6.15,0,0,0,.93,2.41,8.47,8.47,0,0,0,1.94,2.13,10.06,10.06,0,0,0,2.53,1.46,9.75,9.75,0,0,0,2.81.67,7.65,7.65,0,0,0,2.77-.26,5.5,5.5,0,0,0,2.19-1.17,4.43,4.43,0,0,0,1.23-1.83,4.59,4.59,0,0,0,.19-2.25,6.21,6.21,0,0,0-.93-2.41A8.8,8.8,0,0,0,83.06,314.5Zm-1.33,9-3.91-4.17,0,.55-2.71-.58.33-5.84,3.92,4.17,0-.56,2.64.57Z"/><line class="cls-3" x1="100.14" y1="347.35" x2="87.32" y2="349.87"/><line class="cls-3" x1="94.09" y1="347.92" x2="91.64" y2="344.24"/><line class="cls-3" x1="87.32" y1="349.87" x2="84.87" y2="346.19"/><line class="cls-3" x1="100.77" y1="347.12" x2="98.32" y2="343.44"/><path class="cls-3" d="M328.51,343.1h0s-25.36,1.83-32.21-11.47c-10.12-19.68-10.13-30.17-10.13-30.17"/><line class="cls-3" x1="333.17" y1="344.83" x2="324.78" y2="344.99"/><line class="cls-3" x1="333.38" y1="338.83" x2="324.99" y2="338.99"/><line class="cls-3" x1="324.25" y1="328.63" x2="323.64" y2="348.36"/><line class="cls-3" x1="333.17" y1="348.44" x2="324.78" y2="348.61"/><path class="cls-27" d="M268.05,169.73c-1.8-37.39-105.82-35.91-109.15.55C186.18,182.49,241,182,268.05,169.73Z"/><path class="cls-11" d="M237,365.09c.15-.31.15-.78.31-1.09,3.88-15.2-5.59-33.2-21.26-42.67,7,9.31,9.93,20.79,7.29,30.73a17.22,17.22,0,0,1-.93,2.63c-.31-.15-.77-.46-1.4-.77a206.74,206.74,0,0,1-32.74-26.85,207.68,207.68,0,0,0,19.86,25c-5.12-2.8-19.24-13.2-28.24-21.42a42.32,42.32,0,0,0,3.88,5.28c7.45,9.46,17.23,21.26,29,30.26-8.22,5-19.86,5.43-31.5,0a52.74,52.74,0,0,1-8.07-4.81A48.35,48.35,0,0,0,194.93,380c11,4.65,21.88,4.34,29.95.15H225a3.14,3.14,0,0,0,.93-.62c3.88-2,11.64-4,15.83,4,.93,1.7,3.1-8.85-4.81-18.47Z"/></svg>