<svg id="Layer_1" data-name="Layer 1" xmlns="http://www.w3.org/2000/svg" viewBox="0 0 432 576"><defs><style>.cls-1{fill:#dbdbdb;}.cls-1,.cls-14,.cls-2,.cls-22{stroke:#000;}.cls-1,.cls-13,.cls-14,.cls-15,.cls-19,.cls-2,.cls-20,.cls-21,.cls-26,.cls-3{stroke-miterlimit:10;}.cls-1,.cls-2{stroke-width:1.55px;}.cls-2{fill:#f2f2f2;}.cls-3,.cls-5{fill:#003a54;}.cls-3{stroke:#003a54;}.cls-4{fill:#002633;}.cls-20,.cls-6{fill:#fbd82b;}.cls-7{fill:#ffe278;}.cls-8{fill:#701d1d;}.cls-9{fill:#fff;}.cls-10{fill:#f70000;}.cls-11{fill:#b57817;}.cls-12{opacity:0.1;}.cls-13,.cls-15,.cls-26{fill:#e8003d;}.cls-13,.cls-15{stroke:#910034;}.cls-14,.cls-16{fill:#910034;}.cls-14{stroke-width:0.32px;}.cls-15{stroke-width:0.65px;}.cls-16{opacity:0.5;}.cls-17{fill:#d3d3d3;}.cls-18{fill:#f9f9f9;}.cls-19,.cls-21{fill:#f4d521;}.cls-19{stroke:#ffe278;}.cls-20{stroke:#ffff27;}.cls-21{stroke:#f4d521;stroke-width:0.07px;}.cls-22{fill:none;stroke-linecap:round;stroke-linejoin:round;stroke-width:8px;}.cls-23{fill:#321a14;}.cls-24{fill:#878787;}.cls-25{fill:#b2b2b2;}.cls-26{stroke:#e8003d;}.cls-27{fill:#0073d1;}</style></defs><path class="cls-1" d="M253.68,490.08s18.89,5.43,30.81,3.69,18-3.47,18.59-7.16-24.7-6.72-24.7-6.72S250.2,475.33,253.68,490.08Z"/><path class="cls-2" d="M254.46,484a63.17,63.17,0,0,0,20.73,2.7c11.33-.49,25.28-.79,25.86-2.7s2.32-11.46-11-13.2S253.48,467.66,254.46,484Z"/><path class="cls-1" d="M182.67,490.08s-18.88,5.43-30.8,3.69-18-3.47-18.59-7.16S158,479.89,158,479.89,186.16,475.33,182.67,490.08Z"/><path class="cls-2" d="M181.9,484a63.23,63.23,0,0,1-20.73,2.7c-11.33-.49-25.28-.79-25.86-2.7s-2.33-11.46,11-13.2S182.87,467.66,181.9,484Z"/><path class="cls-3" d="M304.54,470.12c-2.33-2.19-9.3-5.37-10.47-7.56s-3.77-13.93-8.42-18.31-16.57-61.08-27.32-62.67c-6.85-1-26.66-.73-40.15-.4-13.49-.33-33.3-.61-40.16.4-10.75,1.59-22.66,58.3-27.31,62.67s-7.26,16.12-8.43,18.31-8.13,5.37-10.46,7.56-2,13.33,4.07,9.55S158,473.5,169.6,474.3s12.49,11.73,14.82,6.16-4.65-10.94-3.2-13.13,9.3-13.53,9.3-16.71,2-9.55,4.65-9.75,7.55-8.55,13.08-14.92a64.28,64.28,0,0,1,9.93-9.37,64.28,64.28,0,0,1,9.93,9.37c5.52,6.37,10.46,14.72,13.08,14.92s4.65,6.57,4.65,9.75,7.84,14.52,9.3,16.71-5.52,7.56-3.2,13.13,3.2-5.37,14.82-6.16,27.61,1.59,33.71,5.37S306.86,472.31,304.54,470.12Z"/><path class="cls-4" d="M255,439.07c-5.83-3.35-13.56-1.61-13.64-1.59l-.36-.86c.34-.09,7.67-1.46,14,2.45Z"/><path class="cls-4" d="M255.94,467.22l-.93-.52a46.75,46.75,0,0,0,6.38-8.2h0C259.07,462.63,256,467.18,255.94,467.22Z"/><polygon class="cls-4" points="279.61 451.46 279.61 451.46 282.24 435.37 283.31 438.4 279.61 451.46"/><path class="cls-4" d="M291.93,461.19c-3-.88-6.21-4.09-6.38-4.2h0a35.08,35.08,0,0,0,6.82,3.4Z"/><path class="cls-4" d="M181.35,439.21h0c6.33-3.79,13.66-2.57,14-2.48l-.36.82C194.91,437.53,187.18,435.72,181.35,439.21Z"/><path class="cls-4" d="M179.61,467.05a47.3,47.3,0,0,1-6.52-8.38h0c2.27,4,7.41,7.82,7.45,7.87Z"/><polygon class="cls-4" points="156.44 449.87 153.71 437.17 154.75 434.3 156.44 449.87 156.44 449.87"/><path class="cls-4" d="M143.75,461.19l-.44-.8a35.08,35.08,0,0,0,6.82-3.4h0C150,457.1,146.71,460.31,143.75,461.19Z"/><ellipse class="cls-5" cx="215.32" cy="382.19" rx="63.04" ry="27.19"/><path class="cls-6" d="M290,168.62c.1,64.08.47,110,.14,113.74-1.55,17.3-32.58,86.21-74.15,86.21s-76.57-68.83-76.57-86.21V165.2l15-12.54c13.73,7.64,35.59,12.59,60.22,12.59,22.12,0,42-4,55.77-10.34Z"/><path class="cls-7" d="M152.29,366.25V163.82a66.85,66.85,0,0,0,7.9,3.89V389a63.89,63.89,0,0,1-7.9-3.89Z"/><path class="cls-7" d="M187.07,352V174.86c-2.71-.43-5.35-.91-7.9-1.46V394.7c2.55.55,5.19,1,7.9,1.46Z"/><path class="cls-7" d="M221.67,393.73V155.48q-3.45.14-7,.14h-.92V398.43h.92q3.54,0,7-.14Z"/><polygon class="cls-7" points="242.68 395.93 242.68 153.16 250.59 151.54 250.59 394.26 242.68 395.93"/><path class="cls-7" d="M278.36,369.66V163.14a83.69,83.69,0,0,1-7.91,4.05v221c2.38-1.13,6.34-3.29,7.91-4.29Z"/><path class="cls-8" d="M175.63,252.16c8.22,20.8,19.72,30.2,44.11,30.2s38.23-23.28,46.14-43.15Z"/><path class="cls-9" d="M175.1,251.76a70.15,70.15,0,0,0,4.65,9.39c3.41,4.39,71.33,3.43,78.23-5.38a122.07,122.07,0,0,0,8.32-17"/><path class="cls-10" d="M213.32,272.16c-5.76-3.8-15.08-3.39-23.87,1.2,5.93,6.09,16.78,9.45,30.29,9.45a32.43,32.43,0,0,0,17-4.76,11.5,11.5,0,0,0-.91-1.69C231.78,270.29,222.66,268.9,213.32,272.16Z"/><circle class="cls-9" cx="189.87" cy="211" r="20.91"/><circle class="cls-9" cx="245.56" cy="211" r="20.91"/><circle class="cls-8" cx="189.16" cy="215.73" r="8.12"/><circle class="cls-8" cx="245.88" cy="215.82" r="8.12"/><polygon class="cls-4" points="218.22 417.16 215.98 418.82 215.98 400.27 217.47 400.27 218.22 417.16"/><path class="cls-11" d="M204.77,188.7a3.85,3.85,0,0,1-1.65-.37l-25.63-12.18a3.84,3.84,0,0,1,3.3-6.94l20.5,9.73.29-4.58a3.84,3.84,0,0,1,7.67.48l-.64,10.26a3.85,3.85,0,0,1-3.84,3.6Z"/><path class="cls-11" d="M228.66,188.7a3.9,3.9,0,0,1-2-.53,3.84,3.84,0,0,1-1.88-3.07l-.64-10.26a3.84,3.84,0,0,1,7.67-.48l.29,4.58,20.5-9.73a3.84,3.84,0,1,1,3.3,6.94L230.3,188.33A3.78,3.78,0,0,1,228.66,188.7Z"/><path class="cls-12" d="M138.84,192a1.49,1.49,0,0,0,1.77.47c3.7-1.54,16-6.49,23.15-7.68,8.51-1.42,21.46-6.21,24.87-6.27s22-1.31,30.66-1.7,21.13.26,24.32.06L272.84,175s12.7.65,14.76-.21-2.28-12.16-6.88-13.94-44.8-8.1-53.26-7.19S144.73,173.69,141,176,131.68,181.88,138.84,192Z"/><path class="cls-13" d="M292,116c-7.78-19.08-12.6-26.71-28.72-31.9-14-4.51-47.74-9.27-56.37-8.72h-.3c-8.64.55-41.39,9.57-54.57,15.81-15.2,7.2-18.86,15.26-23.76,35.15s-.07,52.45-.07,52.45l85.14-14.25,86.43,3.32S299.78,135,292,116Z"/><path class="cls-14" d="M169.84,92.22c.72,1-.36,2.87-2.42,4.13s-4.32,1.45-5,.42.36-2.87,2.42-4.13S169.12,91.19,169.84,92.22Z"/><path class="cls-15" d="M310.9,164.59c-16.17-5.26-56.1-12-80-15.63a87.16,87.16,0,0,0-37.26,2.39C170.51,158,131.94,169.74,116.7,177c-25.88,12.33,23,15.64,23,15.64.2-21,56.38-21,71.57-22.57a24,24,0,0,0,2.49-.38,24.88,24.88,0,0,0,2.51.06c15.28-.38,70.78-10.09,74.07,10.69C290.3,180.44,338.35,173.51,310.9,164.59Z"/><path class="cls-16" d="M276.5,162.23a.69.69,0,0,0,.09-1.38c-14-2.52-39.41-3.79-51.74-5.68a56.83,56.83,0,0,0-24.3,1.56c-12.17,3.5-44.82,10.83-59.4,15.68a.57.57,0,0,0,.26,1.1Z"/><path class="cls-14" d="M245.79,87.36c-.57,1.11.78,2.81,3,3.79s4.49.88,5.06-.22-.78-2.8-3-3.79S246.35,86.26,245.79,87.36Z"/><path class="cls-17" d="M290.14,281.47c0,16.79-32,20.57-75.39,20.57s-75.33-2.9-75.33-19.68L142,308.2l72.78,1.91,72.94,3Z"/><path class="cls-18" d="M290.14,282.36c0,16.78-32,20.56-75.39,20.56s-75.33-3.78-75.33-20.56l.9,89.34c0,16.79,31,28.57,74.43,28.57s72.6-13.68,74.21-30.39Z"/><path class="cls-19" d="M215.9,337.88l-21.85,33.53,12.52,8.12,2.05-3.16,6.63,31.07,21.52-33.73-12.17-7.9-2,3.2Zm10,33.52,5.34,3.58-14.14,21.87-6.64-31.13-5.27,8.13-5.26-3.41,14.22-21.93,6.59,30.87Z"/><path class="cls-20" d="M225.89,371.38l5.34,3.57-14.14,21.88-6.64-31.14-5.27,8.13-5.26-3.41,14.22-21.92,6.59,30.86Z"/><path class="cls-21" d="M173.47,302.77a1.73,1.73,0,0,0,2.28.85l2-.92a1.23,1.23,0,0,0,.17.45l3.68,5.93a1.77,1.77,0,0,0,.12.17l-1.3,1.2a1.72,1.72,0,0,0-.11,2.43l9.26,10.06a1.72,1.72,0,0,0,2.44.1l1.63-1.5,2.94,2.83a1.24,1.24,0,0,0,.55.3L195.92,326a1.72,1.72,0,0,0,.14,2.43l10.2,9.1a1.72,1.72,0,0,0,2.43-.14l5-5.62a1.72,1.72,0,0,0-.14-2.43l-10.2-9.1a1.71,1.71,0,0,0-2.43.14l-2.3,2.57a1.25,1.25,0,0,0-.29-.44l-2.83-2.73,2-1.87a1.71,1.71,0,0,0,.1-2.43l-9.26-10.06a1.71,1.71,0,0,0-2.43-.1l-2.35,2.16-3.53-5.7a.64.64,0,0,0-.1-.13l2.62-1.2-10.95-1Zm17.63,18a1.29,1.29,0,0,1-1.81-.08l-6.8-7.39a1.28,1.28,0,0,1,.08-1.8l4.06-3.74a1.27,1.27,0,0,1,1.8.08l6.8,7.39a1.27,1.27,0,0,1-.07,1.8Zm20.14,10.36-3.67,4.12a1.29,1.29,0,0,1-1.81.1l-7.49-6.69a1.28,1.28,0,0,1-.1-1.8l3.67-4.12a1.29,1.29,0,0,1,1.81-.1l7.49,6.69A1.27,1.27,0,0,1,211.24,331.17Z"/><path class="cls-7" d="M176.06,302.39c-2.19,1.53-2.39-1-2.79-2h0s1,2.54,2.79,2Z"/><path class="cls-7" d="M191.92,321.78c-1.61,2.13-2.58-.2-3.27-1h0s1.76,2.09,3.27,1Z"/><path class="cls-7" d="M188.86,307.27c-1-2.47-2.55-.44-3.43.21h0s2.22-1.6,3.43-.21Z"/><path class="cls-7" d="M208.48,336.18c-1.39,2.28-2.58.05-3.36-.72h0s2,1.91,3.36.72Z"/><path class="cls-7" d="M204,322c-1.28-2.35-2.58-.18-3.39.55h0s2-1.81,3.39-.55Z"/><path class="cls-6" d="M247.18,300.23l2.63,1.18-.1.14-3.49,5.72-2.36-2.14a1.71,1.71,0,0,0-2.43.12l-9.18,10.12a1.73,1.73,0,0,0,.12,2.44l2,1.85-2.8,2.75a1.28,1.28,0,0,0-.3.44L229,320.3a1.71,1.71,0,0,0-2.43-.12l-10.14,9.18a1.73,1.73,0,0,0-.12,2.43l5.06,5.58a1.73,1.73,0,0,0,2.44.12l10.13-9.17a1.73,1.73,0,0,0,.12-2.44l-1.22-1.34a1.37,1.37,0,0,0,.55-.31l2.91-2.85,1.65,1.49a1.72,1.72,0,0,0,2.43-.12l9.18-10.13a1.71,1.71,0,0,0-.12-2.43l-1.31-1.2.12-.16,3.63-6a1.3,1.3,0,0,0,.17-.45l2,.9a1.73,1.73,0,0,0,2.28-.87l1-3.25Zm-12.43,16.69a1.29,1.29,0,0,1-.09-1.81l6.74-7.44a1.28,1.28,0,0,1,1.81-.08l4.09,3.7a1.29,1.29,0,0,1,.09,1.81l-6.75,7.44a1.27,1.27,0,0,1-1.8.08Zm-15.89,12.42,7.45-6.75a1.28,1.28,0,0,1,1.8.09l3.7,4.09a1.28,1.28,0,0,1-.08,1.81l-7.45,6.74a1.28,1.28,0,0,1-1.8-.09l-3.71-4.09A1.28,1.28,0,0,1,218.86,329.34Z"/><path class="cls-7" d="M253.73,302.09c2.21,1.51,2.38-1,2.78-2h0s-1,2.54-2.78,2Z"/><path class="cls-7" d="M238,321.61c1.63,2.11,2.58-.23,3.27-1.08h0s-1.75,2.11-3.27,1.08Z"/><path class="cls-7" d="M241,307.07c1-2.47,2.55-.46,3.43.18h0s-2.23-1.58-3.43-.18Z"/><path class="cls-7" d="M221.57,336.13c1.42,2.26,2.59,0,3.36-.75h0s-2,1.93-3.36.75Z"/><path class="cls-7" d="M225.93,322c1.27-2.36,2.58-.21,3.4.52h0s-2.07-1.79-3.4-.52Z"/><path class="cls-19" d="M221.48,330.21c-1.08-1.08-5.77-1.4-7-1.48h-.15l-.09,0h-.09a.66.66,0,0,0-.15,0c-1.29.08-6,.42-7,1.5-1.25,1.26,4,15,5.08,15h.61l3.32,0h.61C217.61,345.23,222.74,331.46,221.48,330.21Z"/><path class="cls-7" d="M219.76,331.54c-.82-.81-4.36-1.05-5.33-1.11h-.25l-.12,0c-1,.06-4.5.31-5.32,1.12-.94,1,3,11.31,3.84,11.31H216C216.83,342.87,220.71,332.49,219.76,331.54Z"/><path class="cls-22" d="M283.61,306.59l25.58,21.84,15.05-16.24A169.28,169.28,0,0,0,347.71,280"/><polyline class="cls-22" points="352.65 288 341.25 292.33 336.83 277.69"/><path class="cls-22" d="M145.88,397.82l-12.52-3.9c-13.62-52.45,12.72-87.2,12.72-87.2"/><polyline class="cls-22" points="126.77 406.07 133.36 391.92 137.76 403.79"/><path class="cls-9" d="M212,91.64l-15.45,23.51,8.78,5.74,1.45-2.22,4.57,21.85,15.21-23.64-8.52-5.58-1.46,2.24Zm6.93,23.59,3.74,2.53-10,15.33-4.59-21.9-3.72,5.7-3.69-2.41,10.05-15.37,4.55,21.71Z"/><path class="cls-23" d="M336.31,246.82a13.22,13.22,0,1,1-18-5.07A13.22,13.22,0,0,1,336.31,246.82Z"/><polygon class="cls-24" points="340.76 260.98 322.99 270.93 318.2 264.85 338.07 253.72 340.76 260.98"/><polygon class="cls-25" points="343.04 274.81 333.6 280.1 324.02 270.35 339.73 261.56 343.04 274.81"/><polyline class="cls-24" points="353.32 315.31 333.6 280.1 343.04 274.81 362.76 310.02"/><line class="cls-22" x1="350.18" y1="286.04" x2="342.42" y2="294.01"/><line class="cls-22" x1="346.73" y1="280.88" x2="338.97" y2="288.85"/><path class="cls-26" d="M330.74,181l-7.91,1.61a1.33,1.33,0,0,0-1,1.25v19.71a7.74,7.74,0,0,0-2.49-.41c-3.43,0-6.21,2.16-6.21,4.83s2.78,4.84,6.21,4.84,6.1-2.09,6.2-4.7h0V188.83l5.2-1.06a1.34,1.34,0,0,0,1-1.25v-4.7A.82.82,0,0,0,330.74,181Zm26.1,5-7.91,1.62a1.31,1.31,0,0,0-1,1.24v19.71a7.74,7.74,0,0,0-2.49-.41c-3.43,0-6.21,2.17-6.21,4.84s2.78,4.83,6.21,4.83,6.1-2.09,6.2-4.7h0V193.8l5.2-1.06a1.34,1.34,0,0,0,1-1.25v-4.7A.82.82,0,0,0,356.84,186Z"/><path class="cls-27" d="M341.93,193.42,334,195a1.34,1.34,0,0,0-1,1.25V216a7.68,7.68,0,0,0-2.48-.41c-3.44,0-6.22,2.16-6.22,4.83s2.78,4.84,6.22,4.84,6.1-2.1,6.19-4.7h0V201.26l5.2-1.06a1.33,1.33,0,0,0,1-1.25v-4.7A.81.81,0,0,0,341.93,193.42Z"/></svg>