<svg id="Layer_1" data-name="Layer 1" xmlns="http://www.w3.org/2000/svg" xmlns:xlink="http://www.w3.org/1999/xlink" viewBox="0 0 432 576"><defs><style>.cls-1{fill:url(#linear-gradient);}.cls-2{fill:url(#linear-gradient-3);}.cls-3{fill:url(#linear-gradient-4);}.cls-4{fill:url(#linear-gradient-5);}.cls-5{fill:url(#linear-gradient-6);}.cls-6{fill:url(#linear-gradient-7);}.cls-7{fill:url(#linear-gradient-8);}.cls-8{fill:url(#linear-gradient-9);}.cls-9{fill:url(#linear-gradient-10);}.cls-10{fill:url(#linear-gradient-11);}.cls-11{fill:url(#linear-gradient-12);}.cls-12{fill:url(#linear-gradient-13);}.cls-13{fill:url(#linear-gradient-14);}.cls-14{fill:url(#linear-gradient-15);}.cls-15{fill:url(#linear-gradient-16);}.cls-16{fill:url(#linear-gradient-17);}.cls-17{fill:url(#linear-gradient-18);}.cls-18{fill:url(#linear-gradient-19);}.cls-19{fill:url(#linear-gradient-20);}.cls-20{fill:url(#linear-gradient-21);}.cls-21{fill:url(#linear-gradient-22);}.cls-22{fill:url(#linear-gradient-23);}.cls-23{fill:url(#linear-gradient-24);}.cls-24{fill:url(#linear-gradient-27);}.cls-25{fill:url(#linear-gradient-28);}.cls-26{fill:url(#linear-gradient-29);}.cls-27{fill:url(#linear-gradient-32);}.cls-28{fill:url(#linear-gradient-33);}.cls-29{fill:url(#linear-gradient-38);}.cls-30{fill:url(#linear-gradient-39);}.cls-31{fill:url(#linear-gradient-40);}.cls-32{fill:url(#linear-gradient-41);}.cls-33{fill:url(#linear-gradient-42);}.cls-34{fill:url(#linear-gradient-43);}.cls-35{fill:url(#linear-gradient-44);}.cls-36{fill:url(#linear-gradient-45);}.cls-37{fill:url(#linear-gradient-46);}.cls-38{fill:url(#linear-gradient-47);}.cls-39{fill:url(#linear-gradient-48);}.cls-40{fill:url(#linear-gradient-49);}.cls-41{fill:url(#linear-gradient-50);}.cls-42{fill:url(#linear-gradient-51);}.cls-43{fill:url(#linear-gradient-53);}.cls-44{fill:#701d1d;}.cls-45{fill:#b57817;}.cls-46{fill:#fded9d;}</style><linearGradient id="linear-gradient" x1="206.1" y1="495.27" x2="206.1" y2="75.65" gradientUnits="userSpaceOnUse"><stop offset="0" stop-color="#fff7db"/><stop offset="1" stop-color="#fbdb43"/></linearGradient><linearGradient id="linear-gradient-3" x1="198.11" y1="495.27" x2="198.11" y2="75.65" xlink:href="#linear-gradient"/><linearGradient id="linear-gradient-4" x1="167.77" y1="495.27" x2="167.77" y2="75.65" xlink:href="#linear-gradient"/><linearGradient id="linear-gradient-5" x1="152.27" y1="495.27" x2="152.27" y2="75.65" xlink:href="#linear-gradient"/><linearGradient id="linear-gradient-6" x1="143.61" y1="495.27" x2="143.61" y2="75.65" xlink:href="#linear-gradient"/><linearGradient id="linear-gradient-7" x1="209.99" y1="495.27" x2="209.99" y2="75.65" xlink:href="#linear-gradient"/><linearGradient id="linear-gradient-8" x1="234.66" y1="495.27" x2="234.66" y2="75.65" xlink:href="#linear-gradient"/><linearGradient id="linear-gradient-9" x1="264.04" y1="495.27" x2="264.04" y2="75.65" xlink:href="#linear-gradient"/><linearGradient id="linear-gradient-10" x1="256.68" y1="495.27" x2="256.68" y2="75.65" xlink:href="#linear-gradient"/><linearGradient id="linear-gradient-11" x1="226.97" y1="495.27" x2="226.97" y2="75.65" xlink:href="#linear-gradient"/><linearGradient id="linear-gradient-12" x1="180.23" y1="495.27" x2="180.23" y2="75.65" xlink:href="#linear-gradient"/><linearGradient id="linear-gradient-13" x1="197.03" y1="495.27" x2="197.03" y2="75.65" xlink:href="#linear-gradient"/><linearGradient id="linear-gradient-14" x1="284.2" y1="495.27" x2="284.2" y2="75.65" xlink:href="#linear-gradient"/><linearGradient id="linear-gradient-15" x1="289.38" y1="495.27" x2="289.38" y2="75.65" xlink:href="#linear-gradient"/><linearGradient id="linear-gradient-16" x1="290.83" y1="495.27" x2="290.83" y2="75.65" xlink:href="#linear-gradient"/><linearGradient id="linear-gradient-17" x1="207.69" y1="495.27" x2="207.69" y2="75.65" xlink:href="#linear-gradient"/><linearGradient id="linear-gradient-18" x1="237.61" y1="495.27" x2="237.61" y2="75.65" xlink:href="#linear-gradient"/><linearGradient id="linear-gradient-19" x1="177.94" y1="495.27" x2="177.94" y2="75.65" xlink:href="#linear-gradient"/><linearGradient id="linear-gradient-20" x1="266.81" y1="495.27" x2="266.81" y2="75.65" xlink:href="#linear-gradient"/><linearGradient id="linear-gradient-21" x1="294.88" y1="495.27" x2="294.88" y2="75.65" xlink:href="#linear-gradient"/><linearGradient id="linear-gradient-22" x1="183.54" y1="495.27" x2="183.54" y2="75.65" xlink:href="#linear-gradient"/><linearGradient id="linear-gradient-23" x1="243.27" y1="495.27" x2="243.27" y2="75.65" xlink:href="#linear-gradient"/><linearGradient id="linear-gradient-24" x1="272.13" y1="495.27" x2="272.13" y2="75.65" xlink:href="#linear-gradient"/><linearGradient id="linear-gradient-27" x1="292.89" y1="495.27" x2="292.89" y2="75.65" xlink:href="#linear-gradient"/><linearGradient id="linear-gradient-28" x1="137.71" y1="495.27" x2="137.71" y2="75.65" xlink:href="#linear-gradient"/><linearGradient id="linear-gradient-29" x1="147.08" y1="495.27" x2="147.08" y2="75.65" xlink:href="#linear-gradient"/><linearGradient id="linear-gradient-32" x1="154.96" y1="495.27" x2="154.96" y2="75.65" xlink:href="#linear-gradient"/><linearGradient id="linear-gradient-33" x1="138.04" y1="495.27" x2="138.04" y2="75.65" xlink:href="#linear-gradient"/><linearGradient id="linear-gradient-38" x1="213.39" y1="495.27" x2="213.39" y2="75.65" xlink:href="#linear-gradient"/><linearGradient id="linear-gradient-39" x1="126.15" y1="495.27" x2="126.15" y2="75.65" xlink:href="#linear-gradient"/><linearGradient id="linear-gradient-40" x1="119.94" y1="495.27" x2="119.94" y2="75.65" xlink:href="#linear-gradient"/><linearGradient id="linear-gradient-41" x1="124.76" y1="495.27" x2="124.76" y2="75.65" xlink:href="#linear-gradient"/><linearGradient id="linear-gradient-42" x1="135.56" y1="495.27" x2="135.56" y2="75.65" xlink:href="#linear-gradient"/><linearGradient id="linear-gradient-43" x1="308.52" y1="495.27" x2="308.52" y2="75.65" xlink:href="#linear-gradient"/><linearGradient id="linear-gradient-44" x1="312.77" y1="495.27" x2="312.77" y2="75.65" xlink:href="#linear-gradient"/><linearGradient id="linear-gradient-45" x1="297.56" y1="495.27" x2="297.56" y2="75.65" xlink:href="#linear-gradient"/><linearGradient id="linear-gradient-46" x1="305.9" y1="495.27" x2="305.9" y2="75.65" xlink:href="#linear-gradient"/><linearGradient id="linear-gradient-47" x1="227.9" y1="495.27" x2="227.9" y2="75.65" xlink:href="#linear-gradient"/><linearGradient id="linear-gradient-48" x1="257.18" y1="495.27" x2="257.18" y2="75.65" xlink:href="#linear-gradient"/><linearGradient id="linear-gradient-49" x1="169.25" y1="495.27" x2="169.25" y2="75.65" xlink:href="#linear-gradient"/><linearGradient id="linear-gradient-50" x1="197.99" y1="495.27" x2="197.99" y2="75.65" xlink:href="#linear-gradient"/><linearGradient id="linear-gradient-51" x1="229.89" y1="495.27" x2="229.89" y2="75.65" xlink:href="#linear-gradient"/><linearGradient id="linear-gradient-53" x1="237.88" y1="495.27" x2="237.88" y2="75.65" xlink:href="#linear-gradient"/></defs><path class="cls-1" d="M206.1,408.84a3.46,3.46,0,0,0-3.5,3.41v7.3a3.5,3.5,0,0,0,7,0v-7.3A3.46,3.46,0,0,0,206.1,408.84Z"/><path class="cls-1" d="M206.1,433.29a3.45,3.45,0,0,0-3.5,3.4v17.15a3.5,3.5,0,0,0,7,0V436.69A3.45,3.45,0,0,0,206.1,433.29Z"/><path class="cls-2" d="M206.1,467.59a3.45,3.45,0,0,0-3.5,3.4v5.2l-4.78,2.32a3.58,3.58,0,0,0-1.14.89,3.57,3.57,0,0,0-1.41.35L188.56,483a3.37,3.37,0,0,0-1.57,4.57,3.53,3.53,0,0,0,3.14,1.88,3.63,3.63,0,0,0,1.56-.36l6.71-3.27a3.38,3.38,0,0,0,1.14-.89,3.53,3.53,0,0,0,1.41-.35l6.71-3.26a3.4,3.4,0,0,0,1.94-3V471A3.45,3.45,0,0,0,206.1,467.59Z"/><path class="cls-3" d="M160.65,119.71a3.57,3.57,0,0,0,1.35-.27A106.13,106.13,0,0,1,175.76,115a3.39,3.39,0,0,0,2.51-4.15,3.49,3.49,0,0,0-4.26-2.44,112.61,112.61,0,0,0-14.71,4.73,3.37,3.37,0,0,0-1.88,4.45A3.5,3.5,0,0,0,160.65,119.71Z"/><path class="cls-4" d="M160.06,152.23a45.22,45.22,0,0,1-11.88-6.92,3.57,3.57,0,0,0-4.94.3,3.34,3.34,0,0,0,.31,4.81,52,52,0,0,0,13.73,8.06,3.57,3.57,0,0,0,1.39.29,3.5,3.5,0,0,0,3.21-2.06A3.37,3.37,0,0,0,160.06,152.23Z"/><path class="cls-5" d="M139.26,138.65a2.06,2.06,0,0,0,.35,0,3.46,3.46,0,0,0,3.48-3.07c.41-3.95,3.86-7.34,6.68-9.5a3.34,3.34,0,0,0,.59-4.78,3.56,3.56,0,0,0-4.91-.58c-5.67,4.32-8.8,9.09-9.33,14.19A3.42,3.42,0,0,0,139.26,138.65Z"/><path class="cls-6" d="M199,164.22a3.44,3.44,0,0,0,3.26,3.62c4.3.27,8.72.41,13.14.41h2.12a3.41,3.41,0,1,0-.07-6.81c-5,0-9.92-.08-14.73-.39A3.47,3.47,0,0,0,199,164.22Z"/><path class="cls-7" d="M223.7,164.71a3.46,3.46,0,0,0,3.49,3.21h.21c5.17-.29,10.28-.78,15.21-1.45a3.42,3.42,0,0,0,3-3.84,3.48,3.48,0,0,0-4-2.9c-4.74.64-9.67,1.11-14.65,1.39A3.44,3.44,0,0,0,223.7,164.71Z"/><path class="cls-8" d="M253.47,161.2a3.47,3.47,0,0,0,3.4,2.62,3.72,3.72,0,0,0,.81-.09,121.85,121.85,0,0,0,14.79-4.38,3.38,3.38,0,0,0,2-4.39,3.53,3.53,0,0,0-4.52-2,113.3,113.3,0,0,1-13.91,4.11A3.4,3.4,0,0,0,253.47,161.2Z"/><path class="cls-9" d="M248.78,112.39a134.23,134.23,0,0,1,14.27,3.07,4,4,0,0,0,.95.13,3.5,3.5,0,0,0,3.37-2.48A3.41,3.41,0,0,0,265,108.9a145.25,145.25,0,0,0-15-3.23,3.49,3.49,0,0,0-4,2.79A3.42,3.42,0,0,0,248.78,112.39Z"/><path class="cls-10" d="M219.47,110.08c5,0,9.92.21,14.72.58h.28a3.4,3.4,0,0,0,.27-6.8c-5-.38-10.11-.59-15.25-.6h0a3.41,3.41,0,1,0,0,6.81Z"/><path class="cls-11" d="M187.06,166.26a3,3,0,0,0,.52,0,3.48,3.48,0,0,0,3.46-2.9,3.42,3.42,0,0,0-2.94-3.87,144.73,144.73,0,0,1-14.35-2.82,3.51,3.51,0,0,0-4.26,2.44,3.4,3.4,0,0,0,2.51,4.16A149.92,149.92,0,0,0,187.06,166.26Z"/><path class="cls-12" d="M189.58,112.21a3.35,3.35,0,0,0,.54,0c4.71-.71,9.63-1.25,14.62-1.6a3.43,3.43,0,0,0,3.24-3.64,3.48,3.48,0,0,0-3.74-3.15c-5.19.36-10.3.92-15.2,1.66a3.42,3.42,0,0,0-2.92,3.88A3.48,3.48,0,0,0,189.58,112.21Z"/><path class="cls-13" d="M276.55,120.3a37,37,0,0,1,11.23,7.46,3.57,3.57,0,0,0,5,.18,3.34,3.34,0,0,0,.19-4.81,43.92,43.92,0,0,0-13.35-9,3.56,3.56,0,0,0-4.67,1.6A3.38,3.38,0,0,0,276.55,120.3Z"/><path class="cls-14" d="M290.85,137.71c-1,3-3.86,6.18-8.24,9.09a3.34,3.34,0,0,0-.92,4.73,3.56,3.56,0,0,0,4.86.9c5.76-3.82,9.44-8.07,11-12.63a3.4,3.4,0,0,0-2.26-4.29A3.51,3.51,0,0,0,290.85,137.71Z"/><path class="cls-15" d="M291.38,280.45v2.39a3.5,3.5,0,0,0,7,0v-14.6a3.39,3.39,0,0,0-2.32-3.19,3.52,3.52,0,0,0-2.18-.77,3.45,3.45,0,0,0-3.5,3.41v.12c0,3.16-2,6.37-5.85,9.54a3.34,3.34,0,0,0-.43,4.8,3.53,3.53,0,0,0,2.68,1.22,3.6,3.6,0,0,0,2.25-.8C289.88,281.87,290.66,281.17,291.38,280.45Z"/><path class="cls-16" d="M215.21,301a3.41,3.41,0,1,0-.06-6.82h-1.51c-4.47,0-8.9-.13-13.22-.41a3.4,3.4,0,1,0-.46,6.79c4.47.29,9.09.47,13.68.43Z"/><path class="cls-17" d="M248.51,294.6a3.48,3.48,0,0,0-4-2.81c-4.7.75-9.61,1.34-14.61,1.73a3.4,3.4,0,0,0,.28,6.8h.29c5.19-.41,10.29-1,15.18-1.8A3.4,3.4,0,0,0,248.51,294.6Z"/><path class="cls-18" d="M167.21,291.74a3.39,3.39,0,0,0,2.48,4.17,142,142,0,0,0,15.06,3,4.91,4.91,0,0,0,.53,0,3.48,3.48,0,0,0,3.46-2.89,3.43,3.43,0,0,0-2.93-3.89,136,136,0,0,1-14.31-2.88A3.53,3.53,0,0,0,167.21,291.74Z"/><path class="cls-19" d="M272.51,284.23a101.71,101.71,0,0,1-13.7,4.57,3.4,3.4,0,0,0-2.46,4.18,3.48,3.48,0,0,0,3.37,2.52,3.69,3.69,0,0,0,.92-.12,108.87,108.87,0,0,0,14.66-4.91,3.37,3.37,0,0,0,1.81-4.48A3.53,3.53,0,0,0,272.51,284.23Z"/><path class="cls-20" d="M294.88,198.67a3.46,3.46,0,0,0,3.5-3.41v-14.6a3.5,3.5,0,0,0-7,0v14.6A3.46,3.46,0,0,0,294.88,198.67Z"/><path class="cls-21" d="M175.4,390.3c4.79,1,9.87,1.84,15.12,2.45l.43,0a3.48,3.48,0,0,0,3.47-3,3.43,3.43,0,0,0-3.06-3.79c-5-.59-9.9-1.38-14.47-2.35a3.5,3.5,0,0,0-4.16,2.61A3.4,3.4,0,0,0,175.4,390.3Z"/><path class="cls-22" d="M235.86,393l.38,0c5.21-.55,10.31-1.31,15.13-2.24a3.41,3.41,0,0,0,2.75-4,3.5,3.5,0,0,0-4.12-2.67c-4.62.89-9.5,1.62-14.52,2.15a3.42,3.42,0,0,0-3.1,3.75A3.47,3.47,0,0,0,235.86,393Z"/><path class="cls-23" d="M277.41,375.19a83.4,83.4,0,0,1-13.27,5.35,3.38,3.38,0,0,0-2.26,4.28,3.5,3.5,0,0,0,3.33,2.36,3.67,3.67,0,0,0,1.08-.16,90,90,0,0,0,14.41-5.82,3.35,3.35,0,0,0,1.44-4.6A3.55,3.55,0,0,0,277.41,375.19Z"/><path class="cls-20" d="M294.88,323.22a3.45,3.45,0,0,0-3.5,3.4v14.6a3.5,3.5,0,0,0,7,0v-14.6A3.45,3.45,0,0,0,294.88,323.22Z"/><path class="cls-20" d="M294.88,148.07a3.45,3.45,0,0,0-3.5,3.4v14.6a3.5,3.5,0,0,0,7,0v-14.6A3.45,3.45,0,0,0,294.88,148.07Z"/><path class="cls-24" d="M298.38,360.82v-5a3.5,3.5,0,0,0-7,0v4.84a12.21,12.21,0,0,1-3.16,6.56,3.34,3.34,0,0,0,.45,4.8,3.55,3.55,0,0,0,4.92-.44,18.65,18.65,0,0,0,4.78-10.47C298.38,361,298.38,360.91,298.38,360.82Z"/><path class="cls-25" d="M137.71,194.43a3.45,3.45,0,0,0,3.5-3.4v-14.6a3.5,3.5,0,0,0-7,0V191A3.45,3.45,0,0,0,137.71,194.43Z"/><path class="cls-26" d="M137.71,282a3.53,3.53,0,0,0,2.76-1.33,3.33,3.33,0,0,0,1,1.73,48,48,0,0,0,13.55,8.5,3.53,3.53,0,0,0,4.63-1.69,3.36,3.36,0,0,0-1.74-4.51,41.28,41.28,0,0,1-11.57-7.19,3.57,3.57,0,0,0-4.95.07c-.06.06-.1.13-.16.2V264a3.5,3.5,0,0,0-7,0V278.6A3.46,3.46,0,0,0,137.71,282Z"/><path class="cls-25" d="M137.71,319a3.45,3.45,0,0,0-3.5,3.4V337a3.5,3.5,0,0,0,7,0v-14.6A3.45,3.45,0,0,0,137.71,319Z"/><path class="cls-20" d="M291.38,253.64a3.5,3.5,0,0,0,7,0V239.05a3.5,3.5,0,0,0-7,0Z"/><path class="cls-27" d="M161.71,386.42a3.5,3.5,0,0,0,3.3-2.26,3.38,3.38,0,0,0-2.12-4.35,63.17,63.17,0,0,1-12.78-5.93,3.57,3.57,0,0,0-4.84,1,3.37,3.37,0,0,0,1,4.72,69.85,69.85,0,0,0,14.24,6.62A3.39,3.39,0,0,0,161.71,386.42Z"/><path class="cls-28" d="M141.21,362.42V351.58a3.5,3.5,0,0,0-7,0v10.88a15,15,0,0,0,.85,4.74,3.53,3.53,0,0,0,4.45,2.11,3.38,3.38,0,0,0,2.17-4.33A8.12,8.12,0,0,1,141.21,362.42Z"/><path class="cls-25" d="M137.71,252.82a3.46,3.46,0,0,0,3.5-3.41V234.82a3.5,3.5,0,0,0-7,0v14.59A3.46,3.46,0,0,0,137.71,252.82Z"/><path class="cls-20" d="M291.38,224.45a3.5,3.5,0,0,0,7,0V209.86a3.5,3.5,0,0,0-7,0Z"/><path class="cls-25" d="M137.71,165.24a3.45,3.45,0,0,0,3.5-3.4v-14.6a3.5,3.5,0,0,0-7,0v14.6A3.45,3.45,0,0,0,137.71,165.24Z"/><path class="cls-25" d="M137.71,223.63a3.46,3.46,0,0,0,3.5-3.41v-14.6a3.5,3.5,0,0,0-7,0v14.6A3.46,3.46,0,0,0,137.71,223.63Z"/><path class="cls-29" d="M224.39,390.5a3.46,3.46,0,0,0-3.6-3.3c-1.4,0-2.8.07-4.22.09-.75,0-1.53,0-2.24,0-2.75,0-5.54-.06-8.29-.17a3.41,3.41,0,1,0-.29,6.81c2.84.11,5.73.17,8.58.17h2.32q2.19,0,4.35-.09A3.45,3.45,0,0,0,224.39,390.5Z"/><path class="cls-30" d="M134.59,382.7l-8.11-2.46c-.42-1.68-.8-3.38-1.14-5.08a3.49,3.49,0,0,0-4.1-2.69,3.4,3.4,0,0,0-2.77,4c.41,2,.88,4.09,1.4,6.11l-4.3,9a3.37,3.37,0,0,0,1.7,4.52,3.53,3.53,0,0,0,4.65-1.65l1.28-2.66,1.49,3.91a3.49,3.49,0,0,0,3.28,2.22,3.67,3.67,0,0,0,1.21-.21,3.38,3.38,0,0,0,2.07-4.38l-1.93-5.06,3.19,1a3.37,3.37,0,0,0,1,.16,3.5,3.5,0,0,0,3.34-2.39A3.4,3.4,0,0,0,134.59,382.7Z"/><path class="cls-31" d="M119.91,363.51h.19a3.46,3.46,0,0,0,3.31-3.59c-.11-2-.17-4-.17-6.05,0-3.08.13-6.21.39-9.31a3.5,3.5,0,0,0-7-.55c-.28,3.28-.42,6.59-.42,9.86,0,2.14.06,4.3.18,6.42A3.46,3.46,0,0,0,119.91,363.51Z"/><path class="cls-32" d="M121.8,332a3.78,3.78,0,0,0,.74.07,3.47,3.47,0,0,0,3.42-2.68,119.24,119.24,0,0,1,4.32-14.81,3.37,3.37,0,0,0-2.13-4.34,3.53,3.53,0,0,0-4.47,2.07,127,127,0,0,0-4.56,15.64A3.41,3.41,0,0,0,121.8,332Z"/><path class="cls-33" d="M131.8,301.9a3.52,3.52,0,0,0,1.6.38,3.66,3.66,0,0,0,.81-.1v5.62a3.5,3.5,0,0,0,7,0V293.2a3.3,3.3,0,0,0-1.17-2.52,3.24,3.24,0,0,0-1-1,3.55,3.55,0,0,0-4.85.93,70.15,70.15,0,0,0-3.92,6.68A3.35,3.35,0,0,0,131.8,301.9Z"/><path class="cls-34" d="M303.16,318.39a99.87,99.87,0,0,1,4,13.71,3.47,3.47,0,0,0,3.42,2.71,3.51,3.51,0,0,0,.72-.07,3.42,3.42,0,0,0,2.71-4,106,106,0,0,0-4.27-14.64,3.53,3.53,0,0,0-4.48-2A3.38,3.38,0,0,0,303.16,318.39Z"/><path class="cls-35" d="M309.15,346.23c.16,2.34.25,4.73.25,7.1s-.09,4.78-.25,7.17a3.44,3.44,0,0,0,3.26,3.63h.24a3.46,3.46,0,0,0,3.48-3.18c.18-2.55.27-5.12.27-7.63s-.09-5.06-.26-7.56a3.49,3.49,0,0,0-3.73-3.17A3.44,3.44,0,0,0,309.15,346.23Z"/><path class="cls-36" d="M296,294.22a3.53,3.53,0,0,0-1.13-.19,3.45,3.45,0,0,0-3.5,3.4V312a3.5,3.5,0,0,0,7,0v-5.35a3.58,3.58,0,0,0,1.86.52,3.49,3.49,0,0,0,1.68-.42,3.36,3.36,0,0,0,1.38-4.63,62,62,0,0,0-4.24-6.6A3.56,3.56,0,0,0,296,294.22Z"/><path class="cls-37" d="M316.11,389.27l-3.43-7.17c.52-2,1-4.08,1.41-6.1a3.41,3.41,0,0,0-2.76-4,3.51,3.51,0,0,0-4.11,2.68q-.51,2.54-1.15,5.09l-8.24,2.5a3.39,3.39,0,0,0-2.3,4.27,3.48,3.48,0,0,0,3.34,2.39,3.79,3.79,0,0,0,1-.15l3.32-1-1.93,5.06a3.38,3.38,0,0,0,2.07,4.38,3.67,3.67,0,0,0,1.21.21,3.5,3.5,0,0,0,3.28-2.22l1.49-3.91.41.85a3.54,3.54,0,0,0,4.65,1.65A3.37,3.37,0,0,0,316.11,389.27Z"/><path class="cls-38" d="M238.84,401.43a3.49,3.49,0,0,0-4-2.9c-4.75.65-9.65,1.08-14.6,1.27a3.41,3.41,0,1,0,.24,6.81h.05c5.17-.21,10.31-.65,15.28-1.33A3.42,3.42,0,0,0,238.84,401.43Z"/><path class="cls-39" d="M262.87,391.26a93.59,93.59,0,0,1-13.67,4.53,3.39,3.39,0,0,0-2.5,4.15,3.48,3.48,0,0,0,3.48,2.55,3.66,3.66,0,0,0,.79-.11,100.23,100.23,0,0,0,14.71-4.88,3.37,3.37,0,0,0,1.8-4.49A3.55,3.55,0,0,0,262.87,391.26Z"/><path class="cls-40" d="M177.11,394.72a50.65,50.65,0,0,1-12.59-5.88,3.58,3.58,0,0,0-4.88.85,3.36,3.36,0,0,0,.87,4.74,57.83,57.83,0,0,0,14.36,6.74,3.63,3.63,0,0,0,1.21.18A3.48,3.48,0,0,0,179.3,399,3.38,3.38,0,0,0,177.11,394.72Z"/><path class="cls-41" d="M189.94,404.81a140.67,140.67,0,0,0,15.3,1.68h.3a3.4,3.4,0,0,0,.1-6.8,134.17,134.17,0,0,1-14.51-1.59,3.49,3.49,0,0,0-4,2.78A3.41,3.41,0,0,0,189.94,404.81Z"/><path class="cls-42" d="M233.39,412.25a3.5,3.5,0,0,0-7,0v7.3a3.5,3.5,0,0,0,7,0Z"/><path class="cls-42" d="M229.89,433.29a3.45,3.45,0,0,0-3.5,3.4v17.15a3.5,3.5,0,0,0,7,0V436.69A3.45,3.45,0,0,0,229.89,433.29Z"/><path class="cls-43" d="M247.43,483l-6.71-3.27a3.57,3.57,0,0,0-1.41-.35,3.58,3.58,0,0,0-1.14-.89l-4.78-2.32V471a3.5,3.5,0,0,0-7,0v7.3a3.4,3.4,0,0,0,1.94,3L235,484.6a3.53,3.53,0,0,0,1.41.35,3.38,3.38,0,0,0,1.14.89l6.71,3.27a3.63,3.63,0,0,0,1.56.36,3.53,3.53,0,0,0,3.14-1.88A3.37,3.37,0,0,0,247.43,483Z"/><circle class="cls-44" cx="188.58" cy="217.08" r="8.12"/><circle class="cls-44" cx="244.27" cy="217.08" r="8.12"/><path class="cls-45" d="M164.23,200.86a3.94,3.94,0,0,1-3.69-5.27c3.38-9.28,14.51-18.57,29.33-18.57h.48a3.93,3.93,0,1,1-.11,7.86c-12.64-.16-20.4,8.12-22.31,13.39A3.94,3.94,0,0,1,164.23,200.86Z"/><path class="cls-45" d="M268.09,200.86a3.93,3.93,0,0,1-3.69-2.59c-1.9-5.21-9.51-13.4-21.93-13.4H242A3.93,3.93,0,0,1,242,177h.49c14.82,0,26,9.29,29.32,18.57a3.94,3.94,0,0,1-3.69,5.27Z"/><path class="cls-44" d="M255.88,253.3a4,4,0,0,0-5.67-.82,54.08,54.08,0,0,1-65.05,0,4,4,0,0,0-5.68.82,4.07,4.07,0,0,0,.82,5.68,63.18,63.18,0,0,0,37.39,12.49c.72,0,1.45,0,2.19,0A63.05,63.05,0,0,0,255.07,259a4,4,0,0,0,.81-5.67Z"/><path class="cls-46" d="M217.73,322.73a5.84,5.84,0,0,0-3.14-.69,2,2,0,0,1-.59-2.71l1.49-2.32a2,2,0,0,1,3.57.64l.6,2.69a2,2,0,0,1-1.5,2.34A2.1,2.1,0,0,1,217.73,322.73Z"/><path class="cls-46" d="M204.42,339.84a2,2,0,0,1-1.65-3l2.81-4.37a2,2,0,0,1,3.31,2.13l-2.81,4.37A2,2,0,0,1,204.42,339.84ZM210,331.1a2,2,0,0,1-1.65-3l2.8-4.37a2,2,0,0,1,3.31,2.12l-2.8,4.38A2,2,0,0,1,210,331.1Z"/><path class="cls-46" d="M202.45,348a2,2,0,0,1-1.06-.31l-2.32-1.48a2,2,0,0,1-.86-1.24,1.93,1.93,0,0,1,.27-1.48l1.48-2.31a2,2,0,1,1,3.31,2.12l-.42.66.66.42a2,2,0,0,1-1.06,3.62Z"/><path class="cls-46" d="M212.21,353a2,2,0,0,1-1.24-.44,2,2,0,0,1-2-.06l-2.32-1.48a2,2,0,0,1,2.12-3.32l.66.43.54-.84a2,2,0,0,1,3.58.63l.59,2.69a2,2,0,0,1-1.5,2.34A1.51,1.51,0,0,1,212.21,353Z"/><path class="cls-46" d="M215,365.72a2,2,0,0,1-1.92-1.54l-1.39-6.34a2,2,0,1,1,3.84-.85l1.39,6.34a2,2,0,0,1-1.49,2.35A2.15,2.15,0,0,1,215,365.72Z"/><path class="cls-46" d="M217,374.75l-.33,0a2,2,0,0,1-1.59-1.51l-.59-2.69a2.88,2.88,0,1,1,5.64,1l-1.46,2.33A2,2,0,0,1,217,374.75Z"/><path class="cls-46" d="M221.22,368a1.87,1.87,0,0,1-1-.3,2,2,0,0,1-.62-2.71l2.76-4.39a2,2,0,0,1,3.33,2.09l-2.76,4.39A2,2,0,0,1,221.22,368Zm5.53-8.79a2,2,0,0,1-1.05-.3,2,2,0,0,1-.62-2.71l2.77-4.4a2,2,0,0,1,3.33,2.1l-2.77,4.39A1.94,1.94,0,0,1,226.75,359.23Z"/><path class="cls-46" d="M232.27,350.44a2,2,0,0,1-1-.3,2,2,0,0,1-.62-2.71l.43-.68-.68-.43a2,2,0,0,1,2.12-3.32l2.32,1.49a2,2,0,0,1,.61,2.7l-1.47,2.33A2,2,0,0,1,232.27,350.44Z"/><path class="cls-46" d="M222.53,344.49l-.34,0a2,2,0,0,1-1.58-1.51l-.59-2.69a2,2,0,0,1,3.14-2,2,2,0,0,1,.55-.21,2,2,0,0,1,1.48.26l2.32,1.49a2,2,0,1,1-2.12,3.31l-.65-.42-.55.86A2,2,0,0,1,222.53,344.49Z"/><path class="cls-46" d="M220.54,335.45a2,2,0,0,1-1.92-1.55l-1.4-6.36a2,2,0,0,1,1.49-2.34,2,2,0,0,1,2.35,1.5l1.4,6.36a2,2,0,0,1-1.5,2.34A2,2,0,0,1,220.54,335.45Z"/></svg>