<svg id="Layer_1" data-name="Layer 1" xmlns="http://www.w3.org/2000/svg" xmlns:xlink="http://www.w3.org/1999/xlink" viewBox="0 0 432 576"><defs><style>.cls-1,.cls-10{fill:none;stroke-linecap:round;stroke-linejoin:round;stroke-width:8px;}.cls-1{stroke:#000;}.cls-2{fill:#e8003d;stroke:#e8003d;}.cls-12,.cls-2{stroke-miterlimit:10;}.cls-3{fill:#2d313f;}.cls-4{fill:#feaf06;}.cls-12,.cls-5{fill:#fbd82b;}.cls-6{fill:#ffe278;}.cls-7{fill:url(#radial-gradient);}.cls-8{fill:#fff;}.cls-9{fill:#b57817;}.cls-10{stroke:#701d1d;}.cls-11{fill:#701d1d;}.cls-12{stroke:#fbd82b;}</style><radialGradient id="radial-gradient" cx="217.07" cy="166.98" r="39.38" gradientTransform="translate(-92.96 384.05) rotate(-90) scale(1 1.86)" gradientUnits="userSpaceOnUse"><stop offset="0" stop-color="#ff8c1f"/><stop offset="1" stop-color="#feaf06"/></radialGradient></defs><polyline class="cls-1" points="236.33 398.85 236.33 477.95 252.31 485.93"/><polyline class="cls-1" points="211.51 398.81 211.51 477.9 195.54 485.89"/><rect class="cls-2" x="130.75" y="251.11" width="173.96" height="33.68" rx="12" transform="translate(-2.8 2.3) rotate(-0.6)"/><ellipse class="cls-3" cx="220.43" cy="374.93" rx="63.04" ry="27.19" transform="translate(-3.93 2.34) rotate(-0.6)"/><ellipse class="cls-4" cx="217.31" cy="139.89" rx="75.26" ry="29.88" transform="translate(-1.46 2.29) rotate(-0.6)"/><path class="cls-5" d="M142.06,140.68c.17,16.51,34,29.53,75.57,29.09s75.11-14.17,74.94-30.67c0,0,2.71,216.61,2.32,221.29-1.37,16.45-33.38,30.23-74.94,30.67S144.56,378.47,144.38,362Z"/><path class="cls-6" d="M157.22,359.67l-1.75-166.75-.37-35.68a64,64,0,0,0,8,3.8l.15,15,2,190,.17,16.32a66.19,66.19,0,0,1-8-3.8Z"/><path class="cls-6" d="M191.85,345.09l-1.78-170-.08-7.13c-2.72-.4-5.37-.86-7.92-1.38l.06,6.39,1.81,171.8.45,43.1q3.84.78,7.92,1.37Z"/><path class="cls-6" d="M226.89,386.83l-2.2-209.92-.08-7.21c-2.29.11-4.62.17-7,.2h-.92l.07,7.08L219,386.91l0,4.28H220q3.54,0,7-.21Z"/><polygon class="cls-6" points="247.92 388.61 245.6 167.37 253.49 165.8 255.82 387.01 247.92 388.61"/><path class="cls-6" d="M283.33,361.75l-1.95-185.28-.22-21.23a83.31,83.31,0,0,1-7.87,4.13l.18,17.18,1.95,185.28.19,18.52c2.37-1.16,6.31-3.36,7.87-4.37Z"/><path class="cls-7" d="M162.7,160.75c27.28,12.21,81.67,11.81,108.73-.49-1.8-37.4-105.4-36-108.73.49"/><path class="cls-2" d="M140.55,306.86l.57,55c.18,16.51,35.5,29.51,78.9,29.06s76.83-14.26,78.27-30.71c.14-1.53-.06-25.89-.4-57.93l-.6-37.77c.17,16.5-34.87,30.25-78.27,30.7s-78.73-12.55-78.9-29.05Z"/><path class="cls-8" d="M223.12,307.41l-21.63,33.68,12.58,8,2-3.18,6.83,31,21.29-33.87L232,335.29l-2,3.21Zm10.22,33.46,5.36,3.54-14,22-6.85-31.09-5.22,8.16-5.28-3.37,14.07-22,6.79,30.82Z"/><path class="cls-1" d="M145.14,391.44l-12.52-3.9c-13.62-52.45,12.72-87.2,12.72-87.2"/><polyline class="cls-1" points="126.03 401.69 132.62 387.54 137.02 399.42"/><path class="cls-1" d="M292.9,388.45l12.53-3.9c13.62-52.44-12.72-87.19-12.72-87.19"/><polyline class="cls-1" points="312.02 398.7 305.43 384.55 301.02 396.43"/><path class="cls-9" d="M168.2,184.32a3.75,3.75,0,0,1,1-.72c14.16-6.73,28.74-6.72,39,0a3.69,3.69,0,0,1-4.05,6.16c-8.08-5.32-20-5.15-31.77.47a3.69,3.69,0,0,1-4.19-5.94Z"/><path class="cls-9" d="M228.89,184a3.75,3.75,0,0,1,1-.72c14.16-6.73,28.73-6.72,39,0a3.69,3.69,0,0,1-4,6.16c-8.09-5.33-20-5.15-31.78.46a3.68,3.68,0,0,1-4.18-5.93Z"/><path class="cls-10" d="M230.94,262.84s-11.82-2.15-21.07,3.57"/><circle class="cls-8" cx="249.58" cy="216.62" r="21.1"/><path class="cls-11" d="M257.37,198.35l-5.59-.12-3.85,1.21-1.24.68a8.76,8.76,0,0,0,9,8.45,8.89,8.89,0,0,0,8.57-6.38Z"/><path class="cls-12" d="M264.49,201.7h0a21.1,21.1,0,0,0-33.5,4.92h0S242.88,196.67,264.49,201.7Z"/><circle class="cls-8" cx="189.6" cy="216.62" r="21.1"/><path class="cls-11" d="M197.39,198.35l-5.59-.12L188,199.44l-1.24.68a8.76,8.76,0,0,0,9,8.45,8.89,8.89,0,0,0,8.57-6.38Z"/><path class="cls-12" d="M204.51,201.7h0a21.1,21.1,0,0,0-33.5,4.92h0S182.9,196.67,204.51,201.7Z"/></svg>