<?xml version="1.0" encoding="utf-8"?>
<!-- Generator: Adobe Illustrator 27.9.0, SVG Export Plug-In . SVG Version: 6.00 Build 0)  -->
<svg version="1.1" id="Layer_1" xmlns="http://www.w3.org/2000/svg" xmlns:xlink="http://www.w3.org/1999/xlink" x="0px" y="0px"
	 viewBox="0 0 432 576" style="enable-background:new 0 0 432 576;" xml:space="preserve">
<style type="text/css">
	.st0{opacity:5.000000e-02;}
	.st1{fill:#040D21;}
	.st2{fill:none;stroke:#000000;stroke-width:8;stroke-linecap:round;stroke-linejoin:round;stroke-miterlimit:10;}
	.st3{fill:#007AFF;}
	.st4{fill:#2D313F;}
	.st5{fill:#FEAF06;}
	.st6{fill:#FBD82B;}
	.st7{fill:#FFE278;}
	.st8{fill:#F70000;}
	.st9{fill:#B57817;}
	.st10{fill:#701D1D;}
	.st11{fill:#FFFFFF;}
	.st12{opacity:0.2;fill:url(#SVGID_1_);}
	.st13{opacity:0.2;fill:url(#SVGID_00000164480552869329067340000000249808833668257152_);}
	.st14{fill:#0062B2;}
	.st15{opacity:0.6;fill:#FFFFFF;}
	.st16{opacity:0.7;fill:#FFFFFF;}
	.st17{fill:#F2F2F2;}
	.st18{fill:#C9C9C9;}
	.st19{fill:#677077;}
	.st20{fill:#B8B8B8;}
	.st21{fill:#858D92;}
	.st22{fill:#CCCCCC;}
	.st23{fill:#EDEDED;}
	.st24{fill:#D9D9D9;}
	.st25{fill:#BEBEBE;}
	.st26{fill:#B4B4B4;}
	.st27{fill:url(#SVGID_00000143609925372125763660000002964162590125235115_);}
</style>
<g>
	<g class="st0">
		<g>
			<g id="XMLID_00000091716378106766743680000013567804719625772950_">
				<g id="XMLID_00000152956475218250321610000005173234543034007448_">
					<path id="XMLID_00000156564379794263335550000008019453710368300445_" class="st1" d="M221.8,219.2V235h2.9
						c0.7,0,1.2,0.1,1.5,0.4c0.3,0.3,0.4,0.6,0.4,1c0,0.4-0.1,0.8-0.4,1c-0.3,0.3-0.8,0.4-1.5,0.4H216c-0.7,0-1.2-0.1-1.5-0.4
						c-0.3-0.3-0.4-0.6-0.4-1c0-0.4,0.1-0.8,0.4-1c0.3-0.3,0.8-0.4,1.5-0.4h2.9v-12l-2.6,0.7c-0.4,0.1-0.7,0.2-0.9,0.2
						c-0.4,0-0.7-0.1-0.9-0.4c-0.3-0.3-0.4-0.6-0.4-1.1c0-0.4,0.1-0.7,0.3-0.9c0.2-0.2,0.6-0.4,1.2-0.6L221.8,219.2z"/>
					<path id="XMLID_00000163776166826757064970000015961247828981878915_" class="st1" d="M243.8,227.2v3.2c0,1.9-0.5,3.7-1.6,5.4
						c-1.1,1.7-2.6,2.6-4.6,2.6c-1.2,0-2.1-0.3-2.9-0.8c-0.8-0.5-1.6-1.5-2.3-2.8c-0.7-1.4-1.1-2.8-1.1-4.4v-3.2
						c0-1.9,0.5-3.7,1.6-5.4c1.1-1.7,2.6-2.6,4.6-2.6c1.2,0,2.1,0.3,2.9,0.8c0.8,0.5,1.6,1.4,2.3,2.8
						C243.5,224.2,243.8,225.6,243.8,227.2z M240.9,227.2c0-1.6-0.4-2.9-1.3-4.1c-0.5-0.6-1.2-1-2.1-1c-0.9,0-1.6,0.4-2.1,1.1
						c-0.8,1.1-1.3,2.4-1.3,4v3.2c0,1.6,0.4,2.9,1.3,4.1c0.5,0.6,1.2,1,2.1,1c0.9,0,1.6-0.4,2.1-1.1c0.8-1.1,1.3-2.4,1.3-4V227.2z"
						/>
					<path id="XMLID_00000170971134431930621030000000942336860358489246_" class="st1" d="M256.3,219.2V235h2.9
						c0.7,0,1.2,0.1,1.5,0.4c0.3,0.3,0.4,0.6,0.4,1c0,0.4-0.1,0.8-0.4,1c-0.3,0.3-0.8,0.4-1.5,0.4h-8.7c-0.7,0-1.2-0.1-1.5-0.4
						c-0.3-0.3-0.4-0.6-0.4-1c0-0.4,0.1-0.8,0.4-1c0.3-0.3,0.8-0.4,1.5-0.4h2.9v-12l-2.6,0.7c-0.4,0.1-0.7,0.2-0.9,0.2
						c-0.4,0-0.7-0.1-0.9-0.4c-0.3-0.3-0.4-0.6-0.4-1.1c0-0.4,0.1-0.7,0.3-0.9c0.2-0.2,0.6-0.4,1.2-0.6L256.3,219.2z"/>
					<path id="XMLID_00000139259392757543502710000017769164661020163259_" class="st1" d="M278.4,227.2v3.2c0,1.9-0.5,3.7-1.6,5.4
						c-1.1,1.7-2.6,2.6-4.6,2.6c-1.2,0-2.1-0.3-2.9-0.8c-0.8-0.5-1.6-1.5-2.3-2.8c-0.7-1.4-1.1-2.8-1.1-4.4v-3.2
						c0-1.9,0.5-3.7,1.6-5.4c1.1-1.7,2.6-2.6,4.6-2.6c1.2,0,2.1,0.3,2.9,0.8c0.8,0.5,1.6,1.4,2.3,2.8
						C278,224.2,278.4,225.6,278.4,227.2z M275.5,227.2c0-1.6-0.4-2.9-1.3-4.1c-0.5-0.6-1.2-1-2.1-1c-0.9,0-1.6,0.4-2.1,1.1
						c-0.8,1.1-1.3,2.4-1.3,4v3.2c0,1.6,0.4,2.9,1.3,4.1c0.5,0.6,1.2,1,2.1,1c0.9,0,1.6-0.4,2.1-1.1c0.8-1.1,1.3-2.4,1.3-4V227.2z"
						/>
				</g>
				<g id="XMLID_00000102519519757336426010000000131337134648841123_">
					<path id="XMLID_00000000913639445079712070000001370360322543050647_" class="st1" d="M226.6,277.6v3.2c0,1.9-0.5,3.7-1.6,5.4
						c-1.1,1.7-2.6,2.6-4.6,2.6c-1.2,0-2.1-0.3-2.9-0.8c-0.8-0.5-1.6-1.5-2.3-2.8c-0.7-1.4-1.1-2.8-1.1-4.4v-3.2
						c0-1.9,0.5-3.7,1.6-5.4c1.1-1.7,2.6-2.6,4.6-2.6c1.2,0,2.1,0.3,2.9,0.8c0.8,0.5,1.6,1.4,2.3,2.8
						C226.2,274.6,226.6,276,226.6,277.6z M223.7,277.6c0-1.6-0.4-2.9-1.3-4.1c-0.5-0.6-1.2-1-2.1-1c-0.9,0-1.6,0.4-2.1,1.1
						c-0.8,1.1-1.3,2.4-1.3,4v3.2c0,1.6,0.4,2.9,1.3,4.1c0.5,0.6,1.2,1,2.1,1c0.9,0,1.6-0.4,2.1-1.1c0.8-1.1,1.3-2.4,1.3-4V277.6z"
						/>
					<path id="XMLID_00000071545515305290900430000013127339973451698103_" class="st1" d="M239,269.6v15.8h2.9
						c0.7,0,1.2,0.1,1.5,0.4c0.3,0.3,0.4,0.6,0.4,1c0,0.4-0.1,0.8-0.4,1c-0.3,0.3-0.8,0.4-1.5,0.4h-8.7c-0.7,0-1.2-0.1-1.5-0.4
						c-0.3-0.3-0.4-0.6-0.4-1c0-0.4,0.1-0.8,0.4-1c0.3-0.3,0.8-0.4,1.5-0.4h2.9v-12l-2.6,0.7c-0.4,0.1-0.7,0.2-0.9,0.2
						c-0.4,0-0.7-0.1-0.9-0.4c-0.3-0.3-0.4-0.6-0.4-1.1c0-0.4,0.1-0.7,0.3-0.9c0.2-0.2,0.6-0.4,1.2-0.6L239,269.6z"/>
					<path id="XMLID_00000011014332410499075060000007720283956080500410_" class="st1" d="M256.3,269.6v15.8h2.9
						c0.7,0,1.2,0.1,1.5,0.4c0.3,0.3,0.4,0.6,0.4,1c0,0.4-0.1,0.8-0.4,1c-0.3,0.3-0.8,0.4-1.5,0.4h-8.7c-0.7,0-1.2-0.1-1.5-0.4
						c-0.3-0.3-0.4-0.6-0.4-1c0-0.4,0.1-0.8,0.4-1c0.3-0.3,0.8-0.4,1.5-0.4h2.9v-12l-2.6,0.7c-0.4,0.1-0.7,0.2-0.9,0.2
						c-0.4,0-0.7-0.1-0.9-0.4c-0.3-0.3-0.4-0.6-0.4-1.1c0-0.4,0.1-0.7,0.3-0.9c0.2-0.2,0.6-0.4,1.2-0.6L256.3,269.6z"/>
					<path id="XMLID_00000168830971562522984110000016290574473207230135_" class="st1" d="M278.4,277.6v3.2c0,1.9-0.5,3.7-1.6,5.4
						c-1.1,1.7-2.6,2.6-4.6,2.6c-1.2,0-2.1-0.3-2.9-0.8c-0.8-0.5-1.6-1.5-2.3-2.8c-0.7-1.4-1.1-2.8-1.1-4.4v-3.2
						c0-1.9,0.5-3.7,1.6-5.4c1.1-1.7,2.6-2.6,4.6-2.6c1.2,0,2.1,0.3,2.9,0.8c0.8,0.5,1.6,1.4,2.3,2.8
						C278,274.6,278.4,276,278.4,277.6z M275.5,277.6c0-1.6-0.4-2.9-1.3-4.1c-0.5-0.6-1.2-1-2.1-1c-0.9,0-1.6,0.4-2.1,1.1
						c-0.8,1.1-1.3,2.4-1.3,4v3.2c0,1.6,0.4,2.9,1.3,4.1c0.5,0.6,1.2,1,2.1,1c0.9,0,1.6-0.4,2.1-1.1c0.8-1.1,1.3-2.4,1.3-4V277.6z"
						/>
				</g>
				<g id="XMLID_00000036251680941229871240000000484259698684619690_">
					<path id="XMLID_00000182501418236816303070000004669688256602584487_" class="st1" d="M226.6,252.5v3.2c0,1.9-0.5,3.7-1.6,5.4
						c-1.1,1.7-2.6,2.6-4.6,2.6c-1.2,0-2.1-0.3-2.9-0.8c-0.8-0.5-1.6-1.5-2.3-2.8c-0.7-1.4-1.1-2.8-1.1-4.4v-3.2
						c0-1.9,0.5-3.7,1.6-5.4c1.1-1.7,2.6-2.6,4.6-2.6c1.2,0,2.1,0.3,2.9,0.8c0.8,0.5,1.6,1.4,2.3,2.8
						C226.2,249.5,226.6,251,226.6,252.5z M223.7,252.5c0-1.6-0.4-2.9-1.3-4.1c-0.5-0.6-1.2-1-2.1-1c-0.9,0-1.6,0.4-2.1,1.1
						c-0.8,1.1-1.3,2.4-1.3,4v3.2c0,1.6,0.4,2.9,1.3,4.1c0.5,0.6,1.2,1,2.1,1c0.9,0,1.6-0.4,2.1-1.1c0.8-1.1,1.3-2.4,1.3-4V252.5z"
						/>
					<path id="XMLID_00000119828855802970820670000016893651142550006202_" class="st1" d="M239,244.6v15.8h2.9
						c0.7,0,1.2,0.1,1.5,0.4c0.3,0.3,0.4,0.6,0.4,1c0,0.4-0.1,0.8-0.4,1c-0.3,0.3-0.8,0.4-1.5,0.4h-8.7c-0.7,0-1.2-0.1-1.5-0.4
						c-0.3-0.3-0.4-0.6-0.4-1c0-0.4,0.1-0.8,0.4-1c0.3-0.3,0.8-0.4,1.5-0.4h2.9v-12l-2.6,0.7c-0.4,0.1-0.7,0.2-0.9,0.2
						c-0.4,0-0.7-0.1-0.9-0.4c-0.3-0.3-0.4-0.6-0.4-1.1c0-0.4,0.1-0.7,0.3-0.9c0.2-0.2,0.6-0.4,1.2-0.6L239,244.6z"/>
					<path id="XMLID_00000140704914710766133790000002774820756292668310_" class="st1" d="M261.1,252.5v3.2c0,1.9-0.5,3.7-1.6,5.4
						c-1.1,1.7-2.6,2.6-4.6,2.6c-1.2,0-2.1-0.3-2.9-0.8c-0.8-0.5-1.6-1.5-2.3-2.8c-0.7-1.4-1.1-2.8-1.1-4.4v-3.2
						c0-1.9,0.5-3.7,1.6-5.4c1.1-1.7,2.6-2.6,4.6-2.6c1.2,0,2.1,0.3,2.9,0.8c0.8,0.5,1.6,1.4,2.3,2.8
						C260.7,249.5,261.1,251,261.1,252.5z M258.2,252.5c0-1.6-0.4-2.9-1.3-4.1c-0.5-0.6-1.2-1-2.1-1c-0.9,0-1.6,0.4-2.1,1.1
						c-0.8,1.1-1.3,2.4-1.3,4v3.2c0,1.6,0.4,2.9,1.3,4.1c0.5,0.6,1.2,1,2.1,1c0.9,0,1.6-0.4,2.1-1.1c0.8-1.1,1.3-2.4,1.3-4V252.5z"
						/>
					<path id="XMLID_00000104668532550203575250000009211338750597916602_" class="st1" d="M278.4,252.5v3.2c0,1.9-0.5,3.7-1.6,5.4
						c-1.1,1.7-2.6,2.6-4.6,2.6c-1.2,0-2.1-0.3-2.9-0.8c-0.8-0.5-1.6-1.5-2.3-2.8c-0.7-1.4-1.1-2.8-1.1-4.4v-3.2
						c0-1.9,0.5-3.7,1.6-5.4c1.1-1.7,2.6-2.6,4.6-2.6c1.2,0,2.1,0.3,2.9,0.8c0.8,0.5,1.6,1.4,2.3,2.8
						C278,249.5,278.4,251,278.4,252.5z M275.5,252.5c0-1.6-0.4-2.9-1.3-4.1c-0.5-0.6-1.2-1-2.1-1c-0.9,0-1.6,0.4-2.1,1.1
						c-0.8,1.1-1.3,2.4-1.3,4v3.2c0,1.6,0.4,2.9,1.3,4.1c0.5,0.6,1.2,1,2.1,1c0.9,0,1.6-0.4,2.1-1.1c0.8-1.1,1.3-2.4,1.3-4V252.5z"
						/>
				</g>
			</g>
			<g id="XMLID_00000113340778662638852040000008304439635203720834_">
				<g id="XMLID_00000132076544745661157690000008173858436497357469_">
					<path id="XMLID_00000152225996214899125700000010867758785510890155_" class="st1" d="M292.2,219.2V235h2.9
						c0.7,0,1.2,0.1,1.5,0.4c0.3,0.3,0.4,0.6,0.4,1c0,0.4-0.1,0.8-0.4,1c-0.3,0.3-0.8,0.4-1.5,0.4h-8.7c-0.7,0-1.2-0.1-1.5-0.4
						c-0.3-0.3-0.4-0.6-0.4-1c0-0.4,0.1-0.8,0.4-1c0.3-0.3,0.8-0.4,1.5-0.4h2.9v-12l-2.6,0.7c-0.4,0.1-0.7,0.2-0.9,0.2
						c-0.4,0-0.7-0.1-0.9-0.4c-0.3-0.3-0.4-0.6-0.4-1.1c0-0.4,0.1-0.7,0.3-0.9c0.2-0.2,0.6-0.4,1.2-0.6L292.2,219.2z"/>
					<path id="XMLID_00000032619859051599760330000005912279729459957134_" class="st1" d="M314.3,227.2v3.2c0,1.9-0.5,3.7-1.6,5.4
						c-1.1,1.7-2.6,2.6-4.6,2.6c-1.2,0-2.1-0.3-2.9-0.8c-0.8-0.5-1.6-1.5-2.3-2.8c-0.7-1.4-1.1-2.8-1.1-4.4v-3.2
						c0-1.9,0.5-3.7,1.6-5.4c1.1-1.7,2.6-2.6,4.6-2.6c1.2,0,2.1,0.3,2.9,0.8c0.8,0.5,1.6,1.4,2.3,2.8
						C313.9,224.2,314.3,225.6,314.3,227.2z M311.4,227.2c0-1.6-0.4-2.9-1.3-4.1c-0.5-0.6-1.2-1-2.1-1c-0.9,0-1.6,0.4-2.1,1.1
						c-0.8,1.1-1.3,2.4-1.3,4v3.2c0,1.6,0.4,2.9,1.3,4.1c0.5,0.6,1.2,1,2.1,1c0.9,0,1.6-0.4,2.1-1.1c0.8-1.1,1.3-2.4,1.3-4V227.2z"
						/>
					<path id="XMLID_00000069381873757154389470000004389710721654908034_" class="st1" d="M326.7,219.2V235h2.9
						c0.7,0,1.2,0.1,1.5,0.4c0.3,0.3,0.4,0.6,0.4,1c0,0.4-0.1,0.8-0.4,1c-0.3,0.3-0.8,0.4-1.5,0.4h-8.7c-0.7,0-1.2-0.1-1.5-0.4
						c-0.3-0.3-0.4-0.6-0.4-1c0-0.4,0.1-0.8,0.4-1c0.3-0.3,0.8-0.4,1.5-0.4h2.9v-12l-2.6,0.7c-0.4,0.1-0.7,0.2-0.9,0.2
						c-0.4,0-0.7-0.1-0.9-0.4c-0.3-0.3-0.4-0.6-0.4-1.1c0-0.4,0.1-0.7,0.3-0.9c0.2-0.2,0.6-0.4,1.2-0.6L326.7,219.2z"/>
					<path id="XMLID_00000150791861998186770710000003893160731269848249_" class="st1" d="M348.8,227.2v3.2c0,1.9-0.5,3.7-1.6,5.4
						c-1.1,1.7-2.6,2.6-4.6,2.6c-1.2,0-2.1-0.3-2.9-0.8c-0.8-0.5-1.6-1.5-2.3-2.8c-0.7-1.4-1.1-2.8-1.1-4.4v-3.2
						c0-1.9,0.5-3.7,1.6-5.4c1.1-1.7,2.6-2.6,4.6-2.6c1.2,0,2.1,0.3,2.9,0.8c0.8,0.5,1.6,1.4,2.3,2.8
						C348.4,224.2,348.8,225.6,348.8,227.2z M345.9,227.2c0-1.6-0.4-2.9-1.3-4.1c-0.5-0.6-1.2-1-2.1-1c-0.9,0-1.6,0.4-2.1,1.1
						c-0.8,1.1-1.3,2.4-1.3,4v3.2c0,1.6,0.4,2.9,1.3,4.1c0.5,0.6,1.2,1,2.1,1c0.9,0,1.6-0.4,2.1-1.1c0.8-1.1,1.3-2.4,1.3-4V227.2z"
						/>
				</g>
				<g id="XMLID_00000057105794094585264860000018267315841755605937_">
					<path id="XMLID_00000046337762928660431730000003270499451196183940_" class="st1" d="M297,277.6v3.2c0,1.9-0.5,3.7-1.6,5.4
						c-1.1,1.7-2.6,2.6-4.6,2.6c-1.2,0-2.1-0.3-2.9-0.8c-0.8-0.5-1.6-1.5-2.3-2.8c-0.7-1.4-1.1-2.8-1.1-4.4v-3.2
						c0-1.9,0.5-3.7,1.6-5.4c1.1-1.7,2.6-2.6,4.6-2.6c1.2,0,2.1,0.3,2.9,0.8c0.8,0.5,1.6,1.4,2.3,2.8C296.6,274.6,297,276,297,277.6
						z M294.1,277.6c0-1.6-0.4-2.9-1.3-4.1c-0.5-0.6-1.2-1-2.1-1c-0.9,0-1.6,0.4-2.1,1.1c-0.8,1.1-1.3,2.4-1.3,4v3.2
						c0,1.6,0.4,2.9,1.3,4.1c0.5,0.6,1.2,1,2.1,1c0.9,0,1.6-0.4,2.1-1.1c0.8-1.1,1.3-2.4,1.3-4V277.6z"/>
					<path id="XMLID_00000175321932359448638280000015267683176607429252_" class="st1" d="M309.4,269.6v15.8h2.9
						c0.7,0,1.2,0.1,1.5,0.4c0.3,0.3,0.4,0.6,0.4,1c0,0.4-0.1,0.8-0.4,1c-0.3,0.3-0.8,0.4-1.5,0.4h-8.7c-0.7,0-1.2-0.1-1.5-0.4
						c-0.3-0.3-0.4-0.6-0.4-1c0-0.4,0.1-0.8,0.4-1c0.3-0.3,0.8-0.4,1.5-0.4h2.9v-12l-2.6,0.7c-0.4,0.1-0.7,0.2-0.9,0.2
						c-0.4,0-0.7-0.1-0.9-0.4c-0.3-0.3-0.4-0.6-0.4-1.1c0-0.4,0.1-0.7,0.3-0.9c0.2-0.2,0.6-0.4,1.2-0.6L309.4,269.6z"/>
					<path id="XMLID_00000169556479731430422960000017788490437323192706_" class="st1" d="M326.7,269.6v15.8h2.9
						c0.7,0,1.2,0.1,1.5,0.4c0.3,0.3,0.4,0.6,0.4,1c0,0.4-0.1,0.8-0.4,1c-0.3,0.3-0.8,0.4-1.5,0.4h-8.7c-0.7,0-1.2-0.1-1.5-0.4
						c-0.3-0.3-0.4-0.6-0.4-1c0-0.4,0.1-0.8,0.4-1c0.3-0.3,0.8-0.4,1.5-0.4h2.9v-12l-2.6,0.7c-0.4,0.1-0.7,0.2-0.9,0.2
						c-0.4,0-0.7-0.1-0.9-0.4c-0.3-0.3-0.4-0.6-0.4-1.1c0-0.4,0.1-0.7,0.3-0.9c0.2-0.2,0.6-0.4,1.2-0.6L326.7,269.6z"/>
					<path id="XMLID_00000105420087118243265710000002145679976060487608_" class="st1" d="M348.8,277.6v3.2c0,1.9-0.5,3.7-1.6,5.4
						c-1.1,1.7-2.6,2.6-4.6,2.6c-1.2,0-2.1-0.3-2.9-0.8c-0.8-0.5-1.6-1.5-2.3-2.8c-0.7-1.4-1.1-2.8-1.1-4.4v-3.2
						c0-1.9,0.5-3.7,1.6-5.4c1.1-1.7,2.6-2.6,4.6-2.6c1.2,0,2.1,0.3,2.9,0.8c0.8,0.5,1.6,1.4,2.3,2.8
						C348.4,274.6,348.8,276,348.8,277.6z M345.9,277.6c0-1.6-0.4-2.9-1.3-4.1c-0.5-0.6-1.2-1-2.1-1c-0.9,0-1.6,0.4-2.1,1.1
						c-0.8,1.1-1.3,2.4-1.3,4v3.2c0,1.6,0.4,2.9,1.3,4.1c0.5,0.6,1.2,1,2.1,1c0.9,0,1.6-0.4,2.1-1.1c0.8-1.1,1.3-2.4,1.3-4V277.6z"
						/>
				</g>
				<g id="XMLID_00000130605098860868421290000008483984971405982871_">
					<path id="XMLID_00000052078345833505832300000010384230263913218729_" class="st1" d="M297,252.5v3.2c0,1.9-0.5,3.7-1.6,5.4
						c-1.1,1.7-2.6,2.6-4.6,2.6c-1.2,0-2.1-0.3-2.9-0.8c-0.8-0.5-1.6-1.5-2.3-2.8c-0.7-1.4-1.1-2.8-1.1-4.4v-3.2
						c0-1.9,0.5-3.7,1.6-5.4c1.1-1.7,2.6-2.6,4.6-2.6c1.2,0,2.1,0.3,2.9,0.8c0.8,0.5,1.6,1.4,2.3,2.8C296.6,249.5,297,251,297,252.5
						z M294.1,252.5c0-1.6-0.4-2.9-1.3-4.1c-0.5-0.6-1.2-1-2.1-1c-0.9,0-1.6,0.4-2.1,1.1c-0.8,1.1-1.3,2.4-1.3,4v3.2
						c0,1.6,0.4,2.9,1.3,4.1c0.5,0.6,1.2,1,2.1,1c0.9,0,1.6-0.4,2.1-1.1c0.8-1.1,1.3-2.4,1.3-4V252.5z"/>
					<path id="XMLID_00000181795145258462145790000015802178969020227261_" class="st1" d="M309.4,244.6v15.8h2.9
						c0.7,0,1.2,0.1,1.5,0.4c0.3,0.3,0.4,0.6,0.4,1c0,0.4-0.1,0.8-0.4,1c-0.3,0.3-0.8,0.4-1.5,0.4h-8.7c-0.7,0-1.2-0.1-1.5-0.4
						c-0.3-0.3-0.4-0.6-0.4-1c0-0.4,0.1-0.8,0.4-1c0.3-0.3,0.8-0.4,1.5-0.4h2.9v-12L304,249c-0.4,0.1-0.7,0.2-0.9,0.2
						c-0.4,0-0.7-0.1-0.9-0.4c-0.3-0.3-0.4-0.6-0.4-1.1c0-0.4,0.1-0.7,0.3-0.9c0.2-0.2,0.6-0.4,1.2-0.6L309.4,244.6z"/>
					<path id="XMLID_00000174574171307202781870000014585621167709289626_" class="st1" d="M331.5,252.5v3.2c0,1.9-0.5,3.7-1.6,5.4
						c-1.1,1.7-2.6,2.6-4.6,2.6c-1.2,0-2.1-0.3-2.9-0.8c-0.8-0.5-1.6-1.5-2.3-2.8c-0.7-1.4-1.1-2.8-1.1-4.4v-3.2
						c0-1.9,0.5-3.7,1.6-5.4c1.1-1.7,2.6-2.6,4.6-2.6c1.2,0,2.1,0.3,2.9,0.8c0.8,0.5,1.6,1.4,2.3,2.8
						C331.2,249.5,331.5,251,331.5,252.5z M328.6,252.5c0-1.6-0.4-2.9-1.3-4.1c-0.5-0.6-1.2-1-2.1-1c-0.9,0-1.6,0.4-2.1,1.1
						c-0.8,1.1-1.3,2.4-1.3,4v3.2c0,1.6,0.4,2.9,1.3,4.1c0.5,0.6,1.2,1,2.1,1c0.9,0,1.6-0.4,2.1-1.1c0.8-1.1,1.3-2.4,1.3-4V252.5z"
						/>
					<path id="XMLID_00000011720346308334870820000006077132108885406879_" class="st1" d="M348.8,252.5v3.2c0,1.9-0.5,3.7-1.6,5.4
						c-1.1,1.7-2.6,2.6-4.6,2.6c-1.2,0-2.1-0.3-2.9-0.8c-0.8-0.5-1.6-1.5-2.3-2.8c-0.7-1.4-1.1-2.8-1.1-4.4v-3.2
						c0-1.9,0.5-3.7,1.6-5.4c1.1-1.7,2.6-2.6,4.6-2.6c1.2,0,2.1,0.3,2.9,0.8c0.8,0.5,1.6,1.4,2.3,2.8
						C348.4,249.5,348.8,251,348.8,252.5z M345.9,252.5c0-1.6-0.4-2.9-1.3-4.1c-0.5-0.6-1.2-1-2.1-1c-0.9,0-1.6,0.4-2.1,1.1
						c-0.8,1.1-1.3,2.4-1.3,4v3.2c0,1.6,0.4,2.9,1.3,4.1c0.5,0.6,1.2,1,2.1,1c0.9,0,1.6-0.4,2.1-1.1c0.8-1.1,1.3-2.4,1.3-4V252.5z"
						/>
				</g>
			</g>
			<g id="XMLID_00000168835860001710162650000007109055275087853488_">
				<g id="XMLID_00000067923247877241261400000001579074060340790966_">
					<path id="XMLID_00000132782340801726669010000011680482378073948315_" class="st1" d="M221.8,143v15.8h2.9
						c0.7,0,1.2,0.1,1.5,0.4c0.3,0.3,0.4,0.6,0.4,1c0,0.4-0.1,0.8-0.4,1c-0.3,0.3-0.8,0.4-1.5,0.4H216c-0.7,0-1.2-0.1-1.5-0.4
						c-0.3-0.3-0.4-0.6-0.4-1c0-0.4,0.1-0.8,0.4-1c0.3-0.3,0.8-0.4,1.5-0.4h2.9v-12l-2.6,0.7c-0.4,0.1-0.7,0.2-0.9,0.2
						c-0.4,0-0.7-0.1-0.9-0.4c-0.3-0.3-0.4-0.6-0.4-1.1c0-0.4,0.1-0.7,0.3-0.9c0.2-0.2,0.6-0.4,1.2-0.6L221.8,143z"/>
					<path id="XMLID_00000066480851650763013560000000942881850836038016_" class="st1" d="M243.9,151v3.2c0,1.9-0.5,3.7-1.6,5.4
						c-1.1,1.7-2.6,2.6-4.6,2.6c-1.2,0-2.1-0.3-2.9-0.8c-0.8-0.5-1.6-1.5-2.3-2.8c-0.7-1.4-1.1-2.8-1.1-4.4V151
						c0-1.9,0.5-3.7,1.6-5.4c1.1-1.7,2.6-2.6,4.6-2.6c1.2,0,2.1,0.3,2.9,0.8c0.8,0.5,1.6,1.4,2.3,2.8
						C243.5,148,243.9,149.4,243.9,151z M241,151c0-1.6-0.4-2.9-1.3-4.1c-0.5-0.6-1.2-1-2.1-1c-0.9,0-1.6,0.4-2.1,1.1
						c-0.8,1.1-1.3,2.4-1.3,4v3.2c0,1.6,0.4,2.9,1.3,4.1c0.5,0.6,1.2,1,2.1,1c0.9,0,1.6-0.4,2.1-1.1c0.8-1.1,1.3-2.4,1.3-4V151z"/>
					<path id="XMLID_00000084493219268820546740000012617602884803011764_" class="st1" d="M256.3,143v15.8h2.9
						c0.7,0,1.2,0.1,1.5,0.4c0.3,0.3,0.4,0.6,0.4,1c0,0.4-0.1,0.8-0.4,1c-0.3,0.3-0.8,0.4-1.5,0.4h-8.7c-0.7,0-1.2-0.1-1.5-0.4
						c-0.3-0.3-0.4-0.6-0.4-1c0-0.4,0.1-0.8,0.4-1c0.3-0.3,0.8-0.4,1.5-0.4h2.9v-12l-2.6,0.7c-0.4,0.1-0.7,0.2-0.9,0.2
						c-0.4,0-0.7-0.1-0.9-0.4c-0.3-0.3-0.4-0.6-0.4-1.1c0-0.4,0.1-0.7,0.3-0.9c0.2-0.2,0.6-0.4,1.2-0.6L256.3,143z"/>
					<path id="XMLID_00000042697210625866410350000006154739816835060140_" class="st1" d="M278.4,151v3.2c0,1.9-0.5,3.7-1.6,5.4
						c-1.1,1.7-2.6,2.6-4.6,2.6c-1.2,0-2.1-0.3-2.9-0.8c-0.8-0.5-1.6-1.5-2.3-2.8c-0.7-1.4-1.1-2.8-1.1-4.4V151
						c0-1.9,0.5-3.7,1.6-5.4s2.6-2.6,4.6-2.6c1.2,0,2.1,0.3,2.9,0.8c0.8,0.5,1.6,1.4,2.3,2.8C278,148,278.4,149.4,278.4,151z
						 M275.5,151c0-1.6-0.4-2.9-1.3-4.1c-0.5-0.6-1.2-1-2.1-1c-0.9,0-1.6,0.4-2.1,1.1c-0.8,1.1-1.3,2.4-1.3,4v3.2
						c0,1.6,0.4,2.9,1.3,4.1c0.5,0.6,1.2,1,2.1,1c0.9,0,1.6-0.4,2.1-1.1c0.8-1.1,1.3-2.4,1.3-4V151z"/>
				</g>
				<g id="XMLID_00000041261826842387669740000011423143922763604369_">
					<path id="XMLID_00000160875953183205171200000016190422764202751894_" class="st1" d="M226.6,201.4v3.2c0,1.9-0.5,3.7-1.6,5.4
						c-1.1,1.7-2.6,2.6-4.6,2.6c-1.2,0-2.1-0.3-2.9-0.8c-0.8-0.5-1.6-1.5-2.3-2.8c-0.7-1.4-1.1-2.8-1.1-4.4v-3.2
						c0-1.9,0.5-3.7,1.6-5.4c1.1-1.7,2.6-2.6,4.6-2.6c1.2,0,2.1,0.3,2.9,0.8c0.8,0.5,1.6,1.4,2.3,2.8
						C226.2,198.4,226.6,199.8,226.6,201.4z M223.7,201.4c0-1.6-0.4-2.9-1.3-4.1c-0.5-0.6-1.2-1-2.1-1c-0.9,0-1.6,0.4-2.1,1.1
						c-0.8,1.1-1.3,2.4-1.3,4v3.2c0,1.6,0.4,2.9,1.3,4.1c0.5,0.6,1.2,1,2.1,1c0.9,0,1.6-0.4,2.1-1.1c0.8-1.1,1.3-2.4,1.3-4V201.4z"
						/>
					<path id="XMLID_00000155133430589586818880000006995213897004790437_" class="st1" d="M239,193.4v15.8h2.9
						c0.7,0,1.2,0.1,1.5,0.4c0.3,0.3,0.4,0.6,0.4,1c0,0.4-0.1,0.8-0.4,1c-0.3,0.3-0.8,0.4-1.5,0.4h-8.7c-0.7,0-1.2-0.1-1.5-0.4
						c-0.3-0.3-0.4-0.6-0.4-1c0-0.4,0.1-0.8,0.4-1c0.3-0.3,0.8-0.4,1.5-0.4h2.9v-12l-2.6,0.7c-0.4,0.1-0.7,0.2-0.9,0.2
						c-0.4,0-0.7-0.1-0.9-0.4c-0.3-0.3-0.4-0.6-0.4-1.1c0-0.4,0.1-0.7,0.3-0.9c0.2-0.2,0.6-0.4,1.2-0.6L239,193.4z"/>
					<path id="XMLID_00000074442579640405194280000007665833832934454442_" class="st1" d="M256.3,193.4v15.8h2.9
						c0.7,0,1.2,0.1,1.5,0.4c0.3,0.3,0.4,0.6,0.4,1c0,0.4-0.1,0.8-0.4,1c-0.3,0.3-0.8,0.4-1.5,0.4h-8.7c-0.7,0-1.2-0.1-1.5-0.4
						c-0.3-0.3-0.4-0.6-0.4-1c0-0.4,0.1-0.8,0.4-1c0.3-0.3,0.8-0.4,1.5-0.4h2.9v-12l-2.6,0.7c-0.4,0.1-0.7,0.2-0.9,0.2
						c-0.4,0-0.7-0.1-0.9-0.4c-0.3-0.3-0.4-0.6-0.4-1.1c0-0.4,0.1-0.7,0.3-0.9c0.2-0.2,0.6-0.4,1.2-0.6L256.3,193.4z"/>
					<path id="XMLID_00000134956068646357475500000013348367493830999440_" class="st1" d="M278.4,201.4v3.2c0,1.9-0.5,3.7-1.6,5.4
						c-1.1,1.7-2.6,2.6-4.6,2.6c-1.2,0-2.1-0.3-2.9-0.8c-0.8-0.5-1.6-1.5-2.3-2.8c-0.7-1.4-1.1-2.8-1.1-4.4v-3.2
						c0-1.9,0.5-3.7,1.6-5.4c1.1-1.7,2.6-2.6,4.6-2.6c1.2,0,2.1,0.3,2.9,0.8c0.8,0.5,1.6,1.4,2.3,2.8
						C278,198.4,278.4,199.8,278.4,201.4z M275.5,201.4c0-1.6-0.4-2.9-1.3-4.1c-0.5-0.6-1.2-1-2.1-1c-0.9,0-1.6,0.4-2.1,1.1
						c-0.8,1.1-1.3,2.4-1.3,4v3.2c0,1.6,0.4,2.9,1.3,4.1c0.5,0.6,1.2,1,2.1,1c0.9,0,1.6-0.4,2.1-1.1c0.8-1.1,1.3-2.4,1.3-4V201.4z"
						/>
				</g>
				<g id="XMLID_00000176760149350656543340000003927861015595658687_">
					<path id="XMLID_00000097469275704882783570000002760654730499985080_" class="st1" d="M226.6,176.3v3.2c0,1.9-0.5,3.7-1.6,5.4
						c-1.1,1.7-2.6,2.6-4.6,2.6c-1.2,0-2.1-0.3-2.9-0.8c-0.8-0.5-1.6-1.5-2.3-2.8c-0.7-1.4-1.1-2.8-1.1-4.4v-3.2
						c0-1.9,0.5-3.7,1.6-5.4c1.1-1.7,2.6-2.6,4.6-2.6c1.2,0,2.1,0.3,2.9,0.8c0.8,0.5,1.6,1.4,2.3,2.8
						C226.2,173.3,226.6,174.8,226.6,176.3z M223.7,176.3c0-1.6-0.4-2.9-1.3-4.1c-0.5-0.6-1.2-1-2.1-1c-0.9,0-1.6,0.4-2.1,1.1
						c-0.8,1.1-1.3,2.4-1.3,4v3.2c0,1.6,0.4,2.9,1.3,4.1c0.5,0.6,1.2,1,2.1,1c0.9,0,1.6-0.4,2.1-1.1c0.8-1.1,1.3-2.4,1.3-4V176.3z"
						/>
					<path id="XMLID_00000002370136528378226430000013305933637020198299_" class="st1" d="M239,168.4v15.8h2.9
						c0.7,0,1.2,0.1,1.5,0.4c0.3,0.3,0.4,0.6,0.4,1c0,0.4-0.1,0.8-0.4,1c-0.3,0.3-0.8,0.4-1.5,0.4h-8.7c-0.7,0-1.2-0.1-1.5-0.4
						c-0.3-0.3-0.4-0.6-0.4-1c0-0.4,0.1-0.8,0.4-1c0.3-0.3,0.8-0.4,1.5-0.4h2.9v-12l-2.6,0.7c-0.4,0.1-0.7,0.2-0.9,0.2
						c-0.4,0-0.7-0.1-0.9-0.4c-0.3-0.3-0.4-0.6-0.4-1.1c0-0.4,0.1-0.7,0.3-0.9c0.2-0.2,0.6-0.4,1.2-0.6L239,168.4z"/>
					<path id="XMLID_00000101788447391558496510000000799525681045907871_" class="st1" d="M261.1,176.3v3.2c0,1.9-0.5,3.7-1.6,5.4
						c-1.1,1.7-2.6,2.6-4.6,2.6c-1.2,0-2.1-0.3-2.9-0.8c-0.8-0.5-1.6-1.5-2.3-2.8c-0.7-1.4-1.1-2.8-1.1-4.4v-3.2
						c0-1.9,0.5-3.7,1.6-5.4s2.6-2.6,4.6-2.6c1.2,0,2.1,0.3,2.9,0.8c0.8,0.5,1.6,1.4,2.3,2.8C260.8,173.3,261.1,174.8,261.1,176.3z
						 M258.2,176.3c0-1.6-0.4-2.9-1.3-4.1c-0.5-0.6-1.2-1-2.1-1c-0.9,0-1.6,0.4-2.1,1.1c-0.8,1.1-1.3,2.4-1.3,4v3.2
						c0,1.6,0.4,2.9,1.3,4.1c0.5,0.6,1.2,1,2.1,1c0.9,0,1.6-0.4,2.1-1.1c0.8-1.1,1.3-2.4,1.3-4V176.3z"/>
					<path id="XMLID_00000088107197988566870290000009771605302438633347_" class="st1" d="M278.4,176.3v3.2c0,1.9-0.5,3.7-1.6,5.4
						c-1.1,1.7-2.6,2.6-4.6,2.6c-1.2,0-2.1-0.3-2.9-0.8c-0.8-0.5-1.6-1.5-2.3-2.8c-0.7-1.4-1.1-2.8-1.1-4.4v-3.2
						c0-1.9,0.5-3.7,1.6-5.4s2.6-2.6,4.6-2.6c1.2,0,2.1,0.3,2.9,0.8c0.8,0.5,1.6,1.4,2.3,2.8C278,173.3,278.4,174.8,278.4,176.3z
						 M275.5,176.3c0-1.6-0.4-2.9-1.3-4.1c-0.5-0.6-1.2-1-2.1-1c-0.9,0-1.6,0.4-2.1,1.1c-0.8,1.1-1.3,2.4-1.3,4v3.2
						c0,1.6,0.4,2.9,1.3,4.1c0.5,0.6,1.2,1,2.1,1c0.9,0,1.6-0.4,2.1-1.1c0.8-1.1,1.3-2.4,1.3-4V176.3z"/>
				</g>
			</g>
			<g id="XMLID_00000047757689405896627510000002474100343654590653_">
				<g id="XMLID_00000156576037809485138020000004865880528380646819_">
					<path id="XMLID_00000089552332240586729990000006752431525665182368_" class="st1" d="M292.2,143v15.8h2.9
						c0.7,0,1.2,0.1,1.5,0.4c0.3,0.3,0.4,0.6,0.4,1c0,0.4-0.1,0.8-0.4,1c-0.3,0.3-0.8,0.4-1.5,0.4h-8.7c-0.7,0-1.2-0.1-1.5-0.4
						c-0.3-0.3-0.4-0.6-0.4-1c0-0.4,0.1-0.8,0.4-1c0.3-0.3,0.8-0.4,1.5-0.4h2.9v-12l-2.6,0.7c-0.4,0.1-0.7,0.2-0.9,0.2
						c-0.4,0-0.7-0.1-0.9-0.4c-0.3-0.3-0.4-0.6-0.4-1.1c0-0.4,0.1-0.7,0.3-0.9c0.2-0.2,0.6-0.4,1.2-0.6L292.2,143z"/>
					<path id="XMLID_00000041254661692510905720000002829135758058515093_" class="st1" d="M314.3,151v3.2c0,1.9-0.5,3.7-1.6,5.4
						c-1.1,1.7-2.6,2.6-4.6,2.6c-1.2,0-2.1-0.3-2.9-0.8c-0.8-0.5-1.6-1.5-2.3-2.8c-0.7-1.4-1.1-2.8-1.1-4.4V151
						c0-1.9,0.5-3.7,1.6-5.4c1.1-1.7,2.6-2.6,4.6-2.6c1.2,0,2.1,0.3,2.9,0.8c0.8,0.5,1.6,1.4,2.3,2.8
						C313.9,148,314.3,149.4,314.3,151z M311.4,151c0-1.6-0.4-2.9-1.3-4.1c-0.5-0.6-1.2-1-2.1-1c-0.9,0-1.6,0.4-2.1,1.1
						c-0.8,1.1-1.3,2.4-1.3,4v3.2c0,1.6,0.4,2.9,1.3,4.1c0.5,0.6,1.2,1,2.1,1c0.9,0,1.6-0.4,2.1-1.1c0.8-1.1,1.3-2.4,1.3-4V151z"/>
					<path id="XMLID_00000150063776521544244310000005763058603120389544_" class="st1" d="M326.7,143v15.8h2.9
						c0.7,0,1.2,0.1,1.5,0.4c0.3,0.3,0.4,0.6,0.4,1c0,0.4-0.1,0.8-0.4,1c-0.3,0.3-0.8,0.4-1.5,0.4h-8.7c-0.7,0-1.2-0.1-1.5-0.4
						c-0.3-0.3-0.4-0.6-0.4-1c0-0.4,0.1-0.8,0.4-1c0.3-0.3,0.8-0.4,1.5-0.4h2.9v-12l-2.6,0.7c-0.4,0.1-0.7,0.2-0.9,0.2
						c-0.4,0-0.7-0.1-0.9-0.4c-0.3-0.3-0.4-0.6-0.4-1.1c0-0.4,0.1-0.7,0.3-0.9c0.2-0.2,0.6-0.4,1.2-0.6L326.7,143z"/>
					<path id="XMLID_00000027586753227239587050000017026824971890206373_" class="st1" d="M348.8,151v3.2c0,1.9-0.5,3.7-1.6,5.4
						c-1.1,1.7-2.6,2.6-4.6,2.6c-1.2,0-2.1-0.3-2.9-0.8c-0.8-0.5-1.6-1.5-2.3-2.8c-0.7-1.4-1.1-2.8-1.1-4.4V151
						c0-1.9,0.5-3.7,1.6-5.4c1.1-1.7,2.6-2.6,4.6-2.6c1.2,0,2.1,0.3,2.9,0.8c0.8,0.5,1.6,1.4,2.3,2.8
						C348.4,148,348.8,149.4,348.8,151z M345.9,151c0-1.6-0.4-2.9-1.3-4.1c-0.5-0.6-1.2-1-2.1-1c-0.9,0-1.6,0.4-2.1,1.1
						c-0.8,1.1-1.3,2.4-1.3,4v3.2c0,1.6,0.4,2.9,1.3,4.1c0.5,0.6,1.2,1,2.1,1c0.9,0,1.6-0.4,2.1-1.1c0.8-1.1,1.3-2.4,1.3-4V151z"/>
				</g>
				<g id="XMLID_00000110437088182313505560000006103046465839167931_">
					<path id="XMLID_00000178901456302469139260000008452794044017833610_" class="st1" d="M297,201.4v3.2c0,1.9-0.5,3.7-1.6,5.4
						c-1.1,1.7-2.6,2.6-4.6,2.6c-1.2,0-2.1-0.3-2.9-0.8c-0.8-0.5-1.6-1.5-2.3-2.8c-0.7-1.4-1.1-2.8-1.1-4.4v-3.2
						c0-1.9,0.5-3.7,1.6-5.4c1.1-1.7,2.6-2.6,4.6-2.6c1.2,0,2.1,0.3,2.9,0.8c0.8,0.5,1.6,1.4,2.3,2.8
						C296.6,198.4,297,199.8,297,201.4z M294.1,201.4c0-1.6-0.4-2.9-1.3-4.1c-0.5-0.6-1.2-1-2.1-1c-0.9,0-1.6,0.4-2.1,1.1
						c-0.8,1.1-1.3,2.4-1.3,4v3.2c0,1.6,0.4,2.9,1.3,4.1c0.5,0.6,1.2,1,2.1,1c0.9,0,1.6-0.4,2.1-1.1c0.8-1.1,1.3-2.4,1.3-4V201.4z"
						/>
					<path id="XMLID_00000000214129751648347080000010772528324483166369_" class="st1" d="M309.5,193.4v15.8h2.9
						c0.7,0,1.2,0.1,1.5,0.4c0.3,0.3,0.4,0.6,0.4,1c0,0.4-0.1,0.8-0.4,1c-0.3,0.3-0.8,0.4-1.5,0.4h-8.7c-0.7,0-1.2-0.1-1.5-0.4
						c-0.3-0.3-0.4-0.6-0.4-1c0-0.4,0.1-0.8,0.4-1c0.3-0.3,0.8-0.4,1.5-0.4h2.9v-12l-2.6,0.7c-0.4,0.1-0.7,0.2-0.9,0.2
						c-0.4,0-0.7-0.1-0.9-0.4c-0.3-0.3-0.4-0.6-0.4-1.1c0-0.4,0.1-0.7,0.3-0.9c0.2-0.2,0.6-0.4,1.2-0.6L309.5,193.4z"/>
					<path id="XMLID_00000100370794762147977310000006244145489809322165_" class="st1" d="M326.7,193.4v15.8h2.9
						c0.7,0,1.2,0.1,1.5,0.4c0.3,0.3,0.4,0.6,0.4,1c0,0.4-0.1,0.8-0.4,1c-0.3,0.3-0.8,0.4-1.5,0.4h-8.7c-0.7,0-1.2-0.1-1.5-0.4
						c-0.3-0.3-0.4-0.6-0.4-1c0-0.4,0.1-0.8,0.4-1c0.3-0.3,0.8-0.4,1.5-0.4h2.9v-12l-2.6,0.7c-0.4,0.1-0.7,0.2-0.9,0.2
						c-0.4,0-0.7-0.1-0.9-0.4c-0.3-0.3-0.4-0.6-0.4-1.1c0-0.4,0.1-0.7,0.3-0.9c0.2-0.2,0.6-0.4,1.2-0.6L326.7,193.4z"/>
					<path id="XMLID_00000023959867890297482390000009222898134798719618_" class="st1" d="M348.8,201.4v3.2c0,1.9-0.5,3.7-1.6,5.4
						c-1.1,1.7-2.6,2.6-4.6,2.6c-1.2,0-2.1-0.3-2.9-0.8c-0.8-0.5-1.6-1.5-2.3-2.8c-0.7-1.4-1.1-2.8-1.1-4.4v-3.2
						c0-1.9,0.5-3.7,1.6-5.4c1.1-1.7,2.6-2.6,4.6-2.6c1.2,0,2.1,0.3,2.9,0.8c0.8,0.5,1.6,1.4,2.3,2.8
						C348.4,198.4,348.8,199.8,348.8,201.4z M345.9,201.4c0-1.6-0.4-2.9-1.3-4.1c-0.5-0.6-1.2-1-2.1-1c-0.9,0-1.6,0.4-2.1,1.1
						c-0.8,1.1-1.3,2.4-1.3,4v3.2c0,1.6,0.4,2.9,1.3,4.1c0.5,0.6,1.2,1,2.1,1c0.9,0,1.6-0.4,2.1-1.1c0.8-1.1,1.3-2.4,1.3-4V201.4z"
						/>
				</g>
				<g id="XMLID_00000163770363260757981990000007004068145226224560_">
					<path id="XMLID_00000070802058745490090120000012113656962977474434_" class="st1" d="M297,176.3v3.2c0,1.9-0.5,3.7-1.6,5.4
						c-1.1,1.7-2.6,2.6-4.6,2.6c-1.2,0-2.1-0.3-2.9-0.8c-0.8-0.5-1.6-1.5-2.3-2.8c-0.7-1.4-1.1-2.8-1.1-4.4v-3.2
						c0-1.9,0.5-3.7,1.6-5.4s2.6-2.6,4.6-2.6c1.2,0,2.1,0.3,2.9,0.8c0.8,0.5,1.6,1.4,2.3,2.8C296.6,173.3,297,174.8,297,176.3z
						 M294.1,176.3c0-1.6-0.4-2.9-1.3-4.1c-0.5-0.6-1.2-1-2.1-1c-0.9,0-1.6,0.4-2.1,1.1c-0.8,1.1-1.3,2.4-1.3,4v3.2
						c0,1.6,0.4,2.9,1.3,4.1c0.5,0.6,1.2,1,2.1,1c0.9,0,1.6-0.4,2.1-1.1c0.8-1.1,1.3-2.4,1.3-4V176.3z"/>
					<path id="XMLID_00000124860305432985499780000004349302191189174970_" class="st1" d="M309.5,168.4v15.8h2.9
						c0.7,0,1.2,0.1,1.5,0.4c0.3,0.3,0.4,0.6,0.4,1c0,0.4-0.1,0.8-0.4,1c-0.3,0.3-0.8,0.4-1.5,0.4h-8.7c-0.7,0-1.2-0.1-1.5-0.4
						c-0.3-0.3-0.4-0.6-0.4-1c0-0.4,0.1-0.8,0.4-1c0.3-0.3,0.8-0.4,1.5-0.4h2.9v-12l-2.6,0.7c-0.4,0.1-0.7,0.2-0.9,0.2
						c-0.4,0-0.7-0.1-0.9-0.4c-0.3-0.3-0.4-0.6-0.4-1.1c0-0.4,0.1-0.7,0.3-0.9c0.2-0.2,0.6-0.4,1.2-0.6L309.5,168.4z"/>
					<path id="XMLID_00000013906079904424152860000003959946414833584528_" class="st1" d="M331.5,176.3v3.2c0,1.9-0.5,3.7-1.6,5.4
						c-1.1,1.7-2.6,2.6-4.6,2.6c-1.2,0-2.1-0.3-2.9-0.8c-0.8-0.5-1.6-1.5-2.3-2.8c-0.7-1.4-1.1-2.8-1.1-4.4v-3.2
						c0-1.9,0.5-3.7,1.6-5.4c1.1-1.7,2.6-2.6,4.6-2.6c1.2,0,2.1,0.3,2.9,0.8c0.8,0.5,1.6,1.4,2.3,2.8
						C331.2,173.3,331.5,174.8,331.5,176.3z M328.6,176.3c0-1.6-0.4-2.9-1.3-4.1c-0.5-0.6-1.2-1-2.1-1c-0.9,0-1.6,0.4-2.1,1.1
						c-0.8,1.1-1.3,2.4-1.3,4v3.2c0,1.6,0.4,2.9,1.3,4.1c0.5,0.6,1.2,1,2.1,1c0.9,0,1.6-0.4,2.1-1.1c0.8-1.1,1.3-2.4,1.3-4V176.3z"
						/>
					<path id="XMLID_00000029746474623352965470000013425792777545649086_" class="st1" d="M348.8,176.3v3.2c0,1.9-0.5,3.7-1.6,5.4
						c-1.1,1.7-2.6,2.6-4.6,2.6c-1.2,0-2.1-0.3-2.9-0.8c-0.8-0.5-1.6-1.5-2.3-2.8c-0.7-1.4-1.1-2.8-1.1-4.4v-3.2
						c0-1.9,0.5-3.7,1.6-5.4c1.1-1.7,2.6-2.6,4.6-2.6c1.2,0,2.1,0.3,2.9,0.8c0.8,0.5,1.6,1.4,2.3,2.8
						C348.4,173.3,348.8,174.8,348.8,176.3z M345.9,176.3c0-1.6-0.4-2.9-1.3-4.1c-0.5-0.6-1.2-1-2.1-1c-0.9,0-1.6,0.4-2.1,1.1
						c-0.8,1.1-1.3,2.4-1.3,4v3.2c0,1.6,0.4,2.9,1.3,4.1c0.5,0.6,1.2,1,2.1,1c0.9,0,1.6-0.4,2.1-1.1c0.8-1.1,1.3-2.4,1.3-4V176.3z"
						/>
				</g>
			</g>
		</g>
		<g>
			<g id="XMLID_00000107575039418541917790000010832305767032925089_">
				<g id="XMLID_00000000210442218526790010000014016417328817781434_">
					<path id="XMLID_00000183961229269047816440000004158137894829212555_" class="st1" d="M81,219.2V235h2.9c0.7,0,1.2,0.1,1.5,0.4
						c0.3,0.3,0.4,0.6,0.4,1c0,0.4-0.1,0.8-0.4,1c-0.3,0.3-0.8,0.4-1.5,0.4h-8.7c-0.7,0-1.2-0.1-1.5-0.4c-0.3-0.3-0.4-0.6-0.4-1
						c0-0.4,0.1-0.8,0.4-1c0.3-0.3,0.8-0.4,1.5-0.4h2.9v-12l-2.6,0.7c-0.4,0.1-0.7,0.2-0.9,0.2c-0.4,0-0.7-0.1-0.9-0.4
						c-0.3-0.3-0.4-0.6-0.4-1.1c0-0.4,0.1-0.7,0.3-0.9c0.2-0.2,0.6-0.4,1.2-0.6L81,219.2z"/>
					<path id="XMLID_00000050636512315241304460000006789686776686973831_" class="st1" d="M103.1,227.2v3.2c0,1.9-0.5,3.7-1.6,5.4
						c-1.1,1.7-2.6,2.6-4.6,2.6c-1.2,0-2.1-0.3-2.9-0.8c-0.8-0.5-1.6-1.5-2.3-2.8c-0.7-1.4-1.1-2.8-1.1-4.4v-3.2
						c0-1.9,0.5-3.7,1.6-5.4c1.1-1.7,2.6-2.6,4.6-2.6c1.2,0,2.1,0.3,2.9,0.8c0.8,0.5,1.6,1.4,2.3,2.8
						C102.7,224.2,103.1,225.6,103.1,227.2z M100.2,227.2c0-1.6-0.4-2.9-1.3-4.1c-0.5-0.6-1.2-1-2.1-1c-0.9,0-1.6,0.4-2.1,1.1
						c-0.8,1.1-1.3,2.4-1.3,4v3.2c0,1.6,0.4,2.9,1.3,4.1c0.5,0.6,1.2,1,2.1,1c0.9,0,1.6-0.4,2.1-1.1c0.8-1.1,1.3-2.4,1.3-4V227.2z"
						/>
					<path id="XMLID_00000131369142417752625960000011441323486044294298_" class="st1" d="M115.5,219.2V235h2.9
						c0.7,0,1.2,0.1,1.5,0.4c0.3,0.3,0.4,0.6,0.4,1c0,0.4-0.1,0.8-0.4,1c-0.3,0.3-0.8,0.4-1.5,0.4h-8.7c-0.7,0-1.2-0.1-1.5-0.4
						c-0.3-0.3-0.4-0.6-0.4-1c0-0.4,0.1-0.8,0.4-1c0.3-0.3,0.8-0.4,1.5-0.4h2.9v-12l-2.6,0.7c-0.4,0.1-0.7,0.2-0.9,0.2
						c-0.4,0-0.7-0.1-0.9-0.4c-0.3-0.3-0.4-0.6-0.4-1.1c0-0.4,0.1-0.7,0.3-0.9c0.2-0.2,0.6-0.4,1.2-0.6L115.5,219.2z"/>
					<path id="XMLID_00000170253900464168702540000015606344536965426077_" class="st1" d="M137.6,227.2v3.2c0,1.9-0.5,3.7-1.6,5.4
						c-1.1,1.7-2.6,2.6-4.6,2.6c-1.2,0-2.1-0.3-2.9-0.8c-0.8-0.5-1.6-1.5-2.3-2.8c-0.7-1.4-1.1-2.8-1.1-4.4v-3.2
						c0-1.9,0.5-3.7,1.6-5.4c1.1-1.7,2.6-2.6,4.6-2.6c1.2,0,2.1,0.3,2.9,0.8c0.8,0.5,1.6,1.4,2.3,2.8
						C137.2,224.2,137.6,225.6,137.6,227.2z M134.7,227.2c0-1.6-0.4-2.9-1.3-4.1c-0.5-0.6-1.2-1-2.1-1c-0.9,0-1.6,0.4-2.1,1.1
						c-0.8,1.1-1.3,2.4-1.3,4v3.2c0,1.6,0.4,2.9,1.3,4.1c0.5,0.6,1.2,1,2.1,1c0.9,0,1.6-0.4,2.1-1.1c0.8-1.1,1.3-2.4,1.3-4V227.2z"
						/>
				</g>
				<g id="XMLID_00000164481907833674387390000001164931829155369366_">
					<path id="XMLID_00000182530889938694708590000011322260415251336104_" class="st1" d="M85.8,277.6v3.2c0,1.9-0.5,3.7-1.6,5.4
						c-1.1,1.7-2.6,2.6-4.6,2.6c-1.2,0-2.1-0.3-2.9-0.8c-0.8-0.5-1.6-1.5-2.3-2.8c-0.7-1.4-1.1-2.8-1.1-4.4v-3.2
						c0-1.9,0.5-3.7,1.6-5.4c1.1-1.7,2.6-2.6,4.6-2.6c1.2,0,2.1,0.3,2.9,0.8c0.8,0.5,1.6,1.4,2.3,2.8
						C85.4,274.6,85.8,276,85.8,277.6z M82.9,277.6c0-1.6-0.4-2.9-1.3-4.1c-0.5-0.6-1.2-1-2.1-1c-0.9,0-1.6,0.4-2.1,1.1
						c-0.8,1.1-1.3,2.4-1.3,4v3.2c0,1.6,0.4,2.9,1.3,4.1c0.5,0.6,1.2,1,2.1,1c0.9,0,1.6-0.4,2.1-1.1c0.8-1.1,1.3-2.4,1.3-4V277.6z"
						/>
					<path id="XMLID_00000151505059598546648070000009584156013646847893_" class="st1" d="M98.2,269.6v15.8h2.9
						c0.7,0,1.2,0.1,1.5,0.4c0.3,0.3,0.4,0.6,0.4,1c0,0.4-0.1,0.8-0.4,1c-0.3,0.3-0.8,0.4-1.5,0.4h-8.7c-0.7,0-1.2-0.1-1.5-0.4
						c-0.3-0.3-0.4-0.6-0.4-1c0-0.4,0.1-0.8,0.4-1c0.3-0.3,0.8-0.4,1.5-0.4h2.9v-12l-2.6,0.7c-0.4,0.1-0.7,0.2-0.9,0.2
						c-0.4,0-0.7-0.1-0.9-0.4c-0.3-0.3-0.4-0.6-0.4-1.1c0-0.4,0.1-0.7,0.3-0.9c0.2-0.2,0.6-0.4,1.2-0.6L98.2,269.6z"/>
					<path id="XMLID_00000113355215115101529740000004447280720717001653_" class="st1" d="M115.5,269.6v15.8h2.9
						c0.7,0,1.2,0.1,1.5,0.4c0.3,0.3,0.4,0.6,0.4,1c0,0.4-0.1,0.8-0.4,1c-0.3,0.3-0.8,0.4-1.5,0.4h-8.7c-0.7,0-1.2-0.1-1.5-0.4
						c-0.3-0.3-0.4-0.6-0.4-1c0-0.4,0.1-0.8,0.4-1c0.3-0.3,0.8-0.4,1.5-0.4h2.9v-12l-2.6,0.7c-0.4,0.1-0.7,0.2-0.9,0.2
						c-0.4,0-0.7-0.1-0.9-0.4c-0.3-0.3-0.4-0.6-0.4-1.1c0-0.4,0.1-0.7,0.3-0.9c0.2-0.2,0.6-0.4,1.2-0.6L115.5,269.6z"/>
					<path id="XMLID_00000062905842490932584400000010979326995990634168_" class="st1" d="M137.6,277.6v3.2c0,1.9-0.5,3.7-1.6,5.4
						c-1.1,1.7-2.6,2.6-4.6,2.6c-1.2,0-2.1-0.3-2.9-0.8c-0.8-0.5-1.6-1.5-2.3-2.8c-0.7-1.4-1.1-2.8-1.1-4.4v-3.2
						c0-1.9,0.5-3.7,1.6-5.4c1.1-1.7,2.6-2.6,4.6-2.6c1.2,0,2.1,0.3,2.9,0.8c0.8,0.5,1.6,1.4,2.3,2.8
						C137.2,274.6,137.6,276,137.6,277.6z M134.7,277.6c0-1.6-0.4-2.9-1.3-4.1c-0.5-0.6-1.2-1-2.1-1c-0.9,0-1.6,0.4-2.1,1.1
						c-0.8,1.1-1.3,2.4-1.3,4v3.2c0,1.6,0.4,2.9,1.3,4.1c0.5,0.6,1.2,1,2.1,1c0.9,0,1.6-0.4,2.1-1.1c0.8-1.1,1.3-2.4,1.3-4V277.6z"
						/>
				</g>
				<g id="XMLID_00000024683774571820774020000014284157900172029623_">
					<path id="XMLID_00000025430184693813796770000007381217553334035647_" class="st1" d="M85.8,252.5v3.2c0,1.9-0.5,3.7-1.6,5.4
						c-1.1,1.7-2.6,2.6-4.6,2.6c-1.2,0-2.1-0.3-2.9-0.8c-0.8-0.5-1.6-1.5-2.3-2.8c-0.7-1.4-1.1-2.8-1.1-4.4v-3.2
						c0-1.9,0.5-3.7,1.6-5.4c1.1-1.7,2.6-2.6,4.6-2.6c1.2,0,2.1,0.3,2.9,0.8c0.8,0.5,1.6,1.4,2.3,2.8
						C85.4,249.5,85.8,251,85.8,252.5z M82.9,252.5c0-1.6-0.4-2.9-1.3-4.1c-0.5-0.6-1.2-1-2.1-1c-0.9,0-1.6,0.4-2.1,1.1
						c-0.8,1.1-1.3,2.4-1.3,4v3.2c0,1.6,0.4,2.9,1.3,4.1c0.5,0.6,1.2,1,2.1,1c0.9,0,1.6-0.4,2.1-1.1c0.8-1.1,1.3-2.4,1.3-4V252.5z"
						/>
					<path id="XMLID_00000021100382102144006290000005999032752457337492_" class="st1" d="M98.2,244.6v15.8h2.9
						c0.7,0,1.2,0.1,1.5,0.4c0.3,0.3,0.4,0.6,0.4,1c0,0.4-0.1,0.8-0.4,1c-0.3,0.3-0.8,0.4-1.5,0.4h-8.7c-0.7,0-1.2-0.1-1.5-0.4
						c-0.3-0.3-0.4-0.6-0.4-1c0-0.4,0.1-0.8,0.4-1c0.3-0.3,0.8-0.4,1.5-0.4h2.9v-12l-2.6,0.7c-0.4,0.1-0.7,0.2-0.9,0.2
						c-0.4,0-0.7-0.1-0.9-0.4c-0.3-0.3-0.4-0.6-0.4-1.1c0-0.4,0.1-0.7,0.3-0.9c0.2-0.2,0.6-0.4,1.2-0.6L98.2,244.6z"/>
					<path id="XMLID_00000050641491812529796250000008594614448665087367_" class="st1" d="M120.3,252.5v3.2c0,1.9-0.5,3.7-1.6,5.4
						c-1.1,1.7-2.6,2.6-4.6,2.6c-1.2,0-2.1-0.3-2.9-0.8c-0.8-0.5-1.6-1.5-2.3-2.8c-0.7-1.4-1.1-2.8-1.1-4.4v-3.2
						c0-1.9,0.5-3.7,1.6-5.4c1.1-1.7,2.6-2.6,4.6-2.6c1.2,0,2.1,0.3,2.9,0.8c0.8,0.5,1.6,1.4,2.3,2.8
						C120,249.5,120.3,251,120.3,252.5z M117.4,252.5c0-1.6-0.4-2.9-1.3-4.1c-0.5-0.6-1.2-1-2.1-1c-0.9,0-1.6,0.4-2.1,1.1
						c-0.8,1.1-1.3,2.4-1.3,4v3.2c0,1.6,0.4,2.9,1.3,4.1c0.5,0.6,1.2,1,2.1,1c0.9,0,1.6-0.4,2.1-1.1c0.8-1.1,1.3-2.4,1.3-4V252.5z"
						/>
					<path id="XMLID_00000114042018638309153410000003700655440811459492_" class="st1" d="M137.6,252.5v3.2c0,1.9-0.5,3.7-1.6,5.4
						c-1.1,1.7-2.6,2.6-4.6,2.6c-1.2,0-2.1-0.3-2.9-0.8c-0.8-0.5-1.6-1.5-2.3-2.8c-0.7-1.4-1.1-2.8-1.1-4.4v-3.2
						c0-1.9,0.5-3.7,1.6-5.4c1.1-1.7,2.6-2.6,4.6-2.6c1.2,0,2.1,0.3,2.9,0.8c0.8,0.5,1.6,1.4,2.3,2.8
						C137.2,249.5,137.6,251,137.6,252.5z M134.7,252.5c0-1.6-0.4-2.9-1.3-4.1c-0.5-0.6-1.2-1-2.1-1c-0.9,0-1.6,0.4-2.1,1.1
						c-0.8,1.1-1.3,2.4-1.3,4v3.2c0,1.6,0.4,2.9,1.3,4.1c0.5,0.6,1.2,1,2.1,1c0.9,0,1.6-0.4,2.1-1.1c0.8-1.1,1.3-2.4,1.3-4V252.5z"
						/>
				</g>
			</g>
			<g id="XMLID_00000147211072805139044610000014745489081777468037_">
				<g id="XMLID_00000096024673647773424040000005553304769087612323_">
					<path id="XMLID_00000052819562414761692690000017241634230640600964_" class="st1" d="M151.4,219.2V235h2.9
						c0.7,0,1.2,0.1,1.5,0.4c0.3,0.3,0.4,0.6,0.4,1c0,0.4-0.1,0.8-0.4,1c-0.3,0.3-0.8,0.4-1.5,0.4h-8.7c-0.7,0-1.2-0.1-1.5-0.4
						c-0.3-0.3-0.4-0.6-0.4-1c0-0.4,0.1-0.8,0.4-1c0.3-0.3,0.8-0.4,1.5-0.4h2.9v-12l-2.6,0.7c-0.4,0.1-0.7,0.2-0.9,0.2
						c-0.4,0-0.7-0.1-0.9-0.4c-0.3-0.3-0.4-0.6-0.4-1.1c0-0.4,0.1-0.7,0.3-0.9c0.2-0.2,0.6-0.4,1.2-0.6L151.4,219.2z"/>
					<path id="XMLID_00000080171844406330350370000009226748266346099609_" class="st1" d="M173.5,227.2v3.2c0,1.9-0.5,3.7-1.6,5.4
						c-1.1,1.7-2.6,2.6-4.6,2.6c-1.2,0-2.1-0.3-2.9-0.8c-0.8-0.5-1.6-1.5-2.3-2.8c-0.7-1.4-1.1-2.8-1.1-4.4v-3.2
						c0-1.9,0.5-3.7,1.6-5.4c1.1-1.7,2.6-2.6,4.6-2.6c1.2,0,2.1,0.3,2.9,0.8c0.8,0.5,1.6,1.4,2.3,2.8
						C173.1,224.2,173.5,225.6,173.5,227.2z M170.6,227.2c0-1.6-0.4-2.9-1.3-4.1c-0.5-0.6-1.2-1-2.1-1c-0.9,0-1.6,0.4-2.1,1.1
						c-0.8,1.1-1.3,2.4-1.3,4v3.2c0,1.6,0.4,2.9,1.3,4.1c0.5,0.6,1.2,1,2.1,1c0.9,0,1.6-0.4,2.1-1.1c0.8-1.1,1.3-2.4,1.3-4V227.2z"
						/>
					<path id="XMLID_00000028325042723431639090000013258082461185439671_" class="st1" d="M185.9,219.2V235h2.9
						c0.7,0,1.2,0.1,1.5,0.4c0.3,0.3,0.4,0.6,0.4,1c0,0.4-0.1,0.8-0.4,1c-0.3,0.3-0.8,0.4-1.5,0.4h-8.7c-0.7,0-1.2-0.1-1.5-0.4
						c-0.3-0.3-0.4-0.6-0.4-1c0-0.4,0.1-0.8,0.4-1c0.3-0.3,0.8-0.4,1.5-0.4h2.9v-12l-2.6,0.7c-0.4,0.1-0.7,0.2-0.9,0.2
						c-0.4,0-0.7-0.1-0.9-0.4c-0.3-0.3-0.4-0.6-0.4-1.1c0-0.4,0.1-0.7,0.3-0.9c0.2-0.2,0.6-0.4,1.2-0.6L185.9,219.2z"/>
					<path id="XMLID_00000040557815031983026740000007559578537658523805_" class="st1" d="M208,227.2v3.2c0,1.9-0.5,3.7-1.6,5.4
						c-1.1,1.7-2.6,2.6-4.6,2.6c-1.2,0-2.1-0.3-2.9-0.8c-0.8-0.5-1.6-1.5-2.3-2.8c-0.7-1.4-1.1-2.8-1.1-4.4v-3.2
						c0-1.9,0.5-3.7,1.6-5.4c1.1-1.7,2.6-2.6,4.6-2.6c1.2,0,2.1,0.3,2.9,0.8c0.8,0.5,1.6,1.4,2.3,2.8
						C207.7,224.2,208,225.6,208,227.2z M205.1,227.2c0-1.6-0.4-2.9-1.3-4.1c-0.5-0.6-1.2-1-2.1-1c-0.9,0-1.6,0.4-2.1,1.1
						c-0.8,1.1-1.3,2.4-1.3,4v3.2c0,1.6,0.4,2.9,1.3,4.1c0.5,0.6,1.2,1,2.1,1c0.9,0,1.6-0.4,2.1-1.1c0.8-1.1,1.3-2.4,1.3-4V227.2z"
						/>
				</g>
				<g id="XMLID_00000003082618117509768720000015395228471002618290_">
					<path id="XMLID_00000183954268399543253000000003356104493717391036_" class="st1" d="M156.2,277.6v3.2c0,1.9-0.5,3.7-1.6,5.4
						c-1.1,1.7-2.6,2.6-4.6,2.6c-1.2,0-2.1-0.3-2.9-0.8c-0.8-0.5-1.6-1.5-2.3-2.8c-0.7-1.4-1.1-2.8-1.1-4.4v-3.2
						c0-1.9,0.5-3.7,1.6-5.4c1.1-1.7,2.6-2.6,4.6-2.6c1.2,0,2.1,0.3,2.9,0.8c0.8,0.5,1.6,1.4,2.3,2.8
						C155.8,274.6,156.2,276,156.2,277.6z M153.3,277.6c0-1.6-0.4-2.9-1.3-4.1c-0.5-0.6-1.2-1-2.1-1c-0.9,0-1.6,0.4-2.1,1.1
						c-0.8,1.1-1.3,2.4-1.3,4v3.2c0,1.6,0.4,2.9,1.3,4.1c0.5,0.6,1.2,1,2.1,1c0.9,0,1.6-0.4,2.1-1.1c0.8-1.1,1.3-2.4,1.3-4V277.6z"
						/>
					<path id="XMLID_00000021102411355990278620000005630780472153405618_" class="st1" d="M168.7,269.6v15.8h2.9
						c0.7,0,1.2,0.1,1.5,0.4c0.3,0.3,0.4,0.6,0.4,1c0,0.4-0.1,0.8-0.4,1c-0.3,0.3-0.8,0.4-1.5,0.4h-8.7c-0.7,0-1.2-0.1-1.5-0.4
						c-0.3-0.3-0.4-0.6-0.4-1c0-0.4,0.1-0.8,0.4-1c0.3-0.3,0.8-0.4,1.5-0.4h2.9v-12l-2.6,0.7c-0.4,0.1-0.7,0.2-0.9,0.2
						c-0.4,0-0.7-0.1-0.9-0.4c-0.3-0.3-0.4-0.6-0.4-1.1c0-0.4,0.1-0.7,0.3-0.9c0.2-0.2,0.6-0.4,1.2-0.6L168.7,269.6z"/>
					<path id="XMLID_00000178183936622973190710000015951165225578636719_" class="st1" d="M185.9,269.6v15.8h2.9
						c0.7,0,1.2,0.1,1.5,0.4c0.3,0.3,0.4,0.6,0.4,1c0,0.4-0.1,0.8-0.4,1c-0.3,0.3-0.8,0.4-1.5,0.4h-8.7c-0.7,0-1.2-0.1-1.5-0.4
						c-0.3-0.3-0.4-0.6-0.4-1c0-0.4,0.1-0.8,0.4-1c0.3-0.3,0.8-0.4,1.5-0.4h2.9v-12l-2.6,0.7c-0.4,0.1-0.7,0.2-0.9,0.2
						c-0.4,0-0.7-0.1-0.9-0.4c-0.3-0.3-0.4-0.6-0.4-1.1c0-0.4,0.1-0.7,0.3-0.9c0.2-0.2,0.6-0.4,1.2-0.6L185.9,269.6z"/>
					<path id="XMLID_00000176726331892417231440000017764505271948409246_" class="st1" d="M208,277.6v3.2c0,1.9-0.5,3.7-1.6,5.4
						c-1.1,1.7-2.6,2.6-4.6,2.6c-1.2,0-2.1-0.3-2.9-0.8c-0.8-0.5-1.6-1.5-2.3-2.8c-0.7-1.4-1.1-2.8-1.1-4.4v-3.2
						c0-1.9,0.5-3.7,1.6-5.4c1.1-1.7,2.6-2.6,4.6-2.6c1.2,0,2.1,0.3,2.9,0.8c0.8,0.5,1.6,1.4,2.3,2.8C207.7,274.6,208,276,208,277.6
						z M205.1,277.6c0-1.6-0.4-2.9-1.3-4.1c-0.5-0.6-1.2-1-2.1-1c-0.9,0-1.6,0.4-2.1,1.1c-0.8,1.1-1.3,2.4-1.3,4v3.2
						c0,1.6,0.4,2.9,1.3,4.1c0.5,0.6,1.2,1,2.1,1c0.9,0,1.6-0.4,2.1-1.1c0.8-1.1,1.3-2.4,1.3-4V277.6z"/>
				</g>
				<g id="XMLID_00000174565509953256726480000005155480720698020230_">
					<path id="XMLID_00000067207888843764576040000002872776152379957942_" class="st1" d="M156.2,252.5v3.2c0,1.9-0.5,3.7-1.6,5.4
						c-1.1,1.7-2.6,2.6-4.6,2.6c-1.2,0-2.1-0.3-2.9-0.8c-0.8-0.5-1.6-1.5-2.3-2.8c-0.7-1.4-1.1-2.8-1.1-4.4v-3.2
						c0-1.9,0.5-3.7,1.6-5.4c1.1-1.7,2.6-2.6,4.6-2.6c1.2,0,2.1,0.3,2.9,0.8c0.8,0.5,1.6,1.4,2.3,2.8
						C155.8,249.5,156.2,251,156.2,252.5z M153.3,252.5c0-1.6-0.4-2.9-1.3-4.1c-0.5-0.6-1.2-1-2.1-1c-0.9,0-1.6,0.4-2.1,1.1
						c-0.8,1.1-1.3,2.4-1.3,4v3.2c0,1.6,0.4,2.9,1.3,4.1c0.5,0.6,1.2,1,2.1,1c0.9,0,1.6-0.4,2.1-1.1c0.8-1.1,1.3-2.4,1.3-4V252.5z"
						/>
					<path id="XMLID_00000093858654356004863540000010592047383714651555_" class="st1" d="M168.7,244.6v15.8h2.9
						c0.7,0,1.2,0.1,1.5,0.4c0.3,0.3,0.4,0.6,0.4,1c0,0.4-0.1,0.8-0.4,1c-0.3,0.3-0.8,0.4-1.5,0.4h-8.7c-0.7,0-1.2-0.1-1.5-0.4
						c-0.3-0.3-0.4-0.6-0.4-1c0-0.4,0.1-0.8,0.4-1c0.3-0.3,0.8-0.4,1.5-0.4h2.9v-12l-2.6,0.7c-0.4,0.1-0.7,0.2-0.9,0.2
						c-0.4,0-0.7-0.1-0.9-0.4c-0.3-0.3-0.4-0.6-0.4-1.1c0-0.4,0.1-0.7,0.3-0.9c0.2-0.2,0.6-0.4,1.2-0.6L168.7,244.6z"/>
					<path id="XMLID_00000096018519390101341300000013761778725703823797_" class="st1" d="M190.8,252.5v3.2c0,1.9-0.5,3.7-1.6,5.4
						c-1.1,1.7-2.6,2.6-4.6,2.6c-1.2,0-2.1-0.3-2.9-0.8c-0.8-0.5-1.6-1.5-2.3-2.8c-0.7-1.4-1.1-2.8-1.1-4.4v-3.2
						c0-1.9,0.5-3.7,1.6-5.4c1.1-1.7,2.6-2.6,4.6-2.6c1.2,0,2.1,0.3,2.9,0.8c0.8,0.5,1.6,1.4,2.3,2.8
						C190.4,249.5,190.8,251,190.8,252.5z M187.9,252.5c0-1.6-0.4-2.9-1.3-4.1c-0.5-0.6-1.2-1-2.1-1c-0.9,0-1.6,0.4-2.1,1.1
						c-0.8,1.1-1.3,2.4-1.3,4v3.2c0,1.6,0.4,2.9,1.3,4.1c0.5,0.6,1.2,1,2.1,1c0.9,0,1.6-0.4,2.1-1.1c0.8-1.1,1.3-2.4,1.3-4V252.5z"
						/>
					<path id="XMLID_00000075146372724511445320000007592101867286693026_" class="st1" d="M208,252.5v3.2c0,1.9-0.5,3.7-1.6,5.4
						c-1.1,1.7-2.6,2.6-4.6,2.6c-1.2,0-2.1-0.3-2.9-0.8c-0.8-0.5-1.6-1.5-2.3-2.8c-0.7-1.4-1.1-2.8-1.1-4.4v-3.2
						c0-1.9,0.5-3.7,1.6-5.4c1.1-1.7,2.6-2.6,4.6-2.6c1.2,0,2.1,0.3,2.9,0.8c0.8,0.5,1.6,1.4,2.3,2.8C207.7,249.5,208,251,208,252.5
						z M205.1,252.5c0-1.6-0.4-2.9-1.3-4.1c-0.5-0.6-1.2-1-2.1-1c-0.9,0-1.6,0.4-2.1,1.1c-0.8,1.1-1.3,2.4-1.3,4v3.2
						c0,1.6,0.4,2.9,1.3,4.1c0.5,0.6,1.2,1,2.1,1c0.9,0,1.6-0.4,2.1-1.1c0.8-1.1,1.3-2.4,1.3-4V252.5z"/>
				</g>
			</g>
			<g id="XMLID_00000079444735066900718430000009137412618860128658_">
				<g id="XMLID_00000098189168360454519650000014588877738539034756_">
					<path id="XMLID_00000076575401880692154160000006161825367784469428_" class="st1" d="M81,143v15.8h2.9c0.7,0,1.2,0.1,1.5,0.4
						c0.3,0.3,0.4,0.6,0.4,1c0,0.4-0.1,0.8-0.4,1c-0.3,0.3-0.8,0.4-1.5,0.4h-8.7c-0.7,0-1.2-0.1-1.5-0.4c-0.3-0.3-0.4-0.6-0.4-1
						c0-0.4,0.1-0.8,0.4-1c0.3-0.3,0.8-0.4,1.5-0.4h2.9v-12l-2.6,0.7c-0.4,0.1-0.7,0.2-0.9,0.2c-0.4,0-0.7-0.1-0.9-0.4
						c-0.3-0.3-0.4-0.6-0.4-1.1c0-0.4,0.1-0.7,0.3-0.9c0.2-0.2,0.6-0.4,1.2-0.6L81,143z"/>
					<path id="XMLID_00000067944976541773330240000007266462857620173493_" class="st1" d="M103.1,151v3.2c0,1.9-0.5,3.7-1.6,5.4
						c-1.1,1.7-2.6,2.6-4.6,2.6c-1.2,0-2.1-0.3-2.9-0.8c-0.8-0.5-1.6-1.5-2.3-2.8c-0.7-1.4-1.1-2.8-1.1-4.4V151
						c0-1.9,0.5-3.7,1.6-5.4c1.1-1.7,2.6-2.6,4.6-2.6c1.2,0,2.1,0.3,2.9,0.8c0.8,0.5,1.6,1.4,2.3,2.8
						C102.7,148,103.1,149.4,103.1,151z M100.2,151c0-1.6-0.4-2.9-1.3-4.1c-0.5-0.6-1.2-1-2.1-1c-0.9,0-1.6,0.4-2.1,1.1
						c-0.8,1.1-1.3,2.4-1.3,4v3.2c0,1.6,0.4,2.9,1.3,4.1c0.5,0.6,1.2,1,2.1,1c0.9,0,1.6-0.4,2.1-1.1c0.8-1.1,1.3-2.4,1.3-4V151z"/>
					<path id="XMLID_00000156562056112492869470000013018500521338395284_" class="st1" d="M115.5,143v15.8h2.9
						c0.7,0,1.2,0.1,1.5,0.4c0.3,0.3,0.4,0.6,0.4,1c0,0.4-0.1,0.8-0.4,1c-0.3,0.3-0.8,0.4-1.5,0.4h-8.7c-0.7,0-1.2-0.1-1.5-0.4
						c-0.3-0.3-0.4-0.6-0.4-1c0-0.4,0.1-0.8,0.4-1c0.3-0.3,0.8-0.4,1.5-0.4h2.9v-12l-2.6,0.7c-0.4,0.1-0.7,0.2-0.9,0.2
						c-0.4,0-0.7-0.1-0.9-0.4c-0.3-0.3-0.4-0.6-0.4-1.1c0-0.4,0.1-0.7,0.3-0.9c0.2-0.2,0.6-0.4,1.2-0.6L115.5,143z"/>
					<path id="XMLID_00000011729771136912201940000014493220311149909667_" class="st1" d="M137.6,151v3.2c0,1.9-0.5,3.7-1.6,5.4
						c-1.1,1.7-2.6,2.6-4.6,2.6c-1.2,0-2.1-0.3-2.9-0.8c-0.8-0.5-1.6-1.5-2.3-2.8c-0.7-1.4-1.1-2.8-1.1-4.4V151
						c0-1.9,0.5-3.7,1.6-5.4c1.1-1.7,2.6-2.6,4.6-2.6c1.2,0,2.1,0.3,2.9,0.8c0.8,0.5,1.6,1.4,2.3,2.8
						C137.3,148,137.6,149.4,137.6,151z M134.7,151c0-1.6-0.4-2.9-1.3-4.1c-0.5-0.6-1.2-1-2.1-1c-0.9,0-1.6,0.4-2.1,1.1
						c-0.8,1.1-1.3,2.4-1.3,4v3.2c0,1.6,0.4,2.9,1.3,4.1c0.5,0.6,1.2,1,2.1,1c0.9,0,1.6-0.4,2.1-1.1c0.8-1.1,1.3-2.4,1.3-4V151z"/>
				</g>
				<g id="XMLID_00000091702014402841830390000015837627849333000596_">
					<path id="XMLID_00000084494870643954505950000003717463722422297754_" class="st1" d="M85.8,201.4v3.2c0,1.9-0.5,3.7-1.6,5.4
						c-1.1,1.7-2.6,2.6-4.6,2.6c-1.2,0-2.1-0.3-2.9-0.8c-0.8-0.5-1.6-1.5-2.3-2.8c-0.7-1.4-1.1-2.8-1.1-4.4v-3.2
						c0-1.9,0.5-3.7,1.6-5.4c1.1-1.7,2.6-2.6,4.6-2.6c1.2,0,2.1,0.3,2.9,0.8c0.8,0.5,1.6,1.4,2.3,2.8
						C85.4,198.4,85.8,199.8,85.8,201.4z M82.9,201.4c0-1.6-0.4-2.9-1.3-4.1c-0.5-0.6-1.2-1-2.1-1c-0.9,0-1.6,0.4-2.1,1.1
						c-0.8,1.1-1.3,2.4-1.3,4v3.2c0,1.6,0.4,2.9,1.3,4.1c0.5,0.6,1.2,1,2.1,1c0.9,0,1.6-0.4,2.1-1.1c0.8-1.1,1.3-2.4,1.3-4V201.4z"
						/>
					<path id="XMLID_00000091004832255876270880000008318534156337754007_" class="st1" d="M98.3,193.4v15.8h2.9
						c0.7,0,1.2,0.1,1.5,0.4c0.3,0.3,0.4,0.6,0.4,1c0,0.4-0.1,0.8-0.4,1c-0.3,0.3-0.8,0.4-1.5,0.4h-8.7c-0.7,0-1.2-0.1-1.5-0.4
						c-0.3-0.3-0.4-0.6-0.4-1c0-0.4,0.1-0.8,0.4-1c0.3-0.3,0.8-0.4,1.5-0.4h2.9v-12l-2.6,0.7c-0.4,0.1-0.7,0.2-0.9,0.2
						c-0.4,0-0.7-0.1-0.9-0.4c-0.3-0.3-0.4-0.6-0.4-1.1c0-0.4,0.1-0.7,0.3-0.9c0.2-0.2,0.6-0.4,1.2-0.6L98.3,193.4z"/>
					<path id="XMLID_00000106863490063608775550000012516920695472109186_" class="st1" d="M115.5,193.4v15.8h2.9
						c0.7,0,1.2,0.1,1.5,0.4c0.3,0.3,0.4,0.6,0.4,1c0,0.4-0.1,0.8-0.4,1c-0.3,0.3-0.8,0.4-1.5,0.4h-8.7c-0.7,0-1.2-0.1-1.5-0.4
						c-0.3-0.3-0.4-0.6-0.4-1c0-0.4,0.1-0.8,0.4-1c0.3-0.3,0.8-0.4,1.5-0.4h2.9v-12l-2.6,0.7c-0.4,0.1-0.7,0.2-0.9,0.2
						c-0.4,0-0.7-0.1-0.9-0.4c-0.3-0.3-0.4-0.6-0.4-1.1c0-0.4,0.1-0.7,0.3-0.9c0.2-0.2,0.6-0.4,1.2-0.6L115.5,193.4z"/>
					<path id="XMLID_00000162342376837717717120000009948570857336050106_" class="st1" d="M137.6,201.4v3.2c0,1.9-0.5,3.7-1.6,5.4
						c-1.1,1.7-2.6,2.6-4.6,2.6c-1.2,0-2.1-0.3-2.9-0.8c-0.8-0.5-1.6-1.5-2.3-2.8c-0.7-1.4-1.1-2.8-1.1-4.4v-3.2
						c0-1.9,0.5-3.7,1.6-5.4c1.1-1.7,2.6-2.6,4.6-2.6c1.2,0,2.1,0.3,2.9,0.8c0.8,0.5,1.6,1.4,2.3,2.8
						C137.3,198.4,137.6,199.8,137.6,201.4z M134.7,201.4c0-1.6-0.4-2.9-1.3-4.1c-0.5-0.6-1.2-1-2.1-1c-0.9,0-1.6,0.4-2.1,1.1
						c-0.8,1.1-1.3,2.4-1.3,4v3.2c0,1.6,0.4,2.9,1.3,4.1c0.5,0.6,1.2,1,2.1,1c0.9,0,1.6-0.4,2.1-1.1c0.8-1.1,1.3-2.4,1.3-4V201.4z"
						/>
				</g>
				<g id="XMLID_00000099649656675970071600000010430939073445983144_">
					<path id="XMLID_00000047743430352118640160000008711476718575855039_" class="st1" d="M85.8,176.3v3.2c0,1.9-0.5,3.7-1.6,5.4
						c-1.1,1.7-2.6,2.6-4.6,2.6c-1.2,0-2.1-0.3-2.9-0.8c-0.8-0.5-1.6-1.5-2.3-2.8c-0.7-1.4-1.1-2.8-1.1-4.4v-3.2
						c0-1.9,0.5-3.7,1.6-5.4c1.1-1.7,2.6-2.6,4.6-2.6c1.2,0,2.1,0.3,2.9,0.8c0.8,0.5,1.6,1.4,2.3,2.8
						C85.4,173.3,85.8,174.8,85.8,176.3z M82.9,176.3c0-1.6-0.4-2.9-1.3-4.1c-0.5-0.6-1.2-1-2.1-1c-0.9,0-1.6,0.4-2.1,1.1
						c-0.8,1.1-1.3,2.4-1.3,4v3.2c0,1.6,0.4,2.9,1.3,4.1c0.5,0.6,1.2,1,2.1,1c0.9,0,1.6-0.4,2.1-1.1c0.8-1.1,1.3-2.4,1.3-4V176.3z"
						/>
					<path id="XMLID_00000178186219168538523210000011668723908471830404_" class="st1" d="M98.3,168.4v15.8h2.9
						c0.7,0,1.2,0.1,1.5,0.4c0.3,0.3,0.4,0.6,0.4,1c0,0.4-0.1,0.8-0.4,1c-0.3,0.3-0.8,0.4-1.5,0.4h-8.7c-0.7,0-1.2-0.1-1.5-0.4
						c-0.3-0.3-0.4-0.6-0.4-1c0-0.4,0.1-0.8,0.4-1c0.3-0.3,0.8-0.4,1.5-0.4h2.9v-12l-2.6,0.7c-0.4,0.1-0.7,0.2-0.9,0.2
						c-0.4,0-0.7-0.1-0.9-0.4c-0.3-0.3-0.4-0.6-0.4-1.1c0-0.4,0.1-0.7,0.3-0.9c0.2-0.2,0.6-0.4,1.2-0.6L98.3,168.4z"/>
					<path id="XMLID_00000146466924148703035240000010952665754396246187_" class="st1" d="M120.3,176.3v3.2c0,1.9-0.5,3.7-1.6,5.4
						c-1.1,1.7-2.6,2.6-4.6,2.6c-1.2,0-2.1-0.3-2.9-0.8c-0.8-0.5-1.6-1.5-2.3-2.8c-0.7-1.4-1.1-2.8-1.1-4.4v-3.2
						c0-1.9,0.5-3.7,1.6-5.4c1.1-1.7,2.6-2.6,4.6-2.6c1.2,0,2.1,0.3,2.9,0.8c0.8,0.5,1.6,1.4,2.3,2.8
						C120,173.3,120.3,174.8,120.3,176.3z M117.5,176.3c0-1.6-0.4-2.9-1.3-4.1c-0.5-0.6-1.2-1-2.1-1c-0.9,0-1.6,0.4-2.1,1.1
						c-0.8,1.1-1.3,2.4-1.3,4v3.2c0,1.6,0.4,2.9,1.3,4.1c0.5,0.6,1.2,1,2.1,1c0.9,0,1.6-0.4,2.1-1.1c0.8-1.1,1.3-2.4,1.3-4V176.3z"
						/>
					<path id="XMLID_00000097480931999205507490000003225553891545007523_" class="st1" d="M137.6,176.3v3.2c0,1.9-0.5,3.7-1.6,5.4
						c-1.1,1.7-2.6,2.6-4.6,2.6c-1.2,0-2.1-0.3-2.9-0.8c-0.8-0.5-1.6-1.5-2.3-2.8c-0.7-1.4-1.1-2.8-1.1-4.4v-3.2
						c0-1.9,0.5-3.7,1.6-5.4c1.1-1.7,2.6-2.6,4.6-2.6c1.2,0,2.1,0.3,2.9,0.8c0.8,0.5,1.6,1.4,2.3,2.8
						C137.3,173.3,137.6,174.8,137.6,176.3z M134.7,176.3c0-1.6-0.4-2.9-1.3-4.1c-0.5-0.6-1.2-1-2.1-1c-0.9,0-1.6,0.4-2.1,1.1
						c-0.8,1.1-1.3,2.4-1.3,4v3.2c0,1.6,0.4,2.9,1.3,4.1c0.5,0.6,1.2,1,2.1,1c0.9,0,1.6-0.4,2.1-1.1c0.8-1.1,1.3-2.4,1.3-4V176.3z"
						/>
				</g>
			</g>
			<g id="XMLID_00000003801364423729551650000008545048053346397855_">
				<g id="XMLID_00000173157796400923186190000006394321239915999368_">
					<path id="XMLID_00000137827326451338245220000007673808465841858234_" class="st1" d="M151.4,143v15.8h2.9
						c0.7,0,1.2,0.1,1.5,0.4c0.3,0.3,0.4,0.6,0.4,1c0,0.4-0.1,0.8-0.4,1c-0.3,0.3-0.8,0.4-1.5,0.4h-8.7c-0.7,0-1.2-0.1-1.5-0.4
						c-0.3-0.3-0.4-0.6-0.4-1c0-0.4,0.1-0.8,0.4-1c0.3-0.3,0.8-0.4,1.5-0.4h2.9v-12l-2.6,0.7c-0.4,0.1-0.7,0.2-0.9,0.2
						c-0.4,0-0.7-0.1-0.9-0.4c-0.3-0.3-0.4-0.6-0.4-1.1c0-0.4,0.1-0.7,0.3-0.9c0.2-0.2,0.6-0.4,1.2-0.6L151.4,143z"/>
					<path id="XMLID_00000101818204341312384510000005662046274704208045_" class="st1" d="M173.5,151v3.2c0,1.9-0.5,3.7-1.6,5.4
						c-1.1,1.7-2.6,2.6-4.6,2.6c-1.2,0-2.1-0.3-2.9-0.8c-0.8-0.5-1.6-1.5-2.3-2.8c-0.7-1.4-1.1-2.8-1.1-4.4V151
						c0-1.9,0.5-3.7,1.6-5.4c1.1-1.7,2.6-2.6,4.6-2.6c1.2,0,2.1,0.3,2.9,0.8c0.8,0.5,1.6,1.4,2.3,2.8
						C173.1,148,173.5,149.4,173.5,151z M170.6,151c0-1.6-0.4-2.9-1.3-4.1c-0.5-0.6-1.2-1-2.1-1c-0.9,0-1.6,0.4-2.1,1.1
						c-0.8,1.1-1.3,2.4-1.3,4v3.2c0,1.6,0.4,2.9,1.3,4.1c0.5,0.6,1.2,1,2.1,1c0.9,0,1.6-0.4,2.1-1.1c0.8-1.1,1.3-2.4,1.3-4V151z"/>
					<path id="XMLID_00000009550601117072519190000017229029581807860159_" class="st1" d="M185.9,143v15.8h2.9
						c0.7,0,1.2,0.1,1.5,0.4c0.3,0.3,0.4,0.6,0.4,1c0,0.4-0.1,0.8-0.4,1c-0.3,0.3-0.8,0.4-1.5,0.4h-8.7c-0.7,0-1.2-0.1-1.5-0.4
						c-0.3-0.3-0.4-0.6-0.4-1c0-0.4,0.1-0.8,0.4-1c0.3-0.3,0.8-0.4,1.5-0.4h2.9v-12l-2.6,0.7c-0.4,0.1-0.7,0.2-0.9,0.2
						c-0.4,0-0.7-0.1-0.9-0.4c-0.3-0.3-0.4-0.6-0.4-1.1c0-0.4,0.1-0.7,0.3-0.9c0.2-0.2,0.6-0.4,1.2-0.6L185.9,143z"/>
					<path id="XMLID_00000031201530280611465700000014890021567558763928_" class="st1" d="M208,151v3.2c0,1.9-0.5,3.7-1.6,5.4
						c-1.1,1.7-2.6,2.6-4.6,2.6c-1.2,0-2.1-0.3-2.9-0.8c-0.8-0.5-1.6-1.5-2.3-2.8c-0.7-1.4-1.1-2.8-1.1-4.4V151
						c0-1.9,0.5-3.7,1.6-5.4c1.1-1.7,2.6-2.6,4.6-2.6c1.2,0,2.1,0.3,2.9,0.8c0.8,0.5,1.6,1.4,2.3,2.8C207.7,148,208,149.4,208,151z
						 M205.1,151c0-1.6-0.4-2.9-1.3-4.1c-0.5-0.6-1.2-1-2.1-1c-0.9,0-1.6,0.4-2.1,1.1c-0.8,1.1-1.3,2.4-1.3,4v3.2
						c0,1.6,0.4,2.9,1.3,4.1c0.5,0.6,1.2,1,2.1,1c0.9,0,1.6-0.4,2.1-1.1c0.8-1.1,1.3-2.4,1.3-4V151z"/>
				</g>
				<g id="XMLID_00000098191158335032388200000007721435389587459504_">
					<path id="XMLID_00000042000373522921851090000011237747589804166040_" class="st1" d="M156.2,201.4v3.2c0,1.9-0.5,3.7-1.6,5.4
						c-1.1,1.7-2.6,2.6-4.6,2.6c-1.2,0-2.1-0.3-2.9-0.8c-0.8-0.5-1.6-1.5-2.3-2.8c-0.7-1.4-1.1-2.8-1.1-4.4v-3.2
						c0-1.9,0.5-3.7,1.6-5.4c1.1-1.7,2.6-2.6,4.6-2.6c1.2,0,2.1,0.3,2.9,0.8c0.8,0.5,1.6,1.4,2.3,2.8
						C155.9,198.4,156.2,199.8,156.2,201.4z M153.3,201.4c0-1.6-0.4-2.9-1.3-4.1c-0.5-0.6-1.2-1-2.1-1c-0.9,0-1.6,0.4-2.1,1.1
						c-0.8,1.1-1.3,2.4-1.3,4v3.2c0,1.6,0.4,2.9,1.3,4.1c0.5,0.6,1.2,1,2.1,1c0.9,0,1.6-0.4,2.1-1.1c0.8-1.1,1.3-2.4,1.3-4V201.4z"
						/>
					<path id="XMLID_00000029020284472807089890000007881825364120700599_" class="st1" d="M168.7,193.4v15.8h2.9
						c0.7,0,1.2,0.1,1.5,0.4c0.3,0.3,0.4,0.6,0.4,1c0,0.4-0.1,0.8-0.4,1c-0.3,0.3-0.8,0.4-1.5,0.4h-8.7c-0.7,0-1.2-0.1-1.5-0.4
						c-0.3-0.3-0.4-0.6-0.4-1c0-0.4,0.1-0.8,0.4-1c0.3-0.3,0.8-0.4,1.5-0.4h2.9v-12l-2.6,0.7c-0.4,0.1-0.7,0.2-0.9,0.2
						c-0.4,0-0.7-0.1-0.9-0.4c-0.3-0.3-0.4-0.6-0.4-1.1c0-0.4,0.1-0.7,0.3-0.9c0.2-0.2,0.6-0.4,1.2-0.6L168.7,193.4z"/>
					<path id="XMLID_00000073679419805554897010000008744088111558859958_" class="st1" d="M185.9,193.4v15.8h2.9
						c0.7,0,1.2,0.1,1.5,0.4c0.3,0.3,0.4,0.6,0.4,1c0,0.4-0.1,0.8-0.4,1c-0.3,0.3-0.8,0.4-1.5,0.4h-8.7c-0.7,0-1.2-0.1-1.5-0.4
						c-0.3-0.3-0.4-0.6-0.4-1c0-0.4,0.1-0.8,0.4-1c0.3-0.3,0.8-0.4,1.5-0.4h2.9v-12l-2.6,0.7c-0.4,0.1-0.7,0.2-0.9,0.2
						c-0.4,0-0.7-0.1-0.9-0.4c-0.3-0.3-0.4-0.6-0.4-1.1c0-0.4,0.1-0.7,0.3-0.9c0.2-0.2,0.6-0.4,1.2-0.6L185.9,193.4z"/>
					<path id="XMLID_00000164505955653975307240000004912088240165491091_" class="st1" d="M208,201.4v3.2c0,1.9-0.5,3.7-1.6,5.4
						c-1.1,1.7-2.6,2.6-4.6,2.6c-1.2,0-2.1-0.3-2.9-0.8c-0.8-0.5-1.6-1.5-2.3-2.8c-0.7-1.4-1.1-2.8-1.1-4.4v-3.2
						c0-1.9,0.5-3.7,1.6-5.4c1.1-1.7,2.6-2.6,4.6-2.6c1.2,0,2.1,0.3,2.9,0.8c0.8,0.5,1.6,1.4,2.3,2.8
						C207.7,198.4,208,199.8,208,201.4z M205.1,201.4c0-1.6-0.4-2.9-1.3-4.1c-0.5-0.6-1.2-1-2.1-1c-0.9,0-1.6,0.4-2.1,1.1
						c-0.8,1.1-1.3,2.4-1.3,4v3.2c0,1.6,0.4,2.9,1.3,4.1c0.5,0.6,1.2,1,2.1,1c0.9,0,1.6-0.4,2.1-1.1c0.8-1.1,1.3-2.4,1.3-4V201.4z"
						/>
				</g>
				<g id="XMLID_00000002379651363404811070000007434354113788086199_">
					<path id="XMLID_00000032620712081686166050000010825976555586995110_" class="st1" d="M156.2,176.3v3.2c0,1.9-0.5,3.7-1.6,5.4
						c-1.1,1.7-2.6,2.6-4.6,2.6c-1.2,0-2.1-0.3-2.9-0.8c-0.8-0.5-1.6-1.5-2.3-2.8c-0.7-1.4-1.1-2.8-1.1-4.4v-3.2
						c0-1.9,0.5-3.7,1.6-5.4c1.1-1.7,2.6-2.6,4.6-2.6c1.2,0,2.1,0.3,2.9,0.8c0.8,0.5,1.6,1.4,2.3,2.8
						C155.9,173.3,156.2,174.8,156.2,176.3z M153.3,176.3c0-1.6-0.4-2.9-1.3-4.1c-0.5-0.6-1.2-1-2.1-1c-0.9,0-1.6,0.4-2.1,1.1
						c-0.8,1.1-1.3,2.4-1.3,4v3.2c0,1.6,0.4,2.9,1.3,4.1c0.5,0.6,1.2,1,2.1,1c0.9,0,1.6-0.4,2.1-1.1c0.8-1.1,1.3-2.4,1.3-4V176.3z"
						/>
					<path id="XMLID_00000127015748414919574890000008812958403497436086_" class="st1" d="M168.7,168.4v15.8h2.9
						c0.7,0,1.2,0.1,1.5,0.4c0.3,0.3,0.4,0.6,0.4,1c0,0.4-0.1,0.8-0.4,1c-0.3,0.3-0.8,0.4-1.5,0.4h-8.7c-0.7,0-1.2-0.1-1.5-0.4
						c-0.3-0.3-0.4-0.6-0.4-1c0-0.4,0.1-0.8,0.4-1c0.3-0.3,0.8-0.4,1.5-0.4h2.9v-12l-2.6,0.7c-0.4,0.1-0.7,0.2-0.9,0.2
						c-0.4,0-0.7-0.1-0.9-0.4c-0.3-0.3-0.4-0.6-0.4-1.1c0-0.4,0.1-0.7,0.3-0.9c0.2-0.2,0.6-0.4,1.2-0.6L168.7,168.4z"/>
					<path id="XMLID_00000139256308264901669450000015898820590414267010_" class="st1" d="M190.8,176.3v3.2c0,1.9-0.5,3.7-1.6,5.4
						c-1.1,1.7-2.6,2.6-4.6,2.6c-1.2,0-2.1-0.3-2.9-0.8c-0.8-0.5-1.6-1.5-2.3-2.8c-0.7-1.4-1.1-2.8-1.1-4.4v-3.2
						c0-1.9,0.5-3.7,1.6-5.4s2.6-2.6,4.6-2.6c1.2,0,2.1,0.3,2.9,0.8c0.8,0.5,1.6,1.4,2.3,2.8C190.4,173.3,190.8,174.8,190.8,176.3z
						 M187.9,176.3c0-1.6-0.4-2.9-1.3-4.1c-0.5-0.6-1.2-1-2.1-1c-0.9,0-1.6,0.4-2.1,1.1c-0.8,1.1-1.3,2.4-1.3,4v3.2
						c0,1.6,0.4,2.9,1.3,4.1c0.5,0.6,1.2,1,2.1,1c0.9,0,1.6-0.4,2.1-1.1c0.8-1.1,1.3-2.4,1.3-4V176.3z"/>
					<path id="XMLID_00000052081540201952911480000011020400108874035849_" class="st1" d="M208,176.3v3.2c0,1.9-0.5,3.7-1.6,5.4
						c-1.1,1.7-2.6,2.6-4.6,2.6c-1.2,0-2.1-0.3-2.9-0.8c-0.8-0.5-1.6-1.5-2.3-2.8c-0.7-1.4-1.1-2.8-1.1-4.4v-3.2
						c0-1.9,0.5-3.7,1.6-5.4c1.1-1.7,2.6-2.6,4.6-2.6c1.2,0,2.1,0.3,2.9,0.8c0.8,0.5,1.6,1.4,2.3,2.8
						C207.7,173.3,208,174.8,208,176.3z M205.1,176.3c0-1.6-0.4-2.9-1.3-4.1c-0.5-0.6-1.2-1-2.1-1c-0.9,0-1.6,0.4-2.1,1.1
						c-0.8,1.1-1.3,2.4-1.3,4v3.2c0,1.6,0.4,2.9,1.3,4.1c0.5,0.6,1.2,1,2.1,1c0.9,0,1.6-0.4,2.1-1.1c0.8-1.1,1.3-2.4,1.3-4V176.3z"
						/>
				</g>
			</g>
		</g>
	</g>
	<path class="st2" d="M189.7,363.9c0,0,2.8,46.8,2.8,49.1c0,2.3,2.2,55.5,2.2,55.5H176"/>
	<polyline class="st2" points="232.4,363.9 229.4,416.2 227.4,468.4 245,468.4 	"/>
	<path class="st3" d="M281.7,276.5H134.5c-6.6,0-12-5.4-12-12v-14.3c0-6.6,5.4-12,12-12h147.3c6.6,0,12,5.4,12,12v14.3
		C293.7,271.1,288.3,276.5,281.7,276.5z"/>
	<g>
		<ellipse class="st4" cx="209.7" cy="366.7" rx="63" ry="27.2"/>
		<ellipse class="st5" cx="209" cy="131.6" rx="75.3" ry="29.9"/>
		<path class="st6" d="M133.8,131.6c0,16.5,33.7,29.9,75.3,29.9s75.3-13.4,75.3-29.9c0,0,0.4,216.6,0,221.3
			c-1.5,16.4-33.7,29.9-75.3,29.9s-75.3-13.4-75.3-29.9V131.6z"/>
		<path class="st7" d="M146.6,350.8V184l0-35.7c2.4,1.4,5,2.7,7.9,3.9l0,15v190l0,16.3c-2.9-1.2-5.5-2.5-7.9-3.9L146.6,350.8z"/>
		<path class="st7" d="M181.4,336.6V166.5l0-7.1c-2.7-0.4-5.4-0.9-7.9-1.5l0,6.4v171.8l0,43.1c2.6,0.5,5.2,1,7.9,1.5L181.4,336.6z"
			/>
		<path class="st7" d="M216,378.7V168.7l0-7.2c-2.3,0.1-4.6,0.1-7,0.1c-0.3,0-0.6,0-0.9,0l0,7.1v209.9v4.3c0.3,0,0.6,0,0.9,0
			c2.4,0,4.7,0,7-0.1V378.7z"/>
		<polygon class="st7" points="237,380.7 237,159.4 244.9,157.9 244.9,379.1 		"/>
		<path class="st7" d="M264.8,354.2v18.5c2.4-1.1,6.3-3.3,7.9-4.3l0-14.2V168.9l0-21.2c-2.3,1.4-5,2.7-7.9,4.1"/>
	</g>
	<path class="st3" d="M131.1,298.4v55c0,16.5,35.2,29.9,78.6,29.9s77-13.5,78.6-29.9c0.2-1.5,0.2-25.9,0.2-57.9l-0.2-37.8
		c0,16.5-35.2,29.9-78.6,29.9s-78.6-13.4-78.6-29.9V298.4z"/>
	<path id="XMLID_00000121964083141142526810000008372686667369058483_" class="st8" d="M246.4,232.9"/>
	<path id="XMLID_00000168080738401663737390000015624247686562941374_" class="st8" d="M259.1,251"/>
	<g>
		<path class="st9" d="M153.7,182.6c-0.4,0-0.8-0.1-1.2-0.2c-1.8-0.7-2.7-2.6-2.1-4.4c3-8.2,12.8-16.4,25.9-16.4c0.1,0,0.3,0,0.4,0
			c1.9,0,3.4,1.6,3.4,3.5c0,1.9-1.6,3.5-3.5,3.4c-0.1,0-0.2,0-0.3,0c-11,0-17.7,7.2-19.4,11.8C156.4,181.7,155.1,182.6,153.7,182.6z
			"/>
	</g>
	<g>
		<path class="st9" d="M264.8,182.6c-1.4,0-2.7-0.9-3.3-2.3c-1.7-4.7-8.5-12-19.7-11.8c-1.9,0.1-3.5-1.5-3.5-3.4
			c0-1.9,1.5-3.5,3.4-3.5c0.1,0,0.3,0,0.4,0c13.1,0,22.9,8.2,25.9,16.4c0.7,1.8-0.3,3.8-2.1,4.4
			C265.6,182.5,265.2,182.6,264.8,182.6z"/>
	</g>
	<g>
		<path class="st10" d="M170.4,238.5c0,0.2,0,0.4,0,0.7c0,17.4,17.8,31.5,39.9,31.5s39.9-14.1,39.9-31.5c0-0.2,0-0.4,0-0.7H170.4z"
			/>
		<path class="st11" d="M170.3,238.3c0,0.2,0,0.6,0,0.8c0,3.8,0.8,7.4,2.4,10.8h75.1c1.5-3.4,2.4-7,2.4-10.8c0-0.2,0-0.6,0-0.8
			H170.3z"/>
		<path class="st8" d="M210.2,270.6c9.4,0,18.1-2.6,24.9-6.9c-1.4-1.4-3-2.7-4.8-3.9c-8.1-5.5-17.4-6.4-22.9-2.8
			c-7.8-2.7-15.4-1.6-18.8,3.5c-0.9,1.3-1.4,2.7-1.6,4.3C193.7,268.5,201.6,270.6,210.2,270.6z"/>
	</g>
	<circle class="st11" cx="179.4" cy="204.1" r="20"/>
	<path class="st10" d="M186.6,204.1c0,4-3.2,7.2-7.2,7.2c-4,0-7.2-3.2-7.2-7.2c0-4,3.2-7.2,7.2-7.2
		C183.4,196.9,186.6,200.1,186.6,204.1z"/>
	<path class="st2" d="M136.3,287"/>
	<path class="st2" d="M136.1,378.1"/>
	<circle class="st11" cx="237.2" cy="204.1" r="20"/>
	<path class="st10" d="M244.4,204.1c0,4-3.2,7.2-7.2,7.2c-4,0-7.2-3.2-7.2-7.2c0-4,3.2-7.2,7.2-7.2
		C241.1,196.9,244.4,200.1,244.4,204.1z"/>
	<g>
		<g id="mask_00000073719878447484422180000003606430179798423463_">
			<g>
				<linearGradient id="SVGID_1_" gradientUnits="userSpaceOnUse" x1="238.1973" y1="228.2655" x2="238.1973" y2="179.434">
					<stop  offset="0.3618" style="stop-color:#FFFFFF"/>
					<stop  offset="0.4151" style="stop-color:#F5F9FC"/>
					<stop  offset="0.5063" style="stop-color:#DAE8F4"/>
					<stop  offset="0.624" style="stop-color:#AECDE6"/>
					<stop  offset="0.7639" style="stop-color:#70A7D4"/>
					<stop  offset="0.9207" style="stop-color:#2378BD"/>
					<stop  offset="0.9878" style="stop-color:#0062B2"/>
				</linearGradient>
				<circle class="st12" cx="238.2" cy="203.8" r="24.4"/>
				
					<linearGradient id="SVGID_00000150821687105366306640000006884076583006705034_" gradientUnits="userSpaceOnUse" x1="179.0607" y1="228.2655" x2="179.0607" y2="179.434">
					<stop  offset="0.3618" style="stop-color:#FFFFFF"/>
					<stop  offset="0.4151" style="stop-color:#F5F9FC"/>
					<stop  offset="0.5063" style="stop-color:#DAE8F4"/>
					<stop  offset="0.624" style="stop-color:#AECDE6"/>
					<stop  offset="0.7639" style="stop-color:#70A7D4"/>
					<stop  offset="0.9207" style="stop-color:#2378BD"/>
					<stop  offset="0.9878" style="stop-color:#0062B2"/>
				</linearGradient>
				
					<circle style="opacity:0.2;fill:url(#SVGID_00000150821687105366306640000006884076583006705034_);" cx="179.1" cy="203.8" r="24.4"/>
				<polygon class="st14" points="153.6,204.3 133.8,195 133.8,190.7 155,201.4 				"/>
				<polygon class="st14" points="263.5,204.3 284.5,195 284.5,191.4 262.2,201.4 				"/>
				<path class="st14" d="M153,204.1c0,14.4,11.7,26.1,26.1,26.1c12.8,0,23.6-9.2,25.7-21.8l0.1-0.8h7.5l0.1,0.8
					c2.1,12.6,12.9,21.8,25.7,21.8c14.4,0,26.1-11.7,26.1-26.1c0-14.4-11.7-26.1-26.1-26.1c-14.1,0-25.6,11.1-26,25.2l0,0.9h-7.1
					l0-0.9c-0.5-14.1-11.9-25.2-26-25.2C164.7,178,153,189.7,153,204.1z M222.3,188.1c4.3-4.3,9.9-6.6,15.9-6.6
					c6,0,11.7,2.3,15.9,6.6c4.3,4.3,6.6,9.9,6.6,15.9c0,6-2.3,11.7-6.6,15.9l0,0c-4.3,4.3-9.9,6.6-15.9,6.6c-6,0-11.7-2.3-15.9-6.6
					c-4.3-4.3-6.6-9.9-6.6-15.9C215.7,198.1,218.1,192.4,222.3,188.1z M179.1,181.5c6,0,11.7,2.3,16,6.6c4.3,4.3,6.6,9.9,6.6,15.9
					c0,6-2.3,11.7-6.6,15.9l0,0c-4.3,4.3-9.9,6.6-16,6.6c-6,0-11.7-2.3-15.9-6.6c-4.3-4.3-6.6-9.9-6.6-15.9c0-6,2.3-11.7,6.6-15.9
					C167.4,183.9,173,181.5,179.1,181.5z"/>
				<path class="st15" d="M220.9,193.2c3.5-5.3,7.1-6.8,7.1-6.8l2.8,2.1c0,0-3.4,2.3-5.7,6.3c-2.3,3.8-2.6,7-2.6,7l-4.6-0.9
					C217.9,200.9,218.1,197.3,220.9,193.2z"/>
				<path class="st16" d="M161.8,193.2c3.5-5.3,7-6.8,7-6.8l2.9,2.1c0,0-3.4,2.3-5.7,6.3c-2.3,3.8-2.6,7-2.6,7l-4.6-0.9
					C158.7,200.9,159,197.3,161.8,193.2z"/>
			</g>
		</g>
	</g>
	<g>
		<path class="st2" d="M134.8,283.5L134.8,283.5c0,0-29.5,20.6-23.4,34.2"/>
	</g>
	<g>
		<g>
			<path class="st17" d="M69.3,337.1C69.3,337.1,69.3,337.1,69.3,337.1L69.3,337.1C69.3,337.1,69.3,337.1,69.3,337.1 M69.2,336.3
				c0,0.1,0,0.2,0,0.4C69.2,336.5,69.2,336.4,69.2,336.3"/>
			<path class="st18" d="M17.1,284c-0.9-1.3-1.4-4.1,3.8-5.3C26.6,277.5,17.8,285,17.1,284z"/>
			<polyline class="st19" points="132.9,318.5 169.5,307.2 66,328.8 132.9,318.5 			"/>
			<path class="st18" d="M170.6,311.3l-38,10.9c-0.8,0.2-1.7-0.2-2-1.1l-0.3-1c-0.2-0.8,0.2-1.7,1.1-2l38-10.9
				c0.8-0.2,1.7,0.2,2,1.1l0.3,1C172,310.2,171.5,311.1,170.6,311.3z"/>
			<path class="st20" d="M130.7,321.2L130.7,321.2c0.2,0.8,1.2,1.2,2.3,0.9l37.4-10.8c1-0.3,1.6-1.2,1.4-2l0,0L130.7,321.2z"/>
			<polyline class="st21" points="133.6,314.2 134.2,315.1 134.4,315.4 169.5,307.2 133.6,314.2 			"/>
			<path class="st22" d="M135.1,316.5c0,0,2,3.3-2.5,5.7C128.9,324.2,132.2,317.3,135.1,316.5z"/>
			<path class="st18" d="M133,320.5l-75.6,16.3c-1.2,0.2-2.3-0.2-3-1.2l-35.4-52.4c-1.1-1.7-0.2-4,1.8-4.4l75.6-16.3
				c1.2-0.2,2.3,0.2,3,1.2l35.4,52.4C135.9,317.7,135,320,133,320.5"/>
			<path class="st23" d="M131.8,322.5l-75.6,16.3c-1.2,0.2-2.3-0.2-3-1.2l-36.1-53.4c-0.8-1.2-0.1-2.8,1.3-3.1l76.8-16.6
				c1.2-0.2,2.3,0.2,3,1.2l35.4,52.4C134.7,319.7,133.8,322.1,131.8,322.5"/>
			<polyline class="st24" points="111.1,284.8 112.8,287.2 111.1,284.8 			"/>
			<path class="st25" d="M71.8,317.3"/>
			<polyline class="st26" points="97.2,330 97.2,330 97.2,329.9 97.2,329.9 97.2,330 			"/>
			<g>
				<polygon class="st18" points="72.4,297.3 72.2,301.1 73.3,301.3 73.4,299.9 77.3,304.1 77.5,300.3 76.3,300 76.3,301.4 				"/>
				<path class="st18" d="M79.3,296.7c-0.8-0.6-1.6-1.1-2.5-1.5c-0.9-0.4-1.9-0.6-2.8-0.7c-1-0.1-1.9,0-2.8,0.3
					c-0.9,0.2-1.6,0.6-2.2,1.2c-0.6,0.5-1,1.1-1.2,1.8c-0.2,0.7-0.3,1.5-0.2,2.2c0.1,0.8,0.4,1.6,0.9,2.4s1.1,1.5,1.9,2.1
					c0.8,0.6,1.6,1.1,2.5,1.5c0.9,0.4,1.9,0.6,2.8,0.7c1,0.1,1.9,0,2.8-0.3c0.9-0.2,1.6-0.6,2.2-1.2c0.6-0.5,1-1.1,1.2-1.8
					c0.2-0.7,0.3-1.5,0.2-2.2c-0.1-0.8-0.4-1.6-0.9-2.4S80.1,297.3,79.3,296.7z M78,305.7l-3.9-4.2l0,0.6l-2.7-0.6l0.3-5.8l3.9,4.2
					l0-0.6l2.6,0.6L78,305.7z"/>
			</g>
		</g>
		<line class="st2" x1="96.4" y1="329.5" x2="83.6" y2="332"/>
		<line class="st2" x1="90.4" y1="330.1" x2="87.9" y2="326.4"/>
		<line class="st2" x1="83.6" y1="332" x2="81.1" y2="328.4"/>
		<line class="st2" x1="97" y1="329.3" x2="94.6" y2="325.6"/>
	</g>
	<g>
		<path class="st2" d="M324.8,325.3L324.8,325.3c0,0-25.4,1.8-32.2-11.5c-10.1-19.7-10.1-30.2-10.1-30.2"/>
	</g>
	<line class="st2" x1="329.4" y1="327" x2="321" y2="327.2"/>
	<line class="st2" x1="329.6" y1="321" x2="321.2" y2="321.2"/>
	<line class="st2" x1="320.5" y1="310.8" x2="319.9" y2="330.5"/>
	<line class="st2" x1="329.4" y1="330.6" x2="321" y2="330.8"/>
	
		<radialGradient id="SVGID_00000013893029216897407690000016802501842611626405_" cx="209.6072" cy="158.7813" r="39.3788" gradientTransform="matrix(1.028679e-13 -1 1.8566 1.909891e-13 -85.1932 368.3885)" gradientUnits="userSpaceOnUse">
		<stop  offset="0" style="stop-color:#FF8C1F"/>
		<stop  offset="1" style="stop-color:#FEAF06"/>
	</radialGradient>
	<path style="fill:url(#SVGID_00000013893029216897407690000016802501842611626405_);" d="M264,152.1c-1.8-37.4-105.4-36-108.7,0.5
		C182.5,164.8,236.9,164.4,264,152.1z"/>
	<g>
		<path class="st11" d="M241.1,321.9c0-1.2-0.2-2.2-0.8-3.1c-0.5-0.9-1.2-1.6-2.2-2.2c-8.3-4.8-16.5-9.5-24.8-14.3
			c-2.2-1.3-4.4-1.2-6.6,0.1c-3.3,1.9-19.8,11.4-24.7,14.2c-2,1.2-3,3-3,5.3v28.8c0,1.1,0.2,2.2,0.7,3c0.5,0.9,1.3,1.7,2.3,2.3
			c4.9,2.9,21.4,12.3,24.7,14.2c2.2,1.3,4.4,1.4,6.6,0.1c8.3-4.8,16.5-9.5,24.8-14.3c1-0.6,1.8-1.3,2.3-2.3c0.5-0.9,0.7-1.9,0.7-3
			L241.1,321.9z"/>
		<g>
			<path class="st3" d="M219,341.3c-1.8,3.1-5.1,5.2-9,5.2c-3.8,0-7.2-2.1-8.9-5.2c-0.9-1.5-1.4-3.2-1.4-5.1
				c0-5.7,4.6-10.3,10.3-10.3c3.8,0,7.1,2.1,8.9,5.1l9-5.2c-3.6-6.2-10.2-10.3-17.9-10.3c-11.4,0-20.6,9.2-20.6,20.6
				c0,3.7,1,7.2,2.7,10.3c3.6,6.2,10.3,10.3,17.9,10.3c7.7,0,14.4-4.2,17.9-10.4L219,341.3z"/>
		</g>
	</g>
</g>
</svg>
