<svg id="Layer_1" data-name="Layer 1" xmlns="http://www.w3.org/2000/svg" xmlns:xlink="http://www.w3.org/1999/xlink" viewBox="0 0 432 576"><defs><style>.cls-1,.cls-2{fill:none;}.cls-2{stroke:#000;stroke-width:8px;}.cls-17,.cls-2{stroke-linecap:round;stroke-linejoin:round;}.cls-3{fill:#e33877;}.cls-4{fill:#ffb7d8;}.cls-5{fill:#ff9ac9;}.cls-6{fill:#ff8c00;}.cls-7{fill:#ffb300;}.cls-8{clip-path:url(#clip-path);}.cls-9{fill:#2d313f;}.cls-10{fill:#feaf06;}.cls-11{fill:#fbd82b;}.cls-12{fill:#ffe278;}.cls-13{fill:#dee7ed;}.cls-14{fill:#cad3d8;}.cls-15{fill:#b12761;}.cls-16{fill:#ffc800;}.cls-17{fill:#701d1d;stroke:#701d1d;stroke-width:2px;}.cls-18{fill:url(#radial-gradient);}.cls-19{fill:#b57817;}</style><clipPath id="clip-path"><path class="cls-1" d="M275,276.65H158s-22.15,64.21-5.6,173.91a8.17,8.17,0,0,0,6.19,6.75c10.18,2.42,33.49,7.23,57.89,7.23s47.7-4.81,57.88-7.23a8.18,8.18,0,0,0,6.2-6.75C297.14,340.86,275,276.65,275,276.65Z"/></clipPath><radialGradient id="radial-gradient" cx="215.1" cy="169.53" r="39.45" gradientTransform="translate(-99.65 384.63) rotate(-90) scale(1 1.86)" gradientUnits="userSpaceOnUse"><stop offset="0" stop-color="#ff8c1f"/><stop offset="1" stop-color="#feaf06"/></radialGradient></defs><path class="cls-2" d="M364.32,311.81s-11.89-4.65-33.5-9.45"/><polyline class="cls-2" points="361.81 305.38 350.66 306.4 358.5 316.91"/><path class="cls-2" d="M193.68,378.72s2.79,46.75,2.78,49,2.2,55.49,2.2,55.49H179.93"/><polyline class="cls-2" points="236.36 378.72 233.37 430.99 231.38 483.26 248.99 483.26"/><path class="cls-2" d="M61.24,313.62s11.89-4.64,33.5-9.44c0,0,21-6.37,36.77-4.3"/><polyline class="cls-2" points="63.76 307.19 74.91 308.21 67.06 318.72"/><path class="cls-3" d="M275,276.65H158s-22.15,64.21-5.6,173.91a8.17,8.17,0,0,0,6.19,6.75c10.18,2.42,33.49,7.23,57.89,7.23s47.7-4.81,57.88-7.23a8.18,8.18,0,0,0,6.2-6.75C297.14,340.86,275,276.65,275,276.65Z"/><path class="cls-4" d="M270.63,418.54c.32,2.58-1.18,3.54-1.06,4.53s1.81,1.57,2.12,4.15-2.24,5.5-7.45,6.14-18.34.4-19.27-7.29,11.76-11.07,17-11.7S270.32,416,270.63,418.54Z"/><path class="cls-5" d="M245,426.32c.89,5.55,8.28,7.08,14.12,7.25-2.9-3.14-7-6.59-11-7.29A8,8,0,0,0,245,426.32Z"/><path class="cls-4" d="M254.55,452.34c2.12-1.5,1.83-3.25,2.65-3.82s2.37.29,4.5-1.2,2.59-5.35-.42-9.65-12-13.9-18.32-9.44-.35,16.15,2.66,20.44S252.42,453.83,254.55,452.34Z"/><path class="cls-5" d="M244.47,427.83c-.07-.11-.15-.21-.22-.3a6.26,6.26,0,0,0-1.29.7c-3.86,2.71-3.16,8.1-1.33,12.87C245,437.05,247.4,432,244.47,427.83Z"/><path class="cls-4" d="M219.6,440c1.49,2.13,3.25,1.84,3.82,2.66s-.29,2.37,1.2,4.49,5.35,2.6,9.64-.42,13.9-12,9.45-18.32S227.56,428,223.27,431,218.11,437.82,219.6,440Z"/><path class="cls-5" d="M242.67,427.21c-3.9-3.39-11-.91-15.89,1.69a34.25,34.25,0,0,0,4.41,1.1h0C236.63,431,240.57,430,242.67,427.21Z"/><path class="cls-4" d="M221,409.85c-1.17,2.32-.08,3.73-.54,4.62s-2.22.86-3.39,3.18.23,5.94,4.91,8.31,17.12,6.61,20.61-.32-7.3-14.4-12-16.76S222.13,407.53,221,409.85Z"/><path class="cls-5" d="M242.64,425.47c2.18-4.65-2-9.53-6.36-12.93C236.48,417.91,237.93,423.86,242.64,425.47Z"/><path class="cls-5" d="M255.32,415.87c-5.26,1.71-10.85,4.88-10.37,10C249.92,426,253.3,420.85,255.32,415.87Z"/><path class="cls-4" d="M252.79,399.6c-2.56-.45-3.59,1-4.58.82s-1.47-1.88-4-2.33-5.62,2-6.52,7.12-1.36,18.29,6.28,19.63,11.66-11.17,12.57-16.34S255.35,400.05,252.79,399.6Z"/><path class="cls-3" d="M246.12,419.72l.58,1.94a1.4,1.4,0,0,0,.91.95l1.93.64a1.41,1.41,0,0,1,.36,2.51l-1.68,1.15a1.41,1.41,0,0,0-.61,1.16v2a1.42,1.42,0,0,1-2.29,1.12l-1.6-1.24a1.41,1.41,0,0,0-1.3-.22l-1.93.62a1.42,1.42,0,0,1-1.77-1.83l.68-1.91a1.4,1.4,0,0,0-.19-1.31L238,423.69a1.42,1.42,0,0,1,1.19-2.25l2,.06a1.44,1.44,0,0,0,1.19-.58l1.2-1.64A1.41,1.41,0,0,1,246.12,419.72Z"/><circle class="cls-6" cx="243.82" cy="425.53" r="3.23" transform="translate(-182.33 182.78) rotate(-30.52)"/><path class="cls-7" d="M245.47,425.4a.35.35,0,0,0-.06.49.32.32,0,0,0,.22.12.33.33,0,0,0,.27-.06,31.32,31.32,0,0,1,8.17-4.33.72.72,0,0,0,.33.15.82.82,0,1,0-.66-.95.37.37,0,0,0,0,.18A31.94,31.94,0,0,0,245.47,425.4Z"/><path class="cls-7" d="M241.08,416.27a.8.8,0,0,0,.48-.61.82.82,0,1,0-1.18.59,18.16,18.16,0,0,0,1.55,7.59c0,.11.09.23.11.28a.36.36,0,0,0,.24.29l.05,0a.34.34,0,0,0,.39-.24c.05-.15,0-.25-.15-.63A17.61,17.61,0,0,1,241.08,416.27Z"/><path class="cls-7" d="M241.67,425.05s-3.86-2.76-5.31-5.73a.75.75,0,0,0,.19-.4.81.81,0,0,0-.66-.94.82.82,0,1,0-.28,1.61h.1c1.55,3.19,5.55,6,5.59,6l.13.05a.35.35,0,0,0,.35-.16A.33.33,0,0,0,241.67,425.05Z"/><path class="cls-7" d="M246.73,414.47a.82.82,0,1,0-1.39.42,34.84,34.84,0,0,0-1.92,8.75.34.34,0,0,0,.28.37h0a.35.35,0,0,0,.37-.32,35,35,0,0,1,1.89-8.56A.81.81,0,0,0,246.73,414.47Z"/><path class="cls-7" d="M250.62,418.08a.82.82,0,0,0,.95-.67.82.82,0,0,0-1.61-.28.77.77,0,0,0,0,.37,34.06,34.06,0,0,0-5.11,6.5.35.35,0,0,0,.12.48l.12,0a.34.34,0,0,0,.36-.16,34.09,34.09,0,0,1,5-6.34A.64.64,0,0,0,250.62,418.08Z"/><path class="cls-7" d="M254.58,422.7a.81.81,0,0,0-.94.67.41.41,0,0,0,0,.19,52.28,52.28,0,0,1-8.26,3.05.35.35,0,0,0,0,.68h.16a51.24,51.24,0,0,0,8.4-3.11.79.79,0,0,0,.34.14.82.82,0,1,0,.28-1.61Z"/><path class="cls-4" d="M248.11,370.82c.2,1.69-.78,2.31-.7,3s1.18,1,1.39,2.72-1.47,3.6-4.88,4-12,.26-12.62-4.78,7.7-7.24,11.11-7.66S247.9,369.13,248.11,370.82Z"/><path class="cls-5" d="M231.33,375.91c.58,3.63,5.41,4.64,9.24,4.74-1.9-2-4.6-4.31-7.22-4.77A5.25,5.25,0,0,0,231.33,375.91Z"/><path class="cls-4" d="M237.57,392.94c1.4-1,1.21-2.12,1.74-2.5s1.55.19,2.95-.78,1.69-3.51-.28-6.32-7.84-9.1-12-6.18-.23,10.57,1.74,13.38S236.18,393.92,237.57,392.94Z"/><path class="cls-5" d="M231,376.9l-.15-.2a4.32,4.32,0,0,0-.84.46c-2.53,1.78-2.07,5.31-.87,8.43C231.32,382.94,232.9,379.63,231,376.9Z"/><path class="cls-4" d="M214.69,384.83c1,1.4,2.13,1.21,2.51,1.74s-.19,1.55.78,2.95,3.5,1.69,6.31-.28,9.11-7.84,6.19-12S219.91,377,217.1,379,213.72,383.44,214.69,384.83Z"/><path class="cls-5" d="M229.8,376.49c-2.55-2.22-7.22-.59-10.41,1.11a22.6,22.6,0,0,0,2.89.72h0C225.85,378.94,228.42,378.31,229.8,376.49Z"/><path class="cls-4" d="M215.59,365.13c-.77,1.52-.06,2.44-.36,3s-1.45.57-2.22,2.09.15,3.88,3.22,5.43,11.2,4.33,13.49-.2-4.78-9.43-7.85-11S216.35,363.61,215.59,365.13Z"/><path class="cls-5" d="M229.78,375.35c1.42-3-1.31-6.24-4.17-8.46C225.75,370.4,226.7,374.3,229.78,375.35Z"/><path class="cls-5" d="M238.08,369.07c-3.45,1.12-7.1,3.2-6.79,6.55C234.54,375.67,236.76,372.33,238.08,369.07Z"/><path class="cls-4" d="M236.42,358.42c-1.67-.3-2.35.65-3,.53s-1-1.23-2.63-1.52-3.68,1.27-4.27,4.66-.89,12,4.11,12.85,7.63-7.31,8.23-10.69S238.1,358.71,236.42,358.42Z"/><path class="cls-3" d="M232.06,371.59l.37,1.27a.92.92,0,0,0,.61.62l1.26.42a.93.93,0,0,1,.23,1.65l-1.1.75a.91.91,0,0,0-.4.76v1.33a.93.93,0,0,1-1.5.73l-1.05-.81a.93.93,0,0,0-.85-.15l-1.27.41a.93.93,0,0,1-1.16-1.2l.45-1.25a.94.94,0,0,0-.12-.86l-.78-1.08a.93.93,0,0,1,.78-1.47l1.33,0a.94.94,0,0,0,.78-.38l.78-1.07A.93.93,0,0,1,232.06,371.59Z"/><path class="cls-6" d="M232.63,375.76a2.12,2.12,0,1,0-2.45,1.72A2.12,2.12,0,0,0,232.63,375.76Z"/><path class="cls-7" d="M231.63,375.3a.25.25,0,0,0,0,.33.29.29,0,0,0,.14.08.2.2,0,0,0,.18,0,21.19,21.19,0,0,1,5.35-2.83.55.55,0,0,0,.22.1.53.53,0,0,0,.62-.44.54.54,0,1,0-1.06-.18.48.48,0,0,0,0,.12A21.47,21.47,0,0,0,231.63,375.3Z"/><path class="cls-7" d="M228.76,369.33a.52.52,0,0,0,.31-.4.53.53,0,0,0-.43-.62.54.54,0,0,0-.62.44.53.53,0,0,0,.28.56,12.13,12.13,0,0,0,1,5c0,.07.07.14.08.18a.24.24,0,0,0,.15.19h0a.21.21,0,0,0,.25-.15c0-.1,0-.17-.1-.41A11.63,11.63,0,0,1,228.76,369.33Z"/><path class="cls-7" d="M229.15,375.08a12.73,12.73,0,0,1-3.48-3.75.48.48,0,0,0,.12-.26.53.53,0,1,0-.62.43h.07a13,13,0,0,0,3.66,3.95.16.16,0,0,0,.09,0,.22.22,0,0,0,.16-.41Z"/><path class="cls-7" d="M232.46,368.15a.54.54,0,0,0-.44-.62.53.53,0,0,0-.47.9,22.76,22.76,0,0,0-1.26,5.73.23.23,0,0,0,.19.24h0a.22.22,0,0,0,.24-.21,23.35,23.35,0,0,1,1.24-5.6A.54.54,0,0,0,232.46,368.15Z"/><path class="cls-7" d="M235,370.51a.52.52,0,1,0-.42-.37,22.13,22.13,0,0,0-3.34,4.25.22.22,0,0,0,.08.31.11.11,0,0,0,.07,0,.23.23,0,0,0,.24-.1,22.14,22.14,0,0,1,3.26-4.15A.35.35,0,0,0,235,370.51Z"/><path class="cls-7" d="M237.6,373.54a.54.54,0,0,0-.62.44.49.49,0,0,0,0,.12,33.64,33.64,0,0,1-5.4,2,.22.22,0,0,0-.16.28.2.2,0,0,0,.18.16h.1a34,34,0,0,0,5.5-2,.62.62,0,0,0,.22.1.54.54,0,0,0,.62-.44A.53.53,0,0,0,237.6,373.54Z"/><g class="cls-8"><path class="cls-4" d="M197.93,379.53c2.17,3.66.56,6.07,1.4,7.48s3.72,1.16,5.89,4.81.27,9.71-7.1,14.08-27.18,12.67-33.64,1.77S174.8,383.38,182.17,379,195.77,375.88,197.93,379.53Z"/><path class="cls-5" d="M164.7,408c5,7.72,17,5.16,25.88,1.56-6.4-2.78-14.82-5.24-21.28-3.65A12.92,12.92,0,0,0,164.7,408Z"/><path class="cls-4" d="M196.08,440.67c2.2-3.63.62-6.06,1.47-7.46s3.73-1.12,5.93-4.75.37-9.71-7-14.15-27-12.92-33.62-2.08,10.09,24.38,17.43,28.82S193.88,444.31,196.08,440.67Z"/><path class="cls-5" d="M164.89,410.63c-.17-.11-.35-.21-.53-.31a11,11,0,0,0-1.47,1.91c-4,6.59.61,14.19,6.48,20.13C171.74,424.09,172,415,164.89,410.63Z"/><path class="cls-4" d="M135.65,445.12c3.64,2.2,6.07.61,7.47,1.46s1.12,3.74,4.75,5.94,9.71.36,14.15-7,12.92-27.06,2.08-33.62S139.72,422,135.28,429.35,132,442.92,135.65,445.12Z"/><path class="cls-5" d="M161.79,410.88c-8.06-2.5-17.1,5.9-22.67,13a54,54,0,0,0,7.33-1.25h0C155.23,420.46,160.47,416.42,161.79,410.88Z"/><path class="cls-4" d="M117.91,399.19c-.23,4.24,2.31,5.63,2.23,7.27s-2.77,2.75-3,7,4.26,8.73,12.82,9.19,29.95-1.36,30.63-14-20.4-16.74-29-17.2S118.13,395,117.91,399.19Z"/><path class="cls-5" d="M160.6,408.3c.2-8.39-9.25-12.95-18-15.16C146.42,401,152.5,409,160.6,408.3Z"/><path class="cls-5" d="M173.26,385.61c-6.74,6-13,14.43-8.94,21.78C171.82,404.25,173.52,394.38,173.26,385.61Z"/><path class="cls-4" d="M158.78,362.92c-4.12,1-4.72,3.86-6.31,4.25s-3.44-1.85-7.56-.84-7.12,6.61-5.08,14.93,10,28.27,22.3,25.25,10.11-24.38,8.07-32.7S162.91,361.91,158.78,362.92Z"/><path class="cls-3" d="M162,397.41l2.13,2.53a2.32,2.32,0,0,0,2,.82l3.3-.32a2.31,2.31,0,0,1,2.19,3.53l-1.75,2.82a2.28,2.28,0,0,0-.16,2.15l1.32,3a2.31,2.31,0,0,1-2.68,3.17l-3.22-.8a2.34,2.34,0,0,0-2.1.52l-2.48,2.2a2.32,2.32,0,0,1-3.85-1.57l-.23-3.31a2.35,2.35,0,0,0-1.14-1.84l-2.86-1.68a2.32,2.32,0,0,1,.31-4.14l3.07-1.25a2.28,2.28,0,0,0,1.39-1.65l.72-3.23A2.32,2.32,0,0,1,162,397.41Z"/><circle class="cls-6" cx="162.41" cy="407.62" r="5.28" transform="translate(-255.24 542.17) rotate(-86.13)"/><path class="cls-7" d="M164.79,406.33a.57.57,0,0,0,.23.77.56.56,0,0,0,.78-.23A50.83,50.83,0,0,1,175.17,395a1.34,1.34,0,1,0,0-2.61,1.35,1.35,0,0,0-.88,1.9A52.61,52.61,0,0,0,164.79,406.33Z"/><path class="cls-7" d="M152.23,395.57a1.36,1.36,0,0,0,.32-1.23,1.34,1.34,0,1,0-1.38,1.65,29.74,29.74,0,0,0,7.3,10.34l.35.34a.58.58,0,0,0,.55.29h.09a.58.58,0,0,0,.43-.61c0-.26-.16-.39-.64-.84A28.55,28.55,0,0,1,152.23,395.57Z"/><path class="cls-7" d="M158.88,408.31c-.08,0-7.59-1.58-11.71-5.07a1.39,1.39,0,0,0,0-.73,1.34,1.34,0,1,0-1,1.62l.16-.06c4.42,3.76,12.26,5.35,12.34,5.36a.49.49,0,0,0,.21,0,.57.57,0,0,0-.05-1.11Z"/><path class="cls-7" d="M159.5,389.15a1.34,1.34,0,1,0-2.6.64,1.3,1.3,0,0,0,.79.91c.14,6.28,2.76,14,2.88,14.35a.56.56,0,0,0,.67.37h0a.56.56,0,0,0,.35-.72c0-.09-2.68-7.94-2.81-14.05A1.35,1.35,0,0,0,159.5,389.15Z"/><path class="cls-7" d="M167.69,392a1.34,1.34,0,1,0-1.62-1,1.4,1.4,0,0,0,.28.54C164,396.68,163,404.3,163,404.64a.57.57,0,0,0,.49.64.47.47,0,0,0,.21,0,.57.57,0,0,0,.43-.48c0-.08,1-7.77,3.29-12.75Z"/><path class="cls-7" d="M176.65,396.31a1.35,1.35,0,0,0-1,1.62,1.26,1.26,0,0,0,.12.29c-3.21,4.15-10.28,9.93-10.35,10a.56.56,0,0,0-.08.8.53.53,0,0,0,.57.19.54.54,0,0,0,.23-.11c.31-.25,7.25-5.93,10.54-10.18a1.18,1.18,0,0,0,.59,0,1.34,1.34,0,0,0-.64-2.6Z"/></g><ellipse class="cls-9" cx="215.77" cy="377.59" rx="63.04" ry="27.19"/><ellipse class="cls-10" cx="215.12" cy="142.53" rx="75.26" ry="29.88"/><path class="cls-11" d="M139.86,142.53c0,16.5,33.7,29.88,75.26,29.88s75.26-13.38,75.26-29.88c0,0,.44,216.63,0,221.3-1.54,16.43-33.69,29.88-75.26,29.88s-75.26-13.38-75.26-29.88Z"/><path class="cls-12" d="M152.73,361.66V159.22a66.26,66.26,0,0,0,7.91,3.89v221.3a66.26,66.26,0,0,1-7.91-3.89Z"/><path class="cls-12" d="M187.51,349V170.35q-4.08-.65-7.91-1.47V392.06q3.83.82,7.91,1.47Z"/><path class="cls-12" d="M222.11,389.55V172.41q-3.45.12-7,.12h-.92v221.3h.92q3.54,0,7-.12Z"/><polygon class="cls-12" points="243.12 391.55 243.12 170.29 251.03 168.82 251.03 390.03 243.12 391.55"/><path class="cls-12" d="M278.8,365.07V158.54a82.73,82.73,0,0,1-7.92,4.05v221c2.38-1.14,6.34-3.3,7.91-4.3Z"/><path class="cls-3" d="M200,297.32c-35.43-2.38-60.09-13.06-60.09-27.56L138,312.19l-1.4,51.46c0,16.5,35.18,29.88,78.59,29.88s77-13.45,78.59-29.88c.15-1.54-3.21-20.31-3.21-52.35V267.94c0,14.53-24.82,26.65-60.41,29.32L213,309.91Z"/><path class="cls-13" d="M172.17,292.38l26.2,35,8.74,4.13,11-11.68-21.71-23.34A120.81,120.81,0,0,0,172.17,292.38Z"/><polygon class="cls-14" points="194.44 322.13 208.82 309.83 215.12 316.84 200.4 330.73 194.44 322.13"/><path class="cls-13" d="M235,296.34,148.67,367s17,10.37,33.5,12l76.12-86.63A125,125,0,0,0,235,296.34Z"/><path class="cls-15" d="M290.62,371,294,386.64a4.13,4.13,0,0,1-.93,3.6c-5,5.69-25.25,23.73-81,23.73-56.13,0-71.6-18.3-75-23.85a4.13,4.13,0,0,1-.54-3L139.79,371l72.29,17.42Z"/><path class="cls-3" d="M294,364.47l3.53,16.33a4.31,4.31,0,0,1-1,3.77c-5.23,5.94-26.42,24.82-84.72,24.82-58.72,0-74.89-19.14-78.45-24.94a4.38,4.38,0,0,1-.56-3.16l3.39-16.82,75.62,18.21Z"/><path class="cls-3" d="M336,324.74l-3-33.89c-39.33-3.51-46.93-9.87-46.93-9.87l-11.22,8-13.1,5-13.13,36.66,35.76-3.17,3.8-4.63c3.15,27.24,14.2,46.25,17.29,52.22a3.14,3.14,0,0,0,2.83,1.69,108.73,108.73,0,0,0,25.38-3.6Z"/><path class="cls-13" d="M340,293.35c.95,10.81,5.16,63-.09,76.87a2.71,2.71,0,0,1-1.72,1.63c-1.58.49-4.67,1.4-8.73,2.3h0c5.05-37-.1-83.64-.1-83.64h0q4.07.42,8.5.74A2.31,2.31,0,0,1,340,293.35Z"/><path class="cls-3" d="M93.88,325l3-33.88c39.33-3.51,46.93-9.87,46.93-9.87L155,289.25l13.1,4.94,13.13,36.66-35.76-3.17-3.79-4.63c-3.16,27.25-14.21,46.26-17.3,52.23a3.15,3.15,0,0,1-2.83,1.69,108.13,108.13,0,0,1-25.38-3.61Z"/><path class="cls-13" d="M89.84,293.57c-1,10.81-5.16,63,.09,76.87a2.71,2.71,0,0,0,1.72,1.62c1.58.5,4.67,1.41,8.73,2.31h0c-5-37,.1-83.65.1-83.65h0q-4.07.42-8.5.74A2.31,2.31,0,0,0,89.84,293.57Z"/><path class="cls-4" d="M130.42,353.2c0,1.18-.79,1.5-.81,1.95s.69.84.64,2-1.4,2.3-3.78,2.21-8.24-1.17-8.09-4.69,6.08-4.08,8.45-4S130.47,352,130.42,353.2Z"/><path class="cls-5" d="M118.38,354.8c0,2.55,3.18,3.78,5.78,4.28-1.07-1.62-2.65-3.46-4.4-4.07A3.74,3.74,0,0,0,118.38,354.8Z"/><path class="cls-4" d="M120.73,367.15c1.07-.51,1.06-1.32,1.47-1.52s1,.31,2.1-.2,1.56-2.21.53-4.35-4.34-7.1-7.51-5.57-1.34,7.2-.31,9.34S119.67,367.66,120.73,367.15Z"/><path class="cls-5" d="M118,355.44c0-.05,0-.11-.08-.15a2.26,2.26,0,0,0-.63.22c-1.93.93-2,3.39-1.54,5.66C117.58,359.6,119,357.52,118,355.44Z"/><path class="cls-4" d="M106,359c.52,1.07,1.32,1.06,1.52,1.47s-.31,1,.21,2.1,2.2,1.56,4.34.53,7.1-4.34,5.58-7.51-7.2-1.34-9.35-.31S105.49,358,106,359Z"/><path class="cls-5" d="M117.27,355c-1.5-1.81-4.87-1.22-7.24-.42a14.56,14.56,0,0,0,1.89.82h0C114.29,356.26,116.12,356.12,117.27,355Z"/><path class="cls-4" d="M108.83,345.66c-.7.95-.32,1.66-.58,2s-1.06.22-1.76,1.18-.33,2.67,1.59,4.07,7.18,4.22,9.25,1.38-2.21-7-4.13-8.39S109.52,344.71,108.83,345.66Z"/><path class="cls-5" d="M117.38,354.24c1.32-1.92-.19-4.41-1.9-6.25C115.18,350.41,115.39,353.18,117.38,354.24Z"/><path class="cls-5" d="M123.76,350.88c-2.48.38-5.21,1.39-5.38,3.72C120.6,355,122.49,353,123.76,350.88Z"/><path class="cls-4" d="M123.83,343.41c-1.12-.39-1.69.19-2.12,0s-.51-.95-1.63-1.34-2.65.46-3.44,2.7-2,8.09,1.37,9.25,6-4.14,6.82-6.39S124.94,343.8,123.83,343.41Z"/><path class="cls-3" d="M119.36,351.93l.12.91a.61.61,0,0,0,.34.49l.81.43a.64.64,0,0,1,0,1.15l-.84.39a.66.66,0,0,0-.36.48l-.15.91a.65.65,0,0,1-1.11.33l-.62-.67a.65.65,0,0,0-.57-.2l-.91.13a.64.64,0,0,1-.66-.94l.45-.81a.64.64,0,0,0,0-.6l-.41-.82a.65.65,0,0,1,.7-.92l.9.17a.62.62,0,0,0,.58-.17l.65-.64A.64.64,0,0,1,119.36,351.93Z"/><circle class="cls-6" cx="117.9" cy="354.36" r="1.47"/><path class="cls-7" d="M118.65,354.42a.17.17,0,0,0-.06.22.16.16,0,0,0,.09.07.17.17,0,0,0,.12,0,14.54,14.54,0,0,1,4-1.34.26.26,0,0,0,.14.09.37.37,0,0,0,.47-.22.37.37,0,0,0-.23-.48.38.38,0,0,0-.47.23.31.31,0,0,0,0,.08A14.69,14.69,0,0,0,118.65,354.42Z"/><path class="cls-7" d="M117.36,350a.38.38,0,0,0,0-.72.38.38,0,0,0-.47.23.36.36,0,0,0,.13.42,8.26,8.26,0,0,0,.13,3.51.5.5,0,0,1,0,.14.16.16,0,0,0,.09.15h0a.17.17,0,0,0,.19-.08c0-.06,0-.11,0-.29A8,8,0,0,1,117.36,350Z"/><path class="cls-7" d="M117,354a8.76,8.76,0,0,1-2-3,.4.4,0,0,0,.12-.16.37.37,0,0,0-.23-.47.36.36,0,0,0-.47.22.37.37,0,0,0,.22.48h0a8.91,8.91,0,0,0,2.06,3.11s0,0,0,0a.14.14,0,0,0,.17,0A.16.16,0,0,0,117,354Z"/><path class="cls-7" d="M120,349.62a.37.37,0,0,0-.7-.24.35.35,0,0,0,.05.33,16.25,16.25,0,0,0-1.51,3.77.16.16,0,0,0,.1.19h0a.16.16,0,0,0,.19-.12,16.34,16.34,0,0,1,1.47-3.69A.36.36,0,0,0,120,349.62Z"/><path class="cls-7" d="M121.5,351.53a.38.38,0,0,0,.47-.23.37.37,0,0,0-.23-.48.38.38,0,0,0-.47.23.52.52,0,0,0,0,.17,15.52,15.52,0,0,0-2.76,2.53.16.16,0,0,0,0,.22l0,0a.17.17,0,0,0,.18,0,14.65,14.65,0,0,1,2.69-2.47Z"/><path class="cls-7" d="M122.93,353.89a.36.36,0,0,0-.47.22.29.29,0,0,0,0,.09,24.2,24.2,0,0,1-3.92.76.15.15,0,0,0-.14.17.17.17,0,0,0,.1.13h.07a22.84,22.84,0,0,0,4-.77.3.3,0,0,0,.13.09.39.39,0,0,0,.48-.23A.37.37,0,0,0,122.93,353.89Z"/><path class="cls-4" d="M133.07,309.39c.64.65.44,1.23.69,1.48s.83,0,1.48.69.57,2-.73,3.3-5,4.08-6.89,2.16.85-5.59,2.14-6.9S132.42,308.75,133.07,309.39Z"/><path class="cls-5" d="M127.69,317.09c1.44,1.33,3.81.16,5.45-1.06a7.89,7.89,0,0,0-4.61.37A2.88,2.88,0,0,0,127.69,317.09Z"/><path class="cls-4" d="M136,322.19c.26-.87-.2-1.29-.1-1.63s.72-.43,1-1.3-.44-2-2.2-2.57-6.31-1.24-7.1,1.36,3.4,4.53,5.16,5.06S135.68,323.06,136,322.19Z"/><path class="cls-5" d="M127.86,317.62l-.12,0a3.35,3.35,0,0,0-.21.47c-.47,1.59.89,2.92,2.43,3.84C130,320.05,129.58,318.13,127.86,317.62Z"/><path class="cls-4" d="M123.63,326.34c.87.26,1.29-.2,1.63-.09s.43.71,1.31,1,2-.45,2.56-2.21,1.24-6.31-1.36-7.09-4.53,3.4-5.06,5.16S122.76,326.08,123.63,326.34Z"/><path class="cls-5" d="M127.23,317.83c-1.8-.09-3.23,2.14-4,3.91a12.4,12.4,0,0,0,1.45-.65h0C126.38,320.17,127.26,319.06,127.23,317.83Z"/><path class="cls-4" d="M117.49,317.75c.18.89.79,1.05.86,1.39s-.43.72-.25,1.61,1.35,1.59,3.15,1.23,6.15-1.89,5.61-4.55-5.13-2.39-6.93-2S117.31,316.86,117.49,317.75Z"/><path class="cls-5" d="M126.85,317.36c-.41-1.75-2.61-2.19-4.55-2.19C123.51,316.61,125.2,317.94,126.85,317.36Z"/><path class="cls-5" d="M128.27,312c-1.08,1.61-1.94,3.7-.7,5C129,315.92,128.79,313.78,128.27,312Z"/><path class="cls-4" d="M124.05,308c-.8.43-.78,1.06-1.09,1.22s-.81-.2-1.61.23-1.13,1.75-.26,3.37,3.59,5.34,6,4.06.8-5.61-.07-7.23S124.85,307.6,124.05,308Z"/><path class="cls-3" d="M126.56,315l.58.41a.51.51,0,0,0,.46.07l.67-.24a.49.49,0,0,1,.64.61l-.21.68a.5.5,0,0,0,.08.46l.44.56a.5.5,0,0,1-.39.8h-.71a.51.51,0,0,0-.41.21l-.4.59a.5.5,0,0,1-.88-.12l-.22-.67a.5.5,0,0,0-.34-.32l-.68-.2A.5.5,0,0,1,125,317l.57-.42a.49.49,0,0,0,.2-.42l0-.71A.49.49,0,0,1,126.56,315Z"/><circle class="cls-6" cx="127.19" cy="317.12" r="1.13"/><path class="cls-7" d="M127.61,316.73a.14.14,0,0,0,.09.15h.09a.16.16,0,0,0,.06-.08,11,11,0,0,1,1.32-3l.12,0a.29.29,0,1,0-.39-.12.1.1,0,0,0,0,.05A11.61,11.61,0,0,0,127.61,316.73Z"/><path class="cls-7" d="M124.43,315.16a.29.29,0,0,0,0-.27.29.29,0,1,0-.51.27.29.29,0,0,0,.31.15,6.5,6.5,0,0,0,2.07,1.76l.09.05a.13.13,0,0,0,.13,0h0a.13.13,0,0,0,.06-.15c0-.05-.06-.07-.18-.14A5.93,5.93,0,0,1,124.43,315.16Z"/><path class="cls-7" d="M126.49,317.45a6.63,6.63,0,0,1-2.7-.42.26.26,0,0,0,0-.15.27.27,0,0,0-.38-.12.28.28,0,0,0-.12.39.28.28,0,0,0,.39.11l0,0a6.94,6.94,0,0,0,2.85.46l0,0a.14.14,0,0,0,.07-.12A.14.14,0,0,0,126.49,317.45Z"/><path class="cls-7" d="M125.6,313.44a.29.29,0,1,0-.3.42,12.62,12.62,0,0,0,1.37,2.83.12.12,0,0,0,.16,0h0a.11.11,0,0,0,0-.16,12.42,12.42,0,0,1-1.33-2.77A.3.3,0,0,0,125.6,313.44Z"/><path class="cls-7" d="M127.45,313.6a.29.29,0,1,0-.39-.12.28.28,0,0,0,.09.1,11.65,11.65,0,0,0,0,2.89.11.11,0,0,0,.13.11h0a.14.14,0,0,0,.07-.13,12.08,12.08,0,0,1,0-2.82Z"/><path class="cls-7" d="M129.54,314a.28.28,0,0,0-.11.39.21.21,0,0,0,0,.06,18.14,18.14,0,0,1-1.62,2.62.14.14,0,0,0,0,.18.12.12,0,0,0,.13,0s0,0,0,0a17.38,17.38,0,0,0,1.65-2.68.27.27,0,0,0,.12,0,.29.29,0,0,0,.12-.39A.29.29,0,0,0,129.54,314Z"/><path class="cls-4" d="M151.93,298.52c.28.28.19.53.3.64s.36,0,.64.29.25.87-.31,1.43-2.16,1.77-3,.94.37-2.42.93-3S151.65,298.24,151.93,298.52Z"/><path class="cls-5" d="M149.6,301.85c.63.58,1.65.07,2.36-.46a3.46,3.46,0,0,0-2,.16A1.31,1.31,0,0,0,149.6,301.85Z"/><path class="cls-4" d="M153.18,304.06c.11-.38-.09-.56,0-.7s.31-.19.42-.57-.19-.88-.95-1.11-2.74-.54-3.08.59,1.48,2,2.24,2.19S153.06,304.44,153.18,304.06Z"/><path class="cls-5" d="M149.68,302.08l-.06,0-.09.21c-.2.68.39,1.26,1.05,1.66C150.6,303.13,150.42,302.3,149.68,302.08Z"/><path class="cls-4" d="M147.84,305.86c.38.11.56-.09.71,0s.19.31.56.42.89-.19,1.12-.95.53-2.74-.59-3.08-2,1.48-2.19,2.24S147.47,305.74,147.84,305.86Z"/><path class="cls-5" d="M149.4,302.17c-.78,0-1.4.93-1.74,1.7a6,6,0,0,0,.64-.29h0C149,303.19,149.41,302.7,149.4,302.17Z"/><path class="cls-4" d="M145.19,302.14c.07.38.33.45.36.6s-.18.31-.1.7.58.68,1.36.53,2.67-.82,2.43-2-2.22-1-3-.88S145.11,301.75,145.19,302.14Z"/><path class="cls-5" d="M149.24,302c-.18-.76-1.13-1-2-1C147.79,301.64,148.52,302.22,149.24,302Z"/><path class="cls-5" d="M149.85,299.63c-.47.7-.84,1.6-.3,2.17C150.15,301.34,150.08,300.42,149.85,299.63Z"/><path class="cls-4" d="M148,297.93c-.34.18-.33.45-.47.53s-.35-.09-.7.1-.48.75-.11,1.46,1.56,2.31,2.59,1.75.35-2.43,0-3.13S148.37,297.74,148,297.93Z"/><path class="cls-3" d="M149.11,301l.26.17a.17.17,0,0,0,.19,0l.29-.1a.21.21,0,0,1,.28.26l-.09.3a.21.21,0,0,0,0,.19l.19.25a.21.21,0,0,1-.16.34h-.31a.21.21,0,0,0-.18.09l-.17.26a.21.21,0,0,1-.38-.05l-.1-.3a.23.23,0,0,0-.15-.14l-.29-.08a.22.22,0,0,1-.07-.38l.25-.18a.22.22,0,0,0,.08-.18v-.31A.21.21,0,0,1,149.11,301Z"/><circle class="cls-6" cx="149.38" cy="301.87" r="0.49"/><path class="cls-7" d="M149.57,301.69a.06.06,0,0,0,0,.07h0s0,0,0,0a4.64,4.64,0,0,1,.57-1.28l0,0a.11.11,0,0,0,.06-.16.14.14,0,0,0-.17-.06.12.12,0,0,0-.05.17v0A4.92,4.92,0,0,0,149.57,301.69Z"/><path class="cls-7" d="M148.19,301a.13.13,0,1,0-.22,0,.12.12,0,0,0,.13.06,2.65,2.65,0,0,0,.9.76l0,0s0,0,.06,0h0a0,0,0,0,0,0-.06s0,0-.08-.06A2.73,2.73,0,0,1,148.19,301Z"/><path class="cls-7" d="M149.08,302a3,3,0,0,1-1.17-.19.13.13,0,0,0,0-.06.12.12,0,0,0-.17-.05.13.13,0,0,0,0,.17.13.13,0,0,0,.17.05h0a3.07,3.07,0,0,0,1.23.19h0a.05.05,0,0,0,0-.05A.06.06,0,0,0,149.08,302Z"/><path class="cls-7" d="M148.69,300.27a.12.12,0,0,0-.16,0,.12.12,0,0,0-.05.17.11.11,0,0,0,.09.06,5.52,5.52,0,0,0,.59,1.23,0,0,0,0,0,.07,0h0s0-.05,0-.07a4.94,4.94,0,0,1-.58-1.2A.12.12,0,0,0,148.69,300.27Z"/><path class="cls-7" d="M149.5,300.34a.13.13,0,1,0-.17,0l0,0a4.8,4.8,0,0,0,0,1.25.05.05,0,0,0,0,.05h0a.05.05,0,0,0,0-.05,5,5,0,0,1,0-1.22Z"/><path class="cls-7" d="M150.4,300.52a.13.13,0,0,0-.05.17l0,0a7.24,7.24,0,0,1-.7,1.14,0,0,0,0,0,0,.07,0,0,0,0,0,.06,0l0,0a8.14,8.14,0,0,0,.71-1.16h.05a.13.13,0,1,0-.12-.22Z"/><path class="cls-4" d="M116.66,299.7c0,.65-.4.84-.4,1.09s.4.44.41,1.09-.72,1.3-2,1.3-4.56-.45-4.56-2.38,3.24-2.4,4.55-2.4S116.66,299.05,116.66,299.7Z"/><path class="cls-5" d="M110.08,300.86c0,1.4,1.84,2,3.28,2.22a5.61,5.61,0,0,0-2.51-2.14A2.07,2.07,0,0,0,110.08,300.86Z"/><path class="cls-4" d="M111.67,307.59c.57-.3.55-.75.77-.86s.58.14,1.15-.17.8-1.25.18-2.4-2.55-3.8-4.26-2.89-.56,4,0,5.15S111.1,307.9,111.67,307.59Z"/><path class="cls-5" d="M109.9,301.22a.22.22,0,0,0-.05-.08,1.81,1.81,0,0,0-.34.13c-1,.56-1,1.92-.71,3.15C109.75,303.52,110.5,302.34,109.9,301.22Z"/><path class="cls-4" d="M103.38,303.48c.3.57.74.55.86.77s-.14.58.17,1.15,1.24.81,2.4.19,3.8-2.56,2.89-4.26-4-.57-5.15.05S103.07,302.91,103.38,303.48Z"/><path class="cls-5" d="M109.47,301c-.86-1-2.7-.55-4-.05a9.63,9.63,0,0,0,1.06.4h0C107.87,301.76,108.87,301.64,109.47,301Z"/><path class="cls-4" d="M104.61,296.06c-.36.54-.13.92-.27,1.13s-.58.15-.94.69-.12,1.48,1,2.2,4,2.15,5.12.54-1.38-3.79-2.47-4.51S105,295.52,104.61,296.06Z"/><path class="cls-5" d="M109.52,300.58c.68-1.09-.21-2.42-1.19-3.39C108.22,298.52,108.4,300,109.52,300.58Z"/><path class="cls-5" d="M113,298.58c-1.36.27-2.84.89-2.87,2.17C111.31,300.92,112.3,299.75,113,298.58Z"/><path class="cls-4" d="M112.8,294.47c-.62-.19-.92.14-1.16.07s-.3-.51-.92-.7-1.45.32-1.83,1.57-.89,4.49,1,5,3.22-2.42,3.6-3.67S113.43,294.66,112.8,294.47Z"/><path class="cls-3" d="M110.55,299.26l.09.5a.35.35,0,0,0,.2.26l.45.21a.36.36,0,0,1,0,.64l-.45.23a.37.37,0,0,0-.19.27l-.06.51a.36.36,0,0,1-.6.21l-.36-.36a.38.38,0,0,0-.32-.1l-.5.1a.35.35,0,0,1-.38-.5l.23-.46a.35.35,0,0,0,0-.33l-.25-.44a.36.36,0,0,1,.37-.52l.5.07a.34.34,0,0,0,.31-.11l.34-.37A.36.36,0,0,1,110.55,299.26Z"/><path class="cls-6" d="M110.58,300.86a.81.81,0,0,0-1.55-.46.82.82,0,0,0,.54,1A.81.81,0,0,0,110.58,300.86Z"/><path class="cls-7" d="M110.22,300.65a.09.09,0,0,0,0,.12.09.09,0,0,0,0,0,.06.06,0,0,0,.07,0,8,8,0,0,1,2.15-.82l.08,0a.2.2,0,1,0,.12-.39.2.2,0,0,0-.25.14.06.06,0,0,0,0,0A8,8,0,0,0,110.22,300.65Z"/><path class="cls-7" d="M109.41,298.25a.21.21,0,0,0,.13-.13.21.21,0,0,0-.13-.26.21.21,0,0,0-.26.14.22.22,0,0,0,.08.23,4.68,4.68,0,0,0,.16,1.92.31.31,0,0,1,0,.08.1.1,0,0,0,0,.08h0a.09.09,0,0,0,.11,0,.25.25,0,0,0,0-.16A4.3,4.3,0,0,1,109.41,298.25Z"/><path class="cls-7" d="M109.29,300.45a5,5,0,0,1-1.15-1.58.24.24,0,0,0,.06-.09.2.2,0,0,0-.13-.26.22.22,0,0,0-.26.14.2.2,0,0,0,.14.25h0a4.81,4.81,0,0,0,1.2,1.66l0,0a.08.08,0,0,0,.09,0A.08.08,0,0,0,109.29,300.45Z"/><path class="cls-7" d="M110.86,298a.2.2,0,0,0-.39-.11.19.19,0,0,0,0,.18,9,9,0,0,0-.74,2.11.1.1,0,0,0,.06.1h0a.09.09,0,0,0,.11-.07,8.45,8.45,0,0,1,.72-2.06A.2.2,0,0,0,110.86,298Z"/><path class="cls-7" d="M111.72,299a.2.2,0,0,0,.25-.14.22.22,0,0,0-.14-.26.2.2,0,0,0-.25.14.28.28,0,0,0,0,.09,9.25,9.25,0,0,0-1.46,1.46.08.08,0,0,0,0,.12l0,0a.08.08,0,0,0,.09,0,8.68,8.68,0,0,1,1.42-1.42Z"/><path class="cls-7" d="M112.56,300.25a.2.2,0,0,0-.25.14.06.06,0,0,0,0,0,12.26,12.26,0,0,1-2.14.51.08.08,0,0,0-.07.1.07.07,0,0,0,.06.07h0a11.79,11.79,0,0,0,2.17-.51l.08,0a.22.22,0,0,0,.26-.14A.2.2,0,0,0,112.56,300.25Z"/><path class="cls-4" d="M154.25,333.82c.65.65.44,1.23.69,1.48s.84,0,1.48.69.58,2-.72,3.3-5,4.08-6.9,2.16.85-5.59,2.15-6.9S153.61,333.18,154.25,333.82Z"/><path class="cls-5" d="M148.87,341.52c1.45,1.33,3.81.16,5.46-1.06a7.83,7.83,0,0,0-4.62.38A2.7,2.7,0,0,0,148.87,341.52Z"/><path class="cls-4" d="M157.13,346.62c.27-.87-.19-1.29-.09-1.63s.71-.43,1-1.3-.45-2-2.21-2.57-6.31-1.24-7.09,1.36,3.4,4.53,5.16,5.06S156.87,347.49,157.13,346.62Z"/><path class="cls-5" d="M149.05,342.05l-.13,0a2.46,2.46,0,0,0-.2.47c-.48,1.59.88,2.92,2.42,3.84C151.19,344.48,150.76,342.56,149.05,342.05Z"/><path class="cls-4" d="M144.82,350.77c.87.26,1.29-.2,1.63-.09s.43.71,1.3,1,2-.45,2.57-2.21,1.24-6.31-1.37-7.09-4.52,3.4-5,5.16S144,350.51,144.82,350.77Z"/><path class="cls-5" d="M148.42,342.26c-1.81-.09-3.24,2.14-4,3.91a11.82,11.82,0,0,0,1.46-.65h0C147.57,344.6,148.44,343.49,148.42,342.26Z"/><path class="cls-4" d="M138.68,342.18c.18.89.78,1.05.85,1.39s-.43.72-.25,1.61,1.35,1.59,3.15,1.23,6.15-1.89,5.62-4.55-5.13-2.39-6.94-2S138.5,341.29,138.68,342.18Z"/><path class="cls-5" d="M148,341.79c-.4-1.75-2.61-2.19-4.55-2.19C144.7,341,146.39,342.37,148,341.79Z"/><path class="cls-5" d="M149.45,336.4c-1.08,1.61-1.93,3.7-.69,5C150.15,340.35,150,338.21,149.45,336.4Z"/><path class="cls-4" d="M145.23,332.46c-.8.43-.77,1.06-1.08,1.22s-.81-.2-1.62.23-1.12,1.75-.25,3.37,3.58,5.34,6,4.06.79-5.61-.08-7.23S146,332,145.23,332.46Z"/><path class="cls-3" d="M147.75,339.45l.58.42a.53.53,0,0,0,.46.06l.67-.24a.49.49,0,0,1,.64.61l-.21.68a.5.5,0,0,0,.08.46l.43.56a.49.49,0,0,1-.38.8h-.71a.49.49,0,0,0-.41.21l-.4.59a.5.5,0,0,1-.88-.12l-.23-.67a.48.48,0,0,0-.33-.32l-.69-.2a.5.5,0,0,1-.15-.88l.57-.42a.52.52,0,0,0,.2-.42l0-.71A.5.5,0,0,1,147.75,339.45Z"/><circle class="cls-6" cx="148.37" cy="341.55" r="1.13"/><path class="cls-7" d="M148.8,341.16a.12.12,0,0,0,.09.15H149a.24.24,0,0,0,.06-.08,10.78,10.78,0,0,1,1.31-3,.31.31,0,0,0,.13,0,.29.29,0,0,0-.28-.51.28.28,0,0,0-.11.39l0,.05A11,11,0,0,0,148.8,341.16Z"/><path class="cls-7" d="M145.61,339.59a.26.26,0,0,0,0-.27.28.28,0,0,0-.38-.12.29.29,0,0,0,.19.54,6.4,6.4,0,0,0,2.07,1.76l.09.05a.12.12,0,0,0,.13,0h0a.12.12,0,0,0,.06-.15c0-.05-.05-.07-.18-.14A6.13,6.13,0,0,1,145.61,339.59Z"/><path class="cls-7" d="M147.68,341.88a6.67,6.67,0,0,1-2.71-.42.2.2,0,0,0,0-.15.29.29,0,0,0-.39-.12.29.29,0,0,0-.12.39.28.28,0,0,0,.39.11l0,0a7,7,0,0,0,2.85.46l.05,0a.11.11,0,0,0,.06-.12A.14.14,0,0,0,147.68,341.88Z"/><path class="cls-7" d="M146.78,337.87a.28.28,0,0,0-.39-.11.27.27,0,0,0-.11.38.25.25,0,0,0,.21.15,12.31,12.31,0,0,0,1.36,2.83.13.13,0,0,0,.16,0h0a.12.12,0,0,0,0-.16,12.74,12.74,0,0,1-1.34-2.77A.29.29,0,0,0,146.78,337.87Z"/><path class="cls-7" d="M148.63,338a.29.29,0,0,0,.12-.39.29.29,0,0,0-.39-.12.28.28,0,0,0-.11.39.39.39,0,0,0,.08.1,11.65,11.65,0,0,0,0,2.89.12.12,0,0,0,.14.11h0a.13.13,0,0,0,.06-.13,12.08,12.08,0,0,1,0-2.82Z"/><path class="cls-7" d="M150.73,338.44a.3.3,0,0,0-.12.39l0,.06a17.25,17.25,0,0,1-1.62,2.62.13.13,0,0,0,0,.18.12.12,0,0,0,.13,0l0,0a18.23,18.23,0,0,0,1.65-2.68.27.27,0,0,0,.12,0,.29.29,0,1,0-.27-.51Z"/><path class="cls-4" d="M300.22,354.12c0,1.17.79,1.49.81,1.95s-.69.83-.64,2,1.41,2.3,3.78,2.2,8.24-1.17,8.1-4.68-6.08-4.09-8.46-4S300.17,352.94,300.22,354.12Z"/><path class="cls-5" d="M312.27,355.71c0,2.55-3.19,3.78-5.79,4.29,1.07-1.62,2.66-3.47,4.4-4.08A3.79,3.79,0,0,1,312.27,355.71Z"/><path class="cls-4" d="M309.91,368.06c-1.06-.51-1.06-1.32-1.47-1.51s-1,.3-2.1-.21-1.56-2.2-.52-4.35,4.34-7.1,7.5-5.57,1.35,7.2.31,9.34S311,368.57,309.91,368.06Z"/><path class="cls-5" d="M312.62,356.35l.07-.15a3.15,3.15,0,0,1,.63.22c1.93.93,2,3.39,1.54,5.66C313.06,360.52,311.61,358.44,312.62,356.35Z"/><path class="cls-4" d="M324.64,360c-.51,1.06-1.32,1.06-1.52,1.47s.31,1-.2,2.1-2.21,1.55-4.35.52-7.1-4.34-5.57-7.51,7.2-1.34,9.34-.31S325.15,358.89,324.64,360Z"/><path class="cls-5" d="M313.38,355.94c1.49-1.8,4.87-1.22,7.24-.41a16.23,16.23,0,0,1-1.9.82h0C316.35,357.17,314.52,357,313.38,355.94Z"/><path class="cls-4" d="M321.82,346.58c.69.95.31,1.66.58,2s1.06.23,1.75,1.18.33,2.67-1.59,4.08-7.17,4.21-9.25,1.37,2.22-7,4.14-8.38S321.12,345.62,321.82,346.58Z"/><path class="cls-5" d="M313.26,355.16c-1.31-1.92.19-4.41,1.9-6.26C315.46,351.32,315.25,354.09,313.26,355.16Z"/><path class="cls-5" d="M306.88,351.8c2.48.37,5.22,1.38,5.38,3.71C310,355.91,308.15,353.88,306.88,351.8Z"/><path class="cls-4" d="M306.82,344.33c1.11-.39,1.68.18,2.11,0s.52-.95,1.63-1.34,2.66.46,3.44,2.7,2,8.09-1.36,9.25-6.05-4.14-6.83-6.38S305.71,344.72,306.82,344.33Z"/><path class="cls-3" d="M311.28,352.84l-.11.91a.69.69,0,0,1-.34.5l-.82.42a.65.65,0,0,0,0,1.16l.83.38a.64.64,0,0,1,.36.48l.15.91a.65.65,0,0,0,1.11.33l.63-.67a.62.62,0,0,1,.56-.2l.91.14a.65.65,0,0,0,.66-.95l-.45-.81a.67.67,0,0,1,0-.6l.41-.82a.64.64,0,0,0-.7-.92l-.9.18a.66.66,0,0,1-.57-.17l-.66-.65A.65.65,0,0,0,311.28,352.84Z"/><circle class="cls-6" cx="312.74" cy="355.27" r="1.47"/><path class="cls-7" d="M312,355.33a.15.15,0,0,1,.06.22.13.13,0,0,1-.08.07.15.15,0,0,1-.13,0,14.19,14.19,0,0,0-4-1.33.42.42,0,0,1-.14.09.39.39,0,0,1-.48-.23.38.38,0,0,1,.23-.47.36.36,0,0,1,.47.22.29.29,0,0,1,0,.09A14.48,14.48,0,0,1,312,355.33Z"/><path class="cls-7" d="M313.28,350.93a.41.41,0,0,1-.26-.24.38.38,0,0,1,.23-.47.37.37,0,0,1,.48.23.39.39,0,0,1-.14.42,8.28,8.28,0,0,1-.13,3.51c0,.05,0,.11,0,.13a.18.18,0,0,1-.08.15h0a.16.16,0,0,1-.19-.08c0-.06,0-.11,0-.29A7.81,7.81,0,0,0,313.28,350.93Z"/><path class="cls-7" d="M313.66,354.9a8.67,8.67,0,0,0,2-2.95.34.34,0,0,1-.11-.17.37.37,0,0,1,.22-.47.37.37,0,0,1,.48.23.38.38,0,0,1-.23.47h-.05a9,9,0,0,1-2.06,3.12l-.05,0a.16.16,0,0,1-.16-.27Z"/><path class="cls-7" d="M310.62,350.54a.38.38,0,0,1,.23-.48.37.37,0,0,1,.47.23.38.38,0,0,1,0,.33,16,16,0,0,1,1.5,3.78.16.16,0,0,1-.1.19h0a.17.17,0,0,1-.2-.11,15.2,15.2,0,0,0-1.47-3.7A.38.38,0,0,1,310.62,350.54Z"/><path class="cls-7" d="M309.15,352.44a.37.37,0,1,1-.25-.7.36.36,0,0,1,.47.23.3.3,0,0,1,0,.16,14.88,14.88,0,0,1,2.77,2.54.16.16,0,0,1,0,.22l-.05,0a.16.16,0,0,1-.17-.05,15.66,15.66,0,0,0-2.7-2.47Z"/><path class="cls-7" d="M307.71,354.8a.37.37,0,0,1,.48.23.22.22,0,0,1,0,.08,23.27,23.27,0,0,0,3.92.76.16.16,0,0,1,.14.17.14.14,0,0,1-.1.14h-.07a23,23,0,0,1-4-.77.42.42,0,0,1-.14.09.36.36,0,0,1-.47-.23A.37.37,0,0,1,307.71,354.8Z"/><path class="cls-4" d="M297.58,310.31c-.65.64-.44,1.23-.69,1.47s-.84.05-1.48.69-.58,2,.72,3.3,5,4.09,6.89,2.17-.84-5.6-2.14-6.9S298.22,309.66,297.58,310.31Z"/><path class="cls-5" d="M303,318c-1.45,1.34-3.82.16-5.46-1.06a7.79,7.79,0,0,1,4.61.38A2.63,2.63,0,0,1,303,318Z"/><path class="cls-4" d="M294.7,323.1c-.27-.87.19-1.29.09-1.62s-.72-.44-1-1.31.44-2,2.2-2.56,6.31-1.24,7.1,1.36-3.4,4.52-5.16,5.06S295,324,294.7,323.1Z"/><path class="cls-5" d="M302.78,318.53l.13,0a2.55,2.55,0,0,1,.2.48c.48,1.58-.89,2.91-2.42,3.83C300.64,321,301.07,319.05,302.78,318.53Z"/><path class="cls-4" d="M307,327.25c-.87.27-1.29-.19-1.63-.09s-.43.72-1.3,1-2-.44-2.57-2.2-1.24-6.31,1.36-7.1,4.53,3.4,5.06,5.16S307.88,327,307,327.25Z"/><path class="cls-5" d="M303.41,318.75c1.81-.09,3.24,2.14,4,3.9A10.5,10.5,0,0,1,306,322h0C304.26,321.09,303.39,320,303.41,318.75Z"/><path class="cls-4" d="M313.15,318.66c-.18.89-.78,1-.85,1.39s.43.72.25,1.61-1.35,1.59-3.16,1.23-6.14-1.88-5.61-4.55,5.13-2.39,6.93-2S313.33,317.77,313.15,318.66Z"/><path class="cls-5" d="M303.8,318.27c.4-1.75,2.61-2.19,4.55-2.18C307.13,317.52,305.44,318.85,303.8,318.27Z"/><path class="cls-5" d="M302.38,312.89c1.08,1.61,1.93,3.69.69,5C301.68,316.83,301.85,314.69,302.38,312.89Z"/><path class="cls-4" d="M306.6,309c.8.43.77,1.05,1.08,1.22s.81-.21,1.62.23,1.12,1.75.25,3.37-3.58,5.34-6,4.05-.8-5.6.07-7.22S305.79,308.52,306.6,309Z"/><path class="cls-3" d="M304.08,315.94l-.58.41a.5.5,0,0,1-.46.06l-.67-.24a.5.5,0,0,0-.64.62l.21.67a.5.5,0,0,1-.08.46l-.44.56a.5.5,0,0,0,.39.8h.71a.48.48,0,0,1,.41.22l.4.59a.5.5,0,0,0,.88-.12l.23-.68a.5.5,0,0,1,.33-.32l.69-.2a.49.49,0,0,0,.15-.87l-.57-.43a.47.47,0,0,1-.2-.41l0-.71A.49.49,0,0,0,304.08,315.94Z"/><circle class="cls-6" cx="303.46" cy="318.04" r="1.13"/><path class="cls-7" d="M303,317.64a.12.12,0,0,1-.09.15.14.14,0,0,1-.09,0,.12.12,0,0,1-.06-.08,10.78,10.78,0,0,0-1.31-3,.31.31,0,0,1-.13,0,.29.29,0,0,1,.27-.51.29.29,0,0,1,.12.39l0,.05A11.15,11.15,0,0,1,303,317.64Z"/><path class="cls-7" d="M306.21,316.08a.34.34,0,0,1,0-.28.29.29,0,0,1,.51.28.3.3,0,0,1-.31.14,6.26,6.26,0,0,1-2.07,1.76l-.09,0a.11.11,0,0,1-.13,0h0a.11.11,0,0,1-.05-.14c0-.06.05-.08.18-.14A6.31,6.31,0,0,0,306.21,316.08Z"/><path class="cls-7" d="M304.15,318.37a7,7,0,0,0,2.71-.43.21.21,0,0,1,0-.15.29.29,0,0,1,.39-.12.29.29,0,0,1-.27.51l0,0a7,7,0,0,1-2.84.45h-.05a.12.12,0,0,1-.06-.12A.12.12,0,0,1,304.15,318.37Z"/><path class="cls-7" d="M305.05,314.36a.28.28,0,0,1,.39-.12.28.28,0,0,1,.11.39.26.26,0,0,1-.21.14A12.52,12.52,0,0,1,304,317.6a.12.12,0,0,1-.16,0h0a.12.12,0,0,1,0-.17,12.74,12.74,0,0,0,1.34-2.77A.26.26,0,0,1,305.05,314.36Z"/><path class="cls-7" d="M303.19,314.51a.29.29,0,0,1,.27-.51.29.29,0,0,1,.12.39.39.39,0,0,1-.08.1,11.74,11.74,0,0,1,0,2.9.12.12,0,0,1-.14.1h0a.11.11,0,0,1-.06-.12,11.82,11.82,0,0,0,0-2.83Z"/><path class="cls-7" d="M301.1,314.93a.29.29,0,0,1,.12.39l0,.05A17.25,17.25,0,0,0,302.8,318a.13.13,0,0,1,0,.17.12.12,0,0,1-.13,0,.08.08,0,0,1,0,0,18.53,18.53,0,0,1-1.65-2.67l-.12,0a.29.29,0,0,1-.12-.39A.28.28,0,0,1,301.1,314.93Z"/><path class="cls-4" d="M278.71,299.43c-.28.28-.19.53-.3.64s-.36,0-.64.3-.25.86.32,1.43,2.15,1.77,3,.94-.36-2.43-.93-3S279,299.15,278.71,299.43Z"/><path class="cls-5" d="M281,302.76c-.62.58-1.65.07-2.36-.46a3.46,3.46,0,0,1,2,.17A1.18,1.18,0,0,1,281,302.76Z"/><path class="cls-4" d="M277.47,305c-.12-.37.08-.56,0-.7s-.31-.19-.43-.57.19-.88,1-1.11,2.73-.54,3.07.59-1.47,2-2.23,2.19S277.58,305.35,277.47,305Z"/><path class="cls-5" d="M281,303h0a.72.72,0,0,1,.09.2c.21.69-.38,1.26-1.05,1.66C280,304,280.22,303.22,281,303Z"/><path class="cls-4" d="M282.8,306.77c-.38.11-.56-.08-.71,0s-.18.31-.56.42-.88-.19-1.11-.95-.54-2.73.59-3.07,2,1.47,2.19,2.23S283.18,306.66,282.8,306.77Z"/><path class="cls-5" d="M281.24,303.09c.78,0,1.4.92,1.74,1.69a5,5,0,0,1-.63-.28h0C281.61,304.1,281.23,303.62,281.24,303.09Z"/><path class="cls-4" d="M285.46,303.05c-.08.39-.34.45-.37.6s.18.31.11.7-.59.69-1.37.53-2.66-.82-2.43-2,2.22-1,3-.88S285.54,302.66,285.46,303.05Z"/><path class="cls-5" d="M281.41,302.88c.17-.76,1.13-.95,2-.95C282.85,302.56,282.12,303.13,281.41,302.88Z"/><path class="cls-5" d="M280.79,300.55c.47.69.84,1.6.3,2.16C280.49,302.26,280.57,301.33,280.79,300.55Z"/><path class="cls-4" d="M282.62,298.84c.35.19.34.46.47.53s.35-.09.7.1.49.76.11,1.46-1.55,2.31-2.59,1.76-.35-2.43,0-3.13S282.27,298.65,282.62,298.84Z"/><path class="cls-3" d="M281.53,301.87l-.25.18a.2.2,0,0,1-.2,0l-.29-.1a.22.22,0,0,0-.28.27l.09.29a.21.21,0,0,1,0,.2l-.19.24a.22.22,0,0,0,.17.35h.31a.21.21,0,0,1,.17.1l.17.25a.22.22,0,0,0,.39-.05l.09-.29a.23.23,0,0,1,.15-.14l.3-.09a.21.21,0,0,0,.06-.38l-.24-.18a.21.21,0,0,1-.09-.18v-.31A.21.21,0,0,0,281.53,301.87Z"/><circle class="cls-6" cx="281.26" cy="302.78" r="0.49"/><path class="cls-7" d="M281.07,302.61a0,0,0,0,1,0,.06h0l0,0a4.78,4.78,0,0,0-.57-1.28h0a.13.13,0,0,1-.05-.17.13.13,0,1,1,.22.12l0,0A4.76,4.76,0,0,1,281.07,302.61Z"/><path class="cls-7" d="M282.45,301.93a.17.17,0,0,1,0-.12.13.13,0,0,1,.17-.05.12.12,0,0,1,.05.17.11.11,0,0,1-.13.06,2.65,2.65,0,0,1-.9.76l0,0a0,0,0,0,1-.05,0h0a.06.06,0,0,1,0-.07s0,0,.07-.06A2.5,2.5,0,0,0,282.45,301.93Z"/><path class="cls-7" d="M281.56,302.92a2.86,2.86,0,0,0,1.17-.18.14.14,0,0,1,0-.07.12.12,0,0,1,.16-.05.12.12,0,0,1,.06.17.13.13,0,0,1-.17,0h0a3,3,0,0,1-1.23.2h0a.05.05,0,0,1,0,0A.06.06,0,0,1,281.56,302.92Z"/><path class="cls-7" d="M282,301.18a.13.13,0,0,1,.17-.05.13.13,0,0,1,.05.17.15.15,0,0,1-.09.07,5.21,5.21,0,0,1-.6,1.22,0,0,0,0,1-.06,0h0a.06.06,0,0,1,0-.08,5.29,5.29,0,0,0,.57-1.2A.12.12,0,0,1,282,301.18Z"/><path class="cls-7" d="M281.15,301.25a.12.12,0,0,1,0-.17.12.12,0,0,1,.16-.05.12.12,0,0,1,.05.17l0,0a5.4,5.4,0,0,1,0,1.26s0,.05-.06,0h0a.06.06,0,0,1,0-.06,5,5,0,0,0,0-1.22Z"/><path class="cls-7" d="M280.24,301.43a.13.13,0,0,1,.05.17l0,0a9.27,9.27,0,0,0,.7,1.14.05.05,0,0,1,0,.08,0,0,0,0,1,0,0,0,0,0,0,1,0,0,7.28,7.28,0,0,1-.71-1.16h-.06a.13.13,0,0,1,.12-.22Z"/><path class="cls-4" d="M314,300.61c0,.65.4.84.4,1.09s-.4.44-.4,1.09.72,1.3,2,1.3,4.55-.44,4.56-2.38-3.25-2.39-4.56-2.39S314,300,314,300.61Z"/><path class="cls-5" d="M320.57,301.77c-.06,1.41-1.84,2-3.29,2.22a5.66,5.66,0,0,1,2.52-2.13A2.06,2.06,0,0,1,320.57,301.77Z"/><path class="cls-4" d="M319,308.51c-.58-.31-.56-.75-.78-.87s-.57.14-1.15-.16-.8-1.25-.18-2.41,2.55-3.8,4.26-2.88.57,4-.05,5.14S319.55,308.81,319,308.51Z"/><path class="cls-5" d="M320.74,302.13l.05-.08a1.63,1.63,0,0,1,.34.14c1,.55,1,1.91.71,3.15C320.89,304.43,320.14,303.26,320.74,302.13Z"/><path class="cls-4" d="M327.27,304.39c-.31.58-.75.56-.87.78s.14.58-.16,1.15-1.25.8-2.41.18S320,304,321,302.24s4-.57,5.14.05S327.58,303.82,327.27,304.39Z"/><path class="cls-5" d="M321.17,301.92c.87-.95,2.71-.55,4-.05a8.92,8.92,0,0,1-1.06.4h0C322.78,302.67,321.77,302.55,321.17,301.92Z"/><path class="cls-4" d="M326,297c.36.54.14.92.27,1.12s.58.15.94.69.12,1.48-1,2.21-4,2.14-5.12.53,1.38-3.78,2.47-4.51S325.67,296.44,326,297Z"/><path class="cls-5" d="M321.13,301.49c-.68-1.09.21-2.42,1.19-3.39C322.43,299.43,322.25,301,321.13,301.49Z"/><path class="cls-5" d="M317.7,299.49c1.35.27,2.83.89,2.87,2.17C319.34,301.83,318.35,300.67,317.7,299.49Z"/><path class="cls-4" d="M317.84,295.38c.62-.18.92.14,1.16.07s.31-.51.93-.7,1.45.32,1.83,1.57.88,4.5-1,5.06-3.23-2.42-3.61-3.68S317.22,295.57,317.84,295.38Z"/><path class="cls-3" d="M320.09,300.17l-.08.5a.36.36,0,0,1-.2.26l-.46.22a.35.35,0,0,0,0,.63l.45.24a.33.33,0,0,1,.18.27l.07.5a.36.36,0,0,0,.6.21l.36-.36a.35.35,0,0,1,.31-.09l.5.09a.35.35,0,0,0,.38-.5l-.22-.45a.35.35,0,0,1,0-.33l.25-.45a.35.35,0,0,0-.36-.52l-.5.08a.41.41,0,0,1-.32-.11l-.34-.37A.35.35,0,0,0,320.09,300.17Z"/><path class="cls-6" d="M320.06,301.78a.82.82,0,0,1,.54-1,.81.81,0,0,1,.47,1.55A.82.82,0,0,1,320.06,301.78Z"/><path class="cls-7" d="M320.42,301.56a.08.08,0,0,1,0,.12.1.1,0,0,1-.05,0h-.07a7.51,7.51,0,0,0-2.15-.83l-.08.05a.21.21,0,0,1-.12-.4.22.22,0,0,1,.26.14.09.09,0,0,0,0,.05A7.67,7.67,0,0,1,320.42,301.56Z"/><path class="cls-7" d="M321.24,299.17a.2.2,0,0,1,0-.39.19.19,0,0,1,.25.13.2.2,0,0,1-.08.23,4.39,4.39,0,0,1-.16,1.93.12.12,0,0,1,0,.07.07.07,0,0,1-.05.08h0a.07.07,0,0,1-.1,0s0-.06,0-.16A4.42,4.42,0,0,0,321.24,299.17Z"/><path class="cls-7" d="M321.35,301.36a4.83,4.83,0,0,0,1.15-1.58.15.15,0,0,1-.06-.09.22.22,0,0,1,.14-.26.2.2,0,0,1,.25.14.22.22,0,0,1-.14.26h0a4.8,4.8,0,0,1-1.21,1.66l0,0a.08.08,0,0,1-.09,0A.09.09,0,0,1,321.35,301.36Z"/><path class="cls-7" d="M319.78,298.89a.22.22,0,0,1,.14-.26.2.2,0,0,1,.25.14.19.19,0,0,1,0,.18,8.82,8.82,0,0,1,.74,2.11.08.08,0,0,1-.06.1h0a.1.1,0,0,1-.1-.07A9,9,0,0,0,320,299,.2.2,0,0,1,319.78,298.89Z"/><path class="cls-7" d="M318.93,299.9a.22.22,0,0,1-.26-.14.2.2,0,0,1,.14-.25.19.19,0,0,1,.25.13.38.38,0,0,1,0,.1,8.5,8.5,0,0,1,1.46,1.45.09.09,0,0,1,0,.13h0a.1.1,0,0,1-.1,0,8.25,8.25,0,0,0-1.42-1.42Z"/><path class="cls-7" d="M318.08,301.16a.21.21,0,0,1,.26.14s0,0,0,.05a14.55,14.55,0,0,0,2.13.51.09.09,0,0,1,.08.09.1.1,0,0,1-.06.08h0a13.14,13.14,0,0,1-2.18-.52l-.08,0a.19.19,0,0,1-.25-.13A.21.21,0,0,1,318.08,301.16Z"/><path class="cls-4" d="M241.33,358.85c.08,1.77,1.19,2.25,1.22,2.93s-1,1.26-1,3,2.12,3.46,5.69,3.31,12.4-1.75,12.18-7-9.14-6.15-12.72-6S241.26,357.08,241.33,358.85Z"/><path class="cls-5" d="M259.45,361.25c0,3.84-4.79,5.69-8.7,6.44,1.61-2.43,4-5.21,6.62-6.12A5.5,5.5,0,0,1,259.45,361.25Z"/><path class="cls-4" d="M255.91,379.83c-1.6-.77-1.6-2-2.22-2.28s-1.56.46-3.16-.31-2.34-3.32-.78-6.54S256.28,360,261,362.31s2,10.84.47,14.06S257.5,380.6,255.91,379.83Z"/><path class="cls-5" d="M260,362.21l.12-.23a4.4,4.4,0,0,1,.94.33c2.9,1.4,3,5.11,2.32,8.53C260.65,368.48,258.47,365.35,260,362.21Z"/><path class="cls-4" d="M278.07,367.62c-.77,1.6-2,1.6-2.28,2.21s.46,1.57-.31,3.16-3.32,2.34-6.54.79-10.69-6.53-8.39-11.3,10.84-2,14.06-.46S278.84,366,278.07,367.62Z"/><path class="cls-5" d="M261.12,361.59c2.25-2.71,7.33-1.83,10.89-.62a21.47,21.47,0,0,1-2.85,1.23h0C265.6,363.45,262.85,363.23,261.12,361.59Z"/><path class="cls-4" d="M273.82,347.5c1.05,1.44.47,2.5.88,3.06s1.59.33,2.64,1.76.5,4-2.4,6.14-10.79,6.34-13.91,2.07,3.33-10.51,6.22-12.62S272.78,346.07,273.82,347.5Z"/><path class="cls-5" d="M261,360.42c-2-2.89.29-6.64,2.85-9.41C264.26,354.64,263.94,358.81,261,360.42Z"/><path class="cls-5" d="M251.35,355.36c3.73.57,7.84,2.09,8.09,5.58C256.1,361.55,253.26,358.49,251.35,355.36Z"/><path class="cls-4" d="M251.25,344.12c1.68-.59,2.53.27,3.18.05s.78-1.43,2.46-2,4,.69,5.17,4.07S265,358.39,260,360.14s-9.09-6.23-10.27-9.61S249.58,344.7,251.25,344.12Z"/><path class="cls-3" d="M258,356.93l-.17,1.37a1,1,0,0,1-.51.74l-1.23.64a1,1,0,0,0,0,1.74l1.25.59a1,1,0,0,1,.55.71l.22,1.37a1,1,0,0,0,1.67.5l.94-1a1,1,0,0,1,.85-.3l1.37.2a1,1,0,0,0,1-1.42l-.67-1.21a1,1,0,0,1,0-.91l.62-1.23a1,1,0,0,0-1.05-1.39l-1.36.27a1,1,0,0,1-.86-.26l-1-1A1,1,0,0,0,258,356.93Z"/><circle class="cls-6" cx="260.17" cy="360.59" r="2.21" transform="translate(-74.07 67.34) rotate(-12.93)"/><path class="cls-7" d="M259,360.68a.25.25,0,0,1,.09.33.28.28,0,0,1-.13.11.25.25,0,0,1-.19,0,21.16,21.16,0,0,0-6-2,.6.6,0,0,1-.21.14.56.56,0,1,1,.34-.72.35.35,0,0,1,0,.13A22.16,22.16,0,0,1,259,360.68Z"/><path class="cls-7" d="M261,354.05a.56.56,0,0,1,0-1.07.56.56,0,0,1,.51,1,12.45,12.45,0,0,1-.2,5.28l-.05.2a.25.25,0,0,1-.12.23h0a.23.23,0,0,1-.28-.11c-.06-.1,0-.17,0-.44A11.93,11.93,0,0,0,261,354.05Z"/><path class="cls-7" d="M261.56,360a13.25,13.25,0,0,0,2.94-4.44.53.53,0,0,1-.17-.25.56.56,0,0,1,1.05-.37.56.56,0,0,1-.34.71l-.07,0a13.54,13.54,0,0,1-3.1,4.68.14.14,0,0,1-.08.05.23.23,0,0,1-.23-.4Z"/><path class="cls-7" d="M257,353.46a.56.56,0,1,1,1-.37.57.57,0,0,1-.07.51,24.16,24.16,0,0,1,2.27,5.67.25.25,0,0,1-.16.29h0a.24.24,0,0,1-.29-.17,23.63,23.63,0,0,0-2.21-5.56A.54.54,0,0,1,257,353.46Z"/><path class="cls-7" d="M254.76,356.32a.56.56,0,1,1-.37-1.05.56.56,0,0,1,.74.59,23.57,23.57,0,0,1,4.16,3.81.25.25,0,0,1,0,.34l-.07,0a.22.22,0,0,1-.26-.07,24.1,24.1,0,0,0-4.06-3.71Z"/><path class="cls-7" d="M252.6,359.88a.55.55,0,0,1,.71.34.31.31,0,0,1,0,.13,35.93,35.93,0,0,0,5.9,1.14.24.24,0,0,1,.05.46h-.1a34.75,34.75,0,0,1-6-1.16.57.57,0,0,1-.21.13.56.56,0,0,1-.37-1.05Z"/><path class="cls-16" d="M294,364.09c-1.62,17.1-35.32,31.09-78.89,31.09s-78.89-13.92-78.89-31.09v-7.34c0,17.17,35.32,31.08,78.89,31.08s77.27-14,78.89-31.08Z"/><path class="cls-15" d="M286.72,354.81,296,327.05a.51.51,0,0,1,1,.29l-3.9,19S292.09,350.17,286.72,354.81Z"/><path class="cls-15" d="M142.69,354.29l-8.52-26.75a.51.51,0,0,0-1,.29l3.9,18.95S137.32,349.66,142.69,354.29Z"/><path class="cls-15" d="M294,357c-1.62,17.1-35.32,31.09-78.89,31.09S136.21,374.14,136.21,357l0-8.74c0,17.17,35.3,32.49,78.87,32.49s77.37-15.27,79-32.37Z"/><path class="cls-16" d="M294.06,349.36c-1.62,17.09-35.32,31.08-78.89,31.08s-78.88-13.91-78.88-31.08V342c0,17.17,35.32,31.09,78.88,31.09s77.27-14,78.89-31.09Z"/><polygon class="cls-15" points="213 307.88 227.89 297.86 229.36 297.86 213 309.91 201.03 298.36 202.43 298.35 213 307.88"/><path class="cls-17" d="M182,230.64a18.65,18.65,0,0,1-12.06-4.76A22.77,22.77,0,0,1,162.33,210a2.3,2.3,0,0,1,4.6-.24,18.14,18.14,0,0,0,6,12.69,13.74,13.74,0,0,0,9.93,3.59c5.33-.45,10.3-4.83,12.37-10.91a2.3,2.3,0,0,1,4.36,1.48c-2.65,7.79-9.22,13.42-16.35,14C182.83,230.62,182.4,230.64,182,230.64Z"/><path class="cls-17" d="M248,230.69A20.32,20.32,0,0,1,243,230a22.74,22.74,0,0,1-13.89-10.87,2.3,2.3,0,1,1,4-2.26,18.13,18.13,0,0,0,11,8.67,13.72,13.72,0,0,0,10.49-1.21c4.57-2.78,7.07-8.92,6.21-15.28a2.3,2.3,0,0,1,4.56-.62c1.1,8.16-2.27,16.12-8.38,19.84A17.22,17.22,0,0,1,248,230.69Z"/><path class="cls-17" d="M215,263.05a28.47,28.47,0,0,1-3.56-.22c-12.26-1.56-19.05-10.58-20.84-13.31a2.31,2.31,0,0,1,3.86-2.53c1.07,1.65,7,9.93,17.55,11.26,9.23,1.17,18.39-3.16,23.92-11.29a2.3,2.3,0,1,1,3.81,2.59A30.06,30.06,0,0,1,215,263.05Z"/><path class="cls-18" d="M160.64,163.11c27.27,12.21,81.86,12.16,108.92-.14-1.79-37.4-105.39-36-108.72.49"/><path class="cls-19" d="M153.41,193.26a3.69,3.69,0,0,1-1.24-7.16C164.5,181.72,173,173.45,175,164a3.69,3.69,0,1,1,7.22,1.48c-2.48,12-12.78,22.34-27.55,27.59A3.55,3.55,0,0,1,153.41,193.26Z"/><path class="cls-19" d="M275.09,193.26a3.55,3.55,0,0,1-1.23-.22c-14.78-5.25-25.07-15.56-27.55-27.59a3.69,3.69,0,1,1,7.22-1.48c1.95,9.48,10.47,17.75,22.8,22.13a3.69,3.69,0,0,1-1.24,7.16Z"/></svg>