<svg id="Layer_1" data-name="Layer 1" xmlns="http://www.w3.org/2000/svg" xmlns:xlink="http://www.w3.org/1999/xlink" viewBox="0 0 432 576"><defs><style>.cls-1{opacity:0.05;}.cls-2{fill:#040d21;}.cls-3{fill:none;stroke:#000;stroke-linecap:round;stroke-linejoin:round;stroke-width:8px;}.cls-4{fill:#6a1577;}.cls-5{fill:#2d313f;}.cls-6{fill:#feaf06;}.cls-7{fill:#fbd82b;}.cls-8{fill:#ffe278;}.cls-9{fill:#b57817;}.cls-10{fill:#701d1d;}.cls-11,.cls-16,.cls-17{fill:#fff;}.cls-12{fill:#f70000;}.cls-13,.cls-14{opacity:0.2;}.cls-13{fill:url(#linear-gradient);}.cls-14{fill:url(#linear-gradient-2);}.cls-15{fill:#0062b2;}.cls-16{opacity:0.6;}.cls-17{opacity:0.7;}.cls-18{fill:#f2f2f2;}.cls-19{fill:#c9c9c9;}.cls-20{fill:#677077;}.cls-21{fill:#b8b8b8;}.cls-22{fill:#858d92;}.cls-23{fill:#ccc;}.cls-24{fill:#ededed;}.cls-25{fill:#d9d9d9;}.cls-26{fill:#b4b4b4;}.cls-27{fill:url(#radial-gradient);}</style><linearGradient id="linear-gradient" x1="242.37" y1="243.76" x2="242.37" y2="194.93" gradientTransform="translate(38.26 -35.99) rotate(9.22)" gradientUnits="userSpaceOnUse"><stop offset="0.36" stop-color="#fff"/><stop offset="0.42" stop-color="#f5f9fc"/><stop offset="0.51" stop-color="#dae8f4"/><stop offset="0.62" stop-color="#aecde6"/><stop offset="0.76" stop-color="#70a7d4"/><stop offset="0.92" stop-color="#2378bd"/><stop offset="0.99" stop-color="#0062b2"/></linearGradient><linearGradient id="linear-gradient-2" x1="183.23" y1="243.76" x2="183.23" y2="194.93" gradientTransform="translate(350.96 -12.07) rotate(75.81)" xlink:href="#linear-gradient"/><radialGradient id="radial-gradient" cx="213.78" cy="174.27" r="39.38" gradientTransform="translate(-109.79 388.05) rotate(-90) scale(1 1.86)" gradientUnits="userSpaceOnUse"><stop offset="0" stop-color="#ff8c1f"/><stop offset="1" stop-color="#feaf06"/></radialGradient></defs><g class="cls-1"><path class="cls-2" d="M225.92,234.73v15.76h2.91a2.25,2.25,0,0,1,1.49.4,1.37,1.37,0,0,1,.44,1.05,1.33,1.33,0,0,1-.44,1,2.2,2.2,0,0,1-1.49.4h-8.7a2.18,2.18,0,0,1-1.48-.4,1.34,1.34,0,0,1-.44-1,1.37,1.37,0,0,1,.44-1,2.24,2.24,0,0,1,1.48-.4H223v-12l-2.57.67a3.54,3.54,0,0,1-.93.17,1.22,1.22,0,0,1-.94-.43,1.51,1.51,0,0,1-.4-1.07,1.31,1.31,0,0,1,.29-.91,2.68,2.68,0,0,1,1.24-.58Z"/><path class="cls-2" d="M248,242.68v3.16a9.91,9.91,0,0,1-1.62,5.38,5.17,5.17,0,0,1-4.64,2.58,5.4,5.4,0,0,1-2.95-.77,7.17,7.17,0,0,1-2.27-2.82,9.3,9.3,0,0,1-1.08-4.37v-3.16a9.93,9.93,0,0,1,1.62-5.37,5.15,5.15,0,0,1,4.63-2.58,5.32,5.32,0,0,1,2.93.76,7.26,7.26,0,0,1,2.3,2.81A9.31,9.31,0,0,1,248,242.68Zm-2.89,0a6.69,6.69,0,0,0-1.31-4.1,2.46,2.46,0,0,0-2.09-1,2.57,2.57,0,0,0-2.14,1.07,6.35,6.35,0,0,0-1.25,4v3.16a6.63,6.63,0,0,0,1.32,4.11,2.49,2.49,0,0,0,2.1,1,2.57,2.57,0,0,0,2.12-1.07,6.38,6.38,0,0,0,1.25-4Z"/><path class="cls-2" d="M260.46,234.73v15.76h2.91a2.25,2.25,0,0,1,1.49.4,1.37,1.37,0,0,1,.44,1.05,1.33,1.33,0,0,1-.44,1,2.2,2.2,0,0,1-1.49.4h-8.7a2.18,2.18,0,0,1-1.48-.4,1.34,1.34,0,0,1-.44-1,1.37,1.37,0,0,1,.44-1,2.24,2.24,0,0,1,1.48-.4h2.91v-12l-2.57.67a3.55,3.55,0,0,1-.92.17,1.23,1.23,0,0,1-1-.43,1.51,1.51,0,0,1-.4-1.07,1.31,1.31,0,0,1,.29-.91,2.68,2.68,0,0,1,1.24-.58Z"/><path class="cls-2" d="M282.55,242.68v3.16a9.91,9.91,0,0,1-1.62,5.38,5.17,5.17,0,0,1-4.64,2.58,5.37,5.37,0,0,1-3-.77,7.17,7.17,0,0,1-2.27-2.82,9.3,9.3,0,0,1-1.08-4.37v-3.16a9.93,9.93,0,0,1,1.62-5.37,5.15,5.15,0,0,1,4.63-2.58,5.32,5.32,0,0,1,2.93.76,7.16,7.16,0,0,1,2.29,2.81A9.2,9.2,0,0,1,282.55,242.68Zm-2.89,0a6.69,6.69,0,0,0-1.31-4.1,2.48,2.48,0,0,0-2.09-1,2.57,2.57,0,0,0-2.14,1.07,6.35,6.35,0,0,0-1.25,4v3.16a6.63,6.63,0,0,0,1.32,4.11,2.49,2.49,0,0,0,2.1,1,2.59,2.59,0,0,0,2.12-1.07,6.38,6.38,0,0,0,1.25-4Z"/><path class="cls-2" d="M230.74,293.07v3.17a10,10,0,0,1-1.62,5.38,5.18,5.18,0,0,1-4.64,2.57,5.4,5.4,0,0,1-2.95-.77,7.17,7.17,0,0,1-2.27-2.82,9.26,9.26,0,0,1-1.08-4.36v-3.17a10,10,0,0,1,1.62-5.37,5.15,5.15,0,0,1,4.63-2.58,5.32,5.32,0,0,1,2.93.76,7.3,7.3,0,0,1,2.3,2.82A9.27,9.27,0,0,1,230.74,293.07Zm-2.89,0a6.69,6.69,0,0,0-1.31-4.1,2.49,2.49,0,0,0-2.09-1,2.6,2.6,0,0,0-2.14,1.07,6.37,6.37,0,0,0-1.25,4v3.17a6.6,6.6,0,0,0,1.32,4.1,2.47,2.47,0,0,0,2.1,1,2.57,2.57,0,0,0,2.12-1.07,6.37,6.37,0,0,0,1.25-4Z"/><path class="cls-2" d="M243.19,285.12v15.77h2.91a2.2,2.2,0,0,1,1.49.4,1.34,1.34,0,0,1,.44,1,1.35,1.35,0,0,1-.44,1,2.25,2.25,0,0,1-1.49.4h-8.7a2.24,2.24,0,0,1-1.48-.4,1.37,1.37,0,0,1-.44-1.05,1.33,1.33,0,0,1,.44-1,2.18,2.18,0,0,1,1.48-.4h2.91v-12l-2.57.68a4,4,0,0,1-.93.17,1.23,1.23,0,0,1-.94-.44,1.51,1.51,0,0,1-.4-1.07,1.28,1.28,0,0,1,.29-.9,2.67,2.67,0,0,1,1.24-.59Z"/><path class="cls-2" d="M260.46,285.12v15.77h2.91a2.2,2.2,0,0,1,1.49.4,1.34,1.34,0,0,1,.44,1,1.35,1.35,0,0,1-.44,1,2.25,2.25,0,0,1-1.49.4h-8.7a2.24,2.24,0,0,1-1.48-.4,1.37,1.37,0,0,1-.44-1.05,1.33,1.33,0,0,1,.44-1,2.18,2.18,0,0,1,1.48-.4h2.91v-12l-2.57.68a4,4,0,0,1-.92.17,1.24,1.24,0,0,1-1-.44,1.51,1.51,0,0,1-.4-1.07,1.28,1.28,0,0,1,.29-.9,2.67,2.67,0,0,1,1.24-.59Z"/><path class="cls-2" d="M282.55,293.07v3.17a10,10,0,0,1-1.62,5.38,5.18,5.18,0,0,1-4.64,2.57,5.37,5.37,0,0,1-3-.77,7.17,7.17,0,0,1-2.27-2.82,9.26,9.26,0,0,1-1.08-4.36v-3.17a10,10,0,0,1,1.62-5.37,5.15,5.15,0,0,1,4.63-2.58,5.32,5.32,0,0,1,2.93.76,7.2,7.2,0,0,1,2.29,2.82A9.16,9.16,0,0,1,282.55,293.07Zm-2.89,0a6.69,6.69,0,0,0-1.31-4.1,2.5,2.5,0,0,0-2.09-1,2.6,2.6,0,0,0-2.14,1.07,6.37,6.37,0,0,0-1.25,4v3.17a6.6,6.6,0,0,0,1.32,4.1,2.47,2.47,0,0,0,2.1,1,2.59,2.59,0,0,0,2.12-1.07,6.37,6.37,0,0,0,1.25-4Z"/><path class="cls-2" d="M230.74,268v3.17a10,10,0,0,1-1.62,5.38,5.18,5.18,0,0,1-4.64,2.57,5.4,5.4,0,0,1-2.95-.77,7.17,7.17,0,0,1-2.27-2.82,9.26,9.26,0,0,1-1.08-4.36V268a10,10,0,0,1,1.62-5.37,5.15,5.15,0,0,1,4.63-2.58,5.32,5.32,0,0,1,2.93.76,7.3,7.3,0,0,1,2.3,2.82A9.27,9.27,0,0,1,230.74,268Zm-2.89,0a6.69,6.69,0,0,0-1.31-4.1,2.49,2.49,0,0,0-2.09-1,2.6,2.6,0,0,0-2.14,1.07,6.37,6.37,0,0,0-1.25,4v3.17a6.6,6.6,0,0,0,1.32,4.1,2.47,2.47,0,0,0,2.1,1,2.57,2.57,0,0,0,2.12-1.07,6.37,6.37,0,0,0,1.25-4Z"/><path class="cls-2" d="M243.19,260.06v15.77h2.91a2.2,2.2,0,0,1,1.49.4,1.34,1.34,0,0,1,.44,1,1.35,1.35,0,0,1-.44,1,2.25,2.25,0,0,1-1.49.4h-8.7a2.24,2.24,0,0,1-1.48-.4,1.37,1.37,0,0,1-.44-1.05,1.33,1.33,0,0,1,.44-1,2.18,2.18,0,0,1,1.48-.4h2.91v-12l-2.57.68a4,4,0,0,1-.93.17,1.23,1.23,0,0,1-.94-.44,1.51,1.51,0,0,1-.4-1.07,1.28,1.28,0,0,1,.29-.9,2.67,2.67,0,0,1,1.24-.59Z"/><path class="cls-2" d="M265.28,268v3.17a10,10,0,0,1-1.62,5.38,5.18,5.18,0,0,1-4.64,2.57,5.4,5.4,0,0,1-2.95-.77,7.17,7.17,0,0,1-2.27-2.82,9.26,9.26,0,0,1-1.08-4.36V268a10,10,0,0,1,1.62-5.37,5.15,5.15,0,0,1,4.63-2.58,5.32,5.32,0,0,1,2.93.76,7.21,7.21,0,0,1,2.3,2.82A9.27,9.27,0,0,1,265.28,268Zm-2.89,0a6.69,6.69,0,0,0-1.31-4.1,2.49,2.49,0,0,0-2.09-1,2.6,2.6,0,0,0-2.14,1.07,6.37,6.37,0,0,0-1.25,4v3.17a6.6,6.6,0,0,0,1.32,4.1,2.47,2.47,0,0,0,2.1,1,2.57,2.57,0,0,0,2.12-1.07,6.37,6.37,0,0,0,1.25-4Z"/><path class="cls-2" d="M282.55,268v3.17a10,10,0,0,1-1.62,5.38,5.18,5.18,0,0,1-4.64,2.57,5.37,5.37,0,0,1-3-.77,7.17,7.17,0,0,1-2.27-2.82,9.26,9.26,0,0,1-1.08-4.36V268a10,10,0,0,1,1.62-5.37,5.15,5.15,0,0,1,4.63-2.58,5.32,5.32,0,0,1,2.93.76,7.2,7.2,0,0,1,2.29,2.82A9.16,9.16,0,0,1,282.55,268Zm-2.89,0a6.69,6.69,0,0,0-1.31-4.1,2.5,2.5,0,0,0-2.09-1,2.6,2.6,0,0,0-2.14,1.07,6.37,6.37,0,0,0-1.25,4v3.17a6.6,6.6,0,0,0,1.32,4.1,2.47,2.47,0,0,0,2.1,1,2.59,2.59,0,0,0,2.12-1.07,6.37,6.37,0,0,0,1.25-4Z"/><path class="cls-2" d="M296.34,234.73v15.76h2.91a2.22,2.22,0,0,1,1.48.4,1.34,1.34,0,0,1,.44,1.05,1.3,1.3,0,0,1-.44,1,2.17,2.17,0,0,1-1.48.4h-8.7a2.17,2.17,0,0,1-1.48-.4,1.31,1.31,0,0,1-.45-1,1.34,1.34,0,0,1,.45-1,2.22,2.22,0,0,1,1.48-.4h2.91v-12l-2.57.67a3.61,3.61,0,0,1-.93.17,1.24,1.24,0,0,1-.95-.43,1.51,1.51,0,0,1-.4-1.07,1.36,1.36,0,0,1,.29-.91,2.68,2.68,0,0,1,1.24-.58Z"/><path class="cls-2" d="M318.43,242.68v3.16a9.91,9.91,0,0,1-1.62,5.38,5.19,5.19,0,0,1-4.65,2.58,5.36,5.36,0,0,1-2.94-.77,7.27,7.27,0,0,1-2.28-2.82,9.29,9.29,0,0,1-1.07-4.37v-3.16a10,10,0,0,1,1.61-5.37,5.17,5.17,0,0,1,4.64-2.58,5.35,5.35,0,0,1,2.93.76,7.25,7.25,0,0,1,2.29,2.81A9.2,9.2,0,0,1,318.43,242.68Zm-2.9,0a6.69,6.69,0,0,0-1.3-4.1,2.49,2.49,0,0,0-2.1-1,2.55,2.55,0,0,0-2.13,1.07,6.29,6.29,0,0,0-1.25,4v3.16a6.63,6.63,0,0,0,1.32,4.11,2.48,2.48,0,0,0,2.09,1,2.57,2.57,0,0,0,2.12-1.07,6.32,6.32,0,0,0,1.25-4Z"/><path class="cls-2" d="M330.88,234.73v15.76h2.91a2.22,2.22,0,0,1,1.48.4,1.34,1.34,0,0,1,.44,1.05,1.3,1.3,0,0,1-.44,1,2.17,2.17,0,0,1-1.48.4h-8.7a2.17,2.17,0,0,1-1.48-.4,1.31,1.31,0,0,1-.45-1,1.34,1.34,0,0,1,.45-1,2.22,2.22,0,0,1,1.48-.4H328v-12l-2.57.67a3.61,3.61,0,0,1-.93.17,1.24,1.24,0,0,1-.95-.43,1.51,1.51,0,0,1-.4-1.07,1.31,1.31,0,0,1,.3-.91,2.58,2.58,0,0,1,1.23-.58Z"/><path class="cls-2" d="M353,242.68v3.16a9.84,9.84,0,0,1-1.63,5.38,5.17,5.17,0,0,1-4.64,2.58,5.36,5.36,0,0,1-2.94-.77,7.27,7.27,0,0,1-2.28-2.82,9.29,9.29,0,0,1-1.07-4.37v-3.16a9.92,9.92,0,0,1,1.61-5.37,5.16,5.16,0,0,1,4.64-2.58,5.35,5.35,0,0,1,2.93.76,7.25,7.25,0,0,1,2.29,2.81A9.32,9.32,0,0,1,353,242.68Zm-2.9,0a6.69,6.69,0,0,0-1.3-4.1,2.49,2.49,0,0,0-2.1-1,2.55,2.55,0,0,0-2.13,1.07,6.29,6.29,0,0,0-1.25,4v3.16a6.63,6.63,0,0,0,1.32,4.11,2.46,2.46,0,0,0,2.09,1,2.57,2.57,0,0,0,2.12-1.07,6.32,6.32,0,0,0,1.25-4Z"/><path class="cls-2" d="M301.16,293.07v3.17a10,10,0,0,1-1.62,5.38,5.2,5.2,0,0,1-4.65,2.57,5.36,5.36,0,0,1-2.94-.77,7.27,7.27,0,0,1-2.28-2.82,9.25,9.25,0,0,1-1.07-4.36v-3.17a10,10,0,0,1,1.61-5.37,5.17,5.17,0,0,1,4.64-2.58,5.35,5.35,0,0,1,2.93.76,7.29,7.29,0,0,1,2.29,2.82A9.16,9.16,0,0,1,301.16,293.07Zm-2.9,0A6.69,6.69,0,0,0,297,289a2.52,2.52,0,0,0-2.1-1,2.58,2.58,0,0,0-2.13,1.07,6.31,6.31,0,0,0-1.25,4v3.17a6.6,6.6,0,0,0,1.32,4.1,2.45,2.45,0,0,0,2.09,1,2.57,2.57,0,0,0,2.12-1.07,6.31,6.31,0,0,0,1.25-4Z"/><path class="cls-2" d="M313.61,285.12v15.77h2.91a2.17,2.17,0,0,1,1.48.4,1.3,1.3,0,0,1,.44,1,1.32,1.32,0,0,1-.44,1,2.22,2.22,0,0,1-1.48.4h-8.7a2.22,2.22,0,0,1-1.48-.4,1.35,1.35,0,0,1-.45-1.05,1.31,1.31,0,0,1,.45-1,2.17,2.17,0,0,1,1.48-.4h2.91v-12l-2.57.68a4.11,4.11,0,0,1-.93.17,1.25,1.25,0,0,1-1-.44,1.51,1.51,0,0,1-.4-1.07,1.29,1.29,0,0,1,.3-.9,2.57,2.57,0,0,1,1.23-.59Z"/><path class="cls-2" d="M330.88,285.12v15.77h2.91a2.17,2.17,0,0,1,1.48.4,1.3,1.3,0,0,1,.44,1,1.32,1.32,0,0,1-.44,1,2.22,2.22,0,0,1-1.48.4h-8.7a2.22,2.22,0,0,1-1.48-.4,1.35,1.35,0,0,1-.45-1.05,1.31,1.31,0,0,1,.45-1,2.17,2.17,0,0,1,1.48-.4H328v-12l-2.57.68a4.11,4.11,0,0,1-.93.17,1.25,1.25,0,0,1-.95-.44,1.51,1.51,0,0,1-.4-1.07,1.29,1.29,0,0,1,.3-.9,2.57,2.57,0,0,1,1.23-.59Z"/><path class="cls-2" d="M353,293.07v3.17a9.89,9.89,0,0,1-1.63,5.38,5.18,5.18,0,0,1-4.64,2.57,5.36,5.36,0,0,1-2.94-.77,7.27,7.27,0,0,1-2.28-2.82,9.25,9.25,0,0,1-1.07-4.36v-3.17A9.94,9.94,0,0,1,342,287.7a5.16,5.16,0,0,1,4.64-2.58,5.35,5.35,0,0,1,2.93.76,7.29,7.29,0,0,1,2.29,2.82A9.28,9.28,0,0,1,353,293.07Zm-2.9,0a6.69,6.69,0,0,0-1.3-4.1,2.52,2.52,0,0,0-2.1-1,2.58,2.58,0,0,0-2.13,1.07,6.31,6.31,0,0,0-1.25,4v3.17a6.6,6.6,0,0,0,1.32,4.1,2.44,2.44,0,0,0,2.09,1,2.57,2.57,0,0,0,2.12-1.07,6.31,6.31,0,0,0,1.25-4Z"/><path class="cls-2" d="M301.16,268v3.17a10,10,0,0,1-1.62,5.38,5.2,5.2,0,0,1-4.65,2.57,5.36,5.36,0,0,1-2.94-.77,7.27,7.27,0,0,1-2.28-2.82,9.25,9.25,0,0,1-1.07-4.36V268a10,10,0,0,1,1.61-5.37,5.17,5.17,0,0,1,4.64-2.58,5.35,5.35,0,0,1,2.93.76,7.29,7.29,0,0,1,2.29,2.82A9.16,9.16,0,0,1,301.16,268Zm-2.9,0a6.69,6.69,0,0,0-1.3-4.1,2.52,2.52,0,0,0-2.1-1,2.58,2.58,0,0,0-2.13,1.07,6.31,6.31,0,0,0-1.25,4v3.17a6.6,6.6,0,0,0,1.32,4.1,2.45,2.45,0,0,0,2.09,1,2.57,2.57,0,0,0,2.12-1.07,6.31,6.31,0,0,0,1.25-4Z"/><path class="cls-2" d="M313.61,260.06v15.77h2.91a2.17,2.17,0,0,1,1.48.4,1.3,1.3,0,0,1,.44,1,1.32,1.32,0,0,1-.44,1,2.22,2.22,0,0,1-1.48.4h-8.7a2.22,2.22,0,0,1-1.48-.4,1.35,1.35,0,0,1-.45-1.05,1.31,1.31,0,0,1,.45-1,2.17,2.17,0,0,1,1.48-.4h2.91v-12l-2.57.68a4.11,4.11,0,0,1-.93.17,1.25,1.25,0,0,1-1-.44,1.51,1.51,0,0,1-.4-1.07,1.29,1.29,0,0,1,.3-.9,2.57,2.57,0,0,1,1.23-.59Z"/><path class="cls-2" d="M335.7,268v3.17a10,10,0,0,1-1.62,5.38,5.2,5.2,0,0,1-4.65,2.57,5.36,5.36,0,0,1-2.94-.77,7.27,7.27,0,0,1-2.28-2.82,9.25,9.25,0,0,1-1.07-4.36V268a10,10,0,0,1,1.61-5.37,5.17,5.17,0,0,1,4.64-2.58,5.35,5.35,0,0,1,2.93.76,7.29,7.29,0,0,1,2.29,2.82A9.16,9.16,0,0,1,335.7,268Zm-2.9,0a6.69,6.69,0,0,0-1.3-4.1,2.52,2.52,0,0,0-2.1-1,2.58,2.58,0,0,0-2.13,1.07,6.31,6.31,0,0,0-1.25,4v3.17a6.6,6.6,0,0,0,1.32,4.1,2.45,2.45,0,0,0,2.09,1,2.57,2.57,0,0,0,2.12-1.07,6.31,6.31,0,0,0,1.25-4Z"/><path class="cls-2" d="M353,268v3.17a9.89,9.89,0,0,1-1.63,5.38,5.18,5.18,0,0,1-4.64,2.57,5.36,5.36,0,0,1-2.94-.77,7.27,7.27,0,0,1-2.28-2.82,9.25,9.25,0,0,1-1.07-4.36V268a9.94,9.94,0,0,1,1.61-5.37,5.16,5.16,0,0,1,4.64-2.58,5.35,5.35,0,0,1,2.93.76,7.29,7.29,0,0,1,2.29,2.82A9.28,9.28,0,0,1,353,268Zm-2.9,0a6.69,6.69,0,0,0-1.3-4.1,2.52,2.52,0,0,0-2.1-1,2.58,2.58,0,0,0-2.13,1.07,6.31,6.31,0,0,0-1.25,4v3.17a6.6,6.6,0,0,0,1.32,4.1,2.44,2.44,0,0,0,2.09,1,2.57,2.57,0,0,0,2.12-1.07,6.31,6.31,0,0,0,1.25-4Z"/><path class="cls-2" d="M225.94,158.52v15.77h2.91a2.18,2.18,0,0,1,1.48.4,1.34,1.34,0,0,1,.44,1,1.37,1.37,0,0,1-.44,1,2.24,2.24,0,0,1-1.48.4h-8.7a2.22,2.22,0,0,1-1.48-.4,1.35,1.35,0,0,1-.45-1.05,1.31,1.31,0,0,1,.45-1,2.17,2.17,0,0,1,1.48-.4h2.91v-12l-2.57.68a4,4,0,0,1-.93.16,1.24,1.24,0,0,1-.95-.43,1.51,1.51,0,0,1-.4-1.07,1.36,1.36,0,0,1,.29-.91,2.68,2.68,0,0,1,1.24-.58Z"/><path class="cls-2" d="M248,166.47v3.16A9.9,9.9,0,0,1,246.4,175a5.18,5.18,0,0,1-4.64,2.57,5.36,5.36,0,0,1-2.94-.77,7.27,7.27,0,0,1-2.28-2.82,9.26,9.26,0,0,1-1.07-4.37v-3.16a9.94,9.94,0,0,1,1.61-5.37,5.16,5.16,0,0,1,4.64-2.58,5.35,5.35,0,0,1,2.93.76,7.21,7.21,0,0,1,2.29,2.82A9.28,9.28,0,0,1,248,166.47Zm-2.9,0a6.69,6.69,0,0,0-1.3-4.1,2.49,2.49,0,0,0-2.1-1,2.58,2.58,0,0,0-2.13,1.07,6.31,6.31,0,0,0-1.25,4v3.16a6.61,6.61,0,0,0,1.32,4.11,2.46,2.46,0,0,0,2.09,1,2.57,2.57,0,0,0,2.12-1.07,6.32,6.32,0,0,0,1.25-4Z"/><path class="cls-2" d="M260.48,158.52v15.77h2.91a2.18,2.18,0,0,1,1.48.4,1.34,1.34,0,0,1,.44,1,1.37,1.37,0,0,1-.44,1,2.24,2.24,0,0,1-1.48.4h-8.7a2.22,2.22,0,0,1-1.48-.4,1.35,1.35,0,0,1-.45-1.05,1.31,1.31,0,0,1,.45-1,2.17,2.17,0,0,1,1.48-.4h2.91v-12L255,163a4,4,0,0,1-.93.16,1.24,1.24,0,0,1-.95-.43,1.51,1.51,0,0,1-.4-1.07,1.36,1.36,0,0,1,.29-.91,2.68,2.68,0,0,1,1.24-.58Z"/><path class="cls-2" d="M282.57,166.47v3.16a9.9,9.9,0,0,1-1.63,5.39,5.18,5.18,0,0,1-4.64,2.57,5.36,5.36,0,0,1-2.94-.77,7.18,7.18,0,0,1-2.28-2.82,9.27,9.27,0,0,1-1.08-4.37v-3.16a10,10,0,0,1,1.62-5.37,5.16,5.16,0,0,1,4.64-2.58,5.35,5.35,0,0,1,2.93.76,7.21,7.21,0,0,1,2.29,2.82A9.28,9.28,0,0,1,282.57,166.47Zm-2.9,0a6.63,6.63,0,0,0-1.31-4.1,2.46,2.46,0,0,0-2.09-1,2.58,2.58,0,0,0-2.13,1.07,6.31,6.31,0,0,0-1.26,4v3.16a6.55,6.55,0,0,0,1.33,4.11,2.46,2.46,0,0,0,2.09,1,2.57,2.57,0,0,0,2.12-1.07,6.32,6.32,0,0,0,1.25-4Z"/><path class="cls-2" d="M230.76,216.87V220a9.87,9.87,0,0,1-1.63,5.38,5.18,5.18,0,0,1-4.64,2.57,5.36,5.36,0,0,1-2.94-.76,7.39,7.39,0,0,1-2.28-2.83A9.25,9.25,0,0,1,218.2,220v-3.16a10,10,0,0,1,1.61-5.38,5.16,5.16,0,0,1,4.64-2.58,5.43,5.43,0,0,1,2.93.76,7.37,7.37,0,0,1,2.29,2.82A9.29,9.29,0,0,1,230.76,216.87Zm-2.9,0a6.69,6.69,0,0,0-1.3-4.11,2.52,2.52,0,0,0-2.1-1,2.58,2.58,0,0,0-2.13,1.07,6.32,6.32,0,0,0-1.25,4V220a6.6,6.6,0,0,0,1.32,4.1,2.44,2.44,0,0,0,2.09,1,2.57,2.57,0,0,0,2.12-1.07,6.29,6.29,0,0,0,1.25-4Z"/><path class="cls-2" d="M243.21,208.91v15.77h2.91a2.18,2.18,0,0,1,1.48.4,1.37,1.37,0,0,1,.44,1,1.34,1.34,0,0,1-.44,1,2.18,2.18,0,0,1-1.48.4h-8.7a2.17,2.17,0,0,1-1.48-.4,1.35,1.35,0,0,1-.45-1,1.32,1.32,0,0,1,.45-1,2.17,2.17,0,0,1,1.48-.4h2.91v-12l-2.57.68a4.2,4.2,0,0,1-.93.17,1.25,1.25,0,0,1-1-.44,1.5,1.5,0,0,1-.4-1.07,1.33,1.33,0,0,1,.29-.9,2.67,2.67,0,0,1,1.24-.59Z"/><path class="cls-2" d="M260.48,208.91v15.77h2.91a2.18,2.18,0,0,1,1.48.4,1.37,1.37,0,0,1,.44,1,1.34,1.34,0,0,1-.44,1,2.18,2.18,0,0,1-1.48.4h-8.7a2.17,2.17,0,0,1-1.48-.4,1.35,1.35,0,0,1-.45-1,1.32,1.32,0,0,1,.45-1,2.17,2.17,0,0,1,1.48-.4h2.91v-12l-2.57.68a4.2,4.2,0,0,1-.93.17,1.25,1.25,0,0,1-.95-.44,1.5,1.5,0,0,1-.4-1.07,1.33,1.33,0,0,1,.29-.9,2.67,2.67,0,0,1,1.24-.59Z"/><path class="cls-2" d="M282.57,216.87V220a9.87,9.87,0,0,1-1.63,5.38A5.18,5.18,0,0,1,276.3,228a5.36,5.36,0,0,1-2.94-.76,7.3,7.3,0,0,1-2.28-2.83A9.26,9.26,0,0,1,270,220v-3.16a10,10,0,0,1,1.62-5.38,5.16,5.16,0,0,1,4.64-2.58,5.43,5.43,0,0,1,2.93.76,7.37,7.37,0,0,1,2.29,2.82A9.29,9.29,0,0,1,282.57,216.87Zm-2.9,0a6.64,6.64,0,0,0-1.31-4.11,2.49,2.49,0,0,0-2.09-1,2.58,2.58,0,0,0-2.13,1.07,6.32,6.32,0,0,0-1.26,4V220a6.54,6.54,0,0,0,1.33,4.1,2.44,2.44,0,0,0,2.09,1,2.57,2.57,0,0,0,2.12-1.07,6.29,6.29,0,0,0,1.25-4Z"/><path class="cls-2" d="M230.76,191.81V195a9.87,9.87,0,0,1-1.63,5.38,5.18,5.18,0,0,1-4.64,2.57,5.36,5.36,0,0,1-2.94-.76,7.39,7.39,0,0,1-2.28-2.83A9.25,9.25,0,0,1,218.2,195v-3.16a10,10,0,0,1,1.61-5.38,5.16,5.16,0,0,1,4.64-2.58,5.43,5.43,0,0,1,2.93.76,7.37,7.37,0,0,1,2.29,2.82A9.29,9.29,0,0,1,230.76,191.81Zm-2.9,0a6.69,6.69,0,0,0-1.3-4.11,2.52,2.52,0,0,0-2.1-1,2.58,2.58,0,0,0-2.13,1.07,6.32,6.32,0,0,0-1.25,4V195a6.6,6.6,0,0,0,1.32,4.1,2.44,2.44,0,0,0,2.09,1,2.57,2.57,0,0,0,2.12-1.07,6.29,6.29,0,0,0,1.25-4Z"/><path class="cls-2" d="M243.21,183.85v15.77h2.91a2.18,2.18,0,0,1,1.48.4,1.37,1.37,0,0,1,.44,1,1.34,1.34,0,0,1-.44,1,2.18,2.18,0,0,1-1.48.4h-8.7a2.17,2.17,0,0,1-1.48-.4,1.35,1.35,0,0,1-.45-1,1.32,1.32,0,0,1,.45-1,2.17,2.17,0,0,1,1.48-.4h2.91v-12l-2.57.68a4.2,4.2,0,0,1-.93.17,1.25,1.25,0,0,1-1-.44,1.5,1.5,0,0,1-.4-1.07,1.33,1.33,0,0,1,.29-.9,2.67,2.67,0,0,1,1.24-.59Z"/><path class="cls-2" d="M265.3,191.81V195a9.87,9.87,0,0,1-1.63,5.38,5.18,5.18,0,0,1-4.64,2.57,5.36,5.36,0,0,1-2.94-.76,7.39,7.39,0,0,1-2.28-2.83,9.25,9.25,0,0,1-1.07-4.36v-3.16a10,10,0,0,1,1.61-5.38,5.16,5.16,0,0,1,4.64-2.58,5.43,5.43,0,0,1,2.93.76,7.37,7.37,0,0,1,2.29,2.82A9.29,9.29,0,0,1,265.3,191.81Zm-2.9,0a6.69,6.69,0,0,0-1.3-4.11,2.52,2.52,0,0,0-2.1-1,2.58,2.58,0,0,0-2.13,1.07,6.32,6.32,0,0,0-1.25,4V195a6.6,6.6,0,0,0,1.32,4.1,2.44,2.44,0,0,0,2.09,1,2.57,2.57,0,0,0,2.12-1.07,6.29,6.29,0,0,0,1.25-4Z"/><path class="cls-2" d="M282.57,191.81V195a9.87,9.87,0,0,1-1.63,5.38,5.18,5.18,0,0,1-4.64,2.57,5.36,5.36,0,0,1-2.94-.76,7.3,7.3,0,0,1-2.28-2.83A9.26,9.26,0,0,1,270,195v-3.16a10,10,0,0,1,1.62-5.38,5.16,5.16,0,0,1,4.64-2.58,5.43,5.43,0,0,1,2.93.76,7.37,7.37,0,0,1,2.29,2.82A9.29,9.29,0,0,1,282.57,191.81Zm-2.9,0a6.64,6.64,0,0,0-1.31-4.11,2.49,2.49,0,0,0-2.09-1,2.58,2.58,0,0,0-2.13,1.07,6.32,6.32,0,0,0-1.26,4V195a6.54,6.54,0,0,0,1.33,4.1,2.44,2.44,0,0,0,2.09,1,2.57,2.57,0,0,0,2.12-1.07,6.29,6.29,0,0,0,1.25-4Z"/><path class="cls-2" d="M296.35,158.52v15.77h2.91a2.17,2.17,0,0,1,1.48.4,1.31,1.31,0,0,1,.45,1,1.34,1.34,0,0,1-.45,1,2.22,2.22,0,0,1-1.48.4h-8.7a2.24,2.24,0,0,1-1.48-.4,1.37,1.37,0,0,1-.44-1.05,1.33,1.33,0,0,1,.44-1,2.18,2.18,0,0,1,1.48-.4h2.91v-12l-2.57.68a3.88,3.88,0,0,1-.93.16,1.26,1.26,0,0,1-1-.43,1.56,1.56,0,0,1-.4-1.07,1.31,1.31,0,0,1,.3-.91,2.68,2.68,0,0,1,1.24-.58Z"/><path class="cls-2" d="M318.44,166.47v3.16a10,10,0,0,1-1.62,5.39,5.18,5.18,0,0,1-4.64,2.57,5.37,5.37,0,0,1-2.95-.77A7.17,7.17,0,0,1,307,174a9.27,9.27,0,0,1-1.08-4.37v-3.16a10,10,0,0,1,1.62-5.37,5.15,5.15,0,0,1,4.63-2.58,5.32,5.32,0,0,1,2.93.76,7.13,7.13,0,0,1,2.29,2.82A9.16,9.16,0,0,1,318.44,166.47Zm-2.89,0a6.69,6.69,0,0,0-1.31-4.1,2.48,2.48,0,0,0-2.09-1,2.6,2.6,0,0,0-2.14,1.07,6.37,6.37,0,0,0-1.25,4v3.16a6.61,6.61,0,0,0,1.32,4.11,2.49,2.49,0,0,0,2.1,1,2.59,2.59,0,0,0,2.12-1.07,6.38,6.38,0,0,0,1.25-4Z"/><path class="cls-2" d="M330.89,158.52v15.77h2.91a2.17,2.17,0,0,1,1.48.4,1.31,1.31,0,0,1,.45,1,1.34,1.34,0,0,1-.45,1,2.22,2.22,0,0,1-1.48.4h-8.7a2.24,2.24,0,0,1-1.48-.4,1.37,1.37,0,0,1-.44-1.05,1.33,1.33,0,0,1,.44-1,2.18,2.18,0,0,1,1.48-.4H328v-12l-2.57.68a3.88,3.88,0,0,1-.93.16,1.26,1.26,0,0,1-.95-.43,1.56,1.56,0,0,1-.4-1.07,1.31,1.31,0,0,1,.3-.91,2.68,2.68,0,0,1,1.24-.58Z"/><path class="cls-2" d="M353,166.47v3.16a10,10,0,0,1-1.62,5.39,5.18,5.18,0,0,1-4.64,2.57,5.37,5.37,0,0,1-3-.77,7.27,7.27,0,0,1-2.28-2.82,9.38,9.38,0,0,1-1.07-4.37v-3.16A10,10,0,0,1,342,161.1a5.15,5.15,0,0,1,4.63-2.58,5.35,5.35,0,0,1,2.93.76,7.13,7.13,0,0,1,2.29,2.82A9.16,9.16,0,0,1,353,166.47Zm-2.89,0a6.69,6.69,0,0,0-1.31-4.1,2.48,2.48,0,0,0-2.09-1,2.6,2.6,0,0,0-2.14,1.07,6.37,6.37,0,0,0-1.25,4v3.16a6.61,6.61,0,0,0,1.32,4.11,2.49,2.49,0,0,0,2.1,1,2.59,2.59,0,0,0,2.12-1.07,6.38,6.38,0,0,0,1.25-4Z"/><path class="cls-2" d="M301.17,216.87V220a9.94,9.94,0,0,1-1.62,5.38,5.18,5.18,0,0,1-4.64,2.57,5.37,5.37,0,0,1-3-.76,7.39,7.39,0,0,1-2.28-2.83,9.37,9.37,0,0,1-1.07-4.36v-3.16a10,10,0,0,1,1.62-5.38,5.15,5.15,0,0,1,4.63-2.58,5.41,5.41,0,0,1,2.93.76,7.28,7.28,0,0,1,2.29,2.82A9.17,9.17,0,0,1,301.17,216.87Zm-2.89,0a6.7,6.7,0,0,0-1.31-4.11,2.5,2.5,0,0,0-2.09-1,2.6,2.6,0,0,0-2.14,1.07,6.38,6.38,0,0,0-1.25,4V220a6.6,6.6,0,0,0,1.32,4.1,2.47,2.47,0,0,0,2.1,1A2.59,2.59,0,0,0,297,224a6.35,6.35,0,0,0,1.25-4Z"/><path class="cls-2" d="M313.62,208.91v15.77h2.91a2.17,2.17,0,0,1,1.48.4,1.35,1.35,0,0,1,.45,1,1.32,1.32,0,0,1-.45,1,2.17,2.17,0,0,1-1.48.4h-8.7a2.18,2.18,0,0,1-1.48-.4,1.37,1.37,0,0,1-.44-1,1.34,1.34,0,0,1,.44-1,2.18,2.18,0,0,1,1.48-.4h2.91v-12l-2.57.68a4,4,0,0,1-.93.17,1.27,1.27,0,0,1-.95-.44,1.54,1.54,0,0,1-.4-1.07,1.29,1.29,0,0,1,.3-.9,2.67,2.67,0,0,1,1.24-.59Z"/><path class="cls-2" d="M330.89,208.91v15.77h2.91a2.17,2.17,0,0,1,1.48.4,1.35,1.35,0,0,1,.45,1,1.32,1.32,0,0,1-.45,1,2.17,2.17,0,0,1-1.48.4h-8.7a2.18,2.18,0,0,1-1.48-.4,1.37,1.37,0,0,1-.44-1,1.34,1.34,0,0,1,.44-1,2.18,2.18,0,0,1,1.48-.4H328v-12l-2.57.68a4,4,0,0,1-.93.17,1.27,1.27,0,0,1-.95-.44,1.54,1.54,0,0,1-.4-1.07,1.29,1.29,0,0,1,.3-.9,2.67,2.67,0,0,1,1.24-.59Z"/><path class="cls-2" d="M353,216.87V220a9.94,9.94,0,0,1-1.62,5.38,5.18,5.18,0,0,1-4.64,2.57,5.37,5.37,0,0,1-3-.76,7.39,7.39,0,0,1-2.28-2.83,9.37,9.37,0,0,1-1.07-4.36v-3.16a10,10,0,0,1,1.62-5.38,5.15,5.15,0,0,1,4.63-2.58,5.43,5.43,0,0,1,2.93.76,7.28,7.28,0,0,1,2.29,2.82A9.17,9.17,0,0,1,353,216.87Zm-2.89,0a6.7,6.7,0,0,0-1.31-4.11,2.5,2.5,0,0,0-2.09-1,2.6,2.6,0,0,0-2.14,1.07,6.38,6.38,0,0,0-1.25,4V220a6.6,6.6,0,0,0,1.32,4.1,2.47,2.47,0,0,0,2.1,1,2.59,2.59,0,0,0,2.12-1.07,6.35,6.35,0,0,0,1.25-4Z"/><path class="cls-2" d="M301.17,191.81V195a9.94,9.94,0,0,1-1.62,5.38,5.18,5.18,0,0,1-4.64,2.57,5.37,5.37,0,0,1-3-.76,7.39,7.39,0,0,1-2.28-2.83,9.37,9.37,0,0,1-1.07-4.36v-3.16a10,10,0,0,1,1.62-5.38,5.15,5.15,0,0,1,4.63-2.58,5.41,5.41,0,0,1,2.93.76,7.28,7.28,0,0,1,2.29,2.82A9.17,9.17,0,0,1,301.17,191.81Zm-2.89,0A6.7,6.7,0,0,0,297,187.7a2.5,2.5,0,0,0-2.09-1,2.6,2.6,0,0,0-2.14,1.07,6.38,6.38,0,0,0-1.25,4V195a6.6,6.6,0,0,0,1.32,4.1,2.47,2.47,0,0,0,2.1,1A2.59,2.59,0,0,0,297,199a6.35,6.35,0,0,0,1.25-4Z"/><path class="cls-2" d="M313.62,183.85v15.77h2.91a2.17,2.17,0,0,1,1.48.4,1.35,1.35,0,0,1,.45,1,1.32,1.32,0,0,1-.45,1,2.17,2.17,0,0,1-1.48.4h-8.7a2.18,2.18,0,0,1-1.48-.4,1.37,1.37,0,0,1-.44-1,1.34,1.34,0,0,1,.44-1,2.18,2.18,0,0,1,1.48-.4h2.91v-12l-2.57.68a4,4,0,0,1-.93.17,1.27,1.27,0,0,1-.95-.44,1.54,1.54,0,0,1-.4-1.07,1.29,1.29,0,0,1,.3-.9,2.67,2.67,0,0,1,1.24-.59Z"/><path class="cls-2" d="M335.71,191.81V195a9.94,9.94,0,0,1-1.62,5.38,5.18,5.18,0,0,1-4.64,2.57,5.37,5.37,0,0,1-2.95-.76,7.29,7.29,0,0,1-2.27-2.83,9.26,9.26,0,0,1-1.08-4.36v-3.16a10,10,0,0,1,1.62-5.38,5.15,5.15,0,0,1,4.63-2.58,5.41,5.41,0,0,1,2.93.76,7.28,7.28,0,0,1,2.29,2.82A9.17,9.17,0,0,1,335.71,191.81Zm-2.89,0a6.7,6.7,0,0,0-1.31-4.11,2.5,2.5,0,0,0-2.09-1,2.6,2.6,0,0,0-2.14,1.07,6.38,6.38,0,0,0-1.25,4V195a6.6,6.6,0,0,0,1.32,4.1,2.47,2.47,0,0,0,2.1,1,2.59,2.59,0,0,0,2.12-1.07,6.35,6.35,0,0,0,1.25-4Z"/><path class="cls-2" d="M353,191.81V195a9.94,9.94,0,0,1-1.62,5.38,5.18,5.18,0,0,1-4.64,2.57,5.37,5.37,0,0,1-3-.76,7.39,7.39,0,0,1-2.28-2.83,9.37,9.37,0,0,1-1.07-4.36v-3.16a10,10,0,0,1,1.62-5.38,5.15,5.15,0,0,1,4.63-2.58,5.43,5.43,0,0,1,2.93.76,7.28,7.28,0,0,1,2.29,2.82A9.17,9.17,0,0,1,353,191.81Zm-2.89,0a6.7,6.7,0,0,0-1.31-4.11,2.5,2.5,0,0,0-2.09-1,2.6,2.6,0,0,0-2.14,1.07,6.38,6.38,0,0,0-1.25,4V195a6.6,6.6,0,0,0,1.32,4.1,2.47,2.47,0,0,0,2.1,1,2.59,2.59,0,0,0,2.12-1.07,6.35,6.35,0,0,0,1.25-4Z"/><path class="cls-2" d="M85.15,234.73v15.76h2.91a2.24,2.24,0,0,1,1.48.4,1.37,1.37,0,0,1,.44,1.05,1.33,1.33,0,0,1-.44,1,2.18,2.18,0,0,1-1.48.4h-8.7a2.15,2.15,0,0,1-1.48-.4,1.31,1.31,0,0,1-.45-1,1.34,1.34,0,0,1,.45-1,2.2,2.2,0,0,1,1.48-.4h2.91v-12l-2.58.67a3.55,3.55,0,0,1-.92.17,1.24,1.24,0,0,1-1-.43,1.51,1.51,0,0,1-.4-1.07,1.36,1.36,0,0,1,.29-.91,2.68,2.68,0,0,1,1.24-.58Z"/><path class="cls-2" d="M107.24,242.68v3.16a9.84,9.84,0,0,1-1.63,5.38A5.17,5.17,0,0,1,101,253.8,5.36,5.36,0,0,1,98,253a7.18,7.18,0,0,1-2.28-2.82,9.3,9.3,0,0,1-1.08-4.37v-3.16a9.93,9.93,0,0,1,1.62-5.37,5.16,5.16,0,0,1,4.64-2.58,5.35,5.35,0,0,1,2.93.76,7.25,7.25,0,0,1,2.29,2.81A9.32,9.32,0,0,1,107.24,242.68Zm-2.9,0a6.69,6.69,0,0,0-1.3-4.1,2.49,2.49,0,0,0-2.1-1,2.55,2.55,0,0,0-2.13,1.07,6.29,6.29,0,0,0-1.25,4v3.16A6.57,6.57,0,0,0,98.88,250a2.46,2.46,0,0,0,2.09,1,2.57,2.57,0,0,0,2.12-1.07,6.32,6.32,0,0,0,1.25-4Z"/><path class="cls-2" d="M119.69,234.73v15.76h2.91a2.24,2.24,0,0,1,1.48.4,1.37,1.37,0,0,1,.44,1.05,1.33,1.33,0,0,1-.44,1,2.18,2.18,0,0,1-1.48.4h-8.7a2.15,2.15,0,0,1-1.48-.4,1.31,1.31,0,0,1-.45-1,1.34,1.34,0,0,1,.45-1,2.2,2.2,0,0,1,1.48-.4h2.91v-12l-2.58.67a3.55,3.55,0,0,1-.92.17,1.24,1.24,0,0,1-1-.43,1.51,1.51,0,0,1-.4-1.07,1.36,1.36,0,0,1,.29-.91,2.68,2.68,0,0,1,1.24-.58Z"/><path class="cls-2" d="M141.78,242.68v3.16a9.84,9.84,0,0,1-1.63,5.38,5.17,5.17,0,0,1-4.64,2.58,5.42,5.42,0,0,1-2.95-.77,7.26,7.26,0,0,1-2.27-2.82,9.3,9.3,0,0,1-1.08-4.37v-3.16a9.93,9.93,0,0,1,1.62-5.37,5.16,5.16,0,0,1,4.64-2.58,5.35,5.35,0,0,1,2.93.76,7.25,7.25,0,0,1,2.29,2.81A9.32,9.32,0,0,1,141.78,242.68Zm-2.9,0a6.63,6.63,0,0,0-1.31-4.1,2.46,2.46,0,0,0-2.09-1,2.58,2.58,0,0,0-2.14,1.07,6.35,6.35,0,0,0-1.25,4v3.16a6.57,6.57,0,0,0,1.33,4.11,2.46,2.46,0,0,0,2.09,1,2.57,2.57,0,0,0,2.12-1.07,6.38,6.38,0,0,0,1.25-4Z"/><path class="cls-2" d="M90,293.07v3.17a9.89,9.89,0,0,1-1.63,5.38,5.18,5.18,0,0,1-4.64,2.57,5.36,5.36,0,0,1-2.94-.77,7.18,7.18,0,0,1-2.28-2.82,9.26,9.26,0,0,1-1.08-4.36v-3.17A10,10,0,0,1,79,287.7a5.16,5.16,0,0,1,4.64-2.58,5.35,5.35,0,0,1,2.93.76,7.29,7.29,0,0,1,2.29,2.82A9.28,9.28,0,0,1,90,293.07Zm-2.9,0a6.63,6.63,0,0,0-1.31-4.1,2.49,2.49,0,0,0-2.09-1,2.58,2.58,0,0,0-2.13,1.07,6.31,6.31,0,0,0-1.25,4v3.17a6.54,6.54,0,0,0,1.32,4.1,2.44,2.44,0,0,0,2.09,1,2.57,2.57,0,0,0,2.12-1.07,6.31,6.31,0,0,0,1.25-4Z"/><path class="cls-2" d="M102.42,285.12v15.77h2.91a2.18,2.18,0,0,1,1.48.4,1.34,1.34,0,0,1,.44,1,1.35,1.35,0,0,1-.44,1,2.24,2.24,0,0,1-1.48.4h-8.7a2.2,2.2,0,0,1-1.48-.4,1.35,1.35,0,0,1-.45-1.05,1.31,1.31,0,0,1,.45-1,2.15,2.15,0,0,1,1.48-.4h2.91v-12l-2.58.68a4,4,0,0,1-.92.17,1.25,1.25,0,0,1-1-.44,1.51,1.51,0,0,1-.4-1.07,1.33,1.33,0,0,1,.29-.9,2.67,2.67,0,0,1,1.24-.59Z"/><path class="cls-2" d="M119.69,285.12v15.77h2.91a2.18,2.18,0,0,1,1.48.4,1.34,1.34,0,0,1,.44,1,1.35,1.35,0,0,1-.44,1,2.24,2.24,0,0,1-1.48.4h-8.7a2.2,2.2,0,0,1-1.48-.4,1.35,1.35,0,0,1-.45-1.05,1.31,1.31,0,0,1,.45-1,2.15,2.15,0,0,1,1.48-.4h2.91v-12l-2.58.68a4,4,0,0,1-.92.17,1.25,1.25,0,0,1-1-.44,1.51,1.51,0,0,1-.4-1.07,1.33,1.33,0,0,1,.29-.9,2.67,2.67,0,0,1,1.24-.59Z"/><path class="cls-2" d="M141.78,293.07v3.17a9.89,9.89,0,0,1-1.63,5.38,5.18,5.18,0,0,1-4.64,2.57,5.42,5.42,0,0,1-2.95-.77,7.26,7.26,0,0,1-2.27-2.82,9.26,9.26,0,0,1-1.08-4.36v-3.17a10,10,0,0,1,1.62-5.37,5.16,5.16,0,0,1,4.64-2.58,5.35,5.35,0,0,1,2.93.76,7.29,7.29,0,0,1,2.29,2.82A9.28,9.28,0,0,1,141.78,293.07Zm-2.9,0a6.63,6.63,0,0,0-1.31-4.1,2.49,2.49,0,0,0-2.09-1,2.61,2.61,0,0,0-2.14,1.07,6.37,6.37,0,0,0-1.25,4v3.17a6.54,6.54,0,0,0,1.33,4.1,2.44,2.44,0,0,0,2.09,1,2.57,2.57,0,0,0,2.12-1.07,6.37,6.37,0,0,0,1.25-4Z"/><path class="cls-2" d="M90,268v3.17a9.89,9.89,0,0,1-1.63,5.38,5.18,5.18,0,0,1-4.64,2.57,5.36,5.36,0,0,1-2.94-.77,7.18,7.18,0,0,1-2.28-2.82,9.26,9.26,0,0,1-1.08-4.36V268A10,10,0,0,1,79,262.64a5.16,5.16,0,0,1,4.64-2.58,5.35,5.35,0,0,1,2.93.76,7.29,7.29,0,0,1,2.29,2.82A9.28,9.28,0,0,1,90,268Zm-2.9,0a6.63,6.63,0,0,0-1.31-4.1,2.49,2.49,0,0,0-2.09-1A2.58,2.58,0,0,0,81.54,264a6.31,6.31,0,0,0-1.25,4v3.17a6.54,6.54,0,0,0,1.32,4.1,2.44,2.44,0,0,0,2.09,1,2.57,2.57,0,0,0,2.12-1.07,6.31,6.31,0,0,0,1.25-4Z"/><path class="cls-2" d="M102.42,260.06v15.77h2.91a2.18,2.18,0,0,1,1.48.4,1.34,1.34,0,0,1,.44,1,1.35,1.35,0,0,1-.44,1,2.24,2.24,0,0,1-1.48.4h-8.7a2.2,2.2,0,0,1-1.48-.4,1.35,1.35,0,0,1-.45-1.05,1.31,1.31,0,0,1,.45-1,2.15,2.15,0,0,1,1.48-.4h2.91v-12l-2.58.68a4,4,0,0,1-.92.17,1.25,1.25,0,0,1-1-.44,1.51,1.51,0,0,1-.4-1.07,1.33,1.33,0,0,1,.29-.9,2.67,2.67,0,0,1,1.24-.59Z"/><path class="cls-2" d="M124.51,268v3.17a9.89,9.89,0,0,1-1.63,5.38,5.18,5.18,0,0,1-4.64,2.57,5.36,5.36,0,0,1-2.94-.77,7.18,7.18,0,0,1-2.28-2.82,9.26,9.26,0,0,1-1.08-4.36V268a10,10,0,0,1,1.62-5.37,5.16,5.16,0,0,1,4.64-2.58,5.35,5.35,0,0,1,2.93.76,7.29,7.29,0,0,1,2.29,2.82A9.28,9.28,0,0,1,124.51,268Zm-2.9,0a6.69,6.69,0,0,0-1.3-4.1,2.52,2.52,0,0,0-2.1-1,2.58,2.58,0,0,0-2.13,1.07,6.31,6.31,0,0,0-1.25,4v3.17a6.54,6.54,0,0,0,1.32,4.1,2.44,2.44,0,0,0,2.09,1,2.57,2.57,0,0,0,2.12-1.07,6.31,6.31,0,0,0,1.25-4Z"/><path class="cls-2" d="M141.78,268v3.17a9.89,9.89,0,0,1-1.63,5.38,5.18,5.18,0,0,1-4.64,2.57,5.42,5.42,0,0,1-2.95-.77,7.26,7.26,0,0,1-2.27-2.82,9.26,9.26,0,0,1-1.08-4.36V268a10,10,0,0,1,1.62-5.37,5.16,5.16,0,0,1,4.64-2.58,5.35,5.35,0,0,1,2.93.76,7.29,7.29,0,0,1,2.29,2.82A9.28,9.28,0,0,1,141.78,268Zm-2.9,0a6.63,6.63,0,0,0-1.31-4.1,2.49,2.49,0,0,0-2.09-1,2.61,2.61,0,0,0-2.14,1.07,6.37,6.37,0,0,0-1.25,4v3.17a6.54,6.54,0,0,0,1.33,4.1,2.44,2.44,0,0,0,2.09,1,2.57,2.57,0,0,0,2.12-1.07,6.37,6.37,0,0,0,1.25-4Z"/><path class="cls-2" d="M155.56,234.73v15.76h2.91a2.22,2.22,0,0,1,1.48.4,1.35,1.35,0,0,1,.45,1.05,1.31,1.31,0,0,1-.45,1,2.17,2.17,0,0,1-1.48.4h-8.7a2.17,2.17,0,0,1-1.48-.4,1.34,1.34,0,0,1-.44-1,1.37,1.37,0,0,1,.44-1,2.22,2.22,0,0,1,1.48-.4h2.91v-12l-2.57.67a3.54,3.54,0,0,1-.93.17,1.26,1.26,0,0,1-1-.43,1.56,1.56,0,0,1-.4-1.07,1.31,1.31,0,0,1,.3-.91,2.63,2.63,0,0,1,1.23-.58Z"/><path class="cls-2" d="M177.65,242.68v3.16a9.91,9.91,0,0,1-1.62,5.38,5.17,5.17,0,0,1-4.64,2.58,5.37,5.37,0,0,1-2.95-.77,7.27,7.27,0,0,1-2.28-2.82,9.41,9.41,0,0,1-1.07-4.37v-3.16a9.93,9.93,0,0,1,1.62-5.37,5.15,5.15,0,0,1,4.63-2.58,5.35,5.35,0,0,1,2.93.76,7.16,7.16,0,0,1,2.29,2.81A9.2,9.2,0,0,1,177.65,242.68Zm-2.89,0a6.69,6.69,0,0,0-1.31-4.1,2.48,2.48,0,0,0-2.09-1,2.57,2.57,0,0,0-2.14,1.07,6.35,6.35,0,0,0-1.25,4v3.16a6.63,6.63,0,0,0,1.32,4.11,2.49,2.49,0,0,0,2.1,1,2.59,2.59,0,0,0,2.12-1.07,6.38,6.38,0,0,0,1.25-4Z"/><path class="cls-2" d="M190.1,234.73v15.76H193a2.22,2.22,0,0,1,1.48.4,1.35,1.35,0,0,1,.45,1.05,1.31,1.31,0,0,1-.45,1,2.17,2.17,0,0,1-1.48.4h-8.7a2.18,2.18,0,0,1-1.48-.4,1.34,1.34,0,0,1-.44-1,1.37,1.37,0,0,1,.44-1,2.24,2.24,0,0,1,1.48-.4h2.91v-12l-2.57.67a3.54,3.54,0,0,1-.93.17,1.26,1.26,0,0,1-.95-.43,1.56,1.56,0,0,1-.4-1.07,1.31,1.31,0,0,1,.3-.91,2.68,2.68,0,0,1,1.24-.58Z"/><path class="cls-2" d="M212.19,242.68v3.16a9.91,9.91,0,0,1-1.62,5.38,5.18,5.18,0,0,1-4.65,2.58A5.36,5.36,0,0,1,203,253a7.27,7.27,0,0,1-2.28-2.82,9.41,9.41,0,0,1-1.07-4.37v-3.16a10,10,0,0,1,1.61-5.37,5.17,5.17,0,0,1,4.64-2.58,5.35,5.35,0,0,1,2.93.76,7.16,7.16,0,0,1,2.29,2.81A9.2,9.2,0,0,1,212.19,242.68Zm-2.89,0a6.69,6.69,0,0,0-1.31-4.1,2.48,2.48,0,0,0-2.09-1,2.56,2.56,0,0,0-2.14,1.07,6.35,6.35,0,0,0-1.25,4v3.16a6.63,6.63,0,0,0,1.32,4.11,2.48,2.48,0,0,0,2.09,1,2.59,2.59,0,0,0,2.13-1.07,6.38,6.38,0,0,0,1.25-4Z"/><path class="cls-2" d="M160.38,293.07v3.17a10,10,0,0,1-1.62,5.38,5.18,5.18,0,0,1-4.64,2.57,5.37,5.37,0,0,1-3-.77,7.27,7.27,0,0,1-2.28-2.82,9.37,9.37,0,0,1-1.07-4.36v-3.17a10,10,0,0,1,1.62-5.37,5.15,5.15,0,0,1,4.63-2.58,5.35,5.35,0,0,1,2.93.76,7.2,7.2,0,0,1,2.29,2.82A9.16,9.16,0,0,1,160.38,293.07Zm-2.89,0a6.69,6.69,0,0,0-1.31-4.1,2.5,2.5,0,0,0-2.09-1,2.6,2.6,0,0,0-2.14,1.07,6.37,6.37,0,0,0-1.25,4v3.17a6.6,6.6,0,0,0,1.32,4.1,2.47,2.47,0,0,0,2.1,1,2.59,2.59,0,0,0,2.12-1.07,6.37,6.37,0,0,0,1.25-4Z"/><path class="cls-2" d="M172.83,285.12v15.77h2.91a2.17,2.17,0,0,1,1.48.4,1.31,1.31,0,0,1,.45,1,1.33,1.33,0,0,1-.45,1,2.22,2.22,0,0,1-1.48.4H167a2.22,2.22,0,0,1-1.48-.4,1.37,1.37,0,0,1-.44-1.05,1.33,1.33,0,0,1,.44-1,2.17,2.17,0,0,1,1.48-.4H170v-12l-2.57.68a4,4,0,0,1-.93.17,1.27,1.27,0,0,1-.95-.44,1.56,1.56,0,0,1-.4-1.07,1.29,1.29,0,0,1,.3-.9,2.62,2.62,0,0,1,1.23-.59Z"/><path class="cls-2" d="M190.1,285.12v15.77H193a2.17,2.17,0,0,1,1.48.4,1.31,1.31,0,0,1,.45,1,1.33,1.33,0,0,1-.45,1,2.22,2.22,0,0,1-1.48.4h-8.7a2.24,2.24,0,0,1-1.48-.4,1.37,1.37,0,0,1-.44-1.05,1.33,1.33,0,0,1,.44-1,2.18,2.18,0,0,1,1.48-.4h2.91v-12l-2.57.68a4,4,0,0,1-.93.17,1.27,1.27,0,0,1-.95-.44,1.56,1.56,0,0,1-.4-1.07,1.29,1.29,0,0,1,.3-.9,2.67,2.67,0,0,1,1.24-.59Z"/><path class="cls-2" d="M212.19,293.07v3.17a10,10,0,0,1-1.62,5.38,5.19,5.19,0,0,1-4.65,2.57,5.36,5.36,0,0,1-2.94-.77,7.27,7.27,0,0,1-2.28-2.82,9.37,9.37,0,0,1-1.07-4.36v-3.17a10,10,0,0,1,1.61-5.37,5.17,5.17,0,0,1,4.64-2.58,5.35,5.35,0,0,1,2.93.76,7.2,7.2,0,0,1,2.29,2.82A9.16,9.16,0,0,1,212.19,293.07Zm-2.89,0A6.69,6.69,0,0,0,208,289a2.5,2.5,0,0,0-2.09-1,2.58,2.58,0,0,0-2.14,1.07,6.37,6.37,0,0,0-1.25,4v3.17a6.6,6.6,0,0,0,1.32,4.1,2.45,2.45,0,0,0,2.09,1,2.59,2.59,0,0,0,2.13-1.07,6.37,6.37,0,0,0,1.25-4Z"/><path class="cls-2" d="M160.38,268v3.17a10,10,0,0,1-1.62,5.38,5.18,5.18,0,0,1-4.64,2.57,5.37,5.37,0,0,1-3-.77,7.27,7.27,0,0,1-2.28-2.82,9.37,9.37,0,0,1-1.07-4.36V268a10,10,0,0,1,1.62-5.37,5.15,5.15,0,0,1,4.63-2.58,5.35,5.35,0,0,1,2.93.76,7.2,7.2,0,0,1,2.29,2.82A9.16,9.16,0,0,1,160.38,268Zm-2.89,0a6.69,6.69,0,0,0-1.31-4.1,2.5,2.5,0,0,0-2.09-1A2.6,2.6,0,0,0,152,264a6.37,6.37,0,0,0-1.25,4v3.17a6.6,6.6,0,0,0,1.32,4.1,2.47,2.47,0,0,0,2.1,1,2.59,2.59,0,0,0,2.12-1.07,6.37,6.37,0,0,0,1.25-4Z"/><path class="cls-2" d="M172.83,260.06v15.77h2.91a2.17,2.17,0,0,1,1.48.4,1.31,1.31,0,0,1,.45,1,1.33,1.33,0,0,1-.45,1,2.22,2.22,0,0,1-1.48.4H167a2.22,2.22,0,0,1-1.48-.4,1.37,1.37,0,0,1-.44-1.05,1.33,1.33,0,0,1,.44-1,2.17,2.17,0,0,1,1.48-.4H170v-12l-2.57.68a4,4,0,0,1-.93.17,1.27,1.27,0,0,1-.95-.44,1.56,1.56,0,0,1-.4-1.07,1.29,1.29,0,0,1,.3-.9,2.62,2.62,0,0,1,1.23-.59Z"/><path class="cls-2" d="M194.92,268v3.17a10,10,0,0,1-1.62,5.38,5.18,5.18,0,0,1-4.64,2.57,5.37,5.37,0,0,1-2.95-.77,7.27,7.27,0,0,1-2.28-2.82,9.37,9.37,0,0,1-1.07-4.36V268a10,10,0,0,1,1.62-5.37,5.15,5.15,0,0,1,4.63-2.58,5.35,5.35,0,0,1,2.93.76,7.2,7.2,0,0,1,2.29,2.82A9.16,9.16,0,0,1,194.92,268ZM192,268a6.69,6.69,0,0,0-1.31-4.1,2.5,2.5,0,0,0-2.09-1,2.6,2.6,0,0,0-2.14,1.07,6.37,6.37,0,0,0-1.25,4v3.17a6.6,6.6,0,0,0,1.32,4.1,2.47,2.47,0,0,0,2.1,1,2.59,2.59,0,0,0,2.12-1.07,6.37,6.37,0,0,0,1.25-4Z"/><path class="cls-2" d="M212.19,268v3.17a10,10,0,0,1-1.62,5.38,5.19,5.19,0,0,1-4.65,2.57,5.36,5.36,0,0,1-2.94-.77,7.27,7.27,0,0,1-2.28-2.82,9.37,9.37,0,0,1-1.07-4.36V268a10,10,0,0,1,1.61-5.37,5.17,5.17,0,0,1,4.64-2.58,5.35,5.35,0,0,1,2.93.76,7.2,7.2,0,0,1,2.29,2.82A9.16,9.16,0,0,1,212.19,268Zm-2.89,0a6.69,6.69,0,0,0-1.31-4.1,2.5,2.5,0,0,0-2.09-1,2.58,2.58,0,0,0-2.14,1.07,6.37,6.37,0,0,0-1.25,4v3.17a6.6,6.6,0,0,0,1.32,4.1,2.45,2.45,0,0,0,2.09,1,2.59,2.59,0,0,0,2.13-1.07,6.37,6.37,0,0,0,1.25-4Z"/><path class="cls-2" d="M85.16,158.52v15.77h2.91a2.17,2.17,0,0,1,1.48.4,1.31,1.31,0,0,1,.45,1,1.34,1.34,0,0,1-.45,1,2.22,2.22,0,0,1-1.48.4h-8.7a2.22,2.22,0,0,1-1.48-.4,1.34,1.34,0,0,1-.44-1.05,1.3,1.3,0,0,1,.44-1,2.17,2.17,0,0,1,1.48-.4h2.91v-12l-2.57.68a3.88,3.88,0,0,1-.93.16,1.26,1.26,0,0,1-1-.43,1.56,1.56,0,0,1-.4-1.07,1.31,1.31,0,0,1,.3-.91,2.63,2.63,0,0,1,1.23-.58Z"/><path class="cls-2" d="M107.25,166.47v3.16a10,10,0,0,1-1.62,5.39,5.19,5.19,0,0,1-4.65,2.57,5.36,5.36,0,0,1-2.94-.77A7.27,7.27,0,0,1,95.76,174a9.38,9.38,0,0,1-1.07-4.37v-3.16a10,10,0,0,1,1.61-5.37,5.17,5.17,0,0,1,4.64-2.58,5.35,5.35,0,0,1,2.93.76,7.13,7.13,0,0,1,2.29,2.82A9.16,9.16,0,0,1,107.25,166.47Zm-2.89,0a6.69,6.69,0,0,0-1.31-4.1,2.49,2.49,0,0,0-2.09-1,2.58,2.58,0,0,0-2.14,1.07,6.37,6.37,0,0,0-1.25,4v3.16a6.61,6.61,0,0,0,1.32,4.11,2.48,2.48,0,0,0,2.09,1,2.59,2.59,0,0,0,2.13-1.07,6.38,6.38,0,0,0,1.25-4Z"/><path class="cls-2" d="M119.7,158.52v15.77h2.91a2.17,2.17,0,0,1,1.48.4,1.31,1.31,0,0,1,.45,1,1.34,1.34,0,0,1-.45,1,2.22,2.22,0,0,1-1.48.4h-8.7a2.22,2.22,0,0,1-1.48-.4,1.34,1.34,0,0,1-.44-1.05,1.3,1.3,0,0,1,.44-1,2.17,2.17,0,0,1,1.48-.4h2.91v-12l-2.57.68a3.88,3.88,0,0,1-.93.16,1.26,1.26,0,0,1-.95-.43,1.56,1.56,0,0,1-.4-1.07,1.31,1.31,0,0,1,.3-.91,2.63,2.63,0,0,1,1.23-.58Z"/><path class="cls-2" d="M141.79,166.47v3.16a10,10,0,0,1-1.62,5.39,5.2,5.2,0,0,1-4.65,2.57,5.36,5.36,0,0,1-2.94-.77A7.27,7.27,0,0,1,130.3,174a9.38,9.38,0,0,1-1.07-4.37v-3.16a10,10,0,0,1,1.61-5.37,5.17,5.17,0,0,1,4.64-2.58,5.35,5.35,0,0,1,2.93.76,7.21,7.21,0,0,1,2.29,2.82A9.16,9.16,0,0,1,141.79,166.47Zm-2.89,0a6.69,6.69,0,0,0-1.31-4.1,2.49,2.49,0,0,0-2.1-1,2.58,2.58,0,0,0-2.13,1.07,6.37,6.37,0,0,0-1.25,4v3.16a6.61,6.61,0,0,0,1.32,4.11,2.48,2.48,0,0,0,2.09,1,2.57,2.57,0,0,0,2.12-1.07,6.32,6.32,0,0,0,1.26-4Z"/><path class="cls-2" d="M90,216.87V220a9.94,9.94,0,0,1-1.62,5.38A5.19,5.19,0,0,1,83.71,228a5.36,5.36,0,0,1-2.94-.76,7.39,7.39,0,0,1-2.28-2.83A9.37,9.37,0,0,1,77.42,220v-3.16A10,10,0,0,1,79,211.49a5.17,5.17,0,0,1,4.64-2.58,5.43,5.43,0,0,1,2.93.76,7.28,7.28,0,0,1,2.29,2.82A9.17,9.17,0,0,1,90,216.87Zm-2.89,0a6.7,6.7,0,0,0-1.31-4.11,2.51,2.51,0,0,0-2.09-1,2.58,2.58,0,0,0-2.14,1.07,6.38,6.38,0,0,0-1.25,4V220a6.6,6.6,0,0,0,1.32,4.1,2.45,2.45,0,0,0,2.09,1A2.59,2.59,0,0,0,85.84,224a6.35,6.35,0,0,0,1.25-4Z"/><path class="cls-2" d="M102.43,208.91v15.77h2.91a2.17,2.17,0,0,1,1.48.4,1.35,1.35,0,0,1,.45,1,1.32,1.32,0,0,1-.45,1,2.17,2.17,0,0,1-1.48.4h-8.7a2.17,2.17,0,0,1-1.48-.4,1.34,1.34,0,0,1-.44-1,1.31,1.31,0,0,1,.44-1,2.17,2.17,0,0,1,1.48-.4h2.91v-12l-2.57.68a4,4,0,0,1-.93.17,1.27,1.27,0,0,1-1-.44,1.54,1.54,0,0,1-.4-1.07,1.29,1.29,0,0,1,.3-.9,2.62,2.62,0,0,1,1.23-.59Z"/><path class="cls-2" d="M119.7,208.91v15.77h2.91a2.17,2.17,0,0,1,1.48.4,1.35,1.35,0,0,1,.45,1,1.32,1.32,0,0,1-.45,1,2.17,2.17,0,0,1-1.48.4h-8.7a2.17,2.17,0,0,1-1.48-.4,1.34,1.34,0,0,1-.44-1,1.31,1.31,0,0,1,.44-1,2.17,2.17,0,0,1,1.48-.4h2.91v-12l-2.57.68a4,4,0,0,1-.93.17,1.27,1.27,0,0,1-.95-.44A1.54,1.54,0,0,1,112,212a1.29,1.29,0,0,1,.3-.9,2.62,2.62,0,0,1,1.23-.59Z"/><path class="cls-2" d="M141.79,216.87V220a9.94,9.94,0,0,1-1.62,5.38,5.2,5.2,0,0,1-4.65,2.57,5.36,5.36,0,0,1-2.94-.76,7.39,7.39,0,0,1-2.28-2.83,9.37,9.37,0,0,1-1.07-4.36v-3.16a10,10,0,0,1,1.61-5.38,5.17,5.17,0,0,1,4.64-2.58,5.43,5.43,0,0,1,2.93.76,7.37,7.37,0,0,1,2.29,2.82A9.17,9.17,0,0,1,141.79,216.87Zm-2.89,0a6.7,6.7,0,0,0-1.31-4.11,2.52,2.52,0,0,0-2.1-1,2.58,2.58,0,0,0-2.13,1.07,6.38,6.38,0,0,0-1.25,4V220a6.6,6.6,0,0,0,1.32,4.1,2.45,2.45,0,0,0,2.09,1,2.57,2.57,0,0,0,2.12-1.07,6.29,6.29,0,0,0,1.26-4Z"/><path class="cls-2" d="M90,191.81V195a9.94,9.94,0,0,1-1.62,5.38,5.19,5.19,0,0,1-4.65,2.57,5.36,5.36,0,0,1-2.94-.76,7.39,7.39,0,0,1-2.28-2.83A9.37,9.37,0,0,1,77.42,195v-3.16A10,10,0,0,1,79,186.43a5.17,5.17,0,0,1,4.64-2.58,5.43,5.43,0,0,1,2.93.76,7.28,7.28,0,0,1,2.29,2.82A9.17,9.17,0,0,1,90,191.81Zm-2.89,0a6.7,6.7,0,0,0-1.31-4.11,2.51,2.51,0,0,0-2.09-1,2.58,2.58,0,0,0-2.14,1.07,6.38,6.38,0,0,0-1.25,4V195a6.6,6.6,0,0,0,1.32,4.1,2.45,2.45,0,0,0,2.09,1A2.59,2.59,0,0,0,85.84,199a6.35,6.35,0,0,0,1.25-4Z"/><path class="cls-2" d="M102.43,183.85v15.77h2.91a2.17,2.17,0,0,1,1.48.4,1.35,1.35,0,0,1,.45,1,1.32,1.32,0,0,1-.45,1,2.17,2.17,0,0,1-1.48.4h-8.7a2.17,2.17,0,0,1-1.48-.4,1.34,1.34,0,0,1-.44-1,1.31,1.31,0,0,1,.44-1,2.17,2.17,0,0,1,1.48-.4h2.91v-12l-2.57.68a4,4,0,0,1-.93.17,1.27,1.27,0,0,1-1-.44,1.54,1.54,0,0,1-.4-1.07,1.29,1.29,0,0,1,.3-.9,2.62,2.62,0,0,1,1.23-.59Z"/><path class="cls-2" d="M124.52,191.81V195a9.94,9.94,0,0,1-1.62,5.38,5.19,5.19,0,0,1-4.65,2.57,5.36,5.36,0,0,1-2.94-.76,7.39,7.39,0,0,1-2.28-2.83A9.37,9.37,0,0,1,112,195v-3.16a10,10,0,0,1,1.61-5.38,5.17,5.17,0,0,1,4.64-2.58,5.43,5.43,0,0,1,2.93.76,7.28,7.28,0,0,1,2.29,2.82A9.17,9.17,0,0,1,124.52,191.81Zm-2.89,0a6.7,6.7,0,0,0-1.31-4.11,2.5,2.5,0,0,0-2.09-1,2.58,2.58,0,0,0-2.14,1.07,6.38,6.38,0,0,0-1.25,4V195a6.6,6.6,0,0,0,1.32,4.1,2.45,2.45,0,0,0,2.09,1,2.59,2.59,0,0,0,2.13-1.07,6.35,6.35,0,0,0,1.25-4Z"/><path class="cls-2" d="M141.79,191.81V195a9.94,9.94,0,0,1-1.62,5.38,5.2,5.2,0,0,1-4.65,2.57,5.36,5.36,0,0,1-2.94-.76,7.39,7.39,0,0,1-2.28-2.83,9.37,9.37,0,0,1-1.07-4.36v-3.16a10,10,0,0,1,1.61-5.38,5.17,5.17,0,0,1,4.64-2.58,5.43,5.43,0,0,1,2.93.76,7.37,7.37,0,0,1,2.29,2.82A9.17,9.17,0,0,1,141.79,191.81Zm-2.89,0a6.7,6.7,0,0,0-1.31-4.11,2.52,2.52,0,0,0-2.1-1,2.58,2.58,0,0,0-2.13,1.07,6.38,6.38,0,0,0-1.25,4V195a6.6,6.6,0,0,0,1.32,4.1,2.45,2.45,0,0,0,2.09,1,2.57,2.57,0,0,0,2.12-1.07,6.29,6.29,0,0,0,1.26-4Z"/><path class="cls-2" d="M155.58,158.52v15.77h2.9a2.2,2.2,0,0,1,1.49.4,1.34,1.34,0,0,1,.44,1,1.37,1.37,0,0,1-.44,1,2.25,2.25,0,0,1-1.49.4h-8.69a2.25,2.25,0,0,1-1.49-.4,1.37,1.37,0,0,1-.44-1.05,1.33,1.33,0,0,1,.44-1,2.2,2.2,0,0,1,1.49-.4h2.91v-12l-2.58.68a3.9,3.9,0,0,1-.92.16,1.24,1.24,0,0,1-.95-.43,1.51,1.51,0,0,1-.4-1.07,1.36,1.36,0,0,1,.29-.91,2.68,2.68,0,0,1,1.24-.58Z"/><path class="cls-2" d="M177.67,166.47v3.16A9.9,9.9,0,0,1,176,175a5.18,5.18,0,0,1-4.64,2.57,5.42,5.42,0,0,1-3-.77,7.17,7.17,0,0,1-2.27-2.82,9.27,9.27,0,0,1-1.08-4.37v-3.16a10,10,0,0,1,1.62-5.37,5.16,5.16,0,0,1,4.64-2.58,5.35,5.35,0,0,1,2.93.76,7.21,7.21,0,0,1,2.29,2.82A9.28,9.28,0,0,1,177.67,166.47Zm-2.9,0a6.63,6.63,0,0,0-1.31-4.1,2.46,2.46,0,0,0-2.09-1,2.61,2.61,0,0,0-2.14,1.07,6.37,6.37,0,0,0-1.25,4v3.16a6.55,6.55,0,0,0,1.33,4.11,2.46,2.46,0,0,0,2.09,1,2.57,2.57,0,0,0,2.12-1.07,6.38,6.38,0,0,0,1.25-4Z"/><path class="cls-2" d="M190.12,158.52v15.77H193a2.2,2.2,0,0,1,1.49.4,1.34,1.34,0,0,1,.44,1,1.37,1.37,0,0,1-.44,1,2.25,2.25,0,0,1-1.49.4h-8.69a2.25,2.25,0,0,1-1.49-.4,1.37,1.37,0,0,1-.44-1.05,1.33,1.33,0,0,1,.44-1,2.2,2.2,0,0,1,1.49-.4h2.91v-12l-2.58.68a3.9,3.9,0,0,1-.92.16,1.24,1.24,0,0,1-1-.43,1.51,1.51,0,0,1-.4-1.07,1.36,1.36,0,0,1,.29-.91,2.68,2.68,0,0,1,1.24-.58Z"/><path class="cls-2" d="M212.2,166.47v3.16a10,10,0,0,1-1.62,5.39,5.18,5.18,0,0,1-4.64,2.57,5.42,5.42,0,0,1-2.95-.77,7.17,7.17,0,0,1-2.27-2.82,9.27,9.27,0,0,1-1.08-4.37v-3.16a10,10,0,0,1,1.62-5.37,5.16,5.16,0,0,1,4.64-2.58,5.37,5.37,0,0,1,2.93.76,7.21,7.21,0,0,1,2.29,2.82A9.27,9.27,0,0,1,212.2,166.47Zm-2.89,0a6.63,6.63,0,0,0-1.31-4.1,2.46,2.46,0,0,0-2.09-1,2.61,2.61,0,0,0-2.14,1.07,6.37,6.37,0,0,0-1.25,4v3.16a6.61,6.61,0,0,0,1.32,4.11,2.49,2.49,0,0,0,2.1,1,2.57,2.57,0,0,0,2.12-1.07,6.38,6.38,0,0,0,1.25-4Z"/><path class="cls-2" d="M160.4,216.87V220a9.87,9.87,0,0,1-1.63,5.38,5.18,5.18,0,0,1-4.64,2.57,5.42,5.42,0,0,1-2.95-.76,7.29,7.29,0,0,1-2.27-2.83,9.26,9.26,0,0,1-1.08-4.36v-3.16a10,10,0,0,1,1.62-5.38,5.16,5.16,0,0,1,4.64-2.58,5.43,5.43,0,0,1,2.93.76,7.37,7.37,0,0,1,2.29,2.82A9.29,9.29,0,0,1,160.4,216.87Zm-2.9,0a6.64,6.64,0,0,0-1.31-4.11,2.49,2.49,0,0,0-2.09-1,2.61,2.61,0,0,0-2.14,1.07,6.38,6.38,0,0,0-1.25,4V220a6.54,6.54,0,0,0,1.33,4.1,2.44,2.44,0,0,0,2.09,1,2.57,2.57,0,0,0,2.12-1.07,6.35,6.35,0,0,0,1.25-4Z"/><path class="cls-2" d="M172.85,208.91v15.77h2.9a2.2,2.2,0,0,1,1.49.4,1.37,1.37,0,0,1,.44,1,1.34,1.34,0,0,1-.44,1,2.2,2.2,0,0,1-1.49.4h-8.69a2.2,2.2,0,0,1-1.49-.4,1.37,1.37,0,0,1-.44-1,1.34,1.34,0,0,1,.44-1,2.2,2.2,0,0,1,1.49-.4H170v-12l-2.58.68a4,4,0,0,1-.92.17,1.25,1.25,0,0,1-.95-.44,1.5,1.5,0,0,1-.4-1.07,1.33,1.33,0,0,1,.29-.9,2.67,2.67,0,0,1,1.24-.59Z"/><path class="cls-2" d="M190.12,208.91v15.77H193a2.2,2.2,0,0,1,1.49.4,1.37,1.37,0,0,1,.44,1,1.34,1.34,0,0,1-.44,1,2.2,2.2,0,0,1-1.49.4h-8.69a2.2,2.2,0,0,1-1.49-.4,1.37,1.37,0,0,1-.44-1,1.34,1.34,0,0,1,.44-1,2.2,2.2,0,0,1,1.49-.4h2.91v-12l-2.58.68a4,4,0,0,1-.92.17,1.25,1.25,0,0,1-1-.44,1.5,1.5,0,0,1-.4-1.07,1.33,1.33,0,0,1,.29-.9,2.67,2.67,0,0,1,1.24-.59Z"/><path class="cls-2" d="M212.2,216.87V220a9.94,9.94,0,0,1-1.62,5.38,5.18,5.18,0,0,1-4.64,2.57,5.42,5.42,0,0,1-2.95-.76,7.29,7.29,0,0,1-2.27-2.83,9.26,9.26,0,0,1-1.08-4.36v-3.16a10,10,0,0,1,1.62-5.38,5.16,5.16,0,0,1,4.64-2.58,5.46,5.46,0,0,1,2.93.76,7.37,7.37,0,0,1,2.29,2.82A9.28,9.28,0,0,1,212.2,216.87Zm-2.89,0a6.64,6.64,0,0,0-1.31-4.11,2.49,2.49,0,0,0-2.09-1,2.61,2.61,0,0,0-2.14,1.07,6.38,6.38,0,0,0-1.25,4V220a6.6,6.6,0,0,0,1.32,4.1,2.47,2.47,0,0,0,2.1,1,2.57,2.57,0,0,0,2.12-1.07,6.35,6.35,0,0,0,1.25-4Z"/><path class="cls-2" d="M160.4,191.81V195a9.87,9.87,0,0,1-1.63,5.38,5.18,5.18,0,0,1-4.64,2.57,5.42,5.42,0,0,1-2.95-.76,7.29,7.29,0,0,1-2.27-2.83,9.26,9.26,0,0,1-1.08-4.36v-3.16a10,10,0,0,1,1.62-5.38,5.16,5.16,0,0,1,4.64-2.58,5.43,5.43,0,0,1,2.93.76,7.37,7.37,0,0,1,2.29,2.82A9.29,9.29,0,0,1,160.4,191.81Zm-2.9,0a6.64,6.64,0,0,0-1.31-4.11,2.49,2.49,0,0,0-2.09-1A2.61,2.61,0,0,0,152,187.8a6.38,6.38,0,0,0-1.25,4V195a6.54,6.54,0,0,0,1.33,4.1,2.44,2.44,0,0,0,2.09,1,2.57,2.57,0,0,0,2.12-1.07,6.35,6.35,0,0,0,1.25-4Z"/><path class="cls-2" d="M172.85,183.85v15.77h2.9a2.2,2.2,0,0,1,1.49.4,1.37,1.37,0,0,1,.44,1,1.34,1.34,0,0,1-.44,1,2.2,2.2,0,0,1-1.49.4h-8.69a2.2,2.2,0,0,1-1.49-.4,1.37,1.37,0,0,1-.44-1,1.34,1.34,0,0,1,.44-1,2.2,2.2,0,0,1,1.49-.4H170v-12l-2.58.68a4,4,0,0,1-.92.17,1.25,1.25,0,0,1-.95-.44,1.5,1.5,0,0,1-.4-1.07,1.33,1.33,0,0,1,.29-.9,2.67,2.67,0,0,1,1.24-.59Z"/><path class="cls-2" d="M194.94,191.81V195a9.87,9.87,0,0,1-1.63,5.38,5.18,5.18,0,0,1-4.64,2.57,5.42,5.42,0,0,1-2.95-.76,7.29,7.29,0,0,1-2.27-2.83,9.26,9.26,0,0,1-1.08-4.36v-3.16a10,10,0,0,1,1.62-5.38,5.16,5.16,0,0,1,4.64-2.58,5.43,5.43,0,0,1,2.93.76,7.37,7.37,0,0,1,2.29,2.82A9.29,9.29,0,0,1,194.94,191.81Zm-2.9,0a6.64,6.64,0,0,0-1.31-4.11,2.49,2.49,0,0,0-2.09-1,2.61,2.61,0,0,0-2.14,1.07,6.38,6.38,0,0,0-1.25,4V195a6.54,6.54,0,0,0,1.33,4.1,2.44,2.44,0,0,0,2.09,1,2.57,2.57,0,0,0,2.12-1.07,6.35,6.35,0,0,0,1.25-4Z"/><path class="cls-2" d="M212.2,191.81V195a9.94,9.94,0,0,1-1.62,5.38,5.18,5.18,0,0,1-4.64,2.57,5.42,5.42,0,0,1-2.95-.76,7.29,7.29,0,0,1-2.27-2.83,9.26,9.26,0,0,1-1.08-4.36v-3.16a10,10,0,0,1,1.62-5.38,5.16,5.16,0,0,1,4.64-2.58,5.46,5.46,0,0,1,2.93.76,7.37,7.37,0,0,1,2.29,2.82A9.28,9.28,0,0,1,212.2,191.81Zm-2.89,0A6.64,6.64,0,0,0,208,187.7a2.49,2.49,0,0,0-2.09-1,2.61,2.61,0,0,0-2.14,1.07,6.38,6.38,0,0,0-1.25,4V195a6.6,6.6,0,0,0,1.32,4.1,2.47,2.47,0,0,0,2.1,1,2.57,2.57,0,0,0,2.12-1.07,6.35,6.35,0,0,0,1.25-4Z"/></g><path class="cls-3" d="M193.88,379.39s2.78,46.75,2.78,49.05,2.2,55.49,2.2,55.49H180.13"/><polyline class="cls-3" points="236.56 379.39 233.57 431.66 231.58 483.93 249.19 483.93"/><rect class="cls-4" x="126.64" y="253.74" width="171.26" height="38.29" rx="12"/><ellipse class="cls-5" cx="213.84" cy="382.19" rx="63.04" ry="27.19"/><ellipse class="cls-6" cx="213.19" cy="147.14" rx="75.26" ry="29.88"/><path class="cls-7" d="M137.93,147.14c0,16.5,33.7,29.87,75.26,29.87s75.26-13.37,75.26-29.87c0,0,.44,216.62,0,221.29-1.54,16.43-33.69,29.88-75.26,29.88s-75.26-13.37-75.26-29.88Z"/><path class="cls-8" d="M150.8,366.26V163.82a63.36,63.36,0,0,0,7.91,3.89V389a63.36,63.36,0,0,1-7.91-3.89Z"/><path class="cls-8" d="M185.58,352.05V174.87c-2.72-.43-5.36-.91-7.91-1.46v221.3c2.55.55,5.19,1,7.91,1.46Z"/><path class="cls-8" d="M220.18,394.15V177q-3.45.13-7,.13h-.92v221.3h.92q3.54,0,7-.13Z"/><polygon class="cls-8" points="241.19 396.16 241.19 174.9 249.1 173.42 249.1 394.64 241.19 396.16"/><path class="cls-8" d="M269,369.67v18.52c2.38-1.13,6.34-3.29,7.91-4.29V163.15a85.1,85.1,0,0,1-7.92,4"/><path class="cls-4" d="M135.3,313.91v55c0,16.51,35.18,29.88,78.59,29.88s77-13.45,78.59-29.88c.15-1.53.2-25.89.2-57.93l-.2-37.78c0,16.51-35.19,29.88-78.59,29.88s-78.59-13.37-78.59-29.88Z"/><path class="cls-9" d="M157.87,198.09a3.48,3.48,0,0,1-3.27-4.66c3-8.21,12.83-16.42,25.92-16.42H181a3.47,3.47,0,0,1-.09,6.94h-.35c-11,0-17.7,7.23-19.38,11.84A3.49,3.49,0,0,1,157.87,198.09Z"/><path class="cls-9" d="M269,198.09a3.49,3.49,0,0,1-3.27-2.29c-1.69-4.66-8.54-12-19.72-11.84a3.47,3.47,0,0,1-.1-6.94h.43c13.1,0,22.93,8.21,25.92,16.42a3.48,3.48,0,0,1-3.26,4.66Z"/><path class="cls-10" d="M174.58,254c0,.23,0,.45,0,.67,0,17.4,17.85,31.51,39.86,31.51s39.86-14.11,39.86-31.51c0-.22,0-.44,0-.67Z"/><path class="cls-11" d="M174.48,253.79c0,.23,0,.61,0,.83a25.69,25.69,0,0,0,2.38,10.76H252a25.7,25.7,0,0,0,2.39-10.76c0-.22,0-.6,0-.83Z"/><path class="cls-12" d="M214.41,286.14a46.66,46.66,0,0,0,24.93-6.93,30.92,30.92,0,0,0-4.76-3.93c-8.13-5.46-17.44-6.37-22.9-2.78-7.78-2.71-15.37-1.55-18.76,3.5a10.22,10.22,0,0,0-1.61,4.3A47.2,47.2,0,0,0,214.41,286.14Z"/><circle class="cls-11" cx="183.58" cy="219.57" r="20.04"/><path class="cls-10" d="M190.76,219.57a7.19,7.19,0,1,1-7.18-7.18A7.18,7.18,0,0,1,190.76,219.57Z"/><circle class="cls-11" cx="241.34" cy="219.57" r="20.04"/><path class="cls-10" d="M248.53,219.57a7.19,7.19,0,1,1-7.19-7.18A7.19,7.19,0,0,1,248.53,219.57Z"/><g id="mask"><circle class="cls-13" cx="242.37" cy="219.34" r="24.42" transform="translate(-32.01 41.66) rotate(-9.22)"/><circle class="cls-14" cx="183.23" cy="219.34" r="24.42" transform="translate(-74.34 343.21) rotate(-75.81)"/><polygon class="cls-15" points="157.81 219.78 137.93 210.47 137.93 206.2 159.19 216.85 157.81 219.78"/><polygon class="cls-15" points="267.7 219.78 288.65 210.45 288.65 206.9 266.33 216.85 267.7 219.78"/><path class="cls-15" d="M157.19,219.56A26.06,26.06,0,0,0,209,223.82l.12-.75h7.53l.12.75a26.09,26.09,0,1,0-.33-5.13l0,.87h-7.05l0-.87a26.06,26.06,0,0,0-52.1.87Zm69.31-15.94a22.54,22.54,0,1,1,31.88,31.88h0a22.54,22.54,0,1,1-31.88-31.88ZM183.24,197a22.54,22.54,0,0,1,16,38.48h0A22.55,22.55,0,1,1,183.24,197Z"/><path class="cls-16" d="M225.05,208.66c3.54-5.35,7.14-6.81,7.14-6.81L235,204a22.38,22.38,0,0,0-5.74,6.29,19.17,19.17,0,0,0-2.6,7l-4.6-.9A17.83,17.83,0,0,1,225.05,208.66Z"/><path class="cls-17" d="M165.93,208.66c3.54-5.35,7-6.81,7-6.81l2.92,2.11a22.22,22.22,0,0,0-5.74,6.29,19.32,19.32,0,0,0-2.61,7l-4.6-.9A17.83,17.83,0,0,1,165.93,208.66Z"/></g><path class="cls-3" d="M138.93,299h0s-29.53,20.56-23.4,34.21"/><path class="cls-18" d="M73.46,352.56l0,.07h0a.14.14,0,0,1,0-.07m-.08-.78a2.26,2.26,0,0,0,0,.37,2.28,2.28,0,0,1,0-.37"/><path class="cls-19" d="M21.27,299.52c-.9-1.33-1.43-4.14,3.78-5.29C30.79,293,21.93,300.5,21.27,299.52Z"/><polyline class="cls-20" points="137.04 334.02 173.62 322.71 70.13 344.34 137.04 334.02"/><rect class="cls-19" x="133.87" y="328.09" width="42.71" height="4.27" rx="1.6" transform="translate(-85.33 55.86) rotate(-16.07)"/><path class="cls-21" d="M134.87,336.72v0a1.74,1.74,0,0,0,2.25.92l37.38-10.77a1.74,1.74,0,0,0,1.42-2v0Z"/><polyline class="cls-22" points="137.76 329.72 138.34 330.59 138.56 330.92 173.62 322.71 137.76 329.72"/><path class="cls-23" d="M139.26,332s2,3.29-2.46,5.68C133.11,339.65,136.4,332.78,139.26,332Z"/><path class="cls-19" d="M137.19,336,61.63,352.25a2.89,2.89,0,0,1-3-1.2L23.27,298.67a2.89,2.89,0,0,1,1.78-4.44l75.57-16.29a2.86,2.86,0,0,1,3,1.21L139,331.53a2.88,2.88,0,0,1-1.79,4.43"/><path class="cls-24" d="M136,338,60.41,354.27a2.88,2.88,0,0,1-3-1.2L21.34,299.63a2,2,0,0,1,1.25-3.11L99.4,280a2.88,2.88,0,0,1,3,1.21l35.36,52.38A2.88,2.88,0,0,1,136,338"/><polyline class="cls-25" points="115.32 300.3 116.93 302.69 115.32 300.3"/><polyline class="cls-26" points="101.36 345.44 101.36 345.44 101.39 345.44 101.39 345.44 101.36 345.44"/><polygon class="cls-19" points="76.55 312.77 76.34 316.59 77.48 316.83 77.56 315.42 81.47 319.59 81.67 315.79 80.5 315.52 80.43 316.91 76.55 312.77"/><path class="cls-19" d="M83.49,312.18A9.55,9.55,0,0,0,81,310.72a9.44,9.44,0,0,0-2.81-.67,7.88,7.88,0,0,0-2.77.25,5.53,5.53,0,0,0-2.18,1.18A4.3,4.3,0,0,0,72,313.31a4.68,4.68,0,0,0-.19,2.24,6.19,6.19,0,0,0,.93,2.42,8.43,8.43,0,0,0,1.94,2.12A10.08,10.08,0,0,0,80,322.22a7.88,7.88,0,0,0,2.77-.25,5.63,5.63,0,0,0,2.19-1.17A4.46,4.46,0,0,0,86.16,319a4.56,4.56,0,0,0,.19-2.24,6.19,6.19,0,0,0-.93-2.42A8.58,8.58,0,0,0,83.49,312.18Zm-1.33,9L78.25,317l0,.55L75.51,317l.33-5.84,3.92,4.17,0-.55,2.64.57Z"/><line class="cls-3" x1="100.57" y1="345.02" x2="87.75" y2="347.54"/><line class="cls-3" x1="94.52" y1="345.59" x2="92.07" y2="341.91"/><line class="cls-3" x1="87.75" y1="347.54" x2="85.3" y2="343.86"/><line class="cls-3" x1="101.2" y1="344.79" x2="98.75" y2="341.11"/><path class="cls-3" d="M328.94,340.78h0s-25.36,1.83-32.21-11.48c-10.12-19.68-10.13-30.17-10.13-30.17"/><line class="cls-3" x1="333.6" y1="342.5" x2="325.21" y2="342.67"/><line class="cls-3" x1="333.81" y1="336.5" x2="325.42" y2="336.66"/><line class="cls-3" x1="324.68" y1="326.3" x2="324.07" y2="346.04"/><line class="cls-3" x1="333.6" y1="346.12" x2="325.21" y2="346.28"/><path class="cls-27" d="M268.14,167.55c-1.79-37.39-105.39-36-108.73.49C186.69,180.25,241.08,179.86,268.14,167.55Z"/><path class="cls-11" d="M245.23,337.37a6,6,0,0,0-.76-3.1,5.88,5.88,0,0,0-2.24-2.18l-24.81-14.28a6.09,6.09,0,0,0-6.6.05c-3.29,1.93-19.77,11.38-24.67,14.23a5.73,5.73,0,0,0-3,5.3v28.77a6.35,6.35,0,0,0,.72,3,6,6,0,0,0,2.28,2.26c4.92,2.85,21.38,12.28,24.67,14.23a6.07,6.07,0,0,0,6.6.06c8.27-4.79,16.55-9.53,24.81-14.29a5.76,5.76,0,0,0,2.28-2.26,6.24,6.24,0,0,0,.72-3Z"/><path class="cls-4" d="M223.12,356.79a10.27,10.27,0,1,1-.07-10.18l9-5.16a20.61,20.61,0,1,0,.07,20.52Z"/></svg>