<svg id="Layer_1" data-name="Layer 1" xmlns="http://www.w3.org/2000/svg" xmlns:xlink="http://www.w3.org/1999/xlink" viewBox="0 0 432 576"><defs><style>.cls-1{opacity:0.05;}.cls-2{fill:#040d21;}.cls-13,.cls-3{fill:none;stroke-width:8px;}.cls-3{stroke:#000;}.cls-10,.cls-13,.cls-3{stroke-linecap:round;stroke-linejoin:round;}.cls-4{fill:#e8003d;stroke:#e8003d;stroke-miterlimit:10;}.cls-5{fill:#2d313f;}.cls-6{fill:#feaf06;}.cls-7{fill:#fbd82b;}.cls-8{fill:#ffe278;}.cls-9{fill:url(#radial-gradient);}.cls-10,.cls-12{fill:#701d1d;}.cls-10,.cls-13{stroke:#701d1d;}.cls-10{stroke-width:2px;}.cls-11{fill:#fff;}.cls-14{fill:url(#linear-gradient);}.cls-15{fill:#ce0000;}.cls-16{fill:#f70000;}</style><radialGradient id="radial-gradient" cx="211.39" cy="171.44" r="39.54" gradientTransform="translate(-106.91 382.83) rotate(-90) scale(1 1.86)" gradientUnits="userSpaceOnUse"><stop offset="0" stop-color="#ff8c1f"/><stop offset="1" stop-color="#feaf06"/></radialGradient><linearGradient id="linear-gradient" x1="211" y1="256.21" x2="211" y2="422.95" gradientUnits="userSpaceOnUse"><stop offset="0" stop-color="#fff"/><stop offset="1" stop-color="#e6e7e8"/></linearGradient></defs><g class="cls-1"><path class="cls-2" d="M223.69,232v15.76h2.91a2.22,2.22,0,0,1,1.48.4,1.34,1.34,0,0,1,.44,1,1.3,1.3,0,0,1-.44,1,2.17,2.17,0,0,1-1.48.4h-8.7a2.17,2.17,0,0,1-1.48-.4,1.3,1.3,0,0,1-.44-1,1.32,1.32,0,0,1,.44-1,2.22,2.22,0,0,1,1.48-.4h2.91v-12l-2.57.67a3.54,3.54,0,0,1-.93.17,1.26,1.26,0,0,1-.95-.43,1.51,1.51,0,0,1-.4-1.07,1.3,1.3,0,0,1,.3-.91,2.63,2.63,0,0,1,1.23-.58Z"/><path class="cls-2" d="M245.78,239.94v3.16a9.91,9.91,0,0,1-1.62,5.38,5.19,5.19,0,0,1-4.65,2.58,5.36,5.36,0,0,1-2.94-.77,7.24,7.24,0,0,1-2.28-2.83,9.34,9.34,0,0,1-1.07-4.36v-3.16a10,10,0,0,1,1.61-5.37,5.17,5.17,0,0,1,4.64-2.58,5.35,5.35,0,0,1,2.93.76,7.16,7.16,0,0,1,2.29,2.81A9.2,9.2,0,0,1,245.78,239.94Zm-2.89,0a6.69,6.69,0,0,0-1.31-4.1,2.49,2.49,0,0,0-2.1-1,2.55,2.55,0,0,0-2.13,1.07,6.35,6.35,0,0,0-1.25,4v3.16a6.58,6.58,0,0,0,1.32,4.1,2.46,2.46,0,0,0,2.09,1,2.57,2.57,0,0,0,2.12-1.07,6.34,6.34,0,0,0,1.26-4Z"/><path class="cls-2" d="M258.23,232v15.76h2.91a2.22,2.22,0,0,1,1.48.4,1.34,1.34,0,0,1,.44,1,1.3,1.3,0,0,1-.44,1,2.17,2.17,0,0,1-1.48.4h-8.7a2.17,2.17,0,0,1-1.48-.4,1.3,1.3,0,0,1-.44-1,1.32,1.32,0,0,1,.44-1,2.22,2.22,0,0,1,1.48-.4h2.91v-12l-2.57.67a3.54,3.54,0,0,1-.93.17,1.26,1.26,0,0,1-.95-.43,1.51,1.51,0,0,1-.4-1.07,1.3,1.3,0,0,1,.3-.91,2.63,2.63,0,0,1,1.23-.58Z"/><path class="cls-2" d="M280.32,239.94v3.16a9.91,9.91,0,0,1-1.62,5.38,5.19,5.19,0,0,1-4.65,2.58,5.36,5.36,0,0,1-2.94-.77,7.24,7.24,0,0,1-2.28-2.83,9.22,9.22,0,0,1-1.07-4.36v-3.16a10,10,0,0,1,1.61-5.37A5.17,5.17,0,0,1,274,232a5.35,5.35,0,0,1,2.93.76,7.25,7.25,0,0,1,2.29,2.81A9.2,9.2,0,0,1,280.32,239.94Zm-2.9,0a6.69,6.69,0,0,0-1.3-4.1,2.49,2.49,0,0,0-2.1-1,2.55,2.55,0,0,0-2.13,1.07,6.29,6.29,0,0,0-1.25,4v3.16a6.58,6.58,0,0,0,1.32,4.1,2.46,2.46,0,0,0,2.09,1,2.57,2.57,0,0,0,2.12-1.07,6.33,6.33,0,0,0,1.25-4Z"/><path class="cls-2" d="M228.51,290.33v3.17a10,10,0,0,1-1.62,5.38,5.2,5.2,0,0,1-4.65,2.57,5.36,5.36,0,0,1-2.94-.77,7.27,7.27,0,0,1-2.28-2.82A9.37,9.37,0,0,1,216,293.5v-3.17a10,10,0,0,1,1.61-5.37,5.17,5.17,0,0,1,4.64-2.58,5.35,5.35,0,0,1,2.93.76,7.2,7.2,0,0,1,2.29,2.82A9.16,9.16,0,0,1,228.51,290.33Zm-2.89,0a6.69,6.69,0,0,0-1.31-4.1,2.49,2.49,0,0,0-2.1-1,2.58,2.58,0,0,0-2.13,1.07,6.37,6.37,0,0,0-1.25,4v3.17a6.6,6.6,0,0,0,1.32,4.1,2.48,2.48,0,0,0,2.09,1,2.57,2.57,0,0,0,2.12-1.07,6.31,6.31,0,0,0,1.26-4Z"/><path class="cls-2" d="M241,282.38v15.77h2.91a2.17,2.17,0,0,1,1.48.4,1.3,1.3,0,0,1,.44,1,1.32,1.32,0,0,1-.44,1,2.22,2.22,0,0,1-1.48.4h-8.7a2.22,2.22,0,0,1-1.48-.4,1.34,1.34,0,0,1-.44-1.05,1.3,1.3,0,0,1,.44-1,2.17,2.17,0,0,1,1.48-.4h2.91v-12l-2.57.68a4,4,0,0,1-.93.17,1.27,1.27,0,0,1-1-.44,1.51,1.51,0,0,1-.4-1.07,1.29,1.29,0,0,1,.3-.9,2.62,2.62,0,0,1,1.23-.59Z"/><path class="cls-2" d="M258.23,282.38v15.77h2.91a2.17,2.17,0,0,1,1.48.4,1.3,1.3,0,0,1,.44,1,1.32,1.32,0,0,1-.44,1,2.22,2.22,0,0,1-1.48.4h-8.7a2.22,2.22,0,0,1-1.48-.4,1.34,1.34,0,0,1-.44-1.05,1.3,1.3,0,0,1,.44-1,2.17,2.17,0,0,1,1.48-.4h2.91v-12l-2.57.68a4,4,0,0,1-.93.17,1.27,1.27,0,0,1-.95-.44,1.51,1.51,0,0,1-.4-1.07,1.29,1.29,0,0,1,.3-.9A2.62,2.62,0,0,1,252,284Z"/><path class="cls-2" d="M280.32,290.33v3.17a10,10,0,0,1-1.62,5.38,5.2,5.2,0,0,1-4.65,2.57,5.36,5.36,0,0,1-2.94-.77,7.27,7.27,0,0,1-2.28-2.82,9.25,9.25,0,0,1-1.07-4.36v-3.17a10,10,0,0,1,1.61-5.37,5.17,5.17,0,0,1,4.64-2.58,5.35,5.35,0,0,1,2.93.76,7.29,7.29,0,0,1,2.29,2.82A9.16,9.16,0,0,1,280.32,290.33Zm-2.9,0a6.69,6.69,0,0,0-1.3-4.1,2.49,2.49,0,0,0-2.1-1,2.58,2.58,0,0,0-2.13,1.07,6.31,6.31,0,0,0-1.25,4v3.17a6.6,6.6,0,0,0,1.32,4.1,2.48,2.48,0,0,0,2.09,1,2.57,2.57,0,0,0,2.12-1.07,6.31,6.31,0,0,0,1.25-4Z"/><path class="cls-2" d="M228.51,265.27v3.17a10,10,0,0,1-1.62,5.38,5.2,5.2,0,0,1-4.65,2.57,5.36,5.36,0,0,1-2.94-.77A7.27,7.27,0,0,1,217,272.8a9.37,9.37,0,0,1-1.07-4.36v-3.17a10,10,0,0,1,1.61-5.37,5.17,5.17,0,0,1,4.64-2.58,5.35,5.35,0,0,1,2.93.76,7.2,7.2,0,0,1,2.29,2.82A9.16,9.16,0,0,1,228.51,265.27Zm-2.89,0a6.69,6.69,0,0,0-1.31-4.1,2.49,2.49,0,0,0-2.1-1,2.58,2.58,0,0,0-2.13,1.07,6.37,6.37,0,0,0-1.25,4v3.17a6.6,6.6,0,0,0,1.32,4.1,2.48,2.48,0,0,0,2.09,1,2.57,2.57,0,0,0,2.12-1.07,6.31,6.31,0,0,0,1.26-4Z"/><path class="cls-2" d="M241,257.32v15.77h2.91a2.17,2.17,0,0,1,1.48.4,1.3,1.3,0,0,1,.44,1,1.32,1.32,0,0,1-.44,1,2.22,2.22,0,0,1-1.48.4h-8.7a2.22,2.22,0,0,1-1.48-.4,1.34,1.34,0,0,1-.44-1.05,1.3,1.3,0,0,1,.44-1,2.17,2.17,0,0,1,1.48-.4h2.91v-12l-2.57.68a4,4,0,0,1-.93.17,1.27,1.27,0,0,1-1-.44,1.51,1.51,0,0,1-.4-1.07,1.29,1.29,0,0,1,.3-.9,2.62,2.62,0,0,1,1.23-.59Z"/><path class="cls-2" d="M263.05,265.27v3.17a10,10,0,0,1-1.62,5.38,5.19,5.19,0,0,1-4.65,2.57,5.36,5.36,0,0,1-2.94-.77,7.27,7.27,0,0,1-2.28-2.82,9.37,9.37,0,0,1-1.07-4.36v-3.17a10,10,0,0,1,1.61-5.37,5.17,5.17,0,0,1,4.64-2.58,5.35,5.35,0,0,1,2.93.76A7.2,7.2,0,0,1,262,260.9,9.16,9.16,0,0,1,263.05,265.27Zm-2.89,0a6.69,6.69,0,0,0-1.31-4.1,2.49,2.49,0,0,0-2.1-1,2.58,2.58,0,0,0-2.13,1.07,6.37,6.37,0,0,0-1.25,4v3.17a6.6,6.6,0,0,0,1.32,4.1,2.48,2.48,0,0,0,2.09,1,2.57,2.57,0,0,0,2.12-1.07,6.31,6.31,0,0,0,1.26-4Z"/><path class="cls-2" d="M280.32,265.27v3.17a10,10,0,0,1-1.62,5.38,5.2,5.2,0,0,1-4.65,2.57,5.36,5.36,0,0,1-2.94-.77,7.27,7.27,0,0,1-2.28-2.82,9.25,9.25,0,0,1-1.07-4.36v-3.17a10,10,0,0,1,1.61-5.37,5.17,5.17,0,0,1,4.64-2.58,5.35,5.35,0,0,1,2.93.76,7.29,7.29,0,0,1,2.29,2.82A9.16,9.16,0,0,1,280.32,265.27Zm-2.9,0a6.69,6.69,0,0,0-1.3-4.1,2.49,2.49,0,0,0-2.1-1,2.58,2.58,0,0,0-2.13,1.07,6.31,6.31,0,0,0-1.25,4v3.17a6.6,6.6,0,0,0,1.32,4.1,2.48,2.48,0,0,0,2.09,1,2.57,2.57,0,0,0,2.12-1.07,6.31,6.31,0,0,0,1.25-4Z"/><path class="cls-2" d="M294.1,232v15.76H297a2.25,2.25,0,0,1,1.49.4,1.37,1.37,0,0,1,.44,1,1.33,1.33,0,0,1-.44,1,2.2,2.2,0,0,1-1.49.4h-8.69a2.2,2.2,0,0,1-1.49-.4,1.34,1.34,0,0,1-.44-1,1.35,1.35,0,0,1,.44-1,2.25,2.25,0,0,1,1.49-.4h2.9v-12l-2.57.67a3.55,3.55,0,0,1-.92.17,1.23,1.23,0,0,1-1-.43,1.51,1.51,0,0,1-.4-1.07,1.34,1.34,0,0,1,.29-.91,2.68,2.68,0,0,1,1.24-.58Z"/><path class="cls-2" d="M316.19,239.94v3.16a9.91,9.91,0,0,1-1.62,5.38,5.17,5.17,0,0,1-4.64,2.58,5.42,5.42,0,0,1-2.95-.77,7.14,7.14,0,0,1-2.27-2.83,9.23,9.23,0,0,1-1.08-4.36v-3.16a9.93,9.93,0,0,1,1.62-5.37,5.16,5.16,0,0,1,4.64-2.58,5.37,5.37,0,0,1,2.93.76,7.25,7.25,0,0,1,2.29,2.81A9.31,9.31,0,0,1,316.19,239.94Zm-2.89,0a6.63,6.63,0,0,0-1.31-4.1,2.46,2.46,0,0,0-2.09-1,2.58,2.58,0,0,0-2.14,1.07,6.35,6.35,0,0,0-1.25,4v3.16a6.58,6.58,0,0,0,1.32,4.1,2.48,2.48,0,0,0,2.1,1,2.57,2.57,0,0,0,2.12-1.07,6.39,6.39,0,0,0,1.25-4Z"/><path class="cls-2" d="M328.64,232v15.76h2.91a2.25,2.25,0,0,1,1.49.4,1.37,1.37,0,0,1,.44,1,1.33,1.33,0,0,1-.44,1,2.2,2.2,0,0,1-1.49.4h-8.69a2.2,2.2,0,0,1-1.49-.4,1.34,1.34,0,0,1-.44-1,1.35,1.35,0,0,1,.44-1,2.25,2.25,0,0,1,1.49-.4h2.9v-12l-2.57.67a3.55,3.55,0,0,1-.92.17,1.23,1.23,0,0,1-.95-.43,1.51,1.51,0,0,1-.4-1.07,1.34,1.34,0,0,1,.29-.91,2.68,2.68,0,0,1,1.24-.58Z"/><path class="cls-2" d="M350.73,239.94v3.16a9.91,9.91,0,0,1-1.62,5.38,5.17,5.17,0,0,1-4.64,2.58,5.4,5.4,0,0,1-3-.77,7.14,7.14,0,0,1-2.27-2.83,9.23,9.23,0,0,1-1.08-4.36v-3.16a9.93,9.93,0,0,1,1.62-5.37,5.16,5.16,0,0,1,4.63-2.58,5.38,5.38,0,0,1,2.94.76,7.25,7.25,0,0,1,2.29,2.81A9.31,9.31,0,0,1,350.73,239.94Zm-2.89,0a6.69,6.69,0,0,0-1.31-4.1,2.46,2.46,0,0,0-2.09-1,2.58,2.58,0,0,0-2.14,1.07,6.35,6.35,0,0,0-1.25,4v3.16a6.58,6.58,0,0,0,1.32,4.1,2.48,2.48,0,0,0,2.1,1,2.57,2.57,0,0,0,2.12-1.07,6.39,6.39,0,0,0,1.25-4Z"/><path class="cls-2" d="M298.92,290.33v3.17a10,10,0,0,1-1.62,5.38,5.18,5.18,0,0,1-4.64,2.57,5.42,5.42,0,0,1-3-.77,7.17,7.17,0,0,1-2.27-2.82,9.26,9.26,0,0,1-1.08-4.36v-3.17A10,10,0,0,1,288,285a5.16,5.16,0,0,1,4.64-2.58,5.37,5.37,0,0,1,2.93.76,7.29,7.29,0,0,1,2.29,2.82A9.27,9.27,0,0,1,298.92,290.33Zm-2.89,0a6.63,6.63,0,0,0-1.31-4.1,2.46,2.46,0,0,0-2.09-1,2.61,2.61,0,0,0-2.14,1.07,6.37,6.37,0,0,0-1.25,4v3.17a6.6,6.6,0,0,0,1.32,4.1,2.49,2.49,0,0,0,2.1,1,2.57,2.57,0,0,0,2.12-1.07,6.37,6.37,0,0,0,1.25-4Z"/><path class="cls-2" d="M311.37,282.38v15.77h2.91a2.2,2.2,0,0,1,1.49.4,1.34,1.34,0,0,1,.44,1,1.35,1.35,0,0,1-.44,1,2.25,2.25,0,0,1-1.49.4h-8.69a2.25,2.25,0,0,1-1.49-.4,1.37,1.37,0,0,1-.44-1.05,1.33,1.33,0,0,1,.44-1,2.2,2.2,0,0,1,1.49-.4h2.9v-12l-2.57.68a4,4,0,0,1-.92.17,1.24,1.24,0,0,1-.95-.44,1.51,1.51,0,0,1-.4-1.07,1.33,1.33,0,0,1,.29-.9,2.67,2.67,0,0,1,1.24-.59Z"/><path class="cls-2" d="M328.64,282.38v15.77h2.91a2.2,2.2,0,0,1,1.49.4,1.34,1.34,0,0,1,.44,1,1.35,1.35,0,0,1-.44,1,2.25,2.25,0,0,1-1.49.4h-8.69a2.25,2.25,0,0,1-1.49-.4,1.37,1.37,0,0,1-.44-1.05,1.33,1.33,0,0,1,.44-1,2.2,2.2,0,0,1,1.49-.4h2.9v-12l-2.57.68a4,4,0,0,1-.92.17,1.24,1.24,0,0,1-.95-.44,1.51,1.51,0,0,1-.4-1.07,1.33,1.33,0,0,1,.29-.9,2.67,2.67,0,0,1,1.24-.59Z"/><path class="cls-2" d="M350.73,290.33v3.17a10,10,0,0,1-1.62,5.38,5.18,5.18,0,0,1-4.64,2.57,5.4,5.4,0,0,1-3-.77,7.17,7.17,0,0,1-2.27-2.82,9.26,9.26,0,0,1-1.08-4.36v-3.17a10,10,0,0,1,1.62-5.37,5.16,5.16,0,0,1,4.63-2.58,5.38,5.38,0,0,1,2.94.76,7.29,7.29,0,0,1,2.29,2.82A9.27,9.27,0,0,1,350.73,290.33Zm-2.89,0a6.69,6.69,0,0,0-1.31-4.1,2.46,2.46,0,0,0-2.09-1,2.61,2.61,0,0,0-2.14,1.07,6.37,6.37,0,0,0-1.25,4v3.17a6.6,6.6,0,0,0,1.32,4.1,2.49,2.49,0,0,0,2.1,1,2.57,2.57,0,0,0,2.12-1.07,6.37,6.37,0,0,0,1.25-4Z"/><path class="cls-2" d="M298.92,265.27v3.17a10,10,0,0,1-1.62,5.38,5.18,5.18,0,0,1-4.64,2.57,5.42,5.42,0,0,1-3-.77,7.17,7.17,0,0,1-2.27-2.82,9.26,9.26,0,0,1-1.08-4.36v-3.17A10,10,0,0,1,288,259.9a5.16,5.16,0,0,1,4.64-2.58,5.37,5.37,0,0,1,2.93.76,7.29,7.29,0,0,1,2.29,2.82A9.27,9.27,0,0,1,298.92,265.27Zm-2.89,0a6.63,6.63,0,0,0-1.31-4.1,2.46,2.46,0,0,0-2.09-1,2.61,2.61,0,0,0-2.14,1.07,6.37,6.37,0,0,0-1.25,4v3.17a6.6,6.6,0,0,0,1.32,4.1,2.49,2.49,0,0,0,2.1,1,2.57,2.57,0,0,0,2.12-1.07,6.37,6.37,0,0,0,1.25-4Z"/><path class="cls-2" d="M311.37,257.32v15.77h2.91a2.2,2.2,0,0,1,1.49.4,1.34,1.34,0,0,1,.44,1,1.35,1.35,0,0,1-.44,1,2.25,2.25,0,0,1-1.49.4h-8.69a2.25,2.25,0,0,1-1.49-.4,1.37,1.37,0,0,1-.44-1.05,1.33,1.33,0,0,1,.44-1,2.2,2.2,0,0,1,1.49-.4h2.9v-12l-2.57.68a4,4,0,0,1-.92.17,1.24,1.24,0,0,1-.95-.44,1.51,1.51,0,0,1-.4-1.07,1.33,1.33,0,0,1,.29-.9,2.67,2.67,0,0,1,1.24-.59Z"/><path class="cls-2" d="M333.46,265.27v3.17a10,10,0,0,1-1.62,5.38,5.18,5.18,0,0,1-4.64,2.57,5.42,5.42,0,0,1-2.95-.77A7.17,7.17,0,0,1,322,272.8a9.26,9.26,0,0,1-1.08-4.36v-3.17a10,10,0,0,1,1.62-5.37,5.16,5.16,0,0,1,4.64-2.58,5.37,5.37,0,0,1,2.93.76,7.29,7.29,0,0,1,2.29,2.82A9.27,9.27,0,0,1,333.46,265.27Zm-2.89,0a6.63,6.63,0,0,0-1.31-4.1,2.46,2.46,0,0,0-2.09-1,2.61,2.61,0,0,0-2.14,1.07,6.37,6.37,0,0,0-1.25,4v3.17a6.6,6.6,0,0,0,1.32,4.1,2.49,2.49,0,0,0,2.1,1,2.57,2.57,0,0,0,2.12-1.07,6.37,6.37,0,0,0,1.25-4Z"/><path class="cls-2" d="M350.73,265.27v3.17a10,10,0,0,1-1.62,5.38,5.18,5.18,0,0,1-4.64,2.57,5.4,5.4,0,0,1-3-.77,7.17,7.17,0,0,1-2.27-2.82,9.26,9.26,0,0,1-1.08-4.36v-3.17a10,10,0,0,1,1.62-5.37,5.16,5.16,0,0,1,4.63-2.58,5.38,5.38,0,0,1,2.94.76,7.29,7.29,0,0,1,2.29,2.82A9.27,9.27,0,0,1,350.73,265.27Zm-2.89,0a6.69,6.69,0,0,0-1.31-4.1,2.46,2.46,0,0,0-2.09-1,2.61,2.61,0,0,0-2.14,1.07,6.37,6.37,0,0,0-1.25,4v3.17a6.6,6.6,0,0,0,1.32,4.1,2.49,2.49,0,0,0,2.1,1,2.57,2.57,0,0,0,2.12-1.07,6.37,6.37,0,0,0,1.25-4Z"/><path class="cls-2" d="M223.7,155.78v15.77h2.91a2.2,2.2,0,0,1,1.49.4,1.34,1.34,0,0,1,.44,1,1.37,1.37,0,0,1-.44,1,2.25,2.25,0,0,1-1.49.4h-8.7a2.24,2.24,0,0,1-1.48-.4A1.37,1.37,0,0,1,216,173a1.33,1.33,0,0,1,.44-1,2.18,2.18,0,0,1,1.48-.4h2.91v-12l-2.57.67a3.55,3.55,0,0,1-.92.17,1.23,1.23,0,0,1-1-.43,1.51,1.51,0,0,1-.4-1.07,1.31,1.31,0,0,1,.29-.91,2.68,2.68,0,0,1,1.24-.58Z"/><path class="cls-2" d="M245.79,163.73v3.16a10,10,0,0,1-1.62,5.39,5.18,5.18,0,0,1-4.64,2.57,5.4,5.4,0,0,1-2.95-.77,7.17,7.17,0,0,1-2.27-2.82,9.27,9.27,0,0,1-1.08-4.37v-3.16a10,10,0,0,1,1.62-5.37,5.15,5.15,0,0,1,4.63-2.58,5.32,5.32,0,0,1,2.93.76,7.14,7.14,0,0,1,2.3,2.82A9.27,9.27,0,0,1,245.79,163.73Zm-2.89,0a6.69,6.69,0,0,0-1.31-4.1,2.46,2.46,0,0,0-2.09-1,2.6,2.6,0,0,0-2.14,1.07,6.37,6.37,0,0,0-1.25,4v3.16a6.61,6.61,0,0,0,1.32,4.11,2.49,2.49,0,0,0,2.1,1,2.57,2.57,0,0,0,2.12-1.07,6.38,6.38,0,0,0,1.25-4Z"/><path class="cls-2" d="M258.24,155.78v15.77h2.91a2.2,2.2,0,0,1,1.49.4,1.34,1.34,0,0,1,.44,1,1.37,1.37,0,0,1-.44,1,2.25,2.25,0,0,1-1.49.4h-8.7A2.24,2.24,0,0,1,251,174a1.37,1.37,0,0,1-.44-1.05,1.33,1.33,0,0,1,.44-1,2.18,2.18,0,0,1,1.48-.4h2.91v-12l-2.57.67a3.55,3.55,0,0,1-.92.17,1.23,1.23,0,0,1-1-.43,1.51,1.51,0,0,1-.4-1.07,1.31,1.31,0,0,1,.29-.91,2.68,2.68,0,0,1,1.24-.58Z"/><path class="cls-2" d="M280.33,163.73v3.16a10,10,0,0,1-1.62,5.39,5.18,5.18,0,0,1-4.64,2.57,5.37,5.37,0,0,1-2.95-.77,7.17,7.17,0,0,1-2.27-2.82,9.27,9.27,0,0,1-1.08-4.37v-3.16a10,10,0,0,1,1.62-5.37,5.15,5.15,0,0,1,4.63-2.58,5.32,5.32,0,0,1,2.93.76,7.13,7.13,0,0,1,2.29,2.82A9.16,9.16,0,0,1,280.33,163.73Zm-2.89,0a6.69,6.69,0,0,0-1.31-4.1,2.48,2.48,0,0,0-2.09-1,2.6,2.6,0,0,0-2.14,1.07,6.37,6.37,0,0,0-1.25,4v3.16A6.61,6.61,0,0,0,272,171a2.49,2.49,0,0,0,2.1,1,2.59,2.59,0,0,0,2.12-1.07,6.38,6.38,0,0,0,1.25-4Z"/><path class="cls-2" d="M228.52,214.13v3.16a10,10,0,0,1-1.62,5.38,5.18,5.18,0,0,1-4.64,2.57,5.31,5.31,0,0,1-2.95-.77,7.17,7.17,0,0,1-2.27-2.82,9.26,9.26,0,0,1-1.08-4.36v-3.16a10,10,0,0,1,1.62-5.38,5.15,5.15,0,0,1,4.63-2.58,5.32,5.32,0,0,1,2.93.76,7.29,7.29,0,0,1,2.3,2.82A9.28,9.28,0,0,1,228.52,214.13Zm-2.89,0a6.7,6.7,0,0,0-1.31-4.11,2.49,2.49,0,0,0-2.09-1,2.6,2.6,0,0,0-2.14,1.07,6.38,6.38,0,0,0-1.25,4v3.16a6.6,6.6,0,0,0,1.32,4.1,2.47,2.47,0,0,0,2.1,1,2.57,2.57,0,0,0,2.12-1.07,6.35,6.35,0,0,0,1.25-4Z"/><path class="cls-2" d="M241,206.17v15.77h2.91a2.2,2.2,0,0,1,1.49.4,1.37,1.37,0,0,1,.44,1,1.34,1.34,0,0,1-.44,1,2.2,2.2,0,0,1-1.49.4h-8.7a2.18,2.18,0,0,1-1.48-.4,1.37,1.37,0,0,1-.44-1,1.34,1.34,0,0,1,.44-1,2.18,2.18,0,0,1,1.48-.4h2.91v-12l-2.57.68a4,4,0,0,1-.92.17,1.24,1.24,0,0,1-.95-.44,1.5,1.5,0,0,1-.4-1.07,1.28,1.28,0,0,1,.29-.9,2.67,2.67,0,0,1,1.24-.59Z"/><path class="cls-2" d="M258.24,206.17v15.77h2.91a2.2,2.2,0,0,1,1.49.4,1.37,1.37,0,0,1,.44,1,1.34,1.34,0,0,1-.44,1,2.2,2.2,0,0,1-1.49.4h-8.7a2.18,2.18,0,0,1-1.48-.4,1.37,1.37,0,0,1-.44-1,1.34,1.34,0,0,1,.44-1,2.18,2.18,0,0,1,1.48-.4h2.91v-12l-2.57.68a4,4,0,0,1-.92.17,1.24,1.24,0,0,1-1-.44,1.5,1.5,0,0,1-.4-1.07,1.28,1.28,0,0,1,.29-.9,2.67,2.67,0,0,1,1.24-.59Z"/><path class="cls-2" d="M280.33,214.13v3.16a10,10,0,0,1-1.62,5.38,5.18,5.18,0,0,1-4.64,2.57,5.29,5.29,0,0,1-2.95-.77,7.17,7.17,0,0,1-2.27-2.82,9.26,9.26,0,0,1-1.08-4.36v-3.16a10,10,0,0,1,1.62-5.38,5.15,5.15,0,0,1,4.63-2.58,5.32,5.32,0,0,1,2.93.76,7.28,7.28,0,0,1,2.29,2.82A9.17,9.17,0,0,1,280.33,214.13Zm-2.89,0a6.7,6.7,0,0,0-1.31-4.11,2.5,2.5,0,0,0-2.09-1,2.6,2.6,0,0,0-2.14,1.07,6.38,6.38,0,0,0-1.25,4v3.16a6.6,6.6,0,0,0,1.32,4.1,2.47,2.47,0,0,0,2.1,1,2.59,2.59,0,0,0,2.12-1.07,6.35,6.35,0,0,0,1.25-4Z"/><path class="cls-2" d="M228.52,189.07v3.16a9.94,9.94,0,0,1-1.62,5.38,5.18,5.18,0,0,1-4.64,2.57,5.31,5.31,0,0,1-2.95-.77,7.17,7.17,0,0,1-2.27-2.82,9.26,9.26,0,0,1-1.08-4.36v-3.16a10,10,0,0,1,1.62-5.38,5.15,5.15,0,0,1,4.63-2.58,5.41,5.41,0,0,1,2.93.76,7.29,7.29,0,0,1,2.3,2.82A9.28,9.28,0,0,1,228.52,189.07Zm-2.89,0a6.7,6.7,0,0,0-1.31-4.11,2.49,2.49,0,0,0-2.09-1,2.6,2.6,0,0,0-2.14,1.07,6.38,6.38,0,0,0-1.25,4v3.16a6.6,6.6,0,0,0,1.32,4.1,2.47,2.47,0,0,0,2.1,1,2.57,2.57,0,0,0,2.12-1.07,6.35,6.35,0,0,0,1.25-4Z"/><path class="cls-2" d="M241,181.11v15.77h2.91a2.2,2.2,0,0,1,1.49.4,1.37,1.37,0,0,1,.44,1.05,1.34,1.34,0,0,1-.44,1,2.2,2.2,0,0,1-1.49.4h-8.7a2.18,2.18,0,0,1-1.48-.4,1.37,1.37,0,0,1-.44-1.05,1.34,1.34,0,0,1,.44-1,2.18,2.18,0,0,1,1.48-.4h2.91v-12l-2.57.68a4,4,0,0,1-.92.17,1.24,1.24,0,0,1-.95-.44,1.5,1.5,0,0,1-.4-1.07,1.28,1.28,0,0,1,.29-.9,2.67,2.67,0,0,1,1.24-.59Z"/><path class="cls-2" d="M263.06,189.07v3.16a9.94,9.94,0,0,1-1.62,5.38,5.18,5.18,0,0,1-4.64,2.57,5.31,5.31,0,0,1-3-.77,7.17,7.17,0,0,1-2.27-2.82,9.26,9.26,0,0,1-1.08-4.36v-3.16a10,10,0,0,1,1.62-5.38,5.15,5.15,0,0,1,4.63-2.58,5.41,5.41,0,0,1,2.93.76,7.29,7.29,0,0,1,2.3,2.82A9.28,9.28,0,0,1,263.06,189.07Zm-2.89,0a6.7,6.7,0,0,0-1.31-4.11,2.49,2.49,0,0,0-2.09-1,2.6,2.6,0,0,0-2.14,1.07,6.38,6.38,0,0,0-1.25,4v3.16a6.6,6.6,0,0,0,1.32,4.1,2.47,2.47,0,0,0,2.1,1,2.57,2.57,0,0,0,2.12-1.07,6.35,6.35,0,0,0,1.25-4Z"/><path class="cls-2" d="M280.33,189.07v3.16a9.94,9.94,0,0,1-1.62,5.38,5.18,5.18,0,0,1-4.64,2.57,5.29,5.29,0,0,1-2.95-.77,7.17,7.17,0,0,1-2.27-2.82,9.26,9.26,0,0,1-1.08-4.36v-3.16a10,10,0,0,1,1.62-5.38,5.15,5.15,0,0,1,4.63-2.58,5.41,5.41,0,0,1,2.93.76,7.28,7.28,0,0,1,2.29,2.82A9.17,9.17,0,0,1,280.33,189.07Zm-2.89,0a6.7,6.7,0,0,0-1.31-4.11,2.5,2.5,0,0,0-2.09-1,2.6,2.6,0,0,0-2.14,1.07,6.38,6.38,0,0,0-1.25,4v3.16a6.6,6.6,0,0,0,1.32,4.1,2.47,2.47,0,0,0,2.1,1,2.59,2.59,0,0,0,2.12-1.07,6.35,6.35,0,0,0,1.25-4Z"/><path class="cls-2" d="M294.12,155.78v15.77H297a2.17,2.17,0,0,1,1.48.4,1.3,1.3,0,0,1,.44,1,1.33,1.33,0,0,1-.44,1,2.22,2.22,0,0,1-1.48.4h-8.7a2.22,2.22,0,0,1-1.48-.4,1.35,1.35,0,0,1-.45-1.05,1.31,1.31,0,0,1,.45-1,2.17,2.17,0,0,1,1.48-.4h2.91v-12l-2.57.67a3.61,3.61,0,0,1-.93.17,1.24,1.24,0,0,1-.95-.43,1.51,1.51,0,0,1-.4-1.07,1.31,1.31,0,0,1,.3-.91,2.63,2.63,0,0,1,1.23-.58Z"/><path class="cls-2" d="M316.21,163.73v3.16a10,10,0,0,1-1.62,5.39,5.2,5.2,0,0,1-4.65,2.57,5.36,5.36,0,0,1-2.94-.77,7.27,7.27,0,0,1-2.28-2.82,9.26,9.26,0,0,1-1.07-4.37v-3.16a10,10,0,0,1,1.61-5.37,5.17,5.17,0,0,1,4.64-2.58,5.35,5.35,0,0,1,2.93.76,7.21,7.21,0,0,1,2.29,2.82A9.16,9.16,0,0,1,316.21,163.73Zm-2.9,0a6.69,6.69,0,0,0-1.3-4.1,2.49,2.49,0,0,0-2.1-1,2.58,2.58,0,0,0-2.13,1.07,6.31,6.31,0,0,0-1.25,4v3.16a6.61,6.61,0,0,0,1.32,4.11,2.48,2.48,0,0,0,2.09,1,2.57,2.57,0,0,0,2.12-1.07,6.32,6.32,0,0,0,1.25-4Z"/><path class="cls-2" d="M328.66,155.78v15.77h2.91a2.17,2.17,0,0,1,1.48.4,1.3,1.3,0,0,1,.44,1,1.33,1.33,0,0,1-.44,1,2.22,2.22,0,0,1-1.48.4h-8.7a2.22,2.22,0,0,1-1.48-.4,1.35,1.35,0,0,1-.45-1.05,1.31,1.31,0,0,1,.45-1,2.17,2.17,0,0,1,1.48-.4h2.91v-12l-2.57.67a3.61,3.61,0,0,1-.93.17,1.24,1.24,0,0,1-.95-.43,1.51,1.51,0,0,1-.4-1.07,1.31,1.31,0,0,1,.3-.91,2.63,2.63,0,0,1,1.23-.58Z"/><path class="cls-2" d="M350.75,163.73v3.16a9.9,9.9,0,0,1-1.63,5.39,5.18,5.18,0,0,1-4.64,2.57,5.36,5.36,0,0,1-2.94-.77,7.27,7.27,0,0,1-2.28-2.82,9.26,9.26,0,0,1-1.07-4.37v-3.16a9.94,9.94,0,0,1,1.61-5.37,5.17,5.17,0,0,1,4.64-2.58,5.35,5.35,0,0,1,2.93.76,7.21,7.21,0,0,1,2.29,2.82A9.28,9.28,0,0,1,350.75,163.73Zm-2.9,0a6.69,6.69,0,0,0-1.3-4.1,2.49,2.49,0,0,0-2.1-1,2.58,2.58,0,0,0-2.13,1.07,6.31,6.31,0,0,0-1.25,4v3.16a6.61,6.61,0,0,0,1.32,4.11,2.46,2.46,0,0,0,2.09,1,2.57,2.57,0,0,0,2.12-1.07,6.32,6.32,0,0,0,1.25-4Z"/><path class="cls-2" d="M298.94,214.13v3.16a10,10,0,0,1-1.62,5.38,5.2,5.2,0,0,1-4.65,2.57,5.28,5.28,0,0,1-2.94-.77,7.27,7.27,0,0,1-2.28-2.82,9.25,9.25,0,0,1-1.07-4.36v-3.16a10,10,0,0,1,1.61-5.38,5.17,5.17,0,0,1,4.64-2.58,5.35,5.35,0,0,1,2.93.76,7.37,7.37,0,0,1,2.29,2.82A9.17,9.17,0,0,1,298.94,214.13Zm-2.9,0a6.69,6.69,0,0,0-1.3-4.11,2.52,2.52,0,0,0-2.1-1,2.58,2.58,0,0,0-2.13,1.07,6.32,6.32,0,0,0-1.25,4v3.16a6.6,6.6,0,0,0,1.32,4.1,2.45,2.45,0,0,0,2.09,1,2.57,2.57,0,0,0,2.12-1.07,6.29,6.29,0,0,0,1.25-4Z"/><path class="cls-2" d="M311.39,206.17v15.77h2.91a2.17,2.17,0,0,1,1.48.4,1.34,1.34,0,0,1,.44,1,1.31,1.31,0,0,1-.44,1,2.17,2.17,0,0,1-1.48.4h-8.7a2.17,2.17,0,0,1-1.48-.4,1.35,1.35,0,0,1-.45-1,1.32,1.32,0,0,1,.45-1,2.17,2.17,0,0,1,1.48-.4h2.91v-12l-2.57.68a4.11,4.11,0,0,1-.93.17,1.25,1.25,0,0,1-.95-.44,1.5,1.5,0,0,1-.4-1.07,1.29,1.29,0,0,1,.3-.9,2.62,2.62,0,0,1,1.23-.59Z"/><path class="cls-2" d="M328.66,206.17v15.77h2.91a2.17,2.17,0,0,1,1.48.4,1.34,1.34,0,0,1,.44,1,1.31,1.31,0,0,1-.44,1,2.17,2.17,0,0,1-1.48.4h-8.7a2.17,2.17,0,0,1-1.48-.4,1.35,1.35,0,0,1-.45-1,1.32,1.32,0,0,1,.45-1,2.17,2.17,0,0,1,1.48-.4h2.91v-12l-2.57.68a4.11,4.11,0,0,1-.93.17,1.25,1.25,0,0,1-.95-.44,1.5,1.5,0,0,1-.4-1.07,1.29,1.29,0,0,1,.3-.9,2.62,2.62,0,0,1,1.23-.59Z"/><path class="cls-2" d="M350.75,214.13v3.16a9.89,9.89,0,0,1-1.63,5.38,5.18,5.18,0,0,1-4.64,2.57,5.28,5.28,0,0,1-2.94-.77,7.27,7.27,0,0,1-2.28-2.82,9.25,9.25,0,0,1-1.07-4.36v-3.16a10,10,0,0,1,1.61-5.38,5.17,5.17,0,0,1,4.64-2.58,5.35,5.35,0,0,1,2.93.76,7.37,7.37,0,0,1,2.29,2.82A9.29,9.29,0,0,1,350.75,214.13Zm-2.9,0a6.69,6.69,0,0,0-1.3-4.11,2.52,2.52,0,0,0-2.1-1,2.58,2.58,0,0,0-2.13,1.07,6.32,6.32,0,0,0-1.25,4v3.16a6.6,6.6,0,0,0,1.32,4.1,2.44,2.44,0,0,0,2.09,1,2.57,2.57,0,0,0,2.12-1.07,6.29,6.29,0,0,0,1.25-4Z"/><path class="cls-2" d="M298.94,189.07v3.16a9.94,9.94,0,0,1-1.62,5.38,5.2,5.2,0,0,1-4.65,2.57,5.28,5.28,0,0,1-2.94-.77,7.27,7.27,0,0,1-2.28-2.82,9.25,9.25,0,0,1-1.07-4.36v-3.16a10,10,0,0,1,1.61-5.38,5.17,5.17,0,0,1,4.64-2.58,5.43,5.43,0,0,1,2.93.76,7.37,7.37,0,0,1,2.29,2.82A9.17,9.17,0,0,1,298.94,189.07Zm-2.9,0a6.69,6.69,0,0,0-1.3-4.11,2.52,2.52,0,0,0-2.1-1,2.58,2.58,0,0,0-2.13,1.07,6.32,6.32,0,0,0-1.25,4v3.16a6.6,6.6,0,0,0,1.32,4.1,2.45,2.45,0,0,0,2.09,1,2.57,2.57,0,0,0,2.12-1.07,6.29,6.29,0,0,0,1.25-4Z"/><path class="cls-2" d="M311.39,181.11v15.77h2.91a2.17,2.17,0,0,1,1.48.4,1.34,1.34,0,0,1,.44,1.05,1.31,1.31,0,0,1-.44,1,2.17,2.17,0,0,1-1.48.4h-8.7a2.17,2.17,0,0,1-1.48-.4,1.35,1.35,0,0,1-.45-1.05,1.32,1.32,0,0,1,.45-1,2.17,2.17,0,0,1,1.48-.4h2.91v-12l-2.57.68a4.11,4.11,0,0,1-.93.17,1.25,1.25,0,0,1-.95-.44,1.5,1.5,0,0,1-.4-1.07,1.29,1.29,0,0,1,.3-.9,2.62,2.62,0,0,1,1.23-.59Z"/><path class="cls-2" d="M333.48,189.07v3.16a9.94,9.94,0,0,1-1.62,5.38,5.2,5.2,0,0,1-4.65,2.57,5.28,5.28,0,0,1-2.94-.77,7.27,7.27,0,0,1-2.28-2.82,9.25,9.25,0,0,1-1.07-4.36v-3.16a10,10,0,0,1,1.61-5.38,5.17,5.17,0,0,1,4.64-2.58,5.43,5.43,0,0,1,2.93.76,7.37,7.37,0,0,1,2.29,2.82A9.17,9.17,0,0,1,333.48,189.07Zm-2.9,0a6.69,6.69,0,0,0-1.3-4.11,2.52,2.52,0,0,0-2.1-1,2.58,2.58,0,0,0-2.13,1.07,6.32,6.32,0,0,0-1.25,4v3.16a6.6,6.6,0,0,0,1.32,4.1,2.45,2.45,0,0,0,2.09,1,2.57,2.57,0,0,0,2.12-1.07,6.29,6.29,0,0,0,1.25-4Z"/><path class="cls-2" d="M350.75,189.07v3.16a9.87,9.87,0,0,1-1.63,5.38,5.18,5.18,0,0,1-4.64,2.57,5.28,5.28,0,0,1-2.94-.77,7.27,7.27,0,0,1-2.28-2.82,9.25,9.25,0,0,1-1.07-4.36v-3.16a10,10,0,0,1,1.61-5.38,5.17,5.17,0,0,1,4.64-2.58,5.43,5.43,0,0,1,2.93.76,7.37,7.37,0,0,1,2.29,2.82A9.29,9.29,0,0,1,350.75,189.07Zm-2.9,0a6.69,6.69,0,0,0-1.3-4.11,2.52,2.52,0,0,0-2.1-1,2.58,2.58,0,0,0-2.13,1.07,6.32,6.32,0,0,0-1.25,4v3.16a6.6,6.6,0,0,0,1.32,4.1,2.44,2.44,0,0,0,2.09,1,2.57,2.57,0,0,0,2.12-1.07,6.29,6.29,0,0,0,1.25-4Z"/><path class="cls-2" d="M82.91,232v15.76h2.91a2.2,2.2,0,0,1,1.48.4,1.35,1.35,0,0,1,.45,1,1.31,1.31,0,0,1-.45,1,2.15,2.15,0,0,1-1.48.4h-8.7a2.18,2.18,0,0,1-1.48-.4,1.34,1.34,0,0,1-.44-1,1.35,1.35,0,0,1,.44-1,2.24,2.24,0,0,1,1.48-.4H80v-12l-2.57.67a3.54,3.54,0,0,1-.93.17,1.22,1.22,0,0,1-.94-.43,1.51,1.51,0,0,1-.4-1.07,1.29,1.29,0,0,1,.29-.91,2.68,2.68,0,0,1,1.24-.58Z"/><path class="cls-2" d="M105,239.94v3.16a9.91,9.91,0,0,1-1.62,5.38,5.17,5.17,0,0,1-4.64,2.58,5.37,5.37,0,0,1-2.95-.77,7.14,7.14,0,0,1-2.27-2.83,9.23,9.23,0,0,1-1.08-4.36v-3.16a9.93,9.93,0,0,1,1.62-5.37A5.15,5.15,0,0,1,98.69,232a5.32,5.32,0,0,1,2.93.76,7.16,7.16,0,0,1,2.29,2.81A9.2,9.2,0,0,1,105,239.94Zm-2.89,0a6.69,6.69,0,0,0-1.31-4.1,2.48,2.48,0,0,0-2.09-1,2.57,2.57,0,0,0-2.14,1.07,6.35,6.35,0,0,0-1.25,4v3.16a6.58,6.58,0,0,0,1.32,4.1,2.48,2.48,0,0,0,2.1,1,2.59,2.59,0,0,0,2.12-1.07,6.39,6.39,0,0,0,1.25-4Z"/><path class="cls-2" d="M117.45,232v15.76h2.91a2.2,2.2,0,0,1,1.48.4,1.35,1.35,0,0,1,.45,1,1.31,1.31,0,0,1-.45,1,2.15,2.15,0,0,1-1.48.4h-8.7a2.18,2.18,0,0,1-1.48-.4,1.34,1.34,0,0,1-.44-1,1.35,1.35,0,0,1,.44-1,2.24,2.24,0,0,1,1.48-.4h2.91v-12l-2.57.67a3.54,3.54,0,0,1-.93.17,1.22,1.22,0,0,1-.94-.43,1.51,1.51,0,0,1-.4-1.07,1.29,1.29,0,0,1,.29-.91,2.68,2.68,0,0,1,1.24-.58Z"/><path class="cls-2" d="M139.54,239.94v3.16a9.91,9.91,0,0,1-1.62,5.38,5.17,5.17,0,0,1-4.64,2.58,5.37,5.37,0,0,1-2.95-.77,7.24,7.24,0,0,1-2.28-2.83A9.34,9.34,0,0,1,127,243.1v-3.16a9.93,9.93,0,0,1,1.62-5.37,5.15,5.15,0,0,1,4.63-2.58,5.35,5.35,0,0,1,2.93.76,7.16,7.16,0,0,1,2.29,2.81A9.2,9.2,0,0,1,139.54,239.94Zm-2.89,0a6.69,6.69,0,0,0-1.31-4.1,2.48,2.48,0,0,0-2.09-1,2.57,2.57,0,0,0-2.14,1.07,6.35,6.35,0,0,0-1.25,4v3.16a6.58,6.58,0,0,0,1.32,4.1,2.48,2.48,0,0,0,2.1,1,2.59,2.59,0,0,0,2.12-1.07,6.39,6.39,0,0,0,1.25-4Z"/><path class="cls-2" d="M87.73,290.33v3.17a10,10,0,0,1-1.62,5.38,5.18,5.18,0,0,1-4.64,2.57,5.37,5.37,0,0,1-3-.77,7.17,7.17,0,0,1-2.27-2.82,9.26,9.26,0,0,1-1.08-4.36v-3.17A10,10,0,0,1,76.79,285a5.15,5.15,0,0,1,4.63-2.58,5.32,5.32,0,0,1,2.93.76A7.2,7.2,0,0,1,86.64,286,9.16,9.16,0,0,1,87.73,290.33Zm-2.89,0a6.69,6.69,0,0,0-1.31-4.1,2.48,2.48,0,0,0-2.09-1,2.6,2.6,0,0,0-2.14,1.07,6.37,6.37,0,0,0-1.25,4v3.17a6.6,6.6,0,0,0,1.32,4.1,2.49,2.49,0,0,0,2.1,1,2.59,2.59,0,0,0,2.12-1.07,6.37,6.37,0,0,0,1.25-4Z"/><path class="cls-2" d="M100.18,282.38v15.77h2.91a2.15,2.15,0,0,1,1.48.4,1.31,1.31,0,0,1,.45,1,1.33,1.33,0,0,1-.45,1,2.2,2.2,0,0,1-1.48.4h-8.7a2.24,2.24,0,0,1-1.48-.4,1.37,1.37,0,0,1-.44-1.05,1.33,1.33,0,0,1,.44-1,2.18,2.18,0,0,1,1.48-.4H97.3v-12l-2.57.68a4,4,0,0,1-.93.17,1.23,1.23,0,0,1-.94-.44,1.51,1.51,0,0,1-.4-1.07,1.28,1.28,0,0,1,.29-.9A2.67,2.67,0,0,1,94,284Z"/><path class="cls-2" d="M117.45,282.38v15.77h2.91a2.15,2.15,0,0,1,1.48.4,1.31,1.31,0,0,1,.45,1,1.33,1.33,0,0,1-.45,1,2.2,2.2,0,0,1-1.48.4h-8.7a2.24,2.24,0,0,1-1.48-.4,1.37,1.37,0,0,1-.44-1.05,1.33,1.33,0,0,1,.44-1,2.18,2.18,0,0,1,1.48-.4h2.91v-12l-2.57.68a4,4,0,0,1-.93.17,1.23,1.23,0,0,1-.94-.44,1.51,1.51,0,0,1-.4-1.07,1.28,1.28,0,0,1,.29-.9,2.67,2.67,0,0,1,1.24-.59Z"/><path class="cls-2" d="M139.54,290.33v3.17a10,10,0,0,1-1.62,5.38,5.18,5.18,0,0,1-4.64,2.57,5.37,5.37,0,0,1-2.95-.77,7.27,7.27,0,0,1-2.28-2.82A9.37,9.37,0,0,1,127,293.5v-3.17A10,10,0,0,1,128.6,285a5.15,5.15,0,0,1,4.63-2.58,5.35,5.35,0,0,1,2.93.76,7.2,7.2,0,0,1,2.29,2.82A9.16,9.16,0,0,1,139.54,290.33Zm-2.89,0a6.69,6.69,0,0,0-1.31-4.1,2.48,2.48,0,0,0-2.09-1,2.6,2.6,0,0,0-2.14,1.07,6.37,6.37,0,0,0-1.25,4v3.17a6.6,6.6,0,0,0,1.32,4.1,2.49,2.49,0,0,0,2.1,1,2.59,2.59,0,0,0,2.12-1.07,6.37,6.37,0,0,0,1.25-4Z"/><path class="cls-2" d="M87.73,265.27v3.17a10,10,0,0,1-1.62,5.38,5.18,5.18,0,0,1-4.64,2.57,5.37,5.37,0,0,1-3-.77,7.17,7.17,0,0,1-2.27-2.82,9.26,9.26,0,0,1-1.08-4.36v-3.17a10,10,0,0,1,1.62-5.37,5.15,5.15,0,0,1,4.63-2.58,5.32,5.32,0,0,1,2.93.76,7.2,7.2,0,0,1,2.29,2.82A9.16,9.16,0,0,1,87.73,265.27Zm-2.89,0a6.69,6.69,0,0,0-1.31-4.1,2.48,2.48,0,0,0-2.09-1,2.6,2.6,0,0,0-2.14,1.07,6.37,6.37,0,0,0-1.25,4v3.17a6.6,6.6,0,0,0,1.32,4.1,2.49,2.49,0,0,0,2.1,1,2.59,2.59,0,0,0,2.12-1.07,6.37,6.37,0,0,0,1.25-4Z"/><path class="cls-2" d="M100.18,257.32v15.77h2.91a2.15,2.15,0,0,1,1.48.4,1.31,1.31,0,0,1,.45,1,1.33,1.33,0,0,1-.45,1,2.2,2.2,0,0,1-1.48.4h-8.7a2.24,2.24,0,0,1-1.48-.4,1.37,1.37,0,0,1-.44-1.05,1.33,1.33,0,0,1,.44-1,2.18,2.18,0,0,1,1.48-.4H97.3v-12l-2.57.68a4,4,0,0,1-.93.17,1.23,1.23,0,0,1-.94-.44,1.51,1.51,0,0,1-.4-1.07,1.28,1.28,0,0,1,.29-.9,2.67,2.67,0,0,1,1.24-.59Z"/><path class="cls-2" d="M122.27,265.27v3.17a10,10,0,0,1-1.62,5.38,5.18,5.18,0,0,1-4.64,2.57,5.37,5.37,0,0,1-3-.77,7.17,7.17,0,0,1-2.27-2.82,9.26,9.26,0,0,1-1.08-4.36v-3.17a10,10,0,0,1,1.62-5.37,5.15,5.15,0,0,1,4.63-2.58,5.32,5.32,0,0,1,2.93.76,7.2,7.2,0,0,1,2.29,2.82A9.16,9.16,0,0,1,122.27,265.27Zm-2.89,0a6.69,6.69,0,0,0-1.31-4.1,2.48,2.48,0,0,0-2.09-1,2.6,2.6,0,0,0-2.14,1.07,6.37,6.37,0,0,0-1.25,4v3.17a6.6,6.6,0,0,0,1.32,4.1,2.49,2.49,0,0,0,2.1,1,2.59,2.59,0,0,0,2.12-1.07,6.37,6.37,0,0,0,1.25-4Z"/><path class="cls-2" d="M139.54,265.27v3.17a10,10,0,0,1-1.62,5.38,5.18,5.18,0,0,1-4.64,2.57,5.37,5.37,0,0,1-2.95-.77,7.27,7.27,0,0,1-2.28-2.82,9.37,9.37,0,0,1-1.07-4.36v-3.17a10,10,0,0,1,1.62-5.37,5.15,5.15,0,0,1,4.63-2.58,5.35,5.35,0,0,1,2.93.76,7.2,7.2,0,0,1,2.29,2.82A9.16,9.16,0,0,1,139.54,265.27Zm-2.89,0a6.69,6.69,0,0,0-1.31-4.1,2.48,2.48,0,0,0-2.09-1,2.6,2.6,0,0,0-2.14,1.07,6.37,6.37,0,0,0-1.25,4v3.17a6.6,6.6,0,0,0,1.32,4.1,2.49,2.49,0,0,0,2.1,1,2.59,2.59,0,0,0,2.12-1.07,6.37,6.37,0,0,0,1.25-4Z"/><path class="cls-2" d="M153.33,232v15.76h2.91a2.24,2.24,0,0,1,1.48.4,1.34,1.34,0,0,1,.44,1,1.3,1.3,0,0,1-.44,1,2.18,2.18,0,0,1-1.48.4h-8.7a2.17,2.17,0,0,1-1.48-.4,1.31,1.31,0,0,1-.45-1,1.33,1.33,0,0,1,.45-1,2.22,2.22,0,0,1,1.48-.4h2.91v-12l-2.57.67a3.68,3.68,0,0,1-.93.17,1.24,1.24,0,0,1-.95-.43,1.51,1.51,0,0,1-.4-1.07,1.34,1.34,0,0,1,.29-.91,2.68,2.68,0,0,1,1.24-.58Z"/><path class="cls-2" d="M175.42,239.94v3.16a9.84,9.84,0,0,1-1.63,5.38,5.17,5.17,0,0,1-4.64,2.58,5.36,5.36,0,0,1-2.94-.77,7.24,7.24,0,0,1-2.28-2.83,9.22,9.22,0,0,1-1.07-4.36v-3.16a9.92,9.92,0,0,1,1.61-5.37,5.17,5.17,0,0,1,4.64-2.58,5.35,5.35,0,0,1,2.93.76,7.25,7.25,0,0,1,2.29,2.81A9.2,9.2,0,0,1,175.42,239.94Zm-2.9,0a6.69,6.69,0,0,0-1.3-4.1,2.49,2.49,0,0,0-2.1-1,2.55,2.55,0,0,0-2.13,1.07,6.29,6.29,0,0,0-1.25,4v3.16a6.58,6.58,0,0,0,1.32,4.1,2.45,2.45,0,0,0,2.09,1,2.57,2.57,0,0,0,2.12-1.07,6.33,6.33,0,0,0,1.25-4Z"/><path class="cls-2" d="M187.87,232v15.76h2.91a2.24,2.24,0,0,1,1.48.4,1.34,1.34,0,0,1,.44,1,1.3,1.3,0,0,1-.44,1,2.18,2.18,0,0,1-1.48.4h-8.7a2.17,2.17,0,0,1-1.48-.4,1.31,1.31,0,0,1-.45-1,1.33,1.33,0,0,1,.45-1,2.22,2.22,0,0,1,1.48-.4H185v-12l-2.57.67a3.68,3.68,0,0,1-.93.17,1.24,1.24,0,0,1-1-.43,1.51,1.51,0,0,1-.4-1.07,1.34,1.34,0,0,1,.29-.91,2.68,2.68,0,0,1,1.24-.58Z"/><path class="cls-2" d="M210,239.94v3.16a9.84,9.84,0,0,1-1.63,5.38,5.17,5.17,0,0,1-4.64,2.58,5.36,5.36,0,0,1-2.94-.77,7.15,7.15,0,0,1-2.28-2.83,9.22,9.22,0,0,1-1.07-4.36v-3.16a9.92,9.92,0,0,1,1.61-5.37,5.16,5.16,0,0,1,4.64-2.58,5.35,5.35,0,0,1,2.93.76,7.25,7.25,0,0,1,2.29,2.81A9.32,9.32,0,0,1,210,239.94Zm-2.9,0a6.69,6.69,0,0,0-1.3-4.1,2.49,2.49,0,0,0-2.1-1,2.55,2.55,0,0,0-2.13,1.07,6.29,6.29,0,0,0-1.25,4v3.16a6.58,6.58,0,0,0,1.32,4.1,2.45,2.45,0,0,0,2.09,1,2.57,2.57,0,0,0,2.12-1.07,6.33,6.33,0,0,0,1.25-4Z"/><path class="cls-2" d="M158.15,290.33v3.17a9.89,9.89,0,0,1-1.63,5.38,5.18,5.18,0,0,1-4.64,2.57,5.36,5.36,0,0,1-2.94-.77,7.27,7.27,0,0,1-2.28-2.82,9.25,9.25,0,0,1-1.07-4.36v-3.17A9.94,9.94,0,0,1,147.2,285a5.17,5.17,0,0,1,4.64-2.58,5.35,5.35,0,0,1,2.93.76,7.29,7.29,0,0,1,2.29,2.82A9.28,9.28,0,0,1,158.15,290.33Zm-2.9,0a6.69,6.69,0,0,0-1.3-4.1,2.49,2.49,0,0,0-2.1-1,2.58,2.58,0,0,0-2.13,1.07,6.31,6.31,0,0,0-1.25,4v3.17a6.6,6.6,0,0,0,1.32,4.1,2.46,2.46,0,0,0,2.09,1A2.57,2.57,0,0,0,154,297.5a6.31,6.31,0,0,0,1.25-4Z"/><path class="cls-2" d="M170.6,282.38v15.77h2.91a2.18,2.18,0,0,1,1.48.4,1.3,1.3,0,0,1,.44,1,1.32,1.32,0,0,1-.44,1,2.24,2.24,0,0,1-1.48.4h-8.7a2.22,2.22,0,0,1-1.48-.4,1.35,1.35,0,0,1-.45-1.05,1.31,1.31,0,0,1,.45-1,2.17,2.17,0,0,1,1.48-.4h2.91v-12l-2.57.68a4.2,4.2,0,0,1-.93.17,1.25,1.25,0,0,1-.95-.44,1.51,1.51,0,0,1-.4-1.07,1.33,1.33,0,0,1,.29-.9,2.67,2.67,0,0,1,1.24-.59Z"/><path class="cls-2" d="M187.87,282.38v15.77h2.91a2.18,2.18,0,0,1,1.48.4,1.3,1.3,0,0,1,.44,1,1.32,1.32,0,0,1-.44,1,2.24,2.24,0,0,1-1.48.4h-8.7a2.22,2.22,0,0,1-1.48-.4,1.35,1.35,0,0,1-.45-1.05,1.31,1.31,0,0,1,.45-1,2.17,2.17,0,0,1,1.48-.4H185v-12l-2.57.68a4.2,4.2,0,0,1-.93.17,1.25,1.25,0,0,1-1-.44,1.51,1.51,0,0,1-.4-1.07,1.33,1.33,0,0,1,.29-.9,2.67,2.67,0,0,1,1.24-.59Z"/><path class="cls-2" d="M210,290.33v3.17a9.89,9.89,0,0,1-1.63,5.38,5.18,5.18,0,0,1-4.64,2.57,5.36,5.36,0,0,1-2.94-.77,7.18,7.18,0,0,1-2.28-2.82,9.25,9.25,0,0,1-1.07-4.36v-3.17A9.94,9.94,0,0,1,199,285a5.16,5.16,0,0,1,4.64-2.58,5.35,5.35,0,0,1,2.93.76,7.29,7.29,0,0,1,2.29,2.82A9.28,9.28,0,0,1,210,290.33Zm-2.9,0a6.69,6.69,0,0,0-1.3-4.1,2.49,2.49,0,0,0-2.1-1,2.58,2.58,0,0,0-2.13,1.07,6.31,6.31,0,0,0-1.25,4v3.17a6.6,6.6,0,0,0,1.32,4.1,2.46,2.46,0,0,0,2.09,1,2.57,2.57,0,0,0,2.12-1.07,6.31,6.31,0,0,0,1.25-4Z"/><path class="cls-2" d="M158.15,265.27v3.17a9.89,9.89,0,0,1-1.63,5.38,5.18,5.18,0,0,1-4.64,2.57,5.36,5.36,0,0,1-2.94-.77,7.27,7.27,0,0,1-2.28-2.82,9.25,9.25,0,0,1-1.07-4.36v-3.17a9.94,9.94,0,0,1,1.61-5.37,5.17,5.17,0,0,1,4.64-2.58,5.35,5.35,0,0,1,2.93.76,7.29,7.29,0,0,1,2.29,2.82A9.28,9.28,0,0,1,158.15,265.27Zm-2.9,0a6.69,6.69,0,0,0-1.3-4.1,2.49,2.49,0,0,0-2.1-1,2.58,2.58,0,0,0-2.13,1.07,6.31,6.31,0,0,0-1.25,4v3.17a6.6,6.6,0,0,0,1.32,4.1,2.46,2.46,0,0,0,2.09,1,2.57,2.57,0,0,0,2.12-1.07,6.31,6.31,0,0,0,1.25-4Z"/><path class="cls-2" d="M170.6,257.32v15.77h2.91a2.18,2.18,0,0,1,1.48.4,1.3,1.3,0,0,1,.44,1,1.32,1.32,0,0,1-.44,1,2.24,2.24,0,0,1-1.48.4h-8.7a2.22,2.22,0,0,1-1.48-.4,1.35,1.35,0,0,1-.45-1.05,1.31,1.31,0,0,1,.45-1,2.17,2.17,0,0,1,1.48-.4h2.91v-12l-2.57.68a4.2,4.2,0,0,1-.93.17,1.25,1.25,0,0,1-.95-.44,1.51,1.51,0,0,1-.4-1.07,1.33,1.33,0,0,1,.29-.9,2.67,2.67,0,0,1,1.24-.59Z"/><path class="cls-2" d="M192.69,265.27v3.17a9.89,9.89,0,0,1-1.63,5.38,5.17,5.17,0,0,1-4.64,2.57,5.36,5.36,0,0,1-2.94-.77,7.27,7.27,0,0,1-2.28-2.82,9.25,9.25,0,0,1-1.07-4.36v-3.17a9.94,9.94,0,0,1,1.61-5.37,5.17,5.17,0,0,1,4.64-2.58,5.35,5.35,0,0,1,2.93.76,7.29,7.29,0,0,1,2.29,2.82A9.16,9.16,0,0,1,192.69,265.27Zm-2.9,0a6.69,6.69,0,0,0-1.3-4.1,2.49,2.49,0,0,0-2.1-1,2.58,2.58,0,0,0-2.13,1.07,6.31,6.31,0,0,0-1.25,4v3.17a6.6,6.6,0,0,0,1.32,4.1,2.46,2.46,0,0,0,2.09,1,2.57,2.57,0,0,0,2.12-1.07,6.31,6.31,0,0,0,1.25-4Z"/><path class="cls-2" d="M210,265.27v3.17a9.89,9.89,0,0,1-1.63,5.38,5.18,5.18,0,0,1-4.64,2.57,5.36,5.36,0,0,1-2.94-.77,7.18,7.18,0,0,1-2.28-2.82,9.25,9.25,0,0,1-1.07-4.36v-3.17A9.94,9.94,0,0,1,199,259.9a5.16,5.16,0,0,1,4.64-2.58,5.35,5.35,0,0,1,2.93.76,7.29,7.29,0,0,1,2.29,2.82A9.28,9.28,0,0,1,210,265.27Zm-2.9,0a6.69,6.69,0,0,0-1.3-4.1,2.49,2.49,0,0,0-2.1-1,2.58,2.58,0,0,0-2.13,1.07,6.31,6.31,0,0,0-1.25,4v3.17a6.6,6.6,0,0,0,1.32,4.1,2.46,2.46,0,0,0,2.09,1,2.57,2.57,0,0,0,2.12-1.07,6.31,6.31,0,0,0,1.25-4Z"/><path class="cls-2" d="M82.93,155.78v15.77h2.91a2.18,2.18,0,0,1,1.48.4,1.34,1.34,0,0,1,.44,1,1.37,1.37,0,0,1-.44,1,2.24,2.24,0,0,1-1.48.4h-8.7a2.2,2.2,0,0,1-1.48-.4,1.35,1.35,0,0,1-.45-1.05,1.31,1.31,0,0,1,.45-1,2.15,2.15,0,0,1,1.48-.4h2.91v-12l-2.58.67a3.55,3.55,0,0,1-.92.17,1.24,1.24,0,0,1-1-.43,1.51,1.51,0,0,1-.4-1.07,1.36,1.36,0,0,1,.29-.91,2.68,2.68,0,0,1,1.24-.58Z"/><path class="cls-2" d="M105,163.73v3.16a9.9,9.9,0,0,1-1.63,5.39,5.18,5.18,0,0,1-4.64,2.57,5.36,5.36,0,0,1-2.94-.77,7.18,7.18,0,0,1-2.28-2.82,9.26,9.26,0,0,1-1.07-4.37v-3.16a9.94,9.94,0,0,1,1.61-5.37,5.16,5.16,0,0,1,4.64-2.58,5.35,5.35,0,0,1,2.93.76,7.21,7.21,0,0,1,2.29,2.82A9.28,9.28,0,0,1,105,163.73Zm-2.9,0a6.69,6.69,0,0,0-1.3-4.1,2.49,2.49,0,0,0-2.1-1,2.58,2.58,0,0,0-2.13,1.07,6.31,6.31,0,0,0-1.25,4v3.16A6.55,6.55,0,0,0,96.66,171a2.46,2.46,0,0,0,2.09,1,2.57,2.57,0,0,0,2.12-1.07,6.32,6.32,0,0,0,1.25-4Z"/><path class="cls-2" d="M117.47,155.78v15.77h2.91a2.18,2.18,0,0,1,1.48.4,1.34,1.34,0,0,1,.44,1,1.37,1.37,0,0,1-.44,1,2.24,2.24,0,0,1-1.48.4h-8.7a2.2,2.2,0,0,1-1.48-.4,1.35,1.35,0,0,1-.45-1.05,1.31,1.31,0,0,1,.45-1,2.15,2.15,0,0,1,1.48-.4h2.91v-12l-2.58.67a3.55,3.55,0,0,1-.92.17,1.24,1.24,0,0,1-1-.43,1.51,1.51,0,0,1-.4-1.07A1.36,1.36,0,0,1,110,158a2.68,2.68,0,0,1,1.24-.58Z"/><path class="cls-2" d="M139.56,163.73v3.16a9.9,9.9,0,0,1-1.63,5.39,5.18,5.18,0,0,1-4.64,2.57,5.36,5.36,0,0,1-2.94-.77,7.18,7.18,0,0,1-2.28-2.82,9.27,9.27,0,0,1-1.08-4.37v-3.16a10,10,0,0,1,1.62-5.37,5.16,5.16,0,0,1,4.64-2.58,5.35,5.35,0,0,1,2.93.76,7.21,7.21,0,0,1,2.29,2.82A9.28,9.28,0,0,1,139.56,163.73Zm-2.9,0a6.63,6.63,0,0,0-1.31-4.1,2.46,2.46,0,0,0-2.09-1,2.61,2.61,0,0,0-2.14,1.07,6.37,6.37,0,0,0-1.25,4v3.16A6.55,6.55,0,0,0,131.2,171a2.46,2.46,0,0,0,2.09,1,2.57,2.57,0,0,0,2.12-1.07,6.38,6.38,0,0,0,1.25-4Z"/><path class="cls-2" d="M87.75,214.13v3.16a9.89,9.89,0,0,1-1.63,5.38,5.18,5.18,0,0,1-4.64,2.57,5.28,5.28,0,0,1-2.94-.77,7.18,7.18,0,0,1-2.28-2.82,9.25,9.25,0,0,1-1.07-4.36v-3.16a10,10,0,0,1,1.61-5.38,5.16,5.16,0,0,1,4.64-2.58,5.35,5.35,0,0,1,2.93.76,7.37,7.37,0,0,1,2.29,2.82A9.29,9.29,0,0,1,87.75,214.13Zm-2.9,0a6.69,6.69,0,0,0-1.3-4.11,2.52,2.52,0,0,0-2.1-1,2.58,2.58,0,0,0-2.13,1.07,6.32,6.32,0,0,0-1.25,4v3.16a6.54,6.54,0,0,0,1.32,4.1,2.44,2.44,0,0,0,2.09,1,2.57,2.57,0,0,0,2.12-1.07,6.29,6.29,0,0,0,1.25-4Z"/><path class="cls-2" d="M100.2,206.17v15.77h2.91a2.18,2.18,0,0,1,1.48.4,1.37,1.37,0,0,1,.44,1,1.34,1.34,0,0,1-.44,1,2.18,2.18,0,0,1-1.48.4h-8.7a2.15,2.15,0,0,1-1.48-.4,1.35,1.35,0,0,1-.45-1,1.32,1.32,0,0,1,.45-1,2.15,2.15,0,0,1,1.48-.4h2.91v-12l-2.58.68a4,4,0,0,1-.92.17,1.25,1.25,0,0,1-.95-.44,1.5,1.5,0,0,1-.4-1.07,1.33,1.33,0,0,1,.29-.9,2.67,2.67,0,0,1,1.24-.59Z"/><path class="cls-2" d="M117.47,206.17v15.77h2.91a2.18,2.18,0,0,1,1.48.4,1.37,1.37,0,0,1,.44,1,1.34,1.34,0,0,1-.44,1,2.18,2.18,0,0,1-1.48.4h-8.7a2.15,2.15,0,0,1-1.48-.4,1.35,1.35,0,0,1-.45-1,1.32,1.32,0,0,1,.45-1,2.15,2.15,0,0,1,1.48-.4h2.91v-12l-2.58.68a4,4,0,0,1-.92.17,1.25,1.25,0,0,1-1-.44,1.5,1.5,0,0,1-.4-1.07,1.33,1.33,0,0,1,.29-.9,2.67,2.67,0,0,1,1.24-.59Z"/><path class="cls-2" d="M139.56,214.13v3.16a9.89,9.89,0,0,1-1.63,5.38,5.18,5.18,0,0,1-4.64,2.57,5.28,5.28,0,0,1-2.94-.77,7.18,7.18,0,0,1-2.28-2.82,9.26,9.26,0,0,1-1.08-4.36v-3.16a10,10,0,0,1,1.62-5.38,5.16,5.16,0,0,1,4.64-2.58,5.35,5.35,0,0,1,2.93.76,7.37,7.37,0,0,1,2.29,2.82A9.29,9.29,0,0,1,139.56,214.13Zm-2.9,0a6.64,6.64,0,0,0-1.31-4.11,2.49,2.49,0,0,0-2.09-1,2.61,2.61,0,0,0-2.14,1.07,6.38,6.38,0,0,0-1.25,4v3.16a6.54,6.54,0,0,0,1.33,4.1,2.44,2.44,0,0,0,2.09,1,2.57,2.57,0,0,0,2.12-1.07,6.35,6.35,0,0,0,1.25-4Z"/><path class="cls-2" d="M87.75,189.07v3.16a9.87,9.87,0,0,1-1.63,5.38,5.18,5.18,0,0,1-4.64,2.57,5.28,5.28,0,0,1-2.94-.77,7.18,7.18,0,0,1-2.28-2.82,9.25,9.25,0,0,1-1.07-4.36v-3.16a10,10,0,0,1,1.61-5.38,5.16,5.16,0,0,1,4.64-2.58,5.43,5.43,0,0,1,2.93.76,7.37,7.37,0,0,1,2.29,2.82A9.29,9.29,0,0,1,87.75,189.07Zm-2.9,0a6.69,6.69,0,0,0-1.3-4.11,2.52,2.52,0,0,0-2.1-1,2.58,2.58,0,0,0-2.13,1.07,6.32,6.32,0,0,0-1.25,4v3.16a6.54,6.54,0,0,0,1.32,4.1,2.44,2.44,0,0,0,2.09,1,2.57,2.57,0,0,0,2.12-1.07,6.29,6.29,0,0,0,1.25-4Z"/><path class="cls-2" d="M100.2,181.11v15.77h2.91a2.18,2.18,0,0,1,1.48.4,1.37,1.37,0,0,1,.44,1.05,1.34,1.34,0,0,1-.44,1,2.18,2.18,0,0,1-1.48.4h-8.7a2.15,2.15,0,0,1-1.48-.4,1.35,1.35,0,0,1-.45-1.05,1.32,1.32,0,0,1,.45-1,2.15,2.15,0,0,1,1.48-.4h2.91v-12l-2.58.68a4,4,0,0,1-.92.17,1.25,1.25,0,0,1-.95-.44,1.5,1.5,0,0,1-.4-1.07,1.33,1.33,0,0,1,.29-.9,2.67,2.67,0,0,1,1.24-.59Z"/><path class="cls-2" d="M122.29,189.07v3.16a9.87,9.87,0,0,1-1.63,5.38,5.18,5.18,0,0,1-4.64,2.57,5.28,5.28,0,0,1-2.94-.77,7.18,7.18,0,0,1-2.28-2.82,9.25,9.25,0,0,1-1.07-4.36v-3.16a10,10,0,0,1,1.61-5.38,5.16,5.16,0,0,1,4.64-2.58,5.43,5.43,0,0,1,2.93.76,7.37,7.37,0,0,1,2.29,2.82A9.29,9.29,0,0,1,122.29,189.07Zm-2.9,0a6.69,6.69,0,0,0-1.3-4.11,2.52,2.52,0,0,0-2.1-1,2.58,2.58,0,0,0-2.13,1.07,6.32,6.32,0,0,0-1.25,4v3.16a6.6,6.6,0,0,0,1.32,4.1,2.44,2.44,0,0,0,2.09,1,2.57,2.57,0,0,0,2.12-1.07,6.29,6.29,0,0,0,1.25-4Z"/><path class="cls-2" d="M139.56,189.07v3.16a9.87,9.87,0,0,1-1.63,5.38,5.18,5.18,0,0,1-4.64,2.57,5.28,5.28,0,0,1-2.94-.77,7.18,7.18,0,0,1-2.28-2.82,9.26,9.26,0,0,1-1.08-4.36v-3.16a10,10,0,0,1,1.62-5.38,5.16,5.16,0,0,1,4.64-2.58,5.43,5.43,0,0,1,2.93.76,7.37,7.37,0,0,1,2.29,2.82A9.29,9.29,0,0,1,139.56,189.07Zm-2.9,0a6.64,6.64,0,0,0-1.31-4.11,2.49,2.49,0,0,0-2.09-1,2.61,2.61,0,0,0-2.14,1.07,6.38,6.38,0,0,0-1.25,4v3.16a6.54,6.54,0,0,0,1.33,4.1,2.44,2.44,0,0,0,2.09,1,2.57,2.57,0,0,0,2.12-1.07,6.35,6.35,0,0,0,1.25-4Z"/><path class="cls-2" d="M153.34,155.78v15.77h2.91a2.17,2.17,0,0,1,1.48.4,1.31,1.31,0,0,1,.45,1,1.34,1.34,0,0,1-.45,1,2.22,2.22,0,0,1-1.48.4h-8.7a2.24,2.24,0,0,1-1.48-.4,1.37,1.37,0,0,1-.44-1.05,1.33,1.33,0,0,1,.44-1,2.18,2.18,0,0,1,1.48-.4h2.91v-12l-2.57.67a3.54,3.54,0,0,1-.93.17,1.26,1.26,0,0,1-1-.43,1.56,1.56,0,0,1-.4-1.07,1.31,1.31,0,0,1,.3-.91,2.68,2.68,0,0,1,1.24-.58Z"/><path class="cls-2" d="M175.43,163.73v3.16a10,10,0,0,1-1.62,5.39,5.18,5.18,0,0,1-4.64,2.57,5.37,5.37,0,0,1-2.95-.77,7.27,7.27,0,0,1-2.28-2.82,9.38,9.38,0,0,1-1.07-4.37v-3.16a10,10,0,0,1,1.62-5.37,5.15,5.15,0,0,1,4.63-2.58,5.35,5.35,0,0,1,2.93.76,7.13,7.13,0,0,1,2.29,2.82A9.16,9.16,0,0,1,175.43,163.73Zm-2.89,0a6.69,6.69,0,0,0-1.31-4.1,2.48,2.48,0,0,0-2.09-1,2.6,2.6,0,0,0-2.14,1.07,6.37,6.37,0,0,0-1.25,4v3.16a6.61,6.61,0,0,0,1.32,4.11,2.49,2.49,0,0,0,2.1,1,2.59,2.59,0,0,0,2.12-1.07,6.38,6.38,0,0,0,1.25-4Z"/><path class="cls-2" d="M187.88,155.78v15.77h2.91a2.17,2.17,0,0,1,1.48.4,1.31,1.31,0,0,1,.45,1,1.34,1.34,0,0,1-.45,1,2.22,2.22,0,0,1-1.48.4h-8.7a2.24,2.24,0,0,1-1.48-.4,1.37,1.37,0,0,1-.44-1.05,1.33,1.33,0,0,1,.44-1,2.18,2.18,0,0,1,1.48-.4H185v-12l-2.57.67a3.54,3.54,0,0,1-.93.17,1.26,1.26,0,0,1-.95-.43,1.56,1.56,0,0,1-.4-1.07,1.31,1.31,0,0,1,.3-.91,2.68,2.68,0,0,1,1.24-.58Z"/><path class="cls-2" d="M210,163.73v3.16a10,10,0,0,1-1.62,5.39,5.19,5.19,0,0,1-4.65,2.57,5.36,5.36,0,0,1-2.94-.77,7.27,7.27,0,0,1-2.28-2.82,9.38,9.38,0,0,1-1.07-4.37v-3.16a10,10,0,0,1,1.61-5.37,5.17,5.17,0,0,1,4.64-2.58,5.35,5.35,0,0,1,2.93.76,7.13,7.13,0,0,1,2.29,2.82A9.16,9.16,0,0,1,210,163.73Zm-2.89,0a6.69,6.69,0,0,0-1.31-4.1,2.48,2.48,0,0,0-2.09-1,2.58,2.58,0,0,0-2.14,1.07,6.37,6.37,0,0,0-1.25,4v3.16a6.61,6.61,0,0,0,1.32,4.11,2.48,2.48,0,0,0,2.09,1,2.59,2.59,0,0,0,2.13-1.07,6.38,6.38,0,0,0,1.25-4Z"/><path class="cls-2" d="M158.16,214.13v3.16a10,10,0,0,1-1.62,5.38,5.18,5.18,0,0,1-4.64,2.57,5.29,5.29,0,0,1-3-.77,7.27,7.27,0,0,1-2.28-2.82,9.37,9.37,0,0,1-1.07-4.36v-3.16a10,10,0,0,1,1.62-5.38,5.15,5.15,0,0,1,4.63-2.58,5.35,5.35,0,0,1,2.93.76,7.28,7.28,0,0,1,2.29,2.82A9.17,9.17,0,0,1,158.16,214.13Zm-2.89,0A6.7,6.7,0,0,0,154,210a2.5,2.5,0,0,0-2.09-1,2.6,2.6,0,0,0-2.14,1.07,6.38,6.38,0,0,0-1.25,4v3.16a6.6,6.6,0,0,0,1.32,4.1,2.47,2.47,0,0,0,2.1,1,2.59,2.59,0,0,0,2.12-1.07,6.35,6.35,0,0,0,1.25-4Z"/><path class="cls-2" d="M170.61,206.17v15.77h2.91a2.17,2.17,0,0,1,1.48.4,1.35,1.35,0,0,1,.45,1,1.32,1.32,0,0,1-.45,1,2.17,2.17,0,0,1-1.48.4h-8.7a2.18,2.18,0,0,1-1.48-.4,1.37,1.37,0,0,1-.44-1,1.34,1.34,0,0,1,.44-1,2.18,2.18,0,0,1,1.48-.4h2.91v-12l-2.57.68a4,4,0,0,1-.93.17,1.27,1.27,0,0,1-.95-.44,1.54,1.54,0,0,1-.4-1.07,1.29,1.29,0,0,1,.3-.9,2.67,2.67,0,0,1,1.24-.59Z"/><path class="cls-2" d="M187.88,206.17v15.77h2.91a2.17,2.17,0,0,1,1.48.4,1.35,1.35,0,0,1,.45,1,1.32,1.32,0,0,1-.45,1,2.17,2.17,0,0,1-1.48.4h-8.7a2.18,2.18,0,0,1-1.48-.4,1.37,1.37,0,0,1-.44-1,1.34,1.34,0,0,1,.44-1,2.18,2.18,0,0,1,1.48-.4H185v-12l-2.57.68a4,4,0,0,1-.93.17,1.27,1.27,0,0,1-.95-.44,1.54,1.54,0,0,1-.4-1.07,1.29,1.29,0,0,1,.3-.9,2.67,2.67,0,0,1,1.24-.59Z"/><path class="cls-2" d="M210,214.13v3.16a10,10,0,0,1-1.62,5.38,5.19,5.19,0,0,1-4.65,2.57,5.28,5.28,0,0,1-2.94-.77,7.27,7.27,0,0,1-2.28-2.82,9.37,9.37,0,0,1-1.07-4.36v-3.16a10,10,0,0,1,1.61-5.38,5.17,5.17,0,0,1,4.64-2.58,5.35,5.35,0,0,1,2.93.76,7.28,7.28,0,0,1,2.29,2.82A9.17,9.17,0,0,1,210,214.13Zm-2.89,0a6.7,6.7,0,0,0-1.31-4.11,2.5,2.5,0,0,0-2.09-1,2.58,2.58,0,0,0-2.14,1.07,6.38,6.38,0,0,0-1.25,4v3.16a6.6,6.6,0,0,0,1.32,4.1,2.45,2.45,0,0,0,2.09,1,2.59,2.59,0,0,0,2.13-1.07,6.35,6.35,0,0,0,1.25-4Z"/><path class="cls-2" d="M158.16,189.07v3.16a9.94,9.94,0,0,1-1.62,5.38,5.18,5.18,0,0,1-4.64,2.57,5.29,5.29,0,0,1-3-.77,7.27,7.27,0,0,1-2.28-2.82,9.37,9.37,0,0,1-1.07-4.36v-3.16a10,10,0,0,1,1.62-5.38,5.15,5.15,0,0,1,4.63-2.58,5.43,5.43,0,0,1,2.93.76,7.28,7.28,0,0,1,2.29,2.82A9.17,9.17,0,0,1,158.16,189.07Zm-2.89,0A6.7,6.7,0,0,0,154,185a2.5,2.5,0,0,0-2.09-1,2.6,2.6,0,0,0-2.14,1.07,6.38,6.38,0,0,0-1.25,4v3.16a6.6,6.6,0,0,0,1.32,4.1,2.47,2.47,0,0,0,2.1,1,2.59,2.59,0,0,0,2.12-1.07,6.35,6.35,0,0,0,1.25-4Z"/><path class="cls-2" d="M170.61,181.11v15.77h2.91a2.17,2.17,0,0,1,1.48.4,1.35,1.35,0,0,1,.45,1.05,1.32,1.32,0,0,1-.45,1,2.17,2.17,0,0,1-1.48.4h-8.7a2.18,2.18,0,0,1-1.48-.4,1.37,1.37,0,0,1-.44-1.05,1.34,1.34,0,0,1,.44-1,2.18,2.18,0,0,1,1.48-.4h2.91v-12l-2.57.68a4,4,0,0,1-.93.17,1.27,1.27,0,0,1-.95-.44,1.54,1.54,0,0,1-.4-1.07,1.29,1.29,0,0,1,.3-.9,2.67,2.67,0,0,1,1.24-.59Z"/><path class="cls-2" d="M192.7,189.07v3.16a9.94,9.94,0,0,1-1.62,5.38,5.18,5.18,0,0,1-4.64,2.57,5.29,5.29,0,0,1-2.95-.77,7.27,7.27,0,0,1-2.28-2.82,9.37,9.37,0,0,1-1.07-4.36v-3.16a10,10,0,0,1,1.62-5.38,5.15,5.15,0,0,1,4.63-2.58,5.43,5.43,0,0,1,2.93.76,7.28,7.28,0,0,1,2.29,2.82A9.17,9.17,0,0,1,192.7,189.07Zm-2.89,0A6.7,6.7,0,0,0,188.5,185a2.5,2.5,0,0,0-2.09-1,2.6,2.6,0,0,0-2.14,1.07,6.38,6.38,0,0,0-1.25,4v3.16a6.6,6.6,0,0,0,1.32,4.1,2.47,2.47,0,0,0,2.1,1,2.59,2.59,0,0,0,2.12-1.07,6.35,6.35,0,0,0,1.25-4Z"/><path class="cls-2" d="M210,189.07v3.16a9.94,9.94,0,0,1-1.62,5.38,5.19,5.19,0,0,1-4.65,2.57,5.28,5.28,0,0,1-2.94-.77,7.27,7.27,0,0,1-2.28-2.82,9.37,9.37,0,0,1-1.07-4.36v-3.16a10,10,0,0,1,1.61-5.38,5.17,5.17,0,0,1,4.64-2.58,5.43,5.43,0,0,1,2.93.76,7.28,7.28,0,0,1,2.29,2.82A9.17,9.17,0,0,1,210,189.07Zm-2.89,0a6.7,6.7,0,0,0-1.31-4.11,2.5,2.5,0,0,0-2.09-1,2.58,2.58,0,0,0-2.14,1.07,6.38,6.38,0,0,0-1.25,4v3.16a6.6,6.6,0,0,0,1.32,4.1,2.45,2.45,0,0,0,2.09,1,2.59,2.59,0,0,0,2.13-1.07,6.35,6.35,0,0,0,1.25-4Z"/></g><path class="cls-3" d="M191.65,376.65s2.78,46.75,2.77,49.05,2.21,55.49,2.21,55.49H177.89"/><polyline class="cls-3" points="234.33 376.65 231.33 428.92 229.35 481.19 246.96 481.19"/><rect class="cls-4" x="124.41" y="251" width="171.26" height="38.29" rx="12"/><ellipse class="cls-5" cx="211.6" cy="379.45" rx="63.04" ry="27.19"/><ellipse class="cls-6" cx="210.96" cy="144.39" rx="75.26" ry="29.88"/><path class="cls-7" d="M135.7,144.39c0,16.51,33.69,29.88,75.26,29.88s75.26-13.37,75.26-29.88c0,0,.44,216.63,0,221.3-1.55,16.43-33.7,29.88-75.26,29.88S135.7,382.2,135.7,365.69Z"/><path class="cls-8" d="M148.56,363.52V161.08a65.5,65.5,0,0,0,7.91,3.93V386.27a64.05,64.05,0,0,1-7.91-3.89Z"/><path class="cls-8" d="M183.34,349.31V172.13c-2.72-.43-5.35-.91-7.91-1.46V392c2.56.55,5.19,1,7.91,1.46Z"/><path class="cls-8" d="M218,391.41V174.27q-3.45.14-7,.13H210V395.7H211q3.54,0,7-.13Z"/><polygon class="cls-8" points="238.96 393.42 238.96 172.16 246.87 170.68 246.87 391.9 238.96 393.42"/><path class="cls-8" d="M266.73,366.93v18.52c2.38-1.13,6.34-3.29,7.91-4.29V160.41a86.12,86.12,0,0,1-7.91,4.05"/><path class="cls-4" d="M133.06,311.17v55c0,16.5,35.19,29.88,78.59,29.88s77-13.45,78.59-29.88c.15-1.53.2-25.89.21-57.93l-.21-37.78c0,16.51-35.18,29.88-78.59,29.88s-78.59-13.37-78.59-29.88Z"/><path class="cls-9" d="M266,164.78c-1.79-37.39-105.83-36.1-109.16.36C184.08,177.35,238.91,177.09,266,164.78Z"/><path class="cls-10" d="M200.7,207a3.82,3.82,0,0,1-1.65-.37l-25.63-12.18a3.84,3.84,0,1,1,3.29-6.94l20.51,9.73.28-4.58a3.85,3.85,0,0,1,7.68.48l-.64,10.26a3.85,3.85,0,0,1-3.84,3.6Z"/><path class="cls-10" d="M224.58,207a3.85,3.85,0,0,1-3.84-3.6l-.64-10.26a3.85,3.85,0,0,1,7.68-.48l.29,4.58,20.5-9.73a3.84,3.84,0,1,1,3.29,6.94l-25.63,12.18A3.79,3.79,0,0,1,224.58,207Z"/><circle class="cls-11" cx="184.8" cy="232.43" r="20.91"/><circle class="cls-11" cx="240.48" cy="232.43" r="20.91"/><circle class="cls-12" cx="184.08" cy="237.17" r="8.12"/><circle class="cls-12" cx="240.8" cy="237.25" r="8.12"/><path class="cls-13" d="M230.26,266.38c-2.49.86-29.84,8-29.84,8"/><path class="cls-14" d="M206.84,415.69l-11.38,5.9-5.37-5-5.26,5c-15.9,0-28.79-11.59-28.79-25.9V331.1c0-14.3,12.89-25.9,28.79-25.9H192l6.95,5.84,8.22-5.84,9,5.55,7.9-5.55,6.32,4.13,6.78-4.13c15.9,0,28.79,11.6,28.79,25.9v64.59c0,14.31-12.89,25.9-28.79,25.9l-8-6.19-8.53,6.19Z"/><path d="M198.62,383.11a4.54,4.54,0,0,0-2.68,1.14,4.08,4.08,0,0,0-1.37,2.65c0,.37-.06.76-.09,1.14a1.32,1.32,0,0,1-.12.52.94.94,0,0,1-1,.58,1,1,0,0,1-.84-.89,1.35,1.35,0,0,1,0-.4,9.31,9.31,0,0,1,.37-2.52,6.28,6.28,0,0,1,2.16-3.17,6.8,6.8,0,0,1,2.5-1.2l.69-.17a1.33,1.33,0,0,0,0-.2,20.58,20.58,0,0,1-.57-2.47,19.13,19.13,0,0,1-.22-2.82v-3.52c0-.64,0-.64-.54-.64h-1.27a5.91,5.91,0,0,0-2.33.5,4.88,4.88,0,0,0-.93.54,4.32,4.32,0,0,0-1.64,3.12c0,.22,0,.45,0,.67a3.78,3.78,0,0,1-.06.47,1,1,0,0,1-.34.61.91.91,0,0,1-1.5-.46,1.43,1.43,0,0,1-.07-.46c0-2.81,1-4.95,3.17-6.27a7.08,7.08,0,0,1,2.76-.94,10,10,0,0,1,1.45-.09c.34,0,.69,0,1,0s.28-.06.29-.3v-6.35c0-.48,0-.95,0-1.42a.18.18,0,0,0-.18-.21h-1.86c-.43,0-.85,0-1.28,0a7.49,7.49,0,0,1-3.56-1,6.23,6.23,0,0,1-1.16-.9,6.64,6.64,0,0,1-1.82-3.6,9.15,9.15,0,0,1-.14-1.74,1.5,1.5,0,0,1,.1-.52,1,1,0,0,1,1-.62,1,1,0,0,1,.84,1,3.26,3.26,0,0,1,0,.54,5.31,5.31,0,0,0,.17,1.26,4,4,0,0,0,1.46,2.28,4.84,4.84,0,0,0,1.58.81,6.07,6.07,0,0,0,1.84.27h2.9a2.06,2.06,0,0,0,.35,0,.23.23,0,0,0,.13-.11c.05-.12.07-.25.11-.38a13.76,13.76,0,0,1,3-5.5,3.2,3.2,0,0,1,.25-.27.62.62,0,0,0,.17-.48,13.65,13.65,0,0,1,.13-1.81,10.19,10.19,0,0,1,3.29-6.16,9.32,9.32,0,0,1,1.33-1,.15.15,0,0,0,0-.22l-.07-.11a7.29,7.29,0,0,1-1.41-3.42,12.29,12.29,0,0,1-.16-2c0-.14,0-.27,0-.41a1.06,1.06,0,0,1,.84-1,1,1,0,0,1,1,.76,3.08,3.08,0,0,1,.08.53c0,.31,0,.63,0,.94a7,7,0,0,0,.35,1.77,3.79,3.79,0,0,0,.51,1.05,2.26,2.26,0,0,0,1.86,1.08h4.23a2.13,2.13,0,0,0,.86-.14,2.72,2.72,0,0,0,1.37-1.29,5.56,5.56,0,0,0,.55-1.76,8.93,8.93,0,0,0,.14-1.55,1.79,1.79,0,0,1,0-.4,1,1,0,0,1,1.18-1,1.11,1.11,0,0,1,.77,1c0,.11,0,.22,0,.34a12.21,12.21,0,0,1-.23,2.34,7,7,0,0,1-1.32,3.1,1.27,1.27,0,0,0-.13.22s0,.05,0,.09l.49.32a9.81,9.81,0,0,1,4,6,10,10,0,0,1,.29,2.33v.51a1.18,1.18,0,0,0,.36.47,13.62,13.62,0,0,1,2.59,4.28c.16.41.28.83.42,1.26q.07.24.15.51a2.4,2.4,0,0,0,.24,0c1.16,0,2.32,0,3.48,0a5.5,5.5,0,0,0,2.41-.65,4.28,4.28,0,0,0,1.11-.84,4.21,4.21,0,0,0,1.06-2.2,6,6,0,0,0,.12-1.28,1.29,1.29,0,0,1,.15-.64.94.94,0,0,1,1.06-.49,1.12,1.12,0,0,1,.75,1,2.44,2.44,0,0,1,0,.27,8.94,8.94,0,0,1-.38,2.52,6.13,6.13,0,0,1-1.92,3,6.78,6.78,0,0,1-2.63,1.37,7.62,7.62,0,0,1-2.12.28h-2.62c-.32,0-.33.06-.33.37s0,.85,0,1.28v6.42a.19.19,0,0,0,.18.21h1.57a7.7,7.7,0,0,1,3,.63,6.15,6.15,0,0,1,2.29,1.66,6.82,6.82,0,0,1,1.53,3.42,7.24,7.24,0,0,1,.11,1.68,1.09,1.09,0,0,1-.56.95,1,1,0,0,1-1.39-.9,3.73,3.73,0,0,1,0-.47,6,6,0,0,0-.21-1.4,4,4,0,0,0-1.3-2.09,5,5,0,0,0-1.85-.95,6.7,6.7,0,0,0-1.78-.24h-1.16l-.29,0a.2.2,0,0,0-.14.19v.54c0,1.19,0,2.38,0,3.58a18.39,18.39,0,0,1-.63,4.85c0,.13-.05.26-.08.39a.45.45,0,0,0,0,.08l.61.18a7,7,0,0,1,2,.83,6.11,6.11,0,0,1,2.46,2.95,8.46,8.46,0,0,1,.57,3.28,1.1,1.1,0,0,1-.79,1.1,1,1,0,0,1-1.1-.74,2.35,2.35,0,0,1-.08-.6,7,7,0,0,0-.12-1.2,4.12,4.12,0,0,0-1.49-2.49,4.47,4.47,0,0,0-1.69-.84h-.12a3,3,0,0,0-1-.23s-.11.05-.14.1a2.74,2.74,0,0,0-.19.34,15.24,15.24,0,0,1-2.42,3.6,12.8,12.8,0,0,1-9.35,4.54,11.47,11.47,0,0,1-3.39-.42,13.58,13.58,0,0,1-6.77-4.34,17,17,0,0,1-2.28-3.39,1.12,1.12,0,0,0-.27-.43A.6.6,0,0,0,198.62,383.11Zm3.32-28.7a8.26,8.26,0,0,0-1.16,1.76,12,12,0,0,0-1.36,5.31v14a13.3,13.3,0,0,0,.28,2.75,14.48,14.48,0,0,0,4.63,8.24,11.22,11.22,0,0,0,4.14,2.35,7.63,7.63,0,0,0,1.47.34c.66.08.66.14.66-.65v-.34c0-5.17,0-10.35-.08-15.53-.05-4.86,0-9.72-.06-14.58,0-.23,0-.45,0-.68a.2.2,0,0,0-.18-.22h-3.94a4.41,4.41,0,0,1-.81-.05,4.91,4.91,0,0,1-3.26-2.36l-.21-.32S202,354.43,201.94,354.41Zm18.91,0-.37.58a4.73,4.73,0,0,1-3.74,2.22h-4c-.25,0-.31.07-.31.36s0,.4,0,.61c0,4.25,0,8.5.06,12.76.06,4.5,0,9,.06,13.5,0,1.44,0,2.88,0,4.32,0,.47,0,.5.44.47a2.71,2.71,0,0,0,.4,0,10.89,10.89,0,0,0,3.47-1.29,12.57,12.57,0,0,0,4.32-4.29,14.78,14.78,0,0,0,2.25-7.94c0-4.62,0-9.23,0-13.85a12.22,12.22,0,0,0-.24-2.34,11.66,11.66,0,0,0-1.88-4.51A2.24,2.24,0,0,0,220.85,354.39Z"/><path d="M181.91,397.17c0,.11,0,.22,0,.33s0,.23,0,.34c0,.41-.26.66-.61.67s-.89,0-1.33,0a10.91,10.91,0,0,1-2.41-.38,6.82,6.82,0,0,1-1.58-.67,6.25,6.25,0,0,1-2.34-2.44,10.78,10.78,0,0,1-1.06-2.91,19.39,19.39,0,0,1-.38-2.52,27.9,27.9,0,0,1-.09-3.17q.09-3.54.19-7.09c0-.65,0-1.3,0-1.95,0-.81,0-1.62.07-2.43a24.64,24.64,0,0,0-.1-3.1,7.54,7.54,0,0,0-.31-1.78c-.06-.2-.11-.39-.18-.57a3.33,3.33,0,0,0-2.24-2.16,4,4,0,0,0-1-.17l-1.16,0a1.4,1.4,0,0,1-.4-.07.61.61,0,0,1-.38-.54,1.82,1.82,0,0,1,0-.33v-3.92a.65.65,0,0,1,.56-.66h.4a8.48,8.48,0,0,0,1.73-.24,4.59,4.59,0,0,0,1-.4,3.39,3.39,0,0,0,1.45-1.68,5,5,0,0,0,.32-1,11.1,11.1,0,0,0,.25-1.73,30.35,30.35,0,0,0,0-3.44c0-.13,0-.27,0-.4q-.09-3.24-.16-6.48c0-1.1-.07-2.21-.1-3.31a28.7,28.7,0,0,1,.13-3.71,17.12,17.12,0,0,1,.67-3.48,11,11,0,0,1,.7-1.7,6.48,6.48,0,0,1,3.21-3.06,8.94,8.94,0,0,1,2-.57,14.22,14.22,0,0,1,2.26-.14,1.31,1.31,0,0,1,.34,0,.53.53,0,0,1,.42.41,1.84,1.84,0,0,1,.06.4,5,5,0,0,0,0,.67c0,.16,0,.31,0,.47V334c0,.16,0,.32,0,.48a.65.65,0,0,1-.61.67c-.21,0-.42,0-.63,0a5.76,5.76,0,0,0-1.82.39,3.51,3.51,0,0,0-1.86,1.92,6.73,6.73,0,0,0-.36,1.07,12.77,12.77,0,0,0-.33,2.46q0,.92,0,1.83c0,1.41.08,2.83.12,4.25.06,2,.11,4,.16,6,0,.11,0,.22,0,.34,0,.47,0,.94,0,1.41s0,.77,0,1.15a18.53,18.53,0,0,1-.38,3.07,10.17,10.17,0,0,1-.63,2,5.69,5.69,0,0,1-1.89,2.41l-.2.14a.74.74,0,0,0,0,1.21l.3.2a5.45,5.45,0,0,1,2.05,2.76,10.75,10.75,0,0,1,.46,1.88,21.71,21.71,0,0,1,.26,2.68c0,1.12.06,2.25,0,3.37-.06,1.29-.08,2.57-.11,3.85q-.09,3.21-.17,6.42c0,.56,0,1.12,0,1.68a13.6,13.6,0,0,0,.34,2.47,7.19,7.19,0,0,0,.47,1.3,3.46,3.46,0,0,0,1.62,1.67,3.81,3.81,0,0,0,1.34.39c.42.05.85.08,1.27.11a.63.63,0,0,1,.58.63c0,.16,0,.32,0,.47v2A3.57,3.57,0,0,0,181.91,397.17Z"/><path d="M241,331.78l0-.68a1.23,1.23,0,0,1,0-.27.64.64,0,0,1,.52-.55h.23a14.14,14.14,0,0,1,2.6.16,7.91,7.91,0,0,1,2.39.79,6.4,6.4,0,0,1,2.6,2.7,10.68,10.68,0,0,1,1,2.86,21.52,21.52,0,0,1,.38,2.79,30.9,30.9,0,0,1,0,3.85c0,.18,0,.36,0,.54l-.15,6.54-.06,2c0,1-.06,1.93,0,2.9a21.36,21.36,0,0,0,.21,2.41A9.06,9.06,0,0,0,251,359a3.41,3.41,0,0,0,2.59,2.5,4.94,4.94,0,0,0,1.27.13h.81a.65.65,0,0,1,.59.63c0,.11,0,.22,0,.34v3.57a2.75,2.75,0,0,1,0,.41.65.65,0,0,1-.52.56,4.43,4.43,0,0,1-.52,0,5.93,5.93,0,0,0-1.77.26l-.17.05a3.66,3.66,0,0,0-2.4,2.77,10,10,0,0,0-.25,1.45,26.69,26.69,0,0,0-.11,3.1v.27l.18,6c0,.56,0,1.12,0,1.68,0,.86,0,1.71.07,2.57a31.12,31.12,0,0,1-.09,4,17.77,17.77,0,0,1-.67,3.62,10.42,10.42,0,0,1-.51,1.35,6.58,6.58,0,0,1-3.51,3.54,8.87,8.87,0,0,1-2.25.58,14.46,14.46,0,0,1-1.85.11h-.24c-.43,0-.66-.29-.68-.81l0-.53c0-.18,0-.36,0-.54v-2a2.68,2.68,0,0,1,0-.4.6.6,0,0,1,.5-.56l.41,0a9.23,9.23,0,0,0,1.66-.24,3.66,3.66,0,0,0,2.52-2.55,8.71,8.71,0,0,0,.33-1.36,16.22,16.22,0,0,0,.22-2.61c0-.74,0-1.49,0-2.23s0-1.26-.06-1.89q-.08-2.92-.16-5.87c0-.11,0-.22,0-.33a32.19,32.19,0,0,1,0-4.05,21.6,21.6,0,0,1,.26-2.27,10.55,10.55,0,0,1,.79-2.67,5.56,5.56,0,0,1,1.83-2.29l.2-.14a.73.73,0,0,0,0-1.17c-.11-.09-.23-.16-.35-.24a5.41,5.41,0,0,1-2-2.69,9.49,9.49,0,0,1-.46-1.74,24,24,0,0,1-.27-2.54c-.08-1.33-.07-2.66,0-4l.06-1.83q.08-3,.16-6.07c0-.2,0-.4,0-.6,0-.81,0-1.62,0-2.43a15.5,15.5,0,0,0-.23-2.55,8.6,8.6,0,0,0-.44-1.6,3.55,3.55,0,0,0-2.31-2.26,5.9,5.9,0,0,0-1.61-.27h-.52a.67.67,0,0,1-.54-.61c0-.13,0-.27,0-.4v-1.83C241,332.13,241,332,241,331.78Z"/><path class="cls-15" d="M201.94,354.41s.09,0,.11,0l.21.32a4.91,4.91,0,0,0,3.26,2.36,4.41,4.41,0,0,0,.81.05h3.94a.2.2,0,0,1,.18.22c0,.23,0,.45,0,.68,0,4.86,0,9.72.06,14.58.06,5.18,0,10.36.08,15.53v.34c0,.79,0,.73-.66.65a7.63,7.63,0,0,1-1.47-.34,11.22,11.22,0,0,1-4.14-2.35,14.48,14.48,0,0,1-4.63-8.24,13.3,13.3,0,0,1-.28-2.75v-14a12,12,0,0,1,1.36-5.31A8.26,8.26,0,0,1,201.94,354.41Z"/><path class="cls-16" d="M220.85,354.39a2.24,2.24,0,0,1,.48.56,11.66,11.66,0,0,1,1.88,4.51,12.22,12.22,0,0,1,.24,2.34c0,4.62,0,9.23,0,13.85a14.78,14.78,0,0,1-2.25,7.94,12.57,12.57,0,0,1-4.32,4.29,10.89,10.89,0,0,1-3.47,1.29,2.71,2.71,0,0,1-.4,0c-.4,0-.43,0-.44-.47,0-1.44,0-2.88,0-4.32,0-4.5,0-9-.06-13.5-.05-4.26,0-8.51-.06-12.76,0-.21,0-.41,0-.61s.06-.35.31-.36h4a4.73,4.73,0,0,0,3.74-2.22Z"/><path class="cls-3" d="M283.34,304.18l11.77,10.12s10.86,7.63-7.18,22.43-31.4,20.67-31.4,20.67"/><polyline class="cls-3" points="265.96 362.65 270.79 347.67 257.93 348.41"/><path class="cls-3" d="M137.78,303.79l-12.41,9.34S114,320,131.09,336s30,22.67,30,22.67"/><polyline class="cls-3" points="155.25 363.52 147.48 348 160.51 350.17"/><g class="cls-1"><path d="M170.93,429.61c-12.09,0-21.93-8.9-21.93-19.84a1.09,1.09,0,0,1,2.18,0c0,9.74,8.86,17.67,19.75,17.67a1.09,1.09,0,1,1,0,2.17Z"/></g><g class="cls-1"><path d="M170.87,439.55c-16.7,0-30.29-12.29-30.29-27.4a1.5,1.5,0,0,1,3,0c0,13.45,12.24,24.4,27.29,24.4a1.5,1.5,0,1,1,0,3Z"/></g><g class="cls-1"><path d="M147.87,324.8c0-12.09,8.9-21.93,19.84-21.93a1.09,1.09,0,1,1,0,2.17c-9.74,0-17.66,8.86-17.66,19.76a1.09,1.09,0,0,1-2.18,0Z"/></g><g class="cls-1"><path d="M137.93,324.73c0-16.7,12.3-30.29,27.41-30.29a1.5,1.5,0,0,1,0,3c-13.46,0-24.41,12.24-24.41,27.29a1.5,1.5,0,0,1-3,0Z"/></g><g class="cls-1"><path d="M252,429.78c12.09,0,21.93-8.9,21.93-19.84a1.09,1.09,0,0,0-2.17,0c0,9.74-8.87,17.67-19.76,17.67a1.09,1.09,0,1,0,0,2.17Z"/></g><g class="cls-1"><path d="M252.05,439.72c16.71,0,30.3-12.29,30.3-27.4a1.5,1.5,0,0,0-3,0c0,13.45-12.25,24.4-27.3,24.4a1.5,1.5,0,1,0,0,3Z"/></g><g class="cls-1"><path d="M275.05,325c0-12.09-8.9-21.93-19.84-21.93a1.09,1.09,0,0,0,0,2.17c9.74,0,17.67,8.87,17.67,19.76a1.09,1.09,0,0,0,2.17,0Z"/></g><g class="cls-1"><path d="M285,324.9c0-16.7-12.29-30.29-27.41-30.29a1.5,1.5,0,0,0,0,3C271,297.61,282,309.86,282,324.9a1.5,1.5,0,0,0,3,0Z"/></g></svg>