<svg id="Layer_1" data-name="Layer 1" xmlns="http://www.w3.org/2000/svg" xmlns:xlink="http://www.w3.org/1999/xlink" viewBox="0 0 432 576"><defs><style>.cls-1{opacity:0.05;}.cls-2{fill:#040d21;}.cls-3{fill:none;stroke:#000;stroke-linecap:round;stroke-linejoin:round;stroke-width:8px;}.cls-4{fill:#2396ec;}.cls-5{fill:#2d313f;}.cls-6{fill:#feaf06;}.cls-7{fill:#fbd82b;}.cls-8{fill:#ffe278;}.cls-9{fill:#b57817;}.cls-10{fill:#701d1d;}.cls-11,.cls-16,.cls-17{fill:#fff;}.cls-12{fill:#f70000;}.cls-13,.cls-14{opacity:0.2;}.cls-13{fill:url(#linear-gradient);}.cls-14{fill:url(#linear-gradient-2);}.cls-15{fill:#0062b2;}.cls-16{opacity:0.6;}.cls-17{opacity:0.7;}.cls-18{fill:#f2f2f2;}.cls-19{fill:#c9c9c9;}.cls-20{fill:#677077;}.cls-21{fill:#b8b8b8;}.cls-22{fill:#858d92;}.cls-23{fill:#ccc;}.cls-24{fill:#ededed;}.cls-25{fill:#d9d9d9;}.cls-26{fill:#b4b4b4;}.cls-27{fill:url(#radial-gradient);}</style><linearGradient id="linear-gradient" x1="238.23" y1="247.84" x2="238.23" y2="199.01" gradientTransform="translate(38.87 -35.28) rotate(9.22)" gradientUnits="userSpaceOnUse"><stop offset="0.36" stop-color="#fff"/><stop offset="0.42" stop-color="#f5f9fc"/><stop offset="0.51" stop-color="#dae8f4"/><stop offset="0.62" stop-color="#aecde6"/><stop offset="0.76" stop-color="#70a7d4"/><stop offset="0.92" stop-color="#2378bd"/><stop offset="0.99" stop-color="#0062b2"/></linearGradient><linearGradient id="linear-gradient-2" x1="179.1" y1="247.84" x2="179.1" y2="199.01" gradientTransform="translate(351.8 -4.98) rotate(75.81)" xlink:href="#linear-gradient"/><radialGradient id="radial-gradient" cx="209.63" cy="178.33" r="39.53" gradientTransform="translate(-121.48 387.96) rotate(-90) scale(1 1.86)" gradientUnits="userSpaceOnUse"><stop offset="0" stop-color="#ff8c1f"/><stop offset="1" stop-color="#feaf06"/></radialGradient></defs><g class="cls-1"><path class="cls-2" d="M221.79,238.81v15.77h2.91a2.17,2.17,0,0,1,1.48.4,1.3,1.3,0,0,1,.44,1,1.32,1.32,0,0,1-.44,1,2.22,2.22,0,0,1-1.48.4H216a2.22,2.22,0,0,1-1.48-.4,1.34,1.34,0,0,1-.44-1.05,1.3,1.3,0,0,1,.44-1,2.17,2.17,0,0,1,1.48-.4h2.91v-12l-2.57.68a4,4,0,0,1-.93.17,1.25,1.25,0,0,1-.95-.44,1.5,1.5,0,0,1-.4-1.07,1.29,1.29,0,0,1,.3-.9,2.62,2.62,0,0,1,1.23-.59Z"/><path class="cls-2" d="M243.88,246.76v3.17a10,10,0,0,1-1.62,5.38,5.2,5.2,0,0,1-4.65,2.57,5.36,5.36,0,0,1-2.94-.77,7.27,7.27,0,0,1-2.28-2.82,9.37,9.37,0,0,1-1.07-4.36v-3.17a10,10,0,0,1,1.61-5.37,5.17,5.17,0,0,1,4.64-2.58,5.35,5.35,0,0,1,2.93.76,7.37,7.37,0,0,1,2.29,2.82A9.16,9.16,0,0,1,243.88,246.76Zm-2.89,0a6.69,6.69,0,0,0-1.31-4.1,2.52,2.52,0,0,0-2.1-1,2.58,2.58,0,0,0-2.13,1.07,6.37,6.37,0,0,0-1.25,4v3.17a6.6,6.6,0,0,0,1.32,4.1,2.45,2.45,0,0,0,2.09,1,2.57,2.57,0,0,0,2.12-1.07,6.31,6.31,0,0,0,1.26-4Z"/><path class="cls-2" d="M256.33,238.81v15.77h2.91a2.17,2.17,0,0,1,1.48.4,1.3,1.3,0,0,1,.44,1,1.32,1.32,0,0,1-.44,1,2.22,2.22,0,0,1-1.48.4h-8.7a2.22,2.22,0,0,1-1.48-.4,1.34,1.34,0,0,1-.44-1.05,1.3,1.3,0,0,1,.44-1,2.17,2.17,0,0,1,1.48-.4h2.91v-12l-2.57.68a4,4,0,0,1-.93.17A1.25,1.25,0,0,1,249,243a1.5,1.5,0,0,1-.4-1.07,1.29,1.29,0,0,1,.3-.9,2.62,2.62,0,0,1,1.23-.59Z"/><path class="cls-2" d="M278.42,246.76v3.17a10,10,0,0,1-1.62,5.38,5.2,5.2,0,0,1-4.65,2.57,5.36,5.36,0,0,1-2.94-.77,7.27,7.27,0,0,1-2.28-2.82,9.25,9.25,0,0,1-1.07-4.36v-3.17a9.94,9.94,0,0,1,1.61-5.37,5.17,5.17,0,0,1,4.64-2.58,5.35,5.35,0,0,1,2.93.76,7.37,7.37,0,0,1,2.29,2.82A9.16,9.16,0,0,1,278.42,246.76Zm-2.9,0a6.69,6.69,0,0,0-1.3-4.1,2.52,2.52,0,0,0-2.1-1,2.58,2.58,0,0,0-2.13,1.07,6.31,6.31,0,0,0-1.25,4v3.17a6.6,6.6,0,0,0,1.32,4.1,2.45,2.45,0,0,0,2.09,1,2.57,2.57,0,0,0,2.12-1.07,6.31,6.31,0,0,0,1.25-4Z"/><path class="cls-2" d="M226.61,297.16v3.16A9.94,9.94,0,0,1,225,305.7a5.18,5.18,0,0,1-4.65,2.57,5.36,5.36,0,0,1-2.94-.76,7.24,7.24,0,0,1-2.28-2.83,9.34,9.34,0,0,1-1.07-4.36v-3.16a10,10,0,0,1,1.61-5.38,5.16,5.16,0,0,1,4.64-2.57,5.43,5.43,0,0,1,2.93.75,7.37,7.37,0,0,1,2.29,2.82A9.17,9.17,0,0,1,226.61,297.16Zm-2.89,0a6.67,6.67,0,0,0-1.31-4.1,2.49,2.49,0,0,0-2.1-1,2.57,2.57,0,0,0-2.13,1.06,6.39,6.39,0,0,0-1.25,4v3.16a6.6,6.6,0,0,0,1.32,4.1,2.45,2.45,0,0,0,2.09,1,2.55,2.55,0,0,0,2.12-1.07,6.29,6.29,0,0,0,1.26-4Z"/><path class="cls-2" d="M239.06,289.21V305H242a2.17,2.17,0,0,1,1.48.4,1.34,1.34,0,0,1,.44,1.05,1.31,1.31,0,0,1-.44,1,2.17,2.17,0,0,1-1.48.4h-8.7a2.17,2.17,0,0,1-1.48-.4,1.33,1.33,0,0,1-.44-1.05,1.31,1.31,0,0,1,.44-1,2.17,2.17,0,0,1,1.48-.4h2.91V293l-2.57.67a4,4,0,0,1-.93.17,1.25,1.25,0,0,1-1-.44,1.49,1.49,0,0,1-.4-1.06,1.3,1.3,0,0,1,.3-.91,2.63,2.63,0,0,1,1.23-.58Z"/><path class="cls-2" d="M256.33,289.21V305h2.91a2.17,2.17,0,0,1,1.48.4,1.34,1.34,0,0,1,.44,1.05,1.31,1.31,0,0,1-.44,1,2.17,2.17,0,0,1-1.48.4h-8.7a2.17,2.17,0,0,1-1.48-.4,1.33,1.33,0,0,1-.44-1.05,1.31,1.31,0,0,1,.44-1,2.17,2.17,0,0,1,1.48-.4h2.91V293l-2.57.67a4,4,0,0,1-.93.17,1.25,1.25,0,0,1-.95-.44,1.49,1.49,0,0,1-.4-1.06,1.3,1.3,0,0,1,.3-.91,2.63,2.63,0,0,1,1.23-.58Z"/><path class="cls-2" d="M278.42,297.16v3.16a9.94,9.94,0,0,1-1.62,5.38,5.18,5.18,0,0,1-4.65,2.57,5.36,5.36,0,0,1-2.94-.76,7.24,7.24,0,0,1-2.28-2.83,9.22,9.22,0,0,1-1.07-4.36v-3.16a10,10,0,0,1,1.61-5.38,5.16,5.16,0,0,1,4.64-2.57A5.43,5.43,0,0,1,275,290a7.37,7.37,0,0,1,2.29,2.82A9.17,9.17,0,0,1,278.42,297.16Zm-2.9,0a6.67,6.67,0,0,0-1.3-4.1,2.49,2.49,0,0,0-2.1-1,2.57,2.57,0,0,0-2.13,1.06,6.33,6.33,0,0,0-1.25,4v3.16a6.6,6.6,0,0,0,1.32,4.1,2.45,2.45,0,0,0,2.09,1,2.55,2.55,0,0,0,2.12-1.07,6.29,6.29,0,0,0,1.25-4Z"/><path class="cls-2" d="M226.61,272.1v3.16a9.94,9.94,0,0,1-1.62,5.38,5.18,5.18,0,0,1-4.65,2.57,5.36,5.36,0,0,1-2.94-.76,7.24,7.24,0,0,1-2.28-2.83,9.34,9.34,0,0,1-1.07-4.36V272.1a10.06,10.06,0,0,1,1.61-5.38,5.16,5.16,0,0,1,4.64-2.57,5.43,5.43,0,0,1,2.93.75,7.37,7.37,0,0,1,2.29,2.82A9.17,9.17,0,0,1,226.61,272.1Zm-2.89,0a6.67,6.67,0,0,0-1.31-4.1,2.49,2.49,0,0,0-2.1-1,2.57,2.57,0,0,0-2.13,1.06,6.39,6.39,0,0,0-1.25,4v3.16a6.6,6.6,0,0,0,1.32,4.1,2.45,2.45,0,0,0,2.09,1,2.55,2.55,0,0,0,2.12-1.07,6.29,6.29,0,0,0,1.26-4Z"/><path class="cls-2" d="M239.06,264.15v15.76H242a2.17,2.17,0,0,1,1.48.4,1.34,1.34,0,0,1,.44,1.05,1.31,1.31,0,0,1-.44,1,2.17,2.17,0,0,1-1.48.4h-8.7a2.17,2.17,0,0,1-1.48-.4,1.33,1.33,0,0,1-.44-1.05,1.31,1.31,0,0,1,.44-1,2.17,2.17,0,0,1,1.48-.4h2.91v-12l-2.57.67a4,4,0,0,1-.93.17,1.25,1.25,0,0,1-1-.44,1.49,1.49,0,0,1-.4-1.06,1.3,1.3,0,0,1,.3-.91,2.63,2.63,0,0,1,1.23-.58Z"/><path class="cls-2" d="M261.15,272.1v3.16a9.94,9.94,0,0,1-1.62,5.38,5.18,5.18,0,0,1-4.65,2.57,5.36,5.36,0,0,1-2.94-.76,7.24,7.24,0,0,1-2.28-2.83,9.34,9.34,0,0,1-1.07-4.36V272.1a10.06,10.06,0,0,1,1.61-5.38,5.16,5.16,0,0,1,4.64-2.57,5.43,5.43,0,0,1,2.93.75,7.37,7.37,0,0,1,2.29,2.82A9.17,9.17,0,0,1,261.15,272.1Zm-2.89,0A6.67,6.67,0,0,0,257,268a2.49,2.49,0,0,0-2.1-1,2.57,2.57,0,0,0-2.13,1.06,6.39,6.39,0,0,0-1.25,4v3.16a6.6,6.6,0,0,0,1.32,4.1,2.45,2.45,0,0,0,2.09,1,2.55,2.55,0,0,0,2.12-1.07,6.29,6.29,0,0,0,1.26-4Z"/><path class="cls-2" d="M278.42,272.1v3.16a9.94,9.94,0,0,1-1.62,5.38,5.18,5.18,0,0,1-4.65,2.57,5.36,5.36,0,0,1-2.94-.76,7.24,7.24,0,0,1-2.28-2.83,9.22,9.22,0,0,1-1.07-4.36V272.1a10,10,0,0,1,1.61-5.38,5.16,5.16,0,0,1,4.64-2.57,5.43,5.43,0,0,1,2.93.75,7.37,7.37,0,0,1,2.29,2.82A9.17,9.17,0,0,1,278.42,272.1Zm-2.9,0a6.67,6.67,0,0,0-1.3-4.1,2.49,2.49,0,0,0-2.1-1,2.57,2.57,0,0,0-2.13,1.06,6.33,6.33,0,0,0-1.25,4v3.16a6.6,6.6,0,0,0,1.32,4.1,2.45,2.45,0,0,0,2.09,1,2.55,2.55,0,0,0,2.12-1.07,6.29,6.29,0,0,0,1.25-4Z"/><path class="cls-2" d="M292.2,238.81v15.77h2.91a2.2,2.2,0,0,1,1.49.4,1.34,1.34,0,0,1,.44,1,1.35,1.35,0,0,1-.44,1,2.25,2.25,0,0,1-1.49.4h-8.69a2.25,2.25,0,0,1-1.49-.4,1.37,1.37,0,0,1-.44-1.05,1.33,1.33,0,0,1,.44-1,2.2,2.2,0,0,1,1.49-.4h2.9v-12l-2.57.68a4,4,0,0,1-.92.17,1.24,1.24,0,0,1-.95-.44,1.5,1.5,0,0,1-.4-1.07,1.33,1.33,0,0,1,.29-.9,2.67,2.67,0,0,1,1.24-.59Z"/><path class="cls-2" d="M314.29,246.76v3.17a10,10,0,0,1-1.62,5.38,5.18,5.18,0,0,1-4.64,2.57,5.42,5.42,0,0,1-2.95-.77,7.17,7.17,0,0,1-2.27-2.82,9.26,9.26,0,0,1-1.08-4.36v-3.17a10,10,0,0,1,1.62-5.37,5.16,5.16,0,0,1,4.64-2.58,5.37,5.37,0,0,1,2.93.76,7.37,7.37,0,0,1,2.29,2.82A9.27,9.27,0,0,1,314.29,246.76Zm-2.89,0a6.69,6.69,0,0,0-1.31-4.1,2.49,2.49,0,0,0-2.09-1,2.61,2.61,0,0,0-2.14,1.07,6.37,6.37,0,0,0-1.25,4v3.17a6.6,6.6,0,0,0,1.32,4.1,2.47,2.47,0,0,0,2.1,1,2.57,2.57,0,0,0,2.12-1.07,6.37,6.37,0,0,0,1.25-4Z"/><path class="cls-2" d="M326.74,238.81v15.77h2.91a2.2,2.2,0,0,1,1.49.4,1.34,1.34,0,0,1,.44,1,1.35,1.35,0,0,1-.44,1,2.25,2.25,0,0,1-1.49.4H321a2.25,2.25,0,0,1-1.49-.4A1.37,1.37,0,0,1,319,256a1.33,1.33,0,0,1,.44-1,2.2,2.2,0,0,1,1.49-.4h2.9v-12l-2.57.68a4,4,0,0,1-.92.17,1.24,1.24,0,0,1-.95-.44,1.5,1.5,0,0,1-.4-1.07,1.33,1.33,0,0,1,.29-.9,2.67,2.67,0,0,1,1.24-.59Z"/><path class="cls-2" d="M348.83,246.76v3.17a10,10,0,0,1-1.62,5.38,5.18,5.18,0,0,1-4.64,2.57,5.4,5.4,0,0,1-2.95-.77,7.17,7.17,0,0,1-2.27-2.82,9.26,9.26,0,0,1-1.08-4.36v-3.17a10,10,0,0,1,1.62-5.37,5.15,5.15,0,0,1,4.63-2.58,5.32,5.32,0,0,1,2.93.76,7.38,7.38,0,0,1,2.3,2.82A9.27,9.27,0,0,1,348.83,246.76Zm-2.89,0a6.69,6.69,0,0,0-1.31-4.1,2.49,2.49,0,0,0-2.09-1,2.6,2.6,0,0,0-2.14,1.07,6.37,6.37,0,0,0-1.25,4v3.17a6.6,6.6,0,0,0,1.32,4.1,2.47,2.47,0,0,0,2.1,1,2.57,2.57,0,0,0,2.12-1.07,6.37,6.37,0,0,0,1.25-4Z"/><path class="cls-2" d="M297,297.16v3.16a9.94,9.94,0,0,1-1.62,5.38,5.16,5.16,0,0,1-4.64,2.57,5.42,5.42,0,0,1-2.95-.76,7.14,7.14,0,0,1-2.27-2.83,9.23,9.23,0,0,1-1.08-4.36v-3.16a10,10,0,0,1,1.62-5.38,5.15,5.15,0,0,1,4.64-2.57,5.45,5.45,0,0,1,2.93.75,7.37,7.37,0,0,1,2.29,2.82A9.28,9.28,0,0,1,297,297.16Zm-2.89,0a6.67,6.67,0,0,0-1.31-4.1,2.46,2.46,0,0,0-2.09-1,2.6,2.6,0,0,0-2.14,1.06,6.39,6.39,0,0,0-1.25,4v3.16a6.6,6.6,0,0,0,1.32,4.1,2.47,2.47,0,0,0,2.1,1,2.55,2.55,0,0,0,2.12-1.07,6.35,6.35,0,0,0,1.25-4Z"/><path class="cls-2" d="M309.47,289.21V305h2.91a2.2,2.2,0,0,1,1.49.4,1.37,1.37,0,0,1,.44,1.05,1.34,1.34,0,0,1-.44,1,2.2,2.2,0,0,1-1.49.4h-8.69a2.2,2.2,0,0,1-1.49-.4,1.45,1.45,0,0,1,0-2.08,2.2,2.2,0,0,1,1.49-.4h2.9V293l-2.57.67a4,4,0,0,1-.92.17,1.24,1.24,0,0,1-1-.44,1.49,1.49,0,0,1-.4-1.06,1.34,1.34,0,0,1,.29-.91,2.68,2.68,0,0,1,1.24-.58Z"/><path class="cls-2" d="M326.74,289.21V305h2.91a2.2,2.2,0,0,1,1.49.4,1.37,1.37,0,0,1,.44,1.05,1.34,1.34,0,0,1-.44,1,2.2,2.2,0,0,1-1.49.4H321a2.2,2.2,0,0,1-1.49-.4,1.45,1.45,0,0,1,0-2.08A2.2,2.2,0,0,1,321,305h2.9V293l-2.57.67a4,4,0,0,1-.92.17,1.24,1.24,0,0,1-.95-.44,1.49,1.49,0,0,1-.4-1.06,1.34,1.34,0,0,1,.29-.91,2.68,2.68,0,0,1,1.24-.58Z"/><path class="cls-2" d="M348.83,297.16v3.16a9.94,9.94,0,0,1-1.62,5.38,5.16,5.16,0,0,1-4.64,2.57,5.39,5.39,0,0,1-2.95-.76,7.14,7.14,0,0,1-2.27-2.83,9.23,9.23,0,0,1-1.08-4.36v-3.16a10,10,0,0,1,1.62-5.38,5.14,5.14,0,0,1,4.63-2.57,5.41,5.41,0,0,1,2.93.75,7.38,7.38,0,0,1,2.3,2.82A9.28,9.28,0,0,1,348.83,297.16Zm-2.89,0a6.67,6.67,0,0,0-1.31-4.1,2.46,2.46,0,0,0-2.09-1,2.59,2.59,0,0,0-2.14,1.06,6.39,6.39,0,0,0-1.25,4v3.16a6.6,6.6,0,0,0,1.32,4.1,2.47,2.47,0,0,0,2.1,1,2.55,2.55,0,0,0,2.12-1.07,6.35,6.35,0,0,0,1.25-4Z"/><path class="cls-2" d="M297,272.1v3.16a9.94,9.94,0,0,1-1.62,5.38,5.16,5.16,0,0,1-4.64,2.57,5.42,5.42,0,0,1-2.95-.76,7.14,7.14,0,0,1-2.27-2.83,9.23,9.23,0,0,1-1.08-4.36V272.1a10,10,0,0,1,1.62-5.38,5.15,5.15,0,0,1,4.64-2.57,5.45,5.45,0,0,1,2.93.75,7.37,7.37,0,0,1,2.29,2.82A9.28,9.28,0,0,1,297,272.1Zm-2.89,0a6.67,6.67,0,0,0-1.31-4.1,2.46,2.46,0,0,0-2.09-1,2.6,2.6,0,0,0-2.14,1.06,6.39,6.39,0,0,0-1.25,4v3.16a6.6,6.6,0,0,0,1.32,4.1,2.47,2.47,0,0,0,2.1,1,2.55,2.55,0,0,0,2.12-1.07,6.35,6.35,0,0,0,1.25-4Z"/><path class="cls-2" d="M309.47,264.15v15.76h2.91a2.2,2.2,0,0,1,1.49.4,1.37,1.37,0,0,1,.44,1.05,1.34,1.34,0,0,1-.44,1,2.2,2.2,0,0,1-1.49.4h-8.69a2.2,2.2,0,0,1-1.49-.4,1.45,1.45,0,0,1,0-2.08,2.2,2.2,0,0,1,1.49-.4h2.9v-12l-2.57.67a4,4,0,0,1-.92.17,1.24,1.24,0,0,1-1-.44,1.49,1.49,0,0,1-.4-1.06,1.34,1.34,0,0,1,.29-.91,2.68,2.68,0,0,1,1.24-.58Z"/><path class="cls-2" d="M331.56,272.1v3.16a9.94,9.94,0,0,1-1.62,5.38,5.16,5.16,0,0,1-4.64,2.57,5.42,5.42,0,0,1-2.95-.76,7.14,7.14,0,0,1-2.27-2.83,9.23,9.23,0,0,1-1.08-4.36V272.1a10,10,0,0,1,1.62-5.38,5.15,5.15,0,0,1,4.64-2.57,5.45,5.45,0,0,1,2.93.75,7.37,7.37,0,0,1,2.29,2.82A9.28,9.28,0,0,1,331.56,272.1Zm-2.89,0a6.67,6.67,0,0,0-1.31-4.1,2.46,2.46,0,0,0-2.09-1,2.6,2.6,0,0,0-2.14,1.06,6.39,6.39,0,0,0-1.25,4v3.16a6.6,6.6,0,0,0,1.32,4.1,2.47,2.47,0,0,0,2.1,1,2.55,2.55,0,0,0,2.12-1.07,6.35,6.35,0,0,0,1.25-4Z"/><path class="cls-2" d="M348.83,272.1v3.16a9.94,9.94,0,0,1-1.62,5.38,5.16,5.16,0,0,1-4.64,2.57,5.39,5.39,0,0,1-2.95-.76,7.14,7.14,0,0,1-2.27-2.83,9.23,9.23,0,0,1-1.08-4.36V272.1a10,10,0,0,1,1.62-5.38,5.14,5.14,0,0,1,4.63-2.57,5.41,5.41,0,0,1,2.93.75,7.38,7.38,0,0,1,2.3,2.82A9.28,9.28,0,0,1,348.83,272.1Zm-2.89,0a6.67,6.67,0,0,0-1.31-4.1,2.46,2.46,0,0,0-2.09-1,2.59,2.59,0,0,0-2.14,1.06,6.39,6.39,0,0,0-1.25,4v3.16a6.6,6.6,0,0,0,1.32,4.1,2.47,2.47,0,0,0,2.1,1,2.55,2.55,0,0,0,2.12-1.07,6.35,6.35,0,0,0,1.25-4Z"/><path class="cls-2" d="M221.8,162.6v15.77h2.91a2.2,2.2,0,0,1,1.49.4,1.37,1.37,0,0,1,.44,1,1.34,1.34,0,0,1-.44,1,2.2,2.2,0,0,1-1.49.4H216a2.18,2.18,0,0,1-1.48-.4,1.37,1.37,0,0,1-.44-1,1.34,1.34,0,0,1,.44-1,2.18,2.18,0,0,1,1.48-.4h2.91v-12l-2.57.67a4,4,0,0,1-.93.17,1.23,1.23,0,0,1-.94-.44,1.49,1.49,0,0,1-.4-1.06,1.29,1.29,0,0,1,.29-.91,2.67,2.67,0,0,1,1.24-.59Z"/><path class="cls-2" d="M243.89,170.56v3.16a9.94,9.94,0,0,1-1.62,5.38,5.18,5.18,0,0,1-4.64,2.57,5.39,5.39,0,0,1-2.95-.76,7.21,7.21,0,0,1-2.27-2.83,9.26,9.26,0,0,1-1.08-4.36v-3.16a10,10,0,0,1,1.62-5.38,5.15,5.15,0,0,1,4.63-2.58,5.41,5.41,0,0,1,2.93.76,7.38,7.38,0,0,1,2.3,2.82A9.28,9.28,0,0,1,243.89,170.56Zm-2.89,0a6.7,6.7,0,0,0-1.31-4.11,2.49,2.49,0,0,0-2.09-1,2.6,2.6,0,0,0-2.14,1.07,6.38,6.38,0,0,0-1.25,4v3.16a6.6,6.6,0,0,0,1.32,4.1,2.47,2.47,0,0,0,2.1,1,2.55,2.55,0,0,0,2.12-1.07,6.35,6.35,0,0,0,1.25-4Z"/><path class="cls-2" d="M256.34,162.6v15.77h2.91a2.2,2.2,0,0,1,1.49.4,1.37,1.37,0,0,1,.44,1,1.34,1.34,0,0,1-.44,1,2.2,2.2,0,0,1-1.49.4h-8.7a2.18,2.18,0,0,1-1.48-.4,1.37,1.37,0,0,1-.44-1,1.34,1.34,0,0,1,.44-1,2.18,2.18,0,0,1,1.48-.4h2.91v-12l-2.57.67a4,4,0,0,1-.93.17,1.23,1.23,0,0,1-.94-.44,1.49,1.49,0,0,1-.4-1.06,1.29,1.29,0,0,1,.29-.91,2.67,2.67,0,0,1,1.24-.59Z"/><path class="cls-2" d="M278.43,170.56v3.16a9.94,9.94,0,0,1-1.62,5.38,5.18,5.18,0,0,1-4.64,2.57,5.37,5.37,0,0,1-2.95-.76,7.31,7.31,0,0,1-2.28-2.83,9.37,9.37,0,0,1-1.07-4.36v-3.16a10,10,0,0,1,1.62-5.38,5.15,5.15,0,0,1,4.63-2.58,5.41,5.41,0,0,1,2.93.76,7.28,7.28,0,0,1,2.29,2.82A9.17,9.17,0,0,1,278.43,170.56Zm-2.89,0a6.7,6.7,0,0,0-1.31-4.11,2.5,2.5,0,0,0-2.09-1,2.6,2.6,0,0,0-2.14,1.07,6.38,6.38,0,0,0-1.25,4v3.16a6.6,6.6,0,0,0,1.32,4.1,2.47,2.47,0,0,0,2.1,1,2.56,2.56,0,0,0,2.12-1.07,6.35,6.35,0,0,0,1.25-4Z"/><path class="cls-2" d="M226.62,221v3.16a9.91,9.91,0,0,1-1.62,5.38,5.17,5.17,0,0,1-4.64,2.58,5.37,5.37,0,0,1-3-.77,7.14,7.14,0,0,1-2.27-2.83,9.23,9.23,0,0,1-1.08-4.36V221a9.93,9.93,0,0,1,1.62-5.37,5.15,5.15,0,0,1,4.63-2.58,5.32,5.32,0,0,1,2.93.76,7.26,7.26,0,0,1,2.3,2.81A9.31,9.31,0,0,1,226.62,221Zm-2.89,0a6.69,6.69,0,0,0-1.31-4.1,2.46,2.46,0,0,0-2.09-1,2.57,2.57,0,0,0-2.14,1.07,6.35,6.35,0,0,0-1.25,4v3.16a6.58,6.58,0,0,0,1.32,4.1,2.48,2.48,0,0,0,2.1,1,2.57,2.57,0,0,0,2.12-1.07,6.38,6.38,0,0,0,1.25-4Z"/><path class="cls-2" d="M239.07,213v15.76H242a2.25,2.25,0,0,1,1.49.4,1.37,1.37,0,0,1,.44,1.05,1.33,1.33,0,0,1-.44,1,2.2,2.2,0,0,1-1.49.4h-8.7a2.18,2.18,0,0,1-1.48-.4,1.34,1.34,0,0,1-.44-1,1.35,1.35,0,0,1,.44-1,2.24,2.24,0,0,1,1.48-.4h2.91v-12l-2.57.67a3.54,3.54,0,0,1-.93.17,1.22,1.22,0,0,1-.94-.43,1.51,1.51,0,0,1-.4-1.07,1.29,1.29,0,0,1,.29-.91,2.68,2.68,0,0,1,1.24-.58Z"/><path class="cls-2" d="M256.34,213v15.76h2.91a2.25,2.25,0,0,1,1.49.4,1.37,1.37,0,0,1,.44,1.05,1.33,1.33,0,0,1-.44,1,2.2,2.2,0,0,1-1.49.4h-8.7a2.18,2.18,0,0,1-1.48-.4,1.34,1.34,0,0,1-.44-1,1.35,1.35,0,0,1,.44-1,2.24,2.24,0,0,1,1.48-.4h2.91v-12l-2.57.67a3.54,3.54,0,0,1-.93.17,1.22,1.22,0,0,1-.94-.43,1.51,1.51,0,0,1-.4-1.07,1.29,1.29,0,0,1,.29-.91,2.68,2.68,0,0,1,1.24-.58Z"/><path class="cls-2" d="M278.43,221v3.16a9.91,9.91,0,0,1-1.62,5.38,5.17,5.17,0,0,1-4.64,2.58,5.37,5.37,0,0,1-2.95-.77,7.24,7.24,0,0,1-2.28-2.83,9.34,9.34,0,0,1-1.07-4.36V221a9.93,9.93,0,0,1,1.62-5.37,5.15,5.15,0,0,1,4.63-2.58,5.32,5.32,0,0,1,2.93.76,7.16,7.16,0,0,1,2.29,2.81A9.2,9.2,0,0,1,278.43,221Zm-2.89,0a6.69,6.69,0,0,0-1.31-4.1,2.48,2.48,0,0,0-2.09-1A2.57,2.57,0,0,0,270,217a6.35,6.35,0,0,0-1.25,4v3.16a6.58,6.58,0,0,0,1.32,4.1,2.48,2.48,0,0,0,2.1,1,2.59,2.59,0,0,0,2.12-1.07,6.38,6.38,0,0,0,1.25-4Z"/><path class="cls-2" d="M226.62,195.89v3.16a9.91,9.91,0,0,1-1.62,5.38,5.17,5.17,0,0,1-4.64,2.58,5.37,5.37,0,0,1-3-.77,7.17,7.17,0,0,1-2.27-2.82,9.3,9.3,0,0,1-1.08-4.37v-3.16a9.93,9.93,0,0,1,1.62-5.37,5.15,5.15,0,0,1,4.63-2.58,5.32,5.32,0,0,1,2.93.76,7.26,7.26,0,0,1,2.3,2.81A9.31,9.31,0,0,1,226.62,195.89Zm-2.89,0a6.69,6.69,0,0,0-1.31-4.1,2.46,2.46,0,0,0-2.09-1,2.57,2.57,0,0,0-2.14,1.07,6.35,6.35,0,0,0-1.25,4v3.16a6.63,6.63,0,0,0,1.32,4.11,2.49,2.49,0,0,0,2.1,1,2.57,2.57,0,0,0,2.12-1.07,6.38,6.38,0,0,0,1.25-4Z"/><path class="cls-2" d="M239.07,187.94V203.7H242a2.25,2.25,0,0,1,1.49.4,1.37,1.37,0,0,1,.44,1.05,1.33,1.33,0,0,1-.44,1,2.2,2.2,0,0,1-1.49.4h-8.7a2.18,2.18,0,0,1-1.48-.4,1.34,1.34,0,0,1-.44-1,1.37,1.37,0,0,1,.44-1,2.24,2.24,0,0,1,1.48-.4h2.91v-12l-2.57.67a3.54,3.54,0,0,1-.93.17,1.22,1.22,0,0,1-.94-.43,1.51,1.51,0,0,1-.4-1.07,1.29,1.29,0,0,1,.29-.91,2.68,2.68,0,0,1,1.24-.58Z"/><path class="cls-2" d="M261.16,195.89v3.16a9.91,9.91,0,0,1-1.62,5.38A5.17,5.17,0,0,1,254.9,207a5.4,5.4,0,0,1-3-.77,7.17,7.17,0,0,1-2.27-2.82,9.3,9.3,0,0,1-1.08-4.37v-3.16a9.93,9.93,0,0,1,1.62-5.37,5.15,5.15,0,0,1,4.63-2.58,5.32,5.32,0,0,1,2.93.76,7.26,7.26,0,0,1,2.3,2.81A9.31,9.31,0,0,1,261.16,195.89Zm-2.89,0a6.69,6.69,0,0,0-1.31-4.1,2.46,2.46,0,0,0-2.09-1,2.57,2.57,0,0,0-2.14,1.07,6.35,6.35,0,0,0-1.25,4v3.16a6.63,6.63,0,0,0,1.32,4.11,2.49,2.49,0,0,0,2.1,1,2.57,2.57,0,0,0,2.12-1.07,6.38,6.38,0,0,0,1.25-4Z"/><path class="cls-2" d="M278.43,195.89v3.16a9.91,9.91,0,0,1-1.62,5.38,5.17,5.17,0,0,1-4.64,2.58,5.37,5.37,0,0,1-2.95-.77,7.27,7.27,0,0,1-2.28-2.82,9.41,9.41,0,0,1-1.07-4.37v-3.16a9.93,9.93,0,0,1,1.62-5.37,5.15,5.15,0,0,1,4.63-2.58,5.32,5.32,0,0,1,2.93.76,7.16,7.16,0,0,1,2.29,2.81A9.2,9.2,0,0,1,278.43,195.89Zm-2.89,0a6.69,6.69,0,0,0-1.31-4.1,2.48,2.48,0,0,0-2.09-1,2.57,2.57,0,0,0-2.14,1.07,6.35,6.35,0,0,0-1.25,4v3.16a6.63,6.63,0,0,0,1.32,4.11,2.49,2.49,0,0,0,2.1,1,2.59,2.59,0,0,0,2.12-1.07,6.38,6.38,0,0,0,1.25-4Z"/><path class="cls-2" d="M292.22,162.6v15.77h2.91a2.18,2.18,0,0,1,1.48.4,1.34,1.34,0,0,1,.44,1,1.31,1.31,0,0,1-.44,1,2.18,2.18,0,0,1-1.48.4h-8.7a2.17,2.17,0,0,1-1.48-.4,1.35,1.35,0,0,1-.45-1,1.32,1.32,0,0,1,.45-1,2.17,2.17,0,0,1,1.48-.4h2.91v-12l-2.57.67a4.11,4.11,0,0,1-.93.17,1.25,1.25,0,0,1-.95-.44,1.49,1.49,0,0,1-.4-1.06,1.34,1.34,0,0,1,.29-.91,2.67,2.67,0,0,1,1.24-.59Z"/><path class="cls-2" d="M314.31,170.56v3.16a9.94,9.94,0,0,1-1.62,5.38,5.2,5.2,0,0,1-4.65,2.57,5.36,5.36,0,0,1-2.94-.76,7.31,7.31,0,0,1-2.28-2.83,9.25,9.25,0,0,1-1.07-4.36v-3.16a10,10,0,0,1,1.61-5.38A5.17,5.17,0,0,1,308,162.6a5.43,5.43,0,0,1,2.93.76,7.37,7.37,0,0,1,2.29,2.82A9.17,9.17,0,0,1,314.31,170.56Zm-2.9,0a6.69,6.69,0,0,0-1.3-4.11,2.52,2.52,0,0,0-2.1-1,2.58,2.58,0,0,0-2.13,1.07,6.32,6.32,0,0,0-1.25,4v3.16a6.6,6.6,0,0,0,1.32,4.1,2.44,2.44,0,0,0,2.09,1,2.55,2.55,0,0,0,2.12-1.07,6.29,6.29,0,0,0,1.25-4Z"/><path class="cls-2" d="M326.76,162.6v15.77h2.91a2.17,2.17,0,0,1,1.48.4,1.34,1.34,0,0,1,.44,1,1.31,1.31,0,0,1-.44,1,2.17,2.17,0,0,1-1.48.4H321a2.17,2.17,0,0,1-1.48-.4,1.35,1.35,0,0,1-.45-1,1.32,1.32,0,0,1,.45-1,2.17,2.17,0,0,1,1.48-.4h2.91v-12l-2.57.67a4.11,4.11,0,0,1-.93.17,1.25,1.25,0,0,1-.95-.44,1.49,1.49,0,0,1-.4-1.06,1.34,1.34,0,0,1,.29-.91,2.67,2.67,0,0,1,1.24-.59Z"/><path class="cls-2" d="M348.85,170.56v3.16a9.87,9.87,0,0,1-1.63,5.38,5.18,5.18,0,0,1-4.64,2.57,5.36,5.36,0,0,1-2.94-.76,7.31,7.31,0,0,1-2.28-2.83,9.25,9.25,0,0,1-1.07-4.36v-3.16a10,10,0,0,1,1.61-5.38,5.16,5.16,0,0,1,4.64-2.58,5.43,5.43,0,0,1,2.93.76,7.37,7.37,0,0,1,2.29,2.82A9.29,9.29,0,0,1,348.85,170.56Zm-2.9,0a6.69,6.69,0,0,0-1.3-4.11,2.52,2.52,0,0,0-2.1-1,2.58,2.58,0,0,0-2.13,1.07,6.32,6.32,0,0,0-1.25,4v3.16a6.6,6.6,0,0,0,1.32,4.1,2.44,2.44,0,0,0,2.09,1,2.55,2.55,0,0,0,2.12-1.07,6.29,6.29,0,0,0,1.25-4Z"/><path class="cls-2" d="M297,221v3.16a9.91,9.91,0,0,1-1.62,5.38,5.19,5.19,0,0,1-4.65,2.58,5.36,5.36,0,0,1-2.94-.77,7.24,7.24,0,0,1-2.28-2.83,9.22,9.22,0,0,1-1.07-4.36V221a9.92,9.92,0,0,1,1.61-5.37,5.17,5.17,0,0,1,4.64-2.58,5.35,5.35,0,0,1,2.93.76,7.25,7.25,0,0,1,2.29,2.81A9.2,9.2,0,0,1,297,221Zm-2.9,0a6.69,6.69,0,0,0-1.3-4.1,2.49,2.49,0,0,0-2.1-1,2.55,2.55,0,0,0-2.13,1.07,6.29,6.29,0,0,0-1.25,4v3.16a6.58,6.58,0,0,0,1.32,4.1,2.45,2.45,0,0,0,2.09,1,2.57,2.57,0,0,0,2.12-1.07,6.32,6.32,0,0,0,1.25-4Z"/><path class="cls-2" d="M309.49,213v15.76h2.91a2.22,2.22,0,0,1,1.48.4,1.34,1.34,0,0,1,.44,1.05,1.3,1.3,0,0,1-.44,1,2.17,2.17,0,0,1-1.48.4h-8.7a2.17,2.17,0,0,1-1.48-.4,1.31,1.31,0,0,1-.45-1,1.33,1.33,0,0,1,.45-1,2.22,2.22,0,0,1,1.48-.4h2.91v-12l-2.57.67a3.61,3.61,0,0,1-.93.17,1.24,1.24,0,0,1-.95-.43,1.51,1.51,0,0,1-.4-1.07,1.34,1.34,0,0,1,.29-.91,2.68,2.68,0,0,1,1.24-.58Z"/><path class="cls-2" d="M326.76,213v15.76h2.91a2.22,2.22,0,0,1,1.48.4,1.34,1.34,0,0,1,.44,1.05,1.3,1.3,0,0,1-.44,1,2.17,2.17,0,0,1-1.48.4H321a2.17,2.17,0,0,1-1.48-.4,1.31,1.31,0,0,1-.45-1,1.33,1.33,0,0,1,.45-1,2.22,2.22,0,0,1,1.48-.4h2.91v-12l-2.57.67a3.61,3.61,0,0,1-.93.17,1.24,1.24,0,0,1-.95-.43,1.51,1.51,0,0,1-.4-1.07,1.34,1.34,0,0,1,.29-.91,2.68,2.68,0,0,1,1.24-.58Z"/><path class="cls-2" d="M348.85,221v3.16a9.84,9.84,0,0,1-1.63,5.38,5.17,5.17,0,0,1-4.64,2.58,5.36,5.36,0,0,1-2.94-.77,7.24,7.24,0,0,1-2.28-2.83,9.22,9.22,0,0,1-1.07-4.36V221a9.92,9.92,0,0,1,1.61-5.37,5.16,5.16,0,0,1,4.64-2.58,5.35,5.35,0,0,1,2.93.76,7.25,7.25,0,0,1,2.29,2.81A9.32,9.32,0,0,1,348.85,221Zm-2.9,0a6.69,6.69,0,0,0-1.3-4.1,2.49,2.49,0,0,0-2.1-1,2.55,2.55,0,0,0-2.13,1.07,6.29,6.29,0,0,0-1.25,4v3.16a6.58,6.58,0,0,0,1.32,4.1,2.45,2.45,0,0,0,2.09,1,2.57,2.57,0,0,0,2.12-1.07,6.32,6.32,0,0,0,1.25-4Z"/><path class="cls-2" d="M297,195.89v3.16a9.91,9.91,0,0,1-1.62,5.38,5.19,5.19,0,0,1-4.65,2.58,5.36,5.36,0,0,1-2.94-.77,7.27,7.27,0,0,1-2.28-2.82,9.29,9.29,0,0,1-1.07-4.37v-3.16a9.92,9.92,0,0,1,1.61-5.37,5.17,5.17,0,0,1,4.64-2.58,5.35,5.35,0,0,1,2.93.76,7.25,7.25,0,0,1,2.29,2.81A9.2,9.2,0,0,1,297,195.89Zm-2.9,0a6.69,6.69,0,0,0-1.3-4.1,2.49,2.49,0,0,0-2.1-1,2.55,2.55,0,0,0-2.13,1.07,6.29,6.29,0,0,0-1.25,4v3.16a6.63,6.63,0,0,0,1.32,4.11,2.46,2.46,0,0,0,2.09,1,2.57,2.57,0,0,0,2.12-1.07,6.32,6.32,0,0,0,1.25-4Z"/><path class="cls-2" d="M309.49,187.94V203.7h2.91a2.22,2.22,0,0,1,1.48.4,1.34,1.34,0,0,1,.44,1.05,1.3,1.3,0,0,1-.44,1,2.17,2.17,0,0,1-1.48.4h-8.7a2.17,2.17,0,0,1-1.48-.4,1.31,1.31,0,0,1-.45-1,1.34,1.34,0,0,1,.45-1,2.22,2.22,0,0,1,1.48-.4h2.91v-12l-2.57.67a3.61,3.61,0,0,1-.93.17,1.24,1.24,0,0,1-.95-.43,1.51,1.51,0,0,1-.4-1.07,1.34,1.34,0,0,1,.29-.91,2.68,2.68,0,0,1,1.24-.58Z"/><path class="cls-2" d="M331.58,195.89v3.16a9.91,9.91,0,0,1-1.62,5.38,5.19,5.19,0,0,1-4.65,2.58,5.36,5.36,0,0,1-2.94-.77,7.27,7.27,0,0,1-2.28-2.82,9.29,9.29,0,0,1-1.07-4.37v-3.16a9.92,9.92,0,0,1,1.61-5.37,5.17,5.17,0,0,1,4.64-2.58,5.35,5.35,0,0,1,2.93.76,7.25,7.25,0,0,1,2.29,2.81A9.2,9.2,0,0,1,331.58,195.89Zm-2.9,0a6.69,6.69,0,0,0-1.3-4.1,2.49,2.49,0,0,0-2.1-1,2.55,2.55,0,0,0-2.13,1.07,6.29,6.29,0,0,0-1.25,4v3.16a6.63,6.63,0,0,0,1.32,4.11,2.48,2.48,0,0,0,2.09,1,2.57,2.57,0,0,0,2.12-1.07,6.32,6.32,0,0,0,1.25-4Z"/><path class="cls-2" d="M348.85,195.89v3.16a9.84,9.84,0,0,1-1.63,5.38,5.17,5.17,0,0,1-4.64,2.58,5.36,5.36,0,0,1-2.94-.77,7.27,7.27,0,0,1-2.28-2.82,9.29,9.29,0,0,1-1.07-4.37v-3.16a9.92,9.92,0,0,1,1.61-5.37,5.16,5.16,0,0,1,4.64-2.58,5.35,5.35,0,0,1,2.93.76,7.25,7.25,0,0,1,2.29,2.81A9.32,9.32,0,0,1,348.85,195.89Zm-2.9,0a6.69,6.69,0,0,0-1.3-4.1,2.49,2.49,0,0,0-2.1-1,2.55,2.55,0,0,0-2.13,1.07,6.29,6.29,0,0,0-1.25,4v3.16a6.63,6.63,0,0,0,1.32,4.11,2.46,2.46,0,0,0,2.09,1,2.57,2.57,0,0,0,2.12-1.07,6.32,6.32,0,0,0,1.25-4Z"/><path class="cls-2" d="M81,238.81v15.77h2.91a2.17,2.17,0,0,1,1.48.4,1.31,1.31,0,0,1,.45,1,1.33,1.33,0,0,1-.45,1,2.22,2.22,0,0,1-1.48.4h-8.7a2.24,2.24,0,0,1-1.48-.4A1.37,1.37,0,0,1,73.3,256a1.33,1.33,0,0,1,.44-1,2.18,2.18,0,0,1,1.48-.4h2.91v-12l-2.57.68a4,4,0,0,1-.93.17,1.27,1.27,0,0,1-.95-.44,1.54,1.54,0,0,1-.4-1.07,1.29,1.29,0,0,1,.3-.9,2.67,2.67,0,0,1,1.24-.59Z"/><path class="cls-2" d="M103.1,246.76v3.17a10,10,0,0,1-1.62,5.38,5.18,5.18,0,0,1-4.64,2.57,5.37,5.37,0,0,1-3-.77,7.27,7.27,0,0,1-2.28-2.82,9.37,9.37,0,0,1-1.07-4.36v-3.17a10,10,0,0,1,1.62-5.37,5.15,5.15,0,0,1,4.63-2.58,5.32,5.32,0,0,1,2.93.76,7.28,7.28,0,0,1,2.29,2.82A9.16,9.16,0,0,1,103.1,246.76Zm-2.89,0a6.69,6.69,0,0,0-1.31-4.1,2.5,2.5,0,0,0-2.09-1,2.6,2.6,0,0,0-2.14,1.07,6.37,6.37,0,0,0-1.25,4v3.17a6.6,6.6,0,0,0,1.32,4.1,2.47,2.47,0,0,0,2.1,1A2.59,2.59,0,0,0,99,253.93a6.37,6.37,0,0,0,1.25-4Z"/><path class="cls-2" d="M115.55,238.81v15.77h2.91a2.17,2.17,0,0,1,1.48.4,1.31,1.31,0,0,1,.45,1,1.33,1.33,0,0,1-.45,1,2.22,2.22,0,0,1-1.48.4h-8.7a2.24,2.24,0,0,1-1.48-.4,1.37,1.37,0,0,1-.44-1.05,1.33,1.33,0,0,1,.44-1,2.18,2.18,0,0,1,1.48-.4h2.91v-12l-2.57.68a4,4,0,0,1-.93.17,1.27,1.27,0,0,1-1-.44,1.54,1.54,0,0,1-.4-1.07,1.29,1.29,0,0,1,.3-.9,2.67,2.67,0,0,1,1.24-.59Z"/><path class="cls-2" d="M137.64,246.76v3.17a10,10,0,0,1-1.62,5.38,5.18,5.18,0,0,1-4.64,2.57,5.37,5.37,0,0,1-2.95-.77,7.27,7.27,0,0,1-2.28-2.82,9.37,9.37,0,0,1-1.07-4.36v-3.17a10,10,0,0,1,1.62-5.37,5.15,5.15,0,0,1,4.63-2.58,5.35,5.35,0,0,1,2.93.76,7.28,7.28,0,0,1,2.29,2.82A9.16,9.16,0,0,1,137.64,246.76Zm-2.89,0a6.69,6.69,0,0,0-1.31-4.1,2.5,2.5,0,0,0-2.09-1,2.6,2.6,0,0,0-2.14,1.07,6.37,6.37,0,0,0-1.25,4v3.17a6.6,6.6,0,0,0,1.32,4.1,2.47,2.47,0,0,0,2.1,1,2.59,2.59,0,0,0,2.12-1.07,6.37,6.37,0,0,0,1.25-4Z"/><path class="cls-2" d="M85.83,297.16v3.16a9.94,9.94,0,0,1-1.62,5.38,5.16,5.16,0,0,1-4.64,2.57,5.37,5.37,0,0,1-2.95-.76,7.24,7.24,0,0,1-2.28-2.83,9.34,9.34,0,0,1-1.07-4.36v-3.16a10,10,0,0,1,1.62-5.38,5.14,5.14,0,0,1,4.63-2.57,5.41,5.41,0,0,1,2.93.75,7.28,7.28,0,0,1,2.29,2.82A9.17,9.17,0,0,1,85.83,297.16Zm-2.89,0a6.67,6.67,0,0,0-1.31-4.1,2.48,2.48,0,0,0-2.09-1,2.59,2.59,0,0,0-2.14,1.06,6.39,6.39,0,0,0-1.25,4v3.16a6.6,6.6,0,0,0,1.32,4.1,2.47,2.47,0,0,0,2.1,1,2.56,2.56,0,0,0,2.12-1.07,6.35,6.35,0,0,0,1.25-4Z"/><path class="cls-2" d="M98.28,289.21V305h2.91a2.17,2.17,0,0,1,1.48.4,1.35,1.35,0,0,1,.45,1.05,1.32,1.32,0,0,1-.45,1,2.17,2.17,0,0,1-1.48.4h-8.7a2.18,2.18,0,0,1-1.48-.4,1.45,1.45,0,0,1,0-2.08,2.18,2.18,0,0,1,1.48-.4H95.4V293l-2.57.67a4,4,0,0,1-.93.17,1.27,1.27,0,0,1-1-.44,1.53,1.53,0,0,1-.4-1.06,1.3,1.3,0,0,1,.3-.91,2.68,2.68,0,0,1,1.24-.58Z"/><path class="cls-2" d="M115.55,289.21V305h2.91a2.17,2.17,0,0,1,1.48.4,1.35,1.35,0,0,1,.45,1.05,1.32,1.32,0,0,1-.45,1,2.17,2.17,0,0,1-1.48.4h-8.7a2.18,2.18,0,0,1-1.48-.4,1.45,1.45,0,0,1,0-2.08,2.18,2.18,0,0,1,1.48-.4h2.91V293l-2.57.67a4,4,0,0,1-.93.17,1.27,1.27,0,0,1-1-.44,1.53,1.53,0,0,1-.4-1.06,1.3,1.3,0,0,1,.3-.91,2.68,2.68,0,0,1,1.24-.58Z"/><path class="cls-2" d="M137.64,297.16v3.16A9.94,9.94,0,0,1,136,305.7a5.16,5.16,0,0,1-4.64,2.57,5.37,5.37,0,0,1-2.95-.76,7.24,7.24,0,0,1-2.28-2.83,9.34,9.34,0,0,1-1.07-4.36v-3.16a10,10,0,0,1,1.62-5.38,5.14,5.14,0,0,1,4.63-2.57,5.43,5.43,0,0,1,2.93.75,7.28,7.28,0,0,1,2.29,2.82A9.17,9.17,0,0,1,137.64,297.16Zm-2.89,0a6.67,6.67,0,0,0-1.31-4.1,2.48,2.48,0,0,0-2.09-1,2.59,2.59,0,0,0-2.14,1.06,6.39,6.39,0,0,0-1.25,4v3.16a6.6,6.6,0,0,0,1.32,4.1,2.47,2.47,0,0,0,2.1,1,2.56,2.56,0,0,0,2.12-1.07,6.35,6.35,0,0,0,1.25-4Z"/><path class="cls-2" d="M85.83,272.1v3.16a9.94,9.94,0,0,1-1.62,5.38,5.16,5.16,0,0,1-4.64,2.57,5.37,5.37,0,0,1-2.95-.76,7.24,7.24,0,0,1-2.28-2.83,9.34,9.34,0,0,1-1.07-4.36V272.1a10,10,0,0,1,1.62-5.38,5.14,5.14,0,0,1,4.63-2.57,5.41,5.41,0,0,1,2.93.75,7.28,7.28,0,0,1,2.29,2.82A9.17,9.17,0,0,1,85.83,272.1Zm-2.89,0a6.67,6.67,0,0,0-1.31-4.1,2.48,2.48,0,0,0-2.09-1,2.59,2.59,0,0,0-2.14,1.06,6.39,6.39,0,0,0-1.25,4v3.16a6.6,6.6,0,0,0,1.32,4.1,2.47,2.47,0,0,0,2.1,1,2.56,2.56,0,0,0,2.12-1.07,6.35,6.35,0,0,0,1.25-4Z"/><path class="cls-2" d="M98.28,264.15v15.76h2.91a2.17,2.17,0,0,1,1.48.4,1.35,1.35,0,0,1,.45,1.05,1.32,1.32,0,0,1-.45,1,2.17,2.17,0,0,1-1.48.4h-8.7a2.18,2.18,0,0,1-1.48-.4,1.45,1.45,0,0,1,0-2.08,2.18,2.18,0,0,1,1.48-.4H95.4v-12l-2.57.67a4,4,0,0,1-.93.17,1.27,1.27,0,0,1-1-.44,1.53,1.53,0,0,1-.4-1.06,1.3,1.3,0,0,1,.3-.91,2.68,2.68,0,0,1,1.24-.58Z"/><path class="cls-2" d="M120.37,272.1v3.16a9.94,9.94,0,0,1-1.62,5.38,5.16,5.16,0,0,1-4.64,2.57,5.37,5.37,0,0,1-3-.76,7.14,7.14,0,0,1-2.27-2.83,9.23,9.23,0,0,1-1.08-4.36V272.1a10,10,0,0,1,1.62-5.38,5.14,5.14,0,0,1,4.63-2.57,5.41,5.41,0,0,1,2.93.75,7.28,7.28,0,0,1,2.29,2.82A9.17,9.17,0,0,1,120.37,272.1Zm-2.89,0a6.67,6.67,0,0,0-1.31-4.1,2.48,2.48,0,0,0-2.09-1,2.59,2.59,0,0,0-2.14,1.06,6.39,6.39,0,0,0-1.25,4v3.16a6.6,6.6,0,0,0,1.32,4.1,2.47,2.47,0,0,0,2.1,1,2.56,2.56,0,0,0,2.12-1.07,6.35,6.35,0,0,0,1.25-4Z"/><path class="cls-2" d="M137.64,272.1v3.16a9.94,9.94,0,0,1-1.62,5.38,5.16,5.16,0,0,1-4.64,2.57,5.37,5.37,0,0,1-2.95-.76,7.24,7.24,0,0,1-2.28-2.83,9.34,9.34,0,0,1-1.07-4.36V272.1a10,10,0,0,1,1.62-5.38,5.14,5.14,0,0,1,4.63-2.57,5.43,5.43,0,0,1,2.93.75,7.28,7.28,0,0,1,2.29,2.82A9.17,9.17,0,0,1,137.64,272.1Zm-2.89,0a6.67,6.67,0,0,0-1.31-4.1,2.48,2.48,0,0,0-2.09-1,2.59,2.59,0,0,0-2.14,1.06,6.39,6.39,0,0,0-1.25,4v3.16a6.6,6.6,0,0,0,1.32,4.1,2.47,2.47,0,0,0,2.1,1,2.56,2.56,0,0,0,2.12-1.07,6.35,6.35,0,0,0,1.25-4Z"/><path class="cls-2" d="M151.43,238.81v15.77h2.91a2.18,2.18,0,0,1,1.48.4,1.34,1.34,0,0,1,.44,1,1.35,1.35,0,0,1-.44,1,2.24,2.24,0,0,1-1.48.4h-8.7a2.22,2.22,0,0,1-1.48-.4,1.35,1.35,0,0,1-.45-1.05,1.31,1.31,0,0,1,.45-1,2.17,2.17,0,0,1,1.48-.4h2.91v-12l-2.57.68a4.2,4.2,0,0,1-.93.17,1.25,1.25,0,0,1-1-.44,1.5,1.5,0,0,1-.4-1.07,1.33,1.33,0,0,1,.29-.9,2.67,2.67,0,0,1,1.24-.59Z"/><path class="cls-2" d="M173.52,246.76v3.17a9.89,9.89,0,0,1-1.63,5.38,5.18,5.18,0,0,1-4.64,2.57,5.36,5.36,0,0,1-2.94-.77,7.27,7.27,0,0,1-2.28-2.82,9.25,9.25,0,0,1-1.07-4.36v-3.17a9.94,9.94,0,0,1,1.61-5.37,5.16,5.16,0,0,1,4.64-2.58,5.35,5.35,0,0,1,2.93.76,7.37,7.37,0,0,1,2.29,2.82A9.28,9.28,0,0,1,173.52,246.76Zm-2.9,0a6.69,6.69,0,0,0-1.3-4.1,2.52,2.52,0,0,0-2.1-1,2.58,2.58,0,0,0-2.13,1.07,6.31,6.31,0,0,0-1.25,4v3.17a6.6,6.6,0,0,0,1.32,4.1,2.44,2.44,0,0,0,2.09,1,2.57,2.57,0,0,0,2.12-1.07,6.31,6.31,0,0,0,1.25-4Z"/><path class="cls-2" d="M186,238.81v15.77h2.91a2.18,2.18,0,0,1,1.48.4,1.34,1.34,0,0,1,.44,1,1.35,1.35,0,0,1-.44,1,2.24,2.24,0,0,1-1.48.4h-8.7a2.22,2.22,0,0,1-1.48-.4,1.35,1.35,0,0,1-.45-1.05,1.31,1.31,0,0,1,.45-1,2.17,2.17,0,0,1,1.48-.4h2.91v-12l-2.57.68a4.2,4.2,0,0,1-.93.17,1.25,1.25,0,0,1-1-.44,1.5,1.5,0,0,1-.4-1.07,1.33,1.33,0,0,1,.29-.9,2.67,2.67,0,0,1,1.24-.59Z"/><path class="cls-2" d="M208.06,246.76v3.17a9.89,9.89,0,0,1-1.63,5.38,5.18,5.18,0,0,1-4.64,2.57,5.36,5.36,0,0,1-2.94-.77,7.18,7.18,0,0,1-2.28-2.82,9.26,9.26,0,0,1-1.08-4.36v-3.17a10,10,0,0,1,1.62-5.37,5.16,5.16,0,0,1,4.64-2.58,5.35,5.35,0,0,1,2.93.76,7.37,7.37,0,0,1,2.29,2.82A9.28,9.28,0,0,1,208.06,246.76Zm-2.9,0a6.69,6.69,0,0,0-1.3-4.1,2.52,2.52,0,0,0-2.1-1,2.58,2.58,0,0,0-2.13,1.07,6.31,6.31,0,0,0-1.25,4v3.17a6.54,6.54,0,0,0,1.32,4.1,2.44,2.44,0,0,0,2.09,1,2.57,2.57,0,0,0,2.12-1.07,6.31,6.31,0,0,0,1.25-4Z"/><path class="cls-2" d="M156.25,297.16v3.16a9.87,9.87,0,0,1-1.63,5.38,5.16,5.16,0,0,1-4.64,2.57,5.36,5.36,0,0,1-2.94-.76,7.24,7.24,0,0,1-2.28-2.83,9.22,9.22,0,0,1-1.07-4.36v-3.16a10,10,0,0,1,1.61-5.38,5.15,5.15,0,0,1,4.64-2.57,5.43,5.43,0,0,1,2.93.75,7.37,7.37,0,0,1,2.29,2.82A9.29,9.29,0,0,1,156.25,297.16Zm-2.9,0a6.67,6.67,0,0,0-1.3-4.1,2.49,2.49,0,0,0-2.1-1,2.57,2.57,0,0,0-2.13,1.06,6.33,6.33,0,0,0-1.25,4v3.16a6.6,6.6,0,0,0,1.32,4.1,2.44,2.44,0,0,0,2.09,1,2.55,2.55,0,0,0,2.12-1.07,6.29,6.29,0,0,0,1.25-4Z"/><path class="cls-2" d="M168.7,289.21V305h2.91a2.18,2.18,0,0,1,1.48.4,1.37,1.37,0,0,1,.44,1.05,1.34,1.34,0,0,1-.44,1,2.18,2.18,0,0,1-1.48.4h-8.7a2.17,2.17,0,0,1-1.48-.4,1.43,1.43,0,0,1,0-2.08,2.17,2.17,0,0,1,1.48-.4h2.91V293l-2.57.67a4.2,4.2,0,0,1-.93.17,1.25,1.25,0,0,1-.95-.44,1.49,1.49,0,0,1-.4-1.06,1.34,1.34,0,0,1,.29-.91,2.68,2.68,0,0,1,1.24-.58Z"/><path class="cls-2" d="M186,289.21V305h2.91a2.18,2.18,0,0,1,1.48.4,1.37,1.37,0,0,1,.44,1.05,1.34,1.34,0,0,1-.44,1,2.18,2.18,0,0,1-1.48.4h-8.7a2.17,2.17,0,0,1-1.48-.4,1.43,1.43,0,0,1,0-2.08,2.17,2.17,0,0,1,1.48-.4h2.91V293l-2.57.67a4.2,4.2,0,0,1-.93.17,1.25,1.25,0,0,1-1-.44,1.49,1.49,0,0,1-.4-1.06,1.34,1.34,0,0,1,.29-.91,2.68,2.68,0,0,1,1.24-.58Z"/><path class="cls-2" d="M208.06,297.16v3.16a9.87,9.87,0,0,1-1.63,5.38,5.16,5.16,0,0,1-4.64,2.57,5.36,5.36,0,0,1-2.94-.76,7.15,7.15,0,0,1-2.28-2.83,9.23,9.23,0,0,1-1.08-4.36v-3.16a10,10,0,0,1,1.62-5.38,5.15,5.15,0,0,1,4.64-2.57,5.43,5.43,0,0,1,2.93.75,7.37,7.37,0,0,1,2.29,2.82A9.29,9.29,0,0,1,208.06,297.16Zm-2.9,0a6.67,6.67,0,0,0-1.3-4.1,2.49,2.49,0,0,0-2.1-1,2.57,2.57,0,0,0-2.13,1.06,6.33,6.33,0,0,0-1.25,4v3.16a6.54,6.54,0,0,0,1.32,4.1,2.44,2.44,0,0,0,2.09,1,2.55,2.55,0,0,0,2.12-1.07,6.29,6.29,0,0,0,1.25-4Z"/><path class="cls-2" d="M156.25,272.1v3.16a9.87,9.87,0,0,1-1.63,5.38,5.16,5.16,0,0,1-4.64,2.57,5.36,5.36,0,0,1-2.94-.76,7.24,7.24,0,0,1-2.28-2.83,9.22,9.22,0,0,1-1.07-4.36V272.1a10,10,0,0,1,1.61-5.38,5.15,5.15,0,0,1,4.64-2.57,5.43,5.43,0,0,1,2.93.75,7.37,7.37,0,0,1,2.29,2.82A9.29,9.29,0,0,1,156.25,272.1Zm-2.9,0a6.67,6.67,0,0,0-1.3-4.1,2.49,2.49,0,0,0-2.1-1,2.57,2.57,0,0,0-2.13,1.06,6.33,6.33,0,0,0-1.25,4v3.16a6.6,6.6,0,0,0,1.32,4.1,2.44,2.44,0,0,0,2.09,1,2.55,2.55,0,0,0,2.12-1.07,6.29,6.29,0,0,0,1.25-4Z"/><path class="cls-2" d="M168.7,264.15v15.76h2.91a2.18,2.18,0,0,1,1.48.4,1.37,1.37,0,0,1,.44,1.05,1.34,1.34,0,0,1-.44,1,2.18,2.18,0,0,1-1.48.4h-8.7a2.17,2.17,0,0,1-1.48-.4,1.43,1.43,0,0,1,0-2.08,2.17,2.17,0,0,1,1.48-.4h2.91v-12l-2.57.67a4.2,4.2,0,0,1-.93.17,1.25,1.25,0,0,1-.95-.44,1.49,1.49,0,0,1-.4-1.06,1.34,1.34,0,0,1,.29-.91,2.68,2.68,0,0,1,1.24-.58Z"/><path class="cls-2" d="M190.79,272.1v3.16a9.87,9.87,0,0,1-1.63,5.38,5.16,5.16,0,0,1-4.64,2.57,5.36,5.36,0,0,1-2.94-.76,7.24,7.24,0,0,1-2.28-2.83,9.22,9.22,0,0,1-1.07-4.36V272.1a10,10,0,0,1,1.61-5.38,5.15,5.15,0,0,1,4.64-2.57,5.43,5.43,0,0,1,2.93.75,7.37,7.37,0,0,1,2.29,2.82A9.29,9.29,0,0,1,190.79,272.1Zm-2.9,0a6.67,6.67,0,0,0-1.3-4.1,2.49,2.49,0,0,0-2.1-1,2.57,2.57,0,0,0-2.13,1.06,6.33,6.33,0,0,0-1.25,4v3.16a6.6,6.6,0,0,0,1.32,4.1,2.44,2.44,0,0,0,2.09,1,2.55,2.55,0,0,0,2.12-1.07,6.29,6.29,0,0,0,1.25-4Z"/><path class="cls-2" d="M208.06,272.1v3.16a9.87,9.87,0,0,1-1.63,5.38,5.16,5.16,0,0,1-4.64,2.57,5.36,5.36,0,0,1-2.94-.76,7.15,7.15,0,0,1-2.28-2.83,9.23,9.23,0,0,1-1.08-4.36V272.1a10,10,0,0,1,1.62-5.38,5.15,5.15,0,0,1,4.64-2.57,5.43,5.43,0,0,1,2.93.75,7.37,7.37,0,0,1,2.29,2.82A9.29,9.29,0,0,1,208.06,272.1Zm-2.9,0a6.67,6.67,0,0,0-1.3-4.1,2.49,2.49,0,0,0-2.1-1,2.57,2.57,0,0,0-2.13,1.06,6.33,6.33,0,0,0-1.25,4v3.16a6.54,6.54,0,0,0,1.32,4.1,2.44,2.44,0,0,0,2.09,1,2.55,2.55,0,0,0,2.12-1.07,6.29,6.29,0,0,0,1.25-4Z"/><path class="cls-2" d="M81,162.6v15.77h2.91a2.18,2.18,0,0,1,1.48.4,1.37,1.37,0,0,1,.44,1,1.34,1.34,0,0,1-.44,1,2.18,2.18,0,0,1-1.48.4h-8.7a2.15,2.15,0,0,1-1.48-.4,1.35,1.35,0,0,1-.45-1,1.32,1.32,0,0,1,.45-1,2.15,2.15,0,0,1,1.48-.4h2.91v-12l-2.58.67a4,4,0,0,1-.92.17,1.25,1.25,0,0,1-1-.44,1.49,1.49,0,0,1-.4-1.06,1.34,1.34,0,0,1,.29-.91,2.67,2.67,0,0,1,1.24-.59Z"/><path class="cls-2" d="M103.12,170.56v3.16a9.87,9.87,0,0,1-1.63,5.38,5.18,5.18,0,0,1-4.64,2.57,5.36,5.36,0,0,1-2.94-.76,7.22,7.22,0,0,1-2.28-2.83,9.26,9.26,0,0,1-1.08-4.36v-3.16a10,10,0,0,1,1.62-5.38,5.16,5.16,0,0,1,4.64-2.58,5.43,5.43,0,0,1,2.93.76,7.37,7.37,0,0,1,2.29,2.82A9.29,9.29,0,0,1,103.12,170.56Zm-2.9,0a6.64,6.64,0,0,0-1.31-4.11,2.49,2.49,0,0,0-2.09-1,2.58,2.58,0,0,0-2.13,1.07,6.32,6.32,0,0,0-1.26,4v3.16a6.54,6.54,0,0,0,1.33,4.1,2.44,2.44,0,0,0,2.09,1A2.55,2.55,0,0,0,99,177.72a6.29,6.29,0,0,0,1.25-4Z"/><path class="cls-2" d="M115.57,162.6v15.77h2.91a2.18,2.18,0,0,1,1.48.4,1.37,1.37,0,0,1,.44,1,1.34,1.34,0,0,1-.44,1,2.18,2.18,0,0,1-1.48.4h-8.7a2.15,2.15,0,0,1-1.48-.4,1.35,1.35,0,0,1-.45-1,1.32,1.32,0,0,1,.45-1,2.15,2.15,0,0,1,1.48-.4h2.91v-12l-2.58.67a4,4,0,0,1-.92.17,1.25,1.25,0,0,1-1-.44,1.49,1.49,0,0,1-.4-1.06,1.34,1.34,0,0,1,.29-.91,2.67,2.67,0,0,1,1.24-.59Z"/><path class="cls-2" d="M137.66,170.56v3.16A9.87,9.87,0,0,1,136,179.1a5.18,5.18,0,0,1-4.64,2.57,5.42,5.42,0,0,1-2.95-.76,7.21,7.21,0,0,1-2.27-2.83,9.26,9.26,0,0,1-1.08-4.36v-3.16a10,10,0,0,1,1.62-5.38,5.16,5.16,0,0,1,4.64-2.58,5.43,5.43,0,0,1,2.93.76,7.37,7.37,0,0,1,2.29,2.82A9.29,9.29,0,0,1,137.66,170.56Zm-2.9,0a6.64,6.64,0,0,0-1.31-4.11,2.49,2.49,0,0,0-2.09-1,2.61,2.61,0,0,0-2.14,1.07,6.38,6.38,0,0,0-1.25,4v3.16a6.54,6.54,0,0,0,1.33,4.1,2.44,2.44,0,0,0,2.09,1,2.55,2.55,0,0,0,2.12-1.07,6.35,6.35,0,0,0,1.25-4Z"/><path class="cls-2" d="M85.85,221v3.16a9.84,9.84,0,0,1-1.63,5.38,5.17,5.17,0,0,1-4.64,2.58,5.36,5.36,0,0,1-2.94-.77,7.15,7.15,0,0,1-2.28-2.83,9.23,9.23,0,0,1-1.08-4.36V221a9.93,9.93,0,0,1,1.62-5.37A5.16,5.16,0,0,1,79.54,213a5.35,5.35,0,0,1,2.93.76,7.25,7.25,0,0,1,2.29,2.81A9.32,9.32,0,0,1,85.85,221ZM83,221a6.63,6.63,0,0,0-1.31-4.1,2.46,2.46,0,0,0-2.09-1A2.55,2.55,0,0,0,77.42,217a6.29,6.29,0,0,0-1.26,4v3.16a6.52,6.52,0,0,0,1.33,4.1,2.45,2.45,0,0,0,2.09,1,2.57,2.57,0,0,0,2.12-1.07,6.38,6.38,0,0,0,1.25-4Z"/><path class="cls-2" d="M98.3,213v15.76h2.91a2.24,2.24,0,0,1,1.48.4,1.37,1.37,0,0,1,.44,1.05,1.33,1.33,0,0,1-.44,1,2.18,2.18,0,0,1-1.48.4h-8.7a2.15,2.15,0,0,1-1.48-.4,1.31,1.31,0,0,1-.45-1,1.33,1.33,0,0,1,.45-1,2.2,2.2,0,0,1,1.48-.4h2.91v-12l-2.58.67a3.55,3.55,0,0,1-.92.17,1.24,1.24,0,0,1-1-.43,1.51,1.51,0,0,1-.4-1.07,1.34,1.34,0,0,1,.29-.91,2.68,2.68,0,0,1,1.24-.58Z"/><path class="cls-2" d="M115.57,213v15.76h2.91a2.24,2.24,0,0,1,1.48.4,1.37,1.37,0,0,1,.44,1.05,1.33,1.33,0,0,1-.44,1,2.18,2.18,0,0,1-1.48.4h-8.7a2.15,2.15,0,0,1-1.48-.4,1.31,1.31,0,0,1-.45-1,1.33,1.33,0,0,1,.45-1,2.2,2.2,0,0,1,1.48-.4h2.91v-12l-2.58.67a3.55,3.55,0,0,1-.92.17,1.24,1.24,0,0,1-1-.43,1.51,1.51,0,0,1-.4-1.07,1.34,1.34,0,0,1,.29-.91,2.68,2.68,0,0,1,1.24-.58Z"/><path class="cls-2" d="M137.66,221v3.16a9.84,9.84,0,0,1-1.63,5.38,5.17,5.17,0,0,1-4.64,2.58,5.42,5.42,0,0,1-2.95-.77,7.14,7.14,0,0,1-2.27-2.83,9.23,9.23,0,0,1-1.08-4.36V221a9.93,9.93,0,0,1,1.62-5.37,5.16,5.16,0,0,1,4.64-2.58,5.35,5.35,0,0,1,2.93.76,7.25,7.25,0,0,1,2.29,2.81A9.32,9.32,0,0,1,137.66,221Zm-2.9,0a6.63,6.63,0,0,0-1.31-4.1,2.46,2.46,0,0,0-2.09-1,2.58,2.58,0,0,0-2.14,1.07,6.35,6.35,0,0,0-1.25,4v3.16a6.52,6.52,0,0,0,1.33,4.1,2.45,2.45,0,0,0,2.09,1,2.57,2.57,0,0,0,2.12-1.07,6.38,6.38,0,0,0,1.25-4Z"/><path class="cls-2" d="M85.85,195.89v3.16a9.84,9.84,0,0,1-1.63,5.38A5.17,5.17,0,0,1,79.58,207a5.36,5.36,0,0,1-2.94-.77,7.18,7.18,0,0,1-2.28-2.82,9.3,9.3,0,0,1-1.08-4.37v-3.16a9.93,9.93,0,0,1,1.62-5.37,5.16,5.16,0,0,1,4.64-2.58,5.35,5.35,0,0,1,2.93.76,7.25,7.25,0,0,1,2.29,2.81A9.32,9.32,0,0,1,85.85,195.89Zm-2.9,0a6.63,6.63,0,0,0-1.31-4.1,2.46,2.46,0,0,0-2.09-1,2.55,2.55,0,0,0-2.13,1.07,6.29,6.29,0,0,0-1.26,4v3.16a6.57,6.57,0,0,0,1.33,4.11,2.46,2.46,0,0,0,2.09,1,2.57,2.57,0,0,0,2.12-1.07,6.38,6.38,0,0,0,1.25-4Z"/><path class="cls-2" d="M98.3,187.94V203.7h2.91a2.24,2.24,0,0,1,1.48.4,1.37,1.37,0,0,1,.44,1.05,1.33,1.33,0,0,1-.44,1,2.18,2.18,0,0,1-1.48.4h-8.7a2.15,2.15,0,0,1-1.48-.4,1.31,1.31,0,0,1-.45-1,1.34,1.34,0,0,1,.45-1,2.2,2.2,0,0,1,1.48-.4h2.91v-12l-2.58.67a3.55,3.55,0,0,1-.92.17,1.24,1.24,0,0,1-1-.43,1.51,1.51,0,0,1-.4-1.07,1.34,1.34,0,0,1,.29-.91,2.68,2.68,0,0,1,1.24-.58Z"/><path class="cls-2" d="M120.39,195.89v3.16a9.84,9.84,0,0,1-1.63,5.38,5.17,5.17,0,0,1-4.64,2.58,5.36,5.36,0,0,1-2.94-.77,7.18,7.18,0,0,1-2.28-2.82,9.3,9.3,0,0,1-1.08-4.37v-3.16a9.93,9.93,0,0,1,1.62-5.37,5.16,5.16,0,0,1,4.64-2.58,5.35,5.35,0,0,1,2.93.76,7.25,7.25,0,0,1,2.29,2.81A9.32,9.32,0,0,1,120.39,195.89Zm-2.9,0a6.63,6.63,0,0,0-1.31-4.1,2.46,2.46,0,0,0-2.09-1,2.55,2.55,0,0,0-2.13,1.07,6.29,6.29,0,0,0-1.26,4v3.16a6.57,6.57,0,0,0,1.33,4.11,2.46,2.46,0,0,0,2.09,1,2.57,2.57,0,0,0,2.12-1.07,6.32,6.32,0,0,0,1.25-4Z"/><path class="cls-2" d="M137.66,195.89v3.16a9.84,9.84,0,0,1-1.63,5.38,5.17,5.17,0,0,1-4.64,2.58,5.42,5.42,0,0,1-2.95-.77,7.17,7.17,0,0,1-2.27-2.82,9.3,9.3,0,0,1-1.08-4.37v-3.16a9.93,9.93,0,0,1,1.62-5.37,5.16,5.16,0,0,1,4.64-2.58,5.35,5.35,0,0,1,2.93.76,7.25,7.25,0,0,1,2.29,2.81A9.32,9.32,0,0,1,137.66,195.89Zm-2.9,0a6.63,6.63,0,0,0-1.31-4.1,2.46,2.46,0,0,0-2.09-1,2.58,2.58,0,0,0-2.14,1.07,6.35,6.35,0,0,0-1.25,4v3.16a6.57,6.57,0,0,0,1.33,4.11,2.46,2.46,0,0,0,2.09,1,2.57,2.57,0,0,0,2.12-1.07,6.38,6.38,0,0,0,1.25-4Z"/><path class="cls-2" d="M151.44,162.6v15.77h2.91a2.17,2.17,0,0,1,1.48.4,1.35,1.35,0,0,1,.45,1,1.32,1.32,0,0,1-.45,1,2.17,2.17,0,0,1-1.48.4h-8.7a2.17,2.17,0,0,1-1.48-.4,1.37,1.37,0,0,1-.44-1,1.34,1.34,0,0,1,.44-1,2.17,2.17,0,0,1,1.48-.4h2.91v-12L146,167a4,4,0,0,1-.93.17,1.27,1.27,0,0,1-.95-.44,1.53,1.53,0,0,1-.4-1.06,1.3,1.3,0,0,1,.3-.91,2.62,2.62,0,0,1,1.23-.59Z"/><path class="cls-2" d="M173.53,170.56v3.16a9.94,9.94,0,0,1-1.62,5.38,5.18,5.18,0,0,1-4.64,2.57,5.37,5.37,0,0,1-3-.76,7.31,7.31,0,0,1-2.28-2.83,9.37,9.37,0,0,1-1.07-4.36v-3.16a10,10,0,0,1,1.62-5.38,5.15,5.15,0,0,1,4.63-2.58,5.43,5.43,0,0,1,2.93.76,7.28,7.28,0,0,1,2.29,2.82A9.17,9.17,0,0,1,173.53,170.56Zm-2.89,0a6.7,6.7,0,0,0-1.31-4.11,2.5,2.5,0,0,0-2.09-1,2.6,2.6,0,0,0-2.14,1.07,6.38,6.38,0,0,0-1.25,4v3.16a6.6,6.6,0,0,0,1.32,4.1,2.47,2.47,0,0,0,2.1,1,2.56,2.56,0,0,0,2.12-1.07,6.35,6.35,0,0,0,1.25-4Z"/><path class="cls-2" d="M186,162.6v15.77h2.91a2.17,2.17,0,0,1,1.48.4,1.35,1.35,0,0,1,.45,1,1.32,1.32,0,0,1-.45,1,2.17,2.17,0,0,1-1.48.4h-8.7a2.17,2.17,0,0,1-1.48-.4,1.37,1.37,0,0,1-.44-1,1.34,1.34,0,0,1,.44-1,2.17,2.17,0,0,1,1.48-.4h2.91v-12l-2.57.67a4,4,0,0,1-.93.17,1.27,1.27,0,0,1-.95-.44,1.53,1.53,0,0,1-.4-1.06,1.3,1.3,0,0,1,.3-.91,2.62,2.62,0,0,1,1.23-.59Z"/><path class="cls-2" d="M208.07,170.56v3.16a9.94,9.94,0,0,1-1.62,5.38,5.19,5.19,0,0,1-4.65,2.57,5.36,5.36,0,0,1-2.94-.76,7.31,7.31,0,0,1-2.28-2.83,9.37,9.37,0,0,1-1.07-4.36v-3.16a10,10,0,0,1,1.61-5.38,5.17,5.17,0,0,1,4.64-2.58,5.43,5.43,0,0,1,2.93.76,7.28,7.28,0,0,1,2.29,2.82A9.17,9.17,0,0,1,208.07,170.56Zm-2.89,0a6.7,6.7,0,0,0-1.31-4.11,2.51,2.51,0,0,0-2.09-1,2.58,2.58,0,0,0-2.14,1.07,6.38,6.38,0,0,0-1.25,4v3.16a6.6,6.6,0,0,0,1.32,4.1,2.45,2.45,0,0,0,2.09,1,2.57,2.57,0,0,0,2.13-1.07,6.35,6.35,0,0,0,1.25-4Z"/><path class="cls-2" d="M156.26,221v3.16a9.91,9.91,0,0,1-1.62,5.38,5.18,5.18,0,0,1-4.65,2.58,5.36,5.36,0,0,1-2.94-.77,7.24,7.24,0,0,1-2.28-2.83,9.34,9.34,0,0,1-1.07-4.36V221a9.93,9.93,0,0,1,1.62-5.37A5.15,5.15,0,0,1,150,213a5.35,5.35,0,0,1,2.93.76,7.16,7.16,0,0,1,2.29,2.81A9.2,9.2,0,0,1,156.26,221Zm-2.89,0a6.69,6.69,0,0,0-1.31-4.1,2.48,2.48,0,0,0-2.09-1,2.57,2.57,0,0,0-2.14,1.07,6.35,6.35,0,0,0-1.25,4v3.16a6.58,6.58,0,0,0,1.32,4.1,2.47,2.47,0,0,0,2.09,1,2.59,2.59,0,0,0,2.13-1.07,6.38,6.38,0,0,0,1.25-4Z"/><path class="cls-2" d="M168.71,213v15.76h2.91a2.22,2.22,0,0,1,1.48.4,1.35,1.35,0,0,1,.45,1.05,1.31,1.31,0,0,1-.45,1,2.17,2.17,0,0,1-1.48.4h-8.7a2.17,2.17,0,0,1-1.48-.4,1.34,1.34,0,0,1-.44-1,1.35,1.35,0,0,1,.44-1,2.22,2.22,0,0,1,1.48-.4h2.91v-12l-2.57.67a3.54,3.54,0,0,1-.93.17,1.26,1.26,0,0,1-1-.43,1.56,1.56,0,0,1-.4-1.07,1.3,1.3,0,0,1,.3-.91,2.63,2.63,0,0,1,1.23-.58Z"/><path class="cls-2" d="M186,213v15.76h2.91a2.22,2.22,0,0,1,1.48.4,1.35,1.35,0,0,1,.45,1.05,1.31,1.31,0,0,1-.45,1,2.17,2.17,0,0,1-1.48.4h-8.7a2.17,2.17,0,0,1-1.48-.4,1.34,1.34,0,0,1-.44-1,1.35,1.35,0,0,1,.44-1,2.22,2.22,0,0,1,1.48-.4h2.91v-12l-2.57.67a3.54,3.54,0,0,1-.93.17,1.26,1.26,0,0,1-.95-.43,1.56,1.56,0,0,1-.4-1.07,1.3,1.3,0,0,1,.3-.91,2.63,2.63,0,0,1,1.23-.58Z"/><path class="cls-2" d="M208.07,221v3.16a9.91,9.91,0,0,1-1.62,5.38,5.18,5.18,0,0,1-4.65,2.58,5.36,5.36,0,0,1-2.94-.77,7.24,7.24,0,0,1-2.28-2.83,9.34,9.34,0,0,1-1.07-4.36V221a10,10,0,0,1,1.61-5.37,5.17,5.17,0,0,1,4.64-2.58,5.35,5.35,0,0,1,2.93.76,7.16,7.16,0,0,1,2.29,2.81A9.2,9.2,0,0,1,208.07,221Zm-2.89,0a6.69,6.69,0,0,0-1.31-4.1,2.49,2.49,0,0,0-2.09-1,2.56,2.56,0,0,0-2.14,1.07,6.35,6.35,0,0,0-1.25,4v3.16a6.58,6.58,0,0,0,1.32,4.1,2.46,2.46,0,0,0,2.09,1,2.59,2.59,0,0,0,2.13-1.07,6.38,6.38,0,0,0,1.25-4Z"/><path class="cls-2" d="M156.26,195.89v3.16a9.91,9.91,0,0,1-1.62,5.38A5.18,5.18,0,0,1,150,207a5.36,5.36,0,0,1-2.94-.77,7.27,7.27,0,0,1-2.28-2.82,9.41,9.41,0,0,1-1.07-4.37v-3.16a9.93,9.93,0,0,1,1.62-5.37,5.15,5.15,0,0,1,4.63-2.58,5.35,5.35,0,0,1,2.93.76,7.16,7.16,0,0,1,2.29,2.81A9.2,9.2,0,0,1,156.26,195.89Zm-2.89,0a6.69,6.69,0,0,0-1.31-4.1,2.48,2.48,0,0,0-2.09-1,2.57,2.57,0,0,0-2.14,1.07,6.35,6.35,0,0,0-1.25,4v3.16a6.63,6.63,0,0,0,1.32,4.11,2.49,2.49,0,0,0,2.09,1,2.59,2.59,0,0,0,2.13-1.07,6.38,6.38,0,0,0,1.25-4Z"/><path class="cls-2" d="M168.71,187.94V203.7h2.91a2.22,2.22,0,0,1,1.48.4,1.35,1.35,0,0,1,.45,1.05,1.31,1.31,0,0,1-.45,1,2.17,2.17,0,0,1-1.48.4h-8.7a2.17,2.17,0,0,1-1.48-.4,1.34,1.34,0,0,1-.44-1,1.37,1.37,0,0,1,.44-1,2.22,2.22,0,0,1,1.48-.4h2.91v-12l-2.57.67a3.54,3.54,0,0,1-.93.17,1.26,1.26,0,0,1-1-.43A1.56,1.56,0,0,1,161,191a1.3,1.3,0,0,1,.3-.91,2.63,2.63,0,0,1,1.23-.58Z"/><path class="cls-2" d="M190.8,195.89v3.16a9.91,9.91,0,0,1-1.62,5.38,5.17,5.17,0,0,1-4.64,2.58,5.37,5.37,0,0,1-2.95-.77,7.27,7.27,0,0,1-2.28-2.82,9.41,9.41,0,0,1-1.07-4.37v-3.16a9.93,9.93,0,0,1,1.62-5.37,5.15,5.15,0,0,1,4.63-2.58,5.35,5.35,0,0,1,2.93.76,7.16,7.16,0,0,1,2.29,2.81A9.2,9.2,0,0,1,190.8,195.89Zm-2.89,0a6.69,6.69,0,0,0-1.31-4.1,2.48,2.48,0,0,0-2.09-1,2.57,2.57,0,0,0-2.14,1.07,6.35,6.35,0,0,0-1.25,4v3.16a6.63,6.63,0,0,0,1.32,4.11,2.49,2.49,0,0,0,2.1,1,2.59,2.59,0,0,0,2.12-1.07,6.38,6.38,0,0,0,1.25-4Z"/><path class="cls-2" d="M208.07,195.89v3.16a9.91,9.91,0,0,1-1.62,5.38A5.18,5.18,0,0,1,201.8,207a5.36,5.36,0,0,1-2.94-.77,7.27,7.27,0,0,1-2.28-2.82,9.41,9.41,0,0,1-1.07-4.37v-3.16a10,10,0,0,1,1.61-5.37,5.17,5.17,0,0,1,4.64-2.58,5.35,5.35,0,0,1,2.93.76,7.16,7.16,0,0,1,2.29,2.81A9.2,9.2,0,0,1,208.07,195.89Zm-2.89,0a6.69,6.69,0,0,0-1.31-4.1,2.49,2.49,0,0,0-2.09-1,2.56,2.56,0,0,0-2.14,1.07,6.35,6.35,0,0,0-1.25,4v3.16a6.63,6.63,0,0,0,1.32,4.11,2.48,2.48,0,0,0,2.09,1,2.59,2.59,0,0,0,2.13-1.07,6.38,6.38,0,0,0,1.25-4Z"/></g><path class="cls-3" d="M189.74,383.47s2.79,46.75,2.78,49S194.73,488,194.73,488H176"/><polyline class="cls-3" points="232.43 383.47 229.43 435.74 227.45 488.01 245.06 488.01"/><rect class="cls-4" x="122.51" y="257.82" width="171.26" height="38.29" rx="12"/><ellipse class="cls-5" cx="209.7" cy="386.28" rx="63.04" ry="27.19"/><ellipse class="cls-6" cx="209.06" cy="151.22" rx="75.26" ry="29.88"/><path class="cls-7" d="M133.8,151.22c0,16.5,33.69,29.88,75.26,29.88s75.26-13.38,75.26-29.88c0,0,.44,216.63,0,221.3-1.55,16.43-33.7,29.88-75.26,29.88S133.8,389,133.8,372.52Z"/><path class="cls-8" d="M146.66,370.35V167.91a67,67,0,0,0,7.91,3.89V393.1a67,67,0,0,1-7.91-3.89Z"/><path class="cls-8" d="M181.44,356.13V179c-2.72-.42-5.36-.91-7.91-1.45V398.8c2.55.54,5.19,1,7.91,1.45Z"/><path class="cls-8" d="M216.05,398.24V181.1c-2.3.08-4.64.13-7,.13h-.92v221.3h.92c2.36,0,4.69,0,7-.13Z"/><polygon class="cls-8" points="237.06 400.24 237.06 178.99 244.96 177.51 244.96 398.72 237.06 400.24"/><path class="cls-8" d="M264.83,373.76v18.52c2.38-1.14,6.34-3.3,7.91-4.3V167.23a83.69,83.69,0,0,1-7.91,4.05"/><path class="cls-4" d="M131.16,318v55c0,16.5,35.19,29.88,78.59,29.88s77-13.45,78.59-29.88c.15-1.54.2-25.9.21-57.93l-.21-37.78c0,16.5-35.18,29.88-78.59,29.88s-78.59-13.38-78.59-29.88Z"/><path class="cls-9" d="M153.73,202.17a3.6,3.6,0,0,1-1.19-.21,3.47,3.47,0,0,1-2.07-4.45c3-8.2,12.82-16.41,25.92-16.41h.43a3.47,3.47,0,0,1,3.42,3.52,3.43,3.43,0,0,1-3.52,3.42h-.34c-11,0-17.71,7.23-19.39,11.84A3.47,3.47,0,0,1,153.73,202.17Z"/><path class="cls-9" d="M264.81,202.17a3.47,3.47,0,0,1-3.26-2.28c-1.7-4.66-8.55-12-19.73-11.85a3.47,3.47,0,1,1-.09-6.94h.43c13.09,0,22.93,8.21,25.91,16.41A3.47,3.47,0,0,1,266,202,3.51,3.51,0,0,1,264.81,202.17Z"/><path class="cls-10" d="M170.44,258.05c0,.22,0,.44,0,.67,0,17.4,17.85,31.5,39.86,31.5s39.86-14.1,39.86-31.5c0-.23,0-.45,0-.67Z"/><path class="cls-11" d="M170.35,257.88c0,.22,0,.6,0,.83a25.61,25.61,0,0,0,2.38,10.75h75.14a25.61,25.61,0,0,0,2.38-10.75c0-.23,0-.61,0-.83Z"/><path class="cls-12" d="M210.28,290.22a46.66,46.66,0,0,0,24.93-6.92,31.41,31.41,0,0,0-4.76-3.93c-8.13-5.46-17.44-6.38-22.9-2.78-7.78-2.71-15.37-1.56-18.77,3.5a10,10,0,0,0-1.6,4.29A47.09,47.09,0,0,0,210.28,290.22Z"/><circle class="cls-11" cx="179.44" cy="223.66" r="20.04"/><path class="cls-10" d="M186.63,223.66a7.19,7.19,0,1,1-7.19-7.19A7.18,7.18,0,0,1,186.63,223.66Z"/><circle class="cls-11" cx="237.21" cy="223.66" r="20.04"/><path class="cls-10" d="M244.39,223.66a7.19,7.19,0,1,1-7.18-7.19A7.17,7.17,0,0,1,244.39,223.66Z"/><g id="mask"><circle class="cls-13" cx="238.23" cy="223.43" r="24.42" transform="translate(-32.71 41.05) rotate(-9.22)"/><circle class="cls-14" cx="179.1" cy="223.43" r="24.42" transform="translate(-81.42 342.28) rotate(-75.81)"/><polygon class="cls-15" points="153.68 223.86 133.8 214.55 133.8 210.28 155.05 220.94 153.68 223.86"/><polygon class="cls-15" points="263.56 223.86 284.51 214.53 284.51 210.99 262.19 220.94 263.56 223.86"/><path class="cls-15" d="M153.05,223.64a26.06,26.06,0,0,0,51.77,4.27l.13-.75h7.53l.12.75a26.09,26.09,0,1,0-.33-5.13l0,.86h-7.06l0-.86a26.06,26.06,0,0,0-52.1.86Zm69.31-15.94a22.55,22.55,0,1,1,31.88,31.89h0a22.55,22.55,0,0,1-31.88-31.89Zm-43.26-6.6a22.55,22.55,0,0,1,16,38.49h0a22.55,22.55,0,1,1-16-38.49Z"/><path class="cls-16" d="M220.92,212.74c3.53-5.34,7.13-6.8,7.13-6.8l2.79,2.11a22,22,0,0,0-5.74,6.29,19.31,19.31,0,0,0-2.61,7l-4.6-.9A17.94,17.94,0,0,1,220.92,212.74Z"/><path class="cls-17" d="M161.8,212.74c3.54-5.34,7-6.8,7-6.8l2.91,2.11a22.21,22.21,0,0,0-5.74,6.29,19.16,19.16,0,0,0-2.6,7l-4.6-.9A17.83,17.83,0,0,1,161.8,212.74Z"/></g><path class="cls-3" d="M134.79,303.09h0s-29.52,20.56-23.4,34.21"/><path class="cls-18" d="M69.32,356.65l0,.07h0l0-.06m-.08-.79a2.38,2.38,0,0,0,0,.37c0-.12,0-.25,0-.37"/><path class="cls-19" d="M17.14,303.61c-.9-1.34-1.43-4.15,3.78-5.29C26.66,297.05,17.79,304.58,17.14,303.61Z"/><polyline class="cls-20" points="132.91 338.1 169.49 326.79 66 348.42 132.91 338.1"/><rect class="cls-19" x="129.74" y="332.18" width="42.71" height="4.27" rx="1.6" transform="translate(-86.62 54.87) rotate(-16.07)"/><path class="cls-21" d="M130.74,340.8v0a1.74,1.74,0,0,0,2.25.92L170.37,331a1.74,1.74,0,0,0,1.42-2v0Z"/><polyline class="cls-22" points="133.63 333.81 134.21 334.67 134.43 335 169.49 326.79 133.63 333.81"/><path class="cls-23" d="M135.12,336.07s2,3.29-2.46,5.69C129,343.73,132.26,336.86,135.12,336.07Z"/><path class="cls-19" d="M133.06,340.05,57.5,356.34a2.88,2.88,0,0,1-3-1.21L19.13,302.75a2.88,2.88,0,0,1,1.79-4.43L96.48,282a2.9,2.9,0,0,1,3,1.21l35.36,52.38a2.89,2.89,0,0,1-1.78,4.44"/><path class="cls-24" d="M131.84,342.07,56.28,358.36a2.88,2.88,0,0,1-3-1.21L17.21,303.72a2,2,0,0,1,1.25-3.11l76.81-16.56a2.88,2.88,0,0,1,3,1.2l35.37,52.38a2.89,2.89,0,0,1-1.79,4.44"/><polyline class="cls-25" points="111.18 304.39 112.79 306.77 111.18 304.39"/><polyline class="cls-26" points="97.22 349.53 97.22 349.53 97.25 349.52 97.25 349.52 97.22 349.53"/><polygon class="cls-19" points="72.41 316.86 72.21 320.67 73.35 320.92 73.42 319.5 77.34 323.68 77.53 319.87 76.37 319.61 76.29 320.99 72.41 316.86"/><path class="cls-19" d="M79.35,316.26a10.24,10.24,0,0,0-2.53-1.46,9.75,9.75,0,0,0-2.81-.67,7.65,7.65,0,0,0-2.77.26,5.43,5.43,0,0,0-2.19,1.17,4.34,4.34,0,0,0-1.23,1.83,4.72,4.72,0,0,0-.2,2.25,6.33,6.33,0,0,0,.94,2.41,8.6,8.6,0,0,0,1.93,2.13A10.12,10.12,0,0,0,73,325.64a9.68,9.68,0,0,0,2.81.67,7.82,7.82,0,0,0,2.76-.26,5.56,5.56,0,0,0,2.19-1.17A4.36,4.36,0,0,0,82,323.05a4.72,4.72,0,0,0,.19-2.25,6.31,6.31,0,0,0-.93-2.41A8.47,8.47,0,0,0,79.35,316.26Zm-1.33,9-3.9-4.17,0,.55-2.71-.58.33-5.84,3.91,4.17,0-.56,2.63.57Z"/><line class="cls-3" x1="96.43" y1="349.11" x2="83.62" y2="351.63"/><line class="cls-3" x1="90.39" y1="349.68" x2="87.93" y2="346"/><line class="cls-3" x1="83.62" y1="351.63" x2="81.16" y2="347.95"/><line class="cls-3" x1="97.07" y1="348.87" x2="94.61" y2="345.19"/><path class="cls-3" d="M324.81,344.86h0s-25.37,1.83-32.21-11.48c-10.12-19.68-10.13-30.16-10.13-30.16"/><line class="cls-3" x1="329.47" y1="346.59" x2="321.08" y2="346.75"/><line class="cls-3" x1="329.68" y1="340.58" x2="321.29" y2="340.75"/><line class="cls-3" x1="320.54" y1="330.38" x2="319.94" y2="350.12"/><line class="cls-3" x1="329.47" y1="350.2" x2="321.08" y2="350.36"/><path class="cls-11" d="M221,325.29a.84.84,0,0,1,.39.82c0,1.92,0,3.84,0,5.76,0,.57-.2.77-.77.77h-6.58c-.58,0-.77-.19-.77-.77,0-1.92,0-3.85,0-5.77a.85.85,0,0,1,.4-.81Z"/><path class="cls-11" d="M237.59,350.52c-2.83-5.18-1.66-9.88,1.44-14.45a12.37,12.37,0,0,1,6.78,9c.91-.07,1.82-.18,2.74-.22a12.25,12.25,0,0,1,5.49.89,16.63,16.63,0,0,1,1.89,1.14c.26.15.29.32.19.6a10.28,10.28,0,0,1-5.94,6.29,13.2,13.2,0,0,1-5.59,1,.55.55,0,0,0-.62.42,51.52,51.52,0,0,1-5.43,10.44,35,35,0,0,1-19.8,14,50.87,50.87,0,0,1-23.83.71,21.23,21.23,0,0,1-7.82-3.26,19.22,19.22,0,0,1-6.18-7.84,30.76,30.76,0,0,1-2.61-9.45c-.2-1.74-.27-3.49-.37-5.24a2.52,2.52,0,0,1,2.67-2.71q25.53,0,51.05,0a13.86,13.86,0,0,0,5.53-1.14Z"/><path class="cls-11" d="M198.17,343h3.23c.6,0,.81.2.81.79v5.8c0,.57-.21.78-.78.78h-6.59c-.57,0-.77-.21-.77-.79v-5.8c0-.57.22-.78.78-.78Z"/><path class="cls-11" d="M198.16,341.51h-3.27c-.6,0-.82-.21-.82-.79v-5.8c0-.57.22-.79.78-.79h6.59c.56,0,.77.22.77.79v5.81c0,.56-.22.78-.78.78Z"/><path class="cls-11" d="M207.81,343h3.28c.57,0,.79.21.79.76q0,2.92,0,5.85c0,.54-.21.76-.76.76H204.5c-.55,0-.76-.22-.76-.76q0-2.93,0-5.85c0-.54.23-.76.76-.76Z"/><path class="cls-11" d="M227,343h3.28c.54,0,.77.22.77.75v5.85c0,.55-.21.77-.75.77h-6.66c-.52,0-.73-.23-.73-.75q0-2.92,0-5.85c0-.56.22-.77.78-.77Z"/><path class="cls-11" d="M207.8,341.51h-3.27c-.56,0-.79-.22-.79-.77v-5.81c0-.59.22-.8.81-.8h6.54c.57,0,.79.21.79.78,0,1.94,0,3.89,0,5.84,0,.54-.23.76-.76.76Z"/><path class="cls-11" d="M188.59,350.35h-3.27c-.57,0-.77-.2-.77-.78v-5.8c0-.57.21-.78.78-.78h6.58c.55,0,.77.21.77.75,0,1.94,0,3.89,0,5.84,0,.58-.21.77-.78.77Z"/><path class="cls-11" d="M217.35,341.51h-3.27c-.57,0-.77-.21-.77-.78v-5.8c0-.59.19-.78.76-.78h6.59c.57,0,.77.19.77.77v5.8c0,.59-.21.79-.81.79Z"/><path class="cls-11" d="M217.37,350.35h-3.31c-.55,0-.75-.2-.75-.75v-5.84c0-.57.2-.77.78-.77h6.55c.59,0,.79.2.79.8v5.8c0,.55-.2.76-.75.76Z"/><path class="cls-27" d="M264.2,171.58c-1.8-37.39-105.82-35.91-109.15.55C182.33,184.33,237.14,183.89,264.2,171.58Z"/></svg>