<svg id="Layer_1" data-name="Layer 1" xmlns="http://www.w3.org/2000/svg" xmlns:xlink="http://www.w3.org/1999/xlink" viewBox="0 0 432 576"><defs><style>.cls-1{opacity:0.05;}.cls-2{fill:#040d21;}.cls-3{fill:none;stroke:#000;stroke-linecap:round;stroke-linejoin:round;stroke-width:8px;}.cls-4{fill:#ededed;}.cls-5{fill:#2d313f;}.cls-6{fill:#feaf06;}.cls-7{fill:#fbd82b;}.cls-8{fill:#ffe278;}.cls-9{fill:url(#radial-gradient);}.cls-10{fill:#b57817;}.cls-11{fill:#701d1d;}.cls-12,.cls-17,.cls-18{fill:#fff;}.cls-13{fill:#f70000;}.cls-14,.cls-15{opacity:0.2;}.cls-14{fill:url(#linear-gradient);}.cls-15{fill:url(#linear-gradient-2);}.cls-16{fill:#0062b2;}.cls-17{opacity:0.6;}.cls-18{opacity:0.7;}.cls-19{fill:#f2f2f2;}.cls-20{fill:#c9c9c9;}.cls-21{fill:#677077;}.cls-22{fill:#b8b8b8;}.cls-23{fill:#858d92;}.cls-24{fill:#ccc;}.cls-25{fill:#d9d9d9;}.cls-26{fill:#b4b4b4;}.cls-27{fill:#3174b9;}.cls-27,.cls-28{fill-rule:evenodd;}.cls-28{fill:#ca3132;}</style><radialGradient id="radial-gradient" cx="212.45" cy="173.23" r="55.03" gradientTransform="translate(-109.17 385.69) rotate(-90) scale(1 1.86)" gradientUnits="userSpaceOnUse"><stop offset="0" stop-color="#f7991f"/><stop offset="0.67" stop-color="#feaf06"/></radialGradient><linearGradient id="linear-gradient" x1="241.43" y1="242.78" x2="241.43" y2="193.94" gradientTransform="translate(38.09 -35.85) rotate(9.22)" gradientUnits="userSpaceOnUse"><stop offset="0.36" stop-color="#fff"/><stop offset="0.42" stop-color="#f5f9fc"/><stop offset="0.51" stop-color="#dae8f4"/><stop offset="0.62" stop-color="#aecde6"/><stop offset="0.76" stop-color="#70a7d4"/><stop offset="0.92" stop-color="#2378bd"/><stop offset="0.99" stop-color="#0062b2"/></linearGradient><linearGradient id="linear-gradient-2" x1="182.29" y1="242.78" x2="182.29" y2="193.94" gradientTransform="translate(349.3 -11.91) rotate(75.81)" xlink:href="#linear-gradient"/></defs><g class="cls-1"><path class="cls-2" d="M225,233.74v15.77h2.9a2.2,2.2,0,0,1,1.49.4,1.37,1.37,0,0,1,.44,1.05,1.34,1.34,0,0,1-.44,1,2.2,2.2,0,0,1-1.49.4H219.2a2.2,2.2,0,0,1-1.49-.4,1.45,1.45,0,0,1,0-2.08,2.2,2.2,0,0,1,1.49-.4h2.91v-12l-2.58.67a4,4,0,0,1-.92.17,1.25,1.25,0,0,1-1-.44,1.49,1.49,0,0,1-.4-1.06,1.34,1.34,0,0,1,.29-.91,2.68,2.68,0,0,1,1.24-.58Z"/><path class="cls-2" d="M247.08,241.7v3.16a9.87,9.87,0,0,1-1.63,5.38,5.16,5.16,0,0,1-4.64,2.57,5.36,5.36,0,0,1-2.94-.76,7.15,7.15,0,0,1-2.28-2.83,9.23,9.23,0,0,1-1.08-4.36V241.7a10,10,0,0,1,1.62-5.38,5.16,5.16,0,0,1,4.64-2.58,5.43,5.43,0,0,1,2.93.76,7.37,7.37,0,0,1,2.29,2.82A9.29,9.29,0,0,1,247.08,241.7Zm-2.9,0a6.61,6.61,0,0,0-1.31-4.1,2.46,2.46,0,0,0-2.09-1,2.57,2.57,0,0,0-2.13,1.06,6.34,6.34,0,0,0-1.26,4v3.16a6.54,6.54,0,0,0,1.33,4.1,2.44,2.44,0,0,0,2.09,1,2.55,2.55,0,0,0,2.12-1.07,6.35,6.35,0,0,0,1.25-4Z"/><path class="cls-2" d="M259.53,233.74v15.77h2.91a2.18,2.18,0,0,1,1.48.4,1.37,1.37,0,0,1,.44,1.05,1.34,1.34,0,0,1-.44,1,2.18,2.18,0,0,1-1.48.4h-8.7a2.15,2.15,0,0,1-1.48-.4,1.43,1.43,0,0,1,0-2.08,2.15,2.15,0,0,1,1.48-.4h2.91v-12l-2.58.67a4,4,0,0,1-.92.17,1.25,1.25,0,0,1-1-.44,1.49,1.49,0,0,1-.4-1.06,1.34,1.34,0,0,1,.29-.91,2.68,2.68,0,0,1,1.24-.58Z"/><path class="cls-2" d="M281.61,241.7v3.16a9.94,9.94,0,0,1-1.62,5.38,5.16,5.16,0,0,1-4.64,2.57,5.42,5.42,0,0,1-3-.76,7.14,7.14,0,0,1-2.27-2.83,9.23,9.23,0,0,1-1.08-4.36V241.7a10,10,0,0,1,1.62-5.38,5.16,5.16,0,0,1,4.64-2.58,5.46,5.46,0,0,1,2.93.76,7.37,7.37,0,0,1,2.29,2.82A9.28,9.28,0,0,1,281.61,241.7Zm-2.89,0a6.61,6.61,0,0,0-1.31-4.1,2.46,2.46,0,0,0-2.09-1,2.6,2.6,0,0,0-2.14,1.06,6.39,6.39,0,0,0-1.25,4v3.16a6.6,6.6,0,0,0,1.32,4.1,2.47,2.47,0,0,0,2.1,1,2.55,2.55,0,0,0,2.12-1.07,6.35,6.35,0,0,0,1.25-4Z"/><path class="cls-2" d="M229.81,292.09v3.16a9.9,9.9,0,0,1-1.63,5.39,5.18,5.18,0,0,1-4.64,2.57,5.36,5.36,0,0,1-2.94-.77,7.18,7.18,0,0,1-2.28-2.82,9.27,9.27,0,0,1-1.08-4.37v-3.16a10,10,0,0,1,1.62-5.37,5.16,5.16,0,0,1,4.64-2.58,5.35,5.35,0,0,1,2.93.76,7.21,7.21,0,0,1,2.29,2.82A9.28,9.28,0,0,1,229.81,292.09Zm-2.9,0a6.63,6.63,0,0,0-1.31-4.1,2.46,2.46,0,0,0-2.09-1,2.55,2.55,0,0,0-2.13,1.07,6.29,6.29,0,0,0-1.26,4v3.16a6.55,6.55,0,0,0,1.33,4.11,2.46,2.46,0,0,0,2.09,1,2.57,2.57,0,0,0,2.12-1.07,6.38,6.38,0,0,0,1.25-4Z"/><path class="cls-2" d="M242.26,284.14v15.77h2.9a2.2,2.2,0,0,1,1.49.4,1.34,1.34,0,0,1,.44,1,1.37,1.37,0,0,1-.44,1,2.25,2.25,0,0,1-1.49.4h-8.69a2.2,2.2,0,0,1-1.48-.4,1.35,1.35,0,0,1-.45-1.05,1.31,1.31,0,0,1,.45-1,2.15,2.15,0,0,1,1.48-.4h2.91v-12l-2.58.67a3.55,3.55,0,0,1-.92.17,1.24,1.24,0,0,1-.95-.43,1.51,1.51,0,0,1-.4-1.07,1.36,1.36,0,0,1,.29-.91,2.68,2.68,0,0,1,1.24-.58Z"/><path class="cls-2" d="M259.53,284.14v15.77h2.91a2.18,2.18,0,0,1,1.48.4,1.34,1.34,0,0,1,.44,1,1.37,1.37,0,0,1-.44,1,2.24,2.24,0,0,1-1.48.4h-8.7a2.2,2.2,0,0,1-1.48-.4,1.35,1.35,0,0,1-.45-1.05,1.31,1.31,0,0,1,.45-1,2.15,2.15,0,0,1,1.48-.4h2.91v-12l-2.58.67a3.55,3.55,0,0,1-.92.17,1.24,1.24,0,0,1-1-.43,1.51,1.51,0,0,1-.4-1.07,1.36,1.36,0,0,1,.29-.91,2.68,2.68,0,0,1,1.24-.58Z"/><path class="cls-2" d="M281.61,292.09v3.16a10,10,0,0,1-1.62,5.39,5.18,5.18,0,0,1-4.64,2.57,5.42,5.42,0,0,1-3-.77,7.17,7.17,0,0,1-2.27-2.82,9.27,9.27,0,0,1-1.08-4.37v-3.16a10,10,0,0,1,1.62-5.37,5.16,5.16,0,0,1,4.64-2.58,5.37,5.37,0,0,1,2.93.76,7.21,7.21,0,0,1,2.29,2.82A9.27,9.27,0,0,1,281.61,292.09Zm-2.89,0a6.63,6.63,0,0,0-1.31-4.1,2.46,2.46,0,0,0-2.09-1,2.58,2.58,0,0,0-2.14,1.07,6.35,6.35,0,0,0-1.25,4v3.16a6.61,6.61,0,0,0,1.32,4.11,2.49,2.49,0,0,0,2.1,1,2.57,2.57,0,0,0,2.12-1.07,6.38,6.38,0,0,0,1.25-4Z"/><path class="cls-2" d="M229.81,267v3.16a9.9,9.9,0,0,1-1.63,5.39,5.18,5.18,0,0,1-4.64,2.57,5.36,5.36,0,0,1-2.94-.77,7.18,7.18,0,0,1-2.28-2.82,9.27,9.27,0,0,1-1.08-4.37V267a10,10,0,0,1,1.62-5.37,5.16,5.16,0,0,1,4.64-2.58,5.35,5.35,0,0,1,2.93.76,7.21,7.21,0,0,1,2.29,2.82A9.28,9.28,0,0,1,229.81,267Zm-2.9,0a6.63,6.63,0,0,0-1.31-4.1,2.46,2.46,0,0,0-2.09-1,2.58,2.58,0,0,0-2.13,1.07,6.29,6.29,0,0,0-1.26,4v3.16a6.55,6.55,0,0,0,1.33,4.11,2.46,2.46,0,0,0,2.09,1,2.57,2.57,0,0,0,2.12-1.07,6.38,6.38,0,0,0,1.25-4Z"/><path class="cls-2" d="M242.26,259.08v15.77h2.9a2.2,2.2,0,0,1,1.49.4,1.34,1.34,0,0,1,.44,1,1.37,1.37,0,0,1-.44,1,2.25,2.25,0,0,1-1.49.4h-8.69a2.2,2.2,0,0,1-1.48-.4,1.35,1.35,0,0,1-.45-1.05,1.31,1.31,0,0,1,.45-1,2.15,2.15,0,0,1,1.48-.4h2.91v-12l-2.58.67a3.55,3.55,0,0,1-.92.17,1.24,1.24,0,0,1-.95-.43,1.51,1.51,0,0,1-.4-1.07,1.36,1.36,0,0,1,.29-.91,2.68,2.68,0,0,1,1.24-.58Z"/><path class="cls-2" d="M264.35,267v3.16a9.9,9.9,0,0,1-1.63,5.39,5.18,5.18,0,0,1-4.64,2.57,5.36,5.36,0,0,1-2.94-.77,7.18,7.18,0,0,1-2.28-2.82,9.27,9.27,0,0,1-1.08-4.37V267a10,10,0,0,1,1.62-5.37,5.16,5.16,0,0,1,4.64-2.58,5.35,5.35,0,0,1,2.93.76,7.21,7.21,0,0,1,2.29,2.82A9.28,9.28,0,0,1,264.35,267Zm-2.9,0a6.63,6.63,0,0,0-1.31-4.1,2.46,2.46,0,0,0-2.09-1,2.58,2.58,0,0,0-2.13,1.07,6.29,6.29,0,0,0-1.26,4v3.16A6.55,6.55,0,0,0,256,274.3a2.46,2.46,0,0,0,2.09,1,2.57,2.57,0,0,0,2.12-1.07,6.38,6.38,0,0,0,1.25-4Z"/><path class="cls-2" d="M281.61,267v3.16a10,10,0,0,1-1.62,5.39,5.18,5.18,0,0,1-4.64,2.57,5.42,5.42,0,0,1-3-.77,7.17,7.17,0,0,1-2.27-2.82,9.27,9.27,0,0,1-1.08-4.37V267a10,10,0,0,1,1.62-5.37,5.16,5.16,0,0,1,4.64-2.58,5.37,5.37,0,0,1,2.93.76,7.21,7.21,0,0,1,2.29,2.82A9.27,9.27,0,0,1,281.61,267Zm-2.89,0a6.63,6.63,0,0,0-1.31-4.1,2.46,2.46,0,0,0-2.09-1,2.61,2.61,0,0,0-2.14,1.07,6.35,6.35,0,0,0-1.25,4v3.16a6.61,6.61,0,0,0,1.32,4.11,2.49,2.49,0,0,0,2.1,1,2.57,2.57,0,0,0,2.12-1.07,6.38,6.38,0,0,0,1.25-4Z"/><path class="cls-2" d="M295.4,233.74v15.77h2.91a2.17,2.17,0,0,1,1.48.4,1.35,1.35,0,0,1,.45,1.05,1.32,1.32,0,0,1-.45,1,2.17,2.17,0,0,1-1.48.4h-8.7a2.17,2.17,0,0,1-1.48-.4,1.33,1.33,0,0,1-.44-1.05,1.31,1.31,0,0,1,.44-1,2.17,2.17,0,0,1,1.48-.4h2.91v-12l-2.57.67a4,4,0,0,1-.93.17,1.27,1.27,0,0,1-.95-.44,1.53,1.53,0,0,1-.4-1.06,1.3,1.3,0,0,1,.3-.91,2.63,2.63,0,0,1,1.23-.58Z"/><path class="cls-2" d="M317.49,241.7v3.16a9.94,9.94,0,0,1-1.62,5.38,5.17,5.17,0,0,1-4.65,2.57,5.36,5.36,0,0,1-2.94-.76,7.24,7.24,0,0,1-2.28-2.83,9.34,9.34,0,0,1-1.07-4.36V241.7a10,10,0,0,1,1.61-5.38,5.17,5.17,0,0,1,4.64-2.58,5.43,5.43,0,0,1,2.93.76,7.28,7.28,0,0,1,2.29,2.82A9.17,9.17,0,0,1,317.49,241.7Zm-2.89,0a6.67,6.67,0,0,0-1.31-4.1,2.48,2.48,0,0,0-2.09-1,2.58,2.58,0,0,0-2.14,1.06,6.39,6.39,0,0,0-1.25,4v3.16a6.6,6.6,0,0,0,1.32,4.1,2.46,2.46,0,0,0,2.09,1,2.57,2.57,0,0,0,2.13-1.07,6.35,6.35,0,0,0,1.25-4Z"/><path class="cls-2" d="M329.94,233.74v15.77h2.91a2.17,2.17,0,0,1,1.48.4,1.35,1.35,0,0,1,.45,1.05,1.32,1.32,0,0,1-.45,1,2.17,2.17,0,0,1-1.48.4h-8.7a2.17,2.17,0,0,1-1.48-.4,1.33,1.33,0,0,1-.44-1.05,1.31,1.31,0,0,1,.44-1,2.17,2.17,0,0,1,1.48-.4h2.91v-12l-2.57.67a4,4,0,0,1-.93.17,1.27,1.27,0,0,1-.95-.44,1.53,1.53,0,0,1-.4-1.06,1.3,1.3,0,0,1,.3-.91,2.63,2.63,0,0,1,1.23-.58Z"/><path class="cls-2" d="M352,241.7v3.16a9.94,9.94,0,0,1-1.62,5.38,5.17,5.17,0,0,1-4.65,2.57,5.36,5.36,0,0,1-2.94-.76,7.24,7.24,0,0,1-2.28-2.83,9.34,9.34,0,0,1-1.07-4.36V241.7a10,10,0,0,1,1.61-5.38,5.17,5.17,0,0,1,4.64-2.58,5.43,5.43,0,0,1,2.93.76,7.28,7.28,0,0,1,2.29,2.82A9.17,9.17,0,0,1,352,241.7Zm-2.89,0a6.67,6.67,0,0,0-1.31-4.1,2.49,2.49,0,0,0-2.1-1,2.57,2.57,0,0,0-2.13,1.06,6.39,6.39,0,0,0-1.25,4v3.16a6.6,6.6,0,0,0,1.32,4.1,2.45,2.45,0,0,0,2.09,1,2.58,2.58,0,0,0,2.13-1.07,6.35,6.35,0,0,0,1.25-4Z"/><path class="cls-2" d="M300.22,292.09v3.16a10,10,0,0,1-1.62,5.39,5.19,5.19,0,0,1-4.65,2.57,5.36,5.36,0,0,1-2.94-.77,7.27,7.27,0,0,1-2.28-2.82,9.38,9.38,0,0,1-1.07-4.37v-3.16a10,10,0,0,1,1.61-5.37,5.17,5.17,0,0,1,4.64-2.58,5.35,5.35,0,0,1,2.93.76,7.13,7.13,0,0,1,2.29,2.82A9.16,9.16,0,0,1,300.22,292.09Zm-2.89,0A6.69,6.69,0,0,0,296,288a2.48,2.48,0,0,0-2.09-1,2.56,2.56,0,0,0-2.14,1.07,6.35,6.35,0,0,0-1.25,4v3.16a6.61,6.61,0,0,0,1.32,4.11,2.49,2.49,0,0,0,2.09,1,2.59,2.59,0,0,0,2.13-1.07,6.38,6.38,0,0,0,1.25-4Z"/><path class="cls-2" d="M312.67,284.14v15.77h2.91a2.17,2.17,0,0,1,1.48.4,1.31,1.31,0,0,1,.45,1,1.34,1.34,0,0,1-.45,1,2.22,2.22,0,0,1-1.48.4h-8.7a2.22,2.22,0,0,1-1.48-.4,1.34,1.34,0,0,1-.44-1.05,1.3,1.3,0,0,1,.44-1,2.17,2.17,0,0,1,1.48-.4h2.91v-12l-2.57.67a3.54,3.54,0,0,1-.93.17,1.26,1.26,0,0,1-1-.43,1.56,1.56,0,0,1-.4-1.07,1.31,1.31,0,0,1,.3-.91,2.63,2.63,0,0,1,1.23-.58Z"/><path class="cls-2" d="M329.94,284.14v15.77h2.91a2.17,2.17,0,0,1,1.48.4,1.31,1.31,0,0,1,.45,1,1.34,1.34,0,0,1-.45,1,2.22,2.22,0,0,1-1.48.4h-8.7a2.22,2.22,0,0,1-1.48-.4,1.34,1.34,0,0,1-.44-1.05,1.3,1.3,0,0,1,.44-1,2.17,2.17,0,0,1,1.48-.4h2.91v-12l-2.57.67a3.54,3.54,0,0,1-.93.17,1.26,1.26,0,0,1-.95-.43,1.56,1.56,0,0,1-.4-1.07,1.31,1.31,0,0,1,.3-.91,2.63,2.63,0,0,1,1.23-.58Z"/><path class="cls-2" d="M352,292.09v3.16a10,10,0,0,1-1.62,5.39,5.19,5.19,0,0,1-4.65,2.57,5.36,5.36,0,0,1-2.94-.77,7.27,7.27,0,0,1-2.28-2.82,9.38,9.38,0,0,1-1.07-4.37v-3.16a10,10,0,0,1,1.61-5.37,5.17,5.17,0,0,1,4.64-2.58,5.35,5.35,0,0,1,2.93.76,7.13,7.13,0,0,1,2.29,2.82A9.16,9.16,0,0,1,352,292.09Zm-2.89,0a6.69,6.69,0,0,0-1.31-4.1,2.49,2.49,0,0,0-2.1-1,2.55,2.55,0,0,0-2.13,1.07,6.35,6.35,0,0,0-1.25,4v3.16a6.61,6.61,0,0,0,1.32,4.11,2.48,2.48,0,0,0,2.09,1,2.61,2.61,0,0,0,2.13-1.07,6.38,6.38,0,0,0,1.25-4Z"/><path class="cls-2" d="M300.22,267v3.16a10,10,0,0,1-1.62,5.39,5.19,5.19,0,0,1-4.65,2.57,5.36,5.36,0,0,1-2.94-.77,7.27,7.27,0,0,1-2.28-2.82,9.38,9.38,0,0,1-1.07-4.37V267a10,10,0,0,1,1.61-5.37,5.17,5.17,0,0,1,4.64-2.58,5.35,5.35,0,0,1,2.93.76,7.13,7.13,0,0,1,2.29,2.82A9.16,9.16,0,0,1,300.22,267Zm-2.89,0a6.69,6.69,0,0,0-1.31-4.1,2.48,2.48,0,0,0-2.09-1,2.58,2.58,0,0,0-2.14,1.07,6.35,6.35,0,0,0-1.25,4v3.16a6.61,6.61,0,0,0,1.32,4.11,2.49,2.49,0,0,0,2.09,1,2.59,2.59,0,0,0,2.13-1.07,6.38,6.38,0,0,0,1.25-4Z"/><path class="cls-2" d="M312.67,259.08v15.77h2.91a2.17,2.17,0,0,1,1.48.4,1.31,1.31,0,0,1,.45,1,1.34,1.34,0,0,1-.45,1,2.22,2.22,0,0,1-1.48.4h-8.7a2.22,2.22,0,0,1-1.48-.4,1.34,1.34,0,0,1-.44-1.05,1.3,1.3,0,0,1,.44-1,2.17,2.17,0,0,1,1.48-.4h2.91v-12l-2.57.67a3.54,3.54,0,0,1-.93.17,1.26,1.26,0,0,1-1-.43,1.56,1.56,0,0,1-.4-1.07,1.31,1.31,0,0,1,.3-.91,2.63,2.63,0,0,1,1.23-.58Z"/><path class="cls-2" d="M334.76,267v3.16a10,10,0,0,1-1.62,5.39,5.19,5.19,0,0,1-4.65,2.57,5.36,5.36,0,0,1-2.94-.77,7.27,7.27,0,0,1-2.28-2.82,9.38,9.38,0,0,1-1.07-4.37V267a10,10,0,0,1,1.61-5.37,5.17,5.17,0,0,1,4.64-2.58,5.35,5.35,0,0,1,2.93.76,7.13,7.13,0,0,1,2.29,2.82A9.16,9.16,0,0,1,334.76,267Zm-2.89,0a6.69,6.69,0,0,0-1.31-4.1,2.48,2.48,0,0,0-2.09-1,2.58,2.58,0,0,0-2.14,1.07,6.35,6.35,0,0,0-1.25,4v3.16a6.61,6.61,0,0,0,1.32,4.11,2.49,2.49,0,0,0,2.09,1,2.59,2.59,0,0,0,2.13-1.07,6.38,6.38,0,0,0,1.25-4Z"/><path class="cls-2" d="M352,267v3.16a10,10,0,0,1-1.62,5.39,5.19,5.19,0,0,1-4.65,2.57,5.36,5.36,0,0,1-2.94-.77,7.27,7.27,0,0,1-2.28-2.82,9.38,9.38,0,0,1-1.07-4.37V267a10,10,0,0,1,1.61-5.37,5.17,5.17,0,0,1,4.64-2.58,5.35,5.35,0,0,1,2.93.76,7.13,7.13,0,0,1,2.29,2.82A9.16,9.16,0,0,1,352,267Zm-2.89,0a6.69,6.69,0,0,0-1.31-4.1,2.49,2.49,0,0,0-2.1-1A2.58,2.58,0,0,0,343.6,263a6.35,6.35,0,0,0-1.25,4v3.16a6.61,6.61,0,0,0,1.32,4.11,2.48,2.48,0,0,0,2.09,1,2.61,2.61,0,0,0,2.13-1.07,6.38,6.38,0,0,0,1.25-4Z"/><path class="cls-2" d="M225,157.54V173.3h2.91a2.22,2.22,0,0,1,1.48.4,1.34,1.34,0,0,1,.44,1.05,1.3,1.3,0,0,1-.44,1,2.17,2.17,0,0,1-1.48.4h-8.7a2.17,2.17,0,0,1-1.48-.4,1.3,1.3,0,0,1-.44-1,1.32,1.32,0,0,1,.44-1,2.22,2.22,0,0,1,1.48-.4h2.91v-12l-2.57.67a3.54,3.54,0,0,1-.93.17,1.26,1.26,0,0,1-1-.43,1.51,1.51,0,0,1-.4-1.07,1.3,1.3,0,0,1,.3-.91,2.63,2.63,0,0,1,1.23-.58Z"/><path class="cls-2" d="M247.09,165.49v3.16a9.91,9.91,0,0,1-1.62,5.38,5.19,5.19,0,0,1-4.65,2.58,5.36,5.36,0,0,1-2.94-.77A7.24,7.24,0,0,1,235.6,173a9.34,9.34,0,0,1-1.07-4.36v-3.16a10,10,0,0,1,1.61-5.37,5.17,5.17,0,0,1,4.64-2.58,5.35,5.35,0,0,1,2.93.76,7.16,7.16,0,0,1,2.29,2.81A9.2,9.2,0,0,1,247.09,165.49Zm-2.89,0a6.69,6.69,0,0,0-1.31-4.1,2.49,2.49,0,0,0-2.1-1,2.55,2.55,0,0,0-2.13,1.07,6.35,6.35,0,0,0-1.25,4v3.16a6.58,6.58,0,0,0,1.32,4.1,2.46,2.46,0,0,0,2.09,1,2.57,2.57,0,0,0,2.12-1.07,6.34,6.34,0,0,0,1.26-4Z"/><path class="cls-2" d="M259.54,157.54V173.3h2.91a2.22,2.22,0,0,1,1.48.4,1.34,1.34,0,0,1,.44,1.05,1.3,1.3,0,0,1-.44,1,2.17,2.17,0,0,1-1.48.4h-8.7a2.17,2.17,0,0,1-1.48-.4,1.3,1.3,0,0,1-.44-1,1.32,1.32,0,0,1,.44-1,2.22,2.22,0,0,1,1.48-.4h2.91v-12l-2.57.67a3.54,3.54,0,0,1-.93.17,1.26,1.26,0,0,1-.95-.43,1.51,1.51,0,0,1-.4-1.07,1.3,1.3,0,0,1,.3-.91,2.63,2.63,0,0,1,1.23-.58Z"/><path class="cls-2" d="M281.63,165.49v3.16A9.91,9.91,0,0,1,280,174a5.19,5.19,0,0,1-4.65,2.58,5.36,5.36,0,0,1-2.94-.77,7.24,7.24,0,0,1-2.28-2.83,9.22,9.22,0,0,1-1.07-4.36v-3.16a10,10,0,0,1,1.61-5.37,5.17,5.17,0,0,1,4.64-2.58,5.35,5.35,0,0,1,2.93.76,7.25,7.25,0,0,1,2.29,2.81A9.2,9.2,0,0,1,281.63,165.49Zm-2.9,0a6.69,6.69,0,0,0-1.3-4.1,2.49,2.49,0,0,0-2.1-1,2.55,2.55,0,0,0-2.13,1.07,6.29,6.29,0,0,0-1.25,4v3.16a6.58,6.58,0,0,0,1.32,4.1,2.46,2.46,0,0,0,2.09,1,2.57,2.57,0,0,0,2.12-1.07,6.33,6.33,0,0,0,1.25-4Z"/><path class="cls-2" d="M229.82,215.88v3.17a10,10,0,0,1-1.62,5.38,5.2,5.2,0,0,1-4.65,2.57,5.36,5.36,0,0,1-2.94-.77,7.27,7.27,0,0,1-2.28-2.82,9.37,9.37,0,0,1-1.07-4.36v-3.17a10,10,0,0,1,1.61-5.37,5.17,5.17,0,0,1,4.64-2.58,5.35,5.35,0,0,1,2.93.76,7.2,7.2,0,0,1,2.29,2.82A9.16,9.16,0,0,1,229.82,215.88Zm-2.89,0a6.69,6.69,0,0,0-1.31-4.1,2.49,2.49,0,0,0-2.1-1,2.58,2.58,0,0,0-2.13,1.07,6.37,6.37,0,0,0-1.25,4v3.17a6.6,6.6,0,0,0,1.32,4.1,2.48,2.48,0,0,0,2.09,1,2.57,2.57,0,0,0,2.12-1.07,6.31,6.31,0,0,0,1.26-4Z"/><path class="cls-2" d="M242.27,207.93V223.7h2.91a2.17,2.17,0,0,1,1.48.4,1.3,1.3,0,0,1,.44,1,1.32,1.32,0,0,1-.44,1,2.22,2.22,0,0,1-1.48.4h-8.7a2.22,2.22,0,0,1-1.48-.4,1.34,1.34,0,0,1-.44-1.05,1.3,1.3,0,0,1,.44-1,2.17,2.17,0,0,1,1.48-.4h2.91v-12l-2.57.68a4,4,0,0,1-.93.17,1.27,1.27,0,0,1-.95-.44,1.51,1.51,0,0,1-.4-1.07,1.29,1.29,0,0,1,.3-.9,2.62,2.62,0,0,1,1.23-.59Z"/><path class="cls-2" d="M259.54,207.93V223.7h2.91a2.17,2.17,0,0,1,1.48.4,1.3,1.3,0,0,1,.44,1,1.32,1.32,0,0,1-.44,1,2.22,2.22,0,0,1-1.48.4h-8.7a2.22,2.22,0,0,1-1.48-.4,1.34,1.34,0,0,1-.44-1.05,1.3,1.3,0,0,1,.44-1,2.17,2.17,0,0,1,1.48-.4h2.91v-12l-2.57.68a4,4,0,0,1-.93.17,1.27,1.27,0,0,1-.95-.44,1.51,1.51,0,0,1-.4-1.07,1.29,1.29,0,0,1,.3-.9,2.62,2.62,0,0,1,1.23-.59Z"/><path class="cls-2" d="M281.63,215.88v3.17a10,10,0,0,1-1.62,5.38,5.2,5.2,0,0,1-4.65,2.57,5.36,5.36,0,0,1-2.94-.77,7.27,7.27,0,0,1-2.28-2.82,9.25,9.25,0,0,1-1.07-4.36v-3.17a10,10,0,0,1,1.61-5.37,5.17,5.17,0,0,1,4.64-2.58,5.35,5.35,0,0,1,2.93.76,7.29,7.29,0,0,1,2.29,2.82A9.16,9.16,0,0,1,281.63,215.88Zm-2.9,0a6.69,6.69,0,0,0-1.3-4.1,2.49,2.49,0,0,0-2.1-1,2.58,2.58,0,0,0-2.13,1.07,6.31,6.31,0,0,0-1.25,4v3.17a6.6,6.6,0,0,0,1.32,4.1,2.48,2.48,0,0,0,2.09,1,2.57,2.57,0,0,0,2.12-1.07,6.31,6.31,0,0,0,1.25-4Z"/><path class="cls-2" d="M229.82,190.82V194a10,10,0,0,1-1.62,5.38,5.2,5.2,0,0,1-4.65,2.57,5.36,5.36,0,0,1-2.94-.77,7.27,7.27,0,0,1-2.28-2.82,9.37,9.37,0,0,1-1.07-4.36v-3.17a10,10,0,0,1,1.61-5.37,5.17,5.17,0,0,1,4.64-2.58,5.35,5.35,0,0,1,2.93.76,7.2,7.2,0,0,1,2.29,2.82A9.16,9.16,0,0,1,229.82,190.82Zm-2.89,0a6.69,6.69,0,0,0-1.31-4.1,2.49,2.49,0,0,0-2.1-1,2.58,2.58,0,0,0-2.13,1.07,6.37,6.37,0,0,0-1.25,4V194a6.6,6.6,0,0,0,1.32,4.1,2.48,2.48,0,0,0,2.09,1,2.57,2.57,0,0,0,2.12-1.07,6.31,6.31,0,0,0,1.26-4Z"/><path class="cls-2" d="M242.27,182.87v15.77h2.91a2.17,2.17,0,0,1,1.48.4,1.3,1.3,0,0,1,.44,1,1.32,1.32,0,0,1-.44,1,2.22,2.22,0,0,1-1.48.4h-8.7a2.22,2.22,0,0,1-1.48-.4,1.34,1.34,0,0,1-.44-1.05,1.3,1.3,0,0,1,.44-1,2.17,2.17,0,0,1,1.48-.4h2.91v-12l-2.57.68a4,4,0,0,1-.93.17,1.27,1.27,0,0,1-.95-.44,1.51,1.51,0,0,1-.4-1.07,1.29,1.29,0,0,1,.3-.9,2.62,2.62,0,0,1,1.23-.59Z"/><path class="cls-2" d="M264.36,190.82V194a10,10,0,0,1-1.62,5.38,5.19,5.19,0,0,1-4.65,2.57,5.36,5.36,0,0,1-2.94-.77,7.27,7.27,0,0,1-2.28-2.82A9.37,9.37,0,0,1,251.8,194v-3.17a10,10,0,0,1,1.61-5.37,5.17,5.17,0,0,1,4.64-2.58,5.35,5.35,0,0,1,2.93.76,7.2,7.2,0,0,1,2.29,2.82A9.16,9.16,0,0,1,264.36,190.82Zm-2.89,0a6.69,6.69,0,0,0-1.31-4.1,2.49,2.49,0,0,0-2.1-1,2.58,2.58,0,0,0-2.13,1.07,6.37,6.37,0,0,0-1.25,4V194a6.6,6.6,0,0,0,1.32,4.1,2.48,2.48,0,0,0,2.09,1,2.61,2.61,0,0,0,2.13-1.07,6.37,6.37,0,0,0,1.25-4Z"/><path class="cls-2" d="M281.63,190.82V194a10,10,0,0,1-1.62,5.38,5.2,5.2,0,0,1-4.65,2.57,5.36,5.36,0,0,1-2.94-.77,7.27,7.27,0,0,1-2.28-2.82,9.25,9.25,0,0,1-1.07-4.36v-3.17a10,10,0,0,1,1.61-5.37,5.17,5.17,0,0,1,4.64-2.58,5.35,5.35,0,0,1,2.93.76,7.29,7.29,0,0,1,2.29,2.82A9.16,9.16,0,0,1,281.63,190.82Zm-2.9,0a6.69,6.69,0,0,0-1.3-4.1,2.49,2.49,0,0,0-2.1-1,2.58,2.58,0,0,0-2.13,1.07,6.31,6.31,0,0,0-1.25,4V194a6.6,6.6,0,0,0,1.32,4.1,2.48,2.48,0,0,0,2.09,1,2.57,2.57,0,0,0,2.12-1.07,6.31,6.31,0,0,0,1.25-4Z"/><path class="cls-2" d="M295.41,157.54V173.3h2.91a2.25,2.25,0,0,1,1.49.4,1.37,1.37,0,0,1,.44,1.05,1.33,1.33,0,0,1-.44,1,2.2,2.2,0,0,1-1.49.4h-8.69a2.2,2.2,0,0,1-1.49-.4,1.34,1.34,0,0,1-.44-1,1.35,1.35,0,0,1,.44-1,2.25,2.25,0,0,1,1.49-.4h2.9v-12L290,162a3.55,3.55,0,0,1-.92.17,1.23,1.23,0,0,1-1-.43,1.51,1.51,0,0,1-.4-1.07,1.34,1.34,0,0,1,.29-.91,2.68,2.68,0,0,1,1.24-.58Z"/><path class="cls-2" d="M317.5,165.49v3.16a9.91,9.91,0,0,1-1.62,5.38,5.17,5.17,0,0,1-4.64,2.58,5.42,5.42,0,0,1-2.95-.77A7.14,7.14,0,0,1,306,173a9.23,9.23,0,0,1-1.08-4.36v-3.16a9.93,9.93,0,0,1,1.62-5.37,5.16,5.16,0,0,1,4.64-2.58,5.37,5.37,0,0,1,2.93.76,7.25,7.25,0,0,1,2.29,2.81A9.31,9.31,0,0,1,317.5,165.49Zm-2.89,0a6.63,6.63,0,0,0-1.31-4.1,2.46,2.46,0,0,0-2.09-1,2.58,2.58,0,0,0-2.14,1.07,6.35,6.35,0,0,0-1.25,4v3.16a6.58,6.58,0,0,0,1.32,4.1,2.48,2.48,0,0,0,2.1,1,2.57,2.57,0,0,0,2.12-1.07,6.39,6.39,0,0,0,1.25-4Z"/><path class="cls-2" d="M330,157.54V173.3h2.91a2.25,2.25,0,0,1,1.49.4,1.37,1.37,0,0,1,.44,1.05,1.33,1.33,0,0,1-.44,1,2.2,2.2,0,0,1-1.49.4h-8.69a2.2,2.2,0,0,1-1.49-.4,1.34,1.34,0,0,1-.44-1,1.35,1.35,0,0,1,.44-1,2.25,2.25,0,0,1,1.49-.4h2.9v-12l-2.57.67a3.55,3.55,0,0,1-.92.17,1.23,1.23,0,0,1-.95-.43,1.51,1.51,0,0,1-.4-1.07,1.34,1.34,0,0,1,.29-.91,2.68,2.68,0,0,1,1.24-.58Z"/><path class="cls-2" d="M352,165.49v3.16a9.91,9.91,0,0,1-1.62,5.38,5.17,5.17,0,0,1-4.64,2.58,5.4,5.4,0,0,1-2.95-.77,7.14,7.14,0,0,1-2.27-2.83,9.23,9.23,0,0,1-1.08-4.36v-3.16a9.93,9.93,0,0,1,1.62-5.37,5.16,5.16,0,0,1,4.63-2.58,5.38,5.38,0,0,1,2.94.76,7.25,7.25,0,0,1,2.29,2.81A9.31,9.31,0,0,1,352,165.49Zm-2.89,0a6.69,6.69,0,0,0-1.31-4.1,2.46,2.46,0,0,0-2.09-1,2.58,2.58,0,0,0-2.14,1.07,6.35,6.35,0,0,0-1.25,4v3.16a6.58,6.58,0,0,0,1.32,4.1,2.48,2.48,0,0,0,2.1,1,2.57,2.57,0,0,0,2.12-1.07,6.39,6.39,0,0,0,1.25-4Z"/><path class="cls-2" d="M300.23,215.88v3.17a10,10,0,0,1-1.62,5.38A5.18,5.18,0,0,1,294,227a5.42,5.42,0,0,1-3-.77,7.17,7.17,0,0,1-2.27-2.82,9.26,9.26,0,0,1-1.08-4.36v-3.17a10,10,0,0,1,1.62-5.37,5.16,5.16,0,0,1,4.64-2.58,5.37,5.37,0,0,1,2.93.76,7.29,7.29,0,0,1,2.29,2.82A9.27,9.27,0,0,1,300.23,215.88Zm-2.89,0a6.63,6.63,0,0,0-1.31-4.1,2.46,2.46,0,0,0-2.09-1,2.61,2.61,0,0,0-2.14,1.07,6.37,6.37,0,0,0-1.25,4v3.17a6.6,6.6,0,0,0,1.32,4.1,2.49,2.49,0,0,0,2.1,1,2.57,2.57,0,0,0,2.12-1.07,6.37,6.37,0,0,0,1.25-4Z"/><path class="cls-2" d="M312.68,207.93V223.7h2.91a2.2,2.2,0,0,1,1.49.4,1.34,1.34,0,0,1,.44,1,1.35,1.35,0,0,1-.44,1,2.25,2.25,0,0,1-1.49.4H306.9a2.25,2.25,0,0,1-1.49-.4,1.37,1.37,0,0,1-.44-1.05,1.33,1.33,0,0,1,.44-1,2.2,2.2,0,0,1,1.49-.4h2.9v-12l-2.57.68a4,4,0,0,1-.92.17,1.24,1.24,0,0,1-.95-.44A1.51,1.51,0,0,1,305,211a1.33,1.33,0,0,1,.29-.9,2.67,2.67,0,0,1,1.24-.59Z"/><path class="cls-2" d="M330,207.93V223.7h2.91a2.2,2.2,0,0,1,1.49.4,1.34,1.34,0,0,1,.44,1,1.35,1.35,0,0,1-.44,1,2.25,2.25,0,0,1-1.49.4h-8.69a2.25,2.25,0,0,1-1.49-.4,1.37,1.37,0,0,1-.44-1.05,1.33,1.33,0,0,1,.44-1,2.2,2.2,0,0,1,1.49-.4h2.9v-12l-2.57.68a4,4,0,0,1-.92.17,1.24,1.24,0,0,1-.95-.44,1.51,1.51,0,0,1-.4-1.07,1.33,1.33,0,0,1,.29-.9,2.67,2.67,0,0,1,1.24-.59Z"/><path class="cls-2" d="M352,215.88v3.17a10,10,0,0,1-1.62,5.38,5.18,5.18,0,0,1-4.64,2.57,5.4,5.4,0,0,1-2.95-.77,7.17,7.17,0,0,1-2.27-2.82,9.26,9.26,0,0,1-1.08-4.36v-3.17a10,10,0,0,1,1.62-5.37,5.16,5.16,0,0,1,4.63-2.58,5.38,5.38,0,0,1,2.94.76,7.29,7.29,0,0,1,2.29,2.82A9.27,9.27,0,0,1,352,215.88Zm-2.89,0a6.69,6.69,0,0,0-1.31-4.1,2.46,2.46,0,0,0-2.09-1,2.61,2.61,0,0,0-2.14,1.07,6.37,6.37,0,0,0-1.25,4v3.17a6.6,6.6,0,0,0,1.32,4.1,2.49,2.49,0,0,0,2.1,1,2.57,2.57,0,0,0,2.12-1.07,6.37,6.37,0,0,0,1.25-4Z"/><path class="cls-2" d="M300.23,190.82V194a10,10,0,0,1-1.62,5.38,5.18,5.18,0,0,1-4.64,2.57,5.42,5.42,0,0,1-3-.77,7.17,7.17,0,0,1-2.27-2.82,9.26,9.26,0,0,1-1.08-4.36v-3.17a10,10,0,0,1,1.62-5.37,5.16,5.16,0,0,1,4.64-2.58,5.37,5.37,0,0,1,2.93.76,7.29,7.29,0,0,1,2.29,2.82A9.27,9.27,0,0,1,300.23,190.82Zm-2.89,0a6.63,6.63,0,0,0-1.31-4.1,2.46,2.46,0,0,0-2.09-1,2.61,2.61,0,0,0-2.14,1.07,6.37,6.37,0,0,0-1.25,4V194a6.6,6.6,0,0,0,1.32,4.1,2.49,2.49,0,0,0,2.1,1,2.57,2.57,0,0,0,2.12-1.07,6.37,6.37,0,0,0,1.25-4Z"/><path class="cls-2" d="M312.68,182.87v15.77h2.91a2.2,2.2,0,0,1,1.49.4,1.34,1.34,0,0,1,.44,1,1.35,1.35,0,0,1-.44,1,2.25,2.25,0,0,1-1.49.4H306.9a2.25,2.25,0,0,1-1.49-.4,1.37,1.37,0,0,1-.44-1.05,1.33,1.33,0,0,1,.44-1,2.2,2.2,0,0,1,1.49-.4h2.9v-12l-2.57.68a4,4,0,0,1-.92.17,1.24,1.24,0,0,1-.95-.44A1.51,1.51,0,0,1,305,186a1.33,1.33,0,0,1,.29-.9,2.67,2.67,0,0,1,1.24-.59Z"/><path class="cls-2" d="M334.77,190.82V194a10,10,0,0,1-1.62,5.38,5.18,5.18,0,0,1-4.64,2.57,5.42,5.42,0,0,1-2.95-.77,7.17,7.17,0,0,1-2.27-2.82,9.26,9.26,0,0,1-1.08-4.36v-3.17a10,10,0,0,1,1.62-5.37,5.16,5.16,0,0,1,4.64-2.58,5.37,5.37,0,0,1,2.93.76,7.29,7.29,0,0,1,2.29,2.82A9.27,9.27,0,0,1,334.77,190.82Zm-2.89,0a6.63,6.63,0,0,0-1.31-4.1,2.46,2.46,0,0,0-2.09-1,2.61,2.61,0,0,0-2.14,1.07,6.37,6.37,0,0,0-1.25,4V194a6.6,6.6,0,0,0,1.32,4.1,2.49,2.49,0,0,0,2.1,1,2.57,2.57,0,0,0,2.12-1.07,6.37,6.37,0,0,0,1.25-4Z"/><path class="cls-2" d="M352,190.82V194a10,10,0,0,1-1.62,5.38,5.18,5.18,0,0,1-4.64,2.57,5.4,5.4,0,0,1-2.95-.77,7.17,7.17,0,0,1-2.27-2.82,9.26,9.26,0,0,1-1.08-4.36v-3.17a10,10,0,0,1,1.62-5.37,5.16,5.16,0,0,1,4.63-2.58,5.38,5.38,0,0,1,2.94.76,7.29,7.29,0,0,1,2.29,2.82A9.27,9.27,0,0,1,352,190.82Zm-2.89,0a6.69,6.69,0,0,0-1.31-4.1,2.46,2.46,0,0,0-2.09-1,2.61,2.61,0,0,0-2.14,1.07,6.37,6.37,0,0,0-1.25,4V194a6.6,6.6,0,0,0,1.32,4.1,2.49,2.49,0,0,0,2.1,1A2.57,2.57,0,0,0,347.9,198a6.37,6.37,0,0,0,1.25-4Z"/><path class="cls-2" d="M84.21,233.74v15.77h2.91a2.17,2.17,0,0,1,1.48.4A1.34,1.34,0,0,1,89,251a1.31,1.31,0,0,1-.44,1,2.17,2.17,0,0,1-1.48.4h-8.7a2.17,2.17,0,0,1-1.48-.4,1.33,1.33,0,0,1-.44-1.05,1.31,1.31,0,0,1,.44-1,2.17,2.17,0,0,1,1.48-.4h2.91v-12l-2.57.67a4.11,4.11,0,0,1-.93.17,1.25,1.25,0,0,1-1-.44,1.49,1.49,0,0,1-.4-1.06,1.3,1.3,0,0,1,.3-.91,2.63,2.63,0,0,1,1.23-.58Z"/><path class="cls-2" d="M106.3,241.7v3.16a9.94,9.94,0,0,1-1.62,5.38,5.18,5.18,0,0,1-4.65,2.57,5.36,5.36,0,0,1-2.94-.76,7.24,7.24,0,0,1-2.28-2.83,9.22,9.22,0,0,1-1.07-4.36V241.7a10,10,0,0,1,1.61-5.38,5.17,5.17,0,0,1,4.64-2.58,5.43,5.43,0,0,1,2.93.76,7.37,7.37,0,0,1,2.29,2.82A9.17,9.17,0,0,1,106.3,241.7Zm-2.9,0a6.67,6.67,0,0,0-1.3-4.1,2.49,2.49,0,0,0-2.1-1,2.57,2.57,0,0,0-2.13,1.06,6.33,6.33,0,0,0-1.25,4v3.16a6.6,6.6,0,0,0,1.32,4.1,2.45,2.45,0,0,0,2.09,1,2.55,2.55,0,0,0,2.12-1.07,6.29,6.29,0,0,0,1.25-4Z"/><path class="cls-2" d="M118.75,233.74v15.77h2.91a2.17,2.17,0,0,1,1.48.4,1.34,1.34,0,0,1,.44,1.05,1.31,1.31,0,0,1-.44,1,2.17,2.17,0,0,1-1.48.4H113a2.17,2.17,0,0,1-1.48-.4,1.33,1.33,0,0,1-.44-1.05,1.31,1.31,0,0,1,.44-1,2.17,2.17,0,0,1,1.48-.4h2.91v-12l-2.57.67a4,4,0,0,1-.93.17,1.25,1.25,0,0,1-1-.44,1.49,1.49,0,0,1-.4-1.06,1.3,1.3,0,0,1,.3-.91,2.63,2.63,0,0,1,1.23-.58Z"/><path class="cls-2" d="M140.84,241.7v3.16a9.87,9.87,0,0,1-1.63,5.38,5.15,5.15,0,0,1-4.64,2.57,5.36,5.36,0,0,1-2.94-.76,7.24,7.24,0,0,1-2.28-2.83,9.22,9.22,0,0,1-1.07-4.36V241.7a10,10,0,0,1,1.61-5.38,5.17,5.17,0,0,1,4.64-2.58,5.43,5.43,0,0,1,2.93.76,7.37,7.37,0,0,1,2.29,2.82A9.17,9.17,0,0,1,140.84,241.7Zm-2.9,0a6.67,6.67,0,0,0-1.3-4.1,2.49,2.49,0,0,0-2.1-1,2.57,2.57,0,0,0-2.13,1.06,6.33,6.33,0,0,0-1.25,4v3.16a6.6,6.6,0,0,0,1.32,4.1,2.44,2.44,0,0,0,2.09,1,2.55,2.55,0,0,0,2.12-1.07,6.29,6.29,0,0,0,1.25-4Z"/><path class="cls-2" d="M89,292.09v3.16a10,10,0,0,1-1.62,5.39,5.2,5.2,0,0,1-4.65,2.57,5.36,5.36,0,0,1-2.94-.77,7.27,7.27,0,0,1-2.28-2.82,9.26,9.26,0,0,1-1.07-4.37v-3.16a10,10,0,0,1,1.61-5.37,5.17,5.17,0,0,1,4.64-2.58,5.35,5.35,0,0,1,2.93.76,7.21,7.21,0,0,1,2.29,2.82A9.16,9.16,0,0,1,89,292.09Zm-2.9,0a6.69,6.69,0,0,0-1.3-4.1,2.49,2.49,0,0,0-2.1-1,2.55,2.55,0,0,0-2.13,1.07,6.29,6.29,0,0,0-1.25,4v3.16a6.61,6.61,0,0,0,1.32,4.11,2.48,2.48,0,0,0,2.09,1,2.57,2.57,0,0,0,2.12-1.07,6.32,6.32,0,0,0,1.25-4Z"/><path class="cls-2" d="M101.48,284.14v15.77h2.91a2.17,2.17,0,0,1,1.48.4,1.3,1.3,0,0,1,.44,1,1.33,1.33,0,0,1-.44,1,2.22,2.22,0,0,1-1.48.4h-8.7a2.22,2.22,0,0,1-1.48-.4,1.34,1.34,0,0,1-.44-1.05,1.3,1.3,0,0,1,.44-1,2.17,2.17,0,0,1,1.48-.4H98.6v-12l-2.57.67a3.61,3.61,0,0,1-.93.17,1.24,1.24,0,0,1-.95-.43,1.51,1.51,0,0,1-.4-1.07,1.31,1.31,0,0,1,.3-.91,2.63,2.63,0,0,1,1.23-.58Z"/><path class="cls-2" d="M118.75,284.14v15.77h2.91a2.17,2.17,0,0,1,1.48.4,1.3,1.3,0,0,1,.44,1,1.33,1.33,0,0,1-.44,1,2.22,2.22,0,0,1-1.48.4H113a2.22,2.22,0,0,1-1.48-.4,1.34,1.34,0,0,1-.44-1.05,1.3,1.3,0,0,1,.44-1,2.17,2.17,0,0,1,1.48-.4h2.91v-12l-2.57.67a3.54,3.54,0,0,1-.93.17,1.24,1.24,0,0,1-1-.43,1.51,1.51,0,0,1-.4-1.07,1.31,1.31,0,0,1,.3-.91,2.63,2.63,0,0,1,1.23-.58Z"/><path class="cls-2" d="M140.84,292.09v3.16a9.9,9.9,0,0,1-1.63,5.39,5.17,5.17,0,0,1-4.64,2.57,5.36,5.36,0,0,1-2.94-.77,7.27,7.27,0,0,1-2.28-2.82,9.26,9.26,0,0,1-1.07-4.37v-3.16a9.94,9.94,0,0,1,1.61-5.37,5.17,5.17,0,0,1,4.64-2.58,5.35,5.35,0,0,1,2.93.76,7.21,7.21,0,0,1,2.29,2.82A9.16,9.16,0,0,1,140.84,292.09Zm-2.9,0a6.69,6.69,0,0,0-1.3-4.1,2.49,2.49,0,0,0-2.1-1,2.55,2.55,0,0,0-2.13,1.07,6.29,6.29,0,0,0-1.25,4v3.16a6.61,6.61,0,0,0,1.32,4.11,2.46,2.46,0,0,0,2.09,1,2.57,2.57,0,0,0,2.12-1.07,6.32,6.32,0,0,0,1.25-4Z"/><path class="cls-2" d="M89,267v3.16a10,10,0,0,1-1.62,5.39,5.2,5.2,0,0,1-4.65,2.57,5.36,5.36,0,0,1-2.94-.77,7.27,7.27,0,0,1-2.28-2.82,9.26,9.26,0,0,1-1.07-4.37V267a10,10,0,0,1,1.61-5.37,5.17,5.17,0,0,1,4.64-2.58,5.35,5.35,0,0,1,2.93.76,7.21,7.21,0,0,1,2.29,2.82A9.16,9.16,0,0,1,89,267Zm-2.9,0a6.69,6.69,0,0,0-1.3-4.1,2.49,2.49,0,0,0-2.1-1A2.58,2.58,0,0,0,80.6,263a6.29,6.29,0,0,0-1.25,4v3.16a6.61,6.61,0,0,0,1.32,4.11,2.48,2.48,0,0,0,2.09,1,2.57,2.57,0,0,0,2.12-1.07,6.32,6.32,0,0,0,1.25-4Z"/><path class="cls-2" d="M101.48,259.08v15.77h2.91a2.17,2.17,0,0,1,1.48.4,1.3,1.3,0,0,1,.44,1,1.33,1.33,0,0,1-.44,1,2.22,2.22,0,0,1-1.48.4h-8.7a2.22,2.22,0,0,1-1.48-.4,1.34,1.34,0,0,1-.44-1.05,1.3,1.3,0,0,1,.44-1,2.17,2.17,0,0,1,1.48-.4H98.6v-12L96,263.5a3.61,3.61,0,0,1-.93.17,1.24,1.24,0,0,1-.95-.43,1.51,1.51,0,0,1-.4-1.07,1.31,1.31,0,0,1,.3-.91,2.63,2.63,0,0,1,1.23-.58Z"/><path class="cls-2" d="M123.57,267v3.16a10,10,0,0,1-1.62,5.39,5.2,5.2,0,0,1-4.65,2.57,5.36,5.36,0,0,1-2.94-.77,7.27,7.27,0,0,1-2.28-2.82,9.26,9.26,0,0,1-1.07-4.37V267a10,10,0,0,1,1.61-5.37,5.17,5.17,0,0,1,4.64-2.58,5.35,5.35,0,0,1,2.93.76,7.21,7.21,0,0,1,2.29,2.82A9.16,9.16,0,0,1,123.57,267Zm-2.9,0a6.69,6.69,0,0,0-1.3-4.1,2.49,2.49,0,0,0-2.1-1,2.58,2.58,0,0,0-2.13,1.07,6.29,6.29,0,0,0-1.25,4v3.16a6.61,6.61,0,0,0,1.32,4.11,2.48,2.48,0,0,0,2.09,1,2.57,2.57,0,0,0,2.12-1.07,6.32,6.32,0,0,0,1.25-4Z"/><path class="cls-2" d="M140.84,267v3.16a9.9,9.9,0,0,1-1.63,5.39,5.17,5.17,0,0,1-4.64,2.57,5.36,5.36,0,0,1-2.94-.77,7.27,7.27,0,0,1-2.28-2.82,9.26,9.26,0,0,1-1.07-4.37V267a9.94,9.94,0,0,1,1.61-5.37,5.17,5.17,0,0,1,4.64-2.58,5.35,5.35,0,0,1,2.93.76,7.21,7.21,0,0,1,2.29,2.82A9.16,9.16,0,0,1,140.84,267Zm-2.9,0a6.69,6.69,0,0,0-1.3-4.1,2.49,2.49,0,0,0-2.1-1,2.58,2.58,0,0,0-2.13,1.07,6.29,6.29,0,0,0-1.25,4v3.16a6.61,6.61,0,0,0,1.32,4.11,2.46,2.46,0,0,0,2.09,1,2.57,2.57,0,0,0,2.12-1.07,6.32,6.32,0,0,0,1.25-4Z"/><path class="cls-2" d="M154.62,233.74v15.77h2.91a2.2,2.2,0,0,1,1.49.4,1.37,1.37,0,0,1,.44,1.05,1.34,1.34,0,0,1-.44,1,2.2,2.2,0,0,1-1.49.4h-8.7a2.18,2.18,0,0,1-1.48-.4,1.45,1.45,0,0,1,0-2.08,2.18,2.18,0,0,1,1.48-.4h2.91v-12l-2.57.67a4,4,0,0,1-.92.17,1.24,1.24,0,0,1-.95-.44,1.49,1.49,0,0,1-.4-1.06,1.29,1.29,0,0,1,.29-.91,2.68,2.68,0,0,1,1.24-.58Z"/><path class="cls-2" d="M176.71,241.7v3.16a9.94,9.94,0,0,1-1.62,5.38,5.16,5.16,0,0,1-4.64,2.57,5.39,5.39,0,0,1-2.95-.76,7.14,7.14,0,0,1-2.27-2.83,9.23,9.23,0,0,1-1.08-4.36V241.7a10,10,0,0,1,1.62-5.38,5.16,5.16,0,0,1,4.63-2.58,5.47,5.47,0,0,1,2.94.76,7.37,7.37,0,0,1,2.29,2.82A9.28,9.28,0,0,1,176.71,241.7Zm-2.89,0a6.67,6.67,0,0,0-1.31-4.1,2.46,2.46,0,0,0-2.09-1,2.6,2.6,0,0,0-2.14,1.06,6.39,6.39,0,0,0-1.25,4v3.16a6.6,6.6,0,0,0,1.32,4.1,2.47,2.47,0,0,0,2.1,1,2.55,2.55,0,0,0,2.12-1.07,6.35,6.35,0,0,0,1.25-4Z"/><path class="cls-2" d="M189.16,233.74v15.77h2.91a2.2,2.2,0,0,1,1.49.4A1.37,1.37,0,0,1,194,251a1.34,1.34,0,0,1-.44,1,2.2,2.2,0,0,1-1.49.4h-8.69a2.2,2.2,0,0,1-1.49-.4,1.45,1.45,0,0,1,0-2.08,2.2,2.2,0,0,1,1.49-.4h2.9v-12l-2.57.67a4,4,0,0,1-.92.17,1.24,1.24,0,0,1-.95-.44,1.49,1.49,0,0,1-.4-1.06,1.29,1.29,0,0,1,.29-.91,2.68,2.68,0,0,1,1.24-.58Z"/><path class="cls-2" d="M211.25,241.7v3.16a9.94,9.94,0,0,1-1.62,5.38,5.16,5.16,0,0,1-4.64,2.57,5.37,5.37,0,0,1-3-.76,7.14,7.14,0,0,1-2.27-2.83,9.23,9.23,0,0,1-1.08-4.36V241.7a10,10,0,0,1,1.62-5.38,5.15,5.15,0,0,1,4.63-2.58,5.41,5.41,0,0,1,2.93.76,7.28,7.28,0,0,1,2.29,2.82A9.17,9.17,0,0,1,211.25,241.7Zm-2.89,0a6.67,6.67,0,0,0-1.31-4.1,2.46,2.46,0,0,0-2.09-1,2.59,2.59,0,0,0-2.14,1.06,6.39,6.39,0,0,0-1.25,4v3.16a6.6,6.6,0,0,0,1.32,4.1,2.47,2.47,0,0,0,2.1,1,2.55,2.55,0,0,0,2.12-1.07,6.35,6.35,0,0,0,1.25-4Z"/><path class="cls-2" d="M159.44,292.09v3.16a10,10,0,0,1-1.62,5.39,5.18,5.18,0,0,1-4.64,2.57,5.4,5.4,0,0,1-3-.77,7.17,7.17,0,0,1-2.27-2.82,9.27,9.27,0,0,1-1.08-4.37v-3.16a10,10,0,0,1,1.62-5.37,5.16,5.16,0,0,1,4.63-2.58,5.38,5.38,0,0,1,2.94.76,7.21,7.21,0,0,1,2.29,2.82A9.27,9.27,0,0,1,159.44,292.09Zm-2.89,0a6.69,6.69,0,0,0-1.31-4.1,2.46,2.46,0,0,0-2.09-1,2.58,2.58,0,0,0-2.14,1.07,6.35,6.35,0,0,0-1.25,4v3.16a6.61,6.61,0,0,0,1.32,4.11,2.49,2.49,0,0,0,2.1,1,2.57,2.57,0,0,0,2.12-1.07,6.38,6.38,0,0,0,1.25-4Z"/><path class="cls-2" d="M171.89,284.14v15.77h2.91a2.2,2.2,0,0,1,1.49.4,1.34,1.34,0,0,1,.44,1,1.37,1.37,0,0,1-.44,1,2.25,2.25,0,0,1-1.49.4h-8.7a2.24,2.24,0,0,1-1.48-.4,1.37,1.37,0,0,1-.44-1.05,1.33,1.33,0,0,1,.44-1,2.18,2.18,0,0,1,1.48-.4H169v-12l-2.57.67a3.55,3.55,0,0,1-.92.17,1.23,1.23,0,0,1-1-.43,1.51,1.51,0,0,1-.4-1.07,1.31,1.31,0,0,1,.29-.91,2.68,2.68,0,0,1,1.24-.58Z"/><path class="cls-2" d="M189.16,284.14v15.77h2.91a2.2,2.2,0,0,1,1.49.4,1.34,1.34,0,0,1,.44,1,1.37,1.37,0,0,1-.44,1,2.25,2.25,0,0,1-1.49.4h-8.69a2.25,2.25,0,0,1-1.49-.4,1.37,1.37,0,0,1-.44-1.05,1.33,1.33,0,0,1,.44-1,2.2,2.2,0,0,1,1.49-.4h2.9v-12l-2.57.67a3.55,3.55,0,0,1-.92.17,1.23,1.23,0,0,1-.95-.43,1.51,1.51,0,0,1-.4-1.07,1.31,1.31,0,0,1,.29-.91,2.68,2.68,0,0,1,1.24-.58Z"/><path class="cls-2" d="M211.25,292.09v3.16a10,10,0,0,1-1.62,5.39,5.18,5.18,0,0,1-4.64,2.57,5.37,5.37,0,0,1-3-.77,7.17,7.17,0,0,1-2.27-2.82,9.27,9.27,0,0,1-1.08-4.37v-3.16a10,10,0,0,1,1.62-5.37,5.15,5.15,0,0,1,4.63-2.58,5.32,5.32,0,0,1,2.93.76,7.13,7.13,0,0,1,2.29,2.82A9.16,9.16,0,0,1,211.25,292.09Zm-2.89,0a6.69,6.69,0,0,0-1.31-4.1,2.46,2.46,0,0,0-2.09-1,2.57,2.57,0,0,0-2.14,1.07,6.35,6.35,0,0,0-1.25,4v3.16a6.61,6.61,0,0,0,1.32,4.11,2.49,2.49,0,0,0,2.1,1,2.57,2.57,0,0,0,2.12-1.07,6.38,6.38,0,0,0,1.25-4Z"/><path class="cls-2" d="M159.44,267v3.16a10,10,0,0,1-1.62,5.39,5.18,5.18,0,0,1-4.64,2.57,5.4,5.4,0,0,1-3-.77,7.17,7.17,0,0,1-2.27-2.82,9.27,9.27,0,0,1-1.08-4.37V267a10,10,0,0,1,1.62-5.37,5.16,5.16,0,0,1,4.63-2.58,5.38,5.38,0,0,1,2.94.76,7.21,7.21,0,0,1,2.29,2.82A9.27,9.27,0,0,1,159.44,267Zm-2.89,0a6.69,6.69,0,0,0-1.31-4.1,2.46,2.46,0,0,0-2.09-1A2.61,2.61,0,0,0,151,263a6.35,6.35,0,0,0-1.25,4v3.16a6.61,6.61,0,0,0,1.32,4.11,2.49,2.49,0,0,0,2.1,1,2.57,2.57,0,0,0,2.12-1.07,6.38,6.38,0,0,0,1.25-4Z"/><path class="cls-2" d="M171.89,259.08v15.77h2.91a2.2,2.2,0,0,1,1.49.4,1.34,1.34,0,0,1,.44,1,1.37,1.37,0,0,1-.44,1,2.25,2.25,0,0,1-1.49.4h-8.7a2.24,2.24,0,0,1-1.48-.4,1.37,1.37,0,0,1-.44-1.05,1.33,1.33,0,0,1,.44-1,2.18,2.18,0,0,1,1.48-.4H169v-12l-2.57.67a3.55,3.55,0,0,1-.92.17,1.23,1.23,0,0,1-1-.43,1.51,1.51,0,0,1-.4-1.07,1.31,1.31,0,0,1,.29-.91,2.68,2.68,0,0,1,1.24-.58Z"/><path class="cls-2" d="M194,267v3.16a10,10,0,0,1-1.62,5.39,5.18,5.18,0,0,1-4.64,2.57,5.4,5.4,0,0,1-2.95-.77,7.17,7.17,0,0,1-2.27-2.82,9.27,9.27,0,0,1-1.08-4.37V267a10,10,0,0,1,1.62-5.37,5.16,5.16,0,0,1,4.63-2.58,5.38,5.38,0,0,1,2.94.76,7.21,7.21,0,0,1,2.29,2.82A9.27,9.27,0,0,1,194,267Zm-2.89,0a6.69,6.69,0,0,0-1.31-4.1,2.46,2.46,0,0,0-2.09-1,2.61,2.61,0,0,0-2.14,1.07,6.35,6.35,0,0,0-1.25,4v3.16a6.61,6.61,0,0,0,1.32,4.11,2.49,2.49,0,0,0,2.1,1,2.57,2.57,0,0,0,2.12-1.07,6.38,6.38,0,0,0,1.25-4Z"/><path class="cls-2" d="M211.25,267v3.16a10,10,0,0,1-1.62,5.39,5.18,5.18,0,0,1-4.64,2.57,5.37,5.37,0,0,1-3-.77,7.17,7.17,0,0,1-2.27-2.82,9.27,9.27,0,0,1-1.08-4.37V267a10,10,0,0,1,1.62-5.37,5.15,5.15,0,0,1,4.63-2.58,5.32,5.32,0,0,1,2.93.76,7.13,7.13,0,0,1,2.29,2.82A9.16,9.16,0,0,1,211.25,267Zm-2.89,0a6.69,6.69,0,0,0-1.31-4.1,2.46,2.46,0,0,0-2.09-1,2.6,2.6,0,0,0-2.14,1.07,6.35,6.35,0,0,0-1.25,4v3.16a6.61,6.61,0,0,0,1.32,4.11,2.49,2.49,0,0,0,2.1,1,2.57,2.57,0,0,0,2.12-1.07,6.38,6.38,0,0,0,1.25-4Z"/><path class="cls-2" d="M84.22,157.54V173.3h2.91a2.2,2.2,0,0,1,1.48.4,1.35,1.35,0,0,1,.45,1.05,1.31,1.31,0,0,1-.45,1,2.15,2.15,0,0,1-1.48.4h-8.7a2.18,2.18,0,0,1-1.48-.4,1.34,1.34,0,0,1-.44-1,1.35,1.35,0,0,1,.44-1,2.24,2.24,0,0,1,1.48-.4h2.91v-12l-2.57.67a3.54,3.54,0,0,1-.93.17,1.22,1.22,0,0,1-.94-.43,1.51,1.51,0,0,1-.4-1.07,1.29,1.29,0,0,1,.29-.91,2.68,2.68,0,0,1,1.24-.58Z"/><path class="cls-2" d="M106.31,165.49v3.16a9.91,9.91,0,0,1-1.62,5.38,5.17,5.17,0,0,1-4.64,2.58,5.37,5.37,0,0,1-3-.77A7.14,7.14,0,0,1,94.83,173a9.23,9.23,0,0,1-1.08-4.36v-3.16a9.93,9.93,0,0,1,1.62-5.37,5.15,5.15,0,0,1,4.63-2.58,5.32,5.32,0,0,1,2.93.76,7.16,7.16,0,0,1,2.29,2.81A9.2,9.2,0,0,1,106.31,165.49Zm-2.89,0a6.69,6.69,0,0,0-1.31-4.1,2.48,2.48,0,0,0-2.09-1,2.57,2.57,0,0,0-2.14,1.07,6.35,6.35,0,0,0-1.25,4v3.16a6.58,6.58,0,0,0,1.32,4.1,2.48,2.48,0,0,0,2.1,1,2.59,2.59,0,0,0,2.12-1.07,6.39,6.39,0,0,0,1.25-4Z"/><path class="cls-2" d="M118.76,157.54V173.3h2.91a2.2,2.2,0,0,1,1.48.4,1.35,1.35,0,0,1,.45,1.05,1.31,1.31,0,0,1-.45,1,2.15,2.15,0,0,1-1.48.4H113a2.18,2.18,0,0,1-1.48-.4,1.34,1.34,0,0,1-.44-1,1.35,1.35,0,0,1,.44-1,2.24,2.24,0,0,1,1.48-.4h2.91v-12l-2.57.67a3.54,3.54,0,0,1-.93.17,1.22,1.22,0,0,1-.94-.43,1.51,1.51,0,0,1-.4-1.07,1.29,1.29,0,0,1,.29-.91,2.68,2.68,0,0,1,1.24-.58Z"/><path class="cls-2" d="M140.85,165.49v3.16a9.91,9.91,0,0,1-1.62,5.38,5.17,5.17,0,0,1-4.64,2.58,5.37,5.37,0,0,1-3-.77,7.24,7.24,0,0,1-2.28-2.83,9.34,9.34,0,0,1-1.07-4.36v-3.16a9.93,9.93,0,0,1,1.62-5.37,5.15,5.15,0,0,1,4.63-2.58,5.35,5.35,0,0,1,2.93.76,7.16,7.16,0,0,1,2.29,2.81A9.2,9.2,0,0,1,140.85,165.49Zm-2.89,0a6.69,6.69,0,0,0-1.31-4.1,2.48,2.48,0,0,0-2.09-1,2.57,2.57,0,0,0-2.14,1.07,6.35,6.35,0,0,0-1.25,4v3.16a6.58,6.58,0,0,0,1.32,4.1,2.48,2.48,0,0,0,2.1,1,2.59,2.59,0,0,0,2.12-1.07,6.39,6.39,0,0,0,1.25-4Z"/><path class="cls-2" d="M89,215.88v3.17a10,10,0,0,1-1.62,5.38A5.18,5.18,0,0,1,82.78,227a5.37,5.37,0,0,1-3-.77,7.17,7.17,0,0,1-2.27-2.82,9.26,9.26,0,0,1-1.08-4.36v-3.17a10,10,0,0,1,1.62-5.37,5.15,5.15,0,0,1,4.63-2.58,5.32,5.32,0,0,1,2.93.76A7.2,7.2,0,0,1,88,211.51,9.16,9.16,0,0,1,89,215.88Zm-2.89,0a6.69,6.69,0,0,0-1.31-4.1,2.48,2.48,0,0,0-2.09-1,2.6,2.6,0,0,0-2.14,1.07,6.37,6.37,0,0,0-1.25,4v3.17a6.6,6.6,0,0,0,1.32,4.1,2.49,2.49,0,0,0,2.1,1,2.59,2.59,0,0,0,2.12-1.07,6.37,6.37,0,0,0,1.25-4Z"/><path class="cls-2" d="M101.49,207.93V223.7h2.91a2.15,2.15,0,0,1,1.48.4,1.31,1.31,0,0,1,.45,1,1.33,1.33,0,0,1-.45,1,2.2,2.2,0,0,1-1.48.4H95.7a2.24,2.24,0,0,1-1.48-.4,1.37,1.37,0,0,1-.44-1.05,1.33,1.33,0,0,1,.44-1,2.18,2.18,0,0,1,1.48-.4h2.91v-12l-2.57.68a4,4,0,0,1-.93.17,1.23,1.23,0,0,1-.94-.44,1.51,1.51,0,0,1-.4-1.07,1.28,1.28,0,0,1,.29-.9,2.67,2.67,0,0,1,1.24-.59Z"/><path class="cls-2" d="M118.76,207.93V223.7h2.91a2.15,2.15,0,0,1,1.48.4,1.31,1.31,0,0,1,.45,1,1.33,1.33,0,0,1-.45,1,2.2,2.2,0,0,1-1.48.4H113a2.24,2.24,0,0,1-1.48-.4,1.37,1.37,0,0,1-.44-1.05,1.33,1.33,0,0,1,.44-1,2.18,2.18,0,0,1,1.48-.4h2.91v-12l-2.57.68a4,4,0,0,1-.93.17,1.23,1.23,0,0,1-.94-.44A1.51,1.51,0,0,1,111,211a1.28,1.28,0,0,1,.29-.9,2.67,2.67,0,0,1,1.24-.59Z"/><path class="cls-2" d="M140.85,215.88v3.17a10,10,0,0,1-1.62,5.38,5.18,5.18,0,0,1-4.64,2.57,5.37,5.37,0,0,1-3-.77,7.27,7.27,0,0,1-2.28-2.82,9.37,9.37,0,0,1-1.07-4.36v-3.17a10,10,0,0,1,1.62-5.37,5.15,5.15,0,0,1,4.63-2.58,5.35,5.35,0,0,1,2.93.76,7.2,7.2,0,0,1,2.29,2.82A9.16,9.16,0,0,1,140.85,215.88Zm-2.89,0a6.69,6.69,0,0,0-1.31-4.1,2.48,2.48,0,0,0-2.09-1,2.6,2.6,0,0,0-2.14,1.07,6.37,6.37,0,0,0-1.25,4v3.17a6.6,6.6,0,0,0,1.32,4.1,2.49,2.49,0,0,0,2.1,1,2.59,2.59,0,0,0,2.12-1.07,6.37,6.37,0,0,0,1.25-4Z"/><path class="cls-2" d="M89,190.82V194a10,10,0,0,1-1.62,5.38,5.18,5.18,0,0,1-4.64,2.57,5.37,5.37,0,0,1-3-.77,7.17,7.17,0,0,1-2.27-2.82A9.26,9.26,0,0,1,76.48,194v-3.17a10,10,0,0,1,1.62-5.37,5.15,5.15,0,0,1,4.63-2.58,5.32,5.32,0,0,1,2.93.76A7.2,7.2,0,0,1,88,186.45,9.16,9.16,0,0,1,89,190.82Zm-2.89,0a6.69,6.69,0,0,0-1.31-4.1,2.48,2.48,0,0,0-2.09-1,2.6,2.6,0,0,0-2.14,1.07,6.37,6.37,0,0,0-1.25,4V194a6.6,6.6,0,0,0,1.32,4.1,2.49,2.49,0,0,0,2.1,1A2.59,2.59,0,0,0,84.9,198a6.37,6.37,0,0,0,1.25-4Z"/><path class="cls-2" d="M101.49,182.87v15.77h2.91a2.15,2.15,0,0,1,1.48.4,1.31,1.31,0,0,1,.45,1,1.33,1.33,0,0,1-.45,1,2.2,2.2,0,0,1-1.48.4H95.7a2.24,2.24,0,0,1-1.48-.4,1.37,1.37,0,0,1-.44-1.05,1.33,1.33,0,0,1,.44-1,2.18,2.18,0,0,1,1.48-.4h2.91v-12L96,187.3a4,4,0,0,1-.93.17,1.23,1.23,0,0,1-.94-.44,1.51,1.51,0,0,1-.4-1.07,1.28,1.28,0,0,1,.29-.9,2.67,2.67,0,0,1,1.24-.59Z"/><path class="cls-2" d="M123.58,190.82V194a10,10,0,0,1-1.62,5.38,5.18,5.18,0,0,1-4.64,2.57,5.37,5.37,0,0,1-2.95-.77,7.17,7.17,0,0,1-2.27-2.82A9.26,9.26,0,0,1,111,194v-3.17a10,10,0,0,1,1.62-5.37,5.15,5.15,0,0,1,4.63-2.58,5.32,5.32,0,0,1,2.93.76,7.2,7.2,0,0,1,2.29,2.82A9.16,9.16,0,0,1,123.58,190.82Zm-2.89,0a6.69,6.69,0,0,0-1.31-4.1,2.48,2.48,0,0,0-2.09-1,2.6,2.6,0,0,0-2.14,1.07,6.37,6.37,0,0,0-1.25,4V194a6.6,6.6,0,0,0,1.32,4.1,2.49,2.49,0,0,0,2.1,1,2.59,2.59,0,0,0,2.12-1.07,6.37,6.37,0,0,0,1.25-4Z"/><path class="cls-2" d="M140.85,190.82V194a10,10,0,0,1-1.62,5.38,5.18,5.18,0,0,1-4.64,2.57,5.37,5.37,0,0,1-3-.77,7.27,7.27,0,0,1-2.28-2.82,9.37,9.37,0,0,1-1.07-4.36v-3.17a10,10,0,0,1,1.62-5.37,5.15,5.15,0,0,1,4.63-2.58,5.35,5.35,0,0,1,2.93.76,7.2,7.2,0,0,1,2.29,2.82A9.16,9.16,0,0,1,140.85,190.82Zm-2.89,0a6.69,6.69,0,0,0-1.31-4.1,2.48,2.48,0,0,0-2.09-1,2.6,2.6,0,0,0-2.14,1.07,6.37,6.37,0,0,0-1.25,4V194a6.6,6.6,0,0,0,1.32,4.1,2.49,2.49,0,0,0,2.1,1,2.59,2.59,0,0,0,2.12-1.07,6.37,6.37,0,0,0,1.25-4Z"/><path class="cls-2" d="M154.64,157.54V173.3h2.91a2.24,2.24,0,0,1,1.48.4,1.34,1.34,0,0,1,.44,1.05,1.3,1.3,0,0,1-.44,1,2.18,2.18,0,0,1-1.48.4h-8.7a2.17,2.17,0,0,1-1.48-.4,1.31,1.31,0,0,1-.45-1,1.33,1.33,0,0,1,.45-1,2.22,2.22,0,0,1,1.48-.4h2.91v-12l-2.57.67a3.68,3.68,0,0,1-.93.17,1.24,1.24,0,0,1-.95-.43,1.51,1.51,0,0,1-.4-1.07,1.34,1.34,0,0,1,.29-.91,2.68,2.68,0,0,1,1.24-.58Z"/><path class="cls-2" d="M176.73,165.49v3.16A9.84,9.84,0,0,1,175.1,174a5.16,5.16,0,0,1-4.64,2.58,5.36,5.36,0,0,1-2.94-.77,7.24,7.24,0,0,1-2.28-2.83,9.22,9.22,0,0,1-1.07-4.36v-3.16a9.92,9.92,0,0,1,1.61-5.37,5.17,5.17,0,0,1,4.64-2.58,5.35,5.35,0,0,1,2.93.76,7.25,7.25,0,0,1,2.29,2.81A9.2,9.2,0,0,1,176.73,165.49Zm-2.9,0a6.69,6.69,0,0,0-1.3-4.1,2.49,2.49,0,0,0-2.1-1,2.55,2.55,0,0,0-2.13,1.07,6.29,6.29,0,0,0-1.25,4v3.16a6.58,6.58,0,0,0,1.32,4.1,2.45,2.45,0,0,0,2.09,1,2.57,2.57,0,0,0,2.12-1.07,6.33,6.33,0,0,0,1.25-4Z"/><path class="cls-2" d="M189.18,157.54V173.3h2.91a2.24,2.24,0,0,1,1.48.4,1.34,1.34,0,0,1,.44,1.05,1.3,1.3,0,0,1-.44,1,2.18,2.18,0,0,1-1.48.4h-8.7a2.17,2.17,0,0,1-1.48-.4,1.31,1.31,0,0,1-.45-1,1.33,1.33,0,0,1,.45-1,2.22,2.22,0,0,1,1.48-.4h2.91v-12l-2.57.67a3.68,3.68,0,0,1-.93.17,1.24,1.24,0,0,1-1-.43,1.51,1.51,0,0,1-.4-1.07,1.34,1.34,0,0,1,.29-.91,2.68,2.68,0,0,1,1.24-.58Z"/><path class="cls-2" d="M211.27,165.49v3.16a9.84,9.84,0,0,1-1.63,5.38,5.17,5.17,0,0,1-4.64,2.58,5.36,5.36,0,0,1-2.94-.77,7.15,7.15,0,0,1-2.28-2.83,9.22,9.22,0,0,1-1.07-4.36v-3.16a9.92,9.92,0,0,1,1.61-5.37,5.16,5.16,0,0,1,4.64-2.58,5.35,5.35,0,0,1,2.93.76,7.25,7.25,0,0,1,2.29,2.81A9.32,9.32,0,0,1,211.27,165.49Zm-2.9,0a6.69,6.69,0,0,0-1.3-4.1,2.49,2.49,0,0,0-2.1-1,2.55,2.55,0,0,0-2.13,1.07,6.29,6.29,0,0,0-1.25,4v3.16a6.58,6.58,0,0,0,1.32,4.1,2.45,2.45,0,0,0,2.09,1,2.57,2.57,0,0,0,2.12-1.07,6.33,6.33,0,0,0,1.25-4Z"/><path class="cls-2" d="M159.46,215.88v3.17a9.89,9.89,0,0,1-1.63,5.38,5.18,5.18,0,0,1-4.64,2.57,5.36,5.36,0,0,1-2.94-.77,7.27,7.27,0,0,1-2.28-2.82,9.25,9.25,0,0,1-1.07-4.36v-3.17a9.94,9.94,0,0,1,1.61-5.37,5.17,5.17,0,0,1,4.64-2.58,5.35,5.35,0,0,1,2.93.76,7.29,7.29,0,0,1,2.29,2.82A9.16,9.16,0,0,1,159.46,215.88Zm-2.9,0a6.69,6.69,0,0,0-1.3-4.1,2.49,2.49,0,0,0-2.1-1,2.58,2.58,0,0,0-2.13,1.07,6.31,6.31,0,0,0-1.25,4v3.17a6.6,6.6,0,0,0,1.32,4.1,2.46,2.46,0,0,0,2.09,1,2.57,2.57,0,0,0,2.12-1.07,6.31,6.31,0,0,0,1.25-4Z"/><path class="cls-2" d="M171.91,207.93V223.7h2.91a2.18,2.18,0,0,1,1.48.4,1.3,1.3,0,0,1,.44,1,1.32,1.32,0,0,1-.44,1,2.24,2.24,0,0,1-1.48.4h-8.7a2.22,2.22,0,0,1-1.48-.4,1.35,1.35,0,0,1-.45-1.05,1.31,1.31,0,0,1,.45-1,2.17,2.17,0,0,1,1.48-.4H169v-12l-2.57.68a4.2,4.2,0,0,1-.93.17,1.25,1.25,0,0,1-.95-.44,1.51,1.51,0,0,1-.4-1.07,1.33,1.33,0,0,1,.29-.9,2.67,2.67,0,0,1,1.24-.59Z"/><path class="cls-2" d="M189.18,207.93V223.7h2.91a2.18,2.18,0,0,1,1.48.4,1.3,1.3,0,0,1,.44,1,1.32,1.32,0,0,1-.44,1,2.24,2.24,0,0,1-1.48.4h-8.7a2.22,2.22,0,0,1-1.48-.4,1.35,1.35,0,0,1-.45-1.05,1.31,1.31,0,0,1,.45-1,2.17,2.17,0,0,1,1.48-.4h2.91v-12l-2.57.68a4.2,4.2,0,0,1-.93.17,1.25,1.25,0,0,1-1-.44,1.51,1.51,0,0,1-.4-1.07,1.33,1.33,0,0,1,.29-.9,2.67,2.67,0,0,1,1.24-.59Z"/><path class="cls-2" d="M211.27,215.88v3.17a9.89,9.89,0,0,1-1.63,5.38A5.18,5.18,0,0,1,205,227a5.36,5.36,0,0,1-2.94-.77,7.18,7.18,0,0,1-2.28-2.82,9.25,9.25,0,0,1-1.07-4.36v-3.17a9.94,9.94,0,0,1,1.61-5.37,5.16,5.16,0,0,1,4.64-2.58,5.35,5.35,0,0,1,2.93.76,7.29,7.29,0,0,1,2.29,2.82A9.28,9.28,0,0,1,211.27,215.88Zm-2.9,0a6.69,6.69,0,0,0-1.3-4.1,2.49,2.49,0,0,0-2.1-1,2.58,2.58,0,0,0-2.13,1.07,6.31,6.31,0,0,0-1.25,4v3.17a6.6,6.6,0,0,0,1.32,4.1,2.46,2.46,0,0,0,2.09,1,2.57,2.57,0,0,0,2.12-1.07,6.31,6.31,0,0,0,1.25-4Z"/><path class="cls-2" d="M159.46,190.82V194a9.89,9.89,0,0,1-1.63,5.38,5.18,5.18,0,0,1-4.64,2.57,5.36,5.36,0,0,1-2.94-.77,7.27,7.27,0,0,1-2.28-2.82A9.25,9.25,0,0,1,146.9,194v-3.17a9.94,9.94,0,0,1,1.61-5.37,5.17,5.17,0,0,1,4.64-2.58,5.35,5.35,0,0,1,2.93.76,7.29,7.29,0,0,1,2.29,2.82A9.16,9.16,0,0,1,159.46,190.82Zm-2.9,0a6.69,6.69,0,0,0-1.3-4.1,2.49,2.49,0,0,0-2.1-1,2.58,2.58,0,0,0-2.13,1.07,6.31,6.31,0,0,0-1.25,4V194a6.6,6.6,0,0,0,1.32,4.1,2.46,2.46,0,0,0,2.09,1,2.57,2.57,0,0,0,2.12-1.07,6.31,6.31,0,0,0,1.25-4Z"/><path class="cls-2" d="M171.91,182.87v15.77h2.91a2.18,2.18,0,0,1,1.48.4,1.3,1.3,0,0,1,.44,1,1.32,1.32,0,0,1-.44,1,2.24,2.24,0,0,1-1.48.4h-8.7a2.22,2.22,0,0,1-1.48-.4,1.35,1.35,0,0,1-.45-1.05,1.31,1.31,0,0,1,.45-1,2.17,2.17,0,0,1,1.48-.4H169v-12l-2.57.68a4.2,4.2,0,0,1-.93.17,1.25,1.25,0,0,1-.95-.44,1.51,1.51,0,0,1-.4-1.07,1.33,1.33,0,0,1,.29-.9,2.67,2.67,0,0,1,1.24-.59Z"/><path class="cls-2" d="M194,190.82V194a9.89,9.89,0,0,1-1.63,5.38,5.17,5.17,0,0,1-4.64,2.57,5.36,5.36,0,0,1-2.94-.77,7.27,7.27,0,0,1-2.28-2.82,9.25,9.25,0,0,1-1.07-4.36v-3.17a9.94,9.94,0,0,1,1.61-5.37,5.17,5.17,0,0,1,4.64-2.58,5.35,5.35,0,0,1,2.93.76,7.29,7.29,0,0,1,2.29,2.82A9.16,9.16,0,0,1,194,190.82Zm-2.9,0a6.69,6.69,0,0,0-1.3-4.1,2.49,2.49,0,0,0-2.1-1,2.58,2.58,0,0,0-2.13,1.07,6.31,6.31,0,0,0-1.25,4V194a6.6,6.6,0,0,0,1.32,4.1,2.46,2.46,0,0,0,2.09,1,2.57,2.57,0,0,0,2.12-1.07,6.31,6.31,0,0,0,1.25-4Z"/><path class="cls-2" d="M211.27,190.82V194a9.89,9.89,0,0,1-1.63,5.38,5.18,5.18,0,0,1-4.64,2.57,5.36,5.36,0,0,1-2.94-.77,7.18,7.18,0,0,1-2.28-2.82,9.25,9.25,0,0,1-1.07-4.36v-3.17a9.94,9.94,0,0,1,1.61-5.37,5.16,5.16,0,0,1,4.64-2.58,5.35,5.35,0,0,1,2.93.76,7.29,7.29,0,0,1,2.29,2.82A9.28,9.28,0,0,1,211.27,190.82Zm-2.9,0a6.69,6.69,0,0,0-1.3-4.1,2.49,2.49,0,0,0-2.1-1,2.58,2.58,0,0,0-2.13,1.07,6.31,6.31,0,0,0-1.25,4V194a6.6,6.6,0,0,0,1.32,4.1,2.46,2.46,0,0,0,2.09,1,2.57,2.57,0,0,0,2.12-1.07,6.31,6.31,0,0,0,1.25-4Z"/></g><path class="cls-3" d="M192.94,378.41s2.79,46.75,2.78,49,2.2,55.49,2.2,55.49H179.19"/><polyline class="cls-3" points="235.63 378.4 232.63 430.68 230.64 482.95 248.25 482.95"/><rect class="cls-4" x="125.7" y="252.76" width="171.26" height="38.29" rx="12"/><ellipse class="cls-5" cx="212.9" cy="381.21" rx="63.04" ry="27.19"/><ellipse class="cls-6" cx="212.26" cy="146.15" rx="75.26" ry="29.88"/><path class="cls-7" d="M137,146.15c0,16.5,33.69,29.88,75.26,29.88s75.26-13.38,75.26-29.88c0,0,.43,216.63,0,221.3-1.55,16.43-33.7,29.88-75.26,29.88S137,384,137,367.45Z"/><path class="cls-8" d="M149.86,365.28V162.84a63.36,63.36,0,0,0,7.91,3.89V388a63.36,63.36,0,0,1-7.91-3.89Z"/><path class="cls-8" d="M184.64,351.07V173.89q-4.08-.64-7.91-1.46v221.3q3.83.81,7.91,1.46Z"/><path class="cls-8" d="M219.24,393.17V176q-3.45.14-7,.13h-.93v221.3h.93q3.54,0,7-.13Z"/><polygon class="cls-8" points="240.25 395.18 240.25 173.92 248.16 172.44 248.16 393.66 240.25 395.18"/><path class="cls-8" d="M268,368.69v18.52c2.37-1.13,6.33-3.29,7.91-4.29V162.16a83.62,83.62,0,0,1-7.91,4.06"/><path class="cls-9" d="M267.23,166.56c-1.8-37.39-106.22-36.4-109.55.05C185,178.82,239.45,179.35,267.23,166.56Z"/><path class="cls-4" d="M134.36,312.92v55c0,16.5,35.19,29.88,78.59,29.88s77-13.45,78.59-29.88c.15-1.53.2-25.89.2-57.93l-.2-37.78c0,16.5-35.19,29.88-78.59,29.88s-78.59-13.38-78.59-29.88Z"/><path class="cls-10" d="M156.93,197.1a3.28,3.28,0,0,1-1.19-.21,3.46,3.46,0,0,1-2.07-4.45c3-8.2,12.82-16.41,25.91-16.41H180a3.49,3.49,0,0,1,3.43,3.52,3.44,3.44,0,0,1-3.52,3.43h-.34c-11,0-17.71,7.24-19.39,11.85A3.46,3.46,0,0,1,156.93,197.1Z"/><path class="cls-10" d="M268,197.1a3.46,3.46,0,0,1-3.26-2.28c-1.7-4.66-8.55-12-19.73-11.84a3.48,3.48,0,0,1-.1-6.95h.43c13.1,0,22.93,8.21,25.92,16.41a3.46,3.46,0,0,1-2.07,4.45A3.36,3.36,0,0,1,268,197.1Z"/><path class="cls-11" d="M173.64,253c0,.23,0,.45,0,.67,0,17.4,17.84,31.51,39.86,31.51s39.86-14.11,39.86-31.51c0-.22,0-.44,0-.67Z"/><path class="cls-12" d="M173.55,252.81c0,.23,0,.61,0,.83a25.7,25.7,0,0,0,2.39,10.76h75.14a25.69,25.69,0,0,0,2.38-10.76c0-.22,0-.6,0-.83Z"/><path class="cls-13" d="M213.48,285.16a46.63,46.63,0,0,0,24.92-6.93,30.84,30.84,0,0,0-4.75-3.93c-8.14-5.46-17.44-6.38-22.91-2.78C203,268.81,195.37,270,192,275a10.07,10.07,0,0,0-1.6,4.3A47.14,47.14,0,0,0,213.48,285.16Z"/><circle class="cls-12" cx="182.64" cy="218.59" r="20.04"/><path class="cls-11" d="M189.83,218.59a7.19,7.19,0,1,1-7.19-7.19A7.19,7.19,0,0,1,189.83,218.59Z"/><circle class="cls-12" cx="240.4" cy="218.59" r="20.04"/><path class="cls-11" d="M247.59,218.59a7.19,7.19,0,1,1-7.19-7.19A7.19,7.19,0,0,1,247.59,218.59Z"/><g id="mask"><circle class="cls-14" cx="241.43" cy="218.36" r="24.42" transform="matrix(0.99, -0.16, 0.16, 0.99, -31.86, 41.49)"/><circle class="cls-15" cx="182.29" cy="218.36" r="24.42" transform="translate(-74.09 341.56) rotate(-75.81)"/><polygon class="cls-16" points="156.88 218.8 137 209.48 137 205.22 158.25 215.87 156.88 218.8"/><polygon class="cls-16" points="266.76 218.8 287.71 209.46 287.71 205.92 265.39 215.87 266.76 218.8"/><path class="cls-16" d="M156.25,218.58A26.06,26.06,0,0,0,208,222.84l.12-.75h7.53l.13.75a26,26,0,1,0-.34-5.13l0,.87h-7.06l0-.87a26.06,26.06,0,0,0-52.1.87Zm69.31-15.94a22.54,22.54,0,1,1,31.88,31.88h0a22.54,22.54,0,1,1-31.88-31.88ZM182.3,196a22.55,22.55,0,0,1,16,38.49h0a22.55,22.55,0,1,1-16-38.49Z"/><path class="cls-17" d="M224.11,207.68c3.54-5.35,7.14-6.81,7.14-6.81L234,203a22.1,22.1,0,0,0-5.73,6.29,19.31,19.31,0,0,0-2.61,7l-4.6-.89A17.83,17.83,0,0,1,224.11,207.68Z"/><path class="cls-18" d="M165,207.68c3.53-5.35,7-6.81,7-6.81l2.92,2.11a22,22,0,0,0-5.74,6.29,19.31,19.31,0,0,0-2.61,7l-4.6-.89A17.78,17.78,0,0,1,165,207.68Z"/></g><path class="cls-3" d="M138,298h0s-29.53,20.56-23.4,34.21"/><path class="cls-19" d="M72.52,351.58l0,.07h0a.19.19,0,0,0,0-.07m-.08-.78a2.15,2.15,0,0,0,0,.36,2.16,2.16,0,0,1,0-.36"/><path class="cls-20" d="M20.33,298.54c-.89-1.33-1.43-4.15,3.78-5.29C29.85,292,21,299.52,20.33,298.54Z"/><polyline class="cls-21" points="136.1 333.04 172.69 321.72 69.19 343.36 136.1 333.04"/><rect class="cls-20" x="132.93" y="327.11" width="42.71" height="4.27" rx="1.6" transform="translate(-85.09 55.56) rotate(-16.07)"/><path class="cls-22" d="M133.93,335.73v0a1.74,1.74,0,0,0,2.25.92l37.38-10.77a1.74,1.74,0,0,0,1.42-2v0Z"/><polyline class="cls-23" points="136.82 328.74 137.4 329.61 137.63 329.94 172.69 321.72 136.82 328.74"/><path class="cls-24" d="M138.32,331s2,3.29-2.46,5.68C132.17,338.66,135.46,331.8,138.32,331Z"/><path class="cls-20" d="M136.26,335,60.69,351.27a2.88,2.88,0,0,1-3-1.21L22.33,297.68a2.88,2.88,0,0,1,1.78-4.43L99.68,277a2.89,2.89,0,0,1,3,1.2L138,330.54a2.89,2.89,0,0,1-1.78,4.44"/><path class="cls-4" d="M135,337,59.48,353.29a2.89,2.89,0,0,1-3-1.2L20.4,298.65a2,2,0,0,1,1.25-3.11L98.46,279a2.88,2.88,0,0,1,3,1.21l35.36,52.38A2.88,2.88,0,0,1,135,337"/><polyline class="cls-25" points="114.38 299.32 115.99 301.71 114.38 299.32"/><polyline class="cls-26" points="100.42 344.46 100.42 344.46 100.45 344.45 100.45 344.45 100.42 344.46"/><polygon class="cls-20" points="75.61 311.79 75.4 315.61 76.54 315.85 76.62 314.44 80.53 318.61 80.73 314.81 79.56 314.54 79.49 315.93 75.61 311.79"/><path class="cls-20" d="M82.55,311.19A10.12,10.12,0,0,0,80,309.73a9.66,9.66,0,0,0-2.81-.66,7.62,7.62,0,0,0-2.76.25,5.56,5.56,0,0,0-2.19,1.17A4.42,4.42,0,0,0,71,312.33a4.67,4.67,0,0,0-.19,2.24,6.35,6.35,0,0,0,.93,2.42,8.61,8.61,0,0,0,1.94,2.12,9.93,9.93,0,0,0,2.53,1.46,9.75,9.75,0,0,0,2.81.67A7.65,7.65,0,0,0,81.8,321,5.43,5.43,0,0,0,84,319.81,4.34,4.34,0,0,0,85.22,318a4.71,4.71,0,0,0,.2-2.25,6.4,6.4,0,0,0-.94-2.41A8.41,8.41,0,0,0,82.55,311.19Zm-1.33,9-3.91-4.16,0,.55L74.57,316l.33-5.84,3.92,4.17,0-.56,2.63.58Z"/><line class="cls-3" x1="99.63" y1="344.04" x2="86.82" y2="346.56"/><line class="cls-3" x1="93.59" y1="344.61" x2="91.13" y2="340.93"/><line class="cls-3" x1="86.82" y1="346.56" x2="84.36" y2="342.88"/><line class="cls-3" x1="100.27" y1="343.81" x2="97.81" y2="340.13"/><path class="cls-3" d="M328,339.79h0s-25.36,1.83-32.2-11.47c-10.13-19.68-10.14-30.17-10.14-30.17"/><line class="cls-3" x1="332.67" y1="341.52" x2="324.28" y2="341.68"/><line class="cls-3" x1="332.87" y1="335.52" x2="324.48" y2="335.68"/><line class="cls-3" x1="323.74" y1="325.32" x2="323.14" y2="345.06"/><line class="cls-3" x1="332.67" y1="345.14" x2="324.28" y2="345.3"/><path class="cls-27" d="M205.31,352.63s-2,1.16,1.43,1.55a29.8,29.8,0,0,0,10.82-.45,18.81,18.81,0,0,0,2.88,1.4C210.2,359.52,197.27,354.88,205.31,352.63Zm-1.25-5.73s-2.24,1.66,1.18,2a42.6,42.6,0,0,0,14-.67,6.07,6.07,0,0,0,2.15,1.31C209,353.18,195.21,349.84,204.06,346.9Z"/><path class="cls-28" d="M214.61,337.19c2.52,2.91-.67,5.52-.67,5.52s6.41-3.31,3.47-7.45c-2.75-3.86-4.86-5.77,6.55-12.39C224,322.87,206.06,327.34,214.61,337.19Z"/><path class="cls-27" d="M228.15,356.86s1.47,1.22-1.63,2.17c-5.91,1.79-24.6,2.32-29.79.07-1.86-.82,1.64-1.94,2.74-2.18a6.92,6.92,0,0,1,1.8-.2c-2.07-1.46-13.41,2.87-5.76,4.11,20.87,3.38,38.05-1.52,32.64-4ZM206.27,341s-9.5,2.26-3.36,3.08a70.52,70.52,0,0,0,12.57-.14c3.93-.33,7.88-1,7.88-1a16.56,16.56,0,0,0-2.39,1.28c-9.65,2.54-28.29,1.35-22.93-1.24a17.94,17.94,0,0,1,8.23-1.95Zm17,9.53c9.81-5.1,5.28-10,2.11-9.33a7.46,7.46,0,0,0-1.12.3,1.83,1.83,0,0,1,.84-.65c6.26-2.2,11.08,6.5-2,9.94A.84.84,0,0,0,223.32,350.5Z"/><path class="cls-28" d="M217.41,312.19s5.43,5.44-5.16,13.79c-8.49,6.71-1.93,10.53,0,14.9-4.95-4.47-8.59-8.41-6.15-12.07,3.58-5.38,13.5-8,11.31-16.62Z"/><path class="cls-27" d="M207.24,364.32c9.41.6,23.88-.34,24.22-4.79,0,0-.66,1.69-7.78,3a77.47,77.47,0,0,1-23.83.36S201.05,363.92,207.24,364.32Z"/><path class="cls-28" d="M231,372.31h-.28v-.16h.77v.16h-.29v.8H231Zm1.55,0h0l-.28.76h-.13l-.29-.76h0v.76h-.19v-1H232l.26.68.26-.68h.28v1h-.18v-.76Zm-26.87,9a4.28,4.28,0,0,1-2.67,1.2,1.71,1.71,0,0,1-1.86-1.87c0-1.25.7-2.16,3.49-2.16h1v2.83Zm2.45,2.77v-8.56c0-2.19-1.25-3.63-4.26-3.63a11.26,11.26,0,0,0-4.54,1l.36,1.52a10.58,10.58,0,0,1,3.51-.7c1.73,0,2.48.7,2.48,2.14v1.08h-.87c-4.21,0-6.11,1.64-6.11,4.09,0,2.12,1.25,3.32,3.61,3.32a5.47,5.47,0,0,0,3.7-1.54l.19,1.3Zm8.18,0h-3.06l-3.68-12h2.67l2.28,7.36.51,2.21a46.19,46.19,0,0,0,2.38-9.57H220A48.86,48.86,0,0,1,216.33,384.11Zm11.72-2.77a4.26,4.26,0,0,1-2.67,1.2,1.7,1.7,0,0,1-1.85-1.87c0-1.25.7-2.16,3.49-2.16h1Zm2.46,2.77v-8.56c0-2.19-1.26-3.63-4.26-3.63a11.22,11.22,0,0,0-4.54,1l.36,1.52a10.58,10.58,0,0,1,3.51-.7c1.73,0,2.47.7,2.47,2.14v1.08h-.86c-4.21,0-6.11,1.64-6.11,4.09,0,2.12,1.25,3.32,3.61,3.32a5.47,5.47,0,0,0,3.7-1.54l.19,1.3Zm-34.48,2a6.4,6.4,0,0,1-3.06,2.29L191.76,387a5,5,0,0,0,2.12-2,7.53,7.53,0,0,0,.46-3.46V367.88H197v13.48C197,384,196.73,385.09,196,386.14Z"/></svg>