<svg xmlns="http://www.w3.org/2000/svg" xmlns:xlink="http://www.w3.org/1999/xlink" viewBox="0 0 432 576"><defs><style>.cls-1{isolation:isolate;}.cls-2{fill:#96681d;}.cls-3{fill:#47321f;}.cls-35,.cls-4{fill:none;}.cls-4{stroke:#000;stroke-linecap:round;stroke-linejoin:round;stroke-width:8px;}.cls-5{fill:#009e54;}.cls-6{fill:#2796b8;}.cls-7{fill:#e0e0e0;mix-blend-mode:multiply;}.cls-8{fill:#fbd82b;}.cls-9{fill:#ef7a2b;}.cls-10{fill:#ffe278;}.cls-11{fill:url(#radial-gradient);}.cls-12,.cls-16{fill:#fff;}.cls-13{fill:#701d1d;}.cls-14{fill:#b57817;}.cls-15{fill:#381911;}.cls-16{opacity:0.12;}.cls-17{fill:#a36400;}.cls-18{fill:#ffe33d;}.cls-19{fill:#1d1d1d;}.cls-20{fill:#fe3545;}.cls-21{fill:#7179f8;}.cls-22{fill:#fbfbfb;}.cls-23{fill:#753d17;}.cls-24{fill:#934d1d;}.cls-25{fill:#af571c;}.cls-26{fill:#e8003d;stroke:#e8003d;}.cls-26,.cls-35{stroke-miterlimit:10;}.cls-27{fill:#f70000;}.cls-28{fill:#bf8e52;}.cls-29{fill:#8a533f;}.cls-30{fill:#2aad38;}.cls-31{fill:#2c1d1c;}.cls-32{fill:#f7e7d7;}.cls-33{fill:#cf9167;}.cls-34{fill:#e8ad85;}.cls-35{stroke:#ffe088;stroke-width:0.75px;}</style><radialGradient id="radial-gradient" cx="220.82" cy="340.67" r="78.53" gradientUnits="userSpaceOnUse"><stop offset="0" stop-color="#fff"/><stop offset="0.19" stop-color="#00a8de"/><stop offset="0.4" stop-color="#e91388"/><stop offset="0.6" stop-color="#eb2d2e"/><stop offset="0.8" stop-color="#fde92b"/><stop offset="1" stop-color="#009e54"/></radialGradient></defs><g class="cls-1"><g id="Layer_1" data-name="Layer 1"><path class="cls-2" d="M280.37,482c0-7.49-6.36-11.45-22.78-15.3l-.5-16.52-29,1.33,1.5,31.72h49.72C279.66,482.83,280,482.43,280.37,482Z"/><path class="cls-3" d="M280.35,481.23a.59.59,0,0,0-.47-.2H229.55a.63.63,0,0,0-.39.13.4.4,0,0,0-.16.32l.09,2.66a.51.51,0,0,0,.55.43h49.8a.64.64,0,0,0,.31-.07A2,2,0,0,0,280.35,481.23Z"/><path class="cls-3" d="M247.35,453.73h6.06a1,1,0,1,0,0-2h-6.06a1,1,0,1,0,0,2Z"/><path class="cls-3" d="M248.2,458.18h5.5a1,1,0,1,0,0-2h-5.5a1,1,0,1,0,0,2Z"/><path class="cls-3" d="M248.71,462.5H254a1,1,0,1,0,0-2h-5.27a1,1,0,1,0,0,2Z"/><path class="cls-3" d="M250.06,466.88H254a1,1,0,1,0,0-2h-3.92a1,1,0,1,0,0,2Z"/><polyline class="cls-4" points="142.07 301.96 119.14 326.57 100.81 367.91"/><rect class="cls-5" x="119.73" y="290.74" width="41.88" height="27.11" transform="translate(452.7 426.87) rotate(136.26)"/><rect class="cls-5" x="122.71" y="304.27" width="3.3" height="31.29" transform="translate(435.39 465.06) rotate(136.26)"/><path class="cls-4" d="M301.27,304.14l29.94,15.32s2.72,1.3,10.88-19.28l8.24-20.81"/><polyline class="cls-4" points="362.53 262.32 349.5 282.38 344.07 261.81"/><rect class="cls-5" x="282.52" y="294.66" width="41.88" height="27.11" transform="translate(152.12 -96.98) rotate(24.07)"/><rect class="cls-5" x="322.44" y="301.78" width="3.3" height="31.29" transform="translate(157.68 -104.59) rotate(24.07)"/><path class="cls-2" d="M160.35,482c0-7.7,6.55-11.77,23.44-15.73l.51-17,29.83,1.36-1.55,32.64H161.44C161.08,482.84,160.7,482.43,160.35,482Z"/><path class="cls-3" d="M160.4,481.27a.59.59,0,0,1,.47-.2h51.79a.63.63,0,0,1,.41.13.36.36,0,0,1,.16.32l-.09,2.62a.51.51,0,0,1-.56.43H161.33a.71.71,0,0,1-.32-.07A2,2,0,0,1,160.4,481.27Z"/><path class="cls-3" d="M193.37,453.75h-6.05a1,1,0,1,1,0-2h6.05a1,1,0,1,1,0,2Z"/><path class="cls-3" d="M192.52,458.2H187a1,1,0,1,1,0-2h5.5a1,1,0,1,1,0,2Z"/><path class="cls-3" d="M192,462.52h-5.27a1,1,0,1,1,0-2H192a1,1,0,1,1,0,2Z"/><path class="cls-3" d="M190.67,466.9h-3.93a1,1,0,1,1,0-2h3.93a1,1,0,1,1,0,2Z"/><g id="_36" data-name="36"><path class="cls-6" d="M205.44,312.06c-2.72-1.54-9.26-7-12.73-5.67-2.91,1.09-4.09,7.28-4.45,14.83-.56,11.64.82,26.55.79,31,0,7,.3,30-1.72,36.81-.29.95-2.06,34.31-2.06,34.31l-2.43,45.26c1.94-.35,3.22-.81,5-1a22.6,22.6,0,0,1,5.31.06c7.67.85,21,5.27,21,1.15,0-18.19,2-26.69,1-48.45l1.72-27.88s-.92-64.1,6.35-56.73c-.33-.33-.38-1.94-.35-4.07.08-3.07.39-7.2.56-9.92.06-1.13.1-2,.08-2.5C216.88,318.48,211.13,315.28,205.44,312.06Z"/><path class="cls-6" d="M249.43,339.89c-.81-7.81.52-23.74-7.06-28.78-7-4.66-19.52,4.89-26.34,6.85.36,3.3-.79,6.42-.45,9.72.31,2.77,1.37,5.7,1.8,8.5.13.91.29,1.84.42,2.76.87,5.53,1.81,11,3.22,16.41,3.69,14.27,3.39,26,4.3,41.28.46,8,.79,15.93.58,24-.4,15.78,2.95,46.83,2.95,46.83s2.33-.12,4.63,0a16.78,16.78,0,0,1,3.12.39,35.5,35.5,0,0,0,20.72-1.19q-.06-7.59-.08-15.17c0-4.62-1-8.45-1.6-13-.77-5.47-2-17.78-1.59-23.28"/><path class="cls-7" d="M223.41,321.76l-35.15-.54c-.56,11.64.82,26.55.79,31,0,7,.3,30-1.72,36.81-.29.95-2.06,34.31-2.06,34.31l-2.43,45.26c1.94-.35,3.22-.81,5-1l5-84-3-57.82s3.86.33,17.36,2.91c4.39.85,10.72,3,15.75,3,10.44,0,24.26-5.45,24.26-5.45l-1.6-4.12Z"/><path class="cls-7" d="M224.57,390.82l.85-51-7.62-.88c.87,5.53,1.81,11,3.22,16.41,3.69,14.27,5,22,5.95,37.36.46,8-.86,19.85-1.07,27.89-.4,15.78,2.95,46.83,2.95,46.83s2.33-.12,4.63,0c-.83-15.82-4.3-49.28-5.63-51.07Z"/><path class="cls-8" d="M199.53,447.33c11.92-.39,4.34-12.66-1.29-2.08,5.63-10.58-8.72-10.11-2.43.08-6.29-10.19-13.06,2.55-1.15,2.16-11.91.39-4.33,12.66,1.29,2.08-5.62,10.58,8.73,10.11,2.43-.08C204.68,459.68,211.45,446.94,199.53,447.33Z"/><path class="cls-9" d="M197.64,445.41A2.18,2.18,0,1,0,199.2,447,2.14,2.14,0,0,0,197.64,445.41Z"/><path class="cls-9" d="M245.29,422.12c9.36-.31,3.41-9.95-1-1.64,4.42-8.31-6.85-7.94-1.91.07-4.94-8-10.26,2-.9,1.69-9.36.31-3.41,9.95,1,1.64-4.42,8.31,6.86,7.94,1.91-.07C249.34,431.82,254.65,421.81,245.29,422.12Z"/><path class="cls-8" d="M243.26,420.36a2.18,2.18,0,1,0,2.17,2.18A2.17,2.17,0,0,0,243.26,420.36Z"/></g><ellipse class="cls-6" cx="220.62" cy="376.61" rx="63.04" ry="27.19"/><path class="cls-8" d="M295.3,163c.1,64.08.27,194.51-.06,198.22-1.55,17.3-33.7,31.47-75.26,31.47s-75.26-14.09-75.26-31.47L148,161.91l15.27-11.49c13.72,7.64,35-13,59.63-13,22.12,0,39,18.24,52.81,11.89Z"/><path class="cls-10" d="M157.58,360.68V158.24a67,67,0,0,0,7.91,3.89v221.3a67,67,0,0,1-7.91-3.89Z"/><path class="cls-10" d="M192.36,346.46v-204c-2.72-.42-5.36.54-7.91,0V389.13c2.55.54,5.19,1,7.91,1.45Z"/><path class="cls-10" d="M219.06,140.74V392.85H220c2.36,0,4.69,0,7-.14V131.79"/><polygon class="cls-10" points="247.97 390.35 247.97 147.59 255.88 145.96 255.88 388.68 247.97 390.35"/><path class="cls-10" d="M283.66,364.09V157.56a83.69,83.69,0,0,1-7.91,4.05v221c2.38-1.14,6.34-3.3,7.91-4.3Z"/><path class="cls-11" d="M141.46,308.4v55.9c0,16.79,35.19,30.39,78.59,30.39S297,381,298.64,364.3c.15-1.56.2-26.33.21-58.92l-.21-34.83c0,16.78-35.18,26.8-78.59,26.8s-76.66-13.1-76.66-29.88Z"/><circle class="cls-12" cx="195.17" cy="205.42" r="20.91"/><circle class="cls-12" cx="250.85" cy="205.42" r="20.91"/><circle class="cls-13" cx="194.45" cy="210.15" r="8.12"/><circle class="cls-13" cx="251.17" cy="210.24" r="8.12"/><path class="cls-14" d="M170.82,189.2a3.68,3.68,0,0,1-1.34-.24,3.92,3.92,0,0,1-2.35-5c3.38-9.28,14.51-18.57,29.32-18.57h.49a3.93,3.93,0,0,1-.11,7.85c-12.64-.15-20.4,8.13-22.32,13.4A3.93,3.93,0,0,1,170.82,189.2Z"/><path class="cls-14" d="M274.68,189.2a3.92,3.92,0,0,1-3.69-2.58c-1.9-5.22-9.52-13.4-21.94-13.4h-.44a3.93,3.93,0,0,1-.05-7.85H249c14.82,0,26,9.29,29.33,18.57a3.92,3.92,0,0,1-2.35,5A3.72,3.72,0,0,1,274.68,189.2Z"/><path class="cls-15" d="M253.73,106.41s0-.14,0-.37C253.75,106.27,253.73,106.41,253.73,106.41Z"/><path class="cls-16" d="M183.84,109.88h0Z"/><path class="cls-16" d="M184,109.89h0Z"/><path class="cls-17" d="M298.67,364.67c-1.62,17.09-35.19,31.09-78.59,31.09s-78.59-13.92-78.59-31.09v-7.35c0,17.17,35.18,31.09,78.59,31.09s77-14,78.59-31.09Z"/><rect class="cls-8" x="211.79" y="382.1" width="22.25" height="18.74"/><rect class="cls-17" x="218.2" y="388.5" width="9.43" height="5.92"/><g id="_19" data-name="19"><path class="cls-18" d="M267.83,466.64v0S267.82,466.64,267.83,466.64Z"/></g><path class="cls-19" d="M191.45,341.82s0-.09,0-.12a3.65,3.65,0,0,1,3-2.21q1,0,2,0a2,2,0,0,0,1.44-.59,2.12,2.12,0,0,0,.53-1.33,2.46,2.46,0,0,0-.39-1.24.35.35,0,0,0-.62-.09c-.33.32-.58.79-1.16.64,0-.41-.1-.83-.12-1.24a11.23,11.23,0,0,1,.6-2.61,5.66,5.66,0,0,1,.27-.79c.18-.51.19-.51-.32-.56h-.26c-.32,0-.36-.2-.26-.41a5.13,5.13,0,0,1,1.91-2.16c.82-.51,1.7-.9,2.56-1.33.22-.1.45-.18.67-.26s.39-.25.16-.51a4.7,4.7,0,0,1-.54-.56,1.68,1.68,0,0,1-.11-.6c.23,0,.5-.17.68-.09a4.76,4.76,0,0,0,1.1.48,18,18,0,0,0,3.94.5l.21-.08-.21-.18c-.31-.52-.86-.9-.92-1.57l-.06-.44c.2,0,.45-.11.6,0a5.46,5.46,0,0,1,1.09.82,4.22,4.22,0,0,0,2.09,1.23c.23.06.4.28.61.41a.52.52,0,0,0,.34.09.39.39,0,0,0,.14-.32c-.06-.66.19-1.35-.24-2-.1-.15,0-.42,0-.64s.09-.46.43-.43.46-.15.28-.47-.47-.84-.7-1.27a1.71,1.71,0,0,1-.13-.34,1.92,1.92,0,0,1-.14.33,2.09,2.09,0,0,1-.23.29c-.23.28-.47.2-.61-.06a2.65,2.65,0,0,1-.28-.79,7.93,7.93,0,0,0-.3-1.3,1.18,1.18,0,0,1,.12-1.28.46.46,0,0,0,0-.38.8.8,0,0,0-.33-.37c-.07,0-.26.12-.35.23s0,.26-.11.34a.37.37,0,0,1-.32.11c-.08,0-.17-.17-.18-.27-.15-1.65.12-2.45,1.48-4.45.06-.09,0-.23.06-.35l-.28.05a2.7,2.7,0,0,1-.48.09c-.07,0-.2,0-.21-.08a.52.52,0,0,1,0-.35,6.06,6.06,0,0,1,6.7-1.48c.39.15.89-.14,1.16.34.9.18,1.39.89,2,1.48a.88.88,0,0,0,1.09.22,8.63,8.63,0,0,1,2.44-.37c1-.05,2,0,3,0a9.46,9.46,0,0,1,4.15,1c.35.17.48,0,.63-.2a10.65,10.65,0,0,1,2.84-2.26,4.66,4.66,0,0,1,2.76-.86c.31,0,.62-.19.94-.23a1.41,1.41,0,0,1,.89,0,2.34,2.34,0,0,0,1.2.25c.12,0,.22.17.33.26a2.62,2.62,0,0,1-.22.25c-.39.29-.4.36-.06.52a5.71,5.71,0,0,1,2.78,2.89c.18.37.13.48-.23.49a2.26,2.26,0,0,1-.52,0c-.7-.13-.7-.14-.71.44a5.9,5.9,0,0,0,0,1c.18,1-.41,1.85-.54,2.78a.63.63,0,0,1-.33.37.56.56,0,0,1-.43-.07c-.07-.05-.07-.22-.1-.34a2.07,2.07,0,0,0-.17.24c-.37.66-.73,1.34-1.12,2-.22.39-.42.35-.71-.08s-.46-.42-.73,0a4.84,4.84,0,0,0-.78,1.49,1.58,1.58,0,0,1-.52.83,18.46,18.46,0,0,1-3.52,2.48c-.48.31-.6.54-.21.88a14,14,0,0,0,2.63,2.41c.41.22.37.42-.06.65l-.74.43c-.61.33-.62.33-.15.81s.74.72,1.09,1.1c.21.23.26.42-.14.53s-1,.34-1.48.51c-.68.24-.76.64-.29,1.22a1.9,1.9,0,0,0,2,.86,6.21,6.21,0,0,1,2,.26,5.93,5.93,0,0,1,2,.23c.54.24,1.26-.14,1.83.29a6.38,6.38,0,0,1,3,.55c1.58.48,3.07,1.16,3.75,2.88a4.4,4.4,0,0,1-.45,3.9,4.93,4.93,0,0,1-2.43,1.65,3.09,3.09,0,0,1-.73.12c-.87,0-1.73,0-2.6,0-.66,0-1.31-.22-2-.23a8.65,8.65,0,0,1-1.77-.44c-1.3-.29-2.55-.76-3.82-1.12-.2-.06-.38,0-.58.28a14.21,14.21,0,0,0-.73,2c-.26.58.1,1.2.3,1.69.34.81.65,1.63,1,2.44A26.3,26.3,0,0,0,232.8,353c.44.78.85,1.57,1.35,2.3a20.07,20.07,0,0,0,1.46,1.74,3.71,3.71,0,0,0,2.42,1.62,1.84,1.84,0,0,0,1,0,19.87,19.87,0,0,1,3-.69c.23,0,.45-.23.67-.24a3.88,3.88,0,0,1,1.78.09,6.07,6.07,0,0,1,1.39,1.46c.05.05,0,.17,0,.26.1.25-.24.66.26.78v.52c-.5.12-.16.52-.26.78a2.79,2.79,0,0,1-1.17,1.57,9.12,9.12,0,0,1-2.69,1.07,10.94,10.94,0,0,0-2.43.69,4.28,4.28,0,0,0-1.44.9c-.64.72-1.28,1.45-1.89,2.21a4.77,4.77,0,0,1-2.05,1.36c-.26.08-.59.31-.79.23-.63-.26-1.38-.43-1.75-1.07a15.49,15.49,0,0,1-1.67-3.33,7.28,7.28,0,0,0-.93-1.82,1.67,1.67,0,0,0-.85-.73c-.19,0-.5.38-.77.57a2.07,2.07,0,0,1-.44.15,1.57,1.57,0,0,1-.11-.35,7.07,7.07,0,0,0-.25-2.62c-.16-.36.22-.84-.21-1.17-.29.23-.58.47-.89.68a.4.4,0,0,1-.34.08.45.45,0,0,1-.13-.32,7.78,7.78,0,0,0-.49-2.52,2.44,2.44,0,0,0-.48-.85c-.22-.29-.35-.09-.46.07a3.34,3.34,0,0,0-.39.75c-.27.88-.52,1.77-.78,2.66a11.66,11.66,0,0,1-1.77,3.16,1.58,1.58,0,0,1-.44.19c0-.16-.17-.4-.12-.45.44-.42,0-1.1.49-1.5,0,0,0-.32-.06-.33a.71.71,0,0,0-.44.08,1.38,1.38,0,0,0-.26.4,7.71,7.71,0,0,1-2.48,2.6c-.34.22-.77.66-1,.42s.05-.73.33-1a.37.37,0,0,0,0-.34.38.38,0,0,0-.33-.09,14,14,0,0,0-1.87,1.11,2.25,2.25,0,0,0-.6,1,.52.52,0,0,0,.41.68c.61-.05,1.16.34,1.71.26a4.62,4.62,0,0,1,2.65.85,2.41,2.41,0,0,1,1.15,1.3,2,2,0,0,1-.5,2c-.35.45-.95.42-1.27.85h-2.34c0-.35-.27-.25-.46-.26a4.39,4.39,0,0,1-1.75-.07,2.22,2.22,0,0,0-1.69-.14,7.22,7.22,0,0,1-1.82.21h-2.08a1.23,1.23,0,0,1-.94-.26,2.18,2.18,0,0,1-.9-2.11c.08-.55,0-1.13,0-1.68.06-.84.2-1.66.25-2.49,0-.56,0-.57-.56-.31-.11.05-.24.05-.35.1l-.53.23a2.51,2.51,0,0,1-.1-.6.89.89,0,0,1,.15-.45,15.3,15.3,0,0,1,.92-1.44c.53-.65,1.3-1.1,1.66-1.91,0,0,.25,0,.38,0s.18,0,.24,0a.8.8,0,0,0,.26-.29s-.16-.22-.19-.21a1.22,1.22,0,0,0-.31.25c-.56-.07-1.08-.05-1.28.62a.14.14,0,0,1-.09.09c-.11,0-.27.08-.34,0s-.1-.22-.11-.33a.62.62,0,0,1,.08-.36,9.12,9.12,0,0,1,2.05-2.16,2.66,2.66,0,0,0,1.52-2.95,2.16,2.16,0,0,0-.84-1.33A1.49,1.49,0,0,0,208,353c-.06,0-.12.28-.14.43,0,.34-.25.62-.55.55s-.39-.37-.47-.62a2.46,2.46,0,0,1,0-.77c0-.69,0-1.38,0-2.07a14.48,14.48,0,0,1,.32-2.08c0-.08,0,0-.07,0l.11.12a1.67,1.67,0,0,0,.12-.16s0-.05-.16,0c-.44.32-.79.52-.88,1,0,.08-.37.14-.55.12s-.18-.23-.2-.37a6.74,6.74,0,0,1,.38-2.44,19.39,19.39,0,0,1,2.53-5.17c.73-1.16,1.3-2.41,2.06-3.55a1.56,1.56,0,0,0,.19-1.2c0-.21-.47-.34-.73-.5a.92.92,0,0,0-.23-.09,13.5,13.5,0,0,0-1.37-.42c-.17,0-.38.12-.57.18a3.09,3.09,0,0,0-2.26,2,4.77,4.77,0,0,0-.74,1.63,14.78,14.78,0,0,1-.63,1.84,8.52,8.52,0,0,1-1,2.31,7,7,0,0,1-2.43,2.31A4.64,4.64,0,0,1,198,347a17.84,17.84,0,0,1-2.07,0c-.67-.1-1.26-.57-2-.49-1.15-.65-2.36-1.24-2.55-2.77,0,0-.14-.07-.22-.1v-1C191.7,342.48,191.36,342.08,191.45,341.82Zm30.43-.26-.09-.21-.17.21-.26,1.56c-.5.13-.16.53-.26.78a3,3,0,0,1-.32.25,4.59,4.59,0,0,1-.71-.82,12.69,12.69,0,0,1-1.06-2.52,10.84,10.84,0,0,1-.61-1.55c-.59.07-1,.55-1.42.84a11.19,11.19,0,0,0-1,.72c-.4.31-.56.31-1.14,0,.08-.1.23-.19.25-.3a6.06,6.06,0,0,0,0-.74,4.7,4.7,0,0,1,.2-1.19,2.44,2.44,0,0,0,.32-1.67c-.11-.08-.21-.24-.32-.25-.59,0-1.18,0-1.76,0a1.11,1.11,0,0,0-1.37.72c-.51,1.1-1.33,2-1.89,3.1a15.25,15.25,0,0,0-1.51,3.4,5.32,5.32,0,0,0-.43,1.62c-.09.11-.24.21-.25.32a8.16,8.16,0,0,0,0,1v.78a8,8,0,0,0,0,1c0,.11.16.21.25.32a2.54,2.54,0,0,0,.09.48c.58,1.36,1.12,2.74,1.76,4.08a3.32,3.32,0,0,1,.42,2.37,37.63,37.63,0,0,1-1.34,3.73c-.41,1.09-.89,2.15-1.25,3.26s-.56,1.93-.8,2.91a5.85,5.85,0,0,0,.08,3.2c.2.42.46.82,1,.77a.9.9,0,0,0,1.3,0h4.42c.1.09.19.23.3.25a4.56,4.56,0,0,0,.74,0c.73,0,1.47,0,2.21,0a1.24,1.24,0,0,0,1.17-.89,1.52,1.52,0,0,0-.89-1.71,3.16,3.16,0,0,0-1.45-.25c-.11-.09-.2-.23-.31-.25a4.45,4.45,0,0,0-.73,0,3,3,0,0,1-1.54-.38,1.17,1.17,0,0,1-.79-1.58,2.17,2.17,0,0,1,.37-.62,16.26,16.26,0,0,1,3.06-2.61,22.65,22.65,0,0,0,2.37-1.79c.39-.38.84-.7,1.23-1.09a6.87,6.87,0,0,0,.85-1c.11-.15.07-.41.18-.57a11.34,11.34,0,0,0,1-2.56c.5-.13.16-.53.26-.78v-5.2c0-.2-.13-.5.26-.52,0,.26.11.43.24.66.49.84,1.18,1.63,1.06,2.72a4.45,4.45,0,0,0,0,.73c0,.11.16.2.25.31s0,.43,0,.64,0,.34.09.34a.61.61,0,0,0,.43-.09c.8-.74,1.27-1.75,2.08-2.48.53-.48.69-1.21,1.13-1.72a5.89,5.89,0,0,0,.91-1.71,18.18,18.18,0,0,0,1.08-3.57c.5-.12.16-.52.26-.78v-.78s.12,0,.12,0a5,5,0,0,0,0-2.59s-.08,0-.12,0a1.6,1.6,0,0,0,0-.38c-.12-.72-.59-1.34-.56-2.11,0-.12-.31-.24-.47-.37q-.39-.53-.78,0-.54.39,0,.78v.26c.1.26-.24.66.26.78l1,2.86c.08.43-.1.6-.52.52-.6-.2-1.39-.25-1.75-.66s-1.25-.41-1.49-1.12c0-.15-.4,0-.4.25,0,.68,0,1.37,0,2.05-.5.13-.16.53-.26.78v2.08c-.09.41-.32.32-.53.13a16.17,16.17,0,0,1-1.57-2,3.46,3.46,0,0,1-.76-1.74Zm13.52,2.86c.12.51.52.17.78.26h.52c.1.09.19.23.31.25a4.42,4.42,0,0,0,.73,0c1.2,0,2.42-.07,3.61,0,.78.07,1.25-.6,2-.59.22,0,.55-.53.62-.86.15-.75.9-1.4.37-2.29a7.89,7.89,0,0,1-.38-1.13c-.16-.36-.66-.34-.85-.79-.11-.28-.64-.44-1-.55a27.5,27.5,0,0,0-3.55-1.1c-.1-.08-.2-.23-.31-.24a4.45,4.45,0,0,0-.73,0h-1.3c-.11-.08-.21-.24-.32-.25-.67,0-1.35,0-2,0h-1c-.11-.08-.21-.24-.32-.25-.59,0-1.17,0-1.76,0s-.32.51-.21.68a4.69,4.69,0,0,1,.47,2.7c0,.76,0,1.52,0,2.28,0,.11.16.22.25.32s.12.23.2.26Zm6.5,18.73a5.32,5.32,0,0,0,1.84-.52c.51-.13.45-.86,1-.92.06,0,.13-.1.17-.17a.51.51,0,0,0,.09-.22,2.83,2.83,0,0,0-.91-2.33,2.51,2.51,0,0,0-1.43-.26c-.26.1-.66-.24-.78.26a2,2,0,0,1-.32.18,10.53,10.53,0,0,1-4.42.59,2,2,0,0,1-.9-.32,12.74,12.74,0,0,1-1.45-1.19,12,12,0,0,1-1.71-2.39c-.58-.88-1-1.86-1.55-2.75a10.19,10.19,0,0,1-1.05-1.77,3.72,3.72,0,0,0-1-1.79c-.12-.1,0-.41-.13-.59s-.38-.08-.4,0a14.85,14.85,0,0,1-2.15,3.26c-.64.79-1,1.8-2.07,2.25-.36.16-.33.4-.09.71.53.66,1.38,1,1.66,1.91.74.41.86,1.44,1.72,1.73.05,0,.07.15.07.23,0,.53.52.77.7,1.24a12.29,12.29,0,0,0,1.42,2.27c.3.44.35,1,.75,1.38,0,1.21.71,2.22,1.05,3.33.23.77,1.09,1.38,1.73,1.07s1.41-.38,1.77-1a11.5,11.5,0,0,1,2.54-2.8,3,3,0,0,1,2-.81c.25-.1.66.24.78-.26h.26C241.38,363.31,241.78,363.65,241.9,363.15Zm-33.54-33.29a1.4,1.4,0,0,1,.1-.47c.11-.18.32-.3.44-.47a2.77,2.77,0,0,0,.2-.53l-.49-.09h-.25c-.11-.09-.2-.24-.32-.25-.32,0-.65,0-1,0h-1.82c-.26.1-.66-.24-.78.26-.39,0-.73.21-1.06.23-1.08.05-1.83.83-2.77,1.16-.25.09-.44.48-.59.77-.29.57-.52,1.16-.78,1.74-.51.12-.17.53-.26.78v2.08a4.56,4.56,0,0,0,0,.74c0,.11.16.2.25.3v3.38c-.23.81-.47,1-1.15,1h-1.68a3.71,3.71,0,0,0-2.5.52c-1.16,0-1.18,1-1.4,1.7a2.57,2.57,0,0,0,.46,1.85c.22.43.56.48.91.62a2.8,2.8,0,0,1,.41.25c.13.51.53.17.78.26h.52c.11.09.21.25.32.25.41,0,.83,0,1.25,0h.52a4.45,4.45,0,0,0,.73,0c.11,0,.2-.16.31-.25a4.65,4.65,0,0,0,1.46-.52,6.39,6.39,0,0,0,2.69-3.68,17,17,0,0,0,.52-1.72,7.34,7.34,0,0,1,1.78-3.56,4.09,4.09,0,0,1,3.43-1.44c.12.5.52.16.78.26.61,0,1,.47,1.54.66.38.14.91.27,1,0,.28-.81,1.21-1.05,1.44-1.88.1-.37.77-.43.64-1l-1.26-.09h-.26c-.26.1-.66-.24-.78.26h-1.43c-.43,0-.49-.11-.25-.52s.68-1,1-1.54a.5.5,0,0,0-.37-.79c-.43,0-.86,0-1.29,0-.11-.08-.2-.23-.31-.25A5.93,5.93,0,0,0,208.36,329.86Zm4.94-7.8a4.43,4.43,0,0,0,0,.73c0,.12.16.21.25.31.39.44.78.89,1.19,1.32a.71.71,0,0,0,.42.23c.6,0,.85.62,1.36.78l1.18,1.17a6.21,6.21,0,0,1,.26.8,9.45,9.45,0,0,0,1.46,3.29,4.16,4.16,0,0,0,3.25,1.5c.35,0,.71-.25,1.06-.23a.88.88,0,0,0,.92-.54c.54.13.73-.34,1.06-.58a7.59,7.59,0,0,0,2.25-3.61,1.89,1.89,0,0,1,1.52-1.31,5,5,0,0,0,2-1.21c.62-.56,1.19-1.2,1.85-1.72,0,0,0-.08,0-.12a4.72,4.72,0,0,1,3-3.37,2.11,2.11,0,0,0,1.18-1.45c.08-.23.17-.45.26-.67s.23-.2.25-.31a4.45,4.45,0,0,0,0-.73v-.26a4.43,4.43,0,0,0,0-.73c0-.12-.16-.21-.25-.31s-.16-.2-.18-.31c-.16-1.22-1.09-1.52-2.07-1.77-.16,0-.36,0-.5,0-1.53-.72-2.78.14-4,.75a4.13,4.13,0,0,0-1.19,1.17c-.48.6-.77.85-1.21.71a12.89,12.89,0,0,1-1.21-.51c-.12-.5-.53-.16-.78-.26H226c-.11-.09-.21-.24-.32-.25-.41,0-.83,0-1.24,0h-3.12c-.42,0-.83,0-1.25,0-.11,0-.21.16-.31.25H219c-.26.1-.66-.24-.78.26-.49.12-.69-.29-.93-.55a6.5,6.5,0,0,0-2.25-1.47,4.15,4.15,0,0,0-5.32,2.05,4.21,4.21,0,0,0,.93,4.76C211.56,320.56,212.42,321.32,213.3,322.06Zm1.25,3.38-1.93.29s-.09.08-.08.08a.47.47,0,0,0,.15.19,5.25,5.25,0,0,0,.55.22c.34.11.44.3.2.49-.45.38-.72.94-1.35,1.14-.24.07-.44.39-.61.64s.09.58.38.59.61,0,.91,0,.39.27.29.63a3.2,3.2,0,0,1-.74,1.27.41.41,0,0,0,.32.69,13.2,13.2,0,0,1,2.88.26c.43.05.48.1.21.55a8.7,8.7,0,0,1-.73,1c-.36.46-.75.9-1.09,1.37s-.07.72.38.73a18.19,18.19,0,0,1,2.52.49c.37.08.45.23.38.49-.17.62-.39,1.23-.6,1.84a2.6,2.6,0,0,0-.16.44.4.4,0,0,0,.1.34.35.35,0,0,0,.33,0,6,6,0,0,1,1.54-1c.76-.37.88-.32,1.14.46s.53,1.34.74,2c.09.29.18.51.48.62,0-.21,0-.49.1-.6.37-.36.15-1,.71-1.29.12-.05,0-.48.33-.39.13,0,.22.29.31.45s.12.29.19.44c.49,1,1,2,1.47,3,0,.08.18.12.27.17a.63.63,0,0,0,.07-.22c0-.91,0-1.82,0-2.73a4.92,4.92,0,0,1,.56-1.85c.2-.23.36-.44.65-.06.46.6,1,1.18,1.47,1.73a1.59,1.59,0,0,0,.65.32c.21.06.3-.05.19-.23-.43-.72-.28-1.59-.64-2.33a4.7,4.7,0,0,1-.28-1.32c0-.32,0-.58.44-.55.65,0,1.3,0,2,0,.45,0,.63-.35.37-.74a5.14,5.14,0,0,0-.74-1c-.35-.33,0-.49.14-.55.42-.15.87-.19,1.29-.34a.76.76,0,0,0,.43-.43c.1-.27-.16-.27-.35-.36a2.8,2.8,0,0,1-.75-.71.65.65,0,0,1,.31-1.09,5.7,5.7,0,0,1,.8-.25c.22,0,.33-.1.12-.28-.57-.5-1.14-1-1.73-1.47a.66.66,0,0,0-.95.31c-.2.7-.81,1.14-1,1.79a2,2,0,0,1-1,1.14c-.66.36-1.21,1.07-2.11.86a2.82,2.82,0,0,1-2.16.29,4.72,4.72,0,0,1-3.39-2.08,12.52,12.52,0,0,1-1.86-3.77A2.87,2.87,0,0,0,214.55,325.44Zm-2.35-1h.48c.37,0,.44-.13.28-.46,0,0-.07-.06-.09-.1-.14-.29-.18-.67-.58-.74s-.19.42-.42.51-.26,0-.38,0-.24.11-.26.19a.34.34,0,0,0,.13.31C211.7,324.26,212.05,324.36,212.2,324.4Z"/><ellipse class="cls-19" cx="208.88" cy="370.82" rx="1.47" ry="0.18"/><path class="cls-19" d="M245.8,361.59c.1-.26-.24-.66.26-.78"/><path class="cls-19" d="M191.45,341.82c-.09.26.25.66-.26.78v-.78Z"/><path class="cls-20" d="M215.64,336.88a2.44,2.44,0,0,1-.32,1.67,4.7,4.7,0,0,0-.2,1.19c-.09.11-.23.2-.25.31a4.45,4.45,0,0,0,0,.73c.58.35.74.35,1.14,0a11.19,11.19,0,0,1,1-.72c.47-.29.83-.77,1.42-.84a10.84,10.84,0,0,0,.61,1.55,12.69,12.69,0,0,0,1.06,2.52,4.59,4.59,0,0,0,.71.82,3,3,0,0,0,.32-.25c.5-.12.16-.52.26-.78l.26-1.56h.26l.26.26a3.46,3.46,0,0,0,.76,1.74,16.17,16.17,0,0,0,1.57,2c.21.19.44.28.53-.13.35-.26.35-.51,0-.78v-1.3c.5-.12.16-.52.26-.78,0-.68,0-1.37,0-2.05,0-.23.35-.4.4-.25.24.71,1.05.61,1.49,1.12s1.15.46,1.75.66a.38.38,0,0,0,.64.22c.2-.21.34-.57-.12-.74l-1-2.86c-.1-.25.24-.65-.26-.78v-1h.78c.16.13.48.25.47.37,0,.77.44,1.39.56,2.11a1.6,1.6,0,0,1,0,.38v3.38c-.5.13-.16.53-.26.78a18.18,18.18,0,0,1-1.08,3.57,5.89,5.89,0,0,1-.91,1.71c-.44.51-.6,1.24-1.13,1.72-.81.73-1.28,1.74-2.08,2.48a.61.61,0,0,1-.43.09s-.08-.22-.09-.34,0-.43,0-.64a6.06,6.06,0,0,0,0-.74c0-.11-.17-.2-.25-.3.12-1.09-.57-1.88-1.06-2.72-.13-.23-.28-.4-.24-.66s-.3-.35-.4-.22-.32.57.14.74v5.2c-.5.12-.16.52-.26.78a11.34,11.34,0,0,1-1,2.56c-.11.16-.07.42-.18.57a6.87,6.87,0,0,1-.85,1c-.39.39-.84.71-1.23,1.09a22.65,22.65,0,0,1-2.37,1.79,16.26,16.26,0,0,0-3.06,2.61,2.17,2.17,0,0,0-.37.62,1.17,1.17,0,0,0,.79,1.58,3,3,0,0,0,1.54.38c.1.09.19.23.3.25a4.56,4.56,0,0,0,.74,0,3.16,3.16,0,0,1,1.45.25,1.52,1.52,0,0,1,.89,1.71,1.24,1.24,0,0,1-1.17.89c-.74,0-1.48,0-2.21,0-.11-.09-.2-.23-.31-.25a4.45,4.45,0,0,0-.73,0h-5.72c-.58.05-.84-.35-1-.77a5.85,5.85,0,0,1-.08-3.2c.24-1,.49-1.95.8-2.91s.84-2.17,1.25-3.26a37.63,37.63,0,0,0,1.34-3.73,3.32,3.32,0,0,0-.42-2.37c-.64-1.34-1.18-2.72-1.76-4.08a2.54,2.54,0,0,1-.09-.48,8.14,8.14,0,0,0,0-1c0-.11-.16-.21-.24-.31v-.78c.08-.11.23-.21.24-.32a8.14,8.14,0,0,0,0-1,5.32,5.32,0,0,1,.43-1.62,15.25,15.25,0,0,1,1.51-3.4c.56-1.1,1.38-2,1.89-3.1a1.11,1.11,0,0,1,1.37-.72c.1.09.21.25.32.25C214.46,336.9,215.05,336.88,215.64,336.88Z"/><path class="cls-20" d="M238,316.08v.26c-.09.1-.23.19-.25.31a4.43,4.43,0,0,0,0,.73c-.09.22-.18.44-.26.67a2.11,2.11,0,0,1-1.18,1.45,4.72,4.72,0,0,0-3,3.37s0,.1,0,.12c-.66.52-1.23,1.16-1.85,1.72a5,5,0,0,1-2,1.21,1.89,1.89,0,0,0-1.52,1.31,7.59,7.59,0,0,1-2.25,3.61c-.33.24-.52.71-1.06.58a.88.88,0,0,1-.92.54c-.35,0-.71.25-1.06.23a4.16,4.16,0,0,1-3.25-1.5A9.45,9.45,0,0,1,218,327.4a6.21,6.21,0,0,0-.26-.8l-1.18-1.17c-.51-.16-.76-.76-1.36-.78a.71.71,0,0,1-.42-.23c-.41-.43-.8-.88-1.19-1.32a4.45,4.45,0,0,0,0-.73c0-.11-.16-.21-.24-.31-.88-.74-1.74-1.5-2.63-2.23a4.21,4.21,0,0,1-.93-4.76,4.15,4.15,0,0,1,5.32-2.05,6.5,6.5,0,0,1,2.25,1.47c.24.26.44.67.93.55.25-.1.66.24.78-.26h.78c.41,0,.83,0,1.24,0,.11,0,.21-.16.32-.25h3.12c.1.09.2.24.31.25.42,0,.83,0,1.25,0h.52c.12.5.52.16.78.26a12.89,12.89,0,0,0,1.21.51c.44.14.73-.11,1.21-.71a4.13,4.13,0,0,1,1.19-1.17c1.26-.61,2.51-1.47,4-.75.14.07.34,0,.5,0,1,.25,1.91.55,2.07,1.77,0,.11.12.2.18.31a4.45,4.45,0,0,0,0,.73C237.77,315.88,237.91,316,238,316.08Zm-12,3.38c0,.17,0,.35,0,.52a1.06,1.06,0,0,0,1.27,1c.1,0,.28-.11.27-.16,0-.51.28-1.15-.5-1.39A.65.65,0,0,0,226,319.46Zm-4.68,3.9a1.23,1.23,0,0,0,1.56,0l.78.26a.65.65,0,0,0,1,0h.12c0-.4.07-.8.1-1.2-.53-.07-.47-.81-1-.88a2.09,2.09,0,0,0-.25,0,.9.9,0,0,0-1.3,0c-.88.06-1.23.38-1.29,1.24C221.09,323,220.93,323.32,221.36,323.36Zm13-9.1a.65.65,0,0,0-1,0,3.64,3.64,0,0,0-2.35,1.88c-.2.28-.18.43.07.67a6.21,6.21,0,0,1,1.69,1.75,1,1,0,0,0,1.43.59,3.05,3.05,0,0,0,1.52-1,1.8,1.8,0,0,0,.5-1.48,3,3,0,0,1,0-.52c0-.38,0-.75-.34-1S235.1,314.08,234.36,314.26Zm-23.66,1.82a1.63,1.63,0,0,0,0,1.82,4.29,4.29,0,0,1,.44.85,1.18,1.18,0,0,0,.81.81c.45.2.92.62,1.35.38a1.78,1.78,0,0,0,.75-1.14c.15-1,1.08-1.42,1.5-2.2.61-.05.4-.47.25-.72a3.14,3.14,0,0,0-1.78-1.27c-.49-.1-1,0-1.51-.1C211.62,314.41,211.08,315,210.7,316.08Zm11.7,14a3.42,3.42,0,0,1,.64,0,1.36,1.36,0,0,0,1.42-.64A10.47,10.47,0,0,0,225.9,327c.23-.6.39-1.16,1.1-1.35.05,0,.1-.25.05-.33s-.27-.15-.32-.11a2.23,2.23,0,0,1-1.73.51c-.12-.5-.53-.16-.78-.26a2.5,2.5,0,0,1-.91-.29.68.68,0,0,0-1.09.07,1.22,1.22,0,0,1-1.31.15c-.57-.16-1.12-.42-1.68-.62a1.63,1.63,0,0,0-.44,0,1.6,1.6,0,0,0,.13.44,2.87,2.87,0,0,0,.36.5c.1.26-.24.66.26.78a5.77,5.77,0,0,0,.89,2.58c.5.12.57.86,1.19.8C221.74,330.36,222.14,330,222.4,330.12Zm-2.92-9.31a5.78,5.78,0,0,0,.66-.28,1.86,1.86,0,0,0,.17-1.18,3.34,3.34,0,0,0-.95-.1c-.09,0-.18.16-.29.21-.58.21-.27.69-.3,1S219.14,320.69,219.48,320.81Z"/><path class="cls-20" d="M199,335.06V333c.5-.12.16-.52.26-.78.26-.58.49-1.17.78-1.74.15-.29.34-.68.59-.77.94-.33,1.69-1.11,2.77-1.16.33,0,.67-.27,1.06-.23s.65.24.78-.26h1.82c.1.09.2.24.31.25.32,0,.66,0,1,0h.25l.49.09a2.77,2.77,0,0,1-.2.53c-.12.17-.33.29-.44.47a1.4,1.4,0,0,0-.1.47c.1.09.19.23.3.25a4.56,4.56,0,0,0,.74,0c.43,0,.86,0,1.29,0a.5.5,0,0,1,.37.79c-.32.53-.69,1-1,1.54s-.18.51.25.52h1.43c.25-.1.65.24.78-.26h.26l1.26.09c.13.57-.54.63-.64,1-.23.83-1.16,1.07-1.44,1.88-.11.3-.64.17-1,0-.53-.19-.93-.68-1.54-.66-.13-.5-.53-.16-.78-.26a4.09,4.09,0,0,0-3.43,1.44,7.34,7.34,0,0,0-1.78,3.56,17,17,0,0,1-.52,1.72,6.39,6.39,0,0,1-2.69,3.68,4.65,4.65,0,0,1-1.46.52,4.54,4.54,0,0,0-.74,0c-.11,0-.2.16-.3.24h-.52c-.11-.08-.21-.24-.32-.24-.41,0-.83,0-1.25,0h-.52c-.12-.5-.52-.16-.78-.26a2.8,2.8,0,0,0-.41-.25c-.35-.14-.69-.19-.91-.62a2.57,2.57,0,0,1-.46-1.85c.22-.7.24-1.72,1.4-1.7a3.71,3.71,0,0,1,2.5-.52h1.68c.68,0,.92-.23,1.15-1,.07,0,.21-.06.21-.09,0-.89,0-1.78,0-2.68,0,0-.14-.06-.21-.09v-.52a4.45,4.45,0,0,0,0-.73C199.23,335.26,199.08,335.16,199,335.06Z"/><path class="cls-20" d="M242.68,358.73a2.51,2.51,0,0,1,1.43.26,2.83,2.83,0,0,1,.91,2.33.51.51,0,0,1-.09.22c0,.07-.11.17-.17.17-.57.06-.51.79-1,.92a5.32,5.32,0,0,1-1.84.52c-.26.1-.66-.24-.78.26h-.26c-.26.1-.66-.24-.78.26a3,3,0,0,0-2,.81,11.5,11.5,0,0,0-2.54,2.8c-.36.65-1.17.74-1.77,1s-1.5-.3-1.73-1.07c-.34-1.11-1-2.12-1.05-3.33-.4-.38-.45-.94-.75-1.38a12.29,12.29,0,0,1-1.42-2.27c-.18-.47-.7-.71-.7-1.24,0-.08,0-.21-.07-.23-.86-.29-1-1.32-1.72-1.73-.28-.87-1.13-1.25-1.66-1.91-.24-.31-.27-.55.09-.71,1-.45,1.43-1.46,2.07-2.25a14.85,14.85,0,0,0,2.15-3.26c0-.05.37,0,.4,0s0,.49.13.59a3.72,3.72,0,0,1,1,1.79,10.19,10.19,0,0,0,1.05,1.77c.56.89,1,1.87,1.55,2.75a12,12,0,0,0,1.71,2.39,12.74,12.74,0,0,0,1.45,1.19,2,2,0,0,0,.9.32,10.53,10.53,0,0,0,4.42-.59,2,2,0,0,0,.32-.18C242.16,358.89,242.56,359.23,242.68,358.73Z"/><path class="cls-6" d="M214.55,325.44a2.87,2.87,0,0,1,2.11,1.74,12.52,12.52,0,0,0,1.86,3.77,4.72,4.72,0,0,0,3.39,2.08,2.82,2.82,0,0,0,2.16-.29c.9.21,1.45-.5,2.11-.86a2,2,0,0,0,1-1.14c.2-.65.81-1.09,1-1.79a.66.66,0,0,1,.95-.31c.59.48,1.16,1,1.73,1.47.21.18.1.24-.12.28a5.7,5.7,0,0,0-.8.25.65.65,0,0,0-.31,1.09,2.8,2.8,0,0,0,.75.71c.19.09.45.09.35.36a.76.76,0,0,1-.43.43c-.42.15-.87.19-1.29.34-.14.06-.49.22-.14.55a5.14,5.14,0,0,1,.74,1c.26.39.08.74-.37.74-.65,0-1.3,0-2,0-.47,0-.49.23-.44.55a4.7,4.7,0,0,0,.28,1.32c.36.74.21,1.61.64,2.33.11.18,0,.29-.19.23a1.59,1.59,0,0,1-.65-.32c-.51-.55-1-1.13-1.47-1.73-.29-.38-.45-.17-.65.06a4.92,4.92,0,0,0-.56,1.85c0,.91,0,1.82,0,2.73a.63.63,0,0,1-.07.22c-.09-.05-.23-.09-.27-.17-.5-1-1-2-1.47-3-.07-.15-.12-.3-.19-.44s-.18-.41-.31-.45c-.32-.09-.21.34-.33.39-.56.26-.34.93-.71,1.29-.12.11-.07.39-.1.6-.3-.11-.39-.33-.48-.62-.21-.69-.51-1.35-.74-2s-.38-.83-1.14-.46a6,6,0,0,0-1.54,1,.35.35,0,0,1-.33,0,.4.4,0,0,1-.1-.34,2.6,2.6,0,0,1,.16-.44c.21-.61.43-1.22.6-1.84.07-.26,0-.41-.38-.49a18.19,18.19,0,0,0-2.52-.49c-.45,0-.65-.36-.38-.73s.73-.91,1.09-1.37a8.7,8.7,0,0,0,.73-1c.27-.45.22-.5-.21-.55a13.2,13.2,0,0,0-2.88-.26.41.41,0,0,1-.32-.69,3.2,3.2,0,0,0,.74-1.27c.1-.36.05-.61-.29-.63s-.61,0-.91,0-.53-.37-.38-.59.37-.57.61-.64c.63-.2.9-.76,1.35-1.14.24-.19.14-.38-.2-.49a5.25,5.25,0,0,1-.55-.22.47.47,0,0,1-.15-.19s.05-.08.08-.08Z"/><path class="cls-20" d="M232.8,337.14h1c.11.09.21.25.32.25.67,0,1.35,0,2,0h1.3c.1.09.19.23.31.25a4.43,4.43,0,0,0,.73,0,27.5,27.5,0,0,1,3.55,1.1c.38.11.91.27,1,.55.19.45.69.43.85.79a7.89,7.89,0,0,0,.38,1.13c.53.89-.22,1.54-.37,2.29-.07.33-.4.86-.62.86-.73,0-1.2.66-2,.59-1.19-.1-2.41,0-3.61,0-.1-.08-.2-.23-.31-.24a4.45,4.45,0,0,0-.73,0h-.52c-.12-.5-.53-.16-.78-.26l-4-1.3c-.08,0-.13-.17-.2-.26,0-.76,0-1.51,0-2.27,0-.11-.17-.22-.25-.33a4.69,4.69,0,0,0-.47-2.7c-.11-.17-.27-.58.21-.68.1.09.21.25.32.25C231.62,337.16,232.21,337.14,232.8,337.14Zm8.58,6.24s.1,0,.13,0c.42-.25.58-.73,1-1.05s.12-1,.21-1.55c0-.19.13-.49-.26-.52-.29-.78-1-.63-1.62-.75a8.61,8.61,0,0,0-1.76,0,8.18,8.18,0,0,0-1,0c-.11,0-.21.16-.31.24H237a8.18,8.18,0,0,0-1,0c-.11,0-.21.16-.31.24h-.26a.65.65,0,0,0-1,0c-.53.15-.59.57-.51,1a1,1,0,0,0,.83.82,12.7,12.7,0,0,1,2.22.85,5.9,5.9,0,0,0,2.66.71A1.63,1.63,0,0,0,241.38,343.38Z"/><path class="cls-19" d="M199.26,336.62c.07,0,.21.06.21.09,0,.9,0,1.79,0,2.68,0,0-.14.06-.21.09Z"/><path class="cls-19" d="M231,340.26c.08.11.24.22.25.33,0,.76,0,1.51,0,2.27-.09-.1-.25-.21-.25-.32C231,341.78,231,341,231,340.26Z"/><path class="cls-19" d="M229.94,342.34v-2.6s.12,0,.12,0a5,5,0,0,1,0,2.59S230,342.34,229.94,342.34Z"/><path class="cls-19" d="M236.18,337.4c-.67,0-1.35,0-2,0-.11,0-.21-.16-.32-.25.67,0,1.35,0,2,0C236,337.16,236.07,337.32,236.18,337.4Z"/><path class="cls-19" d="M232.8,337.14c-.59,0-1.18,0-1.76,0-.11,0-.22-.16-.32-.25.59,0,1.17,0,1.76,0C232.59,336.9,232.69,337.06,232.8,337.14Z"/><path class="cls-20" d="M215.64,336.88c-.59,0-1.18,0-1.76,0-.11,0-.22-.16-.32-.25.58,0,1.17,0,1.76,0C215.43,336.64,215.53,336.8,215.64,336.88Z"/><path class="cls-20" d="M221.36,314.52c-.11.09-.21.24-.32.25-.41,0-.83,0-1.24,0,.1-.09.2-.24.31-.25C220.53,314.5,220.94,314.52,221.36,314.52Z"/><path class="cls-19" d="M195.61,345.72c.42,0,.84,0,1.25,0,.11,0,.21.16.32.24-.42,0-.84,0-1.25,0C195.82,346,195.72,345.81,195.61,345.72Z"/><path class="cls-20" d="M226,314.78c-.42,0-.83,0-1.25,0-.11,0-.21-.16-.31-.25.41,0,.83,0,1.24,0C225.83,314.54,225.93,314.69,226,314.78Z"/><path class="cls-20" d="M229.42,341.56c.46.17.32.53.12.74a.38.38,0,0,1-.64-.22C229.32,342.16,229.5,342,229.42,341.56Z"/><path class="cls-19" d="M208.36,345.46a8.14,8.14,0,0,1,0,1c0,.11-.16.21-.24.32a8.16,8.16,0,0,1,0-1C208.12,345.67,208.27,345.57,208.36,345.46Z"/><path class="cls-19" d="M208.36,369.65h1.3A.9.9,0,0,1,208.36,369.65Z"/><path class="cls-19" d="M208.36,328.3c-.33,0-.67,0-1,0-.11,0-.21-.16-.31-.25.33,0,.66,0,1,0C208.16,328.06,208.25,328.21,208.36,328.3Z"/><path class="cls-19" d="M208.1,347.55c.08.1.23.2.24.31a8.14,8.14,0,0,1,0,1c-.09-.11-.24-.21-.25-.32A8,8,0,0,1,208.1,347.55Z"/><path class="cls-19" d="M213.3,322.06c.08.1.23.2.24.31a4.45,4.45,0,0,1,0,.73c-.09-.1-.23-.19-.25-.31A4.43,4.43,0,0,1,213.3,322.06Z"/><path class="cls-20" d="M222.14,348.59c-.46-.17-.32-.51-.14-.74s.39-.09.4.22C222,348.09,222.18,348.39,222.14,348.59Z"/><path class="cls-20" d="M223.7,351.45c.08.1.23.19.25.3a6.06,6.06,0,0,1,0,.74c-.09-.11-.23-.2-.25-.31A4.45,4.45,0,0,1,223.7,351.45Z"/><path class="cls-19" d="M207.84,359.77v-.26a1.22,1.22,0,0,1,.31-.25s.21.18.19.21a.8.8,0,0,1-.26.29C208,359.8,207.92,359.77,207.84,359.77Z"/><path class="cls-20" d="M237.74,317.38a4.43,4.43,0,0,1,0-.73c0-.12.16-.21.25-.31a4.45,4.45,0,0,1,0,.73C238,317.18,237.83,317.28,237.74,317.38Z"/><path class="cls-20" d="M214.86,340.78a4.45,4.45,0,0,1,0-.73c0-.11.16-.2.25-.31a6.06,6.06,0,0,1,0,.74C215.09,340.59,214.94,340.68,214.86,340.78Z"/><path class="cls-19" d="M199,335.06c.08.1.23.2.24.31a4.45,4.45,0,0,1,0,.73c-.09-.1-.23-.19-.25-.3A4.56,4.56,0,0,1,199,335.06Z"/><path class="cls-20" d="M238,316.08c-.09-.1-.23-.2-.25-.31a4.45,4.45,0,0,1,0-.73c.09.1.23.19.25.31A4.43,4.43,0,0,1,238,316.08Z"/><path class="cls-19" d="M197.7,346c.1-.08.19-.23.3-.24a4.54,4.54,0,0,1,.74,0c-.11.09-.2.23-.31.25A4.45,4.45,0,0,1,197.7,346Z"/><path class="cls-19" d="M216.16,367.05a4.56,4.56,0,0,1-.74,0c-.11,0-.2-.16-.3-.25a4.45,4.45,0,0,1,.73,0C216,366.82,216.05,367,216.16,367.05Z"/><path class="cls-19" d="M214.08,369.65a4.45,4.45,0,0,1,.73,0c.11,0,.2.16.31.25a4.56,4.56,0,0,1-.74,0C214.27,369.88,214.18,369.74,214.08,369.65Z"/><path class="cls-19" d="M209.4,330.12a4.56,4.56,0,0,1-.74,0c-.11,0-.2-.16-.3-.25a5.93,5.93,0,0,1,.73,0C209.2,329.89,209.29,330,209.4,330.12Z"/><path class="cls-19" d="M236.7,344.68a4.45,4.45,0,0,1,.73,0c.11,0,.21.16.31.24a4.42,4.42,0,0,1-.73,0C236.89,344.91,236.8,344.77,236.7,344.68Z"/><path class="cls-19" d="M238.52,337.66a4.43,4.43,0,0,1-.73,0c-.12,0-.21-.16-.31-.25a4.45,4.45,0,0,1,.73,0C238.32,337.43,238.42,337.58,238.52,337.66Z"/><path class="cls-20" d="M221.36,343.12c-.1.26.24.66-.26.78C221.2,343.65,220.86,343.25,221.36,343.12Z"/><path class="cls-19" d="M229.68,343.9c.1-.25-.24-.65.26-.78C229.84,343.38,230.18,343.78,229.68,343.9Z"/><path class="cls-20" d="M225.26,342.6c-.1.26.24.66-.26.78C225.1,343.13,224.76,342.73,225.26,342.6Z"/><path class="cls-19" d="M235.4,344.42c.25.1.66-.24.78.26C235.92,344.59,235.52,344.93,235.4,344.42Z"/><path class="cls-20" d="M225,344.68c.35.27.35.52,0,.78Z"/><path class="cls-19" d="M205.24,328c-.13.5-.53.16-.78.26C204.58,327.8,205,328.14,205.24,328Z"/><path class="cls-19" d="M194.31,345.46c.26.1.66-.24.78.26C194.84,345.63,194.44,346,194.31,345.46Z"/><path class="cls-19" d="M228.12,337.92c.5.13.16.53.26.78C227.88,338.58,228.22,338.18,228.12,337.92Z"/><path class="cls-19" d="M228.12,336.88v.78Q227.58,337.27,228.12,336.88Z"/><path class="cls-20" d="M221.88,354.57c.1-.26-.24-.66.26-.78C222,354,222.38,354.44,221.88,354.57Z"/><path class="cls-19" d="M242.68,358.73c-.12.5-.52.16-.78.26C242,358.49,242.42,358.83,242.68,358.73Z"/><path class="cls-20" d="M227.34,315c-.26-.1-.66.24-.78-.26C226.81,314.88,227.22,314.54,227.34,315Z"/><path class="cls-19" d="M228.9,336.88h-.78Q228.51,336.35,228.9,336.88Z"/><path class="cls-20" d="M219,314.78c-.12.5-.53.16-.78.26C218.36,314.54,218.76,314.88,219,314.78Z"/><path class="cls-19" d="M241.12,363.41c.12-.5.52-.16.78-.26C241.78,363.65,241.38,363.31,241.12,363.41Z"/><path class="cls-19" d="M240.08,363.67c.12-.5.52-.16.78-.26C240.74,363.91,240.33,363.57,240.08,363.67Z"/><path class="cls-19" d="M208.62,334.8c.25.1.65-.24.78.26C209.14,335,208.74,335.3,208.62,334.8Z"/><path class="cls-19" d="M212.52,332.72c-.13.5-.53.16-.78.26C211.86,332.48,212.26,332.82,212.52,332.72Z"/><path class="cls-19" d="M199.26,332.2c-.1.26.24.66-.26.78C199.09,332.73,198.75,332.32,199.26,332.2Z"/><path class="cls-21" d="M222.14,341.82l-.26-.26Z"/><path class="cls-20" d="M221.88,341.56h-.26l.17-.21Z"/><path class="cls-22" d="M207.21,348.35l.08.08a1.67,1.67,0,0,1-.12.16l-.11-.12Z"/><path class="cls-19" d="M221.62,329.86c-.62.06-.69-.68-1.19-.8a5.77,5.77,0,0,1-.89-2.58c-.1-.25.24-.66-.26-.78a2.87,2.87,0,0,1-.36-.5,1.6,1.6,0,0,1-.13-.44,1.63,1.63,0,0,1,.44,0c.56.2,1.11.46,1.68.62a1.22,1.22,0,0,0,1.31-.15.68.68,0,0,1,1.09-.07,2.5,2.5,0,0,0,.91.29c.12.5.52.16.78.26a2.23,2.23,0,0,0,1.73-.51c.05,0,.27,0,.32.11s0,.32-.05.33c-.71.19-.87.75-1.1,1.35a10.47,10.47,0,0,1-1.44,2.51,1.36,1.36,0,0,1-1.42.64,3.42,3.42,0,0,0-.64,0C222.28,329.62,221.87,330,221.62,329.86Z"/><path class="cls-19" d="M210.7,316.08c.38-1.13.92-1.67,1.81-1.57.5.06,1,0,1.51.1a3.14,3.14,0,0,1,1.78,1.27c.15.25.36.67-.25.72-.42.78-1.35,1.19-1.5,2.2a1.78,1.78,0,0,1-.75,1.14c-.43.24-.9-.18-1.35-.38a1.18,1.18,0,0,1-.81-.81,4.29,4.29,0,0,0-.44-.85Z"/><path class="cls-19" d="M234.36,314.26c.74-.18,1,.47,1.48.81s.34.65.34,1a3,3,0,0,0,0,.52,1.8,1.8,0,0,1-.5,1.48,3.05,3.05,0,0,1-1.52,1,1,1,0,0,1-1.43-.59,6.21,6.21,0,0,0-1.69-1.75c-.25-.24-.27-.39-.07-.67a3.64,3.64,0,0,1,2.35-1.88Z"/><path class="cls-19" d="M223.7,321.54a2.09,2.09,0,0,1,.25,0c.54.07.48.81,1,.88,0,.4-.06.8-.1,1.2H223.7l-.78-.26h-1.56c-.43,0-.27-.38-.25-.58.06-.86.41-1.18,1.29-1.24Z"/><path class="cls-19" d="M219.48,320.81c-.34-.12-.73.11-.71-.31s-.28-.83.3-1c.11,0,.2-.21.29-.21a3.34,3.34,0,0,1,.95.1,1.86,1.86,0,0,1-.17,1.18A5.78,5.78,0,0,1,219.48,320.81Z"/><path class="cls-19" d="M227.08,319.46c.78.24.46.88.5,1.39,0,0-.17.15-.27.16a1.06,1.06,0,0,1-1.27-1c0-.17,0-.35,0-.52Z"/><path class="cls-19" d="M210.7,316.08v1.82A1.63,1.63,0,0,1,210.7,316.08Z"/><path class="cls-20" d="M221.36,323.36h1.56A1.23,1.23,0,0,1,221.36,323.36Z"/><path class="cls-20" d="M223.7,321.54h-1.3A.9.9,0,0,1,223.7,321.54Z"/><path class="cls-20" d="M234.36,314.26h-1A.65.65,0,0,1,234.36,314.26Z"/><path class="cls-20" d="M227.08,319.46h-1A.65.65,0,0,1,227.08,319.46Z"/><path class="cls-20" d="M223.7,323.62h1A.65.65,0,0,1,223.7,323.62Z"/><path class="cls-20" d="M225,325.7c-.26-.1-.66.24-.78-.26C224.47,325.54,224.88,325.2,225,325.7Z"/><path class="cls-20" d="M221.62,329.86c.25.1.66-.24.78.26C222.14,330,221.74,330.36,221.62,329.86Z"/><path class="cls-20" d="M219.28,325.7c.5.12.16.53.26.78C219,326.36,219.38,326,219.28,325.7Z"/><path class="cls-19" d="M235.4,340h.26a8.18,8.18,0,0,0,1,0c.11,0,.21-.16.31-.25h.78a8.18,8.18,0,0,0,1,0c.11,0,.21-.16.31-.25a8.61,8.61,0,0,1,1.76,0c.57.12,1.33,0,1.62.75,0,.2-.13.5.26.52-.09.52.26,1.14-.21,1.55s-.54.8-1,1.05c0,0-.09,0-.13,0h-1.82a5.9,5.9,0,0,1-2.66-.71,12.7,12.7,0,0,0-2.22-.85,1,1,0,0,1-.83-.82c-.08-.43,0-.85.51-1Z"/><path class="cls-19" d="M239.56,343.38h1.82A1.63,1.63,0,0,1,239.56,343.38Z"/><path class="cls-19" d="M237,339.74c-.1.09-.2.24-.31.25a8.18,8.18,0,0,1-1,0c.1-.08.2-.23.31-.24A8.18,8.18,0,0,1,237,339.74Z"/><path class="cls-19" d="M239,339.48c-.1.09-.2.24-.31.25a8.18,8.18,0,0,1-1,0c.1-.08.2-.23.31-.24A8.18,8.18,0,0,1,239,339.48Z"/><path class="cls-19" d="M235.4,340h-1A.65.65,0,0,1,235.4,340Z"/><path class="cls-19" d="M242.68,340.78c-.39,0-.22-.32-.26-.52C242.81,340.29,242.64,340.59,242.68,340.78Z"/><path class="cls-23" d="M297.44,184.86C299.63,216.11,306,346.8,321,347.26,332.46,345.83,305.74,207,297.44,184.86Z"/><path class="cls-24" d="M295.13,176.17c-3.23.69,14.32,99.06,28.73,95.11C334.8,267.16,298.92,175.62,295.13,176.17Z"/><path class="cls-24" d="M246.22,137.64c1-3.14-85-35.69-88.89-21.26C155.29,127.89,244.82,141.19,246.22,137.64Z"/><path class="cls-23" d="M145.86,173.46c-2.44,31.21-10.14,161.78-23.45,162C112.25,333.86,138.15,195.46,145.86,173.46Z"/><path class="cls-23" d="M146.19,175.73C143,188.36,132,241.35,118.75,240.41,108.67,239,138,184.17,146.19,175.73Z"/><path class="cls-23" d="M179.86,138.54c-8.44,9.93-41.55,52.72-53.06,46.05C118.37,178.86,168.75,142.5,179.86,138.54Z"/><path class="cls-23" d="M147.41,200.48c.53,13,5.19,66.92-7.79,69.82C129.54,271.8,141.93,210.92,147.41,200.48Z"/><path class="cls-23" d="M153.53,285.55s23.34,13.84,70.69,13.84,70.52-18,70.52-18l-1-23.4-138.94-3.12-5.89,16.34Z"/><path class="cls-24" d="M296.25,243.7c-37.4,22.09-45.33-8.44-72.92-10.37-32.6-3.12-42.42,28.61-69.63,3.57C147.19,304.61,272.83,350.2,296.25,243.7Z"/><path class="cls-25" d="M294.63,187.62c-1.66,38.18-14.94,202.1,0,202.51C306.28,388.27,295,220.82,294.63,187.62Z"/><path class="cls-25" d="M300.4,188.25c-.71,38.2-9.09,174.81,5.86,174.86C317.86,361,301.64,221.42,300.4,188.25Z"/><path class="cls-25" d="M296.7,170.19c-.64,38.21-9.71,169.21,4.54,169.27C312.3,337.32,297.92,203.38,296.7,170.19Z"/><path class="cls-25" d="M155.18,172.28c-.71,38.21-9.94,202.4,5,202.45C171.79,372.58,156.42,205.46,155.18,172.28Z"/><path class="cls-25" d="M159.08,174.48c-4.63,27.08-30.62,142.69-15.8,144.61C155,319,156.9,198.23,159.08,174.48Z"/><path class="cls-25" d="M227.42,131.79c-.35-4.51-95.36-7-93,13.41C137.29,161,227.58,137,227.42,131.79Z"/><path class="cls-25" d="M211.52,138.55c.42,3.27,82.17-1.46,79.58-16.18C288.22,111.06,211.24,134.74,211.52,138.55Z"/><path class="cls-25" d="M281.85,146.29c-3.23.7,14.32,99.06,28.73,95.11C321.52,237.29,285.64,145.74,281.85,146.29Z"/><path class="cls-25" d="M232.17,135.86c13.6-7.68,33.74-5.15,49.77,7.48,11.7,9.23,28.23,52.18,12.13,72.23C286.05,147,228.23,153.6,232.17,135.86Z"/><polygon class="cls-26" points="308.43 286.8 292.86 286.8 293.52 299.39 309.67 298.84 308.43 286.8"/><path class="cls-24" d="M243.13,238.88s29.91,9.37,31-.11C274.16,238.77,276.72,273.81,243.13,238.88Z"/><path class="cls-24" d="M208.77,235.82s-31.82,9.85-33.23.38C175.54,236.2,173.59,271.29,208.77,235.82Z"/><path class="cls-13" d="M180.84,258.37c8.22,20.79,19.72,30.19,44.1,30.19s34.78-14.92,42.68-34.79Z"/><path class="cls-12" d="M180.31,258a70.73,70.73,0,0,0,4.64,9.39c3.41,4.39,72.26,3.29,79.16-5.51a80.17,80.17,0,0,0,3.51-8.07"/><path class="cls-27" d="M218.53,278.36c-5.76-3.79-15.08-3.38-23.88,1.21,5.93,6.08,16.79,9.45,30.29,9.45a32.56,32.56,0,0,0,17-4.76,10.35,10.35,0,0,0-.92-1.7C237,276.49,227.87,275.1,218.53,278.36Z"/><rect class="cls-23" x="144.6" y="164.52" width="5.34" height="38.92" transform="translate(17.79 -12.93) rotate(5.35)"/><path class="cls-25" d="M163.31,150.42c-3.13-1-38.24,92.49-23.84,96.45C151,248.91,166.84,151.88,163.31,150.42Z"/><path class="cls-25" d="M243.45,138.38c-23.24-16.32-66.49-7.24-80.53,7.41-17.28,18-19.89,43.59-5.82,57.06.11.11.24.2.35.3C164.88,137.28,210.52,154.7,243.45,138.38Z"/><polygon class="cls-8" points="149.06 214.08 139.47 212.41 137.72 224.88 147.77 226.06 149.06 214.08"/><ellipse class="cls-4" cx="350.33" cy="279.37" rx="3.29" ry="2.3"/><line class="cls-4" x1="354.12" y1="280.83" x2="359.39" y2="277.91"/><polygon class="cls-8" points="338.21 288.96 354.67 296.61 356.18 290.31 337.49 284.58 338.21 288.96"/><polygon class="cls-20" points="354.15 289.27 336.61 285.31 338.73 282.4 357.07 287.98 354.15 289.27"/><path class="cls-8" d="M357.28,291.25a2.27,2.27,0,1,0,1.24,3.26A2.49,2.49,0,0,0,357.28,291.25Z"/><g id="_19-2" data-name="19"><path class="cls-28" d="M127.5,399.31l-.21,0c-5.38.67-8.2-4.56-13.07-5.74-7.19-1.73-15-2.27-21.57,1.14s-10.93,11.82-8.06,18.86c2,4.83,6.84,8.21,7.93,13.31s-1.92,9.95-3.72,14.77a33.9,33.9,0,0,0,8.35,35.52c10.62,9.91,22.86,8.92,35.19,4.86,6.45-2.13,12.09-3,17.56-7.58A32.75,32.75,0,0,0,160.53,458c3.5-13.21-2.49-23.8-12.08-32.05-6.17-5.3-9.24-10-8-18.1.6-4.05,2.37-13.85-3.91-14.12C133.09,393.56,131.34,398.66,127.5,399.31Z"/><path class="cls-23" d="M117.71,457.17c-14.28-15.69-25.27-40.43-20.8-61.4a21.77,21.77,0,0,0-6.21,2c-6.41,3.29-10.79,11.28-8,17.94,1.89,4.56,6.63,7.72,7.65,12.55s-1.95,9.44-3.75,14a31.13,31.13,0,0,0,7.91,33.59c10.31,9.32,22.3,8.28,34.4,4.34,5.93-1.93,11.17-2.82,16.24-6.54A58.46,58.46,0,0,1,117.71,457.17Z"/><path class="cls-24" d="M156.64,457.21c3.53-12.54-2.25-22.54-11.58-30.28-6-5-9-9.44-7.73-17.09.62-3.84,2.42-13.14-3.73-13.35-3.32-.12-5.07,4.73-8.83,5.38l-.21,0c-5.27.68-8-4.26-12.74-5.33a38.16,38.16,0,0,0-14.91-.8c-4.47,21,6.52,45.71,20.8,61.4a58.46,58.46,0,0,0,27.41,16.54c.33-.25.66-.5,1-.77A31.55,31.55,0,0,0,156.64,457.21Z"/><path class="cls-18" d="M106.5,473.79v0S106.48,473.79,106.5,473.79Z"/><path class="cls-29" d="M136.59,448.9v0S136.57,448.9,136.59,448.9Z"/><path class="cls-30" d="M132.78,473.72v0S132.76,473.72,132.78,473.72Z"/><path class="cls-31" d="M129.79,419.88A14,14,0,1,1,113,409.44,14,14,0,0,1,129.79,419.88Z"/><path class="cls-24" d="M91.71,321.93a10,10,0,0,0-7.49,5.67,2.19,2.19,0,0,0,.91,2.94h0a2.27,2.27,0,0,1,1.08,1.34l3.32,11.54a2.22,2.22,0,0,0,1,1.27l2.76,1.75a2.43,2.43,0,0,0,.83.34,18.24,18.24,0,0,0,2.93.39,2.78,2.78,0,0,0,1.44-.34,17.47,17.47,0,0,0,2.46-1.64,2.5,2.5,0,0,0,.59-.67l1.71-2.79a2.22,2.22,0,0,0,.3-1.56l-2.11-11.83a2.24,2.24,0,0,1,.38-1.67h0a2.2,2.2,0,0,0-.49-3.05,10,10,0,0,0-9.22-1.77Z"/><path class="cls-31" d="M85,331.9c-.77.21-1.3.71-1.19,1.13l.34,1.27c.11.41.83.58,1.6.37s1.31-.71,1.2-1.13l-.34-1.27C86.46,331.86,85.74,331.69,85,331.9Z"/><path class="cls-31" d="M86,335.64c-.78.21-1.31.72-1.2,1.13l.34,1.27c.12.42.83.59,1.61.38s1.31-.72,1.19-1.13L87.58,336C87.47,335.6,86.75,335.44,86,335.64Z"/><path class="cls-31" d="M87,339.54c-.77.21-1.31.72-1.19,1.13l.34,1.27c.11.42.83.59,1.6.38s1.31-.72,1.2-1.13l-.35-1.27C88.52,339.5,87.81,339.33,87,339.54Z"/><path class="cls-31" d="M102.46,327.33c-.78.16-1.35.63-1.27,1.05l.26,1.29c.09.42.79.63,1.58.48s1.35-.63,1.27-1l-.26-1.29C104,327.39,103.25,327.17,102.46,327.33Z"/><path class="cls-31" d="M103.23,331.13c-.79.16-1.36.63-1.27,1.05l.25,1.29c.09.42.79.64,1.58.48s1.35-.63,1.27-1.05l-.26-1.29C104.72,331.19,104,331,103.23,331.13Z"/><path class="cls-31" d="M104,335.1c-.79.15-1.36.62-1.27,1l.26,1.29c.08.42.79.64,1.57.48s1.35-.62,1.27-1.05l-.26-1.29C105.51,335.15,104.8,334.94,104,335.1Z"/><path class="cls-32" d="M98.65,328.05a1.88,1.88,0,1,1-2.22-1.25A1.81,1.81,0,0,1,98.65,328.05Z"/><path class="cls-32" d="M100.51,333.23a1.79,1.79,0,0,1-1.43,2.1,1.73,1.73,0,1,1,1.43-2.1Z"/><path class="cls-32" d="M102.11,338.61a1.88,1.88,0,1,1-2.22-1.25A1.8,1.8,0,0,1,102.11,338.61Z"/><path class="cls-32" d="M91.89,329.78a1.88,1.88,0,1,1-2.21-1.25A1.79,1.79,0,0,1,91.89,329.78Z"/><path class="cls-32" d="M92.56,335a1.88,1.88,0,1,1-2.22-1.25A1.8,1.8,0,0,1,92.56,335Z"/><path class="cls-32" d="M93.41,340.61a1.88,1.88,0,1,1-2.21-1.25A1.79,1.79,0,0,1,93.41,340.61Z"/><path class="cls-33" d="M121.24,416.51l-11.61,2.12-.44-1.91-.37-1.59-1.26-5.42-.37-1.59-1.26-5.41-.37-1.6-1.26-5.41-.37-1.59-1.26-5.42-.37-1.59L101,381.68l-.36-1.59-1.27-5.41-.37-1.6-1.25-5.41-.37-1.59-1.27-5.42-.37-1.59-1.25-5.42-.37-1.59-1.56-6.69,8.67-2.09c.07.28.74,2.76,1.8,6.63.13.51.27,1,.42,1.58.44,1.61.93,3.42,1.47,5.37.14.52.28,1,.42,1.58.47,1.69,1,3.49,1.47,5.36l.42,1.58c.48,1.74,1,3.54,1.47,5.37.14.52.29,1,.43,1.57.49,1.77,1,3.56,1.46,5.37.15.52.29,1.05.44,1.58.48,1.79,1,3.58,1.47,5.36.13.53.28,1.06.42,1.58l1.47,5.37c.14.53.28,1.06.43,1.57q.75,2.79,1.46,5.37c.15.54.29,1.06.43,1.58.52,1.91,1,3.7,1.47,5.36.15.55.29,1.08.44,1.58.56,2.08,1,3.9,1.46,5.37l.43,1.58Z"/><path class="cls-34" d="M103.77,351.46l-9,2.09-.36-1.6,8.93-2.07C103.49,350.38,103.62,350.91,103.77,351.46Z"/><path class="cls-34" d="M105.59,358.42l-9.24,2.15L96,359l9.19-2.14C105.32,357.36,105.45,357.88,105.59,358.42Z"/><path class="cls-34" d="M107.42,365.38l-9.51,2.21L97.56,366l9.45-2.2C107.14,364.32,107.28,364.85,107.42,365.38Z"/><path class="cls-34" d="M109.25,372.34l-9.78,2.28-.35-1.6,9.72-2.26C109,371.29,109.11,371.81,109.25,372.34Z"/><path class="cls-34" d="M111.08,379.3l-10,2.34-.35-1.6,10-2.32C110.81,378.25,110.94,378.77,111.08,379.3Z"/><path class="cls-34" d="M112.91,386.26l-10.31,2.4-.35-1.59,10.25-2.39C112.63,385.21,112.78,385.74,112.91,386.26Z"/><path class="cls-34" d="M114.75,393.22l-10.59,2.47-.35-1.6,10.52-2.45C114.46,392.17,114.6,392.71,114.75,393.22Z"/><path class="cls-34" d="M116.57,400.19l-10.84,2.52-.35-1.6,10.78-2.51C116.3,399.14,116.44,399.67,116.57,400.19Z"/><path class="cls-34" d="M118.41,407.14l-11.12,2.59-.35-1.6,11-2.57C118.13,406.11,118.27,406.64,118.41,407.14Z"/><path class="cls-34" d="M120.23,414.11l-11.37,2.64-.36-1.59,11.32-2.64Z"/><path class="cls-31" d="M115.6,411.16a1.79,1.79,0,1,1-2.11-1.19A1.71,1.71,0,0,1,115.6,411.16Z"/><path class="cls-31" d="M111.92,396.9a1.79,1.79,0,1,1-2.11-1.18A1.72,1.72,0,0,1,111.92,396.9Z"/><path class="cls-31" d="M108.23,382.65a1.79,1.79,0,1,1-2.11-1.19A1.71,1.71,0,0,1,108.23,382.65Z"/><path class="cls-31" d="M104.55,368.4a1.79,1.79,0,1,1-2.11-1.19A1.72,1.72,0,0,1,104.55,368.4Z"/><path class="cls-31" d="M100.74,355.18A1.79,1.79,0,1,1,98.63,354,1.71,1.71,0,0,1,100.74,355.18Z"/><rect class="cls-28" x="112.62" y="447.74" width="20.96" height="5.17" transform="translate(-98.86 39.62) rotate(-13.1)"/></g><g id="_23" data-name="23"><path class="cls-30" d="M147.52,451.6c14.45-.47,5.26-15.25-1.56-2.5,6.82-12.75-10.58-12.18-3,.09-7.63-12.27-15.84,3.08-1.39,2.61-14.45.47-5.26,15.25,1.56,2.5-6.82,12.75,10.58,12.18,2.95-.09C153.76,466.48,162,451.13,147.52,451.6Z"/><path class="cls-8" d="M144.38,448.9a3.35,3.35,0,1,0,3.35,3.35A3.35,3.35,0,0,0,144.38,448.9Z"/></g><circle class="cls-32" cx="118.18" cy="451.49" r="0.72"/><circle class="cls-32" cx="120.14" cy="450.98" r="0.72"/><circle class="cls-32" cx="122.06" cy="450.58" r="0.72"/><circle class="cls-32" cx="124.13" cy="450.06" r="0.72"/><circle class="cls-32" cx="126.09" cy="449.56" r="0.72"/><circle class="cls-32" cx="128.02" cy="449.16" r="0.72"/><line class="cls-35" x1="91.59" y1="341.03" x2="118.18" y2="451.49"/><path class="cls-35" d="M90.33,335.62s1.27-.93,1.86.9,28,114.46,28,114.46"/><path class="cls-35" d="M122.06,450.58,92.4,330.2s-1-1.72-2.33,0"/><path class="cls-35" d="M124.13,450.06,94.3,329.76s.13-1.84,2.52-1.28"/><path class="cls-35" d="M126.09,449.56,97.23,334.78s-.16-.66,1.18-1.12"/><path class="cls-35" d="M128,449.16S99.27,339.7,100,339"/><path class="cls-31" d="M99.51,451.49l-4.34,11.76,4.39,1.61.41-1.11,4.19,9,4.22-11.8-4.27-1.56-.4,1.12ZM104.9,461l1.88.72L104,469.41l-4.2-9-1.05,2.85-1.84-.67,2.81-7.69,4.17,9Z"/><path class="cls-31" d="M91.79,322.83l-1.06,2.88,1.08.39.1-.27,1,2.21,1-2.89-1-.38-.1.27Zm1.33,2.33.46.18-.69,1.88-1-2.22-.25.7-.45-.16.68-1.89,1,2.2Z"/><polyline class="cls-4" points="97.42 366.07 104.25 360.81 99.12 370.95"/><polyline class="cls-4" points="94.83 361.73 106.45 354.57 99.94 364.57"/></g></g></svg>