<svg id="Layer_1" data-name="Layer 1" xmlns="http://www.w3.org/2000/svg" xmlns:xlink="http://www.w3.org/1999/xlink" viewBox="0 0 432 576"><defs><style>.cls-1{fill:none;stroke:#000;stroke-width:8px;}.cls-1,.cls-12{stroke-linecap:round;stroke-linejoin:round;}.cls-2{fill:#d04;}.cls-3{fill:#2d313f;}.cls-4{fill:#feaf06;}.cls-5{fill:#fbd82b;}.cls-6{fill:#ffe278;}.cls-7{fill:url(#radial-gradient);}.cls-10,.cls-8{fill:#e8003d;}.cls-8{stroke:#e8003d;}.cls-11,.cls-8{stroke-miterlimit:10;}.cls-9{fill:#fff;}.cls-11,.cls-13{fill:#b57817;}.cls-11{stroke:#b57817;}.cls-12{fill:#701d1d;stroke:#701d1d;stroke-width:2px;}</style><radialGradient id="radial-gradient" cx="212.92" cy="172.23" r="39.38" gradientTransform="translate(-106.84 385.15) rotate(-90) scale(1 1.86)" gradientUnits="userSpaceOnUse"><stop offset="0" stop-color="#ff8c1f"/><stop offset="1" stop-color="#feaf06"/></radialGradient></defs><polyline class="cls-1" points="225.4 396.2 225.4 475.29 212.92 485.23"/><polyline class="cls-1" points="200.58 396.15 200.58 475.25 184.6 483.23"/><rect class="cls-2" x="125.81" y="251.45" width="171.26" height="38.29" rx="12"/><ellipse class="cls-3" cx="212.92" cy="380.13" rx="63.04" ry="27.19"/><ellipse class="cls-4" cx="212.28" cy="145.07" rx="75.26" ry="29.88"/><path class="cls-5" d="M137,145.07c0,16.5,33.7,29.88,75.26,29.88s75.26-13.38,75.26-29.88c0,0,.44,216.63,0,221.3-1.54,16.43-33.69,29.88-75.26,29.88S137,382.87,137,366.37Z"/><path class="cls-6" d="M149.89,364.2V161.76a66.85,66.85,0,0,0,7.9,3.89V387a66.85,66.85,0,0,1-7.9-3.89Z"/><path class="cls-6" d="M184.66,350V172.8c-2.71-.42-5.35-.91-7.9-1.45v221.3c2.55.54,5.19,1,7.9,1.45Z"/><path class="cls-6" d="M219.27,392.09V175c-2.3.08-4.63.13-7,.13h-.92v221.3h.92q3.54,0,7-.12Z"/><polygon class="cls-6" points="240.28 394.09 240.28 172.83 248.19 171.36 248.19 392.57 240.28 394.09"/><path class="cls-6" d="M276,367.61V161.08a83.69,83.69,0,0,1-7.91,4v221c2.38-1.14,6.34-3.3,7.91-4.3Z"/><path class="cls-7" d="M158.56,166c27.27,12.21,81.66,11.81,108.73-.49-1.8-37.4-105.4-36-108.73.49"/><path class="cls-8" d="M133.85,311v55c0,16.51,35.19,29.88,78.59,29.88s77-13.45,78.59-29.88c.15-1.53.2-25.89.2-57.93l-.2-37.78c0,16.51-35.19,29.88-78.59,29.88s-78.59-13.37-78.59-29.88Z"/><path class="cls-9" d="M197.16,315.14l-15.83,37.48,9.49,4,1.48-3.53,5.44,27.05,15.57-37.56-9.21-3.88-1.49,3.56Zm8,28.38,4,1.81L199,369.74l-5.45-27.11-3.82,9.08-4-1.67L196,325.56l5.39,26.87Z"/><rect class="cls-10" x="133.32" y="288.85" width="12.6" height="20.93"/><path class="cls-1" d="M287.74,299.31c28.39-14.39,27.9-45.43,27.9-45.43"/><path class="cls-1" d="M139.24,294.75h0s-13.07,33.52-.38,41.45c18.78,11.72,38.82,9.13,38.82,9.13"/><polyline class="cls-1" points="169.37 351.4 157.5 341.57 173.88 337.87"/><path class="cls-5" d="M319.18,185.13c-1.91-2-3.78-3-5.57-3.08h-.31a3.75,3.75,0,0,0-1.6.47,4.44,4.44,0,0,0-2.1,2.64c1.48,1,2.76,4.05,3.86,9.27a57.62,57.62,0,0,1,1,7.4,153.21,153.21,0,0,1,.39,17.29h.5a52.06,52.06,0,0,1,13.9,1.47,108.77,108.77,0,0,0-1.75-16.31,35.93,35.93,0,0,0-5.68-15.85,29,29,0,0,0-2.65-3.3Z"/><path class="cls-5" d="M309.6,185.16c-.15-.07-.31-.15-.43-.19a1.87,1.87,0,0,0-1.59.12h-.08a1.9,1.9,0,0,0-.62.39c-3.47,3.07-6.78,10.59-10,22.58-.86,4.51-1.6,9.61-2.18,15.3a17.44,17.44,0,0,1,2.49,3.93,17.44,17.44,0,0,0-2.49-3.93,15.41,15.41,0,0,0-9.66-5.14,14.48,14.48,0,0,0-9.77,1.63,9.54,9.54,0,0,0-3.54,3.2,5.18,5.18,0,0,0-.82,1.75,5.45,5.45,0,0,0-.23,3,6.42,6.42,0,0,0,1.24,2.76,8.84,8.84,0,0,0,6.27,3l2.34.35c.46.12.93.24,1.44.35q7.25,2,10.39,9.46Q300,259.51,313,261.05c10.24,0,17.48-4.32,21.8-13q7.47-13.48,3.89-31.53a92.94,92.94,0,0,0-3.34-13.44q-3.39-10.15-9.47-15.22a12.49,12.49,0,0,0-6.73-2.72,29,29,0,0,1,2.65,3.3,35.93,35.93,0,0,1,5.68,15.85,108.77,108.77,0,0,1,1.75,16.31,23.37,23.37,0,0,1,3.2,1.21,23.37,23.37,0,0,0-3.2-1.21,52.06,52.06,0,0,0-13.9-1.47h-.5A26.92,26.92,0,0,0,309,220a19.64,19.64,0,0,0-3.2,1.09A19.64,19.64,0,0,1,309,220a26.92,26.92,0,0,1,5.84-.85,153.21,153.21,0,0,0-.39-17.29,57.62,57.62,0,0,0-1-7.4c-1.1-5.22-2.38-8.29-3.86-9.27Zm-5.72,41.7c10.16-1.13,15.88,3.7,17.25,14.49-1.37-10.79-7.09-15.62-17.25-14.49Z"/><path class="cls-11" d="M313,261.56c-8.92-1-16-7-21.14-17.66-2-4.82-5.42-7.91-10.07-9.18l-1.41-.34L278.1,234a9.33,9.33,0,0,1-6.59-3.18,7.12,7.12,0,0,1-1.35-3,6,6,0,0,1,.26-3.21,5.45,5.45,0,0,1,.88-1.88,10,10,0,0,1,3.71-3.34,15,15,0,0,1,10.11-1.7,16.19,16.19,0,0,1,9.18,4.47c.55-5.09,1.24-9.87,2.06-14.22,3.3-12.25,6.63-19.72,10.17-22.87a2.79,2.79,0,0,1,.78-.48l.15,0a2.41,2.41,0,0,1,1.86-.09,4.63,4.63,0,0,1,2.16-2.43,4.3,4.3,0,0,1,1.79-.51h.34c1.92.05,3.87,1.09,5.81,3.1a13.2,13.2,0,0,1,6.81,2.81c4.13,3.45,7.36,8.65,9.63,15.47a94.26,94.26,0,0,1,3.37,13.51c2.39,12.1,1.06,22.83-4,31.87C330.9,257.09,323.41,261.56,313,261.56Zm-30.7-43.05a13.51,13.51,0,0,0-6.81,1.79,8.88,8.88,0,0,0-3.36,3,4.65,4.65,0,0,0-.76,1.61,5.15,5.15,0,0,0-.23,2.73,5.91,5.91,0,0,0,1.16,2.56,8.39,8.39,0,0,0,5.9,2.79c.77.12,1.54.24,2.36.35l1.48.36a15.93,15.93,0,0,1,10.76,9.76c4.95,10.33,11.77,16.07,20.26,17.06,10,0,17-4.17,21.28-12.73,4.9-8.84,6.19-19.33,3.85-31.2a94.42,94.42,0,0,0-3.33-13.38c-2.21-6.63-5.34-11.67-9.31-15a12.33,12.33,0,0,0-5.08-2.42c.57.68,1.15,1.45,1.75,2.31A36.36,36.36,0,0,1,328,204.21a109.81,109.81,0,0,1,1.74,16,25.94,25.94,0,0,1,2.91,1.13.52.52,0,0,1,.26.68.52.52,0,0,1-.68.26,22.5,22.5,0,0,0-3.11-1.18h0a51.45,51.45,0,0,0-13.75-1.46h-.5a26.7,26.7,0,0,0-5.72.84,19.28,19.28,0,0,0-3.07,1.05.53.53,0,0,1-.7-.22.51.51,0,0,1,.21-.69,18.78,18.78,0,0,1,3.3-1.13,27.59,27.59,0,0,1,5.48-.86,151.92,151.92,0,0,0-.41-16.75,53.29,53.29,0,0,0-1-7.33c-1.3-6.23-2.68-8.3-3.61-8.93a2.92,2.92,0,0,0-.33-.15,1.42,1.42,0,0,0-1.2.09.65.65,0,0,1-.2,0,2,2,0,0,0-.41.27c-3.33,3-6.64,10.47-9.83,22.32-.86,4.54-1.59,9.6-2.15,15a18.09,18.09,0,0,1,2.43,3.88.52.52,0,0,1-.25.69.51.51,0,0,1-.68-.25,17.25,17.25,0,0,0-2.42-3.82h0a14.93,14.93,0,0,0-9.35-5A15.7,15.7,0,0,0,282.33,218.51Zm33.06.09a55.16,55.16,0,0,1,13.33,1.31A108.86,108.86,0,0,0,327,204.38a35.45,35.45,0,0,0-5.61-15.65,27.1,27.1,0,0,0-2.59-3.25h0c-1.78-1.9-3.53-2.88-5.2-2.92h-.3A3.45,3.45,0,0,0,312,183a3.73,3.73,0,0,0-1.73,2c1.47,1.26,2.69,4.33,3.74,9.34a56.58,56.58,0,0,1,1,7.46A155.53,155.53,0,0,1,315.39,218.6Zm5.73,23.26a.52.52,0,0,1-.51-.45c-1.33-10.54-6.8-15.14-16.67-14a.5.5,0,0,1-.57-.45.51.51,0,0,1,.45-.57c10.42-1.16,16.42,3.87,17.82,14.93a.53.53,0,0,1-.45.58Z"/><path class="cls-6" d="M288.64,222.68c.76,2.44-3.47,4.77-7.13,5.67s-8.22.54-8.83-1.93,1.86-5.22,5.52-6.12S287.59,219.33,288.64,222.68Z"/><path class="cls-6" d="M310.64,201c-1.23,5.37-6.85,17.7-9.28,17.14s-.75-13.79.48-19.15,4.19-9.27,6.62-8.71S311.87,195.66,310.64,201Z"/><path class="cls-6" d="M314.2,230.46c3.94,2.86,7.36,12.42,5,15.66s-8.66,1.18-12.6-1.68-6.16-10.05-3.81-13.29S310.26,227.61,314.2,230.46Z"/><path class="cls-6" d="M321.39,193c2.39,5.62,3.74,12.51,2,13.27s-4.05-5-6.44-10.64-4.84-10.67-3.06-11.43S319,187.36,321.39,193Z"/><path class="cls-6" d="M333.21,201.12c2.44,6.68,3.74,12.41,2,13.15s-1.73-6.41-4.56-12.94-7.79-12.74-7.21-13.15S330.41,193.43,333.21,201.12Z"/><path class="cls-6" d="M332.09,223.94c0,1.28-5.54.35-12,.35s-11.48.93-11.48-.35,3.87-3.56,10.36-3.56S332.09,222.67,332.09,223.94Z"/><path class="cls-6" d="M310.82,258.15c1.28,1.94,9.33,2,15.39-1.95s11.35-15.7,10.08-17.63S331.16,248,325.09,252,309.55,256.22,310.82,258.15Z"/><path class="cls-12" d="M172.7,229.18a18.62,18.62,0,0,1-11.43-6.12,22.71,22.71,0,0,1-5.71-16.68,2.3,2.3,0,1,1,4.6.29A18.08,18.08,0,0,0,164.68,220a13.64,13.64,0,0,0,9.45,4.71c5.34.17,10.78-3.62,13.54-9.42a2.3,2.3,0,0,1,4.16,2c-3.53,7.43-10.7,12.27-17.85,12C173.55,229.26,173.13,229.23,172.7,229.18Z"/><path class="cls-12" d="M238.32,236.8a19.78,19.78,0,0,1-5-1.24,22.71,22.71,0,0,1-12.55-12.38,2.3,2.3,0,0,1,4.24-1.8,18.14,18.14,0,0,0,10,9.89,13.64,13.64,0,0,0,10.56,0c4.86-2.23,8-8,7.92-14.46a2.31,2.31,0,1,1,4.61-.09c.15,8.22-4.11,15.75-10.61,18.74A17.26,17.26,0,0,1,238.32,236.8Z"/><path class="cls-12" d="M204.14,248.22a26.79,26.79,0,0,1,3.52.63c12,3,17.7,12.69,19.17,15.61a2.31,2.31,0,0,1-4.12,2.07c-.88-1.76-5.81-10.67-16.15-13.21-9-2.21-18.63,1-25.05,8.48a2.3,2.3,0,0,1-3.49-3A30,30,0,0,1,204.14,248.22Z"/><path class="cls-13" d="M190.12,177.45a3.68,3.68,0,0,1-3.34,6.45c-12.46-4-24.26-2.5-31.54,3.87a3.68,3.68,0,0,1-4.85-5.54c9.24-8.09,23.67-10.09,38.62-5.35A3.76,3.76,0,0,1,190.12,177.45Z"/><path class="cls-13" d="M269.05,191a3.68,3.68,0,0,1-5.71,4.48c-9.7-8.77-21-12.35-30.3-9.57a3.68,3.68,0,1,1-2.11-7.06c11.76-3.52,25.72.65,37.35,11.17A3.59,3.59,0,0,1,269.05,191Z"/></svg>