<svg id="Layer_1" data-name="Layer 1" xmlns="http://www.w3.org/2000/svg" xmlns:xlink="http://www.w3.org/1999/xlink" viewBox="0 0 432 576"><defs><style>.cls-1,.cls-12{fill:none;stroke-width:8px;}.cls-1{stroke:#000;}.cls-1,.cls-11,.cls-12{stroke-linecap:round;stroke-linejoin:round;}.cls-2{fill:#0c0705;}.cls-3{fill:#04080f;}.cls-4{fill:#2d313f;}.cls-5{fill:#fbd82b;}.cls-6{fill:#ffe278;}.cls-7{fill:#02040a;}.cls-8{fill:#020202;}.cls-10,.cls-8,.cls-9{fill-rule:evenodd;}.cls-9{fill:url(#radial-gradient);}.cls-10{fill:#fff;}.cls-11{fill:#701d1d;stroke:#701d1d;stroke-width:2px;}.cls-12{stroke:#2d313f;}</style><radialGradient id="radial-gradient" cx="184.65" cy="161.66" r="69.8" gradientTransform="translate(-5.69) scale(1.04 1)" gradientUnits="userSpaceOnUse"><stop offset="0.39" stop-color="#282828"/><stop offset="0.9" stop-color="#282828"/><stop offset="0.99" stop-color="#282828"/></radialGradient></defs><polyline class="cls-1" points="242.14 395.33 255.15 482.33 272.72 482.33"/><polyline class="cls-1" points="209.89 390.89 202.01 482.33 181.42 482.33"/><path class="cls-2" d="M179.77,439.26c-3,0-5.44-2.06-7-7.4-2.22-7.78-10.76-10.15-24-6.66a102.84,102.84,0,0,0-20.89,8.5l-2.95,1.66,19.59-152.64,18.65,12.8c19.65,44.57,30.82,13.84,62.62,13.84,32.13,0,34.15,10.9,61.93-11.14l15-15.5,21,152.7-3-1.69A102,102,0,0,0,300,425.12c-13.26-3.56-21.78-1.23-24,6.55-3.88,13.61-13.47,6-24.58-2.8-7.06-5.6-15.07-11.95-23.2-14.64a11.76,11.76,0,0,0-7.53,0c-8.15,2.69-16.18,9.09-23.26,14.73C190.65,434.34,184.46,439.26,179.77,439.26Z"/><rect class="cls-3" x="137.49" y="253.84" width="171.26" height="38.29" rx="12"/><ellipse class="cls-4" cx="224.68" cy="382.29" rx="63.04" ry="27.19"/><path class="cls-5" d="M148.78,147.23c0,16.51,33.69,29.88,75.26,29.88s75.26-13.37,75.26-29.88c0,0,.44,216.63,0,221.3C297.75,385,265.6,398.41,224,398.41S148.78,385,148.78,368.53Z"/><path class="cls-6" d="M161.64,366.36V163.92a64.05,64.05,0,0,0,7.91,3.89v221.3a64.05,64.05,0,0,1-7.91-3.89Z"/><path class="cls-6" d="M196.42,352.15V175c-2.72-.43-5.36-.91-7.91-1.46v221.3c2.55.55,5.19,1,7.91,1.46Z"/><path class="cls-6" d="M231,394.25V177.11q-3.47.13-7,.13h-.92v221.3H224q3.54,0,7-.13Z"/><polygon class="cls-6" points="252.03 396.26 252.03 175 259.94 173.52 259.94 394.74 252.03 396.26"/><path class="cls-6" d="M279.81,369.77v18.52c2.38-1.13,6.34-3.29,7.91-4.29V163.25a86.12,86.12,0,0,1-7.91,4.05"/><path class="cls-7" d="M145.52,313.06v57.19c0,17.17,35.19,31.09,78.59,31.09s77-14,78.59-31.09c.15-1.6.2-26.94.2-60.28l-.2-39.3c0,17.17-35.18,31.09-78.59,31.09s-78.59-13.92-78.59-31.09Z"/><path d="M224.66,319.56a75.75,75.75,0,0,1,10.61.59,66.49,66.49,0,0,1,7.12,1.31q2.73.66,5.39,1.57c1.15.39,2.28.81,3.39,1.3.9.4,1.81.79,2.69,1.22a36.46,36.46,0,0,1,3.25,1.77c.56.34,1.12.67,1.67,1,.94.64,1.88,1.29,2.76,2,.4.33.81.65,1.19,1a29.86,29.86,0,0,1,2.35,2.29c.59.65,1.15,1.33,1.68,2a23.1,23.1,0,0,1,2,3.17,19.5,19.5,0,0,1,1.79,5,17.81,17.81,0,0,1,.25,5.87,19.08,19.08,0,0,1-1.88,6.12,23.37,23.37,0,0,1-2.72,4.22,25.33,25.33,0,0,1-1.88,2.13c-.61.6-1.25,1.19-1.89,1.76a28.24,28.24,0,0,1-2.81,2.19c-.9.63-1.82,1.24-2.78,1.78s-1.83,1-2.76,1.51a48.34,48.34,0,0,1-4.78,2.09c-1.78.68-3.59,1.26-5.42,1.77s-3.76.94-5.66,1.28-3.73.59-5.61.78q-3.42.33-6.84.34c-1.76,0-3.51-.05-5.27-.17-1.59-.11-3.19-.26-4.77-.49-1.15-.18-2.3-.36-3.45-.56-.79-.14-1.57-.32-2.35-.5-1-.25-2.06-.5-3.09-.78-.69-.18-1.37-.4-2.05-.62s-1.43-.47-2.13-.74c-.9-.33-1.78-.69-2.67-1.05-.56-.23-1.12-.49-1.68-.74q-1.7-.78-3.3-1.71c-.58-.34-1.16-.68-1.72-1a36,36,0,0,1-4.08-3,29.48,29.48,0,0,1-2.38-2.23,26.24,26.24,0,0,1-2.58-3.09,22,22,0,0,1-2.29-4.07,18.73,18.73,0,0,1-1.23-4.05,17,17,0,0,1-.25-4.09,18.63,18.63,0,0,1,.49-3.31,19.2,19.2,0,0,1,.85-2.56,21.25,21.25,0,0,1,1.1-2.31c.29-.51.59-1,.92-1.48.44-.66.9-1.3,1.39-1.92s1-1.14,1.5-1.7.84-.88,1.29-1.3.94-.83,1.42-1.23,1-.87,1.59-1.26c.75-.55,1.52-1.07,2.3-1.57s1.34-.85,2-1.24,1.66-.88,2.5-1.3a53,53,0,0,1,5.83-2.42,65.58,65.58,0,0,1,13.47-3.07A67.13,67.13,0,0,1,224.66,319.56Zm1.36,53.7v0h.79c.72,0,1.43,0,2.14-.07s1.59-.09,2.37-.16,1.44-.11,2.16-.2,1.69-.22,2.54-.35,1.5-.23,2.25-.37,1.29-.27,1.94-.41,1.24-.27,1.86-.42,1.05-.28,1.57-.43c.77-.23,1.55-.45,2.32-.7s1.3-.45,1.95-.69,1.12-.4,1.67-.63c.78-.33,1.56-.67,2.32-1s1.62-.78,2.42-1.2c.61-.33,1.2-.7,1.8-1.06.35-.21.7-.42,1-.65s.94-.63,1.4-1c.25-.17.49-.35.73-.53l.68-.53c.26-.21.51-.42.76-.65.57-.51,1.15-1,1.69-1.56a17.21,17.21,0,0,0,1.47-1.61c.23-.27.47-.54.68-.82.38-.52.74-1,1.1-1.58.17-.25.31-.52.46-.78l.23-.42c.17-.32.35-.63.5-.95a14.07,14.07,0,0,0,.76-1.89,8.27,8.27,0,0,0,.26-.8c.13-.55.24-1.1.36-1.66a12.73,12.73,0,0,0,.23-2.61,16.65,16.65,0,0,0-.13-2,17.31,17.31,0,0,0-.39-2,10.76,10.76,0,0,0-.5-1.55,16.6,16.6,0,0,0-.82-1.89,18.57,18.57,0,0,0-1-1.79c-.24-.36-.49-.72-.75-1.07s-.42-.59-.66-.87q-.57-.68-1.17-1.32c-.37-.4-.74-.8-1.14-1.16-.62-.57-1.26-1.12-1.91-1.66s-1.08-.83-1.64-1.23-.91-.6-1.35-.9c-.67-.46-1.38-.87-2.09-1.26l-1-.56c-.31-.17-.62-.35-.94-.5l-1.58-.73c-.51-.22-1-.45-1.52-.66-.76-.3-1.52-.58-2.29-.86q-.74-.27-1.47-.51l-1.49-.45c-.68-.2-1.36-.4-2-.58s-1.45-.34-2.18-.5-1.28-.26-1.92-.37c-1.15-.2-2.31-.38-3.47-.55-.74-.11-1.48-.18-2.22-.26-.45-.05-.9-.08-1.35-.11l-1.44-.08c-.58,0-1.16-.08-1.74-.09-.84,0-1.68-.06-2.52-.05-1.06,0-2.13.05-3.19.08l-1.19.07-1.34.11c-.47,0-.93.06-1.39.12-.91.1-1.83.21-2.73.35-1.14.18-2.28.38-3.42.58-.63.12-1.25.26-1.86.41l-2.26.56c-.36.09-.72.21-1.07.31s-.93.26-1.39.41l-1.32.45c-.72.26-1.45.51-2.16.8-.91.36-1.81.75-2.69,1.16s-1.75.84-2.61,1.3c-.61.32-1.2.67-1.8,1s-.91.56-1.35.86-.8.54-1.18.83c-.65.49-1.3,1-1.93,1.5s-1.14,1-1.69,1.56c-.39.38-.76.78-1.13,1.18a18.78,18.78,0,0,0-1.64,2,21.85,21.85,0,0,0-1.33,2.1,22.33,22.33,0,0,0-1.05,2.21,4.38,4.38,0,0,0-.25.69c-.18.62-.35,1.23-.5,1.85a11,11,0,0,0-.32,2.14,11.88,11.88,0,0,0,0,1.79c0,.53,0,1.07.14,1.59s.25,1.28.4,1.92a15,15,0,0,0,1,2.83,17.74,17.74,0,0,0,.9,1.66,22.53,22.53,0,0,0,1.36,2,27.25,27.25,0,0,0,4.25,4.33c.51.41,1,.81,1.55,1.19s1.18.83,1.78,1.22,1.13.7,1.7,1c.74.41,1.48.83,2.23,1.21a36,36,0,0,0,3.3,1.47c.83.33,1.66.65,2.5.95.69.25,1.38.47,2.08.68s1.65.48,2.49.7c.68.18,1.37.34,2.06.5,1.33.31,2.69.56,4,.77l1.41.21,1.36.16c.87.09,1.73.19,2.6.26s1.63.11,2.44.14C223.67,373.23,224.85,373.24,226,373.26Z"/><path class="cls-5" d="M226,373.26c-1.17,0-2.35,0-3.52-.07-.81,0-1.63-.08-2.44-.14s-1.73-.17-2.6-.26l-1.36-.16-1.41-.21c-1.35-.21-2.71-.46-4-.77-.69-.16-1.38-.32-2.06-.5-.84-.22-1.67-.45-2.49-.7s-1.39-.43-2.08-.68c-.84-.3-1.67-.62-2.5-.95a36,36,0,0,1-3.3-1.47c-.75-.38-1.49-.8-2.23-1.21-.57-.32-1.14-.66-1.7-1s-1.19-.8-1.78-1.22-1-.78-1.55-1.19a27.25,27.25,0,0,1-4.25-4.33,22.53,22.53,0,0,1-1.36-2,17.74,17.74,0,0,1-.9-1.66,15,15,0,0,1-1-2.83c-.15-.64-.3-1.27-.4-1.92s-.1-1.06-.14-1.59a11.88,11.88,0,0,1,0-1.79,11,11,0,0,1,.32-2.14c.15-.62.32-1.23.5-1.85a4.38,4.38,0,0,1,.25-.69,22.33,22.33,0,0,1,1.05-2.21,21.85,21.85,0,0,1,1.33-2.1,18.78,18.78,0,0,1,1.64-2c.37-.4.74-.8,1.13-1.18.55-.53,1.11-1.06,1.69-1.56s1.28-1,1.93-1.5c.38-.29.78-.57,1.18-.83s.89-.59,1.35-.86,1.19-.7,1.8-1c.86-.46,1.73-.89,2.61-1.3s1.78-.8,2.69-1.16c.71-.29,1.44-.54,2.16-.8l1.32-.45c.46-.15.92-.27,1.39-.41s.71-.22,1.07-.31l2.26-.56c.61-.15,1.23-.29,1.86-.41,1.14-.2,2.28-.4,3.42-.58.9-.14,1.82-.25,2.73-.35.46-.06.92-.08,1.39-.12l1.34-.11,1.19-.07c1.06,0,2.13-.07,3.19-.08.84,0,1.68,0,2.52.05.58,0,1.16,0,1.74.09l1.44.08c.45,0,.9.06,1.35.11.74.08,1.48.15,2.22.26,1.16.17,2.32.35,3.47.55.64.11,1.28.24,1.92.37s1.46.32,2.18.5,1.36.38,2,.58L246,325q.74.24,1.47.51c.77.28,1.53.56,2.29.86.51.21,1,.44,1.52.66l1.58.73c.32.15.63.33.94.5l1,.56c.71.39,1.42.8,2.09,1.26.44.3.91.58,1.35.9s1.11.8,1.64,1.23,1.29,1.09,1.91,1.66c.4.36.77.76,1.14,1.16s.79.87,1.17,1.32c.24.28.45.58.66.87s.51.71.75,1.07a18.57,18.57,0,0,1,1,1.79,16.6,16.6,0,0,1,.82,1.89,10.76,10.76,0,0,1,.5,1.55,17.31,17.31,0,0,1,.39,2,16.65,16.65,0,0,1,.13,2,12.73,12.73,0,0,1-.23,2.61c-.12.56-.23,1.11-.36,1.66a8.27,8.27,0,0,1-.26.8,14.07,14.07,0,0,1-.76,1.89c-.15.32-.33.63-.5.95l-.23.42c-.15.26-.29.53-.46.78-.36.53-.72,1.06-1.1,1.58-.21.28-.45.55-.68.82a17.21,17.21,0,0,1-1.47,1.61c-.54.54-1.12,1.05-1.69,1.56-.25.23-.5.44-.76.65l-.68.53c-.24.18-.48.36-.73.53-.46.33-.92.65-1.4,1s-.69.44-1,.65c-.6.36-1.19.73-1.8,1.06-.8.42-1.61.82-2.42,1.2s-1.54.7-2.32,1c-.55.23-1.11.43-1.67.63s-1.3.48-1.95.69-1.55.47-2.32.7c-.52.15-1,.3-1.57.43s-1.24.29-1.86.42-1.29.29-1.94.41-1.5.26-2.25.37-1.69.25-2.54.35-1.44.15-2.16.2-1.58.12-2.37.16-1.42.05-2.14.07H226Zm-6.23-47.62h-.08a.76.76,0,0,0-.06.16c-.09.84-.17,1.68-.25,2.52s-.15,1.59-.23,2.39c0,.53-.11,1.06-.17,1.59,0,.13,0,.25-.05.37,0,.61-.1,1.22-.16,1.83-.08.85-.18,1.7-.25,2.55a8,8,0,0,1-.37,1.94,13.24,13.24,0,0,1-.79,1.91,7.33,7.33,0,0,1-1.33,1.78,4.61,4.61,0,0,1-1.83,1.08,4,4,0,0,1-1.49.19,5.12,5.12,0,0,1-1.49-.34,5.65,5.65,0,0,1-1.85-1.19,7.51,7.51,0,0,1-.87-1,8.07,8.07,0,0,1-1.05-2c-.14-.42-.25-.85-.36-1.28a8,8,0,0,1-.24-1.89c0-.55,0-1.1.06-1.65a11,11,0,0,1,.48-2.41c.18-.55.34-1.1.54-1.64a17.43,17.43,0,0,1,1.16-2.43,22,22,0,0,1,1.54-2.38,1,1,0,0,0,.1-.21,1,1,0,0,0-.21,0c-.23,0-.46.08-.69.14l-1.84.49-1.32.38-1.21.4-1.61.56c-.43.16-.85.34-1.27.51s-.8.3-1.19.48c-.69.31-1.38.64-2.06,1-.5.24-1,.5-1.49.77l-1.38.78c-.44.26-.89.53-1.32.82s-.71.48-1,.73-.84.59-1.24.91-1,.81-1.51,1.27-.93.87-1.37,1.32a17.38,17.38,0,0,0-1.55,1.77,17.88,17.88,0,0,0-1.29,1.84,14.93,14.93,0,0,0-1,1.76c-.22.49-.42,1-.62,1.5-.05.13-.09.27-.13.4-.09.29-.19.59-.27.89a15.21,15.21,0,0,0-.32,1.66,16,16,0,0,0-.13,1.95,11.45,11.45,0,0,0,.15,1.85,9.28,9.28,0,0,0,.15.92,13.22,13.22,0,0,0,.44,1.64c.21.53.4,1.08.63,1.6a13,13,0,0,0,.8,1.52,9.08,9.08,0,0,0,.74,1.09c.38.47.75.95,1.14,1.4s.86,1,1.31,1.43.69.65,1,1c.74.7,1.53,1.34,2.33,2,.32.24.63.49,1,.72l1.2.83c.67.43,1.34.88,2,1.27s1.4.71,2.1,1.06c.22.11.44.23.67.33l.83.37s.09,0,.14,0,0-.1,0-.15l0-.05c-.25-.38-.49-.76-.73-1.14a14.25,14.25,0,0,1-.89-1.74,8.64,8.64,0,0,1-.31-.85c-.11-.35-.21-.7-.29-1.06a6.87,6.87,0,0,1-.1-1.57,3.72,3.72,0,0,1,.46-1.76,3.55,3.55,0,0,1,1.65-1.53,4.21,4.21,0,0,1,1.78-.4c.33,0,.66,0,1,.05a5.11,5.11,0,0,1,1.6.37,9,9,0,0,1,1.9.93,13.46,13.46,0,0,1,2,1.59c.21.2.4.43.6.65a12.77,12.77,0,0,1,1.66,2.21c.23.37.44.75.66,1.12,0,.07.08.15.17.12s.09-.08.1-.14a10,10,0,0,1,.9-2.16,5.65,5.65,0,0,1,1.7-2,3.57,3.57,0,0,1,1.81-.59,3.32,3.32,0,0,1,1.21.21,6.17,6.17,0,0,1,2.46,1.63A12.78,12.78,0,0,1,222,362.1a16.43,16.43,0,0,1,1.37,2.32,18.32,18.32,0,0,1,.91,2.14c.23.65.47,1.3.65,2s.31,1.21.47,1.82a1.89,1.89,0,0,0,.12.27c.05-.08.09-.11.1-.15.1-.4.19-.81.3-1.22.24-.81.46-1.63.74-2.42a19.78,19.78,0,0,1,1.86-3.88,13.6,13.6,0,0,1,1.74-2.26,9.56,9.56,0,0,1,1.24-1.05,5.72,5.72,0,0,1,1.15-.6,3.59,3.59,0,0,1,2.24-.19,3.83,3.83,0,0,1,2.09,1.43c.17.21.31.45.47.67a6.29,6.29,0,0,1,.67,1.22c.19.41.32.85.48,1.28,0,.08.05.17.14.16s.11-.08.14-.14c.19-.32.36-.65.56-1a13.37,13.37,0,0,1,1.56-2.13,16.44,16.44,0,0,1,1.15-1.21c.4-.36.83-.67,1.26-1a8.65,8.65,0,0,1,1.78-1c.3-.13.62-.23.94-.34a6.12,6.12,0,0,1,1.94-.32c.31,0,.62,0,.93.05a4.08,4.08,0,0,1,1.9.71,3.5,3.5,0,0,1,1.32,1.78,4.7,4.7,0,0,1,.24,1.58,7.84,7.84,0,0,1-.36,2.1,7.06,7.06,0,0,1-.47,1.21c-.1.19-.18.4-.28.59s-.32.62-.49.92-.35.55-.52.82a.22.22,0,0,0,0,.26,1.29,1.29,0,0,0,.21-.07c.51-.23,1-.46,1.52-.71s.92-.48,1.38-.73.77-.4,1.14-.63c.61-.37,1.21-.76,1.81-1.14.12-.08.25-.15.37-.24l1.5-1.1c.36-.28.73-.56,1.07-.86.52-.45,1-.93,1.52-1.4.28-.28.57-.56.83-.85s.72-.83,1.06-1.26.55-.69.8-1.05.54-.84.81-1.26a2.82,2.82,0,0,0,.21-.38c.25-.48.5-1,.72-1.44a9.68,9.68,0,0,0,.41-1.06c.16-.47.3-.94.44-1.42a7.81,7.81,0,0,0,.17-.84c.08-.58.17-1.15.21-1.73a12.76,12.76,0,0,0,0-2.05,11.91,11.91,0,0,0-.45-2.51,13.71,13.71,0,0,0-1.05-2.78c-.25-.44-.46-.9-.71-1.33a16.33,16.33,0,0,0-1.24-1.83c-.39-.47-.77-.93-1.17-1.38s-.84-.92-1.29-1.35-1-.88-1.51-1.31-.84-.69-1.27-1a29.23,29.23,0,0,0-2.56-1.71c-.7-.41-1.41-.82-2.12-1.21-.54-.29-1.09-.55-1.65-.81s-1.36-.65-2.06-.93c-1-.39-1.94-.75-2.91-1.11-.52-.18-1.05-.35-1.57-.51l-1.41-.42-1.21-.32-1.79-.44a.52.52,0,0,0-.21,0l.14.23c.16.21.32.42.47.64.36.58.76,1.15,1.09,1.75s.67,1.27,1,1.93a18.21,18.21,0,0,1,.65,1.74,14,14,0,0,1,.49,2,12,12,0,0,1,.15,2.87,11.39,11.39,0,0,1-.28,1.75,13,13,0,0,1-.58,1.69l-.06.1c-.13.24-.26.47-.4.7a5.42,5.42,0,0,1-.42.64,8,8,0,0,1-1.53,1.49,5.66,5.66,0,0,1-1.36.7,4.49,4.49,0,0,1-2.27.2,4.65,4.65,0,0,1-2.29-1.14,7,7,0,0,1-1.59-2.16,11.6,11.6,0,0,1-.77-2.06,3.92,3.92,0,0,1-.15-.66c-.11-.85-.2-1.7-.29-2.54,0-.4-.09-.79-.13-1.18l-.3-2.8c-.09-.92-.18-1.83-.28-2.74s-.22-1.89-.33-2.84a.46.46,0,0,0-.07-.18l-.18.17-.67.89c-.52.68-1.05,1.35-1.56,2a.37.37,0,0,1-.34.18c-1.88,0-3.77,0-5.65.06a.74.74,0,0,1-.67-.35c-.3-.41-.62-.81-.94-1.21l-.79-1Z"/><path d="M219.79,325.64l.5.62.79,1c.32.4.64.8.94,1.21a.74.74,0,0,0,.67.35c1.88,0,3.77-.05,5.65-.06a.37.37,0,0,0,.34-.18c.51-.68,1-1.35,1.56-2l.67-.89.18-.17a.46.46,0,0,1,.07.18c.11.95.23,1.89.33,2.84s.19,1.82.28,2.74l.3,2.8c0,.39.08.78.13,1.18.09.84.18,1.69.29,2.54a3.92,3.92,0,0,0,.15.66,11.6,11.6,0,0,0,.77,2.06,7,7,0,0,0,1.59,2.16,4.65,4.65,0,0,0,2.29,1.14,4.49,4.49,0,0,0,2.27-.2,5.66,5.66,0,0,0,1.36-.7,8,8,0,0,0,1.53-1.49,5.42,5.42,0,0,0,.42-.64c.14-.23.27-.46.4-.7l.06-.1a13,13,0,0,0,.58-1.69,11.39,11.39,0,0,0,.28-1.75,12,12,0,0,0-.15-2.87,14,14,0,0,0-.49-2,18.21,18.21,0,0,0-.65-1.74c-.29-.66-.62-1.29-1-1.93s-.73-1.17-1.09-1.75c-.15-.22-.31-.43-.47-.64l-.14-.23a.52.52,0,0,1,.21,0l1.79.44,1.21.32,1.41.42c.52.16,1,.33,1.57.51,1,.36,1.95.72,2.91,1.11.7.28,1.38.61,2.06.93s1.11.52,1.65.81c.71.39,1.42.8,2.12,1.21a29.23,29.23,0,0,1,2.56,1.71c.43.32.85.66,1.27,1s1,.85,1.51,1.31.87.89,1.29,1.35.78.91,1.17,1.38a16.33,16.33,0,0,1,1.24,1.83c.25.43.46.89.71,1.33A13.71,13.71,0,0,1,266,343.8a11.91,11.91,0,0,1,.45,2.51,12.76,12.76,0,0,1,0,2.05c0,.58-.13,1.15-.21,1.73a7.81,7.81,0,0,1-.17.84c-.14.48-.28.95-.44,1.42a9.68,9.68,0,0,1-.41,1.06c-.22.49-.47,1-.72,1.44a2.82,2.82,0,0,1-.21.38c-.27.42-.52.85-.81,1.26s-.52.71-.8,1.05-.69.85-1.06,1.26-.55.57-.83.85c-.5.47-1,1-1.52,1.4-.34.3-.71.58-1.07.86l-1.5,1.1c-.12.09-.25.16-.37.24-.6.38-1.2.77-1.81,1.14-.37.23-.76.42-1.14.63s-.91.5-1.38.73-1,.48-1.52.71a1.29,1.29,0,0,1-.21.07.22.22,0,0,1,0-.26c.17-.27.35-.54.52-.82s.33-.61.49-.92.18-.4.28-.59a7.06,7.06,0,0,0,.47-1.21,7.84,7.84,0,0,0,.36-2.1,4.7,4.7,0,0,0-.24-1.58,3.5,3.5,0,0,0-1.32-1.78,4.08,4.08,0,0,0-1.9-.71c-.31,0-.62-.05-.93-.05a6.12,6.12,0,0,0-1.94.32c-.32.11-.64.21-.94.34a8.65,8.65,0,0,0-1.78,1c-.43.32-.86.63-1.26,1a16.44,16.44,0,0,0-1.15,1.21,13.37,13.37,0,0,0-1.56,2.13c-.2.32-.37.65-.56,1,0,.06-.09.13-.14.14s-.11-.08-.14-.16c-.16-.43-.29-.87-.48-1.28a6.29,6.29,0,0,0-.67-1.22c-.16-.22-.3-.46-.47-.67a3.83,3.83,0,0,0-2.09-1.43,3.59,3.59,0,0,0-2.24.19,5.72,5.72,0,0,0-1.15.6,9.56,9.56,0,0,0-1.24,1.05,13.6,13.6,0,0,0-1.74,2.26,19.78,19.78,0,0,0-1.86,3.88c-.28.79-.5,1.61-.74,2.42-.11.41-.2.82-.3,1.22,0,0-.05.07-.1.15a1.89,1.89,0,0,1-.12-.27c-.16-.61-.32-1.22-.47-1.82s-.42-1.32-.65-2a18.32,18.32,0,0,0-.91-2.14A16.43,16.43,0,0,0,222,362.1a12.78,12.78,0,0,0-1.29-1.55,6.17,6.17,0,0,0-2.46-1.63,3.32,3.32,0,0,0-1.21-.21,3.57,3.57,0,0,0-1.81.59,5.65,5.65,0,0,0-1.7,2,10,10,0,0,0-.9,2.16c0,.06-.05.13-.1.14s-.13-.05-.17-.12c-.22-.37-.43-.75-.66-1.12a12.77,12.77,0,0,0-1.66-2.21c-.2-.22-.39-.45-.6-.65a13.46,13.46,0,0,0-2-1.59,9,9,0,0,0-1.9-.93,5.11,5.11,0,0,0-1.6-.37c-.34,0-.67-.06-1-.05a4.21,4.21,0,0,0-1.78.4,3.55,3.55,0,0,0-1.65,1.53,3.72,3.72,0,0,0-.46,1.76,6.87,6.87,0,0,0,.1,1.57c.08.36.18.71.29,1.06a8.64,8.64,0,0,0,.31.85,14.25,14.25,0,0,0,.89,1.74c.24.38.48.76.73,1.14l0,.05c0,.05,0,.1,0,.15s-.1,0-.14,0l-.83-.37c-.23-.1-.45-.22-.67-.33-.7-.35-1.42-.67-2.1-1.06s-1.36-.84-2-1.27l-1.2-.83c-.32-.23-.63-.48-1-.72-.8-.62-1.59-1.26-2.33-2-.34-.32-.7-.63-1-1s-.88-.94-1.31-1.43-.76-.93-1.14-1.4a9.08,9.08,0,0,1-.74-1.09,13,13,0,0,1-.8-1.52c-.23-.52-.42-1.07-.63-1.6a13.22,13.22,0,0,1-.44-1.64,9.28,9.28,0,0,1-.15-.92,11.45,11.45,0,0,1-.15-1.85,16,16,0,0,1,.13-1.95,15.21,15.21,0,0,1,.32-1.66c.08-.3.18-.6.27-.89,0-.13.08-.27.13-.4.2-.5.4-1,.62-1.5a14.93,14.93,0,0,1,1-1.76,17.88,17.88,0,0,1,1.29-1.84,17.38,17.38,0,0,1,1.55-1.77c.44-.45.91-.88,1.37-1.32s1-.86,1.51-1.27.82-.62,1.24-.91.69-.5,1-.73.88-.56,1.32-.82l1.38-.78c.49-.27,1-.53,1.49-.77.68-.33,1.37-.66,2.06-1,.39-.18.79-.32,1.19-.48s.84-.35,1.27-.51l1.61-.56,1.21-.4,1.32-.38,1.84-.49c.23-.06.46-.1.69-.14a1,1,0,0,1,.21,0,1,1,0,0,1-.1.21,22,22,0,0,0-1.54,2.38,17.43,17.43,0,0,0-1.16,2.43c-.2.54-.36,1.09-.54,1.64a11,11,0,0,0-.48,2.41c-.05.55-.06,1.1-.06,1.65a8,8,0,0,0,.24,1.89c.11.43.22.86.36,1.28a8.07,8.07,0,0,0,1.05,2,7.51,7.51,0,0,0,.87,1,5.65,5.65,0,0,0,1.85,1.19,5.12,5.12,0,0,0,1.49.34,4,4,0,0,0,1.49-.19,4.61,4.61,0,0,0,1.83-1.08,7.33,7.33,0,0,0,1.33-1.78,13.24,13.24,0,0,0,.79-1.91,8,8,0,0,0,.37-1.94c.07-.85.17-1.7.25-2.55.06-.61.11-1.22.16-1.83,0-.12,0-.24.05-.37.06-.53.12-1.06.17-1.59.08-.8.15-1.59.23-2.39s.16-1.68.25-2.52a.76.76,0,0,1,.06-.16Z"/><path class="cls-8" d="M145.55,71.14c-.24,10.58,0,21.43,0,32V207.59c0,1.38-.38,6.91.34,7.53.46.4,12.35,5.7,14.08,6.64,2.95,1.61,9.12,4.1,11.19,5.28l2.77,1.31c2,1.07,3.48,1.73,5.48,2.64l33.48,15.9c.9.43,1.93,1,2.82,1.39l5.53,2.62c1.54.71,2.83,1.83,4.45,1l20.81-9.93a13.8,13.8,0,0,1,1.53-.65l15.35-7.3c2-.91,3.58-1.85,5.47-2.65,2.92-1.22,5.48-2.76,8.35-4,1-.42,1.9-.92,2.78-1.3l8.47-4c.94-.49,1.87-.84,2.77-1.3l11.12-5.32c1.32-.61.86-1.7.86-3.37V136c0-1.06.19-61.57,0-63.17l-.17-.6a.23.23,0,0,0-.07-.13l-.17.22-.13.24L298,85.78c-.69,1.58-1,3.16-1.6,4.73l-3.17,9c-.2.53-.54,1.27-.69,1.7-2.07,6.39-4.26,12.24-6.32,18.47l-3.83,10.76a4.45,4.45,0,0,1-2.43,2.74c-4,1.85-7-1.56-10.09-3.68a89.47,89.47,0,0,0-9.44-5.55c-1.73-.92-3.56-1.57-5.31-2.32a77.89,77.89,0,0,0-31.54-6A95.13,95.13,0,0,0,209.74,117c-1,.25-3.12.69-4.25.82-2.81.31-12.71,4.19-14.8,5.16a74.28,74.28,0,0,0-6.66,3.41l-10.47,7a5.65,5.65,0,0,1-5.77-.9c-1.12-.91-1.25-1.61-1.78-3.13l-7-20.13c-.67-1.62-1.2-3.73-1.85-5.49l-2.58-7.32c-.21-.6-.37-1.39-.57-1.94s-.5-1.13-.69-1.69l-6.94-20.11c-.44-1.32-.44-.79-.79-1.49Zm102,131.4c.49,1.25,4.06,1.77,5.3,2.22,2.22.82,7.18.53,9.43-.1a29,29,0,0,0,4.61-1.47,24.46,24.46,0,0,0,6.85-5.1c.92-1,4.39-5.64,4.27-7.72a53.33,53.33,0,0,0-5.69,2.2l-9.59,3.89c-.76.32-1,.41-1.93.73-.69.25-1.29.58-1.82.81-1.12.48-2.51.94-3.76,1.42-2.42.92-5.08,2.2-7.67,3.12Zm-68.91-9.14c-1.21-.5-6.85-2.91-7.8-3a14.25,14.25,0,0,0,1.79,4.3,24.11,24.11,0,0,0,2.43,3.33,21.65,21.65,0,0,0,16.63,7c3.27,0,6.94-.58,9.57-2.25L190,198c-1.33-.52-2.41-1-3.73-1.55-2.75-1.07-5-2-7.65-3Z"/><path class="cls-9" d="M227,115.54c-3,0-14.6.71-17.5,1.42-1,.25-3.11.69-4.25.82-2.81.31-12.7,4.19-14.8,5.16a74.28,74.28,0,0,0-6.66,3.41l-10.47,7a5.63,5.63,0,0,1-5.76-.9c-1.12-.91-1.25-1.61-1.79-3.13l-7-20.13c-.67-1.62-1.2-3.73-1.84-5.49l-2.59-7.32c-.2-.6-.37-1.39-.57-1.94s-.5-1.13-.69-1.69l-6.94-20.11c-.43-1.32-.44-.79-.79-1.49h0c-.24,10.58,0,21.43,0,32V207.59c0,1.38-.37,6.91.35,7.53.45.4,12.35,5.7,14.07,6.64,3,1.61,9.13,4.1,11.2,5.28l2.76,1.31c2,1.07,3.49,1.73,5.48,2.64l33.48,15.9c.9.43,1.93,1,2.82,1.39L221,250.9c1.54.71,2.82,1.83,4.44,1m-47-58.46c-1.21-.5-6.85-2.91-7.79-3a14.49,14.49,0,0,0,1.78,4.3,24.17,24.17,0,0,0,2.44,3.33,21.63,21.63,0,0,0,16.63,7c3.26,0,6.94-.58,9.57-2.25L189.73,198c-1.32-.52-2.41-1-3.73-1.55-2.75-1.07-5-2-7.65-3Z"/><path class="cls-10" d="M247.84,202.54c.48,1.25,4,1.77,5.29,2.22,2.23.82,7.19.53,9.44-.1a29.65,29.65,0,0,0,4.61-1.47,24.6,24.6,0,0,0,6.85-5.1c.92-1,4.39-5.64,4.27-7.72a53.41,53.41,0,0,0-5.7,2.2L263,196.46c-.76.32-1,.41-1.94.73-.68.25-1.29.58-1.81.81-1.13.48-2.51.94-3.76,1.42-2.42.92-5.08,2.2-7.67,3.12Zm-68.92-9.14c-1.2-.5-6.85-2.91-7.79-3a14.49,14.49,0,0,0,1.78,4.3,25,25,0,0,0,2.44,3.33,21.65,21.65,0,0,0,16.63,7c3.27,0,6.94-.58,9.57-2.25L190.3,198c-1.32-.52-2.41-1-3.72-1.55-2.76-1.07-5-2-7.66-3Z"/><path class="cls-10" d="M178.64,193.4c-1.21-.5-6.85-2.91-7.8-3a14.25,14.25,0,0,0,1.79,4.3,24.11,24.11,0,0,0,2.43,3.33,21.65,21.65,0,0,0,16.63,7c3.27,0,6.94-.58,9.57-2.25L190,198c-1.33-.52-2.41-1-3.73-1.55-2.75-1.07-5-2-7.65-3Z"/><path class="cls-11" d="M233.41,282.72c-12.38,0-19.06-5.81-23.88-10-4.46-3.88-5.66-4.56-8.13-3a3,3,0,0,1-3.2-5.08c6.48-4.08,11.15,0,15.27,3.55,6.08,5.29,13.65,11.87,32.52,6.6a3,3,0,0,1,1.62,5.78A52.86,52.86,0,0,1,233.41,282.72Z"/><path class="cls-5" d="M302.73,370.42c-1.62,17.1-35.19,31.09-78.59,31.09s-78.59-13.92-78.59-31.09v-7.34c0,17.17,35.18,31.09,78.59,31.09s77-14,78.59-31.09Z"/><rect class="cls-5" x="178.46" y="383.9" width="4.37" height="15.6" rx="1.98"/><rect class="cls-5" x="266.28" y="383.9" width="4.37" height="15.6" rx="1.98"/><path class="cls-12" d="M113.67,371.68s3.19-13.24,12.17-35.09c0,0,7.24-22.27,18.68-34.81"/><polyline class="cls-12" points="109.58 365.56 120.33 356.42 124.02 368.17"/><path class="cls-12" d="M331.82,368.12s-3.18-13.24-12.17-35.09c0,0-7.24-22.27-18.67-34.81"/><polyline class="cls-12" points="335.92 362 325.16 352.85 321.48 364.6"/></svg>