<svg id="Layer_1" data-name="Layer 1" xmlns="http://www.w3.org/2000/svg" viewBox="0 0 432 576"><defs><style>.cls-1{fill:#e6e7e8;}.cls-2{fill:none;stroke:#000;stroke-linecap:round;stroke-linejoin:round;stroke-width:8px;}.cls-3{fill:#f1f2f2;}.cls-4{opacity:0.15;}.cls-5{fill:#1a1a1a;}.cls-6{fill:#e63c7b;}.cls-7{fill:#ec6ca6;}.cls-8{fill:#9c1a45;}</style></defs><path class="cls-1" d="M353.49,208.32c-14,46.8-43.42,48.25-43.42,48.25h-1.54c1.22,22.22,1.79,50.41,6.74,78.69l3-.52c33.58-18.54,52.2-53.06,59.9-70.65q4.35-9.9,9.51-19.41C415.66,193.34,366.77,163.91,353.49,208.32Z"/><path class="cls-1" d="M128.46,334.89l4.51.78a101.58,101.58,0,0,0,2.25-24.9,416.17,416.17,0,0,1,.73-54.12c-4.59-.58-30-5.69-42.71-48.18-13.28-44.4-62.17-15-34.18,36.37,3.44,6.32,6.61,12.81,9.5,19.41C76.26,281.83,94.88,316.35,128.46,334.89Z"/><polyline class="cls-2" points="236.16 398.93 236.16 478.02 252.13 486.01"/><polyline class="cls-2" points="211.34 398.89 211.34 477.98 195.36 485.96"/><path class="cls-3" d="M369.24,443.11c-15.75,23.64-40,8.69-67.05-2.41s-39.58,2.41-39.58,2.41c-40.8,25.57-75.13,6.76-88.86-3.38s-31.91,0-31.91,0C91,474.47,80,443.59,80,443.59S129.55,357,127.3,302.21s.4-189.15,90.07-189.63,97.34,83.11,100.17,124.07,0,111.89,28.68,161.1S369.24,443.11,369.24,443.11Z"/><path class="cls-4" d="M225.72,310.75,194,359.08l18,11.8,3-4.56,9.41,44.92,31.27-48.61-17.53-11.47-3,4.61ZM240,359.24l7.69,5.2L227.11,396l-9.42-45L210,362.66l-7.58-5,20.66-31.6,9.34,44.62Z"/><circle class="cls-5" cx="188.52" cy="180.14" r="11.82"/><circle class="cls-5" cx="250.03" cy="180.14" r="24.85"/><path class="cls-5" d="M179.12,216.24H270s-4.84,18.25-43.43,18.45S179.12,216.24,179.12,216.24Z"/><path class="cls-6" d="M250.19,234.69c-2.63-14.34-25.32-9.23-25.32-9.23s-22.7-5.11-25.33,9.23.41,42.43,16.17,46.67a15.33,15.33,0,0,0,9.16,1.61,15.35,15.35,0,0,0,9.16-1.61C249.78,277.12,252.81,249,250.19,234.69Z"/><path class="cls-7" d="M244.91,242.13c-2.08-10.55-20-6.79-20-6.79s-18-3.76-20.05,6.79.32,31.21,12.8,34.33a12.88,12.88,0,0,0,7.25,1.18,12.91,12.91,0,0,0,7.25-1.18C244.59,273.34,247,252.68,244.91,242.13Z"/><polygon class="cls-8" points="225.32 225.46 224.87 257.72 224.41 225.46 225.32 225.46"/></svg>