<svg id="Layer_1" data-name="Layer 1" xmlns="http://www.w3.org/2000/svg" viewBox="0 0 432 576"><defs><style>.cls-1{fill:none;stroke:#000;stroke-linecap:round;stroke-linejoin:round;stroke-width:8px;}.cls-2{fill:#2d3032;}.cls-3{fill:#2d313f;}.cls-4{fill:#fbd82b;}.cls-5{fill:#ffe278;}.cls-6{fill:#af46e0;}.cls-7{fill:#151616;}.cls-8{fill:#824407;}.cls-9{fill:#333;}.cls-10,.cls-16{fill:#c6c8c7;}.cls-10{opacity:0.5;}.cls-11,.cls-17{fill:#fff;}.cls-11{opacity:0.9;}.cls-12{fill:#3f4244;}.cls-13{fill:#e8e8e6;}.cls-14{fill:#ee444e;}.cls-15{fill:#97999a;}.cls-17{opacity:0.15;}</style></defs><polyline class="cls-1" points="196.56 406.22 183.54 493.22 165.97 493.22"/><polyline class="cls-1" points="228.8 401.77 236.68 493.22 257.27 493.22"/><rect class="cls-2" x="129.95" y="264.72" width="171.26" height="38.29" rx="12" transform="translate(431.15 567.73) rotate(-180)"/><ellipse class="cls-3" cx="214.01" cy="393.18" rx="63.04" ry="27.19"/><path class="cls-4" d="M269.15,178.72c-13.71,5.72-33,9.28-54.5,9.28-22.11,0-42-3.79-55.77-9.82"/><path class="cls-4" d="M168.86,134.22a30.59,30.59,0,0,0-29.55,30.53c-.05,33.95-.09,77.38-.11,115.82,0,13.86,15.24,29.91,15.25,41.79,0,30.41-15.18,49.26-15.06,50.85,1.55,19.84,33.7,36.09,75.26,36.09s70.28-17.1,70.28-37l4.73-203.6a30.56,30.56,0,0,0-6.29-19.31l-4.63-6.05a30.61,30.61,0,0,0-25.34-12Z"/><path class="cls-5" d="M277.05,377.49V177.2a66.28,66.28,0,0,1-7.91,3.85V400a66.28,66.28,0,0,0,7.91-3.85Z"/><path class="cls-5" d="M242.27,363V185.85c2.72-.42,5.36-.91,7.91-1.45V405.7c-2.55.54-5.19,1-7.91,1.45Z"/><path class="cls-5" d="M207.67,405.14V188q3.45.12,7,.12h.93v221.3h-.93q-3.54,0-7-.12Z"/><polygon class="cls-5" points="186.66 407.14 186.66 185.88 178.75 184.41 178.75 405.62 186.66 407.14"/><path class="cls-5" d="M158.88,380.66v18.51c-2.37-1.13-6.33-3.29-7.91-4.29V174.13a83.69,83.69,0,0,0,7.91,4.05"/><path d="M150.24,332.77c-6.16,5.43-11.93,12.48-16.92,42-3.74-2.27-39.63-32.88-41.84-34.1C95,316.78,121.1,301.34,147.82,301,148.19,305.85,149.64,330.33,150.24,332.77Z"/><ellipse cx="107.66" cy="358.54" rx="26.39" ry="35.96" transform="translate(-223.96 184.85) rotate(-45.64)"/><path class="cls-2" d="M114.89,357.32c-11.14-10.48-24-14.93-28.73-9.94s.47,17.54,11.61,28,24,14.93,28.72,9.94S126,367.81,114.89,357.32Z"/><path class="cls-6" d="M287.81,362.08c-.78-2.69-1.47-5.12-1.24-7.39"/><path class="cls-6" d="M187.76,351.36c-8.25,42.11-10.11,85.71-4.64,127.7-22.21,3.42-47.62-16.44-49.28-27.39-1.57-40.44,8.57-76.81,20.61-114.35C163.73,343.45,176.38,348.19,187.76,351.36Z"/><path class="cls-6" d="M232,360.83c-.53,35.41,6.66,81.25,17.91,115.15-6.81,6.27-32.9,10.84-46.64,3.76-10.41-22.59-25.4-107.5-22.07-131.46C190.33,350.62,223.52,359.9,232,360.83Z"/><path class="cls-7" d="M297.81,289.1c-.28,13.5,7.18,35.89-16.16,54-20.68,16.09-73.16,28.48-88.24,25.79C176.05,365.83,124,334.67,137,265.79l5.36,10.44s25.13,28.42,62.62,23.81,87.08,7.84,85.19-18.49S297.81,289.1,297.81,289.1Z"/><path class="cls-8" d="M146.31,334.78c1.46,15.42,31.76,28.05,70.92,28.05s70.92-12.56,70.92-28.05v-6.63c0,15.49-31.75,28.05-70.92,28.05s-69.46-12.63-70.92-28.05Z"/><rect class="cls-4" x="205.44" y="352" width="20.08" height="16.91"/><rect class="cls-9" x="211.22" y="357.78" width="8.51" height="5.34"/><path d="M301.59,293.61c20.85,14.72,41.13,45.3,41.08,62,0,6.83-16.37,17.69-39.84,8.49-12.84-6.45-14.28-20.25-21.18-35.42C295.55,313.68,291.4,307.77,301.59,293.61Z"/><path class="cls-2" d="M301.59,293.61c20.85,14.72,41.13,45.3,41.08,62a7,7,0,0,1-1.65,4.08c-.14-15-23.42-43.52-42.45-61.84Z"/><ellipse cx="305.95" cy="328.68" rx="24.3" ry="37.52"/><path class="cls-2" d="M314.23,324.48c0,15.14-5.86,27.4-13.08,27.4s-13.09-12.26-13.09-27.4,5.86-27.4,13.09-27.4S314.23,309.35,314.23,324.48Z"/><path d="M318.42,294.23a11.33,11.33,0,0,0-7.35,1.66,2.6,2.6,0,0,0-2.16-.84c-2.66.2-5.94,3.67-5.69,7a6.15,6.15,0,0,0,3.69,5.53c.69,5.63,3.81,11,8,11.55,5.28.69,10.28-4.34,11.19-11.24S323.7,294.7,318.42,294.23Z"/><path d="M99.69,362.8a9.42,9.42,0,0,0,3.27-5.32,2.14,2.14,0,0,0,1.75-.79c1.42-1.69,1.26-5.65-.87-7.45a5.13,5.13,0,0,0-5.42-1c-3.73-2.86-8.72-4.12-11.46-2-3.46,2.72-3.38,8.61.18,13.14S96.35,365.66,99.69,362.8Z"/><ellipse class="cls-10" cx="210.51" cy="483.07" rx="168.11" ry="17.48"/><path class="cls-7" d="M146.31,319.22c-10.5,30.63-7.7,78-7.7,78L126,438h0c-1.91,18.73-10,30.05-23,36.72-5.51,2.82-32.34,5.42-26.5,8.05,43.25,19.41,230.5,20.11,276.06,0,6.37-2.81-24.59-3.37-30.74-6.31-11.54-5.5-17.12-15.94-17.82-30.32L284,399.6s-2.3-11.5,9-44.57c-11.26-3.15-13.13-31-6.65-48.33"/><path class="cls-11" d="M150,229.38c-38.24-76.32,19.14-118.62,64.37-119h.27a1.23,1.23,0,0,1,.28,0h0c45,.34,102.49,42.64,64.25,119,9.21,8.88,3.53,15.46-12.17,18.68-.18,6.93-1,24.38-5.21,29.36-8,9.52-31.08,16.47-46.87,16.47s-38.85-6.95-46.83-16.47c-4.14-4.94-5-22.18-5.17-29.2C146.63,245.06,140.63,238.41,150,229.38Z"/><path class="cls-12" d="M204.78,244.26l5.43-12.19a4.23,4.23,0,0,1,2.95-2.4h0l.33-.06h.11l.26,0h.36l.26,0h.11l.33.06h0a4.23,4.23,0,0,1,2.95,2.4l5.43,12.19a4.23,4.23,0,0,1-2.14,5.58c-2.13.95-7.16-3-7.16-3s-5,3.92-7.16,3A4.23,4.23,0,0,1,204.78,244.26Z"/><path class="cls-12" d="M214.78,285.2c31.82,0,31.82-31.58,31.82-31.58s-31.88,10.09-63.63,0C183,253.62,183,285.2,214.78,285.2Z"/><polygon class="cls-13" points="239.42 253.64 239.42 261.54 233.6 262.89 232.65 254.72 239.42 253.64"/><polygon class="cls-13" points="230.86 255.28 229.95 264 225.25 264 223.74 255.28 230.86 255.28"/><polygon class="cls-13" points="221.44 255.28 221.44 264 215.44 264 215.44 256.64 221.44 255.28"/><polygon class="cls-13" points="212.38 256.72 204.27 255.28 206.18 264 212.44 264 212.38 256.72"/><polygon class="cls-13" points="202.41 256.51 195.01 255.28 195.01 262.91 201.35 264 202.41 256.51"/><polygon class="cls-13" points="228.47 277.62 230.86 283.59 226.07 286.04 222.58 277.62 228.47 277.62"/><polygon class="cls-13" points="221.44 278.44 222.58 286.02 215.5 287.54 217.62 278.44 221.44 278.44"/><polygon class="cls-13" points="214.08 277.63 208.9 278.44 208.9 286.06 214.08 287.54 214.08 277.63"/><polygon class="cls-13" points="206.24 278.44 201.59 277.62 198.3 284.02 205.27 286.04 206.24 278.44"/><path class="cls-12" d="M270.48,207.87c-4.8-5.66-24.51-5.31-29.7,0-3.76,3.85-3.56,17.49,0,21.52,4.26,4.84,20.37,7.06,25.59,3.27S274.54,212.66,270.48,207.87Z"/><path class="cls-12" d="M156.27,207.87c4.8-5.66,24.5-5.31,29.69,0,3.76,3.85,3.56,17.49,0,21.52-4.26,4.84-20.37,7.06-25.59,3.27S152.2,212.66,156.27,207.87Z"/><ellipse class="cls-14" cx="170.82" cy="222.77" rx="4.89" ry="6.61"/><ellipse class="cls-14" cx="255.63" cy="222.77" rx="4.89" ry="6.61"/><path d="M213.89,341.37m-101-106.32c-9.35-27.37,11.07-44.68,18.45-70.23,8.06-27.9,37.72-48.69,49.14-67.31s26.17-22.06,33.4-22.06c6.62,0,17.75,3.85,29.15,19.26,16.18,21.86,44.22,41.36,52.93,70.11,7.71,25.42,22.69,35.27,19,70.23-2.75,25.69-13.72,41.67-13.72,41.67l-14.84,17.11V235.05c1.39-16.9-16.63-13.79-27.66-40.45-13.48-32.63-34.39-55.75-44.82-55.75S182.56,162,169.07,194.6c-11,26.66-29,23.55-27.63,40.45l.88,41.18A89.25,89.25,0,0,1,112.9,235.05Z"/><path class="cls-15" d="M330.15,129l-1.94,21.47s55.33,5.57,81.37,46.64C406.88,145.88,330.15,129,330.15,129Z"/><path class="cls-16" d="M328.21,150.43l.82-9.12h0s63.27,8.89,80.52,55.76C383.54,156,328.21,150.43,328.21,150.43Z"/><path class="cls-8" d="M293.45,497.28c.71,1.07,5.76,1.44,6.74.61l34-376.18c-1.08-1.3-5.56-1.82-6.74-.61Z"/><path class="cls-17" d="M216.7,318.88l-31.76,48.33L203,379l3-4.56,9.4,44.92,31.28-48.61-17.53-11.47-3,4.61ZM231,367.37l7.7,5.2L218.1,404.09l-9.43-45L201,370.79l-7.57-5,20.66-31.6,9.34,44.62Z"/><circle cx="314.71" cy="303.46" r="6.69"/></svg>