<?xml version="1.0" encoding="UTF-8"?>
<svg xmlns="http://www.w3.org/2000/svg" xmlns:xlink="http://www.w3.org/1999/xlink" width="432pt" height="576pt" viewBox="0 0 432 576" version="1.1">
<defs>
<clipPath id="clip1">
  <path d="M 188 106 L 202 106 L 202 147 L 188 147 Z M 188 106 "/>
</clipPath>
<clipPath id="clip2">
  <path d="M 141.414062 185.386719 C 141.414062 185.386719 163.6875 167.070312 220.769531 167.070312 C 277.851562 167.070312 297.550781 183.691406 297.550781 183.691406 C 297.550781 183.691406 305.597656 106.609375 220.292969 106.609375 C 134.992188 106.609375 141.414062 185.386719 141.414062 185.386719 "/>
</clipPath>
<clipPath id="clip3">
  <path d="M 239 106 L 252 106 L 252 147 L 239 147 Z M 239 106 "/>
</clipPath>
<clipPath id="clip4">
  <path d="M 141.414062 185.386719 C 141.414062 185.386719 163.6875 167.070312 220.769531 167.070312 C 277.851562 167.070312 297.550781 183.691406 297.550781 183.691406 C 297.550781 183.691406 305.597656 106.609375 220.292969 106.609375 C 134.992188 106.609375 141.414062 185.386719 141.414062 185.386719 "/>
</clipPath>
</defs>
<g id="surface1">
<path style=" stroke:none;fill-rule:nonzero;fill:rgb(93.699646%,32.499695%,31.399536%);fill-opacity:1;" d="M 305.914062 193.695312 C 305.914062 193.695312 310.296875 218.765625 310.296875 223.871094 C 310.296875 254.539062 267.636719 266.839844 221.039062 266.855469 L 221.039062 164.421875 C 259.898438 164.492188 305.914062 193.695312 305.914062 193.695312 "/>
<path style=" stroke:none;fill-rule:nonzero;fill:rgb(71.798706%,10.998535%,10.998535%);fill-opacity:1;" d="M 295.164062 187.335938 C 295.164062 187.335938 302.132812 219.113281 302.132812 224.148438 C 302.132812 254.433594 262.464844 268.824219 217.664062 268.84375 L 214.121094 164.425781 C 251.515625 164.476562 295.164062 187.335938 295.164062 187.335938 "/>
<path style=" stroke:none;fill-rule:nonzero;fill:rgb(93.699646%,32.499695%,31.399536%);fill-opacity:1;" d="M 133.632812 193.695312 C 133.632812 193.695312 129.25 218.765625 129.25 223.871094 C 129.25 254.539062 171.90625 266.839844 218.507812 266.855469 L 203.96875 164.421875 C 165.109375 164.492188 133.632812 193.695312 133.632812 193.695312 "/>
<path style=" stroke:none;fill-rule:nonzero;fill:rgb(71.798706%,10.998535%,10.998535%);fill-opacity:1;" d="M 144.378906 187.335938 C 144.378906 187.335938 137.410156 219.113281 137.410156 224.148438 C 137.410156 254.433594 177.078125 268.824219 221.882812 268.84375 L 219.789062 170.433594 C 182.414062 170.484375 144.378906 187.335938 144.378906 187.335938 "/>
<path style=" stroke:none;fill-rule:nonzero;fill:rgb(93.699646%,32.499695%,31.399536%);fill-opacity:1;" d="M 219.773438 157.332031 C 138.105469 157.332031 133.707031 193.660156 133.707031 193.660156 L 142.085938 198.015625 C 142.085938 198.015625 143.992188 187.925781 150.15625 184.894531 C 163.46875 178.34375 183.644531 170.449219 219.789062 170.433594 L 219.789062 157.332031 Z M 219.773438 157.332031 "/>
<path style=" stroke:none;fill-rule:nonzero;fill:rgb(93.699646%,32.499695%,31.399536%);fill-opacity:1;" d="M 219.773438 157.332031 C 301.4375 157.332031 305.839844 193.660156 305.839844 193.660156 L 297.054688 197.144531 C 297.054688 197.144531 295.148438 187.054688 288.984375 184.023438 C 275.671875 177.472656 255.902344 170.449219 219.734375 170.433594 L 219.734375 157.332031 Z M 219.773438 157.332031 "/>
<path style=" stroke:none;fill-rule:nonzero;fill:rgb(98.399353%,84.698486%,16.899109%);fill-opacity:1;" d="M 281.109375 153.796875 L 161.265625 153.796875 C 154.667969 153.796875 149.265625 159.195312 149.265625 165.796875 L 149.265625 180.699219 C 149.265625 187.300781 154.667969 192.699219 161.265625 192.699219 L 281.109375 192.699219 C 287.710938 192.699219 293.109375 187.300781 293.109375 180.699219 L 293.109375 165.796875 C 293.109375 159.195312 287.710938 153.796875 281.109375 153.796875 "/>
<path style="fill:none;stroke-width:8;stroke-linecap:round;stroke-linejoin:round;stroke:rgb(0%,0%,0%);stroke-opacity:1;stroke-miterlimit:10;" d="M -0.00146875 -0.001 L 13.014156 -87.001 L 30.584469 -87.001 " transform="matrix(1,0,0,-1,239.146,392.249)"/>
<path style="fill:none;stroke-width:8;stroke-linecap:round;stroke-linejoin:round;stroke:rgb(0%,0%,0%);stroke-opacity:1;stroke-miterlimit:10;" d="M 0.00194375 0.00101875 L -7.880869 -91.4482 L -28.466806 -91.4482 " transform="matrix(1,0,0,-1,206.9004,387.8018)"/>
<path style=" stroke:none;fill-rule:nonzero;fill:rgb(89.7995%,22.399902%,20.799255%);fill-opacity:1;" d="M 292.222656 293.632812 L 144.964844 293.632812 C 138.367188 293.632812 132.964844 288.234375 132.964844 281.632812 L 132.964844 267.34375 C 132.964844 260.746094 138.367188 255.34375 144.964844 255.34375 L 292.222656 255.34375 C 298.824219 255.34375 304.222656 260.746094 304.222656 267.34375 L 304.222656 281.632812 C 304.222656 288.234375 298.824219 293.632812 292.222656 293.632812 "/>
<path style=" stroke:none;fill-rule:nonzero;fill:rgb(99.198914%,84.698486%,20.799255%);fill-opacity:1;" d="M 283.199219 383.800781 C 283.199219 398.820312 254.976562 410.988281 220.160156 410.988281 C 185.34375 410.988281 157.121094 398.820312 157.121094 383.800781 C 157.121094 368.785156 185.34375 356.613281 220.160156 356.613281 C 254.976562 356.613281 283.199219 368.785156 283.199219 383.800781 "/>
<path style=" stroke:none;fill-rule:nonzero;fill:rgb(98.399353%,84.698486%,16.899109%);fill-opacity:1;" d="M 144.257812 166.183594 C 144.257812 182.6875 177.953125 178.621094 219.519531 178.621094 C 261.082031 178.621094 294.777344 192.703125 294.777344 176.199219 C 294.777344 176.199219 295.21875 365.371094 294.777344 370.039062 C 293.234375 386.46875 261.082031 399.921875 219.519531 399.921875 C 177.953125 399.921875 144.257812 386.542969 144.257812 370.039062 Z M 144.257812 166.183594 "/>
<path style=" stroke:none;fill-rule:nonzero;fill:rgb(100%,88.598633%,47.099304%);fill-opacity:1;" d="M 157.121094 364.625 L 157.121094 141.765625 C 159.484375 143.289062 162.132812 144.722656 165.03125 146.046875 L 165.03125 389.671875 C 162.132812 388.34375 159.484375 386.910156 157.121094 385.386719 Z M 157.121094 364.625 "/>
<path style=" stroke:none;fill-rule:nonzero;fill:rgb(100%,88.598633%,47.099304%);fill-opacity:1;" d="M 191.902344 348.976562 L 191.902344 153.921875 C 189.183594 153.457031 186.542969 152.917969 183.992188 152.320312 L 183.992188 395.945312 C 186.542969 396.542969 189.183594 397.078125 191.902344 397.546875 Z M 191.902344 348.976562 "/>
<path style=" stroke:none;fill-rule:nonzero;fill:rgb(100%,88.598633%,47.099304%);fill-opacity:1;" d="M 226.503906 395.328125 L 226.503906 156.285156 C 224.203125 156.378906 221.875 156.425781 219.519531 156.425781 C 219.210938 156.425781 218.902344 156.425781 218.597656 156.425781 L 218.597656 400.046875 C 218.902344 400.046875 219.210938 400.046875 219.519531 400.046875 C 221.878906 400.046875 224.207031 400 226.503906 399.90625 Z M 226.503906 395.328125 "/>
<path style=" stroke:none;fill-rule:nonzero;fill:rgb(100%,88.598633%,47.099304%);fill-opacity:1;" d="M 247.515625 397.535156 L 247.515625 153.960938 L 255.421875 152.332031 L 255.421875 395.863281 Z M 247.515625 397.535156 "/>
<path style=" stroke:none;fill-rule:nonzero;fill:rgb(100%,88.598633%,47.099304%);fill-opacity:1;" d="M 283.199219 368.378906 L 283.199219 141.019531 C 280.902344 142.53125 278.242188 143.988281 275.289062 145.480469 L 275.289062 388.765625 C 277.664062 387.519531 281.625 385.140625 283.199219 384.039062 Z M 283.199219 368.378906 "/>
<path style=" stroke:none;fill-rule:nonzero;fill:rgb(89.7995%,22.399902%,20.799255%);fill-opacity:1;" d="M 142.496094 317.726562 L 142.496094 372.691406 C 142.496094 389.195312 177.683594 402.570312 221.085938 402.570312 C 264.492188 402.570312 298.0625 389.121094 299.675781 372.691406 C 299.828125 371.160156 299.878906 346.796875 299.878906 314.757812 L 299.675781 276.980469 C 299.675781 293.484375 264.492188 306.863281 221.085938 306.863281 C 177.683594 306.863281 142.496094 293.484375 142.496094 276.980469 Z M 142.496094 317.726562 "/>
<path style="fill:none;stroke-width:8;stroke-linecap:round;stroke-linejoin:round;stroke:rgb(0%,0%,0%);stroke-opacity:1;stroke-miterlimit:10;" d="M -0.00095 -0.00001875 C -0.00095 -0.00001875 3.18655 13.242169 12.170925 35.089825 C 12.170925 35.089825 19.409206 57.363263 30.8428 69.898419 " transform="matrix(1,0,0,-1,115.2197,375.4492)"/>
<path style="fill:none;stroke-width:8;stroke-linecap:round;stroke-linejoin:round;stroke:rgb(0%,0%,0%);stroke-opacity:1;stroke-miterlimit:10;" d="M 0.0009625 0.00095625 L 13.3369 9.848613 L 17.965806 -4.901387 " transform="matrix(1,0,0,-1,107.6006,367.0283)"/>
<path style="fill:none;stroke-width:8;stroke-linecap:round;stroke-linejoin:round;stroke:rgb(0%,0%,0%);stroke-opacity:1;stroke-miterlimit:10;" d="M -0.00145 -0.00193125 C -0.00145 -0.00193125 -3.185044 13.244163 -12.169419 35.091819 C -12.169419 35.091819 -19.4077 57.36135 -30.841294 69.900413 " transform="matrix(1,0,0,-1,324.4702,373.3926)"/>
<path style="fill:none;stroke-width:8;stroke-linecap:round;stroke-linejoin:round;stroke:rgb(0%,0%,0%);stroke-opacity:1;stroke-miterlimit:10;" d="M 0.00150625 -0.000025 L -10.7524 9.1406 L -14.4399 -2.605494 " transform="matrix(1,0,0,-1,328.5649,367.2656)"/>
<path style=" stroke:none;fill-rule:nonzero;fill:rgb(89.7995%,22.399902%,20.799255%);fill-opacity:1;" d="M 220.292969 106.609375 C 134.992188 106.609375 141.414062 185.386719 141.414062 185.386719 C 141.414062 185.386719 163.6875 167.070312 220.769531 167.070312 C 277.851562 167.070312 297.550781 183.691406 297.550781 183.691406 C 297.550781 183.691406 305.597656 106.609375 220.292969 106.609375 "/>
<g clip-path="url(#clip1)" clip-rule="nonzero">
<g clip-path="url(#clip2)" clip-rule="nonzero">
<path style=" stroke:none;fill-rule:nonzero;fill:rgb(77.598572%,15.699768%,15.699768%);fill-opacity:1;" d="M 188.753906 110.523438 L 201.429688 106.613281 L 201.429688 146.125 C 198.859375 129.054688 195.175781 116.710938 188.753906 110.523438 "/>
</g>
</g>
<g clip-path="url(#clip3)" clip-rule="nonzero">
<g clip-path="url(#clip4)" clip-rule="nonzero">
<path style=" stroke:none;fill-rule:nonzero;fill:rgb(77.598572%,15.699768%,15.699768%);fill-opacity:1;" d="M 251.855469 110.523438 L 239.175781 106.613281 L 239.175781 146.125 C 241.746094 129.054688 245.433594 116.710938 251.855469 110.523438 "/>
</g>
</g>
<path style=" stroke:none;fill-rule:nonzero;fill:rgb(89.7995%,22.399902%,20.799255%);fill-opacity:1;" d="M 228.652344 167.457031 L 209.566406 167.457031 C 204.488281 167.457031 200.382812 163.710938 200.382812 159.078125 L 200.382812 111.933594 C 200.382812 107.304688 204.488281 103.558594 209.566406 103.558594 L 228.652344 103.558594 C 233.730469 103.558594 237.835938 107.304688 237.835938 111.933594 L 237.835938 159.0625 C 237.835938 163.695312 233.730469 167.457031 228.652344 167.457031 "/>
<path style=" stroke:none;fill-rule:nonzero;fill:rgb(100%,79.199219%,15.699768%);fill-opacity:1;" d="M 217.597656 165.222656 C 217.003906 165.222656 216.40625 165.039062 215.941406 164.695312 C 215.742188 164.546875 215.5625 164.382812 215.417969 164.203125 C 213.777344 163.675781 210.179688 162.625 206.667969 162.265625 C 193.503906 160.917969 188.136719 155.828125 185.941406 151.789062 C 183.238281 146.796875 183.90625 140.785156 187.832031 134.859375 C 189.8125 131.851562 190.515625 129.191406 189.902344 126.976562 C 189.21875 124.460938 187.039062 123.246094 186.949219 123.199219 C 186.265625 122.835938 185.796875 122.210938 185.652344 121.507812 C 185.507812 120.800781 185.707031 120.0625 186.210938 119.519531 L 193.613281 111.257812 C 194.132812 110.6875 194.910156 110.359375 195.699219 110.359375 C 195.953125 110.359375 196.222656 110.390625 196.476562 110.453125 C 196.511719 110.453125 199.933594 111.375 204.109375 111.375 C 205.246094 111.375 206.324219 111.308594 207.351562 111.175781 C 211.976562 110.570312 215.777344 107.203125 216.425781 106.613281 C 216.625 106.382812 216.875 106.1875 217.164062 106.039062 C 217.578125 105.808594 218.046875 105.695312 218.53125 105.695312 C 218.820312 105.695312 219.109375 105.742188 219.398438 105.824219 C 219.917969 105.988281 220.371094 106.285156 220.691406 106.679688 C 221.523438 107.433594 225.214844 110.605469 229.695312 111.175781 C 230.722656 111.308594 231.804688 111.375 232.9375 111.375 C 237.113281 111.375 240.554688 110.453125 240.589844 110.453125 C 240.84375 110.390625 241.09375 110.359375 241.347656 110.359375 C 242.140625 110.359375 242.914062 110.6875 243.433594 111.257812 L 250.835938 119.519531 C 251.339844 120.078125 251.539062 120.816406 251.394531 121.539062 C 251.25 122.261719 250.761719 122.871094 250.0625 123.230469 C 249.988281 123.265625 247.8125 124.480469 247.125 126.992188 C 246.515625 129.207031 247.21875 131.867188 249.195312 134.875 C 253.105469 140.800781 253.789062 146.8125 251.089844 151.804688 C 248.910156 155.84375 243.542969 160.9375 230.363281 162.296875 C 226.832031 162.660156 223.25 163.710938 221.613281 164.238281 C 221.46875 164.417969 221.289062 164.582031 221.089844 164.730469 C 220.601562 165.074219 220.027344 165.253906 219.433594 165.253906 C 219.199219 165.253906 218.964844 165.222656 218.730469 165.171875 L 218.53125 165.089844 L 218.300781 165.15625 C 218.0625 165.203125 217.832031 165.222656 217.597656 165.222656 "/>
<path style=" stroke:none;fill-rule:nonzero;fill:rgb(77.598572%,15.699768%,15.699768%);fill-opacity:1;" d="M 218.515625 103.230469 C 217.867188 103.230469 217.21875 103.328125 216.605469 103.558594 C 215.6875 103.871094 214.894531 104.414062 214.320312 105.070312 C 213.128906 106.121094 210.140625 108.335938 206.992188 108.730469 C 206.089844 108.84375 205.136719 108.914062 204.128906 108.914062 C 200.382812 108.914062 197.265625 108.089844 197.230469 108.089844 C 196.726562 107.960938 196.222656 107.894531 195.71875 107.894531 C 194.117188 107.894531 192.566406 108.535156 191.523438 109.699219 L 184.121094 117.960938 C 183.078125 119.125 182.554688 120.585938 182.898438 122.046875 C 183.242188 123.496094 184.160156 124.675781 185.597656 125.347656 C 186.804688 126.074219 189.039062 128.289062 185.527344 133.59375 C 181.117188 140.261719 180.414062 147.125 183.527344 152.886719 C 186.011719 157.46875 191.992188 163.265625 206.359375 164.746094 C 209.207031 165.042969 212.175781 165.84375 213.886719 166.355469 C 214.011719 166.46875 214.140625 166.566406 214.285156 166.667969 C 215.238281 167.339844 216.40625 167.703125 217.597656 167.703125 C 217.902344 167.703125 218.226562 167.667969 218.53125 167.621094 C 218.839844 167.667969 219.164062 167.703125 219.46875 167.703125 C 220.65625 167.703125 221.828125 167.339844 222.78125 166.667969 C 222.925781 166.566406 223.050781 166.46875 223.179688 166.355469 C 224.871094 165.828125 227.839844 165.042969 230.6875 164.746094 C 245.074219 163.265625 251.050781 157.488281 253.519531 152.886719 C 256.632812 147.125 255.929688 140.277344 251.519531 133.59375 C 248.007812 128.289062 250.242188 126.074219 251.449219 125.347656 C 252.886719 124.675781 253.804688 123.511719 254.148438 122.046875 C 254.492188 120.585938 253.96875 119.109375 252.925781 117.960938 L 245.542969 109.699219 C 244.496094 108.535156 242.949219 107.894531 241.363281 107.894531 C 240.84375 107.894531 240.320312 107.960938 239.816406 108.109375 C 239.796875 108.109375 236.703125 108.929688 232.9375 108.929688 C 231.929688 108.929688 230.972656 108.863281 230.074219 108.75 C 226.816406 108.320312 223.738281 105.988281 222.636719 104.96875 C 222.242188 104.542969 221.753906 104.167969 221.199219 103.886719 C 220.386719 103.445312 219.453125 103.230469 218.515625 103.230469 M 218.550781 108.15625 L 218.550781 108.191406 C 218.855469 108.484375 223.359375 112.851562 229.320312 113.625 C 230.5625 113.789062 231.765625 113.855469 232.9375 113.855469 C 237.601562 113.855469 241.347656 112.835938 241.347656 112.835938 L 248.746094 121.097656 C 248.746094 121.097656 239.941406 125.628906 246.894531 136.15625 C 253.84375 146.679688 249.574219 157.847656 230.074219 159.867188 C 224.90625 160.394531 219.738281 162.265625 219.738281 162.265625 L 219.453125 162.332031 L 219.453125 162.792969 L 218.53125 162.527344 L 217.597656 162.757812 L 217.597656 162.296875 L 217.308594 162.234375 C 217.308594 162.234375 212.121094 160.359375 206.972656 159.835938 C 187.472656 157.832031 183.203125 146.648438 190.15625 136.121094 C 197.105469 125.59375 188.300781 121.0625 188.300781 121.0625 L 195.699219 112.804688 C 195.699219 112.804688 199.445312 113.824219 204.109375 113.824219 C 205.28125 113.824219 206.503906 113.753906 207.730469 113.589844 C 213.6875 112.820312 218.191406 108.46875 218.496094 108.15625 L 218.496094 108.125 C 218.515625 108.15625 218.53125 108.171875 218.550781 108.15625 C 218.53125 108.171875 218.550781 108.15625 218.550781 108.15625 "/>
<path style=" stroke:none;fill-rule:nonzero;fill:rgb(47.499084%,33.299255%,28.199768%);fill-opacity:1;" d="M 218.53125 115.675781 C 230.972656 115.675781 241.058594 124.375 241.058594 135.105469 C 241.058594 145.832031 230.972656 154.53125 218.53125 154.53125 C 206.089844 154.53125 196.007812 145.832031 196.007812 135.105469 C 196.007812 124.375 206.089844 115.675781 218.53125 115.675781 "/>
<path style=" stroke:none;fill-rule:nonzero;fill:rgb(100%,92.199707%,23.098755%);fill-opacity:1;" d="M 216.390625 124.445312 C 215.382812 123.609375 214.859375 122.359375 215.039062 121.164062 C 214.375 121.867188 214.066406 122.820312 213.976562 123.527344 C 213.597656 126.695312 217.632812 127.699219 217.703125 127.632812 C 217.832031 127.484375 218.082031 127.089844 217.777344 126.316406 C 217.308594 125.167969 218.53125 124.527344 218.53125 124.527344 C 218.53125 124.527344 218.0625 125.449219 218.40625 125.84375 C 218.945312 126.46875 219.433594 126.433594 219.667969 126.746094 C 219.917969 127.074219 219.632812 127.597656 219.378906 127.699219 C 221.199219 127.566406 222.636719 126.136719 223.015625 124.609375 C 223.394531 123.085938 222.90625 121.492188 222.1875 120.046875 C 222.082031 121.210938 220.765625 122.179688 219.398438 122.132812 C 219.792969 121.6875 220.421875 120.457031 220.027344 119.125 C 219.632812 117.78125 217.308594 117.054688 217.308594 117.054688 C 217.308594 117.054688 217.957031 117.664062 217.992188 118.894531 C 217.992188 120.128906 214.839844 121.554688 216.390625 124.445312 "/>
<path style=" stroke:none;fill-rule:nonzero;fill:rgb(100%,92.199707%,23.098755%);fill-opacity:1;" d="M 228.078125 146.765625 L 210.195312 130.867188 L 206.972656 132.953125 L 224.90625 148.816406 C 225.160156 149.046875 225.589844 149.175781 226.042969 149.175781 C 226.507812 149.175781 226.996094 149.0625 227.375 148.816406 C 227.894531 148.488281 228.273438 147.929688 228.328125 147.453125 C 228.363281 147.109375 228.21875 146.894531 228.078125 146.765625 "/>
<path style=" stroke:none;fill-rule:nonzero;fill:rgb(100%,92.199707%,23.098755%);fill-opacity:1;" d="M 211.707031 129.128906 C 211.457031 128.964844 210.953125 128.929688 210.664062 128.898438 C 210.71875 128.796875 211.257812 127.765625 212.015625 127.566406 C 212.644531 127.402344 212.484375 126.679688 211.90625 126.5 C 210.648438 126.121094 208.035156 126.171875 205.839844 127.945312 C 205.585938 128.140625 202.292969 130.882812 200.652344 132.296875 C 200.542969 132.378906 200.417969 132.445312 200.238281 132.476562 C 199.265625 132.691406 198.671875 133.527344 198.90625 134.332031 C 199.140625 135.105469 199.714844 136.304688 200.996094 137.089844 C 202.21875 137.847656 204.433594 138.339844 204.488281 138.339844 C 205.40625 138.339844 206.199219 137.976562 206.46875 137.238281 C 206.628906 136.796875 206.253906 136.53125 206.773438 135.957031 C 206.773438 135.957031 212.03125 131.6875 212.554688 131.03125 C 213.078125 130.375 212.644531 129.769531 211.707031 129.128906 "/>
<path style=" stroke:none;fill-rule:nonzero;fill:rgb(100%,92.199707%,23.098755%);fill-opacity:1;" d="M 208.988281 146.765625 L 226.871094 130.867188 L 230.09375 132.953125 L 212.160156 148.816406 C 211.90625 149.046875 211.472656 149.175781 211.023438 149.175781 C 210.554688 149.175781 210.070312 149.0625 209.691406 148.816406 C 209.167969 148.488281 208.792969 147.929688 208.738281 147.453125 C 208.703125 147.109375 208.84375 146.894531 208.988281 146.765625 "/>
<path style=" stroke:none;fill-rule:nonzero;fill:rgb(100%,92.199707%,23.098755%);fill-opacity:1;" d="M 225.355469 129.128906 C 225.609375 128.964844 226.113281 128.929688 226.402344 128.898438 C 226.347656 128.796875 225.808594 127.765625 225.050781 127.566406 C 224.421875 127.402344 224.582031 126.679688 225.160156 126.5 C 226.417969 126.121094 229.03125 126.171875 231.226562 127.945312 C 231.480469 128.140625 234.773438 130.882812 236.414062 132.296875 C 236.519531 132.378906 236.648438 132.445312 236.828125 132.476562 C 237.800781 132.691406 238.394531 133.527344 238.160156 134.332031 C 237.925781 135.105469 237.347656 136.304688 236.070312 137.089844 C 234.847656 137.847656 232.632812 138.339844 232.578125 138.339844 C 231.660156 138.339844 230.867188 137.976562 230.597656 137.238281 C 230.433594 136.796875 230.8125 136.53125 230.289062 135.957031 C 230.289062 135.957031 225.03125 131.6875 224.511719 131.03125 C 223.988281 130.375 224.421875 129.769531 225.355469 129.128906 "/>
<path style=" stroke:none;fill-rule:nonzero;fill:rgb(93.699646%,32.499695%,31.399536%);fill-opacity:1;" d="M 219.722656 155.910156 C 139.539062 155.910156 135.21875 190.148438 135.21875 190.148438 L 143.445312 194.253906 C 143.445312 194.253906 145.320312 184.746094 151.371094 181.890625 C 164.441406 175.714844 184.25 168.273438 219.738281 168.257812 L 219.738281 155.910156 Z M 219.722656 155.910156 "/>
<path style=" stroke:none;fill-rule:nonzero;fill:rgb(93.699646%,32.499695%,31.399536%);fill-opacity:1;" d="M 218.722656 155.910156 C 299.851562 155.910156 304.226562 190.148438 304.226562 190.148438 L 295.496094 193.433594 C 295.496094 193.433594 293.601562 183.925781 287.480469 181.066406 C 274.253906 174.894531 254.613281 168.273438 218.683594 168.257812 L 218.683594 155.910156 Z M 218.722656 155.910156 "/>
<path style=" stroke:none;fill-rule:nonzero;fill:rgb(77.598572%,61.199951%,42.698669%);fill-opacity:1;" d="M 304.222656 404.03125 L 314.757812 402.257812 L 322.414062 400.976562 C 322.414062 400.976562 317.652344 383.824219 329.832031 357.5625 C 342.03125 331.253906 356.792969 279.820312 356.792969 279.820312 L 346.023438 274.929688 C 346.023438 274.929688 345.917969 275.308594 345.71875 276.035156 C 343.382812 284.457031 328.210938 338.703125 319.089844 356.640625 C 307.835938 378.808594 304.222656 404.03125 304.222656 404.03125 "/>
<path style=" stroke:none;fill-rule:nonzero;fill:rgb(77.598572%,61.199951%,42.698669%);fill-opacity:1;" d="M 325.996094 350.332031 C 326.09375 350.660156 326.4375 350.839844 326.753906 350.972656 C 328.546875 351.671875 330.457031 351.910156 332.382812 351.804688 C 332.839844 350.730469 333.296875 349.648438 333.75 348.519531 C 332.816406 348.542969 331.871094 348.371094 330.992188 348.105469 C 329.742188 347.753906 328.546875 347.195312 327.496094 346.433594 C 327.394531 347.511719 326.78125 348.46875 326.234375 349.390625 C 326.070312 349.683594 325.894531 350.015625 325.996094 350.332031 "/>
<path style=" stroke:none;fill-rule:nonzero;fill:rgb(77.598572%,61.199951%,42.698669%);fill-opacity:1;" d="M 320.132812 354.507812 L 320.125 354.519531 C 320.152344 356.015625 320.75 357.46875 321.765625 358.652344 C 321.8125 358.722656 321.875 358.792969 321.941406 358.855469 C 320.582031 360.324219 320.085938 362.40625 320.609375 364.359375 C 320.90625 365.4375 321.472656 366.414062 322.222656 367.242188 C 322.449219 367.496094 322.679688 367.742188 322.945312 367.964844 C 323.449219 368.394531 324.019531 368.789062 324.617188 369.082031 C 324.8125 369.179688 325.015625 369.277344 325.226562 369.351562 C 325.3125 369.085938 325.402344 368.824219 325.480469 368.546875 C 326.15625 366.503906 326.9375 364.375 327.832031 362.175781 C 327.9375 361.90625 328.035156 361.648438 328.152344 361.378906 C 328.671875 360.136719 329.234375 358.863281 329.839844 357.5625 C 330.613281 355.886719 331.40625 354.09375 332.195312 352.226562 C 332.328125 351.949219 332.453125 351.660156 332.578125 351.367188 C 333.597656 348.925781 334.636719 346.359375 335.675781 343.707031 C 335.777344 343.449219 335.878906 343.191406 335.964844 342.929688 C 335.957031 342.910156 335.929688 342.90625 335.90625 342.898438 C 333.40625 342.285156 330.851562 342.105469 328.296875 342.402344 L 328.300781 342.390625 C 328.222656 341.753906 328.09375 341.148438 327.898438 340.542969 C 327.796875 340.269531 327.699219 339.996094 327.578125 339.742188 C 327.328125 339.183594 327.007812 338.628906 326.605469 338.128906 C 326.484375 338.453125 326.378906 338.777344 326.265625 339.085938 C 324.492188 344.039062 322.746094 348.550781 321.140625 352.242188 L 321.125 352.292969 C 321.015625 352.546875 320.902344 352.789062 320.792969 353.03125 C 320.570312 353.539062 320.347656 354.035156 320.132812 354.507812 "/>
<path style=" stroke:none;fill-rule:nonzero;fill:rgb(71.798706%,55.299377%,38.798523%);fill-opacity:1;" d="M 304.222656 404.03125 L 314.757812 402.257812 C 313.929688 393.890625 314.636719 375.335938 323.703125 355.789062 C 335.90625 329.480469 349.507812 277.753906 349.507812 277.753906 L 345.71875 276.035156 C 343.382812 284.457031 328.210938 338.703125 319.089844 356.640625 C 307.835938 378.808594 304.222656 404.03125 304.222656 404.03125 "/>
<path style=" stroke:none;fill-rule:nonzero;fill:rgb(100%,100%,100%);fill-opacity:1;" d="M 360.414062 262.027344 C 360.753906 264.15625 361.746094 274.019531 353.597656 288.402344 L 353.597656 288.414062 C 353.90625 288.558594 354.203125 288.714844 354.496094 288.878906 C 354.792969 289.03125 355.082031 289.191406 355.355469 289.355469 C 355.921875 289.675781 356.46875 290.003906 356.988281 290.335938 C 357.246094 290.496094 357.503906 290.667969 357.753906 290.832031 C 357.996094 291 358.238281 291.164062 358.480469 291.328125 C 358.722656 291.492188 358.957031 291.65625 359.179688 291.824219 C 359.25 291.878906 359.316406 291.921875 359.382812 291.96875 C 359.707031 292.210938 360.019531 292.445312 360.316406 292.679688 C 360.46875 292.800781 360.621094 292.914062 360.761719 293.03125 C 361.050781 293.261719 361.328125 293.492188 361.589844 293.714844 C 361.785156 293.882812 361.984375 294.050781 362.164062 294.21875 C 362.304688 294.335938 362.4375 294.453125 362.5625 294.566406 C 363.074219 295.042969 363.546875 295.484375 363.945312 295.894531 C 365.40625 297.367188 366.128906 298.367188 366.128906 298.367188 C 379.882812 278.585938 376.75 265.382812 376.75 265.382812 C 375.660156 265.074219 374.585938 264.789062 373.523438 264.523438 C 372.644531 264.300781 371.769531 264.085938 370.914062 263.894531 C 370.503906 263.796875 370.089844 263.707031 369.679688 263.617188 C 368.921875 263.453125 368.179688 263.296875 367.441406 263.15625 C 366.996094 263.0625 366.554688 262.980469 366.121094 262.902344 C 364.160156 262.539062 362.257812 262.253906 360.414062 262.027344 "/>
<path style=" stroke:none;fill-rule:nonzero;fill:rgb(79.998779%,79.998779%,79.998779%);fill-opacity:1;" d="M 353.597656 288.402344 C 353.046875 288.125 352.476562 287.859375 351.894531 287.597656 C 352.484375 287.859375 353.046875 288.132812 353.597656 288.414062 C 353.902344 288.566406 354.199219 288.722656 354.496094 288.878906 C 354.792969 289.039062 355.078125 289.199219 355.355469 289.355469 C 355.921875 289.683594 356.46875 290.003906 356.988281 290.335938 C 357.246094 290.496094 357.503906 290.667969 357.753906 290.832031 C 357.996094 291 358.238281 291.164062 358.480469 291.328125 C 358.722656 291.492188 358.953125 291.664062 359.179688 291.824219 C 359.25 291.878906 359.316406 291.921875 359.382812 291.96875 C 359.707031 292.210938 360.015625 292.445312 360.316406 292.679688 C 360.46875 292.800781 360.621094 292.914062 360.761719 293.03125 C 361.050781 293.261719 361.328125 293.492188 361.589844 293.714844 C 361.785156 293.882812 361.984375 294.050781 362.164062 294.21875 C 362.304688 294.335938 362.4375 294.453125 362.5625 294.566406 C 363.074219 295.042969 363.546875 295.484375 363.945312 295.894531 C 375.976562 277.742188 373.730469 265.492188 373.523438 264.523438 C 372.644531 264.300781 371.769531 264.085938 370.914062 263.894531 C 370.503906 263.796875 370.089844 263.707031 369.679688 263.617188 C 368.921875 263.453125 368.179688 263.296875 367.441406 263.15625 C 366.996094 263.0625 366.554688 262.980469 366.121094 262.902344 C 364.160156 262.539062 362.257812 262.253906 360.414062 262.027344 C 360.753906 264.15625 361.746094 274.019531 353.597656 288.402344 "/>
<path style=" stroke:none;fill-rule:nonzero;fill:rgb(89.7995%,22.399902%,20.799255%);fill-opacity:1;" d="M 313.945312 274.601562 C 328.332031 271.511719 329.699219 284.054688 329.699219 284.054688 C 339.773438 283.164062 347.722656 285.433594 353.597656 288.414062 C 361.746094 274.019531 360.753906 264.15625 360.414062 262.027344 C 327.105469 257.925781 313.945312 274.601562 313.945312 274.601562 "/>
<path style=" stroke:none;fill-rule:nonzero;fill:rgb(100%,100%,100%);fill-opacity:1;" d="M 319.367188 269.878906 C 318.910156 270.195312 318.484375 270.496094 318.09375 270.792969 C 318.492188 270.507812 318.910156 270.195312 319.367188 269.878906 "/>
<path style=" stroke:none;fill-rule:nonzero;fill:rgb(79.998779%,79.998779%,79.998779%);fill-opacity:1;" d="M 338.71875 284.097656 C 343.839844 284.605469 348.226562 285.945312 351.894531 287.597656 C 348.230469 285.9375 343.839844 284.605469 338.71875 284.097656 "/>
<path style=" stroke:none;fill-rule:nonzero;fill:rgb(92.498779%,10.998535%,14.099121%);fill-opacity:1;" d="M 353.597656 288.402344 C 353.046875 288.125 352.476562 287.859375 351.894531 287.597656 C 352.484375 287.859375 353.046875 288.132812 353.597656 288.414062 Z M 353.597656 288.402344 "/>
<path style=" stroke:none;fill-rule:nonzero;fill:rgb(92.498779%,10.998535%,14.099121%);fill-opacity:1;" d="M 338.71875 284.097656 C 343.839844 284.605469 348.226562 285.945312 351.894531 287.597656 C 348.230469 285.9375 343.839844 284.605469 338.71875 284.097656 "/>
<path style="fill:none;stroke-width:8;stroke-linecap:round;stroke-linejoin:round;stroke:rgb(0%,0%,0%);stroke-opacity:1;stroke-miterlimit:10;" d="M -0.001025 -0.0019125 L 3.604444 -6.990194 " transform="matrix(1,0,0,-1,317.2354,350.4434)"/>
<path style=" stroke:none;fill-rule:nonzero;fill:rgb(78.399658%,14.498901%,14.898682%);fill-opacity:1;" d="M 109.5625 397.496094 C 98.9375 398.304688 90.171875 396.957031 89.984375 394.480469 L 94.085938 448.375 L 94.09375 448.375 C 94.597656 450.757812 103.230469 452.042969 113.652344 451.25 C 124.074219 450.457031 132.414062 447.882812 132.550781 445.449219 L 132.5625 445.445312 L 128.460938 391.554688 C 128.648438 394.027344 120.1875 396.6875 109.5625 397.496094 "/>
<path style=" stroke:none;fill-rule:nonzero;fill:rgb(26.298523%,26.298523%,26.298523%);fill-opacity:1;" d="M 112.652344 438.074219 C 102.230469 438.867188 93.597656 437.585938 93.09375 435.199219 L 93.082031 435.199219 L 93.503906 440.730469 L 93.515625 440.730469 C 94.019531 443.117188 102.648438 444.398438 113.070312 443.605469 C 123.492188 442.8125 131.832031 440.238281 131.96875 437.804688 L 131.980469 437.804688 L 131.558594 432.273438 L 131.550781 432.273438 C 131.410156 434.707031 123.074219 437.28125 112.652344 438.074219 "/>
<path style=" stroke:none;fill-rule:nonzero;fill:rgb(100%,100%,100%);fill-opacity:1;" d="M 109.679688 402.527344 C 104.582031 402.917969 99.910156 402.804688 96.410156 402.316406 L 98.839844 434.203125 C 102.339844 434.695312 107.007812 434.804688 112.105469 434.417969 C 117.207031 434.03125 121.804688 433.214844 125.191406 432.199219 L 122.765625 400.308594 C 119.378906 401.324219 114.777344 402.140625 109.679688 402.527344 "/>
<path style=" stroke:none;fill-rule:nonzero;fill:rgb(26.298523%,26.298523%,26.298523%);fill-opacity:1;" d="M 96.410156 402.316406 L 96.789062 407.265625 C 100.289062 407.757812 104.957031 407.871094 110.054688 407.480469 C 115.15625 407.09375 119.757812 406.277344 123.140625 405.261719 L 122.765625 400.308594 C 119.378906 401.324219 114.777344 402.140625 109.679688 402.527344 C 104.582031 402.917969 99.910156 402.804688 96.410156 402.316406 "/>
<path style=" stroke:none;fill-rule:nonzero;fill:rgb(100%,29.798889%,12.199402%);fill-opacity:1;" d="M 116.597656 418.9375 C 116.785156 419.503906 116.214844 420.164062 116.214844 420.164062 C 116.214844 420.164062 115.140625 420.996094 115.117188 417.777344 C 115.089844 414.554688 109.789062 411.792969 109.789062 411.792969 C 109.789062 411.792969 109.839844 412.097656 109.972656 414.210938 C 110.140625 416.875 108.539062 416.078125 108.539062 416.078125 C 107.136719 417.835938 107.558594 421.523438 107.558594 421.523438 C 105.792969 423.339844 105.457031 419.867188 105.457031 419.867188 C 105.457031 419.867188 102.128906 423.78125 106.289062 427.386719 C 106.289062 427.386719 106.898438 427.90625 105.980469 427.796875 C 105.324219 427.71875 105.160156 427.472656 105.160156 427.472656 C 105.160156 427.472656 105.40625 429.078125 110.03125 429.738281 C 110.121094 429.75 111.558594 429.917969 113.128906 429.476562 C 116.574219 428.421875 117.074219 426.914062 117.074219 426.914062 C 117.074219 426.914062 117.007812 427.050781 116.433594 427.15625 C 115.8125 427.265625 116.300781 426.625 116.300781 426.625 C 120.222656 423.722656 116.40625 418.375 116.597656 418.9375 "/>
<path style=" stroke:none;fill-rule:nonzero;fill:rgb(100%,61.199951%,27.099609%);fill-opacity:1;" d="M 115.507812 424.367188 C 116.226562 423.023438 115.527344 422.113281 115.527344 422.113281 C 114.292969 422.875 113.871094 422.441406 113.730469 422.074219 C 113.675781 421.929688 113.652344 421.773438 113.667969 421.621094 C 114.128906 416.683594 110.703125 414.300781 110.832031 414.945312 C 110.871094 415.140625 110.859375 415.398438 110.820312 415.671875 C 110.726562 416.308594 110.503906 416.917969 110.175781 417.476562 C 109.726562 418.242188 108.933594 419.871094 108.613281 422.257812 C 108.160156 425.667969 105.925781 423.394531 105.925781 423.394531 C 105.925781 423.394531 105.039062 427.582031 110.125 429.746094 C 110.414062 429.773438 111.335938 429.835938 112.425781 429.640625 C 115.523438 427.882812 116.449219 424.847656 116.449219 424.847656 C 116.449219 424.847656 114.785156 425.714844 115.507812 424.367188 "/>
<path style=" stroke:none;fill-rule:nonzero;fill:rgb(100%,86.698914%,33.699036%);fill-opacity:1;" d="M 114.320312 423.582031 C 114.304688 423.625 114.027344 424.488281 112.765625 424.796875 C 111.46875 425.113281 111.695312 420.507812 111.695312 420.507812 C 108.589844 422.28125 109.460938 425.816406 109.460938 425.816406 C 109.460938 425.816406 108.984375 426.351562 108.289062 425.90625 C 108.050781 425.753906 108.777344 428.765625 110.972656 429.777344 C 111.363281 429.769531 111.851562 429.738281 112.382812 429.644531 C 113.757812 428.527344 114.285156 425.3125 114.285156 425.3125 L 113.652344 425.773438 Z M 114.320312 423.582031 "/>
<path style=" stroke:none;fill-rule:nonzero;fill:rgb(100%,29.798889%,12.199402%);fill-opacity:1;" d="M 104.695312 419.476562 C 104.695312 419.476562 104.378906 417.839844 105.246094 417.039062 C 105.378906 416.914062 105.46875 416.816406 105.527344 416.640625 C 105.574219 416.5 105.648438 416.273438 105.59375 416.113281 C 105.453125 415.710938 106.960938 417.875 104.695312 419.476562 "/>
<path style=" stroke:none;fill-rule:nonzero;fill:rgb(98.799133%,98.399353%,79.998779%);fill-opacity:1;" d="M 112.394531 429.644531 C 112.933594 428.984375 113.523438 426.46875 113.523438 426.46875 C 113.523438 426.46875 113.394531 426.984375 112.757812 426.964844 C 111.882812 426.941406 111.226562 424.664062 111.226562 424.664062 C 111.226562 424.664062 110.652344 426.6875 110.523438 426.988281 C 110.25 427.628906 109.613281 427.058594 109.613281 427.058594 C 109.535156 428.070312 110.890625 429.410156 111.277344 429.765625 C 111.609375 429.75 111.988281 429.714844 112.394531 429.644531 "/>
<path style=" stroke:none;fill-rule:nonzero;fill:rgb(82.699585%,18.399048%,21.598816%);fill-opacity:1;" d="M 128.460938 391.550781 C 128.648438 394.027344 120.1875 396.6875 109.5625 397.496094 C 98.9375 398.304688 90.171875 396.953125 89.984375 394.480469 C 89.792969 392.003906 97.933594 385.128906 108.558594 384.320312 C 119.183594 383.511719 128.273438 389.078125 128.460938 391.550781 "/>
<path style=" stroke:none;fill-rule:nonzero;fill:rgb(82.699585%,82.699585%,82.699585%);fill-opacity:1;" d="M 136.675781 390.132812 C 116.527344 370.0625 101.023438 381.949219 101.023438 381.949219 L 99.753906 365.242188 L 133.75 362.65625 C 133.75 362.65625 136.457031 370.371094 120.625 372.1875 C 120.625 372.1875 137.136719 377.535156 136.703125 390.128906 Z M 136.675781 390.132812 "/>
<path style=" stroke:none;fill-rule:nonzero;fill:rgb(26.298523%,26.298523%,26.298523%);fill-opacity:1;" d="M 100.152344 370.472656 C 98.613281 370.285156 95.101562 370.015625 91.308594 370.8125 C 88.246094 371.457031 85.609375 372.660156 83.480469 374.382812 C 80.757812 376.585938 78.917969 379.582031 78.007812 383.289062 C 75.871094 392.015625 78.070312 397.390625 80.195312 402.585938 C 81.632812 406.097656 83.117188 409.726562 83.570312 414.882812 L 86.632812 449.90625 L 92.980469 449.351562 L 89.917969 414.328125 C 89.382812 408.207031 87.636719 403.941406 86.097656 400.171875 C 84.039062 395.152344 82.554688 391.519531 84.199219 384.804688 C 85.226562 380.609375 87.929688 378.082031 92.464844 377.085938 C 96.234375 376.253906 100.625 377.160156 100.660156 377.167969 Z M 100.152344 370.472656 "/>
<path style=" stroke:none;fill-rule:nonzero;fill:rgb(4.699707%,4.699707%,4.699707%);fill-opacity:1;" d="M 84.21875 434.546875 L 84.628906 439.949219 C 84.628906 439.949219 89.15625 441.527344 93.382812 439.167969 L 92.972656 433.765625 C 88.746094 436.125 84.21875 434.546875 84.21875 434.546875 "/>
<path style=" stroke:none;fill-rule:nonzero;fill:rgb(57.299805%,57.299805%,57.598877%);fill-opacity:1;" d="M 92.785156 447.128906 L 92.316406 441.75 C 89.808594 442.730469 87.355469 442.519531 85.960938 442.253906 L 86.433594 447.667969 C 87.851562 447.929688 90.292969 448.121094 92.785156 447.128906 "/>
<path style=" stroke:none;fill-rule:nonzero;fill:rgb(78.399658%,14.498901%,14.898682%);fill-opacity:1;" d="M 103.796875 380.074219 C 103.433594 375.269531 107.027344 371.078125 111.832031 370.714844 C 116.636719 370.347656 120.824219 373.945312 121.191406 378.75 C 121.554688 383.550781 117.957031 387.742188 113.15625 388.105469 C 108.351562 388.472656 104.164062 384.875 103.796875 380.074219 "/>
<path style=" stroke:none;fill-rule:nonzero;fill:rgb(63.899231%,10.198975%,12.89978%);fill-opacity:1;" d="M 111.992188 372.84375 C 108.375 373.121094 105.652344 376.289062 105.929688 379.910156 C 106.203125 383.53125 109.375 386.25 112.992188 385.976562 C 116.613281 385.699219 119.335938 382.53125 119.058594 378.910156 C 118.785156 375.289062 115.613281 372.570312 111.992188 372.84375 M 113.046875 386.667969 C 109.042969 386.976562 105.539062 383.964844 105.234375 379.960938 C 104.929688 375.960938 107.9375 372.453125 111.941406 372.152344 C 115.945312 371.847656 119.449219 374.855469 119.753906 378.859375 C 120.058594 382.859375 117.050781 386.363281 113.046875 386.667969 "/>
<path style=" stroke:none;fill-rule:nonzero;fill:rgb(63.899231%,10.198975%,12.89978%);fill-opacity:1;" d="M 112.367188 377.753906 C 111.453125 377.820312 110.765625 378.621094 110.835938 379.535156 C 110.90625 380.449219 111.707031 381.136719 112.621094 381.066406 C 113.535156 380.996094 114.21875 380.199219 114.152344 379.285156 C 114.082031 378.371094 113.28125 377.683594 112.367188 377.753906 M 112.664062 381.644531 C 111.433594 381.738281 110.351562 380.8125 110.257812 379.578125 C 110.164062 378.347656 111.089844 377.269531 112.324219 377.175781 C 113.554688 377.082031 114.636719 378.007812 114.730469 379.238281 C 114.824219 380.472656 113.898438 381.550781 112.664062 381.644531 "/>
<path style=" stroke:none;fill-rule:nonzero;fill:rgb(0%,85.499573%,0.39978%);fill-opacity:1;" d="M 112.492188 379.410156 L 114.574219 372.796875 C 113.753906 372.539062 112.875 372.429688 111.96875 372.496094 C 111.070312 372.566406 110.230469 372.804688 109.46875 373.171875 C 110.285156 374.71875 112.492188 379.410156 112.492188 379.410156 "/>
<path style=" stroke:none;fill-rule:nonzero;fill:rgb(63.899231%,10.198975%,12.89978%);fill-opacity:1;" d="M 103.828125 380.378906 C 103.128906 380.6875 102.550781 380.996094 102.105469 381.253906 C 102.066406 381.277344 102.238281 383.503906 102.402344 385.488281 C 103.417969 385.179688 104.476562 384.917969 105.570312 384.714844 C 104.632812 383.492188 104.007812 382.007812 103.828125 380.378906 "/>
<path style=" stroke:none;fill-rule:nonzero;fill:rgb(82.699585%,82.699585%,82.699585%);fill-opacity:1;" d="M 91.394531 368.59375 L 91.738281 373.140625 L 97.867188 372.675781 L 97.519531 368.128906 Z M 91.394531 368.59375 "/>
<path style=" stroke:none;fill-rule:nonzero;fill:rgb(63.899231%,63.899231%,63.899231%);fill-opacity:1;" d="M 92.207031 379.285156 L 92.457031 382.601562 L 98.585938 382.136719 L 98.332031 378.820312 Z M 92.207031 379.285156 "/>
<path style=" stroke:none;fill-rule:nonzero;fill:rgb(72.499084%,71.398926%,72.198486%);fill-opacity:1;" d="M 91.738281 373.140625 L 92.207031 379.289062 L 98.335938 378.820312 L 97.867188 372.675781 Z M 91.738281 373.140625 "/>
<path style="fill:none;stroke-width:8;stroke-linecap:round;stroke-linejoin:round;stroke:rgb(0%,0%,0%);stroke-opacity:1;stroke-miterlimit:10;" d="M -0.001425 -0.00096875 L 6.2017 9.299813 L 10.830606 -5.450187 " transform="matrix(1,0,0,-1,114.7358,366.4795)"/>
<path style=" stroke:none;fill-rule:nonzero;fill:rgb(87.799072%,87.5%,87.098694%);fill-opacity:1;" d="M 142.496094 346.03125 C 142.496094 346.03125 170.824219 362.175781 221.1875 360.53125 L 221.1875 371.40625 C 221.1875 371.40625 158.8125 371.40625 142.496094 355.257812 Z M 142.496094 346.03125 "/>
<path style=" stroke:none;fill-rule:nonzero;fill:rgb(87.799072%,87.5%,87.098694%);fill-opacity:1;" d="M 299.867188 350.59375 C 299.867188 350.59375 277.3125 362.179688 226.945312 360.53125 L 226.945312 371.40625 C 226.945312 371.40625 282.066406 371.886719 299.878906 359.410156 Z M 299.867188 350.59375 "/>
<path style=" stroke:none;fill-rule:nonzero;fill:rgb(87.799072%,87.5%,87.098694%);fill-opacity:1;" d="M 142.496094 361.085938 C 142.496094 361.085938 170.824219 377.230469 221.1875 375.585938 L 216.8125 386.460938 C 216.8125 386.460938 158.8125 386.460938 142.496094 370.3125 Z M 142.496094 361.085938 "/>
<path style=" stroke:none;fill-rule:nonzero;fill:rgb(87.799072%,87.5%,87.098694%);fill-opacity:1;" d="M 299.867188 365.644531 C 299.867188 365.644531 277.3125 377.230469 226.945312 375.582031 L 226.925781 386.460938 C 226.925781 386.460938 282.066406 386.9375 299.878906 374.460938 Z M 299.867188 365.644531 "/>
<path style=" stroke:none;fill-rule:nonzero;fill:rgb(81.999207%,13.299561%,13.299561%);fill-opacity:1;" d="M 214.96875 402.570312 L 230.132812 402.570312 L 230.132812 306.738281 L 214.96875 306.738281 Z M 214.96875 402.570312 "/>
<path style=" stroke:none;fill-rule:nonzero;fill:rgb(81.999207%,13.299561%,13.299561%);fill-opacity:1;" d="M 238.449219 306.171875 C 232.808594 312.664062 223.707031 317.566406 223.707031 317.566406 L 258.941406 347.054688 L 260.804688 302.765625 "/>
<path style=" stroke:none;fill-rule:nonzero;fill:rgb(81.999207%,13.299561%,13.299561%);fill-opacity:1;" d="M 208.609375 306.484375 C 214.253906 312.980469 223.707031 317.847656 223.707031 317.847656 L 187.644531 347.363281 L 186.503906 304.050781 "/>
<path style=" stroke:none;fill-rule:evenodd;fill:rgb(43.899536%,11.399841%,11.399841%);fill-opacity:1;" d="M 221.457031 254.628906 L 221.429688 254.628906 C 200.054688 254.628906 195.605469 252.648438 186.601562 250.34375 C 181.011719 248.90625 179.410156 249.882812 179.898438 254.195312 C 180.335938 257.910156 182.34375 263.90625 187.359375 271.066406 C 193.164062 279.367188 202.710938 286.964844 221.457031 286.964844 C 240.199219 286.964844 249.71875 279.367188 255.550781 271.066406 C 260.542969 263.90625 262.550781 257.910156 262.984375 254.195312 C 263.5 249.882812 261.871094 248.90625 256.285156 250.34375 C 247.304688 252.648438 242.832031 254.628906 221.457031 254.628906 "/>
<path style=" stroke:none;fill-rule:evenodd;fill:rgb(99.598694%,99.598694%,99.198914%);fill-opacity:1;" d="M 221.457031 257.804688 L 221.429688 257.804688 C 202.195312 257.804688 198.183594 256.121094 190.070312 254.113281 C 185.027344 252.867188 183.589844 253.734375 184.050781 257.449219 C 184.269531 259.242188 184.917969 261.058594 186.273438 263.390625 C 186.601562 263.472656 186.898438 263.554688 187.25 263.632812 C 196.066406 265.859375 200.460938 267.757812 221.429688 267.757812 L 221.457031 267.757812 C 242.421875 267.757812 246.816406 265.859375 255.632812 263.632812 C 255.984375 263.554688 256.3125 263.472656 256.609375 263.390625 C 257.964844 261.058594 258.644531 259.242188 258.859375 257.449219 C 259.320312 253.734375 257.855469 252.867188 252.8125 254.113281 C 244.730469 256.121094 240.6875 257.804688 221.457031 257.804688 "/>
<path style=" stroke:none;fill-rule:nonzero;fill:rgb(96.899414%,0%,0%);fill-opacity:1;" d="M 220.699219 288.035156 C 228.519531 288.035156 236.695312 286.230469 242.351562 282.640625 C 241.195312 281.472656 238.882812 280.027344 237.414062 279.042969 C 230.675781 274.515625 222.960938 273.757812 218.433594 276.738281 C 211.988281 274.492188 205.699219 275.449219 202.882812 279.636719 C 202.164062 280.710938 201.734375 281.914062 201.554688 283.195312 C 206.957031 286.238281 213.5625 288.035156 220.699219 288.035156 "/>
<path style=" stroke:none;fill-rule:evenodd;fill:rgb(100%,100%,100%);fill-opacity:1;" d="M 178.515625 211.199219 C 178.515625 220.472656 186.03125 227.988281 195.300781 227.988281 C 204.574219 227.988281 212.089844 220.472656 212.089844 211.199219 C 212.089844 201.929688 204.574219 194.414062 195.300781 194.414062 C 186.03125 194.414062 178.515625 201.929688 178.515625 211.199219 "/>
<path style=" stroke:none;fill-rule:evenodd;fill:rgb(100%,100%,100%);fill-opacity:1;" d="M 233.011719 211.789062 C 233.011719 221.0625 240.527344 228.578125 249.800781 228.578125 C 259.070312 228.578125 266.585938 221.0625 266.585938 211.789062 C 266.585938 202.519531 259.070312 195.003906 249.800781 195.003906 C 240.527344 195.003906 233.011719 202.519531 233.011719 211.789062 "/>
<path style=" stroke:none;fill-rule:evenodd;fill:rgb(43.899536%,11.399841%,11.399841%);fill-opacity:1;" d="M 252.597656 213.585938 C 252.597656 216.671875 250.09375 219.175781 247.007812 219.175781 C 243.917969 219.175781 241.414062 216.671875 241.414062 213.585938 C 241.414062 210.496094 243.917969 207.992188 247.007812 207.992188 C 250.09375 207.992188 252.597656 210.496094 252.597656 213.585938 "/>
<path style=" stroke:none;fill-rule:evenodd;fill:rgb(43.899536%,11.399841%,11.399841%);fill-opacity:1;" d="M 202.273438 213.683594 C 202.273438 216.773438 199.773438 219.277344 196.683594 219.277344 C 193.59375 219.277344 191.09375 216.773438 191.09375 213.683594 C 191.09375 210.597656 193.59375 208.09375 196.683594 208.09375 C 199.773438 208.09375 202.273438 210.597656 202.273438 213.683594 "/>
<path style=" stroke:none;fill-rule:nonzero;fill:rgb(70.999146%,47.099304%,8.999634%);fill-opacity:1;" d="M 172.015625 196.613281 C 171.621094 196.613281 171.222656 196.546875 170.832031 196.40625 C 169.027344 195.75 168.101562 193.757812 168.753906 191.957031 C 171.738281 183.753906 181.578125 175.542969 194.671875 175.542969 C 194.816406 175.542969 194.957031 175.546875 195.101562 175.546875 C 197.019531 175.570312 198.550781 177.144531 198.523438 179.0625 C 198.5 180.980469 196.941406 182.558594 195.007812 182.488281 C 194.894531 182.484375 194.777344 182.484375 194.664062 182.484375 C 183.6875 182.484375 176.957031 189.71875 175.277344 194.328125 C 174.765625 195.738281 173.433594 196.613281 172.015625 196.613281 "/>
<path style=" stroke:none;fill-rule:nonzero;fill:rgb(70.999146%,47.099304%,8.999634%);fill-opacity:1;" d="M 270.359375 196.613281 C 268.945312 196.613281 267.613281 195.738281 267.097656 194.332031 C 265.402344 189.671875 258.554688 182.332031 247.371094 182.488281 C 245.46875 182.558594 243.878906 180.980469 243.851562 179.0625 C 243.824219 177.144531 245.359375 175.570312 247.277344 175.546875 C 247.417969 175.546875 247.5625 175.542969 247.703125 175.542969 C 260.800781 175.542969 270.636719 183.753906 273.621094 191.957031 C 274.277344 193.757812 273.347656 195.75 271.546875 196.40625 C 271.15625 196.546875 270.753906 196.613281 270.359375 196.613281 "/>
</g>
</svg>
