<?xml version="1.0" encoding="utf-8"?>
<!-- Generator: Adobe Illustrator 26.0.3, SVG Export Plug-In . SVG Version: 6.00 Build 0)  -->
<svg version="1.1" id="Layer_1" xmlns="http://www.w3.org/2000/svg" xmlns:xlink="http://www.w3.org/1999/xlink" x="0px" y="0px"
	 viewBox="0 0 432 576" style="enable-background:new 0 0 432 576;" xml:space="preserve">
<style type="text/css">
	.st0{opacity:5.000000e-02;}
	.st1{fill:#040D21;}
	.st2{fill:#2396EC;}
	.st3{fill:#2D313F;}
	.st4{fill:#FEAF06;}
	.st5{fill:#FBD82B;}
	.st6{fill:#FFE278;}
	.st7{fill:#F70000;}
	.st8{fill:#B57817;}
	.st9{fill:#701D1D;}
	.st10{fill:#FFFFFF;}
	.st11{fill:none;stroke:#000000;stroke-width:8;stroke-linecap:round;stroke-linejoin:round;stroke-miterlimit:10;}
	.st12{opacity:0.2;fill:url(#SVGID_1_);enable-background:new    ;}
	.st13{opacity:0.2;fill:url(#SVGID_00000010271507710648161180000006016803436061363088_);enable-background:new    ;}
	.st14{fill:#0062B2;}
	.st15{opacity:0.6;fill:#FFFFFF;enable-background:new    ;}
	.st16{opacity:0.7;fill:#FFFFFF;enable-background:new    ;}
	.st17{fill:#F2F2F2;}
	.st18{fill:#C9C9C9;}
	.st19{fill:#677077;}
	.st20{fill:#B8B8B8;}
	.st21{fill:#858D92;}
	.st22{fill:#CCCCCC;}
	.st23{fill:#EDEDED;}
	.st24{fill:#D9D9D9;}
	.st25{fill:#BEBEBE;}
	.st26{fill:#B4B4B4;}
	.st27{fill:url(#SVGID_00000059994899377130981550000006445473881174935470_);}
	.st28{fill-rule:evenodd;clip-rule:evenodd;fill:#2396EC;}
</style>
<g>
	<g class="st0">
		<g>
			<g id="XMLID_00000152977977640335263360000008492313062377112460_">
				<g id="XMLID_00000161626469091517053210000012707717623700746412_">
					<path id="XMLID_00000101782222859240347180000002906001300259667881_" class="st1" d="M223.3,222.3v15.8h2.9
						c0.7,0,1.2,0.1,1.5,0.4c0.3,0.3,0.4,0.6,0.4,1s-0.1,0.8-0.4,1c-0.3,0.3-0.8,0.4-1.5,0.4h-8.7c-0.7,0-1.2-0.1-1.5-0.4
						c-0.3-0.3-0.4-0.6-0.4-1s0.1-0.8,0.4-1c0.3-0.3,0.8-0.4,1.5-0.4h2.9v-12l-2.6,0.7c-0.4,0.1-0.7,0.2-0.9,0.2
						c-0.4,0-0.7-0.1-0.9-0.4c-0.3-0.3-0.4-0.6-0.4-1.1c0-0.4,0.1-0.7,0.3-0.9c0.2-0.2,0.6-0.4,1.2-0.6L223.3,222.3z"/>
					<path id="XMLID_00000075123796091804848420000008965008322027227814_" class="st1" d="M245.4,230.2v3.2c0,1.9-0.5,3.7-1.6,5.4
						s-2.6,2.6-4.6,2.6c-1.2,0-2.1-0.3-2.9-0.8c-0.8-0.5-1.6-1.5-2.3-2.8c-0.7-1.4-1.1-2.8-1.1-4.4v-3.2c0-1.9,0.5-3.7,1.6-5.4
						c1.1-1.7,2.6-2.6,4.6-2.6c1.2,0,2.1,0.3,2.9,0.8c0.8,0.5,1.6,1.4,2.3,2.8C245.1,227.2,245.4,228.7,245.4,230.2z M242.5,230.2
						c0-1.6-0.4-2.9-1.3-4.1c-0.5-0.6-1.2-1-2.1-1c-0.9,0-1.6,0.4-2.1,1.1c-0.8,1.1-1.3,2.4-1.3,4v3.2c0,1.6,0.4,2.9,1.3,4.1
						c0.5,0.6,1.2,1,2.1,1c0.9,0,1.6-0.4,2.1-1.1c0.8-1.1,1.3-2.4,1.3-4V230.2z"/>
					<path id="XMLID_00000134240190896585967570000013374328470816249235_" class="st1" d="M257.9,222.3v15.8h2.9
						c0.7,0,1.2,0.1,1.5,0.4c0.3,0.3,0.4,0.6,0.4,1s-0.1,0.8-0.4,1c-0.3,0.3-0.8,0.4-1.5,0.4h-8.7c-0.7,0-1.2-0.1-1.5-0.4
						c-0.3-0.3-0.4-0.6-0.4-1s0.1-0.8,0.4-1c0.3-0.3,0.8-0.4,1.5-0.4h2.9v-12l-2.6,0.7c-0.4,0.1-0.7,0.2-0.9,0.2
						c-0.4,0-0.7-0.1-0.9-0.4c-0.3-0.3-0.4-0.6-0.4-1.1c0-0.4,0.1-0.7,0.3-0.9c0.2-0.2,0.6-0.4,1.2-0.6L257.9,222.3z"/>
					<path id="XMLID_00000038390384937193547260000009430159599773793692_" class="st1" d="M280,230.2v3.2c0,1.9-0.5,3.7-1.6,5.4
						s-2.6,2.6-4.6,2.6c-1.2,0-2.1-0.3-2.9-0.8c-0.8-0.5-1.6-1.5-2.3-2.8c-0.7-1.4-1.1-2.8-1.1-4.4v-3.2c0-1.9,0.5-3.7,1.6-5.4
						c1.1-1.7,2.6-2.6,4.6-2.6c1.2,0,2.1,0.3,2.9,0.8c0.8,0.5,1.6,1.4,2.3,2.8C279.6,227.2,280,228.7,280,230.2z M277.1,230.2
						c0-1.6-0.4-2.9-1.3-4.1c-0.5-0.6-1.2-1-2.1-1s-1.6,0.4-2.1,1.1c-0.8,1.1-1.3,2.4-1.3,4v3.2c0,1.6,0.4,2.9,1.3,4.1
						c0.5,0.6,1.2,1,2.1,1c0.9,0,1.6-0.4,2.1-1.1c0.8-1.1,1.3-2.4,1.3-4V230.2z"/>
				</g>
				<g id="XMLID_00000178893223113497072930000015105310275181184696_">
					<path id="XMLID_00000115509794090205730630000007285402032966647472_" class="st1" d="M228.2,280.6v3.2c0,1.9-0.5,3.7-1.6,5.4
						c-1.1,1.7-2.6,2.6-4.6,2.6c-1.2,0-2.1-0.3-2.9-0.8c-0.8-0.5-1.6-1.5-2.3-2.8c-0.7-1.4-1.1-2.8-1.1-4.4v-3.2
						c0-1.9,0.5-3.7,1.6-5.4c1.1-1.7,2.6-2.6,4.6-2.6c1.2,0,2.1,0.3,2.9,0.8c0.8,0.5,1.6,1.4,2.3,2.8S228.2,279.1,228.2,280.6z
						 M225.3,280.6c0-1.6-0.4-2.9-1.3-4.1c-0.5-0.6-1.2-1-2.1-1c-0.9,0-1.6,0.4-2.1,1.1c-0.8,1.1-1.3,2.4-1.3,4v3.2
						c0,1.6,0.4,2.9,1.3,4.1c0.5,0.6,1.2,1,2.1,1c0.9,0,1.6-0.4,2.1-1.1c0.8-1.1,1.3-2.4,1.3-4V280.6z"/>
					<path id="XMLID_00000174599956990453268790000007184450457404497282_" class="st1" d="M240.6,272.7v15.8h2.9
						c0.7,0,1.2,0.1,1.5,0.4c0.3,0.3,0.4,0.6,0.4,1s-0.1,0.8-0.4,1c-0.3,0.3-0.8,0.4-1.5,0.4h-8.7c-0.7,0-1.2-0.1-1.5-0.4
						s-0.4-0.6-0.4-1s0.1-0.8,0.4-1c0.3-0.3,0.8-0.4,1.5-0.4h2.9v-12l-2.6,0.7c-0.4,0.1-0.7,0.2-0.9,0.2c-0.4,0-0.7-0.1-0.9-0.4
						c-0.3-0.3-0.4-0.6-0.4-1.1c0-0.4,0.1-0.7,0.3-0.9c0.2-0.2,0.6-0.4,1.2-0.6L240.6,272.7z"/>
					<path id="XMLID_00000036937263855443986550000004871027228983763356_" class="st1" d="M257.9,272.7v15.8h2.9
						c0.7,0,1.2,0.1,1.5,0.4c0.3,0.3,0.4,0.6,0.4,1s-0.1,0.8-0.4,1c-0.3,0.3-0.8,0.4-1.5,0.4h-8.7c-0.7,0-1.2-0.1-1.5-0.4
						s-0.4-0.6-0.4-1s0.1-0.8,0.4-1c0.3-0.3,0.8-0.4,1.5-0.4h2.9v-12l-2.6,0.7c-0.4,0.1-0.7,0.2-0.9,0.2c-0.4,0-0.7-0.1-0.9-0.4
						c-0.3-0.3-0.4-0.6-0.4-1.1c0-0.4,0.1-0.7,0.3-0.9c0.2-0.2,0.6-0.4,1.2-0.6L257.9,272.7z"/>
					<path id="XMLID_00000170265332669420550030000010563726009774716553_" class="st1" d="M280,280.6v3.2c0,1.9-0.5,3.7-1.6,5.4
						c-1.1,1.7-2.6,2.6-4.6,2.6c-1.2,0-2.1-0.3-2.9-0.8c-0.8-0.5-1.6-1.5-2.3-2.8c-0.7-1.4-1.1-2.8-1.1-4.4v-3.2
						c0-1.9,0.5-3.7,1.6-5.4c1.1-1.7,2.6-2.6,4.6-2.6c1.2,0,2.1,0.3,2.9,0.8c0.8,0.5,1.6,1.4,2.3,2.8
						C279.6,277.6,280,279.1,280,280.6z M277.1,280.6c0-1.6-0.4-2.9-1.3-4.1c-0.5-0.6-1.2-1-2.1-1s-1.6,0.4-2.1,1.1
						c-0.8,1.1-1.3,2.4-1.3,4v3.2c0,1.6,0.4,2.9,1.3,4.1c0.5,0.6,1.2,1,2.1,1c0.9,0,1.6-0.4,2.1-1.1c0.8-1.1,1.3-2.4,1.3-4V280.6z"
						/>
				</g>
				<g id="XMLID_00000043429167948354901840000014217504689112913831_">
					<path id="XMLID_00000170992766724990183630000005166700756867342267_" class="st1" d="M228.2,255.6v3.2c0,1.9-0.5,3.7-1.6,5.4
						c-1.1,1.7-2.6,2.6-4.6,2.6c-1.2,0-2.1-0.3-2.9-0.8c-0.8-0.5-1.6-1.5-2.3-2.8c-0.7-1.4-1.1-2.8-1.1-4.4v-3.2
						c0-1.9,0.5-3.7,1.6-5.4s2.6-2.6,4.6-2.6c1.2,0,2.1,0.3,2.9,0.8c0.8,0.5,1.6,1.4,2.3,2.8C227.8,252.6,228.2,254,228.2,255.6z
						 M225.3,255.6c0-1.6-0.4-2.9-1.3-4.1c-0.5-0.6-1.2-1-2.1-1c-0.9,0-1.6,0.4-2.1,1.1c-0.8,1.1-1.3,2.4-1.3,4v3.2
						c0,1.6,0.4,2.9,1.3,4.1c0.5,0.6,1.2,1,2.1,1c0.9,0,1.6-0.4,2.1-1.1c0.8-1.1,1.3-2.4,1.3-4V255.6z"/>
					<path id="XMLID_00000096741857617262998440000001103454959733104771_" class="st1" d="M240.6,247.6v15.8h2.9
						c0.7,0,1.2,0.1,1.5,0.4s0.4,0.6,0.4,1s-0.1,0.8-0.4,1c-0.3,0.3-0.8,0.4-1.5,0.4h-8.7c-0.7,0-1.2-0.1-1.5-0.4
						c-0.3-0.3-0.4-0.6-0.4-1s0.1-0.8,0.4-1c0.3-0.3,0.8-0.4,1.5-0.4h2.9v-12l-2.6,0.7c-0.4,0.1-0.7,0.2-0.9,0.2
						c-0.4,0-0.7-0.1-0.9-0.4c-0.3-0.3-0.4-0.6-0.4-1.1c0-0.4,0.1-0.7,0.3-0.9s0.6-0.4,1.2-0.6L240.6,247.6z"/>
					<path id="XMLID_00000106835913751281507530000002587258908943645338_" class="st1" d="M262.7,255.6v3.2c0,1.9-0.5,3.7-1.6,5.4
						c-1.1,1.7-2.6,2.6-4.6,2.6c-1.2,0-2.1-0.3-2.9-0.8c-0.8-0.5-1.6-1.5-2.3-2.8c-0.7-1.4-1.1-2.8-1.1-4.4v-3.2
						c0-1.9,0.5-3.7,1.6-5.4s2.6-2.6,4.6-2.6c1.2,0,2.1,0.3,2.9,0.8c0.8,0.5,1.6,1.4,2.3,2.8C262.3,252.6,262.7,254,262.7,255.6z
						 M259.8,255.6c0-1.6-0.4-2.9-1.3-4.1c-0.5-0.6-1.2-1-2.1-1s-1.6,0.4-2.1,1.1c-0.8,1.1-1.3,2.4-1.3,4v3.2c0,1.6,0.4,2.9,1.3,4.1
						c0.5,0.6,1.2,1,2.1,1c0.9,0,1.6-0.4,2.1-1.1c0.8-1.1,1.3-2.4,1.3-4V255.6z"/>
					<path id="XMLID_00000176722206763258834670000003350636423858195586_" class="st1" d="M280,255.6v3.2c0,1.9-0.5,3.7-1.6,5.4
						c-1.1,1.7-2.6,2.6-4.6,2.6c-1.2,0-2.1-0.3-2.9-0.8c-0.8-0.5-1.6-1.5-2.3-2.8c-0.7-1.4-1.1-2.8-1.1-4.4v-3.2
						c0-1.9,0.5-3.7,1.6-5.4c1.1-1.7,2.6-2.6,4.6-2.6c1.2,0,2.1,0.3,2.9,0.8c0.8,0.5,1.6,1.4,2.3,2.8C279.6,252.6,280,254,280,255.6
						z M277.1,255.6c0-1.6-0.4-2.9-1.3-4.1c-0.5-0.6-1.2-1-2.1-1s-1.6,0.4-2.1,1.1c-0.8,1.1-1.3,2.4-1.3,4v3.2
						c0,1.6,0.4,2.9,1.3,4.1c0.5,0.6,1.2,1,2.1,1c0.9,0,1.6-0.4,2.1-1.1c0.8-1.1,1.3-2.4,1.3-4V255.6z"/>
				</g>
			</g>
			<g id="XMLID_00000065789996856016020260000004573690470928017830_">
				<g id="XMLID_00000127005364169936184250000010662097046024457392_">
					<path id="XMLID_00000005967626846936060700000011398592923192357049_" class="st1" d="M293.7,222.3v15.8h2.9
						c0.7,0,1.2,0.1,1.5,0.4c0.3,0.3,0.4,0.6,0.4,1s-0.1,0.8-0.4,1c-0.3,0.3-0.8,0.4-1.5,0.4h-8.7c-0.7,0-1.2-0.1-1.5-0.4
						c-0.3-0.3-0.4-0.6-0.4-1s0.1-0.8,0.4-1c0.3-0.3,0.8-0.4,1.5-0.4h2.9v-12l-2.6,0.7c-0.4,0.1-0.7,0.2-0.9,0.2
						c-0.4,0-0.7-0.1-0.9-0.4c-0.3-0.3-0.4-0.6-0.4-1.1c0-0.4,0.1-0.7,0.3-0.9c0.2-0.2,0.6-0.4,1.2-0.6L293.7,222.3z"/>
					<path id="XMLID_00000139975177722714323270000005320362332582970270_" class="st1" d="M315.8,230.2v3.2c0,1.9-0.5,3.7-1.6,5.4
						s-2.6,2.6-4.6,2.6c-1.2,0-2.1-0.3-2.9-0.8s-1.6-1.5-2.3-2.8c-0.7-1.4-1.1-2.8-1.1-4.4v-3.2c0-1.9,0.5-3.7,1.6-5.4
						c1.1-1.7,2.6-2.6,4.6-2.6c1.2,0,2.1,0.3,2.9,0.8s1.6,1.4,2.3,2.8C315.5,227.2,315.8,228.7,315.8,230.2z M312.9,230.2
						c0-1.6-0.4-2.9-1.3-4.1c-0.5-0.6-1.2-1-2.1-1s-1.6,0.4-2.1,1.1c-0.8,1.1-1.3,2.4-1.3,4v3.2c0,1.6,0.4,2.9,1.3,4.1
						c0.5,0.6,1.2,1,2.1,1s1.6-0.4,2.1-1.1c0.8-1.1,1.3-2.4,1.3-4V230.2z"/>
					<path id="XMLID_00000058551384835547375100000011626545349372412801_" class="st1" d="M328.3,222.3v15.8h2.9
						c0.7,0,1.2,0.1,1.5,0.4c0.3,0.3,0.4,0.6,0.4,1s-0.1,0.8-0.4,1c-0.3,0.3-0.8,0.4-1.5,0.4h-8.7c-0.7,0-1.2-0.1-1.5-0.4
						c-0.3-0.3-0.4-0.6-0.4-1s0.1-0.8,0.4-1c0.3-0.3,0.8-0.4,1.5-0.4h2.9v-12l-2.6,0.7c-0.4,0.1-0.7,0.2-0.9,0.2
						c-0.4,0-0.7-0.1-0.9-0.4c-0.3-0.3-0.4-0.6-0.4-1.1c0-0.4,0.1-0.7,0.3-0.9c0.2-0.2,0.6-0.4,1.2-0.6L328.3,222.3z"/>
					<path id="XMLID_00000145031919142300687760000017444487984489757109_" class="st1" d="M350.4,230.2v3.2c0,1.9-0.5,3.7-1.6,5.4
						s-2.6,2.6-4.6,2.6c-1.2,0-2.1-0.3-2.9-0.8s-1.6-1.5-2.3-2.8c-0.7-1.4-1.1-2.8-1.1-4.4v-3.2c0-1.9,0.5-3.7,1.6-5.4
						c1.1-1.7,2.6-2.6,4.6-2.6c1.2,0,2.1,0.3,2.9,0.8s1.6,1.4,2.3,2.8C350,227.2,350.4,228.7,350.4,230.2z M347.5,230.2
						c0-1.6-0.4-2.9-1.3-4.1c-0.5-0.6-1.2-1-2.1-1s-1.6,0.4-2.1,1.1c-0.8,1.1-1.3,2.4-1.3,4v3.2c0,1.6,0.4,2.9,1.3,4.1
						c0.5,0.6,1.2,1,2.1,1s1.6-0.4,2.1-1.1c0.8-1.1,1.3-2.4,1.3-4V230.2z"/>
				</g>
				<g id="XMLID_00000025416783630629093430000002852880425994552246_">
					<path id="XMLID_00000014614642407803477360000017467629673297695883_" class="st1" d="M298.6,280.6v3.2c0,1.9-0.5,3.7-1.6,5.4
						c-1.1,1.7-2.6,2.6-4.6,2.6c-1.2,0-2.1-0.3-2.9-0.8s-1.6-1.5-2.3-2.8c-0.7-1.4-1.1-2.8-1.1-4.4v-3.2c0-1.9,0.5-3.7,1.6-5.4
						c1.1-1.7,2.6-2.6,4.6-2.6c1.2,0,2.1,0.3,2.9,0.8s1.6,1.4,2.3,2.8C298.2,277.6,298.6,279.1,298.6,280.6z M295.7,280.6
						c0-1.6-0.4-2.9-1.3-4.1c-0.5-0.6-1.2-1-2.1-1s-1.6,0.4-2.1,1.1c-0.8,1.1-1.3,2.4-1.3,4v3.2c0,1.6,0.4,2.9,1.3,4.1
						c0.5,0.6,1.2,1,2.1,1s1.6-0.4,2.1-1.1c0.8-1.1,1.3-2.4,1.3-4V280.6z"/>
					<path id="XMLID_00000133508813320324593610000008200255669988222085_" class="st1" d="M311,272.7v15.8h2.9
						c0.7,0,1.2,0.1,1.5,0.4c0.3,0.3,0.4,0.6,0.4,1s-0.1,0.8-0.4,1c-0.3,0.3-0.8,0.4-1.5,0.4h-8.7c-0.7,0-1.2-0.1-1.5-0.4
						s-0.4-0.6-0.4-1s0.1-0.8,0.4-1c0.3-0.3,0.8-0.4,1.5-0.4h2.9v-12l-2.6,0.7c-0.4,0.1-0.7,0.2-0.9,0.2c-0.4,0-0.7-0.1-0.9-0.4
						c-0.3-0.3-0.4-0.6-0.4-1.1c0-0.4,0.1-0.7,0.3-0.9c0.2-0.2,0.6-0.4,1.2-0.6L311,272.7z"/>
					<path id="XMLID_00000030451569769550839050000010043507235775110279_" class="st1" d="M328.3,272.7v15.8h2.9
						c0.7,0,1.2,0.1,1.5,0.4c0.3,0.3,0.4,0.6,0.4,1s-0.1,0.8-0.4,1c-0.3,0.3-0.8,0.4-1.5,0.4h-8.7c-0.7,0-1.2-0.1-1.5-0.4
						s-0.4-0.6-0.4-1s0.1-0.8,0.4-1c0.3-0.3,0.8-0.4,1.5-0.4h2.9v-12l-2.6,0.7c-0.4,0.1-0.7,0.2-0.9,0.2c-0.4,0-0.7-0.1-0.9-0.4
						c-0.3-0.3-0.4-0.6-0.4-1.1c0-0.4,0.1-0.7,0.3-0.9c0.2-0.2,0.6-0.4,1.2-0.6L328.3,272.7z"/>
					<path id="XMLID_00000039120040201056820180000008831854692040028327_" class="st1" d="M350.4,280.6v3.2c0,1.9-0.5,3.7-1.6,5.4
						c-1.1,1.7-2.6,2.6-4.6,2.6c-1.2,0-2.1-0.3-2.9-0.8s-1.6-1.5-2.3-2.8c-0.7-1.4-1.1-2.8-1.1-4.4v-3.2c0-1.9,0.5-3.7,1.6-5.4
						c1.1-1.7,2.6-2.6,4.6-2.6c1.2,0,2.1,0.3,2.9,0.8s1.6,1.4,2.3,2.8C350,277.6,350.4,279.1,350.4,280.6z M347.5,280.6
						c0-1.6-0.4-2.9-1.3-4.1c-0.5-0.6-1.2-1-2.1-1s-1.6,0.4-2.1,1.1c-0.8,1.1-1.3,2.4-1.3,4v3.2c0,1.6,0.4,2.9,1.3,4.1
						c0.5,0.6,1.2,1,2.1,1s1.6-0.4,2.1-1.1c0.8-1.1,1.3-2.4,1.3-4V280.6z"/>
				</g>
				<g id="XMLID_00000047060038492123468010000010906434046102504857_">
					<path id="XMLID_00000034795420499746967090000007254880651264425897_" class="st1" d="M298.6,255.6v3.2c0,1.9-0.5,3.7-1.6,5.4
						c-1.1,1.7-2.6,2.6-4.6,2.6c-1.2,0-2.1-0.3-2.9-0.8s-1.6-1.5-2.3-2.8c-0.7-1.4-1.1-2.8-1.1-4.4v-3.2c0-1.9,0.5-3.7,1.6-5.4
						s2.6-2.6,4.6-2.6c1.2,0,2.1,0.3,2.9,0.8s1.6,1.4,2.3,2.8C298.2,252.6,298.6,254,298.6,255.6z M295.7,255.6
						c0-1.6-0.4-2.9-1.3-4.1c-0.5-0.6-1.2-1-2.1-1s-1.6,0.4-2.1,1.1c-0.8,1.1-1.3,2.4-1.3,4v3.2c0,1.6,0.4,2.9,1.3,4.1
						c0.5,0.6,1.2,1,2.1,1s1.6-0.4,2.1-1.1c0.8-1.1,1.3-2.4,1.3-4V255.6z"/>
					<path id="XMLID_00000087395159617361641860000009268556492300960175_" class="st1" d="M311,247.6v15.8h2.9
						c0.7,0,1.2,0.1,1.5,0.4s0.4,0.6,0.4,1s-0.1,0.8-0.4,1c-0.3,0.3-0.8,0.4-1.5,0.4h-8.7c-0.7,0-1.2-0.1-1.5-0.4
						c-0.3-0.3-0.4-0.6-0.4-1s0.1-0.8,0.4-1c0.3-0.3,0.8-0.4,1.5-0.4h2.9v-12l-2.6,0.7c-0.4,0.1-0.7,0.2-0.9,0.2
						c-0.4,0-0.7-0.1-0.9-0.4c-0.3-0.3-0.4-0.6-0.4-1.1c0-0.4,0.1-0.7,0.3-0.9c0.2-0.2,0.6-0.4,1.2-0.6L311,247.6z"/>
					<path id="XMLID_00000114769619493851484710000013141383024744226482_" class="st1" d="M333.1,255.6v3.2c0,1.9-0.5,3.7-1.6,5.4
						c-1.1,1.7-2.6,2.6-4.6,2.6c-1.2,0-2.1-0.3-2.9-0.8s-1.6-1.5-2.3-2.8c-0.7-1.4-1.1-2.8-1.1-4.4v-3.2c0-1.9,0.5-3.7,1.6-5.4
						s2.6-2.6,4.6-2.6c1.2,0,2.1,0.3,2.9,0.8s1.6,1.4,2.3,2.8C332.7,252.6,333.1,254,333.1,255.6z M330.2,255.6
						c0-1.6-0.4-2.9-1.3-4.1c-0.5-0.6-1.2-1-2.1-1s-1.6,0.4-2.1,1.1c-0.8,1.1-1.3,2.4-1.3,4v3.2c0,1.6,0.4,2.9,1.3,4.1
						c0.5,0.6,1.2,1,2.1,1s1.6-0.4,2.1-1.1c0.8-1.1,1.3-2.4,1.3-4V255.6z"/>
					<path id="XMLID_00000094579759091140775150000008705396828758102931_" class="st1" d="M350.4,255.6v3.2c0,1.9-0.5,3.7-1.6,5.4
						c-1.1,1.7-2.6,2.6-4.6,2.6c-1.2,0-2.1-0.3-2.9-0.8s-1.6-1.5-2.3-2.8c-0.7-1.4-1.1-2.8-1.1-4.4v-3.2c0-1.9,0.5-3.7,1.6-5.4
						s2.6-2.6,4.6-2.6c1.2,0,2.1,0.3,2.9,0.8s1.6,1.4,2.3,2.8C350,252.6,350.4,254,350.4,255.6z M347.5,255.6c0-1.6-0.4-2.9-1.3-4.1
						c-0.5-0.6-1.2-1-2.1-1s-1.6,0.4-2.1,1.1c-0.8,1.1-1.3,2.4-1.3,4v3.2c0,1.6,0.4,2.9,1.3,4.1c0.5,0.6,1.2,1,2.1,1
						s1.6-0.4,2.1-1.1c0.8-1.1,1.3-2.4,1.3-4V255.6z"/>
				</g>
			</g>
			<g id="XMLID_00000034781863844430014140000010149317213253467323_">
				<g id="XMLID_00000041988749397349542960000004983802778430417058_">
					<path id="XMLID_00000178175470761567794470000012027977393765723307_" class="st1" d="M223.3,146.1v15.7h2.9
						c0.7,0,1.2,0.1,1.5,0.4s0.4,0.6,0.4,1c0,0.4-0.1,0.8-0.4,1c-0.3,0.3-0.8,0.4-1.5,0.4h-8.7c-0.7,0-1.2-0.1-1.5-0.4
						c-0.3-0.3-0.4-0.6-0.4-1c0-0.4,0.1-0.8,0.4-1c0.3-0.3,0.8-0.4,1.5-0.4h2.9v-12l-2.6,0.7c-0.4,0.1-0.7,0.2-0.9,0.2
						c-0.4,0-0.7-0.1-0.9-0.4c-0.3-0.3-0.4-0.6-0.4-1.1c0-0.4,0.1-0.7,0.3-0.9s0.6-0.4,1.2-0.6L223.3,146.1z"/>
					<path id="XMLID_00000040559415930286873640000012603961885728192657_" class="st1" d="M245.4,154v3.2c0,1.9-0.5,3.7-1.6,5.4
						s-2.6,2.6-4.6,2.6c-1.2,0-2.1-0.3-2.9-0.8c-0.8-0.5-1.6-1.5-2.3-2.8c-0.7-1.4-1.1-2.8-1.1-4.4V154c0-1.9,0.5-3.7,1.6-5.4
						c1.1-1.7,2.6-2.6,4.6-2.6c1.2,0,2.1,0.3,2.9,0.8c0.8,0.5,1.6,1.4,2.3,2.8C245.1,151,245.4,152.5,245.4,154z M242.5,154
						c0-1.6-0.4-2.9-1.3-4.1c-0.5-0.6-1.2-1-2.1-1c-0.9,0-1.6,0.4-2.1,1.1c-0.8,1.1-1.3,2.4-1.3,4v3.2c0,1.6,0.4,2.9,1.3,4.1
						c0.5,0.6,1.2,1,2.1,1c0.9,0,1.6-0.4,2.1-1.1c0.8-1.1,1.3-2.4,1.3-4V154z"/>
					<path id="XMLID_00000103985739338390659300000003939413396025369006_" class="st1" d="M257.9,146.1v15.7h2.9
						c0.7,0,1.2,0.1,1.5,0.4c0.3,0.3,0.4,0.6,0.4,1c0,0.4-0.1,0.8-0.4,1c-0.3,0.3-0.8,0.4-1.5,0.4h-8.7c-0.7,0-1.2-0.1-1.5-0.4
						c-0.3-0.3-0.4-0.6-0.4-1c0-0.4,0.1-0.8,0.4-1c0.3-0.3,0.8-0.4,1.5-0.4h2.9v-12l-2.6,0.7c-0.4,0.1-0.7,0.2-0.9,0.2
						c-0.4,0-0.7-0.1-0.9-0.4c-0.3-0.3-0.4-0.6-0.4-1.1c0-0.4,0.1-0.7,0.3-0.9s0.6-0.4,1.2-0.6L257.9,146.1z"/>
					<path id="XMLID_00000041999747256169867480000014060764919459179920_" class="st1" d="M280,154v3.2c0,1.9-0.5,3.7-1.6,5.4
						s-2.6,2.6-4.6,2.6c-1.2,0-2.1-0.3-2.9-0.8c-0.8-0.5-1.6-1.5-2.3-2.8c-0.7-1.4-1.1-2.8-1.1-4.4V154c0-1.9,0.5-3.7,1.6-5.4
						c1.1-1.7,2.6-2.6,4.6-2.6c1.2,0,2.1,0.3,2.9,0.8c0.8,0.5,1.6,1.4,2.3,2.8C279.6,151,280,152.5,280,154z M277.1,154
						c0-1.6-0.4-2.9-1.3-4.1c-0.5-0.6-1.2-1-2.1-1s-1.6,0.4-2.1,1.1c-0.8,1.1-1.3,2.4-1.3,4v3.2c0,1.6,0.4,2.9,1.3,4.1
						c0.5,0.6,1.2,1,2.1,1c0.9,0,1.6-0.4,2.1-1.1c0.8-1.1,1.3-2.4,1.3-4V154z"/>
				</g>
				<g id="XMLID_00000060745304035038342740000005794465648405065894_">
					<path id="XMLID_00000061447496252563104050000002525938380100127363_" class="st1" d="M228.2,204.4v3.2c0,1.9-0.5,3.7-1.6,5.4
						c-1.1,1.7-2.6,2.6-4.6,2.6c-1.2,0-2.1-0.3-2.9-0.8c-0.8-0.5-1.6-1.5-2.3-2.8c-0.7-1.4-1.1-2.8-1.1-4.4v-3.2
						c0-1.9,0.5-3.7,1.6-5.4c1.1-1.7,2.6-2.6,4.6-2.6c1.2,0,2.1,0.3,2.9,0.8c0.8,0.5,1.6,1.4,2.3,2.8
						C227.8,201.4,228.2,202.9,228.2,204.4z M225.3,204.4c0-1.6-0.4-2.9-1.3-4.1c-0.5-0.6-1.2-1-2.1-1c-0.9,0-1.6,0.4-2.1,1.1
						c-0.8,1.1-1.3,2.4-1.3,4v3.2c0,1.6,0.4,2.9,1.3,4.1c0.5,0.6,1.2,1,2.1,1c0.9,0,1.6-0.4,2.1-1.1c0.8-1.1,1.3-2.4,1.3-4V204.4z"
						/>
					<path id="XMLID_00000005954431639550169750000016582632079136113292_" class="st1" d="M240.6,196.5v15.8h2.9
						c0.7,0,1.2,0.1,1.5,0.4s0.4,0.6,0.4,1c0,0.4-0.1,0.8-0.4,1c-0.3,0.3-0.8,0.4-1.5,0.4h-8.7c-0.7,0-1.2-0.1-1.5-0.4
						s-0.4-0.6-0.4-1c0-0.4,0.1-0.8,0.4-1c0.3-0.3,0.8-0.4,1.5-0.4h2.9v-12l-2.6,0.7c-0.4,0.1-0.7,0.2-0.9,0.2
						c-0.4,0-0.7-0.1-0.9-0.4c-0.3-0.3-0.4-0.6-0.4-1.1c0-0.4,0.1-0.7,0.3-0.9c0.2-0.2,0.6-0.4,1.2-0.6L240.6,196.5z"/>
					<path id="XMLID_00000053539610205729746490000015010750149215363734_" class="st1" d="M257.9,196.5v15.8h2.9
						c0.7,0,1.2,0.1,1.5,0.4c0.3,0.3,0.4,0.6,0.4,1c0,0.4-0.1,0.8-0.4,1c-0.3,0.3-0.8,0.4-1.5,0.4h-8.7c-0.7,0-1.2-0.1-1.5-0.4
						s-0.4-0.6-0.4-1c0-0.4,0.1-0.8,0.4-1c0.3-0.3,0.8-0.4,1.5-0.4h2.9v-12l-2.6,0.7c-0.4,0.1-0.7,0.2-0.9,0.2
						c-0.4,0-0.7-0.1-0.9-0.4c-0.3-0.3-0.4-0.6-0.4-1.1c0-0.4,0.1-0.7,0.3-0.9c0.2-0.2,0.6-0.4,1.2-0.6L257.9,196.5z"/>
					<path id="XMLID_00000020401031010557244930000002603382842920306859_" class="st1" d="M280,204.4v3.2c0,1.9-0.5,3.7-1.6,5.4
						c-1.1,1.7-2.6,2.6-4.6,2.6c-1.2,0-2.1-0.3-2.9-0.8c-0.8-0.5-1.6-1.5-2.3-2.8c-0.7-1.4-1.1-2.8-1.1-4.4v-3.2
						c0-1.9,0.5-3.7,1.6-5.4c1.1-1.7,2.6-2.6,4.6-2.6c1.2,0,2.1,0.3,2.9,0.8c0.8,0.5,1.6,1.4,2.3,2.8
						C279.6,201.4,280,202.9,280,204.4z M277.1,204.4c0-1.6-0.4-2.9-1.3-4.1c-0.5-0.6-1.2-1-2.1-1s-1.6,0.4-2.1,1.1
						c-0.8,1.1-1.3,2.4-1.3,4v3.2c0,1.6,0.4,2.9,1.3,4.1c0.5,0.6,1.2,1,2.1,1c0.9,0,1.6-0.4,2.1-1.1c0.8-1.1,1.3-2.4,1.3-4V204.4z"
						/>
				</g>
				<g id="XMLID_00000099620451839402062560000013304826861623443617_">
					<path id="XMLID_00000101824273666982123250000002538407750813192363_" class="st1" d="M228.2,179.4v3.2c0,1.9-0.5,3.7-1.6,5.4
						c-1.1,1.7-2.6,2.6-4.6,2.6c-1.2,0-2.1-0.3-2.9-0.8c-0.8-0.5-1.6-1.5-2.3-2.8c-0.7-1.4-1.1-2.8-1.1-4.4v-3.2
						c0-1.9,0.5-3.7,1.6-5.4c1.1-1.7,2.6-2.6,4.6-2.6c1.2,0,2.1,0.3,2.9,0.8c0.8,0.5,1.6,1.4,2.3,2.8
						C227.8,176.3,228.2,177.8,228.2,179.4z M225.3,179.4c0-1.6-0.4-2.9-1.3-4.1c-0.5-0.6-1.2-1-2.1-1c-0.9,0-1.6,0.4-2.1,1.1
						c-0.8,1.1-1.3,2.4-1.3,4v3.2c0,1.6,0.4,2.9,1.3,4.1c0.5,0.6,1.2,1,2.1,1c0.9,0,1.6-0.4,2.1-1.1c0.8-1.1,1.3-2.4,1.3-4V179.4z"
						/>
					<path id="XMLID_00000176748595102871464190000015381736570723795647_" class="st1" d="M240.6,171.4v15.8h2.9
						c0.7,0,1.2,0.1,1.5,0.4s0.4,0.6,0.4,1c0,0.4-0.1,0.8-0.4,1c-0.3,0.3-0.8,0.4-1.5,0.4h-8.7c-0.7,0-1.2-0.1-1.5-0.4
						s-0.4-0.6-0.4-1c0-0.4,0.1-0.8,0.4-1c0.3-0.3,0.8-0.4,1.5-0.4h2.9v-12l-2.6,0.7c-0.4,0.1-0.7,0.2-0.9,0.2
						c-0.4,0-0.7-0.1-0.9-0.4c-0.3-0.3-0.4-0.6-0.4-1.1c0-0.4,0.1-0.7,0.3-0.9s0.6-0.4,1.2-0.6L240.6,171.4z"/>
					<path id="XMLID_00000093160338774286734950000011844266158431034019_" class="st1" d="M262.7,179.4v3.2c0,1.9-0.5,3.7-1.6,5.4
						c-1.1,1.7-2.6,2.6-4.6,2.6c-1.2,0-2.1-0.3-2.9-0.8c-0.8-0.5-1.6-1.5-2.3-2.8c-0.7-1.4-1.1-2.8-1.1-4.4v-3.2
						c0-1.9,0.5-3.7,1.6-5.4c1.1-1.7,2.6-2.6,4.6-2.6c1.2,0,2.1,0.3,2.9,0.8c0.8,0.5,1.6,1.4,2.3,2.8
						C262.3,176.3,262.7,177.8,262.7,179.4z M259.8,179.4c0-1.6-0.4-2.9-1.3-4.1c-0.5-0.6-1.2-1-2.1-1s-1.6,0.4-2.1,1.1
						c-0.8,1.1-1.3,2.4-1.3,4v3.2c0,1.6,0.4,2.9,1.3,4.1c0.5,0.6,1.2,1,2.1,1c0.9,0,1.6-0.4,2.1-1.1c0.8-1.1,1.3-2.4,1.3-4V179.4z"
						/>
					<path id="XMLID_00000109714442904931973280000012997710322612694684_" class="st1" d="M280,179.4v3.2c0,1.9-0.5,3.7-1.6,5.4
						c-1.1,1.7-2.6,2.6-4.6,2.6c-1.2,0-2.1-0.3-2.9-0.8c-0.8-0.5-1.6-1.5-2.3-2.8c-0.7-1.4-1.1-2.8-1.1-4.4v-3.2
						c0-1.9,0.5-3.7,1.6-5.4c1.1-1.7,2.6-2.6,4.6-2.6c1.2,0,2.1,0.3,2.9,0.8c0.8,0.5,1.6,1.4,2.3,2.8
						C279.6,176.3,280,177.8,280,179.4z M277.1,179.4c0-1.6-0.4-2.9-1.3-4.1c-0.5-0.6-1.2-1-2.1-1s-1.6,0.4-2.1,1.1
						c-0.8,1.1-1.3,2.4-1.3,4v3.2c0,1.6,0.4,2.9,1.3,4.1c0.5,0.6,1.2,1,2.1,1c0.9,0,1.6-0.4,2.1-1.1c0.8-1.1,1.3-2.4,1.3-4V179.4z"
						/>
				</g>
			</g>
			<g id="XMLID_00000035492146509368934020000010344037711991434906_">
				<g id="XMLID_00000023961481875951586310000005607471268560993181_">
					<path id="XMLID_00000091721150261678868230000001173483608451496343_" class="st1" d="M293.8,146.1v15.7h2.9
						c0.7,0,1.2,0.1,1.5,0.4s0.4,0.6,0.4,1c0,0.4-0.1,0.8-0.4,1c-0.3,0.3-0.8,0.4-1.5,0.4H288c-0.7,0-1.2-0.1-1.5-0.4
						c-0.3-0.3-0.4-0.6-0.4-1c0-0.4,0.1-0.8,0.4-1c0.3-0.3,0.8-0.4,1.5-0.4h2.9v-12l-2.6,0.7c-0.4,0.1-0.7,0.2-0.9,0.2
						c-0.4,0-0.7-0.1-0.9-0.4c-0.3-0.3-0.4-0.6-0.4-1.1c0-0.4,0.1-0.7,0.3-0.9c0.2-0.2,0.6-0.4,1.2-0.6L293.8,146.1z"/>
					<path id="XMLID_00000080909621750288364640000012344948268970116238_" class="st1" d="M315.8,154v3.2c0,1.9-0.5,3.7-1.6,5.4
						s-2.6,2.6-4.6,2.6c-1.2,0-2.1-0.3-2.9-0.8s-1.6-1.5-2.3-2.8c-0.7-1.4-1.1-2.8-1.1-4.4V154c0-1.9,0.5-3.7,1.6-5.4
						c1.1-1.7,2.6-2.6,4.6-2.6c1.2,0,2.1,0.3,2.9,0.8s1.6,1.4,2.3,2.8C315.5,151,315.8,152.5,315.8,154z M313,154
						c0-1.6-0.4-2.9-1.3-4.1c-0.5-0.6-1.2-1-2.1-1s-1.6,0.4-2.1,1.1c-0.8,1.1-1.3,2.4-1.3,4v3.2c0,1.6,0.4,2.9,1.3,4.1
						c0.5,0.6,1.2,1,2.1,1s1.6-0.4,2.1-1.1c0.8-1.1,1.3-2.4,1.3-4V154z"/>
					<path id="XMLID_00000142168253418597660920000000650632844728063659_" class="st1" d="M328.3,146.1v15.7h2.9
						c0.7,0,1.2,0.1,1.5,0.4s0.4,0.6,0.4,1c0,0.4-0.1,0.8-0.4,1c-0.3,0.3-0.8,0.4-1.5,0.4h-8.7c-0.7,0-1.2-0.1-1.5-0.4
						c-0.3-0.3-0.4-0.6-0.4-1c0-0.4,0.1-0.8,0.4-1c0.3-0.3,0.8-0.4,1.5-0.4h2.9v-12l-2.6,0.7c-0.4,0.1-0.7,0.2-0.9,0.2
						c-0.4,0-0.7-0.1-0.9-0.4c-0.3-0.3-0.4-0.6-0.4-1.1c0-0.4,0.1-0.7,0.3-0.9c0.2-0.2,0.6-0.4,1.2-0.6L328.3,146.1z"/>
					<path id="XMLID_00000150080770321749069630000004250623118165527230_" class="st1" d="M350.4,154v3.2c0,1.9-0.5,3.7-1.6,5.4
						s-2.6,2.6-4.6,2.6c-1.2,0-2.1-0.3-2.9-0.8s-1.6-1.5-2.3-2.8c-0.7-1.4-1.1-2.8-1.1-4.4V154c0-1.9,0.5-3.7,1.6-5.4
						c1.1-1.7,2.6-2.6,4.6-2.6c1.2,0,2.1,0.3,2.9,0.8s1.6,1.4,2.3,2.8C350,151,350.4,152.5,350.4,154z M347.5,154
						c0-1.6-0.4-2.9-1.3-4.1c-0.5-0.6-1.2-1-2.1-1s-1.6,0.4-2.1,1.1c-0.8,1.1-1.3,2.4-1.3,4v3.2c0,1.6,0.4,2.9,1.3,4.1
						c0.5,0.6,1.2,1,2.1,1s1.6-0.4,2.1-1.1c0.8-1.1,1.3-2.4,1.3-4V154z"/>
				</g>
				<g id="XMLID_00000052824644424293652090000017801801874351401392_">
					<path id="XMLID_00000001659353802187093120000011282645731748957111_" class="st1" d="M298.6,204.4v3.2c0,1.9-0.5,3.7-1.6,5.4
						c-1.1,1.7-2.6,2.6-4.6,2.6c-1.2,0-2.1-0.3-2.9-0.8s-1.6-1.5-2.3-2.8c-0.7-1.4-1.1-2.8-1.1-4.4v-3.2c0-1.9,0.5-3.7,1.6-5.4
						c1.1-1.7,2.6-2.6,4.6-2.6c1.2,0,2.1,0.3,2.9,0.8s1.6,1.4,2.3,2.8C298.2,201.4,298.6,202.9,298.6,204.4z M295.7,204.4
						c0-1.6-0.4-2.9-1.3-4.1c-0.5-0.6-1.2-1-2.1-1s-1.6,0.4-2.1,1.1c-0.8,1.1-1.3,2.4-1.3,4v3.2c0,1.6,0.4,2.9,1.3,4.1
						c0.5,0.6,1.2,1,2.1,1s1.6-0.4,2.1-1.1c0.8-1.1,1.3-2.4,1.3-4V204.4z"/>
					<path id="XMLID_00000150807673812421004510000007509591104836622747_" class="st1" d="M311,196.5v15.8h2.9
						c0.7,0,1.2,0.1,1.5,0.4s0.4,0.6,0.4,1c0,0.4-0.1,0.8-0.4,1c-0.3,0.3-0.8,0.4-1.5,0.4h-8.7c-0.7,0-1.2-0.1-1.5-0.4
						s-0.4-0.6-0.4-1c0-0.4,0.1-0.8,0.4-1c0.3-0.3,0.8-0.4,1.5-0.4h2.9v-12l-2.6,0.7c-0.4,0.1-0.7,0.2-0.9,0.2
						c-0.4,0-0.7-0.1-0.9-0.4c-0.3-0.3-0.4-0.6-0.4-1.1c0-0.4,0.1-0.7,0.3-0.9c0.2-0.2,0.6-0.4,1.2-0.6L311,196.5z"/>
					<path id="XMLID_00000106838034658019488540000012135522974405838754_" class="st1" d="M328.3,196.5v15.8h2.9
						c0.7,0,1.2,0.1,1.5,0.4s0.4,0.6,0.4,1c0,0.4-0.1,0.8-0.4,1c-0.3,0.3-0.8,0.4-1.5,0.4h-8.7c-0.7,0-1.2-0.1-1.5-0.4
						s-0.4-0.6-0.4-1c0-0.4,0.1-0.8,0.4-1c0.3-0.3,0.8-0.4,1.5-0.4h2.9v-12l-2.6,0.7c-0.4,0.1-0.7,0.2-0.9,0.2
						c-0.4,0-0.7-0.1-0.9-0.4c-0.3-0.3-0.4-0.6-0.4-1.1c0-0.4,0.1-0.7,0.3-0.9c0.2-0.2,0.6-0.4,1.2-0.6L328.3,196.5z"/>
					<path id="XMLID_00000047037902980676856530000011063413628009640082_" class="st1" d="M350.4,204.4v3.2c0,1.9-0.5,3.7-1.6,5.4
						c-1.1,1.7-2.6,2.6-4.6,2.6c-1.2,0-2.1-0.3-2.9-0.8s-1.6-1.5-2.3-2.8c-0.7-1.4-1.1-2.8-1.1-4.4v-3.2c0-1.9,0.5-3.7,1.6-5.4
						c1.1-1.7,2.6-2.6,4.6-2.6c1.2,0,2.1,0.3,2.9,0.8s1.6,1.4,2.3,2.8C350,201.4,350.4,202.9,350.4,204.4z M347.5,204.4
						c0-1.6-0.4-2.9-1.3-4.1c-0.5-0.6-1.2-1-2.1-1s-1.6,0.4-2.1,1.1c-0.8,1.1-1.3,2.4-1.3,4v3.2c0,1.6,0.4,2.9,1.3,4.1
						c0.5,0.6,1.2,1,2.1,1s1.6-0.4,2.1-1.1c0.8-1.1,1.3-2.4,1.3-4V204.4z"/>
				</g>
				<g id="XMLID_00000114048532897787655250000013864126565926552738_">
					<path id="XMLID_00000017518905909255391380000006411662493457036963_" class="st1" d="M298.6,179.4v3.2c0,1.9-0.5,3.7-1.6,5.4
						c-1.1,1.7-2.6,2.6-4.6,2.6c-1.2,0-2.1-0.3-2.9-0.8s-1.6-1.5-2.3-2.8c-0.7-1.4-1.1-2.8-1.1-4.4v-3.2c0-1.9,0.5-3.7,1.6-5.4
						c1.1-1.7,2.6-2.6,4.6-2.6c1.2,0,2.1,0.3,2.9,0.8s1.6,1.4,2.3,2.8C298.2,176.3,298.6,177.8,298.6,179.4z M295.7,179.4
						c0-1.6-0.4-2.9-1.3-4.1c-0.5-0.6-1.2-1-2.1-1s-1.6,0.4-2.1,1.1c-0.8,1.1-1.3,2.4-1.3,4v3.2c0,1.6,0.4,2.9,1.3,4.1
						c0.5,0.6,1.2,1,2.1,1s1.6-0.4,2.1-1.1c0.8-1.1,1.3-2.4,1.3-4V179.4z"/>
					<path id="XMLID_00000036968651152266926400000002220833859899720067_" class="st1" d="M311,171.4v15.8h2.9
						c0.7,0,1.2,0.1,1.5,0.4s0.4,0.6,0.4,1c0,0.4-0.1,0.8-0.4,1c-0.3,0.3-0.8,0.4-1.5,0.4h-8.7c-0.7,0-1.2-0.1-1.5-0.4
						s-0.4-0.6-0.4-1c0-0.4,0.1-0.8,0.4-1c0.3-0.3,0.8-0.4,1.5-0.4h2.9v-12l-2.6,0.7c-0.4,0.1-0.7,0.2-0.9,0.2
						c-0.4,0-0.7-0.1-0.9-0.4c-0.3-0.3-0.4-0.6-0.4-1.1c0-0.4,0.1-0.7,0.3-0.9c0.2-0.2,0.6-0.4,1.2-0.6L311,171.4z"/>
					<path id="XMLID_00000053547327265521072580000008975261563998194578_" class="st1" d="M333.1,179.4v3.2c0,1.9-0.5,3.7-1.6,5.4
						c-1.1,1.7-2.6,2.6-4.6,2.6c-1.2,0-2.1-0.3-2.9-0.8s-1.6-1.5-2.3-2.8c-0.7-1.4-1.1-2.8-1.1-4.4v-3.2c0-1.9,0.5-3.7,1.6-5.4
						c1.1-1.7,2.6-2.6,4.6-2.6c1.2,0,2.1,0.3,2.9,0.8s1.6,1.4,2.3,2.8C332.8,176.3,333.1,177.8,333.1,179.4z M330.2,179.4
						c0-1.6-0.4-2.9-1.3-4.1c-0.5-0.6-1.2-1-2.1-1s-1.6,0.4-2.1,1.1c-0.8,1.1-1.3,2.4-1.3,4v3.2c0,1.6,0.4,2.9,1.3,4.1
						c0.5,0.6,1.2,1,2.1,1s1.6-0.4,2.1-1.1c0.8-1.1,1.3-2.4,1.3-4V179.4z"/>
					<path id="XMLID_00000015332416259979299540000009649240300410801827_" class="st1" d="M350.4,179.4v3.2c0,1.9-0.5,3.7-1.6,5.4
						c-1.1,1.7-2.6,2.6-4.6,2.6c-1.2,0-2.1-0.3-2.9-0.8s-1.6-1.5-2.3-2.8c-0.7-1.4-1.1-2.8-1.1-4.4v-3.2c0-1.9,0.5-3.7,1.6-5.4
						c1.1-1.7,2.6-2.6,4.6-2.6c1.2,0,2.1,0.3,2.9,0.8s1.6,1.4,2.3,2.8C350,176.3,350.4,177.8,350.4,179.4z M347.5,179.4
						c0-1.6-0.4-2.9-1.3-4.1c-0.5-0.6-1.2-1-2.1-1s-1.6,0.4-2.1,1.1c-0.8,1.1-1.3,2.4-1.3,4v3.2c0,1.6,0.4,2.9,1.3,4.1
						c0.5,0.6,1.2,1,2.1,1s1.6-0.4,2.1-1.1c0.8-1.1,1.3-2.4,1.3-4V179.4z"/>
				</g>
			</g>
		</g>
		<g>
			<g id="XMLID_00000026159354148078433110000001714399139796612022_">
				<g id="XMLID_00000105416466623898483180000006048953273249097392_">
					<path id="XMLID_00000090265139190193977420000018140410053230493358_" class="st1" d="M82.6,222.3v15.8h2.9
						c0.7,0,1.2,0.1,1.5,0.4c0.3,0.3,0.4,0.6,0.4,1s-0.1,0.8-0.4,1c-0.3,0.3-0.8,0.4-1.5,0.4h-8.7c-0.7,0-1.2-0.1-1.5-0.4
						c-0.3-0.3-0.4-0.6-0.4-1s0.1-0.8,0.4-1c0.3-0.3,0.8-0.4,1.5-0.4h2.9v-12l-2.6,0.7c-0.4,0.1-0.7,0.2-0.9,0.2
						c-0.4,0-0.7-0.1-0.9-0.4c-0.3-0.3-0.4-0.6-0.4-1.1c0-0.4,0.1-0.7,0.3-0.9c0.2-0.2,0.6-0.4,1.2-0.6L82.6,222.3z"/>
					<path id="XMLID_00000120558139790688367870000016502094312975211146_" class="st1" d="M104.6,230.2v3.2c0,1.9-0.5,3.7-1.6,5.4
						s-2.6,2.6-4.6,2.6c-1.2,0-2.1-0.3-2.9-0.8s-1.6-1.5-2.3-2.8c-0.7-1.4-1.1-2.8-1.1-4.4v-3.2c0-1.9,0.5-3.7,1.6-5.4
						c1.1-1.7,2.6-2.6,4.6-2.6c1.2,0,2.1,0.3,2.9,0.8s1.6,1.4,2.3,2.8C104.3,227.2,104.6,228.7,104.6,230.2z M101.7,230.2
						c0-1.6-0.4-2.9-1.3-4.1c-0.5-0.6-1.2-1-2.1-1s-1.6,0.4-2.1,1.1c-0.8,1.1-1.3,2.4-1.3,4v3.2c0,1.6,0.4,2.9,1.3,4.1
						c0.5,0.6,1.2,1,2.1,1s1.6-0.4,2.1-1.1c0.8-1.1,1.3-2.4,1.3-4V230.2z"/>
					<path id="XMLID_00000087386609628513891510000000918488197143597184_" class="st1" d="M117.1,222.3v15.8h2.9
						c0.7,0,1.2,0.1,1.5,0.4c0.3,0.3,0.4,0.6,0.4,1s-0.1,0.8-0.4,1c-0.3,0.3-0.8,0.4-1.5,0.4h-8.7c-0.7,0-1.2-0.1-1.5-0.4
						c-0.3-0.3-0.4-0.6-0.4-1s0.1-0.8,0.4-1c0.3-0.3,0.8-0.4,1.5-0.4h2.9v-12l-2.6,0.7c-0.4,0.1-0.7,0.2-0.9,0.2
						c-0.4,0-0.7-0.1-0.9-0.4c-0.3-0.3-0.4-0.6-0.4-1.1c0-0.4,0.1-0.7,0.3-0.9c0.2-0.2,0.6-0.4,1.2-0.6L117.1,222.3z"/>
					<path id="XMLID_00000089542883071933660780000014532508767237380506_" class="st1" d="M139.2,230.2v3.2c0,1.9-0.5,3.7-1.6,5.4
						s-2.6,2.6-4.6,2.6c-1.2,0-2.1-0.3-2.9-0.8s-1.6-1.5-2.3-2.8c-0.7-1.4-1.1-2.8-1.1-4.4v-3.2c0-1.9,0.5-3.7,1.6-5.4
						c1.1-1.7,2.6-2.6,4.6-2.6c1.2,0,2.1,0.3,2.9,0.8s1.6,1.4,2.3,2.8C138.8,227.2,139.2,228.7,139.2,230.2z M136.3,230.2
						c0-1.6-0.4-2.9-1.3-4.1c-0.5-0.6-1.2-1-2.1-1c-0.9,0-1.6,0.4-2.1,1.1c-0.8,1.1-1.3,2.4-1.3,4v3.2c0,1.6,0.4,2.9,1.3,4.1
						c0.5,0.6,1.2,1,2.1,1c0.9,0,1.6-0.4,2.1-1.1c0.8-1.1,1.3-2.4,1.3-4V230.2z"/>
				</g>
				<g id="XMLID_00000119104871089445923870000012122873519470525841_">
					<path id="XMLID_00000093870779254418196460000003922268222750325888_" class="st1" d="M87.4,280.6v3.2c0,1.9-0.5,3.7-1.6,5.4
						c-1.1,1.7-2.6,2.6-4.6,2.6c-1.2,0-2.1-0.3-2.9-0.8c-0.8-0.5-1.6-1.5-2.3-2.8c-0.7-1.4-1.1-2.8-1.1-4.4v-3.2
						c0-1.9,0.5-3.7,1.6-5.4c1.1-1.7,2.6-2.6,4.6-2.6c1.2,0,2.1,0.3,2.9,0.8c0.8,0.5,1.6,1.4,2.3,2.8
						C87,277.6,87.4,279.1,87.4,280.6z M84.5,280.6c0-1.6-0.4-2.9-1.3-4.1c-0.5-0.6-1.2-1-2.1-1c-0.9,0-1.6,0.4-2.1,1.1
						c-0.8,1.1-1.3,2.4-1.3,4v3.2c0,1.6,0.4,2.9,1.3,4.1c0.5,0.6,1.2,1,2.1,1c0.9,0,1.6-0.4,2.1-1.1c0.8-1.1,1.3-2.4,1.3-4V280.6z"
						/>
					<path id="XMLID_00000175291216145999628380000002474130678135105441_" class="st1" d="M99.8,272.7v15.8h2.9
						c0.7,0,1.2,0.1,1.5,0.4c0.3,0.3,0.4,0.6,0.4,1s-0.1,0.8-0.4,1c-0.3,0.3-0.8,0.4-1.5,0.4H94c-0.7,0-1.2-0.1-1.5-0.4
						s-0.4-0.6-0.4-1s0.1-0.8,0.4-1c0.3-0.3,0.8-0.4,1.5-0.4h2.9v-12l-2.6,0.7c-0.4,0.1-0.7,0.2-0.9,0.2c-0.4,0-0.7-0.1-0.9-0.4
						c-0.3-0.3-0.4-0.6-0.4-1.1c0-0.4,0.1-0.7,0.3-0.9c0.2-0.2,0.6-0.4,1.2-0.6L99.8,272.7z"/>
					<path id="XMLID_00000149382732007334001380000006009610523133174168_" class="st1" d="M117.1,272.7v15.8h2.9
						c0.7,0,1.2,0.1,1.5,0.4c0.3,0.3,0.4,0.6,0.4,1s-0.1,0.8-0.4,1c-0.3,0.3-0.8,0.4-1.5,0.4h-8.7c-0.7,0-1.2-0.1-1.5-0.4
						s-0.4-0.6-0.4-1s0.1-0.8,0.4-1c0.3-0.3,0.8-0.4,1.5-0.4h2.9v-12l-2.6,0.7c-0.4,0.1-0.7,0.2-0.9,0.2c-0.4,0-0.7-0.1-0.9-0.4
						c-0.3-0.3-0.4-0.6-0.4-1.1c0-0.4,0.1-0.7,0.3-0.9c0.2-0.2,0.6-0.4,1.2-0.6L117.1,272.7z"/>
					<path id="XMLID_00000034769134654901875950000008829943587340825729_" class="st1" d="M139.2,280.6v3.2c0,1.9-0.5,3.7-1.6,5.4
						c-1.1,1.7-2.6,2.6-4.6,2.6c-1.2,0-2.1-0.3-2.9-0.8s-1.6-1.5-2.3-2.8c-0.7-1.4-1.1-2.8-1.1-4.4v-3.2c0-1.9,0.5-3.7,1.6-5.4
						c1.1-1.7,2.6-2.6,4.6-2.6c1.2,0,2.1,0.3,2.9,0.8s1.6,1.4,2.3,2.8C138.8,277.6,139.2,279.1,139.2,280.6z M136.3,280.6
						c0-1.6-0.4-2.9-1.3-4.1c-0.5-0.6-1.2-1-2.1-1c-0.9,0-1.6,0.4-2.1,1.1c-0.8,1.1-1.3,2.4-1.3,4v3.2c0,1.6,0.4,2.9,1.3,4.1
						c0.5,0.6,1.2,1,2.1,1c0.9,0,1.6-0.4,2.1-1.1c0.8-1.1,1.3-2.4,1.3-4V280.6z"/>
				</g>
				<g id="XMLID_00000054982951607429954400000011272619566761333666_">
					<path id="XMLID_00000116926720043848309900000013496406025746792127_" class="st1" d="M87.4,255.6v3.2c0,1.9-0.5,3.7-1.6,5.4
						c-1.1,1.7-2.6,2.6-4.6,2.6c-1.2,0-2.1-0.3-2.9-0.8c-0.8-0.5-1.6-1.5-2.3-2.8c-0.7-1.4-1.1-2.8-1.1-4.4v-3.2
						c0-1.9,0.5-3.7,1.6-5.4c1.1-1.7,2.6-2.6,4.6-2.6c1.2,0,2.1,0.3,2.9,0.8c0.8,0.5,1.6,1.4,2.3,2.8C87,252.6,87.4,254,87.4,255.6z
						 M84.5,255.6c0-1.6-0.4-2.9-1.3-4.1c-0.5-0.6-1.2-1-2.1-1c-0.9,0-1.6,0.4-2.1,1.1c-0.8,1.1-1.3,2.4-1.3,4v3.2
						c0,1.6,0.4,2.9,1.3,4.1c0.5,0.6,1.2,1,2.1,1c0.9,0,1.6-0.4,2.1-1.1c0.8-1.1,1.3-2.4,1.3-4V255.6z"/>
					<path id="XMLID_00000166636810064669753290000003444032672965225646_" class="st1" d="M99.8,247.6v15.8h2.9
						c0.7,0,1.2,0.1,1.5,0.4s0.4,0.6,0.4,1s-0.1,0.8-0.4,1c-0.3,0.3-0.8,0.4-1.5,0.4H94c-0.7,0-1.2-0.1-1.5-0.4
						c-0.3-0.3-0.4-0.6-0.4-1s0.1-0.8,0.4-1c0.3-0.3,0.8-0.4,1.5-0.4h2.9v-12l-2.6,0.7c-0.4,0.1-0.7,0.2-0.9,0.2
						c-0.4,0-0.7-0.1-0.9-0.4c-0.3-0.3-0.4-0.6-0.4-1.1c0-0.4,0.1-0.7,0.3-0.9c0.2-0.2,0.6-0.4,1.2-0.6L99.8,247.6z"/>
					<path id="XMLID_00000122713468280191111310000005940226408931572912_" class="st1" d="M121.9,255.6v3.2c0,1.9-0.5,3.7-1.6,5.4
						c-1.1,1.7-2.6,2.6-4.6,2.6c-1.2,0-2.1-0.3-2.9-0.8s-1.6-1.5-2.3-2.8c-0.7-1.4-1.1-2.8-1.1-4.4v-3.2c0-1.9,0.5-3.7,1.6-5.4
						s2.6-2.6,4.6-2.6c1.2,0,2.1,0.3,2.9,0.8s1.6,1.4,2.3,2.8C121.6,252.6,121.9,254,121.9,255.6z M119,255.6c0-1.6-0.4-2.9-1.3-4.1
						c-0.5-0.6-1.2-1-2.1-1s-1.6,0.4-2.1,1.1c-0.8,1.1-1.3,2.4-1.3,4v3.2c0,1.6,0.4,2.9,1.3,4.1c0.5,0.6,1.2,1,2.1,1
						s1.6-0.4,2.1-1.1c0.8-1.1,1.3-2.4,1.3-4V255.6z"/>
					<path id="XMLID_00000078735042746216109080000009640719633565363878_" class="st1" d="M139.2,255.6v3.2c0,1.9-0.5,3.7-1.6,5.4
						c-1.1,1.7-2.6,2.6-4.6,2.6c-1.2,0-2.1-0.3-2.9-0.8s-1.6-1.5-2.3-2.8c-0.7-1.4-1.1-2.8-1.1-4.4v-3.2c0-1.9,0.5-3.7,1.6-5.4
						c1.1-1.7,2.6-2.6,4.6-2.6c1.2,0,2.1,0.3,2.9,0.8s1.6,1.4,2.3,2.8C138.8,252.6,139.2,254,139.2,255.6z M136.3,255.6
						c0-1.6-0.4-2.9-1.3-4.1c-0.5-0.6-1.2-1-2.1-1c-0.9,0-1.6,0.4-2.1,1.1c-0.8,1.1-1.3,2.4-1.3,4v3.2c0,1.6,0.4,2.9,1.3,4.1
						c0.5,0.6,1.2,1,2.1,1c0.9,0,1.6-0.4,2.1-1.1c0.8-1.1,1.3-2.4,1.3-4V255.6z"/>
				</g>
			</g>
			<g id="XMLID_00000046307468617532359060000009287158909441507717_">
				<g id="XMLID_00000156585770848806531760000002818132146366100657_">
					<path id="XMLID_00000019668710465007321070000008311868453845397167_" class="st1" d="M153,222.3v15.8h2.9
						c0.7,0,1.2,0.1,1.5,0.4c0.3,0.3,0.4,0.6,0.4,1s-0.1,0.8-0.4,1c-0.3,0.3-0.8,0.4-1.5,0.4h-8.7c-0.7,0-1.2-0.1-1.5-0.4
						c-0.3-0.3-0.4-0.6-0.4-1s0.1-0.8,0.4-1c0.3-0.3,0.8-0.4,1.5-0.4h2.9v-12l-2.6,0.7c-0.4,0.1-0.7,0.2-0.9,0.2
						c-0.4,0-0.7-0.1-0.9-0.4c-0.3-0.3-0.4-0.6-0.4-1.1c0-0.4,0.1-0.7,0.3-0.9c0.2-0.2,0.6-0.4,1.2-0.6L153,222.3z"/>
					<path id="XMLID_00000088853247431830891900000011624718531434529974_" class="st1" d="M175.1,230.2v3.2c0,1.9-0.5,3.7-1.6,5.4
						s-2.6,2.6-4.6,2.6c-1.2,0-2.1-0.3-2.9-0.8c-0.8-0.5-1.6-1.5-2.3-2.8c-0.7-1.4-1.1-2.8-1.1-4.4v-3.2c0-1.9,0.5-3.7,1.6-5.4
						c1.1-1.7,2.6-2.6,4.6-2.6c1.2,0,2.1,0.3,2.9,0.8c0.8,0.5,1.6,1.4,2.3,2.8C174.7,227.2,175.1,228.7,175.1,230.2z M172.2,230.2
						c0-1.6-0.4-2.9-1.3-4.1c-0.5-0.6-1.2-1-2.1-1c-0.9,0-1.6,0.4-2.1,1.1c-0.8,1.1-1.3,2.4-1.3,4v3.2c0,1.6,0.4,2.9,1.3,4.1
						c0.5,0.6,1.2,1,2.1,1c0.9,0,1.6-0.4,2.1-1.1c0.8-1.1,1.3-2.4,1.3-4V230.2z"/>
					<path id="XMLID_00000083794739092761371580000001478997013570177947_" class="st1" d="M187.5,222.3v15.8h2.9
						c0.7,0,1.2,0.1,1.5,0.4c0.3,0.3,0.4,0.6,0.4,1s-0.1,0.8-0.4,1c-0.3,0.3-0.8,0.4-1.5,0.4h-8.7c-0.7,0-1.2-0.1-1.5-0.4
						c-0.3-0.3-0.4-0.6-0.4-1s0.1-0.8,0.4-1c0.3-0.3,0.8-0.4,1.5-0.4h2.9v-12l-2.6,0.7c-0.4,0.1-0.7,0.2-0.9,0.2
						c-0.4,0-0.7-0.1-0.9-0.4c-0.3-0.3-0.4-0.6-0.4-1.1c0-0.4,0.1-0.7,0.3-0.9c0.2-0.2,0.6-0.4,1.2-0.6L187.5,222.3z"/>
					<path id="XMLID_00000078045264288883404680000013147565181839349407_" class="st1" d="M209.6,230.2v3.2c0,1.9-0.5,3.7-1.6,5.4
						s-2.6,2.6-4.6,2.6c-1.2,0-2.1-0.3-2.9-0.8c-0.8-0.5-1.6-1.5-2.3-2.8c-0.7-1.4-1.1-2.8-1.1-4.4v-3.2c0-1.9,0.5-3.7,1.6-5.4
						c1.1-1.7,2.6-2.6,4.6-2.6c1.2,0,2.1,0.3,2.9,0.8c0.8,0.5,1.6,1.4,2.3,2.8C209.2,227.2,209.6,228.7,209.6,230.2z M206.7,230.2
						c0-1.6-0.4-2.9-1.3-4.1c-0.5-0.6-1.2-1-2.1-1c-0.9,0-1.6,0.4-2.1,1.1c-0.8,1.1-1.3,2.4-1.3,4v3.2c0,1.6,0.4,2.9,1.3,4.1
						c0.5,0.6,1.2,1,2.1,1c0.9,0,1.6-0.4,2.1-1.1c0.8-1.1,1.3-2.4,1.3-4V230.2z"/>
				</g>
				<g id="XMLID_00000115508400050669511190000001515222382798464146_">
					<path id="XMLID_00000017492910144521286690000008049212975055488901_" class="st1" d="M157.8,280.6v3.2c0,1.9-0.5,3.7-1.6,5.4
						c-1.1,1.7-2.6,2.6-4.6,2.6c-1.2,0-2.1-0.3-2.9-0.8c-0.8-0.5-1.6-1.5-2.3-2.8c-0.7-1.4-1.1-2.8-1.1-4.4v-3.2
						c0-1.9,0.5-3.7,1.6-5.4c1.1-1.7,2.6-2.6,4.6-2.6c1.2,0,2.1,0.3,2.9,0.8c0.8,0.5,1.6,1.4,2.3,2.8
						C157.4,277.6,157.8,279.1,157.8,280.6z M154.9,280.6c0-1.6-0.4-2.9-1.3-4.1c-0.5-0.6-1.2-1-2.1-1c-0.9,0-1.6,0.4-2.1,1.1
						c-0.8,1.1-1.3,2.4-1.3,4v3.2c0,1.6,0.4,2.9,1.3,4.1c0.5,0.6,1.2,1,2.1,1c0.9,0,1.6-0.4,2.1-1.1c0.8-1.1,1.3-2.4,1.3-4V280.6z"
						/>
					<path id="XMLID_00000086661905474470979380000002195216979870418857_" class="st1" d="M170.2,272.7v15.8h2.9
						c0.7,0,1.2,0.1,1.5,0.4c0.3,0.3,0.4,0.6,0.4,1s-0.1,0.8-0.4,1c-0.3,0.3-0.8,0.4-1.5,0.4h-8.7c-0.7,0-1.2-0.1-1.5-0.4
						s-0.4-0.6-0.4-1s0.1-0.8,0.4-1c0.3-0.3,0.8-0.4,1.5-0.4h2.9v-12l-2.6,0.7c-0.4,0.1-0.7,0.2-0.9,0.2c-0.4,0-0.7-0.1-0.9-0.4
						c-0.3-0.3-0.4-0.6-0.4-1.1c0-0.4,0.1-0.7,0.3-0.9c0.2-0.2,0.6-0.4,1.2-0.6L170.2,272.7z"/>
					<path id="XMLID_00000078755597995566431570000007621184445127938182_" class="st1" d="M187.5,272.7v15.8h2.9
						c0.7,0,1.2,0.1,1.5,0.4c0.3,0.3,0.4,0.6,0.4,1s-0.1,0.8-0.4,1c-0.3,0.3-0.8,0.4-1.5,0.4h-8.7c-0.7,0-1.2-0.1-1.5-0.4
						s-0.4-0.6-0.4-1s0.1-0.8,0.4-1c0.3-0.3,0.8-0.4,1.5-0.4h2.9v-12l-2.6,0.7c-0.4,0.1-0.7,0.2-0.9,0.2c-0.4,0-0.7-0.1-0.9-0.4
						c-0.3-0.3-0.4-0.6-0.4-1.1c0-0.4,0.1-0.7,0.3-0.9c0.2-0.2,0.6-0.4,1.2-0.6L187.5,272.7z"/>
					<path id="XMLID_00000108992091262481547530000016344474452644504249_" class="st1" d="M209.6,280.6v3.2c0,1.9-0.5,3.7-1.6,5.4
						c-1.1,1.7-2.6,2.6-4.6,2.6c-1.2,0-2.1-0.3-2.9-0.8c-0.8-0.5-1.6-1.5-2.3-2.8c-0.7-1.4-1.1-2.8-1.1-4.4v-3.2
						c0-1.9,0.5-3.7,1.6-5.4c1.1-1.7,2.6-2.6,4.6-2.6c1.2,0,2.1,0.3,2.9,0.8c0.8,0.5,1.6,1.4,2.3,2.8
						C209.2,277.6,209.6,279.1,209.6,280.6z M206.7,280.6c0-1.6-0.4-2.9-1.3-4.1c-0.5-0.6-1.2-1-2.1-1c-0.9,0-1.6,0.4-2.1,1.1
						c-0.8,1.1-1.3,2.4-1.3,4v3.2c0,1.6,0.4,2.9,1.3,4.1c0.5,0.6,1.2,1,2.1,1c0.9,0,1.6-0.4,2.1-1.1c0.8-1.1,1.3-2.4,1.3-4V280.6z"
						/>
				</g>
				<g id="XMLID_00000034070979476304440110000000008457576598950320_">
					<path id="XMLID_00000072240514415576138220000017969085282321830539_" class="st1" d="M157.8,255.6v3.2c0,1.9-0.5,3.7-1.6,5.4
						c-1.1,1.7-2.6,2.6-4.6,2.6c-1.2,0-2.1-0.3-2.9-0.8c-0.8-0.5-1.6-1.5-2.3-2.8c-0.7-1.4-1.1-2.8-1.1-4.4v-3.2
						c0-1.9,0.5-3.7,1.6-5.4s2.6-2.6,4.6-2.6c1.2,0,2.1,0.3,2.9,0.8c0.8,0.5,1.6,1.4,2.3,2.8C157.4,252.6,157.8,254,157.8,255.6z
						 M154.9,255.6c0-1.6-0.4-2.9-1.3-4.1c-0.5-0.6-1.2-1-2.1-1c-0.9,0-1.6,0.4-2.1,1.1c-0.8,1.1-1.3,2.4-1.3,4v3.2
						c0,1.6,0.4,2.9,1.3,4.1c0.5,0.6,1.2,1,2.1,1c0.9,0,1.6-0.4,2.1-1.1c0.8-1.1,1.3-2.4,1.3-4V255.6z"/>
					<path id="XMLID_00000129923757554970277180000005952081138288367788_" class="st1" d="M170.2,247.6v15.8h2.9
						c0.7,0,1.2,0.1,1.5,0.4s0.4,0.6,0.4,1s-0.1,0.8-0.4,1c-0.3,0.3-0.8,0.4-1.5,0.4h-8.7c-0.7,0-1.2-0.1-1.5-0.4
						c-0.3-0.3-0.4-0.6-0.4-1s0.1-0.8,0.4-1c0.3-0.3,0.8-0.4,1.5-0.4h2.9v-12l-2.6,0.7c-0.4,0.1-0.7,0.2-0.9,0.2
						c-0.4,0-0.7-0.1-0.9-0.4c-0.3-0.3-0.4-0.6-0.4-1.1c0-0.4,0.1-0.7,0.3-0.9s0.6-0.4,1.2-0.6L170.2,247.6z"/>
					<path id="XMLID_00000078009622477472214970000011911074175076366486_" class="st1" d="M192.3,255.6v3.2c0,1.9-0.5,3.7-1.6,5.4
						c-1.1,1.7-2.6,2.6-4.6,2.6c-1.2,0-2.1-0.3-2.9-0.8c-0.8-0.5-1.6-1.5-2.3-2.8c-0.7-1.4-1.1-2.8-1.1-4.4v-3.2
						c0-1.9,0.5-3.7,1.6-5.4s2.6-2.6,4.6-2.6c1.2,0,2.1,0.3,2.9,0.8c0.8,0.5,1.6,1.4,2.3,2.8C192,252.6,192.3,254,192.3,255.6z
						 M189.4,255.6c0-1.6-0.4-2.9-1.3-4.1c-0.5-0.6-1.2-1-2.1-1c-0.9,0-1.6,0.4-2.1,1.1c-0.8,1.1-1.3,2.4-1.3,4v3.2
						c0,1.6,0.4,2.9,1.3,4.1c0.5,0.6,1.2,1,2.1,1c0.9,0,1.6-0.4,2.1-1.1c0.8-1.1,1.3-2.4,1.3-4V255.6z"/>
					<path id="XMLID_00000168102908704349106070000009241305579349619636_" class="st1" d="M209.6,255.6v3.2c0,1.9-0.5,3.7-1.6,5.4
						c-1.1,1.7-2.6,2.6-4.6,2.6c-1.2,0-2.1-0.3-2.9-0.8c-0.8-0.5-1.6-1.5-2.3-2.8c-0.7-1.4-1.1-2.8-1.1-4.4v-3.2
						c0-1.9,0.5-3.7,1.6-5.4s2.6-2.6,4.6-2.6c1.2,0,2.1,0.3,2.9,0.8c0.8,0.5,1.6,1.4,2.3,2.8C209.2,252.6,209.6,254,209.6,255.6z
						 M206.7,255.6c0-1.6-0.4-2.9-1.3-4.1c-0.5-0.6-1.2-1-2.1-1c-0.9,0-1.6,0.4-2.1,1.1c-0.8,1.1-1.3,2.4-1.3,4v3.2
						c0,1.6,0.4,2.9,1.3,4.1c0.5,0.6,1.2,1,2.1,1c0.9,0,1.6-0.4,2.1-1.1c0.8-1.1,1.3-2.4,1.3-4V255.6z"/>
				</g>
			</g>
			<g id="XMLID_00000039108018169320036480000010203056003692470169_">
				<g id="XMLID_00000142862763473790518090000017180791251687751552_">
					<path id="XMLID_00000170985307799038998760000018283878065060780433_" class="st1" d="M82.6,146.1v15.7h2.9
						c0.7,0,1.2,0.1,1.5,0.4s0.4,0.6,0.4,1c0,0.4-0.1,0.8-0.4,1c-0.3,0.3-0.8,0.4-1.5,0.4h-8.7c-0.7,0-1.2-0.1-1.5-0.4
						c-0.3-0.3-0.4-0.6-0.4-1c0-0.4,0.1-0.8,0.4-1c0.3-0.3,0.8-0.4,1.5-0.4h2.9v-12l-2.6,0.7c-0.4,0.1-0.7,0.2-0.9,0.2
						c-0.4,0-0.7-0.1-0.9-0.4c-0.3-0.3-0.4-0.6-0.4-1.1c0-0.4,0.1-0.7,0.3-0.9c0.2-0.2,0.6-0.4,1.2-0.6L82.6,146.1z"/>
					<path id="XMLID_00000160910069774038191710000008268075911532852126_" class="st1" d="M104.7,154v3.2c0,1.9-0.5,3.7-1.6,5.4
						s-2.6,2.6-4.6,2.6c-1.2,0-2.1-0.3-2.9-0.8s-1.6-1.5-2.3-2.8c-0.7-1.4-1.1-2.8-1.1-4.4V154c0-1.9,0.5-3.7,1.6-5.4
						c1.1-1.7,2.6-2.6,4.6-2.6c1.2,0,2.1,0.3,2.9,0.8s1.6,1.4,2.3,2.8C104.3,151,104.7,152.5,104.7,154z M101.8,154
						c0-1.6-0.4-2.9-1.3-4.1c-0.5-0.6-1.2-1-2.1-1s-1.6,0.4-2.1,1.1c-0.8,1.1-1.3,2.4-1.3,4v3.2c0,1.6,0.4,2.9,1.3,4.1
						c0.5,0.6,1.2,1,2.1,1s1.6-0.4,2.1-1.1c0.8-1.1,1.3-2.4,1.3-4V154z"/>
					<path id="XMLID_00000150818152458360661550000013508486284372351415_" class="st1" d="M117.1,146.1v15.7h2.9
						c0.7,0,1.2,0.1,1.5,0.4s0.4,0.6,0.4,1c0,0.4-0.1,0.8-0.4,1c-0.3,0.3-0.8,0.4-1.5,0.4h-8.7c-0.7,0-1.2-0.1-1.5-0.4
						c-0.3-0.3-0.4-0.6-0.4-1c0-0.4,0.1-0.8,0.4-1c0.3-0.3,0.8-0.4,1.5-0.4h2.9v-12l-2.6,0.7c-0.4,0.1-0.7,0.2-0.9,0.2
						c-0.4,0-0.7-0.1-0.9-0.4c-0.3-0.3-0.4-0.6-0.4-1.1c0-0.4,0.1-0.7,0.3-0.9c0.2-0.2,0.6-0.4,1.2-0.6L117.1,146.1z"/>
					<path id="XMLID_00000049934655004670844230000018424296959353266067_" class="st1" d="M139.2,154v3.2c0,1.9-0.5,3.7-1.6,5.4
						s-2.6,2.6-4.6,2.6c-1.2,0-2.1-0.3-2.9-0.8s-1.6-1.5-2.3-2.8c-0.7-1.4-1.1-2.8-1.1-4.4V154c0-1.9,0.5-3.7,1.6-5.4
						c1.1-1.7,2.6-2.6,4.6-2.6c1.2,0,2.1,0.3,2.9,0.8s1.6,1.4,2.3,2.8C138.8,151,139.2,152.5,139.2,154z M136.3,154
						c0-1.6-0.4-2.9-1.3-4.1c-0.5-0.6-1.2-1-2.1-1c-0.9,0-1.6,0.4-2.1,1.1c-0.8,1.1-1.3,2.4-1.3,4v3.2c0,1.6,0.4,2.9,1.3,4.1
						c0.5,0.6,1.2,1,2.1,1c0.9,0,1.6-0.4,2.1-1.1c0.8-1.1,1.3-2.4,1.3-4V154z"/>
				</g>
				<g id="XMLID_00000154423098362430326650000015009003298588151439_">
					<path id="XMLID_00000107559119009555262450000008393539540318710943_" class="st1" d="M87.4,204.4v3.2c0,1.9-0.5,3.7-1.6,5.4
						c-1.1,1.7-2.6,2.6-4.6,2.6c-1.2,0-2.1-0.3-2.9-0.8c-0.8-0.5-1.6-1.5-2.3-2.8c-0.7-1.4-1.1-2.8-1.1-4.4v-3.2
						c0-1.9,0.5-3.7,1.6-5.4c1.1-1.7,2.6-2.6,4.6-2.6c1.2,0,2.1,0.3,2.9,0.8c0.8,0.5,1.6,1.4,2.3,2.8
						C87,201.4,87.4,202.9,87.4,204.4z M84.5,204.4c0-1.6-0.4-2.9-1.3-4.1c-0.5-0.6-1.2-1-2.1-1c-0.9,0-1.6,0.4-2.1,1.1
						c-0.8,1.1-1.3,2.4-1.3,4v3.2c0,1.6,0.4,2.9,1.3,4.1c0.5,0.6,1.2,1,2.1,1c0.9,0,1.6-0.4,2.1-1.1c0.8-1.1,1.3-2.4,1.3-4V204.4z"
						/>
					<path id="XMLID_00000163761332467888964680000011937758004240047748_" class="st1" d="M99.8,196.5v15.8h2.9
						c0.7,0,1.2,0.1,1.5,0.4s0.4,0.6,0.4,1c0,0.4-0.1,0.8-0.4,1c-0.3,0.3-0.8,0.4-1.5,0.4H94c-0.7,0-1.2-0.1-1.5-0.4s-0.4-0.6-0.4-1
						c0-0.4,0.1-0.8,0.4-1c0.3-0.3,0.8-0.4,1.5-0.4h2.9v-12l-2.6,0.7c-0.4,0.1-0.7,0.2-0.9,0.2c-0.4,0-0.7-0.1-0.9-0.4
						c-0.3-0.3-0.4-0.6-0.4-1.1c0-0.4,0.1-0.7,0.3-0.9c0.2-0.2,0.6-0.4,1.2-0.6L99.8,196.5z"/>
					<path id="XMLID_00000173847204966649378330000006939731120304967553_" class="st1" d="M117.1,196.5v15.8h2.9
						c0.7,0,1.2,0.1,1.5,0.4s0.4,0.6,0.4,1c0,0.4-0.1,0.8-0.4,1c-0.3,0.3-0.8,0.4-1.5,0.4h-8.7c-0.7,0-1.2-0.1-1.5-0.4
						s-0.4-0.6-0.4-1c0-0.4,0.1-0.8,0.4-1c0.3-0.3,0.8-0.4,1.5-0.4h2.9v-12l-2.6,0.7c-0.4,0.1-0.7,0.2-0.9,0.2
						c-0.4,0-0.7-0.1-0.9-0.4c-0.3-0.3-0.4-0.6-0.4-1.1c0-0.4,0.1-0.7,0.3-0.9c0.2-0.2,0.6-0.4,1.2-0.6L117.1,196.5z"/>
					<path id="XMLID_00000111188254505659935810000003078704158941394081_" class="st1" d="M139.2,204.4v3.2c0,1.9-0.5,3.7-1.6,5.4
						c-1.1,1.7-2.6,2.6-4.6,2.6c-1.2,0-2.1-0.3-2.9-0.8s-1.6-1.5-2.3-2.8c-0.7-1.4-1.1-2.8-1.1-4.4v-3.2c0-1.9,0.5-3.7,1.6-5.4
						c1.1-1.7,2.6-2.6,4.6-2.6c1.2,0,2.1,0.3,2.9,0.8s1.6,1.4,2.3,2.8C138.8,201.4,139.2,202.9,139.2,204.4z M136.3,204.4
						c0-1.6-0.4-2.9-1.3-4.1c-0.5-0.6-1.2-1-2.1-1c-0.9,0-1.6,0.4-2.1,1.1c-0.8,1.1-1.3,2.4-1.3,4v3.2c0,1.6,0.4,2.9,1.3,4.1
						c0.5,0.6,1.2,1,2.1,1c0.9,0,1.6-0.4,2.1-1.1c0.8-1.1,1.3-2.4,1.3-4V204.4z"/>
				</g>
				<g id="XMLID_00000183224375552576103280000006791451300249801370_">
					<path id="XMLID_00000147200070664000507290000016765912307263861384_" class="st1" d="M87.4,179.4v3.2c0,1.9-0.5,3.7-1.6,5.4
						c-1.1,1.7-2.6,2.6-4.6,2.6c-1.2,0-2.1-0.3-2.9-0.8c-0.8-0.5-1.6-1.5-2.3-2.8c-0.7-1.4-1.1-2.8-1.1-4.4v-3.2
						c0-1.9,0.5-3.7,1.6-5.4c1.1-1.7,2.6-2.6,4.6-2.6c1.2,0,2.1,0.3,2.9,0.8c0.8,0.5,1.6,1.4,2.3,2.8
						C87,176.3,87.4,177.8,87.4,179.4z M84.5,179.4c0-1.6-0.4-2.9-1.3-4.1c-0.5-0.6-1.2-1-2.1-1c-0.9,0-1.6,0.4-2.1,1.1
						c-0.8,1.1-1.3,2.4-1.3,4v3.2c0,1.6,0.4,2.9,1.3,4.1c0.5,0.6,1.2,1,2.1,1c0.9,0,1.6-0.4,2.1-1.1c0.8-1.1,1.3-2.4,1.3-4V179.4z"
						/>
					<path id="XMLID_00000099643434446900386310000001428566064891840648_" class="st1" d="M99.8,171.4v15.8h2.9
						c0.7,0,1.2,0.1,1.5,0.4s0.4,0.6,0.4,1c0,0.4-0.1,0.8-0.4,1c-0.3,0.3-0.8,0.4-1.5,0.4H94c-0.7,0-1.2-0.1-1.5-0.4s-0.4-0.6-0.4-1
						c0-0.4,0.1-0.8,0.4-1c0.3-0.3,0.8-0.4,1.5-0.4h2.9v-12l-2.5,0.6c-0.4,0.1-0.7,0.2-0.9,0.2c-0.4,0-0.7-0.1-0.9-0.4
						c-0.3-0.3-0.4-0.6-0.4-1.1c0-0.4,0.1-0.7,0.3-0.9c0.2-0.2,0.6-0.4,1.2-0.6L99.8,171.4z"/>
					<path id="XMLID_00000125567540752495686860000006732363598581617822_" class="st1" d="M121.9,179.4v3.2c0,1.9-0.5,3.7-1.6,5.4
						c-1.1,1.7-2.6,2.6-4.6,2.6c-1.2,0-2.1-0.3-2.9-0.8s-1.6-1.5-2.3-2.8c-0.7-1.4-1.1-2.8-1.1-4.4v-3.2c0-1.9,0.5-3.7,1.6-5.4
						c1.1-1.7,2.6-2.6,4.6-2.6c1.2,0,2.1,0.3,2.9,0.8s1.6,1.4,2.3,2.8C121.6,176.3,121.9,177.8,121.9,179.4z M119,179.4
						c0-1.6-0.4-2.9-1.3-4.1c-0.5-0.6-1.2-1-2.1-1s-1.6,0.4-2.1,1.1c-0.8,1.1-1.3,2.4-1.3,4v3.2c0,1.6,0.4,2.9,1.3,4.1
						c0.5,0.6,1.2,1,2.1,1s1.6-0.4,2.1-1.1c0.8-1.1,1.3-2.4,1.3-4V179.4z"/>
					<path id="XMLID_00000010284961752759281430000004508955777924606598_" class="st1" d="M139.2,179.4v3.2c0,1.9-0.5,3.7-1.6,5.4
						c-1.1,1.7-2.6,2.6-4.6,2.6c-1.2,0-2.1-0.3-2.9-0.8s-1.6-1.5-2.3-2.8c-0.7-1.4-1.1-2.8-1.1-4.4v-3.2c0-1.9,0.5-3.7,1.6-5.4
						c1.1-1.7,2.6-2.6,4.6-2.6c1.2,0,2.1,0.3,2.9,0.8s1.6,1.4,2.3,2.8C138.8,176.3,139.2,177.8,139.2,179.4z M136.3,179.4
						c0-1.6-0.4-2.9-1.3-4.1c-0.5-0.6-1.2-1-2.1-1c-0.9,0-1.6,0.4-2.1,1.1c-0.8,1.1-1.3,2.4-1.3,4v3.2c0,1.6,0.4,2.9,1.3,4.1
						c0.5,0.6,1.2,1,2.1,1c0.9,0,1.6-0.4,2.1-1.1c0.8-1.1,1.3-2.4,1.3-4V179.4z"/>
				</g>
			</g>
			<g id="XMLID_00000090265468120711781530000006182997085621191852_">
				<g id="XMLID_00000100342110361584262240000003296393417796771203_">
					<path id="XMLID_00000155835619792179204160000012813961165199159716_" class="st1" d="M153,146.1v15.7h2.9
						c0.7,0,1.2,0.1,1.5,0.4s0.4,0.6,0.4,1c0,0.4-0.1,0.8-0.4,1c-0.3,0.3-0.8,0.4-1.5,0.4h-8.7c-0.7,0-1.2-0.1-1.5-0.4
						c-0.3-0.3-0.4-0.6-0.4-1c0-0.4,0.1-0.8,0.4-1c0.3-0.3,0.8-0.4,1.5-0.4h2.9v-12l-2.6,0.7c-0.4,0.1-0.7,0.2-0.9,0.2
						c-0.4,0-0.7-0.1-0.9-0.4c-0.3-0.3-0.4-0.6-0.4-1.1c0-0.4,0.1-0.7,0.3-0.9s0.6-0.4,1.2-0.6L153,146.1z"/>
					<path id="XMLID_00000173864358938736584100000006351967560518005385_" class="st1" d="M175.1,154v3.2c0,1.9-0.5,3.7-1.6,5.4
						s-2.6,2.6-4.6,2.6c-1.2,0-2.1-0.3-2.9-0.8c-0.8-0.5-1.6-1.5-2.3-2.8c-0.7-1.4-1.1-2.8-1.1-4.4V154c0-1.9,0.5-3.7,1.6-5.4
						c1.1-1.7,2.6-2.6,4.6-2.6c1.2,0,2.1,0.3,2.9,0.8c0.8,0.5,1.6,1.4,2.3,2.8C174.7,151,175.1,152.5,175.1,154z M172.2,154
						c0-1.6-0.4-2.9-1.3-4.1c-0.5-0.6-1.2-1-2.1-1c-0.9,0-1.6,0.4-2.1,1.1c-0.8,1.1-1.3,2.4-1.3,4v3.2c0,1.6,0.4,2.9,1.3,4.1
						c0.5,0.6,1.2,1,2.1,1c0.9,0,1.6-0.4,2.1-1.1c0.8-1.1,1.3-2.4,1.3-4V154z"/>
					<path id="XMLID_00000056409900386007438520000003088472570107840907_" class="st1" d="M187.5,146.1v15.7h2.9
						c0.7,0,1.2,0.1,1.5,0.4s0.4,0.6,0.4,1c0,0.4-0.1,0.8-0.4,1c-0.3,0.3-0.8,0.4-1.5,0.4h-8.7c-0.7,0-1.2-0.1-1.5-0.4
						c-0.3-0.3-0.4-0.6-0.4-1c0-0.4,0.1-0.8,0.4-1c0.3-0.3,0.8-0.4,1.5-0.4h2.9v-12l-2.6,0.7c-0.4,0.1-0.7,0.2-0.9,0.2
						c-0.4,0-0.7-0.1-0.9-0.4c-0.3-0.3-0.4-0.6-0.4-1.1c0-0.4,0.1-0.7,0.3-0.9s0.6-0.4,1.2-0.6L187.5,146.1z"/>
					<path id="XMLID_00000037689565857118565360000009407112398184872858_" class="st1" d="M209.6,154v3.2c0,1.9-0.5,3.7-1.6,5.4
						s-2.6,2.6-4.6,2.6c-1.2,0-2.1-0.3-2.9-0.8c-0.8-0.5-1.6-1.5-2.3-2.8c-0.7-1.4-1.1-2.8-1.1-4.4V154c0-1.9,0.5-3.7,1.6-5.4
						c1.1-1.7,2.6-2.6,4.6-2.6c1.2,0,2.1,0.3,2.9,0.8c0.8,0.5,1.6,1.4,2.3,2.8C209.2,151,209.6,152.5,209.6,154z M206.7,154
						c0-1.6-0.4-2.9-1.3-4.1c-0.5-0.6-1.2-1-2.1-1c-0.9,0-1.6,0.4-2.1,1.1c-0.8,1.1-1.3,2.4-1.3,4v3.2c0,1.6,0.4,2.9,1.3,4.1
						c0.5,0.6,1.2,1,2.1,1c0.9,0,1.6-0.4,2.1-1.1c0.8-1.1,1.3-2.4,1.3-4V154z"/>
				</g>
				<g id="XMLID_00000047766322867913389290000004259999354852068487_">
					<path id="XMLID_00000035527852252628855650000009697582284797316799_" class="st1" d="M157.8,204.4v3.2c0,1.9-0.5,3.7-1.6,5.4
						c-1.1,1.7-2.6,2.6-4.6,2.6c-1.2,0-2.1-0.3-2.9-0.8c-0.8-0.5-1.6-1.5-2.3-2.8c-0.7-1.4-1.1-2.8-1.1-4.4v-3.2
						c0-1.9,0.5-3.7,1.6-5.4c1.1-1.7,2.6-2.6,4.6-2.6c1.2,0,2.1,0.3,2.9,0.8c0.8,0.5,1.6,1.4,2.3,2.8
						C157.4,201.4,157.8,202.9,157.8,204.4z M154.9,204.4c0-1.6-0.4-2.9-1.3-4.1c-0.5-0.6-1.2-1-2.1-1c-0.9,0-1.6,0.4-2.1,1.1
						c-0.8,1.1-1.3,2.4-1.3,4v3.2c0,1.6,0.4,2.9,1.3,4.1c0.5,0.6,1.2,1,2.1,1c0.9,0,1.6-0.4,2.1-1.1c0.8-1.1,1.3-2.4,1.3-4V204.4z"
						/>
					<path id="XMLID_00000119836731026126643890000005281846334876710299_" class="st1" d="M170.3,196.5v15.8h2.9
						c0.7,0,1.2,0.1,1.5,0.4s0.4,0.6,0.4,1c0,0.4-0.1,0.8-0.4,1c-0.3,0.3-0.8,0.4-1.5,0.4h-8.7c-0.7,0-1.2-0.1-1.5-0.4
						s-0.4-0.6-0.4-1c0-0.4,0.1-0.8,0.4-1c0.3-0.3,0.8-0.4,1.5-0.4h2.9v-12l-2.6,0.7c-0.4,0.1-0.7,0.2-0.9,0.2
						c-0.4,0-0.7-0.1-0.9-0.4c-0.3-0.3-0.4-0.6-0.4-1.1c0-0.4,0.1-0.7,0.3-0.9c0.2-0.2,0.6-0.4,1.2-0.6L170.3,196.5z"/>
					<path id="XMLID_00000058569268529544389830000004072705375214671489_" class="st1" d="M187.5,196.5v15.8h2.9
						c0.7,0,1.2,0.1,1.5,0.4s0.4,0.6,0.4,1c0,0.4-0.1,0.8-0.4,1c-0.3,0.3-0.8,0.4-1.5,0.4h-8.7c-0.7,0-1.2-0.1-1.5-0.4
						s-0.4-0.6-0.4-1c0-0.4,0.1-0.8,0.4-1c0.3-0.3,0.8-0.4,1.5-0.4h2.9v-12L182,201c-0.4,0.1-0.7,0.2-0.9,0.2
						c-0.4,0-0.7-0.1-0.9-0.4c-0.3-0.3-0.4-0.6-0.4-1.1c0-0.4,0.1-0.7,0.3-0.9c0.2-0.2,0.6-0.4,1.2-0.6L187.5,196.5z"/>
					<path id="XMLID_00000011728947181995043260000010058768784002651577_" class="st1" d="M209.6,204.4v3.2c0,1.9-0.5,3.7-1.6,5.4
						c-1.1,1.7-2.6,2.6-4.6,2.6c-1.2,0-2.1-0.3-2.9-0.8c-0.8-0.5-1.6-1.5-2.3-2.8c-0.7-1.4-1.1-2.8-1.1-4.4v-3.2
						c0-1.9,0.5-3.7,1.6-5.4c1.1-1.7,2.6-2.6,4.6-2.6c1.2,0,2.1,0.3,2.9,0.8c0.8,0.5,1.6,1.4,2.3,2.8
						C209.2,201.4,209.6,202.9,209.6,204.4z M206.7,204.4c0-1.6-0.4-2.9-1.3-4.1c-0.5-0.6-1.2-1-2.1-1c-0.9,0-1.6,0.4-2.1,1.1
						c-0.8,1.1-1.3,2.4-1.3,4v3.2c0,1.6,0.4,2.9,1.3,4.1c0.5,0.6,1.2,1,2.1,1c0.9,0,1.6-0.4,2.1-1.1c0.8-1.1,1.3-2.4,1.3-4V204.4z"
						/>
				</g>
				<g id="XMLID_00000038408896626978434060000010066215761481560503_">
					<path id="XMLID_00000181046673200243893590000002865901785446054804_" class="st1" d="M157.8,179.4v3.2c0,1.9-0.5,3.7-1.6,5.4
						c-1.1,1.7-2.6,2.6-4.6,2.6c-1.2,0-2.1-0.3-2.9-0.8c-0.8-0.5-1.6-1.5-2.3-2.8c-0.7-1.4-1.1-2.8-1.1-4.4v-3.2
						c0-1.9,0.5-3.7,1.6-5.4c1.1-1.7,2.6-2.6,4.6-2.6c1.2,0,2.1,0.3,2.9,0.8c0.8,0.5,1.6,1.4,2.3,2.8
						C157.4,176.3,157.8,177.8,157.8,179.4z M154.9,179.4c0-1.6-0.4-2.9-1.3-4.1c-0.5-0.6-1.2-1-2.1-1c-0.9,0-1.6,0.4-2.1,1.1
						c-0.8,1.1-1.3,2.4-1.3,4v3.2c0,1.6,0.4,2.9,1.3,4.1c0.5,0.6,1.2,1,2.1,1c0.9,0,1.6-0.4,2.1-1.1c0.8-1.1,1.3-2.4,1.3-4V179.4z"
						/>
					<path id="XMLID_00000134952080347859415250000017559674256294274980_" class="st1" d="M170.3,171.4v15.8h2.9
						c0.7,0,1.2,0.1,1.5,0.4s0.4,0.6,0.4,1c0,0.4-0.1,0.8-0.4,1c-0.3,0.3-0.8,0.4-1.5,0.4h-8.7c-0.7,0-1.2-0.1-1.5-0.4
						s-0.4-0.6-0.4-1c0-0.4,0.1-0.8,0.4-1c0.3-0.3,0.8-0.4,1.5-0.4h2.9v-12l-2.6,0.7c-0.4,0.1-0.7,0.2-0.9,0.2
						c-0.4,0-0.7-0.1-0.9-0.4c-0.3-0.3-0.4-0.6-0.4-1.1c0-0.4,0.1-0.7,0.3-0.9s0.6-0.4,1.2-0.6L170.3,171.4z"/>
					<path id="XMLID_00000155844583936026417180000007457671819428235162_" class="st1" d="M192.3,179.4v3.2c0,1.9-0.5,3.7-1.6,5.4
						c-1.1,1.7-2.6,2.6-4.6,2.6c-1.2,0-2.1-0.3-2.9-0.8c-0.8-0.5-1.6-1.5-2.3-2.8c-0.7-1.4-1.1-2.8-1.1-4.4v-3.2
						c0-1.9,0.5-3.7,1.6-5.4c1.1-1.7,2.6-2.6,4.6-2.6c1.2,0,2.1,0.3,2.9,0.8c0.8,0.5,1.6,1.4,2.3,2.8
						C192,176.3,192.3,177.8,192.3,179.4z M189.4,179.4c0-1.6-0.4-2.9-1.3-4.1c-0.5-0.6-1.2-1-2.1-1c-0.9,0-1.6,0.4-2.1,1.1
						c-0.8,1.1-1.3,2.4-1.3,4v3.2c0,1.6,0.4,2.9,1.3,4.1c0.5,0.6,1.2,1,2.1,1c0.9,0,1.6-0.4,2.1-1.1c0.8-1.1,1.3-2.4,1.3-4V179.4z"
						/>
					<path id="XMLID_00000001623956512402879440000005343258048502015130_" class="st1" d="M209.6,179.4v3.2c0,1.9-0.5,3.7-1.6,5.4
						c-1.1,1.7-2.6,2.6-4.6,2.6c-1.2,0-2.1-0.3-2.9-0.8c-0.8-0.5-1.6-1.5-2.3-2.8c-0.7-1.4-1.1-2.8-1.1-4.4v-3.2
						c0-1.9,0.5-3.7,1.6-5.4c1.1-1.7,2.6-2.6,4.6-2.6c1.2,0,2.1,0.3,2.9,0.8c0.8,0.5,1.6,1.4,2.3,2.8
						C209.2,176.3,209.6,177.8,209.6,179.4z M206.7,179.4c0-1.6-0.4-2.9-1.3-4.1c-0.5-0.6-1.2-1-2.1-1c-0.9,0-1.6,0.4-2.1,1.1
						c-0.8,1.1-1.3,2.4-1.3,4v3.2c0,1.6,0.4,2.9,1.3,4.1c0.5,0.6,1.2,1,2.1,1c0.9,0,1.6-0.4,2.1-1.1c0.8-1.1,1.3-2.4,1.3-4V179.4z"
						/>
				</g>
			</g>
		</g>
	</g>
	<g>
		<path d="M196.3,475.5h-18.7c-2.2,0-4-1.8-4-4s1.8-4,4-4h14.5c-0.5-13.1-2-49.5-2-51.5c0-1.8-1.7-30.2-2.8-48.8
			c-0.1-2.2,1.5-4.1,3.8-4.2c2.2-0.1,4.1,1.5,4.2,3.8c0.3,4.8,2.8,46.9,2.8,49.3c0,1.7,1.3,34,2.2,55.3c0,1.1-0.4,2.1-1.1,2.9
			C198.4,475,197.4,475.5,196.3,475.5z"/>
	</g>
	<g>
		<path d="M246.6,475.5H229c-1.1,0-2.1-0.4-2.9-1.2s-1.2-1.8-1.1-2.9l2-52.3l3-52.3c0.1-2.2,2-3.9,4.2-3.8s3.9,2,3.8,4.2l-3,52.3
			l-1.8,48h13.5c2.2,0,4,1.8,4,4S248.8,475.5,246.6,475.5z"/>
	</g>
	<path class="st2" d="M283.3,279.6H136c-6.6,0-12-5.4-12-12v-14.3c0-6.6,5.4-12,12-12h147.3c6.6,0,12,5.4,12,12v14.3
		C295.3,274.2,289.9,279.6,283.3,279.6z"/>
	<g>
		<ellipse class="st3" cx="211.2" cy="369.7" rx="63" ry="27.2"/>
		<ellipse class="st4" cx="210.6" cy="134.7" rx="75.3" ry="29.9"/>
		<path class="st5" d="M135.3,134.7c0,16.5,33.7,29.9,75.3,29.9s75.3-13.4,75.3-29.9c0,0,0.4,216.6,0,221.3
			c-1.5,16.4-33.7,29.9-75.3,29.9s-75.3-13.4-75.3-29.9L135.3,134.7L135.3,134.7z"/>
		<path class="st6" d="M148.2,353.8V187.1v-35.7c2.4,1.4,5,2.7,7.9,3.9v15v190v16.3c-2.9-1.2-5.5-2.5-7.9-3.9V353.8z"/>
		<path class="st6" d="M183,339.6V169.5v-7.1c-2.7-0.4-5.4-0.9-7.9-1.5v6.4v171.8v43.1c2.6,0.5,5.2,1,7.9,1.5V339.6z"/>
		<path class="st6" d="M217.6,381.7V171.8v-7.2c-2.3,0.1-4.6,0.1-7,0.1c-0.3,0-0.6,0-0.9,0v7.1v209.9v4.3c0.3,0,0.6,0,0.9,0
			c2.4,0,4.7,0,7-0.1V381.7z"/>
		<polygon class="st6" points="238.6,383.7 238.6,162.4 246.5,161 246.5,382.2 		"/>
		<path class="st6" d="M266.4,357.2v18.5c2.4-1.1,6.3-3.3,7.9-4.3v-14.2V171.9v-21.2c-2.3,1.4-5,2.7-7.9,4.1"/>
	</g>
	<path class="st2" d="M132.7,301.5v55c0,16.5,35.2,29.9,78.6,29.9s77-13.5,78.6-29.9c0.2-1.5,0.2-25.9,0.2-57.9l-0.2-37.8
		c0,16.5-35.2,29.9-78.6,29.9s-78.6-13.4-78.6-29.9L132.7,301.5L132.7,301.5z"/>
	<path id="XMLID_00000155107300533020839530000004871754039762252961_" class="st7" d="M248,236"/>
	<path id="XMLID_00000160151649819403417250000009283785592932858032_" class="st7" d="M260.7,254.1"/>
	<g>
		<path class="st8" d="M155.3,185.6c-0.4,0-0.8-0.1-1.2-0.2c-1.8-0.7-2.7-2.6-2.1-4.4c3-8.2,12.8-16.4,25.9-16.4c0.1,0,0.3,0,0.4,0
			c1.9,0,3.4,1.6,3.4,3.5c0,1.9-1.6,3.5-3.5,3.4c-0.1,0-0.2,0-0.3,0c-11,0-17.7,7.2-19.4,11.8C158,184.8,156.7,185.6,155.3,185.6z"
			/>
	</g>
	<g>
		<path class="st8" d="M266.4,185.6c-1.4,0-2.7-0.9-3.3-2.3c-1.7-4.7-8.5-12-19.7-11.8c-1.9,0.1-3.5-1.5-3.5-3.4
			c0-1.9,1.5-3.5,3.4-3.5c0.1,0,0.3,0,0.4,0c13.1,0,22.9,8.2,25.9,16.4c0.7,1.8-0.3,3.8-2.1,4.4
			C267.1,185.6,266.7,185.6,266.4,185.6z"/>
	</g>
	<g>
		<path class="st9" d="M172,241.5c0,0.2,0,0.4,0,0.7c0,17.4,17.8,31.5,39.9,31.5s39.9-14.1,39.9-31.5c0-0.2,0-0.4,0-0.7H172z"/>
		<path class="st10" d="M171.9,241.3c0,0.2,0,0.6,0,0.8c0,3.8,0.8,7.4,2.4,10.8h75.1c1.5-3.4,2.4-7,2.4-10.8c0-0.2,0-0.6,0-0.8
			H171.9z"/>
		<path class="st7" d="M211.8,273.7c9.4,0,18.1-2.6,24.9-6.9c-1.4-1.4-3-2.7-4.8-3.9c-8.1-5.5-17.4-6.4-22.9-2.8
			c-7.8-2.7-15.4-1.6-18.8,3.5c-0.9,1.3-1.4,2.7-1.6,4.3C195.2,271.5,203.2,273.7,211.8,273.7z"/>
	</g>
	<circle class="st10" cx="181" cy="207.1" r="20"/>
	<path class="st9" d="M188.2,207.1c0,4-3.2,7.2-7.2,7.2s-7.2-3.2-7.2-7.2s3.2-7.2,7.2-7.2C185,199.9,188.2,203.1,188.2,207.1z"/>
	<g>
		<path class="st11" d="M137.9,290"/>
	</g>
	<g>
		<path class="st11" d="M137.7,381.1"/>
	</g>
	<circle class="st10" cx="238.7" cy="207.1" r="20"/>
	<path class="st9" d="M245.9,207.1c0,4-3.2,7.2-7.2,7.2s-7.2-3.2-7.2-7.2s3.2-7.2,7.2-7.2C242.7,199.9,245.9,203.1,245.9,207.1z"/>
	<g>
		<g id="mask_00000065065125207469805650000006308688949362996401_">
			<g>
				
					<linearGradient id="SVGID_1_" gradientUnits="userSpaceOnUse" x1="239.8" y1="346.65" x2="239.8" y2="395.45" gradientTransform="matrix(1 0 0 -1 0 578)">
					<stop  offset="0.3618" style="stop-color:#FFFFFF"/>
					<stop  offset="0.4151" style="stop-color:#F5F9FC"/>
					<stop  offset="0.5063" style="stop-color:#DAE8F4"/>
					<stop  offset="0.624" style="stop-color:#AECDE6"/>
					<stop  offset="0.7639" style="stop-color:#70A7D4"/>
					<stop  offset="0.9207" style="stop-color:#2378BD"/>
					<stop  offset="0.9878" style="stop-color:#0062B2"/>
				</linearGradient>
				<circle class="st12" cx="239.8" cy="206.9" r="24.4"/>
				
					<linearGradient id="SVGID_00000183216884152549677940000018415337841660317337_" gradientUnits="userSpaceOnUse" x1="180.6" y1="346.65" x2="180.6" y2="395.45" gradientTransform="matrix(1 0 0 -1 0 578)">
					<stop  offset="0.3618" style="stop-color:#FFFFFF"/>
					<stop  offset="0.4151" style="stop-color:#F5F9FC"/>
					<stop  offset="0.5063" style="stop-color:#DAE8F4"/>
					<stop  offset="0.624" style="stop-color:#AECDE6"/>
					<stop  offset="0.7639" style="stop-color:#70A7D4"/>
					<stop  offset="0.9207" style="stop-color:#2378BD"/>
					<stop  offset="0.9878" style="stop-color:#0062B2"/>
				</linearGradient>
				
					<circle style="opacity:0.2;fill:url(#SVGID_00000183216884152549677940000018415337841660317337_);enable-background:new    ;" cx="180.6" cy="206.9" r="24.4"/>
				<polygon class="st14" points="155.2,207.3 135.3,198 135.3,193.7 156.6,204.4 				"/>
				<polygon class="st14" points="265.1,207.3 286.1,198 286.1,194.4 263.7,204.4 				"/>
				<path class="st14" d="M154.6,207.1c0,14.4,11.7,26.1,26.1,26.1c12.8,0,23.6-9.2,25.7-21.8l0.1-0.8h7.5l0.1,0.8
					c2.1,12.6,12.9,21.8,25.7,21.8c14.4,0,26.1-11.7,26.1-26.1c0-14.4-11.7-26.1-26.1-26.1c-14.1,0-25.6,11.1-26,25.2v0.9h-7.1v-0.9
					c-0.5-14.1-11.9-25.2-26-25.2C166.3,181.1,154.6,192.7,154.6,207.1z M223.9,191.2c4.3-4.3,9.9-6.6,15.9-6.6s11.7,2.3,15.9,6.6
					c4.3,4.3,6.6,9.9,6.6,15.9s-2.3,11.7-6.6,15.9l0,0c-4.3,4.3-9.9,6.6-15.9,6.6s-11.7-2.3-15.9-6.6c-4.3-4.3-6.6-9.9-6.6-15.9
					S219.6,195.4,223.9,191.2z M180.6,184.6c6,0,11.7,2.3,16,6.6c4.3,4.3,6.6,9.9,6.6,15.9s-2.3,11.7-6.6,15.9l0,0
					c-4.3,4.3-9.9,6.6-16,6.6c-6,0-11.7-2.3-15.9-6.6c-4.3-4.3-6.6-9.9-6.6-15.9s2.3-11.7,6.6-15.9
					C169,186.9,174.6,184.6,180.6,184.6z"/>
				<path class="st15" d="M222.5,196.2c3.5-5.3,7.1-6.8,7.1-6.8l2.8,2.1c0,0-3.4,2.3-5.7,6.3c-2.3,3.8-2.6,7-2.6,7l-4.6-0.9
					C219.4,203.9,219.7,200.4,222.5,196.2z"/>
				<path class="st16" d="M163.3,196.2c3.5-5.3,7-6.8,7-6.8l2.9,2.1c0,0-3.4,2.3-5.7,6.3c-2.3,3.8-2.6,7-2.6,7l-4.6-0.9
					C160.3,203.9,160.6,200.4,163.3,196.2z"/>
			</g>
		</g>
	</g>
	<g>
		<g>
			<path d="M112.9,324.8c-1.5,0-3-0.9-3.7-2.4c-7.3-16.2,21.5-36.8,24.8-39.1c1.8-1.3,4.3-0.8,5.6,1c1.3,1.8,0.8,4.3-1,5.6
				c-8.7,6.1-25.6,21.3-22,29.3c0.9,2,0,4.4-2,5.3C114,324.6,113.5,324.8,112.9,324.8z"/>
		</g>
	</g>
	<g>
		<g>
			<path class="st17" d="M70.9,340.1C70.9,340.1,70.9,340.2,70.9,340.1L70.9,340.1C70.9,340.2,70.9,340.1,70.9,340.1 M70.8,339.3
				c0,0.1,0,0.2,0,0.4C70.8,339.6,70.8,339.4,70.8,339.3"/>
			<path class="st18" d="M18.7,287.1c-0.9-1.3-1.4-4.1,3.8-5.3C28.2,280.5,19.3,288,18.7,287.1z"/>
			<polyline class="st19" points="134.4,321.6 171,310.3 67.5,331.9 134.4,321.6 			"/>
			<path class="st18" d="M172.2,314.4l-38,10.9c-0.8,0.2-1.7-0.2-2-1.1l-0.3-1c-0.2-0.8,0.2-1.7,1.1-2l38-10.9
				c0.8-0.2,1.7,0.2,2,1.1l0.3,1C173.6,313.2,173.1,314.1,172.2,314.4z"/>
			<path class="st20" d="M132.3,324.3L132.3,324.3c0.2,0.8,1.2,1.2,2.3,0.9l37.4-10.8c1-0.3,1.6-1.2,1.4-2l0,0L132.3,324.3z"/>
			<polyline class="st21" points="135.2,317.3 135.7,318.1 136,318.5 171,310.3 135.2,317.3 			"/>
			<path class="st22" d="M136.7,319.5c0,0,2,3.3-2.5,5.7C130.5,327.2,133.8,320.3,136.7,319.5z"/>
			<path class="st18" d="M134.6,323.5L59,339.8c-1.2,0.2-2.3-0.2-3-1.2l-35.3-52.4c-1.1-1.7-0.2-4,1.8-4.4l75.6-16.3
				c1.2-0.2,2.3,0.2,3,1.2l35.4,52.4C137.5,320.8,136.6,323.1,134.6,323.5"/>
			<path class="st23" d="M133.4,325.5l-75.6,16.3c-1.2,0.2-2.3-0.2-3-1.2l-36.1-53.4c-0.8-1.2-0.1-2.8,1.3-3.1l76.8-16.6
				c1.2-0.2,2.3,0.2,3,1.2l35.4,52.4C136.3,322.8,135.4,325.1,133.4,325.5"/>
			<polyline class="st24" points="112.7,287.8 114.3,290.2 112.7,287.8 			"/>
			<path class="st25" d="M73.4,320.4"/>
			<polyline class="st26" points="98.8,333 98.8,333 98.8,333 98.8,333 98.8,333 			"/>
			<g>
				<polygon class="st18" points="74,300.3 73.7,304.1 74.9,304.4 75,303 78.9,307.1 79.1,303.3 77.9,303.1 77.8,304.5 				"/>
				<path class="st18" d="M80.9,299.7c-0.8-0.6-1.6-1.1-2.5-1.5c-0.9-0.4-1.9-0.6-2.8-0.7c-1-0.1-1.9,0-2.8,0.3
					c-0.9,0.2-1.6,0.6-2.2,1.2c-0.6,0.5-1,1.1-1.2,1.8c-0.2,0.7-0.3,1.5-0.2,2.2c0.1,0.8,0.4,1.6,0.9,2.4c0.5,0.8,1.1,1.5,1.9,2.1
					c0.8,0.6,1.6,1.1,2.5,1.5s1.9,0.6,2.8,0.7c1,0.1,1.9,0,2.8-0.3c0.9-0.2,1.6-0.6,2.2-1.2c0.6-0.5,1-1.1,1.2-1.8
					c0.2-0.7,0.3-1.5,0.2-2.2c-0.1-0.8-0.4-1.6-0.9-2.4C82.3,301.1,81.7,300.3,80.9,299.7z M79.6,308.7l-3.9-4.2v0.6l-2.7-0.6
					l0.3-5.8l3.9,4.2v-0.6l2.6,0.6L79.6,308.7z"/>
			</g>
		</g>
		<g>
			<path d="M85.2,339.1c-1.9,0-3.5-1.3-3.9-3.2c-0.4-2.2,1-4.3,3.2-4.7l12.8-2.5c2.2-0.4,4.3,1,4.7,3.2c0.4,2.2-1,4.3-3.2,4.7
				L86,339.1C85.7,339.1,85.4,339.1,85.2,339.1z"/>
		</g>
		<g>
			<path d="M91.9,337.1c-1.3,0-2.6-0.6-3.3-1.8l-2.5-3.7c-1.2-1.8-0.7-4.3,1.1-5.5c1.8-1.2,4.3-0.7,5.5,1.1l2.5,3.7
				c1.2,1.8,0.7,4.3-1.1,5.5C93.5,336.9,92.7,337.1,91.9,337.1z"/>
		</g>
		<g>
			<path d="M85.2,339.1c-1.3,0-2.6-0.6-3.3-1.8l-2.5-3.7c-1.2-1.8-0.7-4.3,1.1-5.5c1.8-1.2,4.3-0.7,5.5,1.1l2.5,3.7
				c1.2,1.8,0.7,4.3-1.1,5.5C86.7,338.9,85.9,339.1,85.2,339.1z"/>
		</g>
		<g>
			<path d="M98.6,336.3c-1.3,0-2.6-0.6-3.3-1.8l-2.5-3.7c-1.2-1.8-0.7-4.3,1.1-5.5c1.8-1.2,4.3-0.7,5.5,1.1l2.5,3.7
				c1.2,1.8,0.7,4.3-1.1,5.5C100.1,336.1,99.4,336.3,98.6,336.3z"/>
		</g>
	</g>
	<g>
		<g>
			<path d="M323.2,332.4c-7.7,0-26.3-1.3-32.7-13.7c-10.4-20.3-10.6-31.5-10.6-32c0-2.2,1.8-4,4-4l0,0c2.2,0,4,1.8,4,4
				c0,0.1,0.3,10,9.7,28.3c4.6,9,22,9.8,28.4,9.3c2.2-0.2,4.1,1.5,4.3,3.7c0.2,2.2-1.5,4.1-3.7,4.3
				C326.4,332.3,325.2,332.4,323.2,332.4z"/>
		</g>
	</g>
	<g>
		<path d="M322.6,334.2c-2.2,0-4-1.7-4-3.9c0-2.2,1.7-4,3.9-4.1l8.4-0.2c2.2-0.1,4,1.7,4.1,3.9c0.1,2.2-1.7,4-3.9,4.1L322.6,334.2
			C322.7,334.2,322.6,334.2,322.6,334.2z"/>
	</g>
	<g>
		<path d="M322.8,328.2c-2.2,0-4-1.7-4-3.9c0-2.2,1.7-4,3.9-4.1l8.4-0.2c2.2-0.1,4,1.7,4.1,3.9c0,2.2-1.7,4-3.9,4.1L322.8,328.2
			C322.9,328.2,322.9,328.2,322.8,328.2z"/>
	</g>
	<g>
		<path d="M321.5,337.6h-0.1c-2.2-0.1-3.9-1.9-3.9-4.1l0.6-19.7c0.1-2.2,1.9-3.9,4.1-3.9c2.2,0.1,3.9,1.9,3.9,4.1l-0.6,19.7
			C325.4,335.9,323.6,337.6,321.5,337.6z"/>
	</g>
	<g>
		<path d="M322.6,337.8c-2.2,0-4-1.7-4-3.9c0-2.2,1.7-4,3.9-4.1l8.4-0.2c2.2-0.1,4,1.7,4.1,3.9c0.1,2.2-1.7,4-3.9,4.1L322.6,337.8
			C322.7,337.8,322.6,337.8,322.6,337.8z"/>
	</g>
	
		<radialGradient id="SVGID_00000142896924141967970860000000034386600056720522_" cx="-269.7838" cy="538.4619" r="39.5265" gradientTransform="matrix(1.028679e-13 -1 -1.8566 -1.909891e-13 1210.8584 -107.9404)" gradientUnits="userSpaceOnUse">
		<stop  offset="0" style="stop-color:#FF8C1F"/>
		<stop  offset="1" style="stop-color:#FEAF06"/>
	</radialGradient>
	<path style="fill:url(#SVGID_00000142896924141967970860000000034386600056720522_);" d="M265.7,155
		c-1.8-37.4-105.8-35.9-109.1,0.5C183.9,167.8,238.7,167.3,265.7,155z"/>
	<g>
		<path class="st10" d="M187,308h49.6c3.3,0,6,2.7,6,6v49.6c0,3.3-2.7,6-6,6H187c-3.3,0-6-2.7-6-6V314
			C180.9,310.7,183.6,308,187,308z"/>
		<path class="st28" d="M219.1,357v6c1,0.5,2.2,0.9,3.5,1.1c1.3,0.3,2.8,0.4,4.2,0.4s2.8-0.1,4.1-0.4s2.4-0.7,3.4-1.3
			c1-0.6,1.8-1.4,2.3-2.5s0.9-2.3,0.9-3.8c0-1.1-0.2-2-0.5-2.9c-0.3-0.8-0.8-1.6-1.4-2.2c-0.6-0.6-1.3-1.2-2.2-1.7s-1.8-1-2.9-1.4
			c-0.8-0.3-1.4-0.6-2.2-1c-0.6-0.3-1.2-0.6-1.6-0.9c-0.4-0.3-0.8-0.7-1-1c-0.2-0.4-0.4-0.8-0.4-1.2s0.1-0.8,0.3-1.1
			c0.2-0.3,0.5-0.6,0.9-0.9c0.4-0.2,0.9-0.4,1.4-0.6c0.6-0.1,1.2-0.2,1.9-0.2c0.5,0,1,0,1.6,0.1s1.1,0.2,1.7,0.3
			c0.6,0.2,1.1,0.3,1.7,0.6c0.5,0.2,1,0.5,1.4,0.8v-5.7c-0.9-0.3-1.9-0.6-3-0.8c-1.1-0.2-2.3-0.3-3.7-0.3s-2.8,0.2-4.1,0.5
			c-1.3,0.3-2.4,0.8-3.4,1.4s-1.7,1.4-2.3,2.5c-0.6,1-0.8,2.2-0.8,3.6c0,1.8,0.5,3.4,1.6,4.6c1,1.3,2.6,2.3,4.7,3.2
			c0.8,0.3,1.6,0.7,2.3,1c0.7,0.3,1.3,0.7,1.8,1c0.5,0.3,0.9,0.7,1.2,1.1s0.5,0.9,0.5,1.4c0,0.4-0.1,0.7-0.3,1.1
			c-0.2,0.4-0.5,0.6-0.9,0.9c-0.4,0.2-0.9,0.4-1.4,0.6c-0.6,0.1-1.2,0.2-2,0.2c-1.3,0-2.6-0.2-3.8-0.7c-1.3-0.5-2.5-1.1-3.6-2
			L219.1,357z M209,342.2h7.7v-4.9h-21.6v4.9h7.7v22h6.1L209,342.2L209,342.2z"/>
	</g>
</g>
</svg>
