<svg id="Layer_1" data-name="Layer 1" xmlns="http://www.w3.org/2000/svg" xmlns:xlink="http://www.w3.org/1999/xlink" viewBox="0 0 432 576"><defs><style>.cls-1{opacity:0.05;}.cls-2{fill:#040d21;}.cls-3{fill:none;stroke:#000;stroke-linecap:round;stroke-linejoin:round;stroke-width:8px;}.cls-4{fill:#ddd;}.cls-5{fill:#2d313f;}.cls-6{fill:#feaf06;}.cls-7{fill:#fbd82b;}.cls-8{fill:#ffe278;}.cls-9{fill:#b57817;}.cls-10{fill:#701d1d;}.cls-11,.cls-16,.cls-17{fill:#fff;}.cls-12{fill:#f70000;}.cls-13,.cls-14{opacity:0.2;}.cls-13{fill:url(#linear-gradient);}.cls-14{fill:url(#linear-gradient-2);}.cls-15{fill:#0062b2;}.cls-16{opacity:0.6;}.cls-17{opacity:0.7;}.cls-18{fill:#f2f2f2;}.cls-19{fill:#c9c9c9;}.cls-20{fill:#677077;}.cls-21{fill:#b8b8b8;}.cls-22{fill:#858d92;}.cls-23{fill:#ccc;}.cls-24{fill:#ededed;}.cls-25{fill:#d9d9d9;}.cls-26{fill:#b4b4b4;}.cls-27{fill:url(#radial-gradient);}.cls-28{fill:url(#linear-gradient-3);}</style><linearGradient id="linear-gradient" x1="244.86" y1="245.1" x2="244.86" y2="196.27" gradientTransform="translate(38.51 -36.37) rotate(9.22)" gradientUnits="userSpaceOnUse"><stop offset="0.36" stop-color="#fff"/><stop offset="0.42" stop-color="#f5f9fc"/><stop offset="0.51" stop-color="#dae8f4"/><stop offset="0.62" stop-color="#aecde6"/><stop offset="0.76" stop-color="#70a7d4"/><stop offset="0.92" stop-color="#2378bd"/><stop offset="0.99" stop-color="#0062b2"/></linearGradient><linearGradient id="linear-gradient-2" x1="185.72" y1="245.1" x2="185.72" y2="196.27" gradientTransform="translate(354.14 -13.47) rotate(75.81)" xlink:href="#linear-gradient"/><radialGradient id="radial-gradient" cx="216.11" cy="175.52" r="39.54" gradientTransform="translate(-109.77 391.64) rotate(-90) scale(1 1.86)" gradientUnits="userSpaceOnUse"><stop offset="0" stop-color="#ff8c1f"/><stop offset="1" stop-color="#feaf06"/></radialGradient><linearGradient id="linear-gradient-3" x1="246.05" y1="1789.88" x2="192.57" y2="1843.37" gradientTransform="translate(0.45 -1463.48)" gradientUnits="userSpaceOnUse"><stop offset="0" stop-color="#e44857"/><stop offset="0.47" stop-color="#c711e1"/><stop offset="1" stop-color="#7f52ff"/></linearGradient></defs><g class="cls-1"><path class="cls-2" d="M228.41,236.07v15.77h2.91a2.17,2.17,0,0,1,1.48.4,1.31,1.31,0,0,1,.45,1,1.33,1.33,0,0,1-.45,1,2.22,2.22,0,0,1-1.48.4h-8.7a2.22,2.22,0,0,1-1.48-.4,1.37,1.37,0,0,1-.44-1,1.33,1.33,0,0,1,.44-1,2.17,2.17,0,0,1,1.48-.4h2.91v-12l-2.57.68a4,4,0,0,1-.93.17,1.27,1.27,0,0,1-.95-.44,1.56,1.56,0,0,1-.4-1.07,1.29,1.29,0,0,1,.3-.9,2.62,2.62,0,0,1,1.23-.59Z"/><path class="cls-2" d="M250.5,244v3.17a10,10,0,0,1-1.62,5.38,5.18,5.18,0,0,1-4.64,2.57,5.37,5.37,0,0,1-3-.77,7.27,7.27,0,0,1-2.28-2.82,9.37,9.37,0,0,1-1.07-4.36V244a10,10,0,0,1,1.62-5.37,5.15,5.15,0,0,1,4.63-2.58,5.35,5.35,0,0,1,2.93.76,7.28,7.28,0,0,1,2.29,2.82A9.16,9.16,0,0,1,250.5,244Zm-2.89,0a6.69,6.69,0,0,0-1.31-4.1,2.5,2.5,0,0,0-2.09-1,2.6,2.6,0,0,0-2.14,1.07,6.37,6.37,0,0,0-1.25,4v3.17a6.6,6.6,0,0,0,1.32,4.1,2.47,2.47,0,0,0,2.1,1,2.59,2.59,0,0,0,2.12-1.07,6.37,6.37,0,0,0,1.25-4Z"/><path class="cls-2" d="M263,236.07v15.77h2.91a2.17,2.17,0,0,1,1.48.4,1.31,1.31,0,0,1,.45,1,1.33,1.33,0,0,1-.45,1,2.22,2.22,0,0,1-1.48.4h-8.7a2.24,2.24,0,0,1-1.48-.4,1.37,1.37,0,0,1-.44-1,1.33,1.33,0,0,1,.44-1,2.18,2.18,0,0,1,1.48-.4h2.91v-12l-2.57.68a4,4,0,0,1-.93.17,1.27,1.27,0,0,1-.95-.44,1.56,1.56,0,0,1-.4-1.07,1.29,1.29,0,0,1,.3-.9,2.67,2.67,0,0,1,1.24-.59Z"/><path class="cls-2" d="M285,244v3.17a10,10,0,0,1-1.62,5.38,5.19,5.19,0,0,1-4.65,2.57,5.36,5.36,0,0,1-2.94-.77,7.27,7.27,0,0,1-2.28-2.82,9.37,9.37,0,0,1-1.07-4.36V244a10,10,0,0,1,1.61-5.37,5.17,5.17,0,0,1,4.64-2.58,5.35,5.35,0,0,1,2.93.76,7.28,7.28,0,0,1,2.29,2.82A9.16,9.16,0,0,1,285,244Zm-2.89,0a6.69,6.69,0,0,0-1.31-4.1,2.5,2.5,0,0,0-2.09-1,2.58,2.58,0,0,0-2.14,1.07,6.37,6.37,0,0,0-1.25,4v3.17a6.6,6.6,0,0,0,1.32,4.1,2.45,2.45,0,0,0,2.09,1,2.59,2.59,0,0,0,2.13-1.07,6.37,6.37,0,0,0,1.25-4Z"/><path class="cls-2" d="M233.23,294.42v3.16a9.94,9.94,0,0,1-1.62,5.38,5.16,5.16,0,0,1-4.64,2.57,5.37,5.37,0,0,1-2.95-.76,7.24,7.24,0,0,1-2.28-2.83,9.34,9.34,0,0,1-1.07-4.36v-3.16a10,10,0,0,1,1.62-5.38,5.15,5.15,0,0,1,4.63-2.58,5.43,5.43,0,0,1,2.93.76,7.28,7.28,0,0,1,2.29,2.82A9.17,9.17,0,0,1,233.23,294.42Zm-2.89,0a6.67,6.67,0,0,0-1.31-4.1,2.48,2.48,0,0,0-2.09-1,2.59,2.59,0,0,0-2.14,1.06,6.39,6.39,0,0,0-1.25,4v3.16a6.6,6.6,0,0,0,1.32,4.1,2.47,2.47,0,0,0,2.1,1,2.56,2.56,0,0,0,2.12-1.07,6.35,6.35,0,0,0,1.25-4Z"/><path class="cls-2" d="M245.68,286.46v15.77h2.91a2.17,2.17,0,0,1,1.48.4,1.35,1.35,0,0,1,.45,1.05,1.32,1.32,0,0,1-.45,1,2.17,2.17,0,0,1-1.48.4h-8.7a2.18,2.18,0,0,1-1.48-.4,1.45,1.45,0,0,1,0-2.08,2.18,2.18,0,0,1,1.48-.4h2.91v-12l-2.57.67a4,4,0,0,1-.93.17,1.27,1.27,0,0,1-1-.44,1.53,1.53,0,0,1-.4-1.06,1.3,1.3,0,0,1,.3-.91,2.69,2.69,0,0,1,1.23-.58Z"/><path class="cls-2" d="M263,286.46v15.77h2.91a2.17,2.17,0,0,1,1.48.4,1.35,1.35,0,0,1,.45,1.05,1.32,1.32,0,0,1-.45,1,2.17,2.17,0,0,1-1.48.4h-8.7a2.18,2.18,0,0,1-1.48-.4,1.45,1.45,0,0,1,0-2.08,2.18,2.18,0,0,1,1.48-.4h2.91v-12l-2.57.67a4,4,0,0,1-.93.17,1.27,1.27,0,0,1-.95-.44,1.53,1.53,0,0,1-.4-1.06,1.3,1.3,0,0,1,.3-.91,2.68,2.68,0,0,1,1.24-.58Z"/><path class="cls-2" d="M285,294.42v3.16a9.94,9.94,0,0,1-1.62,5.38,5.17,5.17,0,0,1-4.65,2.57,5.36,5.36,0,0,1-2.94-.76,7.24,7.24,0,0,1-2.28-2.83,9.34,9.34,0,0,1-1.07-4.36v-3.16a10,10,0,0,1,1.61-5.38,5.17,5.17,0,0,1,4.64-2.58,5.43,5.43,0,0,1,2.93.76A7.28,7.28,0,0,1,284,290,9.17,9.17,0,0,1,285,294.42Zm-2.89,0a6.67,6.67,0,0,0-1.31-4.1,2.48,2.48,0,0,0-2.09-1,2.58,2.58,0,0,0-2.14,1.06,6.39,6.39,0,0,0-1.25,4v3.16a6.6,6.6,0,0,0,1.32,4.1,2.45,2.45,0,0,0,2.09,1,2.57,2.57,0,0,0,2.13-1.07,6.35,6.35,0,0,0,1.25-4Z"/><path class="cls-2" d="M233.23,269.36v3.16a9.94,9.94,0,0,1-1.62,5.38,5.16,5.16,0,0,1-4.64,2.57,5.37,5.37,0,0,1-2.95-.76,7.24,7.24,0,0,1-2.28-2.83,9.34,9.34,0,0,1-1.07-4.36v-3.16a10,10,0,0,1,1.62-5.38,5.15,5.15,0,0,1,4.63-2.58,5.43,5.43,0,0,1,2.93.76,7.28,7.28,0,0,1,2.29,2.82A9.17,9.17,0,0,1,233.23,269.36Zm-2.89,0a6.67,6.67,0,0,0-1.31-4.1,2.48,2.48,0,0,0-2.09-1,2.59,2.59,0,0,0-2.14,1.06,6.39,6.39,0,0,0-1.25,4v3.16a6.6,6.6,0,0,0,1.32,4.1,2.47,2.47,0,0,0,2.1,1,2.56,2.56,0,0,0,2.12-1.07,6.35,6.35,0,0,0,1.25-4Z"/><path class="cls-2" d="M245.68,261.4v15.77h2.91a2.17,2.17,0,0,1,1.48.4,1.35,1.35,0,0,1,.45,1.05,1.32,1.32,0,0,1-.45,1,2.17,2.17,0,0,1-1.48.4h-8.7a2.18,2.18,0,0,1-1.48-.4,1.45,1.45,0,0,1,0-2.08,2.18,2.18,0,0,1,1.48-.4h2.91v-12l-2.57.67a4,4,0,0,1-.93.17,1.27,1.27,0,0,1-1-.44,1.53,1.53,0,0,1-.4-1.06,1.3,1.3,0,0,1,.3-.91,2.69,2.69,0,0,1,1.23-.58Z"/><path class="cls-2" d="M267.77,269.36v3.16a9.94,9.94,0,0,1-1.62,5.38,5.16,5.16,0,0,1-4.64,2.57,5.37,5.37,0,0,1-2.95-.76,7.24,7.24,0,0,1-2.28-2.83,9.34,9.34,0,0,1-1.07-4.36v-3.16a10,10,0,0,1,1.62-5.38,5.15,5.15,0,0,1,4.63-2.58,5.43,5.43,0,0,1,2.93.76,7.28,7.28,0,0,1,2.29,2.82A9.17,9.17,0,0,1,267.77,269.36Zm-2.89,0a6.67,6.67,0,0,0-1.31-4.1,2.48,2.48,0,0,0-2.09-1,2.59,2.59,0,0,0-2.14,1.06,6.39,6.39,0,0,0-1.25,4v3.16a6.6,6.6,0,0,0,1.32,4.1,2.47,2.47,0,0,0,2.1,1,2.56,2.56,0,0,0,2.12-1.07,6.35,6.35,0,0,0,1.25-4Z"/><path class="cls-2" d="M285,269.36v3.16a9.94,9.94,0,0,1-1.62,5.38,5.17,5.17,0,0,1-4.65,2.57,5.36,5.36,0,0,1-2.94-.76,7.24,7.24,0,0,1-2.28-2.83,9.34,9.34,0,0,1-1.07-4.36v-3.16a10,10,0,0,1,1.61-5.38,5.17,5.17,0,0,1,4.64-2.58,5.43,5.43,0,0,1,2.93.76A7.28,7.28,0,0,1,284,265,9.17,9.17,0,0,1,285,269.36Zm-2.89,0a6.67,6.67,0,0,0-1.31-4.1,2.48,2.48,0,0,0-2.09-1,2.58,2.58,0,0,0-2.14,1.06,6.39,6.39,0,0,0-1.25,4v3.16a6.6,6.6,0,0,0,1.32,4.1,2.45,2.45,0,0,0,2.09,1,2.57,2.57,0,0,0,2.13-1.07,6.35,6.35,0,0,0,1.25-4Z"/><path class="cls-2" d="M298.83,236.07v15.77h2.91a2.18,2.18,0,0,1,1.48.4,1.34,1.34,0,0,1,.44,1,1.35,1.35,0,0,1-.44,1,2.24,2.24,0,0,1-1.48.4H293a2.2,2.2,0,0,1-1.48-.4,1.35,1.35,0,0,1-.45-1,1.31,1.31,0,0,1,.45-1,2.15,2.15,0,0,1,1.48-.4H296v-12l-2.58.68a4,4,0,0,1-.92.17,1.25,1.25,0,0,1-.95-.44,1.51,1.51,0,0,1-.4-1.07,1.33,1.33,0,0,1,.29-.9,2.67,2.67,0,0,1,1.24-.59Z"/><path class="cls-2" d="M320.92,244v3.17a9.89,9.89,0,0,1-1.63,5.38,5.18,5.18,0,0,1-4.64,2.57,5.36,5.36,0,0,1-2.94-.77,7.18,7.18,0,0,1-2.28-2.82,9.25,9.25,0,0,1-1.07-4.36V244a9.94,9.94,0,0,1,1.61-5.37,5.16,5.16,0,0,1,4.64-2.58,5.35,5.35,0,0,1,2.93.76,7.37,7.37,0,0,1,2.29,2.82A9.28,9.28,0,0,1,320.92,244Zm-2.9,0a6.69,6.69,0,0,0-1.3-4.1,2.52,2.52,0,0,0-2.1-1,2.58,2.58,0,0,0-2.13,1.07,6.31,6.31,0,0,0-1.25,4v3.17a6.54,6.54,0,0,0,1.32,4.1,2.44,2.44,0,0,0,2.09,1,2.57,2.57,0,0,0,2.12-1.07,6.31,6.31,0,0,0,1.25-4Z"/><path class="cls-2" d="M333.37,236.07v15.77h2.91a2.18,2.18,0,0,1,1.48.4,1.34,1.34,0,0,1,.44,1,1.35,1.35,0,0,1-.44,1,2.24,2.24,0,0,1-1.48.4h-8.7a2.2,2.2,0,0,1-1.48-.4,1.35,1.35,0,0,1-.45-1,1.31,1.31,0,0,1,.45-1,2.15,2.15,0,0,1,1.48-.4h2.91v-12l-2.58.68a4,4,0,0,1-.92.17,1.25,1.25,0,0,1-.95-.44,1.51,1.51,0,0,1-.4-1.07,1.33,1.33,0,0,1,.29-.9,2.67,2.67,0,0,1,1.24-.59Z"/><path class="cls-2" d="M355.46,244v3.17a9.89,9.89,0,0,1-1.63,5.38,5.18,5.18,0,0,1-4.64,2.57,5.42,5.42,0,0,1-2.95-.77,7.26,7.26,0,0,1-2.27-2.82,9.26,9.26,0,0,1-1.08-4.36V244a10,10,0,0,1,1.62-5.37,5.16,5.16,0,0,1,4.64-2.58,5.35,5.35,0,0,1,2.93.76,7.37,7.37,0,0,1,2.29,2.82A9.28,9.28,0,0,1,355.46,244Zm-2.9,0a6.63,6.63,0,0,0-1.31-4.1,2.49,2.49,0,0,0-2.09-1A2.61,2.61,0,0,0,347,240a6.37,6.37,0,0,0-1.25,4v3.17a6.54,6.54,0,0,0,1.33,4.1,2.44,2.44,0,0,0,2.09,1,2.57,2.57,0,0,0,2.12-1.07,6.37,6.37,0,0,0,1.25-4Z"/><path class="cls-2" d="M303.65,294.42v3.16A9.87,9.87,0,0,1,302,303a5.16,5.16,0,0,1-4.64,2.57,5.36,5.36,0,0,1-2.94-.76,7.15,7.15,0,0,1-2.28-2.83,9.22,9.22,0,0,1-1.07-4.36v-3.16A10,10,0,0,1,292.7,289a5.16,5.16,0,0,1,4.64-2.58,5.43,5.43,0,0,1,2.93.76,7.37,7.37,0,0,1,2.29,2.82A9.29,9.29,0,0,1,303.65,294.42Zm-2.9,0a6.67,6.67,0,0,0-1.3-4.1,2.49,2.49,0,0,0-2.1-1,2.57,2.57,0,0,0-2.13,1.06,6.33,6.33,0,0,0-1.25,4v3.16a6.54,6.54,0,0,0,1.32,4.1,2.44,2.44,0,0,0,2.09,1,2.55,2.55,0,0,0,2.12-1.07,6.29,6.29,0,0,0,1.25-4Z"/><path class="cls-2" d="M316.1,286.46v15.77H319a2.18,2.18,0,0,1,1.48.4,1.37,1.37,0,0,1,.44,1.05,1.34,1.34,0,0,1-.44,1,2.18,2.18,0,0,1-1.48.4h-8.7a2.15,2.15,0,0,1-1.48-.4,1.43,1.43,0,0,1,0-2.08,2.15,2.15,0,0,1,1.48-.4h2.91v-12l-2.58.67a4,4,0,0,1-.92.17,1.25,1.25,0,0,1-1-.44,1.49,1.49,0,0,1-.4-1.06,1.34,1.34,0,0,1,.29-.91,2.68,2.68,0,0,1,1.24-.58Z"/><path class="cls-2" d="M333.37,286.46v15.77h2.91a2.18,2.18,0,0,1,1.48.4,1.37,1.37,0,0,1,.44,1.05,1.34,1.34,0,0,1-.44,1,2.18,2.18,0,0,1-1.48.4h-8.7a2.15,2.15,0,0,1-1.48-.4,1.43,1.43,0,0,1,0-2.08,2.15,2.15,0,0,1,1.48-.4h2.91v-12l-2.58.67a4,4,0,0,1-.92.17,1.25,1.25,0,0,1-.95-.44,1.49,1.49,0,0,1-.4-1.06,1.34,1.34,0,0,1,.29-.91,2.68,2.68,0,0,1,1.24-.58Z"/><path class="cls-2" d="M355.46,294.42v3.16a9.87,9.87,0,0,1-1.63,5.38,5.16,5.16,0,0,1-4.64,2.57,5.42,5.42,0,0,1-2.95-.76,7.23,7.23,0,0,1-2.27-2.83,9.23,9.23,0,0,1-1.08-4.36v-3.16a10,10,0,0,1,1.62-5.38,5.16,5.16,0,0,1,4.64-2.58,5.43,5.43,0,0,1,2.93.76,7.37,7.37,0,0,1,2.29,2.82A9.29,9.29,0,0,1,355.46,294.42Zm-2.9,0a6.61,6.61,0,0,0-1.31-4.1,2.46,2.46,0,0,0-2.09-1,2.6,2.6,0,0,0-2.14,1.06,6.39,6.39,0,0,0-1.25,4v3.16a6.54,6.54,0,0,0,1.33,4.1,2.44,2.44,0,0,0,2.09,1,2.55,2.55,0,0,0,2.12-1.07,6.35,6.35,0,0,0,1.25-4Z"/><path class="cls-2" d="M303.65,269.36v3.16A9.87,9.87,0,0,1,302,277.9a5.16,5.16,0,0,1-4.64,2.57,5.36,5.36,0,0,1-2.94-.76,7.15,7.15,0,0,1-2.28-2.83,9.22,9.22,0,0,1-1.07-4.36v-3.16A10,10,0,0,1,292.7,264a5.16,5.16,0,0,1,4.64-2.58,5.43,5.43,0,0,1,2.93.76,7.37,7.37,0,0,1,2.29,2.82A9.29,9.29,0,0,1,303.65,269.36Zm-2.9,0a6.67,6.67,0,0,0-1.3-4.1,2.49,2.49,0,0,0-2.1-1,2.57,2.57,0,0,0-2.13,1.06,6.33,6.33,0,0,0-1.25,4v3.16a6.54,6.54,0,0,0,1.32,4.1,2.44,2.44,0,0,0,2.09,1,2.55,2.55,0,0,0,2.12-1.07,6.29,6.29,0,0,0,1.25-4Z"/><path class="cls-2" d="M316.1,261.4v15.77H319a2.18,2.18,0,0,1,1.48.4,1.37,1.37,0,0,1,.44,1.05,1.34,1.34,0,0,1-.44,1,2.18,2.18,0,0,1-1.48.4h-8.7a2.15,2.15,0,0,1-1.48-.4,1.43,1.43,0,0,1,0-2.08,2.15,2.15,0,0,1,1.48-.4h2.91v-12l-2.58.67a4,4,0,0,1-.92.17,1.25,1.25,0,0,1-1-.44,1.49,1.49,0,0,1-.4-1.06,1.34,1.34,0,0,1,.29-.91,2.68,2.68,0,0,1,1.24-.58Z"/><path class="cls-2" d="M338.19,269.36v3.16a9.87,9.87,0,0,1-1.63,5.38,5.16,5.16,0,0,1-4.64,2.57,5.36,5.36,0,0,1-2.94-.76,7.15,7.15,0,0,1-2.28-2.83,9.22,9.22,0,0,1-1.07-4.36v-3.16a10,10,0,0,1,1.61-5.38,5.16,5.16,0,0,1,4.64-2.58,5.43,5.43,0,0,1,2.93.76A7.37,7.37,0,0,1,337.1,265,9.29,9.29,0,0,1,338.19,269.36Zm-2.9,0a6.67,6.67,0,0,0-1.3-4.1,2.49,2.49,0,0,0-2.1-1,2.57,2.57,0,0,0-2.13,1.06,6.33,6.33,0,0,0-1.25,4v3.16a6.6,6.6,0,0,0,1.32,4.1,2.44,2.44,0,0,0,2.09,1,2.55,2.55,0,0,0,2.12-1.07,6.29,6.29,0,0,0,1.25-4Z"/><path class="cls-2" d="M355.46,269.36v3.16a9.87,9.87,0,0,1-1.63,5.38,5.16,5.16,0,0,1-4.64,2.57,5.42,5.42,0,0,1-2.95-.76,7.23,7.23,0,0,1-2.27-2.83,9.23,9.23,0,0,1-1.08-4.36v-3.16a10,10,0,0,1,1.62-5.38,5.16,5.16,0,0,1,4.64-2.58,5.43,5.43,0,0,1,2.93.76,7.37,7.37,0,0,1,2.29,2.82A9.29,9.29,0,0,1,355.46,269.36Zm-2.9,0a6.61,6.61,0,0,0-1.31-4.1,2.46,2.46,0,0,0-2.09-1,2.6,2.6,0,0,0-2.14,1.06,6.39,6.39,0,0,0-1.25,4v3.16a6.54,6.54,0,0,0,1.33,4.1,2.44,2.44,0,0,0,2.09,1,2.55,2.55,0,0,0,2.12-1.07,6.35,6.35,0,0,0,1.25-4Z"/><path class="cls-2" d="M228.43,159.86v15.77h2.9a2.2,2.2,0,0,1,1.49.4,1.37,1.37,0,0,1,.44,1.05,1.34,1.34,0,0,1-.44,1,2.2,2.2,0,0,1-1.49.4h-8.69a2.2,2.2,0,0,1-1.49-.4,1.37,1.37,0,0,1-.44-1.05,1.34,1.34,0,0,1,.44-1,2.2,2.2,0,0,1,1.49-.4h2.91v-12l-2.58.67a4,4,0,0,1-.92.17,1.25,1.25,0,0,1-1-.44,1.5,1.5,0,0,1-.4-1.07,1.33,1.33,0,0,1,.29-.9,2.67,2.67,0,0,1,1.24-.59Z"/><path class="cls-2" d="M250.52,167.82V171a9.87,9.87,0,0,1-1.63,5.38,5.18,5.18,0,0,1-4.64,2.57,5.42,5.42,0,0,1-2.95-.76,7.21,7.21,0,0,1-2.27-2.83A9.26,9.26,0,0,1,238,171v-3.16a10,10,0,0,1,1.62-5.38,5.16,5.16,0,0,1,4.64-2.58,5.43,5.43,0,0,1,2.93.76,7.37,7.37,0,0,1,2.29,2.82A9.29,9.29,0,0,1,250.52,167.82Zm-2.9,0a6.64,6.64,0,0,0-1.31-4.11,2.49,2.49,0,0,0-2.09-1,2.61,2.61,0,0,0-2.14,1.07,6.38,6.38,0,0,0-1.25,4V171a6.54,6.54,0,0,0,1.33,4.1,2.44,2.44,0,0,0,2.09,1,2.55,2.55,0,0,0,2.12-1.07,6.35,6.35,0,0,0,1.25-4Z"/><path class="cls-2" d="M263,159.86v15.77h2.9a2.2,2.2,0,0,1,1.49.4,1.37,1.37,0,0,1,.44,1.05,1.34,1.34,0,0,1-.44,1,2.2,2.2,0,0,1-1.49.4h-8.69a2.2,2.2,0,0,1-1.49-.4,1.37,1.37,0,0,1-.44-1.05,1.34,1.34,0,0,1,.44-1,2.2,2.2,0,0,1,1.49-.4h2.91v-12l-2.58.67a4,4,0,0,1-.92.17,1.25,1.25,0,0,1-.95-.44,1.5,1.5,0,0,1-.4-1.07,1.33,1.33,0,0,1,.29-.9,2.67,2.67,0,0,1,1.24-.59Z"/><path class="cls-2" d="M285.05,167.82V171a9.94,9.94,0,0,1-1.62,5.38,5.18,5.18,0,0,1-4.64,2.57,5.42,5.42,0,0,1-3-.76,7.21,7.21,0,0,1-2.27-2.83,9.26,9.26,0,0,1-1.08-4.36v-3.16a10,10,0,0,1,1.62-5.38,5.16,5.16,0,0,1,4.64-2.58,5.46,5.46,0,0,1,2.93.76,7.37,7.37,0,0,1,2.29,2.82A9.28,9.28,0,0,1,285.05,167.82Zm-2.89,0a6.64,6.64,0,0,0-1.31-4.11,2.49,2.49,0,0,0-2.09-1,2.61,2.61,0,0,0-2.14,1.07,6.38,6.38,0,0,0-1.25,4V171a6.6,6.6,0,0,0,1.32,4.1,2.47,2.47,0,0,0,2.1,1,2.55,2.55,0,0,0,2.12-1.07,6.35,6.35,0,0,0,1.25-4Z"/><path class="cls-2" d="M233.25,218.21v3.16a9.84,9.84,0,0,1-1.63,5.38,5.17,5.17,0,0,1-4.64,2.58,5.42,5.42,0,0,1-2.95-.77,7.14,7.14,0,0,1-2.27-2.83,9.23,9.23,0,0,1-1.08-4.36v-3.16a9.93,9.93,0,0,1,1.62-5.37,5.16,5.16,0,0,1,4.64-2.58,5.35,5.35,0,0,1,2.93.76,7.25,7.25,0,0,1,2.29,2.81A9.32,9.32,0,0,1,233.25,218.21Zm-2.9,0a6.63,6.63,0,0,0-1.31-4.1,2.46,2.46,0,0,0-2.09-1,2.58,2.58,0,0,0-2.14,1.07,6.35,6.35,0,0,0-1.25,4v3.16a6.52,6.52,0,0,0,1.33,4.1,2.45,2.45,0,0,0,2.09,1,2.57,2.57,0,0,0,2.12-1.07,6.39,6.39,0,0,0,1.25-4Z"/><path class="cls-2" d="M245.7,210.26V226h2.9a2.25,2.25,0,0,1,1.49.4,1.37,1.37,0,0,1,.44,1.05,1.33,1.33,0,0,1-.44,1,2.2,2.2,0,0,1-1.49.4h-8.69a2.2,2.2,0,0,1-1.49-.4,1.34,1.34,0,0,1-.44-1,1.35,1.35,0,0,1,.44-1,2.25,2.25,0,0,1,1.49-.4h2.91V214l-2.58.67a3.55,3.55,0,0,1-.92.17,1.24,1.24,0,0,1-.95-.43,1.51,1.51,0,0,1-.4-1.07,1.34,1.34,0,0,1,.29-.91,2.68,2.68,0,0,1,1.24-.58Z"/><path class="cls-2" d="M263,210.26V226h2.9a2.25,2.25,0,0,1,1.49.4,1.37,1.37,0,0,1,.44,1.05,1.33,1.33,0,0,1-.44,1,2.2,2.2,0,0,1-1.49.4h-8.69a2.2,2.2,0,0,1-1.49-.4,1.34,1.34,0,0,1-.44-1,1.35,1.35,0,0,1,.44-1,2.25,2.25,0,0,1,1.49-.4h2.91V214l-2.58.67a3.55,3.55,0,0,1-.92.17,1.24,1.24,0,0,1-.95-.43,1.51,1.51,0,0,1-.4-1.07,1.34,1.34,0,0,1,.29-.91,2.68,2.68,0,0,1,1.24-.58Z"/><path class="cls-2" d="M285.05,218.21v3.16a9.91,9.91,0,0,1-1.62,5.38,5.17,5.17,0,0,1-4.64,2.58,5.42,5.42,0,0,1-3-.77,7.14,7.14,0,0,1-2.27-2.83,9.23,9.23,0,0,1-1.08-4.36v-3.16a9.93,9.93,0,0,1,1.62-5.37,5.16,5.16,0,0,1,4.64-2.58,5.37,5.37,0,0,1,2.93.76,7.25,7.25,0,0,1,2.29,2.81A9.31,9.31,0,0,1,285.05,218.21Zm-2.89,0a6.63,6.63,0,0,0-1.31-4.1,2.46,2.46,0,0,0-2.09-1,2.58,2.58,0,0,0-2.14,1.07,6.35,6.35,0,0,0-1.25,4v3.16a6.58,6.58,0,0,0,1.32,4.1,2.48,2.48,0,0,0,2.1,1,2.57,2.57,0,0,0,2.12-1.07,6.39,6.39,0,0,0,1.25-4Z"/><path class="cls-2" d="M233.25,193.15v3.16a9.84,9.84,0,0,1-1.63,5.38,5.17,5.17,0,0,1-4.64,2.58,5.42,5.42,0,0,1-2.95-.77,7.14,7.14,0,0,1-2.27-2.83,9.23,9.23,0,0,1-1.08-4.36v-3.16a9.93,9.93,0,0,1,1.62-5.37,5.16,5.16,0,0,1,4.64-2.58,5.35,5.35,0,0,1,2.93.76,7.25,7.25,0,0,1,2.29,2.81A9.32,9.32,0,0,1,233.25,193.15Zm-2.9,0a6.63,6.63,0,0,0-1.31-4.1,2.46,2.46,0,0,0-2.09-1,2.58,2.58,0,0,0-2.14,1.07,6.35,6.35,0,0,0-1.25,4v3.16a6.52,6.52,0,0,0,1.33,4.1,2.45,2.45,0,0,0,2.09,1,2.57,2.57,0,0,0,2.12-1.07,6.39,6.39,0,0,0,1.25-4Z"/><path class="cls-2" d="M245.7,185.2V201h2.9a2.25,2.25,0,0,1,1.49.4,1.37,1.37,0,0,1,.44,1,1.33,1.33,0,0,1-.44,1,2.2,2.2,0,0,1-1.49.4h-8.69a2.2,2.2,0,0,1-1.49-.4,1.34,1.34,0,0,1-.44-1,1.35,1.35,0,0,1,.44-1,2.25,2.25,0,0,1,1.49-.4h2.91V189l-2.58.67a3.55,3.55,0,0,1-.92.17,1.24,1.24,0,0,1-.95-.43,1.51,1.51,0,0,1-.4-1.07,1.34,1.34,0,0,1,.29-.91,2.68,2.68,0,0,1,1.24-.58Z"/><path class="cls-2" d="M267.79,193.15v3.16a9.84,9.84,0,0,1-1.63,5.38,5.17,5.17,0,0,1-4.64,2.58,5.42,5.42,0,0,1-2.95-.77,7.23,7.23,0,0,1-2.27-2.83,9.23,9.23,0,0,1-1.08-4.36v-3.16a9.93,9.93,0,0,1,1.62-5.37,5.16,5.16,0,0,1,4.64-2.58,5.35,5.35,0,0,1,2.93.76,7.25,7.25,0,0,1,2.29,2.81A9.32,9.32,0,0,1,267.79,193.15Zm-2.9,0a6.63,6.63,0,0,0-1.31-4.1,2.46,2.46,0,0,0-2.09-1,2.58,2.58,0,0,0-2.14,1.07,6.35,6.35,0,0,0-1.25,4v3.16a6.52,6.52,0,0,0,1.33,4.1,2.45,2.45,0,0,0,2.09,1,2.57,2.57,0,0,0,2.12-1.07,6.39,6.39,0,0,0,1.25-4Z"/><path class="cls-2" d="M285.05,193.15v3.16a9.91,9.91,0,0,1-1.62,5.38,5.17,5.17,0,0,1-4.64,2.58,5.42,5.42,0,0,1-3-.77,7.14,7.14,0,0,1-2.27-2.83,9.23,9.23,0,0,1-1.08-4.36v-3.16a9.93,9.93,0,0,1,1.62-5.37,5.16,5.16,0,0,1,4.64-2.58,5.37,5.37,0,0,1,2.93.76,7.25,7.25,0,0,1,2.29,2.81A9.31,9.31,0,0,1,285.05,193.15Zm-2.89,0a6.63,6.63,0,0,0-1.31-4.1,2.46,2.46,0,0,0-2.09-1,2.58,2.58,0,0,0-2.14,1.07,6.35,6.35,0,0,0-1.25,4v3.16a6.58,6.58,0,0,0,1.32,4.1,2.48,2.48,0,0,0,2.1,1,2.57,2.57,0,0,0,2.12-1.07,6.39,6.39,0,0,0,1.25-4Z"/><path class="cls-2" d="M298.84,159.86v15.77h2.91a2.17,2.17,0,0,1,1.48.4,1.35,1.35,0,0,1,.45,1.05,1.32,1.32,0,0,1-.45,1,2.17,2.17,0,0,1-1.48.4h-8.7a2.17,2.17,0,0,1-1.48-.4,1.34,1.34,0,0,1-.44-1.05,1.31,1.31,0,0,1,.44-1,2.17,2.17,0,0,1,1.48-.4H296v-12l-2.57.67a4,4,0,0,1-.93.17,1.27,1.27,0,0,1-.95-.44,1.54,1.54,0,0,1-.4-1.07,1.29,1.29,0,0,1,.3-.9,2.62,2.62,0,0,1,1.23-.59Z"/><path class="cls-2" d="M320.93,167.82V171a9.94,9.94,0,0,1-1.62,5.38,5.19,5.19,0,0,1-4.65,2.57,5.36,5.36,0,0,1-2.94-.76,7.31,7.31,0,0,1-2.28-2.83,9.37,9.37,0,0,1-1.07-4.36v-3.16a10,10,0,0,1,1.61-5.38,5.17,5.17,0,0,1,4.64-2.58,5.43,5.43,0,0,1,2.93.76,7.28,7.28,0,0,1,2.29,2.82A9.17,9.17,0,0,1,320.93,167.82Zm-2.89,0a6.7,6.7,0,0,0-1.31-4.11,2.5,2.5,0,0,0-2.09-1,2.58,2.58,0,0,0-2.14,1.07,6.38,6.38,0,0,0-1.25,4V171a6.6,6.6,0,0,0,1.32,4.1,2.45,2.45,0,0,0,2.09,1,2.57,2.57,0,0,0,2.13-1.07,6.35,6.35,0,0,0,1.25-4Z"/><path class="cls-2" d="M333.38,159.86v15.77h2.91a2.17,2.17,0,0,1,1.48.4,1.35,1.35,0,0,1,.45,1.05,1.32,1.32,0,0,1-.45,1,2.17,2.17,0,0,1-1.48.4h-8.7a2.17,2.17,0,0,1-1.48-.4,1.34,1.34,0,0,1-.44-1.05,1.31,1.31,0,0,1,.44-1,2.17,2.17,0,0,1,1.48-.4h2.91v-12l-2.57.67a4,4,0,0,1-.93.17,1.27,1.27,0,0,1-.95-.44,1.54,1.54,0,0,1-.4-1.07,1.29,1.29,0,0,1,.3-.9,2.62,2.62,0,0,1,1.23-.59Z"/><path class="cls-2" d="M355.47,167.82V171a9.94,9.94,0,0,1-1.62,5.38,5.2,5.2,0,0,1-4.65,2.57,5.36,5.36,0,0,1-2.94-.76,7.31,7.31,0,0,1-2.28-2.83,9.37,9.37,0,0,1-1.07-4.36v-3.16a10,10,0,0,1,1.61-5.38,5.17,5.17,0,0,1,4.64-2.58,5.43,5.43,0,0,1,2.93.76,7.28,7.28,0,0,1,2.29,2.82A9.17,9.17,0,0,1,355.47,167.82Zm-2.89,0a6.7,6.7,0,0,0-1.31-4.11,2.52,2.52,0,0,0-2.1-1,2.58,2.58,0,0,0-2.13,1.07,6.38,6.38,0,0,0-1.25,4V171a6.6,6.6,0,0,0,1.32,4.1,2.45,2.45,0,0,0,2.09,1,2.55,2.55,0,0,0,2.12-1.07,6.29,6.29,0,0,0,1.26-4Z"/><path class="cls-2" d="M303.66,218.21v3.16a9.91,9.91,0,0,1-1.62,5.38,5.18,5.18,0,0,1-4.65,2.58,5.36,5.36,0,0,1-2.94-.77,7.24,7.24,0,0,1-2.28-2.83,9.34,9.34,0,0,1-1.07-4.36v-3.16a10,10,0,0,1,1.61-5.37,5.17,5.17,0,0,1,4.64-2.58,5.35,5.35,0,0,1,2.93.76,7.16,7.16,0,0,1,2.29,2.81A9.2,9.2,0,0,1,303.66,218.21Zm-2.89,0a6.69,6.69,0,0,0-1.31-4.1,2.48,2.48,0,0,0-2.09-1,2.56,2.56,0,0,0-2.14,1.07,6.35,6.35,0,0,0-1.25,4v3.16a6.58,6.58,0,0,0,1.32,4.1,2.46,2.46,0,0,0,2.09,1,2.59,2.59,0,0,0,2.13-1.07,6.39,6.39,0,0,0,1.25-4Z"/><path class="cls-2" d="M316.11,210.26V226H319a2.22,2.22,0,0,1,1.48.4,1.35,1.35,0,0,1,.45,1.05,1.31,1.31,0,0,1-.45,1,2.17,2.17,0,0,1-1.48.4h-8.7a2.17,2.17,0,0,1-1.48-.4,1.3,1.3,0,0,1-.44-1,1.32,1.32,0,0,1,.44-1,2.22,2.22,0,0,1,1.48-.4h2.91V214l-2.57.67a3.54,3.54,0,0,1-.93.17,1.26,1.26,0,0,1-1-.43,1.56,1.56,0,0,1-.4-1.07,1.3,1.3,0,0,1,.3-.91,2.63,2.63,0,0,1,1.23-.58Z"/><path class="cls-2" d="M333.38,210.26V226h2.91a2.22,2.22,0,0,1,1.48.4,1.35,1.35,0,0,1,.45,1.05,1.31,1.31,0,0,1-.45,1,2.17,2.17,0,0,1-1.48.4h-8.7a2.17,2.17,0,0,1-1.48-.4,1.3,1.3,0,0,1-.44-1,1.32,1.32,0,0,1,.44-1,2.22,2.22,0,0,1,1.48-.4h2.91V214l-2.57.67a3.54,3.54,0,0,1-.93.17,1.26,1.26,0,0,1-.95-.43,1.56,1.56,0,0,1-.4-1.07,1.3,1.3,0,0,1,.3-.91,2.63,2.63,0,0,1,1.23-.58Z"/><path class="cls-2" d="M355.47,218.21v3.16a9.91,9.91,0,0,1-1.62,5.38,5.19,5.19,0,0,1-4.65,2.58,5.36,5.36,0,0,1-2.94-.77,7.24,7.24,0,0,1-2.28-2.83,9.34,9.34,0,0,1-1.07-4.36v-3.16a10,10,0,0,1,1.61-5.37,5.17,5.17,0,0,1,4.64-2.58,5.35,5.35,0,0,1,2.93.76,7.16,7.16,0,0,1,2.29,2.81A9.2,9.2,0,0,1,355.47,218.21Zm-2.89,0a6.69,6.69,0,0,0-1.31-4.1,2.49,2.49,0,0,0-2.1-1,2.55,2.55,0,0,0-2.13,1.07,6.35,6.35,0,0,0-1.25,4v3.16a6.58,6.58,0,0,0,1.32,4.1,2.46,2.46,0,0,0,2.09,1,2.57,2.57,0,0,0,2.12-1.07,6.34,6.34,0,0,0,1.26-4Z"/><path class="cls-2" d="M303.66,193.15v3.16a9.91,9.91,0,0,1-1.62,5.38,5.18,5.18,0,0,1-4.65,2.58,5.36,5.36,0,0,1-2.94-.77,7.24,7.24,0,0,1-2.28-2.83,9.34,9.34,0,0,1-1.07-4.36v-3.16a10,10,0,0,1,1.61-5.37,5.17,5.17,0,0,1,4.64-2.58,5.35,5.35,0,0,1,2.93.76,7.16,7.16,0,0,1,2.29,2.81A9.2,9.2,0,0,1,303.66,193.15Zm-2.89,0a6.69,6.69,0,0,0-1.31-4.1,2.48,2.48,0,0,0-2.09-1,2.56,2.56,0,0,0-2.14,1.07,6.35,6.35,0,0,0-1.25,4v3.16a6.58,6.58,0,0,0,1.32,4.1,2.46,2.46,0,0,0,2.09,1,2.59,2.59,0,0,0,2.13-1.07,6.39,6.39,0,0,0,1.25-4Z"/><path class="cls-2" d="M316.11,185.2V201H319a2.22,2.22,0,0,1,1.48.4,1.35,1.35,0,0,1,.45,1,1.31,1.31,0,0,1-.45,1,2.17,2.17,0,0,1-1.48.4h-8.7a2.17,2.17,0,0,1-1.48-.4,1.3,1.3,0,0,1-.44-1,1.32,1.32,0,0,1,.44-1,2.22,2.22,0,0,1,1.48-.4h2.91V189l-2.57.67a3.54,3.54,0,0,1-.93.17,1.26,1.26,0,0,1-1-.43,1.56,1.56,0,0,1-.4-1.07,1.3,1.3,0,0,1,.3-.91,2.63,2.63,0,0,1,1.23-.58Z"/><path class="cls-2" d="M338.2,193.15v3.16a9.91,9.91,0,0,1-1.62,5.38,5.18,5.18,0,0,1-4.65,2.58,5.36,5.36,0,0,1-2.94-.77,7.24,7.24,0,0,1-2.28-2.83,9.34,9.34,0,0,1-1.07-4.36v-3.16a10,10,0,0,1,1.61-5.37,5.17,5.17,0,0,1,4.64-2.58,5.35,5.35,0,0,1,2.93.76,7.16,7.16,0,0,1,2.29,2.81A9.2,9.2,0,0,1,338.2,193.15Zm-2.89,0a6.69,6.69,0,0,0-1.31-4.1,2.48,2.48,0,0,0-2.09-1,2.56,2.56,0,0,0-2.14,1.07,6.35,6.35,0,0,0-1.25,4v3.16a6.58,6.58,0,0,0,1.32,4.1,2.46,2.46,0,0,0,2.09,1,2.59,2.59,0,0,0,2.13-1.07,6.39,6.39,0,0,0,1.25-4Z"/><path class="cls-2" d="M355.47,193.15v3.16a9.91,9.91,0,0,1-1.62,5.38,5.19,5.19,0,0,1-4.65,2.58,5.36,5.36,0,0,1-2.94-.77,7.24,7.24,0,0,1-2.28-2.83,9.34,9.34,0,0,1-1.07-4.36v-3.16a10,10,0,0,1,1.61-5.37,5.17,5.17,0,0,1,4.64-2.58,5.35,5.35,0,0,1,2.93.76,7.16,7.16,0,0,1,2.29,2.81A9.2,9.2,0,0,1,355.47,193.15Zm-2.89,0a6.69,6.69,0,0,0-1.31-4.1,2.49,2.49,0,0,0-2.1-1,2.55,2.55,0,0,0-2.13,1.07,6.35,6.35,0,0,0-1.25,4v3.16a6.58,6.58,0,0,0,1.32,4.1,2.46,2.46,0,0,0,2.09,1,2.57,2.57,0,0,0,2.12-1.07,6.34,6.34,0,0,0,1.26-4Z"/><path class="cls-2" d="M87.63,236.07v15.77h2.91a2.2,2.2,0,0,1,1.49.4,1.34,1.34,0,0,1,.44,1,1.35,1.35,0,0,1-.44,1,2.25,2.25,0,0,1-1.49.4H81.85a2.25,2.25,0,0,1-1.49-.4,1.37,1.37,0,0,1-.44-1,1.33,1.33,0,0,1,.44-1,2.2,2.2,0,0,1,1.49-.4h2.9v-12l-2.57.68a4,4,0,0,1-.92.17,1.24,1.24,0,0,1-1-.44,1.51,1.51,0,0,1-.4-1.07,1.33,1.33,0,0,1,.29-.9,2.67,2.67,0,0,1,1.24-.59Z"/><path class="cls-2" d="M109.72,244v3.17a10,10,0,0,1-1.62,5.38,5.18,5.18,0,0,1-4.64,2.57,5.42,5.42,0,0,1-2.95-.77,7.17,7.17,0,0,1-2.27-2.82,9.26,9.26,0,0,1-1.08-4.36V244a10,10,0,0,1,1.62-5.37,5.16,5.16,0,0,1,4.64-2.58,5.37,5.37,0,0,1,2.93.76,7.37,7.37,0,0,1,2.29,2.82A9.27,9.27,0,0,1,109.72,244Zm-2.89,0a6.63,6.63,0,0,0-1.31-4.1,2.49,2.49,0,0,0-2.09-1,2.61,2.61,0,0,0-2.14,1.07,6.37,6.37,0,0,0-1.25,4v3.17a6.6,6.6,0,0,0,1.32,4.1,2.47,2.47,0,0,0,2.1,1,2.57,2.57,0,0,0,2.12-1.07,6.37,6.37,0,0,0,1.25-4Z"/><path class="cls-2" d="M122.17,236.07v15.77h2.91a2.2,2.2,0,0,1,1.49.4,1.34,1.34,0,0,1,.44,1,1.35,1.35,0,0,1-.44,1,2.25,2.25,0,0,1-1.49.4h-8.69a2.25,2.25,0,0,1-1.49-.4,1.37,1.37,0,0,1-.44-1,1.33,1.33,0,0,1,.44-1,2.2,2.2,0,0,1,1.49-.4h2.9v-12l-2.57.68a4,4,0,0,1-.92.17,1.24,1.24,0,0,1-1-.44,1.51,1.51,0,0,1-.4-1.07,1.33,1.33,0,0,1,.29-.9,2.67,2.67,0,0,1,1.24-.59Z"/><path class="cls-2" d="M144.26,244v3.17a10,10,0,0,1-1.62,5.38,5.18,5.18,0,0,1-4.64,2.57,5.4,5.4,0,0,1-2.95-.77,7.17,7.17,0,0,1-2.27-2.82,9.26,9.26,0,0,1-1.08-4.36V244a10,10,0,0,1,1.62-5.37,5.16,5.16,0,0,1,4.63-2.58,5.32,5.32,0,0,1,2.93.76,7.29,7.29,0,0,1,2.3,2.82A9.27,9.27,0,0,1,144.26,244Zm-2.89,0a6.69,6.69,0,0,0-1.31-4.1,2.49,2.49,0,0,0-2.09-1,2.61,2.61,0,0,0-2.14,1.07,6.37,6.37,0,0,0-1.25,4v3.17a6.6,6.6,0,0,0,1.32,4.1,2.47,2.47,0,0,0,2.1,1,2.57,2.57,0,0,0,2.12-1.07,6.37,6.37,0,0,0,1.25-4Z"/><path class="cls-2" d="M92.45,294.42v3.16A9.94,9.94,0,0,1,90.83,303a5.16,5.16,0,0,1-4.64,2.57,5.42,5.42,0,0,1-3-.76A7.14,7.14,0,0,1,81,301.94a9.23,9.23,0,0,1-1.08-4.36v-3.16A10,10,0,0,1,81.51,289a5.16,5.16,0,0,1,4.64-2.58,5.46,5.46,0,0,1,2.93.76A7.37,7.37,0,0,1,91.37,290,9.28,9.28,0,0,1,92.45,294.42Zm-2.89,0a6.61,6.61,0,0,0-1.31-4.1,2.46,2.46,0,0,0-2.09-1A2.6,2.6,0,0,0,84,290.41a6.39,6.39,0,0,0-1.25,4v3.16a6.6,6.6,0,0,0,1.32,4.1,2.47,2.47,0,0,0,2.1,1,2.55,2.55,0,0,0,2.12-1.07,6.35,6.35,0,0,0,1.25-4Z"/><path class="cls-2" d="M104.9,286.46v15.77h2.91a2.2,2.2,0,0,1,1.49.4,1.37,1.37,0,0,1,.44,1.05,1.34,1.34,0,0,1-.44,1,2.2,2.2,0,0,1-1.49.4H99.12a2.2,2.2,0,0,1-1.49-.4,1.45,1.45,0,0,1,0-2.08,2.2,2.2,0,0,1,1.49-.4H102v-12l-2.57.67a4,4,0,0,1-.92.17,1.24,1.24,0,0,1-1-.44,1.49,1.49,0,0,1-.4-1.06,1.34,1.34,0,0,1,.29-.91,2.68,2.68,0,0,1,1.24-.58Z"/><path class="cls-2" d="M122.17,286.46v15.77h2.91a2.2,2.2,0,0,1,1.49.4,1.37,1.37,0,0,1,.44,1.05,1.34,1.34,0,0,1-.44,1,2.2,2.2,0,0,1-1.49.4h-8.69a2.2,2.2,0,0,1-1.49-.4,1.45,1.45,0,0,1,0-2.08,2.2,2.2,0,0,1,1.49-.4h2.9v-12l-2.57.67a4,4,0,0,1-.92.17,1.24,1.24,0,0,1-1-.44,1.49,1.49,0,0,1-.4-1.06,1.34,1.34,0,0,1,.29-.91,2.68,2.68,0,0,1,1.24-.58Z"/><path class="cls-2" d="M144.26,294.42v3.16a9.94,9.94,0,0,1-1.62,5.38,5.16,5.16,0,0,1-4.64,2.57,5.39,5.39,0,0,1-2.95-.76,7.14,7.14,0,0,1-2.27-2.83,9.23,9.23,0,0,1-1.08-4.36v-3.16a10,10,0,0,1,1.62-5.38,5.16,5.16,0,0,1,4.63-2.58,5.41,5.41,0,0,1,2.93.76,7.29,7.29,0,0,1,2.3,2.82A9.28,9.28,0,0,1,144.26,294.42Zm-2.89,0a6.67,6.67,0,0,0-1.31-4.1,2.46,2.46,0,0,0-2.09-1,2.6,2.6,0,0,0-2.14,1.06,6.39,6.39,0,0,0-1.25,4v3.16a6.6,6.6,0,0,0,1.32,4.1,2.47,2.47,0,0,0,2.1,1,2.55,2.55,0,0,0,2.12-1.07,6.35,6.35,0,0,0,1.25-4Z"/><path class="cls-2" d="M92.45,269.36v3.16a9.94,9.94,0,0,1-1.62,5.38,5.16,5.16,0,0,1-4.64,2.57,5.42,5.42,0,0,1-3-.76A7.14,7.14,0,0,1,81,276.88a9.23,9.23,0,0,1-1.08-4.36v-3.16A10,10,0,0,1,81.51,264a5.16,5.16,0,0,1,4.64-2.58,5.46,5.46,0,0,1,2.93.76A7.37,7.37,0,0,1,91.37,265,9.28,9.28,0,0,1,92.45,269.36Zm-2.89,0a6.61,6.61,0,0,0-1.31-4.1,2.46,2.46,0,0,0-2.09-1A2.6,2.6,0,0,0,84,265.35a6.39,6.39,0,0,0-1.25,4v3.16a6.6,6.6,0,0,0,1.32,4.1,2.47,2.47,0,0,0,2.1,1,2.55,2.55,0,0,0,2.12-1.07,6.35,6.35,0,0,0,1.25-4Z"/><path class="cls-2" d="M104.9,261.4v15.77h2.91a2.2,2.2,0,0,1,1.49.4,1.37,1.37,0,0,1,.44,1.05,1.34,1.34,0,0,1-.44,1,2.2,2.2,0,0,1-1.49.4H99.12a2.2,2.2,0,0,1-1.49-.4,1.45,1.45,0,0,1,0-2.08,2.2,2.2,0,0,1,1.49-.4H102v-12l-2.57.67a4,4,0,0,1-.92.17,1.24,1.24,0,0,1-1-.44,1.49,1.49,0,0,1-.4-1.06,1.34,1.34,0,0,1,.29-.91,2.68,2.68,0,0,1,1.24-.58Z"/><path class="cls-2" d="M127,269.36v3.16a9.94,9.94,0,0,1-1.62,5.38,5.16,5.16,0,0,1-4.64,2.57,5.42,5.42,0,0,1-3-.76,7.14,7.14,0,0,1-2.27-2.83,9.23,9.23,0,0,1-1.08-4.36v-3.16a10,10,0,0,1,1.62-5.38,5.16,5.16,0,0,1,4.64-2.58,5.46,5.46,0,0,1,2.93.76,7.37,7.37,0,0,1,2.29,2.82A9.28,9.28,0,0,1,127,269.36Zm-2.89,0a6.61,6.61,0,0,0-1.31-4.1,2.46,2.46,0,0,0-2.09-1,2.6,2.6,0,0,0-2.14,1.06,6.39,6.39,0,0,0-1.25,4v3.16a6.6,6.6,0,0,0,1.32,4.1,2.47,2.47,0,0,0,2.1,1,2.55,2.55,0,0,0,2.12-1.07,6.35,6.35,0,0,0,1.25-4Z"/><path class="cls-2" d="M144.26,269.36v3.16a9.94,9.94,0,0,1-1.62,5.38,5.16,5.16,0,0,1-4.64,2.57,5.39,5.39,0,0,1-2.95-.76,7.14,7.14,0,0,1-2.27-2.83,9.23,9.23,0,0,1-1.08-4.36v-3.16a10,10,0,0,1,1.62-5.38A5.16,5.16,0,0,1,138,261.4a5.41,5.41,0,0,1,2.93.76,7.29,7.29,0,0,1,2.3,2.82A9.28,9.28,0,0,1,144.26,269.36Zm-2.89,0a6.67,6.67,0,0,0-1.31-4.1,2.46,2.46,0,0,0-2.09-1,2.6,2.6,0,0,0-2.14,1.06,6.39,6.39,0,0,0-1.25,4v3.16a6.6,6.6,0,0,0,1.32,4.1,2.47,2.47,0,0,0,2.1,1,2.55,2.55,0,0,0,2.12-1.07,6.35,6.35,0,0,0,1.25-4Z"/><path class="cls-2" d="M158.05,236.07v15.77H161a2.17,2.17,0,0,1,1.48.4,1.3,1.3,0,0,1,.44,1,1.32,1.32,0,0,1-.44,1,2.22,2.22,0,0,1-1.48.4h-8.7a2.22,2.22,0,0,1-1.48-.4,1.34,1.34,0,0,1-.44-1,1.3,1.3,0,0,1,.44-1,2.17,2.17,0,0,1,1.48-.4h2.91v-12l-2.57.68a4,4,0,0,1-.93.17,1.27,1.27,0,0,1-.95-.44,1.51,1.51,0,0,1-.4-1.07,1.29,1.29,0,0,1,.3-.9,2.62,2.62,0,0,1,1.23-.59Z"/><path class="cls-2" d="M180.14,244v3.17a10,10,0,0,1-1.62,5.38,5.2,5.2,0,0,1-4.65,2.57,5.36,5.36,0,0,1-2.94-.77,7.27,7.27,0,0,1-2.28-2.82,9.37,9.37,0,0,1-1.07-4.36V244a10,10,0,0,1,1.61-5.37,5.17,5.17,0,0,1,4.64-2.58,5.35,5.35,0,0,1,2.93.76,7.28,7.28,0,0,1,2.29,2.82A9.16,9.16,0,0,1,180.14,244Zm-2.89,0a6.69,6.69,0,0,0-1.31-4.1,2.52,2.52,0,0,0-2.1-1,2.58,2.58,0,0,0-2.13,1.07,6.37,6.37,0,0,0-1.25,4v3.17a6.6,6.6,0,0,0,1.32,4.1,2.45,2.45,0,0,0,2.09,1,2.57,2.57,0,0,0,2.12-1.07,6.31,6.31,0,0,0,1.26-4Z"/><path class="cls-2" d="M192.59,236.07v15.77h2.91a2.17,2.17,0,0,1,1.48.4,1.3,1.3,0,0,1,.44,1,1.32,1.32,0,0,1-.44,1,2.22,2.22,0,0,1-1.48.4h-8.7a2.22,2.22,0,0,1-1.48-.4,1.34,1.34,0,0,1-.44-1,1.3,1.3,0,0,1,.44-1,2.17,2.17,0,0,1,1.48-.4h2.91v-12l-2.57.68a4,4,0,0,1-.93.17,1.27,1.27,0,0,1-1-.44,1.51,1.51,0,0,1-.4-1.07,1.29,1.29,0,0,1,.3-.9,2.62,2.62,0,0,1,1.23-.59Z"/><path class="cls-2" d="M214.68,244v3.17a10,10,0,0,1-1.62,5.38,5.2,5.2,0,0,1-4.65,2.57,5.36,5.36,0,0,1-2.94-.77,7.27,7.27,0,0,1-2.28-2.82,9.25,9.25,0,0,1-1.07-4.36V244a10,10,0,0,1,1.61-5.37,5.17,5.17,0,0,1,4.64-2.58,5.35,5.35,0,0,1,2.93.76,7.37,7.37,0,0,1,2.29,2.82A9.16,9.16,0,0,1,214.68,244Zm-2.9,0a6.69,6.69,0,0,0-1.3-4.1,2.52,2.52,0,0,0-2.1-1,2.58,2.58,0,0,0-2.13,1.07,6.31,6.31,0,0,0-1.25,4v3.17a6.6,6.6,0,0,0,1.32,4.1,2.45,2.45,0,0,0,2.09,1,2.57,2.57,0,0,0,2.12-1.07,6.31,6.31,0,0,0,1.25-4Z"/><path class="cls-2" d="M162.87,294.42v3.16a9.94,9.94,0,0,1-1.62,5.38,5.18,5.18,0,0,1-4.65,2.57,5.36,5.36,0,0,1-2.94-.76,7.24,7.24,0,0,1-2.28-2.83,9.34,9.34,0,0,1-1.07-4.36v-3.16a10,10,0,0,1,1.61-5.38,5.17,5.17,0,0,1,4.64-2.58,5.43,5.43,0,0,1,2.93.76,7.28,7.28,0,0,1,2.29,2.82A9.17,9.17,0,0,1,162.87,294.42Zm-2.89,0a6.67,6.67,0,0,0-1.31-4.1,2.49,2.49,0,0,0-2.1-1,2.57,2.57,0,0,0-2.13,1.06,6.39,6.39,0,0,0-1.25,4v3.16a6.6,6.6,0,0,0,1.32,4.1,2.45,2.45,0,0,0,2.09,1,2.55,2.55,0,0,0,2.12-1.07,6.29,6.29,0,0,0,1.26-4Z"/><path class="cls-2" d="M175.32,286.46v15.77h2.91a2.17,2.17,0,0,1,1.48.4,1.34,1.34,0,0,1,.44,1.05,1.31,1.31,0,0,1-.44,1,2.17,2.17,0,0,1-1.48.4h-8.7a2.17,2.17,0,0,1-1.48-.4,1.33,1.33,0,0,1-.44-1,1.31,1.31,0,0,1,.44-1,2.17,2.17,0,0,1,1.48-.4h2.91v-12l-2.57.67a4,4,0,0,1-.93.17,1.27,1.27,0,0,1-.95-.44,1.49,1.49,0,0,1-.4-1.06,1.3,1.3,0,0,1,.3-.91,2.63,2.63,0,0,1,1.23-.58Z"/><path class="cls-2" d="M192.59,286.46v15.77h2.91a2.17,2.17,0,0,1,1.48.4,1.34,1.34,0,0,1,.44,1.05,1.31,1.31,0,0,1-.44,1,2.17,2.17,0,0,1-1.48.4h-8.7a2.17,2.17,0,0,1-1.48-.4,1.33,1.33,0,0,1-.44-1,1.31,1.31,0,0,1,.44-1,2.17,2.17,0,0,1,1.48-.4h2.91v-12l-2.57.67a4,4,0,0,1-.93.17,1.27,1.27,0,0,1-1-.44,1.49,1.49,0,0,1-.4-1.06,1.3,1.3,0,0,1,.3-.91,2.63,2.63,0,0,1,1.23-.58Z"/><path class="cls-2" d="M214.68,294.42v3.16a9.94,9.94,0,0,1-1.62,5.38,5.18,5.18,0,0,1-4.65,2.57,5.36,5.36,0,0,1-2.94-.76,7.24,7.24,0,0,1-2.28-2.83,9.22,9.22,0,0,1-1.07-4.36v-3.16a10,10,0,0,1,1.61-5.38,5.17,5.17,0,0,1,4.64-2.58,5.43,5.43,0,0,1,2.93.76,7.37,7.37,0,0,1,2.29,2.82A9.17,9.17,0,0,1,214.68,294.42Zm-2.9,0a6.67,6.67,0,0,0-1.3-4.1,2.49,2.49,0,0,0-2.1-1,2.57,2.57,0,0,0-2.13,1.06,6.33,6.33,0,0,0-1.25,4v3.16a6.6,6.6,0,0,0,1.32,4.1,2.45,2.45,0,0,0,2.09,1,2.55,2.55,0,0,0,2.12-1.07,6.29,6.29,0,0,0,1.25-4Z"/><path class="cls-2" d="M162.87,269.36v3.16a9.94,9.94,0,0,1-1.62,5.38,5.18,5.18,0,0,1-4.65,2.57,5.36,5.36,0,0,1-2.94-.76,7.24,7.24,0,0,1-2.28-2.83,9.34,9.34,0,0,1-1.07-4.36v-3.16a10,10,0,0,1,1.61-5.38,5.17,5.17,0,0,1,4.64-2.58,5.43,5.43,0,0,1,2.93.76,7.28,7.28,0,0,1,2.29,2.82A9.17,9.17,0,0,1,162.87,269.36Zm-2.89,0a6.67,6.67,0,0,0-1.31-4.1,2.49,2.49,0,0,0-2.1-1,2.57,2.57,0,0,0-2.13,1.06,6.39,6.39,0,0,0-1.25,4v3.16a6.6,6.6,0,0,0,1.32,4.1,2.45,2.45,0,0,0,2.09,1,2.55,2.55,0,0,0,2.12-1.07,6.29,6.29,0,0,0,1.26-4Z"/><path class="cls-2" d="M175.32,261.4v15.77h2.91a2.17,2.17,0,0,1,1.48.4,1.34,1.34,0,0,1,.44,1.05,1.31,1.31,0,0,1-.44,1,2.17,2.17,0,0,1-1.48.4h-8.7a2.17,2.17,0,0,1-1.48-.4,1.33,1.33,0,0,1-.44-1,1.31,1.31,0,0,1,.44-1,2.17,2.17,0,0,1,1.48-.4h2.91v-12l-2.57.67a4,4,0,0,1-.93.17,1.27,1.27,0,0,1-.95-.44,1.49,1.49,0,0,1-.4-1.06,1.3,1.3,0,0,1,.3-.91,2.63,2.63,0,0,1,1.23-.58Z"/><path class="cls-2" d="M197.41,269.36v3.16a9.94,9.94,0,0,1-1.62,5.38,5.17,5.17,0,0,1-4.65,2.57,5.36,5.36,0,0,1-2.94-.76,7.24,7.24,0,0,1-2.28-2.83,9.34,9.34,0,0,1-1.07-4.36v-3.16a10,10,0,0,1,1.61-5.38,5.17,5.17,0,0,1,4.64-2.58,5.43,5.43,0,0,1,2.93.76,7.28,7.28,0,0,1,2.29,2.82A9.17,9.17,0,0,1,197.41,269.36Zm-2.89,0a6.67,6.67,0,0,0-1.31-4.1,2.49,2.49,0,0,0-2.1-1,2.57,2.57,0,0,0-2.13,1.06,6.39,6.39,0,0,0-1.25,4v3.16a6.6,6.6,0,0,0,1.32,4.1,2.45,2.45,0,0,0,2.09,1,2.55,2.55,0,0,0,2.12-1.07,6.29,6.29,0,0,0,1.26-4Z"/><path class="cls-2" d="M214.68,269.36v3.16a9.94,9.94,0,0,1-1.62,5.38,5.18,5.18,0,0,1-4.65,2.57,5.36,5.36,0,0,1-2.94-.76,7.24,7.24,0,0,1-2.28-2.83,9.22,9.22,0,0,1-1.07-4.36v-3.16a10,10,0,0,1,1.61-5.38,5.17,5.17,0,0,1,4.64-2.58,5.43,5.43,0,0,1,2.93.76,7.37,7.37,0,0,1,2.29,2.82A9.17,9.17,0,0,1,214.68,269.36Zm-2.9,0a6.67,6.67,0,0,0-1.3-4.1,2.49,2.49,0,0,0-2.1-1,2.57,2.57,0,0,0-2.13,1.06,6.33,6.33,0,0,0-1.25,4v3.16a6.6,6.6,0,0,0,1.32,4.1,2.45,2.45,0,0,0,2.09,1,2.55,2.55,0,0,0,2.12-1.07,6.29,6.29,0,0,0,1.25-4Z"/><path class="cls-2" d="M87.65,159.86v15.77h2.91A2.17,2.17,0,0,1,92,176a1.34,1.34,0,0,1,.44,1.05,1.31,1.31,0,0,1-.44,1,2.17,2.17,0,0,1-1.48.4h-8.7a2.17,2.17,0,0,1-1.48-.4,1.35,1.35,0,0,1-.45-1.05,1.32,1.32,0,0,1,.45-1,2.17,2.17,0,0,1,1.48-.4h2.91v-12l-2.57.67a4.11,4.11,0,0,1-.93.17,1.25,1.25,0,0,1-1-.44,1.5,1.5,0,0,1-.4-1.07,1.29,1.29,0,0,1,.3-.9,2.57,2.57,0,0,1,1.23-.59Z"/><path class="cls-2" d="M109.74,167.82V171a9.94,9.94,0,0,1-1.62,5.38,5.2,5.2,0,0,1-4.65,2.57,5.36,5.36,0,0,1-2.94-.76,7.31,7.31,0,0,1-2.28-2.83A9.25,9.25,0,0,1,97.18,171v-3.16a10,10,0,0,1,1.61-5.38,5.17,5.17,0,0,1,4.64-2.58,5.43,5.43,0,0,1,2.93.76,7.37,7.37,0,0,1,2.29,2.82A9.17,9.17,0,0,1,109.74,167.82Zm-2.9,0a6.69,6.69,0,0,0-1.3-4.11,2.52,2.52,0,0,0-2.1-1,2.58,2.58,0,0,0-2.13,1.07,6.32,6.32,0,0,0-1.25,4V171a6.6,6.6,0,0,0,1.32,4.1,2.45,2.45,0,0,0,2.09,1,2.55,2.55,0,0,0,2.12-1.07,6.29,6.29,0,0,0,1.25-4Z"/><path class="cls-2" d="M122.19,159.86v15.77h2.91a2.17,2.17,0,0,1,1.48.4,1.34,1.34,0,0,1,.44,1.05,1.31,1.31,0,0,1-.44,1,2.17,2.17,0,0,1-1.48.4h-8.7a2.17,2.17,0,0,1-1.48-.4,1.35,1.35,0,0,1-.45-1.05,1.32,1.32,0,0,1,.45-1,2.17,2.17,0,0,1,1.48-.4h2.91v-12l-2.57.67a4.11,4.11,0,0,1-.93.17,1.25,1.25,0,0,1-1-.44,1.5,1.5,0,0,1-.4-1.07,1.29,1.29,0,0,1,.3-.9,2.62,2.62,0,0,1,1.23-.59Z"/><path class="cls-2" d="M144.28,167.82V171a9.87,9.87,0,0,1-1.63,5.38,5.18,5.18,0,0,1-4.64,2.57,5.36,5.36,0,0,1-2.94-.76,7.31,7.31,0,0,1-2.28-2.83,9.25,9.25,0,0,1-1.07-4.36v-3.16a10,10,0,0,1,1.61-5.38,5.16,5.16,0,0,1,4.64-2.58,5.43,5.43,0,0,1,2.93.76,7.37,7.37,0,0,1,2.29,2.82A9.29,9.29,0,0,1,144.28,167.82Zm-2.9,0a6.69,6.69,0,0,0-1.3-4.11,2.52,2.52,0,0,0-2.1-1,2.58,2.58,0,0,0-2.13,1.07,6.32,6.32,0,0,0-1.25,4V171a6.6,6.6,0,0,0,1.32,4.1,2.44,2.44,0,0,0,2.09,1,2.55,2.55,0,0,0,2.12-1.07,6.29,6.29,0,0,0,1.25-4Z"/><path class="cls-2" d="M92.47,218.21v3.16a9.91,9.91,0,0,1-1.62,5.38,5.19,5.19,0,0,1-4.65,2.58,5.36,5.36,0,0,1-2.94-.77A7.24,7.24,0,0,1,81,225.73a9.22,9.22,0,0,1-1.07-4.36v-3.16a10,10,0,0,1,1.61-5.37,5.17,5.17,0,0,1,4.64-2.58,5.35,5.35,0,0,1,2.93.76,7.25,7.25,0,0,1,2.29,2.81A9.2,9.2,0,0,1,92.47,218.21Zm-2.9,0a6.69,6.69,0,0,0-1.3-4.1,2.49,2.49,0,0,0-2.1-1A2.55,2.55,0,0,0,84,214.21a6.29,6.29,0,0,0-1.25,4v3.16a6.58,6.58,0,0,0,1.32,4.1,2.46,2.46,0,0,0,2.09,1,2.57,2.57,0,0,0,2.12-1.07,6.33,6.33,0,0,0,1.25-4Z"/><path class="cls-2" d="M104.92,210.26V226h2.91a2.22,2.22,0,0,1,1.48.4,1.34,1.34,0,0,1,.44,1.05,1.3,1.3,0,0,1-.44,1,2.17,2.17,0,0,1-1.48.4h-8.7a2.17,2.17,0,0,1-1.48-.4,1.31,1.31,0,0,1-.45-1,1.33,1.33,0,0,1,.45-1,2.22,2.22,0,0,1,1.48-.4H102V214l-2.57.67a3.61,3.61,0,0,1-.93.17,1.24,1.24,0,0,1-1-.43,1.51,1.51,0,0,1-.4-1.07,1.3,1.3,0,0,1,.3-.91,2.58,2.58,0,0,1,1.23-.58Z"/><path class="cls-2" d="M122.19,210.26V226h2.91a2.22,2.22,0,0,1,1.48.4,1.34,1.34,0,0,1,.44,1.05,1.3,1.3,0,0,1-.44,1,2.17,2.17,0,0,1-1.48.4h-8.7a2.17,2.17,0,0,1-1.48-.4,1.31,1.31,0,0,1-.45-1,1.33,1.33,0,0,1,.45-1,2.22,2.22,0,0,1,1.48-.4h2.91V214l-2.57.67a3.61,3.61,0,0,1-.93.17,1.24,1.24,0,0,1-1-.43,1.51,1.51,0,0,1-.4-1.07,1.3,1.3,0,0,1,.3-.91,2.63,2.63,0,0,1,1.23-.58Z"/><path class="cls-2" d="M144.28,218.21v3.16a9.84,9.84,0,0,1-1.63,5.38,5.17,5.17,0,0,1-4.64,2.58,5.36,5.36,0,0,1-2.94-.77,7.24,7.24,0,0,1-2.28-2.83,9.22,9.22,0,0,1-1.07-4.36v-3.16a9.92,9.92,0,0,1,1.61-5.37,5.16,5.16,0,0,1,4.64-2.58,5.35,5.35,0,0,1,2.93.76,7.25,7.25,0,0,1,2.29,2.81A9.32,9.32,0,0,1,144.28,218.21Zm-2.9,0a6.69,6.69,0,0,0-1.3-4.1,2.49,2.49,0,0,0-2.1-1,2.55,2.55,0,0,0-2.13,1.07,6.29,6.29,0,0,0-1.25,4v3.16a6.58,6.58,0,0,0,1.32,4.1,2.45,2.45,0,0,0,2.09,1,2.57,2.57,0,0,0,2.12-1.07,6.33,6.33,0,0,0,1.25-4Z"/><path class="cls-2" d="M92.47,193.15v3.16a9.91,9.91,0,0,1-1.62,5.38,5.19,5.19,0,0,1-4.65,2.58,5.36,5.36,0,0,1-2.94-.77A7.24,7.24,0,0,1,81,200.67a9.22,9.22,0,0,1-1.07-4.36v-3.16a10,10,0,0,1,1.61-5.37,5.17,5.17,0,0,1,4.64-2.58,5.35,5.35,0,0,1,2.93.76,7.25,7.25,0,0,1,2.29,2.81A9.2,9.2,0,0,1,92.47,193.15Zm-2.9,0a6.69,6.69,0,0,0-1.3-4.1,2.49,2.49,0,0,0-2.1-1A2.55,2.55,0,0,0,84,189.15a6.29,6.29,0,0,0-1.25,4v3.16a6.58,6.58,0,0,0,1.32,4.1,2.46,2.46,0,0,0,2.09,1,2.57,2.57,0,0,0,2.12-1.07,6.33,6.33,0,0,0,1.25-4Z"/><path class="cls-2" d="M104.92,185.2V201h2.91a2.22,2.22,0,0,1,1.48.4,1.34,1.34,0,0,1,.44,1,1.3,1.3,0,0,1-.44,1,2.17,2.17,0,0,1-1.48.4h-8.7a2.17,2.17,0,0,1-1.48-.4,1.31,1.31,0,0,1-.45-1,1.33,1.33,0,0,1,.45-1,2.22,2.22,0,0,1,1.48-.4H102V189l-2.57.67a3.61,3.61,0,0,1-.93.17,1.24,1.24,0,0,1-1-.43,1.51,1.51,0,0,1-.4-1.07,1.3,1.3,0,0,1,.3-.91,2.58,2.58,0,0,1,1.23-.58Z"/><path class="cls-2" d="M127,193.15v3.16a9.91,9.91,0,0,1-1.62,5.38,5.19,5.19,0,0,1-4.65,2.58,5.36,5.36,0,0,1-2.94-.77,7.24,7.24,0,0,1-2.28-2.83,9.22,9.22,0,0,1-1.07-4.36v-3.16a10,10,0,0,1,1.61-5.37,5.17,5.17,0,0,1,4.64-2.58,5.35,5.35,0,0,1,2.93.76,7.25,7.25,0,0,1,2.29,2.81A9.2,9.2,0,0,1,127,193.15Zm-2.9,0a6.69,6.69,0,0,0-1.3-4.1,2.49,2.49,0,0,0-2.1-1,2.55,2.55,0,0,0-2.13,1.07,6.29,6.29,0,0,0-1.25,4v3.16a6.58,6.58,0,0,0,1.32,4.1,2.46,2.46,0,0,0,2.09,1,2.57,2.57,0,0,0,2.12-1.07,6.33,6.33,0,0,0,1.25-4Z"/><path class="cls-2" d="M144.28,193.15v3.16a9.84,9.84,0,0,1-1.63,5.38,5.17,5.17,0,0,1-4.64,2.58,5.36,5.36,0,0,1-2.94-.77,7.24,7.24,0,0,1-2.28-2.83,9.22,9.22,0,0,1-1.07-4.36v-3.16a9.92,9.92,0,0,1,1.61-5.37A5.16,5.16,0,0,1,138,185.2a5.35,5.35,0,0,1,2.93.76,7.25,7.25,0,0,1,2.29,2.81A9.32,9.32,0,0,1,144.28,193.15Zm-2.9,0a6.69,6.69,0,0,0-1.3-4.1,2.49,2.49,0,0,0-2.1-1,2.55,2.55,0,0,0-2.13,1.07,6.29,6.29,0,0,0-1.25,4v3.16a6.58,6.58,0,0,0,1.32,4.1,2.45,2.45,0,0,0,2.09,1,2.57,2.57,0,0,0,2.12-1.07,6.33,6.33,0,0,0,1.25-4Z"/><path class="cls-2" d="M158.06,159.86v15.77H161a2.2,2.2,0,0,1,1.49.4,1.37,1.37,0,0,1,.44,1.05,1.34,1.34,0,0,1-.44,1,2.2,2.2,0,0,1-1.49.4h-8.7a2.18,2.18,0,0,1-1.48-.4,1.37,1.37,0,0,1-.44-1.05,1.34,1.34,0,0,1,.44-1,2.18,2.18,0,0,1,1.48-.4h2.91v-12l-2.57.67a4,4,0,0,1-.92.17,1.24,1.24,0,0,1-.95-.44,1.5,1.5,0,0,1-.4-1.07,1.28,1.28,0,0,1,.29-.9,2.67,2.67,0,0,1,1.24-.59Z"/><path class="cls-2" d="M180.15,167.82V171a9.94,9.94,0,0,1-1.62,5.38,5.18,5.18,0,0,1-4.64,2.57,5.39,5.39,0,0,1-2.95-.76,7.21,7.21,0,0,1-2.27-2.83,9.26,9.26,0,0,1-1.08-4.36v-3.16a10,10,0,0,1,1.62-5.38,5.15,5.15,0,0,1,4.63-2.58,5.41,5.41,0,0,1,2.93.76,7.29,7.29,0,0,1,2.3,2.82A9.28,9.28,0,0,1,180.15,167.82Zm-2.89,0a6.7,6.7,0,0,0-1.31-4.11,2.49,2.49,0,0,0-2.09-1,2.6,2.6,0,0,0-2.14,1.07,6.38,6.38,0,0,0-1.25,4V171a6.6,6.6,0,0,0,1.32,4.1,2.47,2.47,0,0,0,2.1,1A2.55,2.55,0,0,0,176,175a6.35,6.35,0,0,0,1.25-4Z"/><path class="cls-2" d="M192.6,159.86v15.77h2.91a2.2,2.2,0,0,1,1.49.4,1.37,1.37,0,0,1,.44,1.05,1.34,1.34,0,0,1-.44,1,2.2,2.2,0,0,1-1.49.4h-8.7a2.18,2.18,0,0,1-1.48-.4,1.37,1.37,0,0,1-.44-1.05,1.34,1.34,0,0,1,.44-1,2.18,2.18,0,0,1,1.48-.4h2.91v-12l-2.57.67a4,4,0,0,1-.92.17,1.24,1.24,0,0,1-.95-.44,1.5,1.5,0,0,1-.4-1.07,1.28,1.28,0,0,1,.29-.9,2.67,2.67,0,0,1,1.24-.59Z"/><path class="cls-2" d="M214.69,167.82V171a9.94,9.94,0,0,1-1.62,5.38,5.18,5.18,0,0,1-4.64,2.57,5.37,5.37,0,0,1-3-.76,7.21,7.21,0,0,1-2.27-2.83,9.26,9.26,0,0,1-1.08-4.36v-3.16a10,10,0,0,1,1.62-5.38,5.15,5.15,0,0,1,4.63-2.58,5.41,5.41,0,0,1,2.93.76,7.28,7.28,0,0,1,2.29,2.82A9.17,9.17,0,0,1,214.69,167.82Zm-2.89,0a6.7,6.7,0,0,0-1.31-4.11,2.5,2.5,0,0,0-2.09-1,2.6,2.6,0,0,0-2.14,1.07,6.38,6.38,0,0,0-1.25,4V171a6.6,6.6,0,0,0,1.32,4.1,2.47,2.47,0,0,0,2.1,1,2.56,2.56,0,0,0,2.12-1.07,6.35,6.35,0,0,0,1.25-4Z"/><path class="cls-2" d="M162.88,218.21v3.16a9.91,9.91,0,0,1-1.62,5.38,5.17,5.17,0,0,1-4.64,2.58,5.4,5.4,0,0,1-3-.77,7.14,7.14,0,0,1-2.27-2.83,9.23,9.23,0,0,1-1.08-4.36v-3.16a9.93,9.93,0,0,1,1.62-5.37,5.15,5.15,0,0,1,4.63-2.58,5.32,5.32,0,0,1,2.93.76,7.17,7.17,0,0,1,2.3,2.81A9.31,9.31,0,0,1,162.88,218.21Zm-2.89,0a6.69,6.69,0,0,0-1.31-4.1,2.46,2.46,0,0,0-2.09-1,2.57,2.57,0,0,0-2.14,1.07,6.35,6.35,0,0,0-1.25,4v3.16a6.58,6.58,0,0,0,1.32,4.1,2.48,2.48,0,0,0,2.1,1,2.57,2.57,0,0,0,2.12-1.07,6.39,6.39,0,0,0,1.25-4Z"/><path class="cls-2" d="M175.33,210.26V226h2.91a2.25,2.25,0,0,1,1.49.4,1.37,1.37,0,0,1,.44,1.05,1.33,1.33,0,0,1-.44,1,2.2,2.2,0,0,1-1.49.4h-8.7a2.18,2.18,0,0,1-1.48-.4,1.34,1.34,0,0,1-.44-1,1.35,1.35,0,0,1,.44-1,2.24,2.24,0,0,1,1.48-.4h2.91V214l-2.57.67a3.55,3.55,0,0,1-.92.17,1.23,1.23,0,0,1-1-.43,1.51,1.51,0,0,1-.4-1.07,1.29,1.29,0,0,1,.29-.91,2.68,2.68,0,0,1,1.24-.58Z"/><path class="cls-2" d="M192.6,210.26V226h2.91a2.25,2.25,0,0,1,1.49.4,1.37,1.37,0,0,1,.44,1.05,1.33,1.33,0,0,1-.44,1,2.2,2.2,0,0,1-1.49.4h-8.7a2.18,2.18,0,0,1-1.48-.4,1.34,1.34,0,0,1-.44-1,1.35,1.35,0,0,1,.44-1,2.24,2.24,0,0,1,1.48-.4h2.91V214l-2.57.67a3.55,3.55,0,0,1-.92.17,1.23,1.23,0,0,1-.95-.43,1.51,1.51,0,0,1-.4-1.07,1.29,1.29,0,0,1,.29-.91,2.68,2.68,0,0,1,1.24-.58Z"/><path class="cls-2" d="M214.69,218.21v3.16a9.91,9.91,0,0,1-1.62,5.38,5.17,5.17,0,0,1-4.64,2.58,5.37,5.37,0,0,1-3-.77,7.14,7.14,0,0,1-2.27-2.83,9.23,9.23,0,0,1-1.08-4.36v-3.16a9.93,9.93,0,0,1,1.62-5.37,5.15,5.15,0,0,1,4.63-2.58,5.32,5.32,0,0,1,2.93.76,7.16,7.16,0,0,1,2.29,2.81A9.2,9.2,0,0,1,214.69,218.21Zm-2.89,0a6.69,6.69,0,0,0-1.31-4.1,2.48,2.48,0,0,0-2.09-1,2.57,2.57,0,0,0-2.14,1.07,6.35,6.35,0,0,0-1.25,4v3.16a6.58,6.58,0,0,0,1.32,4.1,2.48,2.48,0,0,0,2.1,1,2.59,2.59,0,0,0,2.12-1.07,6.39,6.39,0,0,0,1.25-4Z"/><path class="cls-2" d="M162.88,193.15v3.16a9.91,9.91,0,0,1-1.62,5.38,5.17,5.17,0,0,1-4.64,2.58,5.4,5.4,0,0,1-3-.77,7.14,7.14,0,0,1-2.27-2.83,9.23,9.23,0,0,1-1.08-4.36v-3.16a9.93,9.93,0,0,1,1.62-5.37,5.15,5.15,0,0,1,4.63-2.58,5.32,5.32,0,0,1,2.93.76,7.17,7.17,0,0,1,2.3,2.81A9.31,9.31,0,0,1,162.88,193.15Zm-2.89,0a6.69,6.69,0,0,0-1.31-4.1,2.46,2.46,0,0,0-2.09-1,2.57,2.57,0,0,0-2.14,1.07,6.35,6.35,0,0,0-1.25,4v3.16a6.58,6.58,0,0,0,1.32,4.1,2.48,2.48,0,0,0,2.1,1,2.57,2.57,0,0,0,2.12-1.07,6.39,6.39,0,0,0,1.25-4Z"/><path class="cls-2" d="M175.33,185.2V201h2.91a2.25,2.25,0,0,1,1.49.4,1.37,1.37,0,0,1,.44,1,1.33,1.33,0,0,1-.44,1,2.2,2.2,0,0,1-1.49.4h-8.7a2.18,2.18,0,0,1-1.48-.4,1.34,1.34,0,0,1-.44-1,1.35,1.35,0,0,1,.44-1,2.24,2.24,0,0,1,1.48-.4h2.91V189l-2.57.67a3.55,3.55,0,0,1-.92.17,1.23,1.23,0,0,1-1-.43,1.51,1.51,0,0,1-.4-1.07,1.29,1.29,0,0,1,.29-.91,2.68,2.68,0,0,1,1.24-.58Z"/><path class="cls-2" d="M197.42,193.15v3.16a9.91,9.91,0,0,1-1.62,5.38,5.17,5.17,0,0,1-4.64,2.58,5.4,5.4,0,0,1-2.95-.77,7.14,7.14,0,0,1-2.27-2.83,9.23,9.23,0,0,1-1.08-4.36v-3.16a9.93,9.93,0,0,1,1.62-5.37,5.15,5.15,0,0,1,4.63-2.58A5.32,5.32,0,0,1,194,186a7.17,7.17,0,0,1,2.3,2.81A9.31,9.31,0,0,1,197.42,193.15Zm-2.89,0a6.69,6.69,0,0,0-1.31-4.1,2.46,2.46,0,0,0-2.09-1,2.58,2.58,0,0,0-2.14,1.07,6.35,6.35,0,0,0-1.25,4v3.16a6.58,6.58,0,0,0,1.32,4.1,2.48,2.48,0,0,0,2.1,1,2.57,2.57,0,0,0,2.12-1.07,6.39,6.39,0,0,0,1.25-4Z"/><path class="cls-2" d="M214.69,193.15v3.16a9.91,9.91,0,0,1-1.62,5.38,5.17,5.17,0,0,1-4.64,2.58,5.37,5.37,0,0,1-3-.77,7.14,7.14,0,0,1-2.27-2.83,9.23,9.23,0,0,1-1.08-4.36v-3.16a9.93,9.93,0,0,1,1.62-5.37,5.15,5.15,0,0,1,4.63-2.58,5.32,5.32,0,0,1,2.93.76,7.16,7.16,0,0,1,2.29,2.81A9.2,9.2,0,0,1,214.69,193.15Zm-2.89,0a6.69,6.69,0,0,0-1.31-4.1,2.48,2.48,0,0,0-2.09-1,2.57,2.57,0,0,0-2.14,1.07,6.35,6.35,0,0,0-1.25,4v3.16a6.58,6.58,0,0,0,1.32,4.1,2.48,2.48,0,0,0,2.1,1,2.59,2.59,0,0,0,2.12-1.07,6.39,6.39,0,0,0,1.25-4Z"/></g><path class="cls-3" d="M196.37,380.73s2.78,46.75,2.78,49,2.2,55.49,2.2,55.49H182.62"/><polyline class="cls-3" points="239.05 380.73 236.06 433 234.07 485.27 251.68 485.27"/><rect class="cls-4" x="129.13" y="255.08" width="171.26" height="38.29" rx="12"/><ellipse class="cls-5" cx="216.32" cy="383.54" rx="63.04" ry="27.19"/><ellipse class="cls-6" cx="215.68" cy="148.48" rx="75.26" ry="29.88"/><path class="cls-7" d="M140.42,148.48c0,16.5,33.7,29.88,75.26,29.88s75.26-13.38,75.26-29.88c0,0,.44,216.63,0,221.3-1.54,16.43-33.69,29.88-75.26,29.88s-75.26-13.38-75.26-29.88Z"/><path class="cls-8" d="M153.29,367.61V165.17a66.24,66.24,0,0,0,7.91,3.92V390.36a66.85,66.85,0,0,1-7.9-3.89Z"/><path class="cls-8" d="M188.06,353.39V176.21c-2.71-.42-5.35-.91-7.9-1.45v221.3c2.55.54,5.19,1,7.9,1.45Z"/><path class="cls-8" d="M222.67,395.5V178.36c-2.3.08-4.63.13-7,.13h-.92v221.3h.92q3.54,0,7-.12Z"/><polygon class="cls-8" points="243.68 397.5 243.68 176.25 251.59 174.77 251.59 395.98 243.68 397.5"/><path class="cls-8" d="M271.45,371v18.52c2.38-1.14,6.34-3.3,7.91-4.3V164.49a83.69,83.69,0,0,1-7.91,4"/><path class="cls-4" d="M137.79,315.25v55c0,16.5,35.18,29.88,78.59,29.88s77-13.45,78.58-29.88c.15-1.54.21-25.9.21-57.93L295,274.51c0,16.5-35.18,29.88-78.58,29.88S137.79,291,137.79,274.51Z"/><path class="cls-9" d="M160.35,199.43a3.48,3.48,0,0,1-3.26-4.66c3-8.2,12.82-16.41,25.92-16.41h.43a3.47,3.47,0,0,1,3.42,3.52,3.42,3.42,0,0,1-3.52,3.42H183c-11,0-17.71,7.23-19.38,11.84A3.49,3.49,0,0,1,160.35,199.43Z"/><path class="cls-9" d="M271.43,199.43a3.49,3.49,0,0,1-3.26-2.28c-1.69-4.66-8.54-12-19.73-11.85a3.47,3.47,0,0,1-.09-6.94h.43c13.09,0,22.93,8.21,25.92,16.41a3.48,3.48,0,0,1-3.27,4.66Z"/><path class="cls-10" d="M177.06,255.31c0,.22,0,.44,0,.67,0,17.4,17.85,31.5,39.86,31.5s39.86-14.1,39.86-31.5c0-.23,0-.45,0-.67Z"/><path class="cls-11" d="M177,255.14c0,.22,0,.6,0,.83a25.64,25.64,0,0,0,2.38,10.75h75.14A25.64,25.64,0,0,0,256.85,256c0-.23,0-.61,0-.83Z"/><path class="cls-12" d="M216.9,287.48a46.58,46.58,0,0,0,24.93-6.93,32,32,0,0,0-4.76-3.92c-8.13-5.46-17.44-6.38-22.9-2.78-7.78-2.71-15.37-1.56-18.77,3.5a10.17,10.17,0,0,0-1.6,4.29A47.09,47.09,0,0,0,216.9,287.48Z"/><circle class="cls-11" cx="186.06" cy="220.92" r="20.04"/><path class="cls-10" d="M193.25,220.92a7.19,7.19,0,1,1-7.19-7.19A7.18,7.18,0,0,1,193.25,220.92Z"/><circle class="cls-11" cx="243.83" cy="220.92" r="20.04"/><path class="cls-10" d="M251,220.92a7.19,7.19,0,1,1-7.19-7.19A7.18,7.18,0,0,1,251,220.92Z"/><g id="mask"><circle class="cls-13" cx="244.86" cy="220.69" r="24.42" transform="translate(-32.19 42.07) rotate(-9.22)"/><circle class="cls-14" cx="185.72" cy="220.69" r="24.42" transform="translate(-73.76 346.63) rotate(-75.81)"/><polygon class="cls-15" points="160.3 221.12 140.42 211.81 140.42 207.54 161.67 218.19 160.3 221.12"/><polygon class="cls-15" points="270.19 221.12 291.14 211.79 291.14 208.25 268.82 218.19 270.19 221.12"/><path class="cls-15" d="M159.67,220.9a26.06,26.06,0,0,0,51.77,4.27l.13-.75h7.53l.12.75a26.09,26.09,0,1,0-.33-5.13l0,.86H211.8l0-.87a26.06,26.06,0,0,0-52.11.87ZM229,205a22.55,22.55,0,0,1,31.88,31.89h0A22.55,22.55,0,1,1,229,205Zm-43.26-6.6a22.54,22.54,0,0,1,16,38.49h0a22.55,22.55,0,1,1-16-38.49Z"/><path class="cls-16" d="M227.54,210c3.54-5.34,7.14-6.81,7.14-6.81l2.78,2.12a22.21,22.21,0,0,0-5.74,6.29,19.16,19.16,0,0,0-2.6,7l-4.6-.9A17.83,17.83,0,0,1,227.54,210Z"/><path class="cls-17" d="M168.42,210c3.54-5.34,7-6.81,7-6.81l2.91,2.12a22.1,22.1,0,0,0-5.73,6.29,19.08,19.08,0,0,0-2.61,7l-4.6-.9A17.83,17.83,0,0,1,168.42,210Z"/></g><path class="cls-3" d="M141.41,300.35h0S111.89,320.91,118,334.56"/><path class="cls-18" d="M76,353.91V354h0a.14.14,0,0,1,0-.06m-.08-.79a2.28,2.28,0,0,0,0,.37,2.29,2.29,0,0,1,0-.37"/><path class="cls-19" d="M23.76,300.87c-.9-1.34-1.43-4.15,3.78-5.3C33.28,294.31,24.41,301.84,23.76,300.87Z"/><polyline class="cls-20" points="139.53 335.36 176.11 324.05 72.62 345.68 139.53 335.36"/><rect class="cls-19" x="136.36" y="329.43" width="42.71" height="4.27" rx="1.6" transform="translate(-85.6 56.6) rotate(-16.07)"/><path class="cls-21" d="M137.36,338.06v0a1.74,1.74,0,0,0,2.25.92L177,328.24a1.74,1.74,0,0,0,1.41-2v0Z"/><polyline class="cls-22" points="140.25 331.07 140.83 331.93 141.05 332.26 176.11 324.05 140.25 331.07"/><path class="cls-23" d="M141.75,333.33s2,3.29-2.46,5.69C135.6,341,138.88,334.12,141.75,333.33Z"/><path class="cls-19" d="M139.68,337.31,64.12,353.6a2.9,2.9,0,0,1-3-1.21L25.76,300a2.89,2.89,0,0,1,1.78-4.44l75.56-16.29a2.89,2.89,0,0,1,3,1.21l35.36,52.38a2.89,2.89,0,0,1-1.78,4.44"/><path class="cls-24" d="M138.46,339.33,62.9,355.62a2.88,2.88,0,0,1-3-1.21L23.83,301a2,2,0,0,1,1.25-3.11l76.81-16.56a2.89,2.89,0,0,1,3,1.2l35.36,52.38a2.89,2.89,0,0,1-1.79,4.44"/><polyline class="cls-25" points="117.8 301.65 119.42 304.04 117.8 301.65"/><polyline class="cls-26" points="103.84 346.79 103.84 346.79 103.88 346.78 103.88 346.78 103.84 346.79"/><polygon class="cls-19" points="79.03 314.12 78.83 317.93 79.97 318.18 80.04 316.76 83.96 320.94 84.16 317.13 82.99 316.87 82.92 318.25 79.03 314.12"/><path class="cls-19" d="M86,313.52a10.3,10.3,0,0,0-2.54-1.46,9.75,9.75,0,0,0-2.81-.67,7.65,7.65,0,0,0-2.77.26,5.5,5.5,0,0,0-2.19,1.17,4.43,4.43,0,0,0-1.23,1.83,4.6,4.6,0,0,0-.19,2.25,6.21,6.21,0,0,0,.93,2.41,8.8,8.8,0,0,0,1.93,2.13,10.3,10.3,0,0,0,2.54,1.46,9.75,9.75,0,0,0,2.81.67,7.88,7.88,0,0,0,2.77-.26,5.51,5.51,0,0,0,2.18-1.17,4.36,4.36,0,0,0,1.24-1.83,4.6,4.6,0,0,0,.19-2.25,6.15,6.15,0,0,0-.93-2.41A8.62,8.62,0,0,0,86,313.52Zm-1.33,9-3.91-4.16,0,.55L78,318.35l.33-5.85,3.91,4.18,0-.56,2.64.57Z"/><line class="cls-3" x1="103.06" y1="346.37" x2="90.24" y2="348.89"/><line class="cls-3" x1="97.01" y1="346.94" x2="94.56" y2="343.26"/><line class="cls-3" x1="90.24" y1="348.89" x2="87.79" y2="345.21"/><line class="cls-3" x1="103.69" y1="346.13" x2="101.24" y2="342.45"/><path class="cls-3" d="M331.43,342.12h0s-25.37,1.83-32.21-11.48c-10.12-19.68-10.13-30.16-10.13-30.16"/><line class="cls-3" x1="336.09" y1="343.85" x2="327.7" y2="344.01"/><line class="cls-3" x1="336.3" y1="337.84" x2="327.91" y2="338.01"/><line class="cls-3" x1="327.17" y1="327.64" x2="326.56" y2="347.38"/><line class="cls-3" x1="336.09" y1="347.46" x2="327.7" y2="347.62"/><path class="cls-27" d="M270.7,168.87c-1.8-37.4-105.84-36.1-109.17.36C188.8,181.44,243.63,181.17,270.7,168.87Z"/><g id="Logotypes"><polygon class="cls-28" points="246.46 379.51 192.97 379.51 192.97 326.05 246.46 326.05 219.71 352.76 246.46 379.51"/></g></svg>