<svg id="Layer_1" data-name="Layer 1" xmlns="http://www.w3.org/2000/svg" xmlns:xlink="http://www.w3.org/1999/xlink" viewBox="0 0 432 576"><defs><style>.cls-1{fill:none;stroke:#000;stroke-linecap:round;stroke-linejoin:round;stroke-width:8px;}.cls-2{fill:#e8003d;stroke:#e8003d;stroke-miterlimit:10;}.cls-3{fill:#2d313f;}.cls-4{fill:#feaf06;}.cls-5{fill:#fbd82b;}.cls-6{fill:#ffe278;}.cls-7{fill:#fff;}.cls-8{fill:#b57817;}.cls-9{fill:#701d1d;}.cls-10{fill:#f70000;}.cls-11{fill:url(#radial-gradient);}</style><radialGradient id="radial-gradient" cx="159.14" cy="179.12" r="39.38" gradientTransform="translate(-111.58 424.2) rotate(-106.06) scale(1 1.86)" gradientUnits="userSpaceOnUse"><stop offset="0" stop-color="#ff8c1f"/><stop offset="1" stop-color="#feaf06"/></radialGradient></defs><polyline class="cls-1" points="233.47 398.85 233.47 477.95 249.44 485.93"/><polyline class="cls-1" points="208.64 398.81 208.64 477.9 192.67 485.89"/><rect class="cls-2" x="103.7" y="260.19" width="173.96" height="33.68" rx="12" transform="translate(-69.2 63.57) rotate(-16.06)"/><ellipse class="cls-3" cx="221.79" cy="379.43" rx="63.04" ry="27.19" transform="translate(-96.32 76.17) rotate(-16.06)"/><ellipse class="cls-4" cx="156.14" cy="153.72" rx="75.26" ry="29.88" transform="translate(-36.43 49.2) rotate(-16.06)"/><path class="cls-5" d="M83.82,174.54c4.57,15.86,40.65,19.4,80.59,7.9S233,148.76,228.47,132.9c0,0,60.35,208.05,61.22,212.66,3.06,16.22-24.11,38-64.06,49.54s-76,8-80.58-7.89Z"/><path class="cls-6" d="M156.81,381.56,110.67,221.31,100.8,187a63.6,63.6,0,0,0,8.68,1.55L113.62,203l52.56,182.57,4.52,15.69a67.13,67.13,0,0,1-8.68-1.55Z"/><path class="cls-6" d="M186.3,358.28,139.25,194.87l-2-6.85q-4.09.51-8,.78l1.77,6.14,47.53,165.11,11.93,41.42q3.9-.29,8-.79Z"/><path class="cls-6" d="M231.2,389.17,173.12,187.43l-2-6.93q-3.27,1.08-6.68,2.06l-.88.25,2,6.81L223.6,391.36l1.18,4.11.89-.25c2.27-.65,4.49-1.34,6.68-2.06Z"/><polygon class="cls-6" points="251.94 385.28 190.73 172.66 197.92 169.05 259.12 381.63 251.94 385.28"/><path class="cls-6" d="M278.91,350,227.64,171.9l-5.87-20.41a81.69,81.69,0,0,1-6.48,6.08L220,174.08,271.3,352.15l5.13,17.79c2-1.74,5.18-4.91,6.41-6.31Z"/><path class="cls-2" d="M126.66,335.11l15.21,52.82c4.56,15.86,42.07,19,83.78,7s70.25-34.22,67.26-50.45c-.28-1.52-7-24.94-15.83-55.73l-10.65-36.25c4.57,15.86-25.55,38.45-67.26,50.46s-79.22,8.89-83.78-7Z"/><path class="cls-7" d="M206.39,313.63l-11.87,38.23,14.26,4.39,1.11-3.6,14.86,28.08,11.49-38.33-13.85-4.27-1.11,3.64Zm18.77,29.53,6.11,2L223.64,370,208.75,341.9l-2.85,9.26-6-1.84,7.69-25,14.76,27.89Z"/><path class="cls-8" d="M161,210.25a3.81,3.81,0,0,1-1.4,1l-26.4,10.39a3.85,3.85,0,1,1-2.82-7.16l21.12-8.31-3.15-3.34a3.84,3.84,0,1,1,5.59-5.28L161,205a3.82,3.82,0,0,1,0,5.26Z"/><path class="cls-8" d="M183.66,202.32a3.88,3.88,0,0,1-1.9-.69,3.83,3.83,0,0,1-1.64-3.21l.18-10.27a3.85,3.85,0,1,1,7.69.13l-.08,4.59,21.21-8.07a3.85,3.85,0,0,1,2.74,7.19l-26.53,10.09A3.84,3.84,0,0,1,183.66,202.32Z"/><circle class="cls-7" cx="155.67" cy="242.27" r="20.91"/><circle class="cls-7" cx="208.12" cy="223.54" r="20.91"/><circle class="cls-9" cx="156.59" cy="246.97" r="8.12"/><circle class="cls-9" cx="210.04" cy="227.97" r="8.12"/><path class="cls-9" d="M152,279.88c13.65,17.72,27.3,23.57,50.74,16.82s30.3-32.95,32.4-54.23Z"/><path class="cls-7" d="M151.39,279.64a69.57,69.57,0,0,0,7.06,7.74c4.49,3.28,69.5-16.44,73.69-26.81A122,122,0,0,0,235.45,242"/><path class="cls-10" d="M193.76,288.67c-6.59-2.05-15.43.92-22.61,7.76,7.38,4.21,18.74,4.44,31.72.71a32.53,32.53,0,0,0,15-9.29,10.2,10.2,0,0,0-1.34-1.37C211,281.77,201.84,283,193.76,288.67Z"/><path class="cls-1" d="M354.68,209.07s-10.57,7.15-26.79,22.22l-59.56,52.22"/><polyline class="cls-1" points="347.96 207.49 342.47 217.25 355.58 216.75"/><polyline class="cls-1" points="227.79 247.44 223.66 257.25 235.21 255.95"/><polyline class="cls-1" points="234.44 248.31 179.14 296.73 129.47 319.96"/><path class="cls-11" d="M110,188.32c29.59,4.19,81.75-11.23,104.35-30.55-12.07-35.43-111.23-5.4-104.35,30.55"/></svg>