<svg id="Layer_1" data-name="Layer 1" xmlns="http://www.w3.org/2000/svg" viewBox="0 0 432 576"><defs><style>.cls-1,.cls-6{fill:#fff;}.cls-1,.cls-10,.cls-2,.cls-4,.cls-5,.cls-7,.cls-8,.cls-9{fill-rule:evenodd;}.cls-2{fill:#a3a3a3;}.cls-3{fill:#00001f;}.cls-11,.cls-4{fill:#b3b3b3;}.cls-5{fill:#e6e6e6;}.cls-6{stroke:#000;stroke-miterlimit:10;stroke-width:3px;}.cls-7{fill:red;}.cls-8{fill:lime;}.cls-9{fill:#06b806;}.cls-12{opacity:0.25;}.cls-13{fill:#fefcf9;}.cls-14{fill:none;stroke:#fff;stroke-linecap:round;stroke-linejoin:round;stroke-width:4px;}</style></defs><path class="cls-1" d="M264.24,272.36c2.62.63,28.47,7.61,33.55,16.65s20,48.39,19.81,58.3c0,.91.18,26.06-1.66,32.55-.83,2.94-17,2.32-21.85,1.15-1.58-.38.53-13.58,0-22.4-1.05-16.26-5-26.05-5.87-23.79-2.42,6.15-20.85,16.05-20.85,16.05"/><path class="cls-2" d="M316.63,375.84a28,28,0,0,1-.69,4c-.83,2.94-17,2.32-21.85,1.15-1.58-.38.53-13.58,0-22.4-1.05-16.26-5-26.05-5.87-23.79-2.42,6.14-15.5,21-15.5,21l-3.34,1.26c-.78-.77,1.09-7.91.77-8.56-3.8-7.78,14.69-26.16,17.23-29s5.07,1.27,4.91,6.51a55.2,55.2,0,0,0,0,6.34c8.89,36.64,5.16,44.81,5.16,44.81s1.74.63,8.57.47,9.31-2.22,9.31-2.22Z"/><path class="cls-3" d="M263.92,359.33c-16.15-26.69,20.15-5.81,21.69-18.41a.86.86,0,0,1,0-.16c.48-4.93,1.34-10.9,1.9-14.79.31-2.15.53-3.66.53-3.86a1.39,1.39,0,0,1,2.78,0c0,.37-.23,2-.56,4.25-.24,1.66-.54,3.69-.83,5.85.73,1.47,1.53,3.18,1.95,4.23,1.27,3.19,2.79,9.25,3.64,17.3.16,1.53.3,3.12.4,4.78a115.33,115.33,0,0,1-.28,13.23c-.26,4.44-.32,8-.07,8.06a58,58,0,0,0,13.56.71c3.24-.17,5.81-.5,6-1,1.64-5.75,1.62-27,1.62-31.4v-.8c.07-4.12-2.66-13.8-6.19-24.19-4.63-13.63-10.61-28.35-13.45-33.41-1.62-2.89-5.74-5.64-10.51-8a127,127,0,0,0-22.15-8m.65-2.69a131.18,131.18,0,0,1,22.72,8.19c5.21,2.59,9.77,5.69,11.71,9.14,2.9,5.17,9,20.1,13.66,33.87,3.61,10.63,6.41,20.64,6.33,25.12,0,.08,0,.34,0,.76,0,4.46,0,26.05-1.71,32.15-.55,1.93-4.13,2.82-8.49,3.05a66.65,66.65,0,0,1-15-.93c-2-.49-1.72-5.05-1.38-10.77a112.3,112.3,0,0,0,.29-12.9c-.65-10-2.37-17.44-3.79-21.09-.16.83-7.76.15-7.9,1.23m-7.2,5.4,8.28-2.8c-1.43,11.68-14.68,20.13-14.73,21.83"/><path class="cls-1" d="M315.1,381.36h0c-4.73,1.26-15.09.85-20,0h-.65v13.08A7.59,7.59,0,0,0,302,402h5.53a7.59,7.59,0,0,0,7.57-7.56Z"/><path class="cls-2" d="M315.1,381.36h0c-4.73,1.26-15.09.85-20,0h-.65v13.08c0,2.11,2.6,4.46,4,5.84a9.72,9.72,0,0,0,.38-2.23V386.27h.65a60.61,60.61,0,0,0,15.62.05Z"/><path class="cls-3" d="M316.61,379.86v14.58a9.1,9.1,0,0,1-9.08,9.07H302a9.08,9.08,0,0,1-9.07-9.07V379.86h2.27l.13,0a71.78,71.78,0,0,0,10.92.78,37.12,37.12,0,0,0,8.47-.75l.2-.05h1.69Zm-10.36,3.81a81.12,81.12,0,0,1-10.31-.65v11.42A6.08,6.08,0,0,0,302,400.5h5.53a6.09,6.09,0,0,0,6.07-6.06V383.2a49.45,49.45,0,0,1-7.35.47Z"/><path class="cls-1" d="M154.89,273.19c-2.62.63-28.47,7.61-33.55,16.65s-20,48.4-19.81,58.3c0,.91-.18,26.06,1.66,32.56.83,2.93,17,2.31,21.85,1.15,1.58-.39-.53-13.59,0-22.41,1-16.26,5-26.05,5.87-23.79,2.42,6.15,20.84,16.06,20.84,16.06"/><path class="cls-2" d="M102.49,376.68a29.22,29.22,0,0,0,.7,4c.83,2.93,17,2.31,21.85,1.15,1.58-.39-.53-13.59,0-22.41,1-16.26,5-26.05,5.87-23.79,2.42,6.15,15.5,21,15.5,21l3.34,1.26c.78-.77-1.09-7.91-.77-8.56,3.8-7.79-14.69-26.17-17.23-29s-5.08,1.26-4.91,6.5a55.48,55.48,0,0,1,0,6.35c-8.89,36.63-5.16,44.8-5.16,44.8s-1.74.64-8.57.48-9.32-2.22-9.32-2.22Z"/><path class="cls-3" d="M155.21,274.53a127.61,127.61,0,0,0-22.15,8c-4.77,2.37-8.89,5.11-10.51,8-2.84,5.06-8.82,19.79-13.45,33.41-3.53,10.39-6.27,20.07-6.19,24.19v.8c0,4.4,0,25.66,1.62,31.4.15.54,2.71.86,6,1,5.12.27,10.87-.05,13.55-.71.26-.06.2-3.62-.06-8.05a115.33,115.33,0,0,1-.28-13.23c.1-1.67.24-3.26.4-4.78.85-8.05,2.37-14.12,3.64-17.31.41-1,1.22-2.75,2-4.23-.29-2.16-.59-4.19-.83-5.85-.33-2.28-.56-3.87-.56-4.24a1.39,1.39,0,0,1,2.78,0c0,.2.21,1.7.52,3.85.57,3.9,1.43,9.87,1.91,14.79a1,1,0,0,1,0,.17c1.54,12.59,37.83-8.29,21.69,18.4m-17.06-20.49c-.15-1.09-7.74-.4-7.9-1.24-1.42,3.66-3.14,11.12-3.79,21.1a112.35,112.35,0,0,0,.29,12.9c.33,5.71.61,10.28-1.38,10.76a66.11,66.11,0,0,1-15,.93c-4.36-.23-7.94-1.11-8.49-3.05-1.73-6.09-1.72-27.68-1.71-32.15,0-.42,0-.68,0-.76-.08-4.47,2.72-14.48,6.33-25.11,4.68-13.78,10.76-28.71,13.66-33.88,1.94-3.45,6.49-6.54,11.71-9.13a130.29,130.29,0,0,1,22.72-8.19m-2.77,92.24c0-1.7-13.29-10.15-14.72-21.83l8.28,2.8"/><path class="cls-1" d="M104,382.2h0c4.73,1.26,15.09.84,20,0h.65v13.07a7.6,7.6,0,0,1-7.57,7.57H111.6a7.59,7.59,0,0,1-7.57-7.57Z"/><path class="cls-2" d="M104,382.2h0c4.73,1.26,15.09.84,20,0h.65v13.07c0,2.11-2.6,4.47-4,5.84a9.55,9.55,0,0,1-.38-2.23V387.1h-.65a60.17,60.17,0,0,1-15.62,0Z"/><path class="cls-3" d="M104,380.69h.18l.2.06a37.19,37.19,0,0,0,8.47.74,72.14,72.14,0,0,0,10.92-.77l.13,0h2.27v14.58a9.08,9.08,0,0,1-9.07,9.07H111.6a9.1,9.1,0,0,1-9.08-9.07V380.69Zm8.85,3.81a50.93,50.93,0,0,1-7.35-.46v11.23a6.08,6.08,0,0,0,6.07,6.06h5.53a6.08,6.08,0,0,0,6.06-6.06V383.85a79.31,79.31,0,0,1-10.31.65Z"/><path class="cls-2" d="M151.31,453.48h41L208,397.07a24.83,24.83,0,0,0,5.45,0L230,453.48h40.62l-.35-2.71a3.26,3.26,0,0,0-1.65-.23c-4.45,1.1-31.76.31-34.14-.16s-15.63-48.79-16-50.84,3.33-1.11,5.87-5.83-4.28-4.58-4.28-4.58c-9.53,4.42-19.69-.47-19.69-.47-9,5.75,1.51,9.85,2.3,11.27s-13.34,49.74-15.08,51.16-34,.47-34,.47l-2,.39Z"/><path class="cls-3" d="M264,390.14,161.38,384.7v.1l0,.1-9,69.08h38.49l15.43-56a12.35,12.35,0,0,1-5.34-2.59,1.37,1.37,0,0,1-.06-2,1.4,1.4,0,0,1,2-.06s2.69,2.59,8.28,2.27,8.44-2.95,8.44-3a1.4,1.4,0,0,1,2,.06,1.37,1.37,0,0,1-.06,2,15.25,15.25,0,0,1-6.39,3.13L230.63,454h38.5l-7.36-69.57m2.23,0,8.07,70.77.2,1.56H228.53l-.28-1-15.86-57.17c-.55,0-1.13.05-1.7.05s-1.16,0-1.69-.05l-15.76,57.17-.28,1H149.21l.2-1.56,9.2-70.52"/><path class="cls-4" d="M153.71,463.48h35.08a4.53,4.53,0,0,0,4.53-4.5h0a4.52,4.52,0,0,0-4.53-4.49H153.71a4.52,4.52,0,0,0-4.53,4.49h0a4.53,4.53,0,0,0,4.53,4.5Z"/><path class="cls-3" d="M153.71,462.1h35.08a3.14,3.14,0,0,0,2.22-.92,3.09,3.09,0,0,0,0-4.4,3.17,3.17,0,0,0-2.22-.91H153.71a3.15,3.15,0,0,0-2.22.91,3.12,3.12,0,0,0,2.22,5.32Zm35.08,2.76H153.71a5.9,5.9,0,0,1-4.18-1.73,5.82,5.82,0,0,1,0-8.3,5.93,5.93,0,0,1,4.18-1.72h35.08a5.93,5.93,0,0,1,4.18,1.72,5.88,5.88,0,0,1-4.18,10Z"/><path class="cls-1" d="M148.4,486.3h44V473.61a12.77,12.77,0,0,0-12.78-12.69H161.19a12.78,12.78,0,0,0-12.79,12.69Z"/><path class="cls-3" d="M149.79,484.92H191V473.61a11.25,11.25,0,0,0-3.34-8,11.42,11.42,0,0,0-8.05-3.32H161.19a11.4,11.4,0,0,0-8.05,3.32,11.26,11.26,0,0,0-3.35,8Zm42.59,2.76H147V473.61a14,14,0,0,1,4.16-9.94,14.16,14.16,0,0,1,10-4.13H179.6a14.18,14.18,0,0,1,10,4.13,14,14,0,0,1,4.16,9.94v14.07Z"/><path class="cls-4" d="M233.67,463.48h35.08a4.53,4.53,0,0,0,4.53-4.5h0a4.52,4.52,0,0,0-4.53-4.49H233.67a4.52,4.52,0,0,0-4.52,4.49h0a4.52,4.52,0,0,0,4.52,4.5Z"/><path class="cls-3" d="M233.67,462.1h35.08a3.11,3.11,0,0,0,2.22-5.32,3.15,3.15,0,0,0-2.22-.91H233.67a3.12,3.12,0,0,0-3.14,3.11,3.14,3.14,0,0,0,3.14,3.12Zm35.08,2.76H233.67a5.9,5.9,0,0,1-4.18-1.73,5.84,5.84,0,0,1,0-8.3,5.93,5.93,0,0,1,4.18-1.72h35.08a5.93,5.93,0,0,1,4.18,1.72,5.88,5.88,0,0,1-4.18,10Z"/><path class="cls-1" d="M229.61,486.3h44V473.61a12.77,12.77,0,0,0-12.78-12.69H242.4a12.78,12.78,0,0,0-12.79,12.69Z"/><path class="cls-4" d="M273.59,485.91h-44v-12.7a12.62,12.62,0,0,1,3.75-8.95c.89-.13,1.73-.23,2.48-.28.37,0-.41,2.38-.41,4.12v12.7h38.16Z"/><path class="cls-3" d="M231,484.92h41.2V473.61a11.25,11.25,0,0,0-3.34-8,11.42,11.42,0,0,0-8.05-3.32H242.4a11.4,11.4,0,0,0-8.05,3.32,11.26,11.26,0,0,0-3.35,8Zm42.59,2.76H228.23V473.61a14,14,0,0,1,4.16-9.94,14.16,14.16,0,0,1,10-4.13h18.41a14.18,14.18,0,0,1,10,4.13,14,14,0,0,1,4.16,9.94v14.07Z"/><path class="cls-4" d="M191,485.31H149.56v-12a11.93,11.93,0,0,1,3.53-8.47c.84-.13,1.62-.22,2.33-.26.36,0-.38,2.25-.38,3.9v12h36Z"/><path class="cls-5" d="M125.08,265.3c-2.46-3.38-4.81-3.81-4.22-18.05.53-8.72-1.37-23.73,10-20.62l.16,54.79L115.43,302s-1.66-26.72.25-31.82,6.88-5,9.4-4.87Z"/><path class="cls-4" d="M131.05,278.48v4.19L115.43,302.5s-.65-10.08-.67-18.84a88,88,0,0,1,10.92-7.07,22,22,0,0,1-.25-3.51V225.77a7.87,7.87,0,0,1,5.47-.16l.16,52.85Z"/><path class="cls-3" d="M126.68,264.2c-.38-.52-.74-.95-1.08-1.37-1.8-2.18-3.26-3.95-2.8-15.47h0c.09-1.34.11-2.92.14-4.57.06-3.69.12-7.72,1-10.7.72-2.5,2.15-4.19,5-3.9l.16,52.61-12,15.8c-.37-7.94-.85-22.4.41-25.78a5.13,5.13,0,0,1,3.28-3.25,11.46,11.46,0,0,1,4.19-.37l4,.22Zm-7.78-17c-.42,10.43.71,13.94,2.36,16.37a11.68,11.68,0,0,0-1.75.42,8.8,8.8,0,0,0-5.67,5.56c-2,5.46-.37,32.5-.36,32.57l.32,5.23,3.2-4.21,15.63-20.56.38-.51v-.63l-.16-54.79v-1.45l-1.42-.38c-6.75-1.84-9.84,1.28-11.28,6.26-1,3.43-1.05,7.74-1.12,11.69,0,1.52,0,3-.13,4.39Z"/><path class="cls-5" d="M161.27,216.49H141.33a10.31,10.31,0,0,0-10.43,10.14v53a10.32,10.32,0,0,0,10.43,10.15h19.94a10.33,10.33,0,0,0,10.44-10.15v-53a10.32,10.32,0,0,0-10.44-10.14Z"/><path class="cls-4" d="M130.9,276.63V284a10.31,10.31,0,0,0,10.43,10.14h19.94A10.32,10.32,0,0,0,171.71,284v-1.88l.58.25V229.93a10.31,10.31,0,0,0-10.43-10.14H141.92a10.32,10.32,0,0,0-10.44,10.14v17.93a91,91,0,0,0,18.07,20.45,188.13,188.13,0,0,0-18.65,8.32Z"/><path class="cls-3" d="M161.83,214.58H141.89a12.57,12.57,0,0,0-8.76,3.54,11.86,11.86,0,0,0-3.64,8.51v53a11.86,11.86,0,0,0,3.64,8.51,12.57,12.57,0,0,0,8.76,3.54h19.94a12.53,12.53,0,0,0,8.75-3.54,11.82,11.82,0,0,0,3.64-8.51v-53a11.82,11.82,0,0,0-3.64-8.51,12.53,12.53,0,0,0-8.75-3.54Zm-19.94,3.81h19.94a8.6,8.6,0,0,1,6,2.42,8.09,8.09,0,0,1,2.49,5.82v53a8.08,8.08,0,0,1-2.49,5.82,8.6,8.6,0,0,1-6,2.42H141.89a8.61,8.61,0,0,1-6-2.42,8.12,8.12,0,0,1-2.49-5.82v-53a8.13,8.13,0,0,1,2.49-5.82,8.61,8.61,0,0,1,6-2.42Z"/><path class="cls-5" d="M294.22,265.3c2.46-3.38,4.82-3.81,4.24-18.05-.54-8.72,1.36-23.73-10-20.62l-.16,54.79L303.88,302s1.66-26.72-.25-31.82-6.88-5-9.41-4.87Z"/><path class="cls-4" d="M288.26,280.1v4.25l15.63,20.07s.65-10.21.67-19.07a87.42,87.42,0,0,0-10.86-7.12,26.93,26.93,0,0,0,.19-3.58V226.77a7.83,7.83,0,0,0-5.47-.15l-.16,53.47Z"/><path class="cls-3" d="M292.63,264.2c.38-.52.74-.95,1.08-1.37,1.79-2.18,3.26-3.95,2.79-15.47h0c-.08-1.34-.11-2.92-.13-4.57-.06-3.69-.12-7.72-1-10.7-.72-2.5-2.15-4.19-5-3.9l-.15,52.61,12,15.8c.37-7.94.85-22.4-.41-25.78a5.13,5.13,0,0,0-3.28-3.25,11.46,11.46,0,0,0-4.19-.37l-4.05.22Zm7.77-17c.43,10.43-.7,13.94-2.35,16.37a11.27,11.27,0,0,1,1.74.42,8.82,8.82,0,0,1,5.68,5.56c2,5.46.36,32.5.36,32.57l-.32,5.23-3.2-4.21-15.63-20.56-.39-.51v-.63l.15-54.79v-1.45l1.42-.38c6.75-1.84,9.84,1.28,11.28,6.26,1,3.43,1,7.74,1.11,11.69,0,1.52.05,3,.13,4.39Z"/><path class="cls-5" d="M258,216.49H278a10.32,10.32,0,0,1,10.44,10.14v53A10.33,10.33,0,0,1,278,289.8H258a10.32,10.32,0,0,1-10.43-10.15v-53A10.31,10.31,0,0,1,258,216.49Z"/><path class="cls-4" d="M288.41,276.63V284A10.32,10.32,0,0,1,278,294.16H258A10.31,10.31,0,0,1,247.6,284V263.84c5.76.1,9.67.23,10.4.4a189.58,189.58,0,0,1,30.41,12.39Z"/><path class="cls-3" d="M257.48,214.58h19.94a12.57,12.57,0,0,1,8.76,3.54,11.86,11.86,0,0,1,3.64,8.51v53a11.86,11.86,0,0,1-3.64,8.51,12.57,12.57,0,0,1-8.76,3.54H257.48a12.55,12.55,0,0,1-8.75-3.54,11.82,11.82,0,0,1-3.64-8.51v-53a11.82,11.82,0,0,1,3.64-8.51,12.55,12.55,0,0,1,8.75-3.54Zm19.94,3.81H257.48a8.58,8.58,0,0,0-6,2.42,8.09,8.09,0,0,0-2.49,5.82v53a8.08,8.08,0,0,0,2.49,5.82,8.58,8.58,0,0,0,6,2.42h19.94a8.61,8.61,0,0,0,6-2.42,8.12,8.12,0,0,0,2.49-5.82v-53a8.13,8.13,0,0,0-2.49-5.82,8.61,8.61,0,0,0-6-2.42Z"/><ellipse class="cls-6" cx="211.84" cy="374.94" rx="63.04" ry="27.19" transform="translate(-3.93 2.25) rotate(-0.6)"/><path class="cls-2" d="M244,277.5c-3.28-1-5.57-1.62-6-1.71-2.34-.47-54.39-.47-56.73,0-1,.19-5.36,1.16-10.61,2.68,21.54,12.48,51.23,12.73,73.34-1Z"/><path class="cls-6" d="M131.86,297.72l.64,60.89c.19,18.27,35.53,32.72,78.93,32.27s76.82-15.71,78.24-33.93c.14-1.7-.1-28.68-.47-64.17l-.64-13.13c.19,18.28-32.82,8.82-76.22,9.28s-80.76,8.83-81-9.45Z"/><path class="cls-2" d="M257,271.77a131.48,131.48,0,0,0-13.19-4.94c-9.48,12.59-6.59,77-8.12,78.88s-2.06,7.38-1.2,13.05,14.6,10.82,18.21,0-3.79-14.26-3.79-14.26c-2.4-24.82,4.23-64.94,8.09-72.73Z"/><path class="cls-2" d="M175.16,267.76c-3.22.93-8.2,2.49-13.36,4.52,3.77,5.5,11,47.72,8.5,73.47,0,0-7.38,3.44-3.77,14.26s17.35,5.67,18.21,0,.34-11.17-1.21-13.06,1.41-67.41-8.37-79.19Z"/><path class="cls-2" d="M175.6,267.33c-3.23.93-8.21,2.49-13.38,4.52,3.78,5.5,11,47.72,8.51,73.47,0,0-7.38,3.44-3.78,14.26s17.35,5.67,18.21,0,.35-11.16-1.2-13.05,1.41-67.42-8.36-79.2Z"/><path class="cls-2" d="M193.64,347.55h32.17c4.65,0,8.45,4.09,8.45,9.08v13.72c0,5-3.8,9.08-8.45,9.08H193.64c-4.65,0-8.45-4.09-8.45-9.08V356.63c0-5,3.8-9.08,8.45-9.08Z"/><path class="cls-1" d="M196,350.8h27.49A7.25,7.25,0,0,1,230.7,358V369a7.25,7.25,0,0,1-7.23,7.23H196a7.25,7.25,0,0,1-7.23-7.23V358A7.25,7.25,0,0,1,196,350.8Z"/><path class="cls-2" d="M214.73,350.8h2.53a10.06,10.06,0,1,1-2.53,0Z"/><path class="cls-2" d="M199.63,353.57a7.59,7.59,0,1,1-7.59,7.59,7.59,7.59,0,0,1,7.59-7.59Z"/><path class="cls-7" d="M215.72,354.21a6.69,6.69,0,1,1-6.69,6.68,6.68,6.68,0,0,1,6.69-6.68Z"/><path class="cls-3" d="M215.72,352.71a8.19,8.19,0,1,1-5.79,2.4,8.13,8.13,0,0,1,5.79-2.4Zm3.67,4.52a5.2,5.2,0,1,0,1.51,3.66,5.18,5.18,0,0,0-1.51-3.66Z"/><path class="cls-8" d="M199.63,357a4.21,4.21,0,1,1-4.21,4.21,4.22,4.22,0,0,1,4.21-4.21Z"/><path class="cls-9" d="M202.93,358.55a4.2,4.2,0,0,1-3.09,6.81c-1.76-.82-3-1.7-2-1.7a4.21,4.21,0,0,0,4.2-4.21c0-.45.36-.73.91-.9Z"/><path class="cls-3" d="M199.63,355.45a5.7,5.7,0,1,1-4,1.67,5.72,5.72,0,0,1,4-1.67Zm1.91,3.8a2.7,2.7,0,0,0-3.82,0,2.67,2.67,0,0,0-.8,1.91,2.73,2.73,0,0,0,2.71,2.71,2.73,2.73,0,0,0,2.71-2.71,2.71,2.71,0,0,0-.8-1.91Z"/><path class="cls-3" d="M196,349.3h27.49a8.76,8.76,0,0,1,8.74,8.73V369a8.76,8.76,0,0,1-8.74,8.73H196a8.74,8.74,0,0,1-8.73-8.73V358A8.74,8.74,0,0,1,196,349.3Zm27.49,3H196a5.75,5.75,0,0,0-5.73,5.72V369a5.75,5.75,0,0,0,5.73,5.72h27.49A5.75,5.75,0,0,0,229.2,369V358a5.75,5.75,0,0,0-5.73-5.72Z"/><path class="cls-3" d="M175.15,347.81h1.25c3.42-33.52-3.2-68.18-4.85-76.06l-3.23,1.17c6.34,15,7.81,42.56,7.64,60.19-.05,4.46,0,10.32-.81,14.7Zm4.21.55a4.64,4.64,0,0,1,1,.78,4.49,4.49,0,0,1,1.33,3.19v3.85a4.54,4.54,0,0,1-4.52,4.52h-3.85a4.54,4.54,0,0,1-4.52-4.52v-3.85a4.49,4.49,0,0,1,1.33-3.19,3.92,3.92,0,0,1,2.22-1.22c0-.59,0-1.42.14-3.4.23-2.85.39-6.81.44-11.43.17-17.95-1.36-46.3-8-60.39l-.7-1.48,1.55-.57,6.35-2.31,1.6-.58.37,1.66c0,.12,9.25,40.31,5.25,78.94Zm-1.88,2.48-.38,0h-3.74a1.52,1.52,0,0,0-1.51,1.51v3.85a1.54,1.54,0,0,0,1.51,1.51h3.85a1.52,1.52,0,0,0,1.51-1.51v-3.85a1.53,1.53,0,0,0-.44-1.07,1.59,1.59,0,0,0-.8-.42Z"/><path class="cls-3" d="M175.57,347.38h1.25c3.43-33.52-3.19-68.18-4.84-76.07l-3.22,1.18c6.33,15,7.8,42.56,7.63,60.2,0,4.45,0,10.31-.82,14.69Zm4.21.55a4.53,4.53,0,0,1,2.38,4v3.85a4.54,4.54,0,0,1-4.52,4.52h-3.85a4.54,4.54,0,0,1-4.52-4.52V351.9a4.51,4.51,0,0,1,1.33-3.19,4,4,0,0,1,2.22-1.22,32.3,32.3,0,0,1,.15-3.4c.21-2.86.38-6.81.42-11.43.18-18-1.35-46.3-8-60.39l-.7-1.48,1.55-.57,6.35-2.31,1.6-.58.37,1.66c0,.12,9.25,40.31,5.24,78.94Zm-1.87,2.48-.38,0h-3.74a1.53,1.53,0,0,0-1.07.44,1.55,1.55,0,0,0-.44,1.07v3.85a1.52,1.52,0,0,0,1.51,1.51h3.85a1.54,1.54,0,0,0,1.51-1.51V351.9a1.53,1.53,0,0,0-1.24-1.49Z"/><path class="cls-3" d="M243.55,346.06H242.3c-3.43-33.51,3.19-68.17,4.84-76.06l3.23,1.17c-6.33,15-7.81,42.56-7.64,60.2.05,4.45,0,10.31.82,14.69Zm-4.21.55a4.53,4.53,0,0,0-2.38,4v3.85a4.54,4.54,0,0,0,4.52,4.52h3.85a4.54,4.54,0,0,0,4.52-4.52v-3.85a4.51,4.51,0,0,0-1.33-3.19,3.94,3.94,0,0,0-2.22-1.22c0-.58,0-1.42-.14-3.4-.22-2.85-.39-6.81-.43-11.42-.18-18,1.35-46.31,8-60.4l.7-1.48-1.55-.56-6.35-2.32L245,266l-.38,1.66c0,.12-9.24,40.31-5.24,78.94Zm1.87,2.49.38,0h3.74a1.52,1.52,0,0,1,1.51,1.51v3.85a1.55,1.55,0,0,1-.44,1.07,1.53,1.53,0,0,1-1.07.44h-3.85a1.52,1.52,0,0,1-1.51-1.51v-3.85a1.47,1.47,0,0,1,.45-1.06,1.45,1.45,0,0,1,.79-.42Z"/><path class="cls-4" d="M255.23,217.5h19.94a10.32,10.32,0,0,1,10.43,10.15v17.92a90.92,90.92,0,0,1-22.2,23.73c-5.88,4.39,0-.35-6.44,2.47l-2.51-42.83c0-5.58-5-11.44.78-11.44Z"/><path class="cls-10" d="M154.08,132.8c37.49-28,91.23-21.13,120,15.3s21.75,88.66-15.74,116.65-91.23,21.13-120-15.3-21.75-88.66,15.74-116.65Z"/><path class="cls-1" d="M113.28,217.12l8.88-.22a81.27,81.27,0,0,1,.49-33.73v-.24l-10.27.25a10.15,10.15,0,0,0-10,10.25l.37,14a10.17,10.17,0,0,0,10.54,9.72Z"/><path class="cls-1" d="M298.63,216.75l-8.89-.22a81.15,81.15,0,0,0-.48-33.74v-.24l10.28.26a10.14,10.14,0,0,1,10,10.24l-.37,14a10.18,10.18,0,0,1-10.54,9.72Z"/><path d="M152.62,131a89.57,89.57,0,0,1,65-17A88.27,88.27,0,0,1,276,146.68a83.48,83.48,0,0,1,17.47,63.22,84.75,84.75,0,0,1-33.64,56.69,89.61,89.61,0,0,1-65,17,88.33,88.33,0,0,1-58.33-32.69A83.51,83.51,0,0,1,119,187.65,84.75,84.75,0,0,1,152.62,131ZM217,118.6a84.72,84.72,0,0,0-61.5,16,80.17,80.17,0,0,0-31.82,53.63A78.94,78.94,0,0,0,140.23,248,83.49,83.49,0,0,0,195.41,279a84.65,84.65,0,0,0,61.49-16,80.17,80.17,0,0,0,31.82-53.62,79,79,0,0,0-16.51-59.77A83.49,83.49,0,0,0,217,118.6Z"/><path class="cls-2" d="M113.28,217.12l8.88-.22a81.27,81.27,0,0,1,.49-33.73v-.24l-7.78.19c-1.31,9.11-2.49,17.61-1.42,27.38l-8.89.22a.9.9,0,0,0-.89.56,10.34,10.34,0,0,0,9.62,5.84Z"/><path class="cls-2" d="M298.63,216.75l-8.89-.22a81.15,81.15,0,0,0-.48-33.74v-.24l7.78.2c1.32,9.11,2.5,17.61,1.43,27.38l8.89.22a.92.92,0,0,1,.89.55,10.35,10.35,0,0,1-9.62,5.85Z"/><path class="cls-3" d="M113.33,219.45l8.89-.23,2.82-.07-.52-2.69a78.94,78.94,0,0,1,.46-32.78l.06-.29v-.52l-.06-2.33-2.39.06-10.27.26h0a12.81,12.81,0,0,0-8.85,3.83,12.1,12.1,0,0,0-3.48,8.78h0l.37,14a12.12,12.12,0,0,0,3.94,8.61,12.88,12.88,0,0,0,9,3.39Zm6-4.8-6.11.15a8,8,0,0,1-5.62-2.11,7.54,7.54,0,0,1-2.47-5.35l-.37-14h0a7.54,7.54,0,0,1,2.17-5.47,8,8,0,0,1,5.5-2.39h0l7.32-.19a83.38,83.38,0,0,0-.42,29.33Z"/><path class="cls-3" d="M298.57,219.07l-8.88-.22-2.83-.07.53-2.69a78.77,78.77,0,0,0-.47-32.79l-.06-.28v-.52l.07-2.33,2.38.06,10.27.26h0a12.85,12.85,0,0,1,8.85,3.83,12.1,12.1,0,0,1,3.48,8.78h0l-.37,14a12.13,12.13,0,0,1-3.95,8.61,12.81,12.81,0,0,1-9,3.38Zm-6-4.8,6.11.16a8,8,0,0,0,5.62-2.12,7.53,7.53,0,0,0,2.47-5.34l.37-14h0a7.52,7.52,0,0,0-2.18-5.46,8,8,0,0,0-5.49-2.4h0l-7.33-.18a82.45,82.45,0,0,1,1.51,14.64,83.8,83.8,0,0,1-1.08,14.68Z"/><path class="cls-1" d="M291.17,208.9a82.42,82.42,0,0,1-32.81,55.85c-37.49,28-91.23,21.13-120-15.3a82.29,82.29,0,0,1-14-26.24c32.33,54.52,124.52,77.54,166.79-14.31Z"/><path class="cls-3" d="M293.55,209.19a84.24,84.24,0,0,1-10.92,32,86.1,86.1,0,0,1-22.81,25.36,89.61,89.61,0,0,1-65,17,88.33,88.33,0,0,1-58.33-32.69A86,86,0,0,1,128,238a83.37,83.37,0,0,1-5.92-14.09l-2.92-14.56L126.45,222a97.65,97.65,0,0,0,44.73,39,89.6,89.6,0,0,0,36.94,7.64,78.36,78.36,0,0,0,37.42-10C262.23,249.28,277.47,233,289,208l5.06-14.3Zm-15.08,29.73a79.66,79.66,0,0,0,5.86-12.27c-10.49,16.76-23,28.49-36.39,36a83.22,83.22,0,0,1-39.75,10.65,94.39,94.39,0,0,1-39-8,104.18,104.18,0,0,1-33.08-22.88c1.27,1.93,2.62,3.81,4.08,5.65A83.49,83.49,0,0,0,195.41,279a84.65,84.65,0,0,0,61.49-16,81.4,81.4,0,0,0,21.57-24Z"/><path class="cls-1" d="M154.1,130.93c37.5-28,91.23-21.14,120,15.3A81.21,81.21,0,0,1,291.2,207c-7.78-33.48-22.87-51-42.88-61.41-31.09-16.17-62.78-18.11-95.63,9.8-23.93,20.35-26.62,44.89-28.29,65.91-10.18-32.24.56-68.65,29.7-90.4Z"/><path class="cls-3" d="M152.64,129.09a89.61,89.61,0,0,1,65.06-17A88.28,88.28,0,0,1,276,144.81a84.39,84.39,0,0,1,15.12,29.53,83.45,83.45,0,0,1,2.43,33l-2.2,13-2.51-12.77c-3.81-16.43-9.4-28.9-16.46-38.51a71.34,71.34,0,0,0-25.21-21.37c-15.17-7.88-30.45-12.31-45.88-11.35s-31,7.27-47,20.86a70.58,70.58,0,0,0-21.8,31.69c-3.8,11.07-4.87,22.3-5.69,32.65l-1,12.21L122.12,222a83.54,83.54,0,0,1,.32-51.21,85.15,85.15,0,0,1,30.2-41.72Zm64.42-12.37a84.68,84.68,0,0,0-61.49,16A80.55,80.55,0,0,0,127,172.23a79.06,79.06,0,0,0-3.42,33.94,102.12,102.12,0,0,1,4.35-18.78,75.06,75.06,0,0,1,23.18-33.71c16.85-14.32,33.47-21,49.91-22s32.51,3.62,48.44,11.91a75.85,75.85,0,0,1,26.82,22.74,95.55,95.55,0,0,1,13,25.39,78.46,78.46,0,0,0-2.76-16.14,79.55,79.55,0,0,0-14.29-27.92,83.44,83.44,0,0,0-55.17-30.93Z"/><path class="cls-5" d="M291.78,199.75c-.08,2.43-.28,4.86-.58,7.28-7.78-33.48-22.87-51-42.88-61.41-31.09-16.17-74-15-100.92,11.4-8.06,7.91-22.88,26.51-23.83,51.17-3.83-25.16,6.33-48.19,30.86-66.5,37.49-28,91.23-21.14,120,15.3a81.36,81.36,0,0,1,17.33,42.76Z"/><path class="cls-3" d="M293.74,199.81c-.05,1.33-.12,2.57-.21,3.74s-.24,2.48-.39,3.71l-1.37,10.85-2.48-10.67c-3.83-16.47-9.44-29-16.54-38.66A71.49,71.49,0,0,0,247.4,147.3a94.05,94.05,0,0,0-53.19-9.84c-16.75,1.89-32.88,8.57-45.42,20.9A84,84,0,0,0,132,182.17a68,68,0,0,0-6.49,26.09l-.79,20.54-3.1-20.33a63.86,63.86,0,0,1,5.07-37.16c5.25-11.32,14-21.78,26.4-31h0l.14-.1A89.13,89.13,0,0,1,218,123.3a87.9,87.9,0,0,1,57.94,32.4h0l.11.13a84.56,84.56,0,0,1,12.05,20.66,82.57,82.57,0,0,1,5.67,23.07v.24Zm-17.81-33.24a93.59,93.59,0,0,1,12.34,23.6,79.3,79.3,0,0,0-3.85-12.28,80.52,80.52,0,0,0-11.52-19.74h0a84,84,0,0,0-55.45-31.08,85.18,85.18,0,0,0-61.83,16.14h0c-11.9,8.88-20.34,18.88-25.34,29.68a58.8,58.8,0,0,0-4.6,14.5c.84-2.35,1.77-4.61,2.77-6.77A88.21,88.21,0,0,1,146,155.68c13.2-13,30.16-20,47.74-22A98.08,98.08,0,0,1,249.24,144a75.5,75.5,0,0,1,26.69,22.62Z"/><path class="cls-5" d="M138.06,193.13s13.55-41,61.56-44.94c4.74-.77,10.57,12.5,3.51,14.5s-36,6.43-54.48,40.34c-1.26,2.45-13.48-2.95-10.59-9.9Z"/><path class="cls-5" d="M224.12,162.72a7.08,7.08,0,1,0-7.28-7.08,7.19,7.19,0,0,0,7.28,7.08Z"/><path class="cls-11" d="M209.43,295.15l-15.21,23.14,8.64,5.65,1.43-2.18,4.5,21.5,15-23.27-8.39-5.49-1.43,2.2Zm6.82,23.22,3.68,2.48L210.09,336l-4.51-21.56L201.92,320l-3.63-2.37,9.89-15.13,4.47,21.37Z"/><g class="cls-12"><circle class="cls-13" cx="241.32" cy="200.07" r="18.37"/><circle cx="243.99" cy="198.2" r="7.1"/><circle class="cls-13" cx="171.36" cy="200.07" r="18.37"/><path class="cls-14" d="M208.06,252.18a55.54,55.54,0,0,1-33-11,1.87,1.87,0,1,1,2.24-3,51,51,0,0,0,61.45,0,1.87,1.87,0,0,1,2.24,3,55.63,55.63,0,0,1-31,11C209.34,252.16,208.7,252.18,208.06,252.18Z"/><circle cx="176.16" cy="197.38" r="7.1"/></g></svg>