<?xml version="1.0" encoding="utf-8"?>
<!-- Generator: Adobe Illustrator 27.9.0, SVG Export Plug-In . SVG Version: 6.00 Build 0)  -->
<svg version="1.1" id="Layer_2" xmlns="http://www.w3.org/2000/svg" xmlns:xlink="http://www.w3.org/1999/xlink" x="0px" y="0px"
	 viewBox="0 0 432 576" style="enable-background:new 0 0 432 576;" xml:space="preserve">
<style type="text/css">
	.st0{opacity:5.000000e-02;}
	.st1{fill:#040D21;}
	.st2{fill:none;stroke:#000000;stroke-width:8;stroke-linecap:round;stroke-linejoin:round;stroke-miterlimit:10;}
	.st3{fill:#316CE6;}
	.st4{fill:#2D313F;}
	.st5{fill:#FEAF06;}
	.st6{fill:#FBD82B;}
	.st7{fill:#FFE278;}
	.st8{fill:#F70000;}
	.st9{fill:#B57817;}
	.st10{fill:#701D1D;}
	.st11{fill:#FFFFFF;}
	.st12{opacity:0.2;fill:url(#SVGID_1_);}
	.st13{opacity:0.2;fill:url(#SVGID_00000176037918312487628870000013845630376342484407_);}
	.st14{fill:#0062B2;}
	.st15{opacity:0.6;fill:#FFFFFF;}
	.st16{opacity:0.7;fill:#FFFFFF;}
	.st17{fill:#F2F2F2;}
	.st18{fill:#C9C9C9;}
	.st19{fill:#677077;}
	.st20{fill:#B8B8B8;}
	.st21{fill:#858D92;}
	.st22{fill:#CCCCCC;}
	.st23{fill:#EDEDED;}
	.st24{fill:#D9D9D9;}
	.st25{fill:#BEBEBE;}
	.st26{fill:#B4B4B4;}
	.st27{fill:url(#SVGID_00000047782426109350792460000000426714170250765193_);}
</style>
<g>
	<g class="st0">
		<g>
			<g id="XMLID_00000093880236444461419860000008870327608193271450_">
				<g id="XMLID_00000148658895658663997970000012692946854286642048_">
					<path id="XMLID_00000036214484616789403900000004992350199261756300_" class="st1" d="M226.5,219.9v15.8h2.9
						c0.7,0,1.2,0.1,1.5,0.4c0.3,0.3,0.4,0.6,0.4,1c0,0.4-0.1,0.8-0.4,1c-0.3,0.3-0.8,0.4-1.5,0.4h-8.7c-0.7,0-1.2-0.1-1.5-0.4
						c-0.3-0.3-0.4-0.6-0.4-1c0-0.4,0.1-0.8,0.4-1c0.3-0.3,0.8-0.4,1.5-0.4h2.9v-12l-2.6,0.7c-0.4,0.1-0.7,0.2-0.9,0.2
						c-0.4,0-0.7-0.1-0.9-0.4c-0.3-0.3-0.4-0.6-0.4-1.1c0-0.4,0.1-0.7,0.3-0.9c0.2-0.2,0.6-0.4,1.2-0.6L226.5,219.9z"/>
					<path id="XMLID_00000008151239788209619540000002951311085943796368_" class="st1" d="M248.6,227.9v3.2c0,1.9-0.5,3.7-1.6,5.4
						c-1.1,1.7-2.6,2.6-4.6,2.6c-1.2,0-2.1-0.3-2.9-0.8c-0.8-0.5-1.6-1.5-2.3-2.8c-0.7-1.4-1.1-2.8-1.1-4.4v-3.2
						c0-1.9,0.5-3.7,1.6-5.4c1.1-1.7,2.6-2.6,4.6-2.6c1.2,0,2.1,0.3,2.9,0.8c0.8,0.5,1.6,1.4,2.3,2.8
						C248.2,224.9,248.6,226.3,248.6,227.9z M245.7,227.9c0-1.6-0.4-2.9-1.3-4.1c-0.5-0.6-1.2-1-2.1-1c-0.9,0-1.6,0.4-2.1,1.1
						c-0.8,1.1-1.3,2.4-1.3,4v3.2c0,1.6,0.4,2.9,1.3,4.1c0.5,0.6,1.2,1,2.1,1c0.9,0,1.6-0.4,2.1-1.1c0.8-1.1,1.3-2.4,1.3-4V227.9z"
						/>
					<path id="XMLID_00000145037728651448519030000006035697525147524230_" class="st1" d="M261.1,219.9v15.8h2.9
						c0.7,0,1.2,0.1,1.5,0.4c0.3,0.3,0.4,0.6,0.4,1c0,0.4-0.1,0.8-0.4,1c-0.3,0.3-0.8,0.4-1.5,0.4h-8.7c-0.7,0-1.2-0.1-1.5-0.4
						c-0.3-0.3-0.4-0.6-0.4-1c0-0.4,0.1-0.8,0.4-1c0.3-0.3,0.8-0.4,1.5-0.4h2.9v-12l-2.6,0.7c-0.4,0.1-0.7,0.2-0.9,0.2
						c-0.4,0-0.7-0.1-0.9-0.4c-0.3-0.3-0.4-0.6-0.4-1.1c0-0.4,0.1-0.7,0.3-0.9c0.2-0.2,0.6-0.4,1.2-0.6L261.1,219.9z"/>
					<path id="XMLID_00000000207145306661216590000002035872373403993780_" class="st1" d="M283.1,227.9v3.2c0,1.9-0.5,3.7-1.6,5.4
						c-1.1,1.7-2.6,2.6-4.6,2.6c-1.2,0-2.1-0.3-2.9-0.8c-0.8-0.5-1.6-1.5-2.3-2.8c-0.7-1.4-1.1-2.8-1.1-4.4v-3.2
						c0-1.9,0.5-3.7,1.6-5.4c1.1-1.7,2.6-2.6,4.6-2.6c1.2,0,2.1,0.3,2.9,0.8c0.8,0.5,1.6,1.4,2.3,2.8
						C282.8,224.9,283.1,226.3,283.1,227.9z M280.3,227.9c0-1.6-0.4-2.9-1.3-4.1c-0.5-0.6-1.2-1-2.1-1c-0.9,0-1.6,0.4-2.1,1.1
						c-0.8,1.1-1.3,2.4-1.3,4v3.2c0,1.6,0.4,2.9,1.3,4.1c0.5,0.6,1.2,1,2.1,1c0.9,0,1.6-0.4,2.1-1.1c0.8-1.1,1.3-2.4,1.3-4V227.9z"
						/>
				</g>
				<g id="XMLID_00000036239223814927460320000006071736461627664010_">
					<path id="XMLID_00000129200266656395357410000009967070767876351901_" class="st1" d="M231.3,278.3v3.2c0,1.9-0.5,3.7-1.6,5.4
						c-1.1,1.7-2.6,2.6-4.6,2.6c-1.2,0-2.1-0.3-2.9-0.8c-0.8-0.5-1.6-1.5-2.3-2.8c-0.7-1.4-1.1-2.8-1.1-4.4v-3.2
						c0-1.9,0.5-3.7,1.6-5.4c1.1-1.7,2.6-2.6,4.6-2.6c1.2,0,2.1,0.3,2.9,0.8c0.8,0.5,1.6,1.4,2.3,2.8
						C231,275.3,231.3,276.7,231.3,278.3z M228.4,278.3c0-1.6-0.4-2.9-1.3-4.1c-0.5-0.6-1.2-1-2.1-1c-0.9,0-1.6,0.4-2.1,1.1
						c-0.8,1.1-1.3,2.4-1.3,4v3.2c0,1.6,0.4,2.9,1.3,4.1c0.5,0.6,1.2,1,2.1,1c0.9,0,1.6-0.4,2.1-1.1c0.8-1.1,1.3-2.4,1.3-4V278.3z"
						/>
					<path id="XMLID_00000025445322904523067020000000566629405525273993_" class="st1" d="M243.8,270.3v15.8h2.9
						c0.7,0,1.2,0.1,1.5,0.4c0.3,0.3,0.4,0.6,0.4,1c0,0.4-0.1,0.8-0.4,1c-0.3,0.3-0.8,0.4-1.5,0.4H238c-0.7,0-1.2-0.1-1.5-0.4
						c-0.3-0.3-0.4-0.6-0.4-1c0-0.4,0.1-0.8,0.4-1c0.3-0.3,0.8-0.4,1.5-0.4h2.9v-12l-2.6,0.7c-0.4,0.1-0.7,0.2-0.9,0.2
						c-0.4,0-0.7-0.1-0.9-0.4c-0.3-0.3-0.4-0.6-0.4-1.1c0-0.4,0.1-0.7,0.3-0.9c0.2-0.2,0.6-0.4,1.2-0.6L243.8,270.3z"/>
					<path id="XMLID_00000179608420608036231530000015428940188798363797_" class="st1" d="M261.1,270.3v15.8h2.9
						c0.7,0,1.2,0.1,1.5,0.4c0.3,0.3,0.4,0.6,0.4,1c0,0.4-0.1,0.8-0.4,1c-0.3,0.3-0.8,0.4-1.5,0.4h-8.7c-0.7,0-1.2-0.1-1.5-0.4
						c-0.3-0.3-0.4-0.6-0.4-1c0-0.4,0.1-0.8,0.4-1c0.3-0.3,0.8-0.4,1.5-0.4h2.9v-12l-2.6,0.7c-0.4,0.1-0.7,0.2-0.9,0.2
						c-0.4,0-0.7-0.1-0.9-0.4c-0.3-0.3-0.4-0.6-0.4-1.1c0-0.4,0.1-0.7,0.3-0.9c0.2-0.2,0.6-0.4,1.2-0.6L261.1,270.3z"/>
					<path id="XMLID_00000179642199856718000610000001003634092936021129_" class="st1" d="M283.1,278.3v3.2c0,1.9-0.5,3.7-1.6,5.4
						c-1.1,1.7-2.6,2.6-4.6,2.6c-1.2,0-2.1-0.3-2.9-0.8c-0.8-0.5-1.6-1.5-2.3-2.8c-0.7-1.4-1.1-2.8-1.1-4.4v-3.2
						c0-1.9,0.5-3.7,1.6-5.4c1.1-1.7,2.6-2.6,4.6-2.6c1.2,0,2.1,0.3,2.9,0.8c0.8,0.5,1.6,1.4,2.3,2.8
						C282.8,275.3,283.1,276.7,283.1,278.3z M280.3,278.3c0-1.6-0.4-2.9-1.3-4.1c-0.5-0.6-1.2-1-2.1-1c-0.9,0-1.6,0.4-2.1,1.1
						c-0.8,1.1-1.3,2.4-1.3,4v3.2c0,1.6,0.4,2.9,1.3,4.1c0.5,0.6,1.2,1,2.1,1c0.9,0,1.6-0.4,2.1-1.1c0.8-1.1,1.3-2.4,1.3-4V278.3z"
						/>
				</g>
				<g id="XMLID_00000178193100936994669740000015016726308971386552_">
					<path id="XMLID_00000080183583712447036540000017876061807759113139_" class="st1" d="M231.3,253.2v3.2c0,1.9-0.5,3.7-1.6,5.4
						c-1.1,1.7-2.6,2.6-4.6,2.6c-1.2,0-2.1-0.3-2.9-0.8c-0.8-0.5-1.6-1.5-2.3-2.8c-0.7-1.4-1.1-2.8-1.1-4.4v-3.2
						c0-1.9,0.5-3.7,1.6-5.4c1.1-1.7,2.6-2.6,4.6-2.6c1.2,0,2.1,0.3,2.9,0.8c0.8,0.5,1.6,1.4,2.3,2.8
						C231,250.2,231.3,251.7,231.3,253.2z M228.4,253.2c0-1.6-0.4-2.9-1.3-4.1c-0.5-0.6-1.2-1-2.1-1c-0.9,0-1.6,0.4-2.1,1.1
						c-0.8,1.1-1.3,2.4-1.3,4v3.2c0,1.6,0.4,2.9,1.3,4.1c0.5,0.6,1.2,1,2.1,1c0.9,0,1.6-0.4,2.1-1.1c0.8-1.1,1.3-2.4,1.3-4V253.2z"
						/>
					<path id="XMLID_00000107580242837360720720000000926058985189970857_" class="st1" d="M243.8,245.3V261h2.9
						c0.7,0,1.2,0.1,1.5,0.4c0.3,0.3,0.4,0.6,0.4,1c0,0.4-0.1,0.8-0.4,1c-0.3,0.3-0.8,0.4-1.5,0.4H238c-0.7,0-1.2-0.1-1.5-0.4
						c-0.3-0.3-0.4-0.6-0.4-1c0-0.4,0.1-0.8,0.4-1c0.3-0.3,0.8-0.4,1.5-0.4h2.9v-12l-2.6,0.7c-0.4,0.1-0.7,0.2-0.9,0.2
						c-0.4,0-0.7-0.1-0.9-0.4c-0.3-0.3-0.4-0.6-0.4-1.1c0-0.4,0.1-0.7,0.3-0.9c0.2-0.2,0.6-0.4,1.2-0.6L243.8,245.3z"/>
					<path id="XMLID_00000062186218209959206020000012292968760408730524_" class="st1" d="M265.9,253.2v3.2c0,1.9-0.5,3.7-1.6,5.4
						c-1.1,1.7-2.6,2.6-4.6,2.6c-1.2,0-2.1-0.3-2.9-0.8c-0.8-0.5-1.6-1.5-2.3-2.8c-0.7-1.4-1.1-2.8-1.1-4.4v-3.2
						c0-1.9,0.5-3.7,1.6-5.4c1.1-1.7,2.6-2.6,4.6-2.6c1.2,0,2.1,0.3,2.9,0.8c0.8,0.5,1.6,1.4,2.3,2.8
						C265.5,250.2,265.9,251.7,265.9,253.2z M263,253.2c0-1.6-0.4-2.9-1.3-4.1c-0.5-0.6-1.2-1-2.1-1c-0.9,0-1.6,0.4-2.1,1.1
						c-0.8,1.1-1.3,2.4-1.3,4v3.2c0,1.6,0.4,2.9,1.3,4.1c0.5,0.6,1.2,1,2.1,1c0.9,0,1.6-0.4,2.1-1.1c0.8-1.1,1.3-2.4,1.3-4V253.2z"
						/>
					<path id="XMLID_00000107566112720854472280000018089533175217173911_" class="st1" d="M283.1,253.2v3.2c0,1.9-0.5,3.7-1.6,5.4
						c-1.1,1.7-2.6,2.6-4.6,2.6c-1.2,0-2.1-0.3-2.9-0.8c-0.8-0.5-1.6-1.5-2.3-2.8c-0.7-1.4-1.1-2.8-1.1-4.4v-3.2
						c0-1.9,0.5-3.7,1.6-5.4c1.1-1.7,2.6-2.6,4.6-2.6c1.2,0,2.1,0.3,2.9,0.8c0.8,0.5,1.6,1.4,2.3,2.8
						C282.8,250.2,283.1,251.7,283.1,253.2z M280.3,253.2c0-1.6-0.4-2.9-1.3-4.1c-0.5-0.6-1.2-1-2.1-1c-0.9,0-1.6,0.4-2.1,1.1
						c-0.8,1.1-1.3,2.4-1.3,4v3.2c0,1.6,0.4,2.9,1.3,4.1c0.5,0.6,1.2,1,2.1,1c0.9,0,1.6-0.4,2.1-1.1c0.8-1.1,1.3-2.4,1.3-4V253.2z"
						/>
				</g>
			</g>
			<g id="XMLID_00000179638122966009348170000008984015961862669192_">
				<g id="XMLID_00000171694197693769698450000017587113427316109207_">
					<path id="XMLID_00000136370404941101062680000010304936500686903973_" class="st1" d="M296.9,219.9v15.8h2.9
						c0.7,0,1.2,0.1,1.5,0.4c0.3,0.3,0.4,0.6,0.4,1c0,0.4-0.1,0.8-0.4,1c-0.3,0.3-0.8,0.4-1.5,0.4h-8.7c-0.7,0-1.2-0.1-1.5-0.4
						c-0.3-0.3-0.4-0.6-0.4-1c0-0.4,0.1-0.8,0.4-1c0.3-0.3,0.8-0.4,1.5-0.4h2.9v-12l-2.6,0.7c-0.4,0.1-0.7,0.2-0.9,0.2
						c-0.4,0-0.7-0.1-0.9-0.4c-0.3-0.3-0.4-0.6-0.4-1.1c0-0.4,0.1-0.7,0.3-0.9c0.2-0.2,0.6-0.4,1.2-0.6L296.9,219.9z"/>
					<path id="XMLID_00000036240437363874462910000017101134869266476427_" class="st1" d="M319,227.9v3.2c0,1.9-0.5,3.7-1.6,5.4
						c-1.1,1.7-2.6,2.6-4.6,2.6c-1.2,0-2.1-0.3-2.9-0.8c-0.8-0.5-1.6-1.5-2.3-2.8c-0.7-1.4-1.1-2.8-1.1-4.4v-3.2
						c0-1.9,0.5-3.7,1.6-5.4c1.1-1.7,2.6-2.6,4.6-2.6c1.2,0,2.1,0.3,2.9,0.8c0.8,0.5,1.6,1.4,2.3,2.8
						C318.7,224.9,319,226.3,319,227.9z M316.1,227.9c0-1.6-0.4-2.9-1.3-4.1c-0.5-0.6-1.2-1-2.1-1c-0.9,0-1.6,0.4-2.1,1.1
						c-0.8,1.1-1.3,2.4-1.3,4v3.2c0,1.6,0.4,2.9,1.3,4.1c0.5,0.6,1.2,1,2.1,1c0.9,0,1.6-0.4,2.1-1.1c0.8-1.1,1.3-2.4,1.3-4V227.9z"
						/>
					<path id="XMLID_00000078029184894323409150000010494748466818978460_" class="st1" d="M331.5,219.9v15.8h2.9
						c0.7,0,1.2,0.1,1.5,0.4c0.3,0.3,0.4,0.6,0.4,1c0,0.4-0.1,0.8-0.4,1c-0.3,0.3-0.8,0.4-1.5,0.4h-8.7c-0.7,0-1.2-0.1-1.5-0.4
						c-0.3-0.3-0.4-0.6-0.4-1c0-0.4,0.1-0.8,0.4-1c0.3-0.3,0.8-0.4,1.5-0.4h2.9v-12l-2.6,0.7c-0.4,0.1-0.7,0.2-0.9,0.2
						c-0.4,0-0.7-0.1-0.9-0.4c-0.3-0.3-0.4-0.6-0.4-1.1c0-0.4,0.1-0.7,0.3-0.9c0.2-0.2,0.6-0.4,1.2-0.6L331.5,219.9z"/>
					<path id="XMLID_00000027575732383104046930000006657136387892613030_" class="st1" d="M353.6,227.9v3.2c0,1.9-0.5,3.7-1.6,5.4
						c-1.1,1.7-2.6,2.6-4.6,2.6c-1.2,0-2.1-0.3-2.9-0.8c-0.8-0.5-1.6-1.5-2.3-2.8c-0.7-1.4-1.1-2.8-1.1-4.4v-3.2
						c0-1.9,0.5-3.7,1.6-5.4c1.1-1.7,2.6-2.6,4.6-2.6c1.2,0,2.1,0.3,2.9,0.8c0.8,0.5,1.6,1.4,2.3,2.8
						C353.2,224.9,353.6,226.3,353.6,227.9z M350.7,227.9c0-1.6-0.4-2.9-1.3-4.1c-0.5-0.6-1.2-1-2.1-1c-0.9,0-1.6,0.4-2.1,1.1
						c-0.8,1.1-1.3,2.4-1.3,4v3.2c0,1.6,0.4,2.9,1.3,4.1c0.5,0.6,1.2,1,2.1,1c0.9,0,1.6-0.4,2.1-1.1c0.8-1.1,1.3-2.4,1.3-4V227.9z"
						/>
				</g>
				<g id="XMLID_00000031206026131529659670000002226736690563288511_">
					<path id="XMLID_00000051346816679371108540000007252301029625145023_" class="st1" d="M301.8,278.3v3.2c0,1.9-0.5,3.7-1.6,5.4
						c-1.1,1.7-2.6,2.6-4.6,2.6c-1.2,0-2.1-0.3-2.9-0.8c-0.8-0.5-1.6-1.5-2.3-2.8c-0.7-1.4-1.1-2.8-1.1-4.4v-3.2
						c0-1.9,0.5-3.7,1.6-5.4c1.1-1.7,2.6-2.6,4.6-2.6c1.2,0,2.1,0.3,2.9,0.8c0.8,0.5,1.6,1.4,2.3,2.8
						C301.4,275.3,301.8,276.7,301.8,278.3z M298.9,278.3c0-1.6-0.4-2.9-1.3-4.1c-0.5-0.6-1.2-1-2.1-1c-0.9,0-1.6,0.4-2.1,1.1
						c-0.8,1.1-1.3,2.4-1.3,4v3.2c0,1.6,0.4,2.9,1.3,4.1c0.5,0.6,1.2,1,2.1,1c0.9,0,1.6-0.4,2.1-1.1c0.8-1.1,1.3-2.4,1.3-4V278.3z"
						/>
					<path id="XMLID_00000065033458144205227540000009422704478557685428_" class="st1" d="M314.2,270.3v15.8h2.9
						c0.7,0,1.2,0.1,1.5,0.4c0.3,0.3,0.4,0.6,0.4,1c0,0.4-0.1,0.8-0.4,1c-0.3,0.3-0.8,0.4-1.5,0.4h-8.7c-0.7,0-1.2-0.1-1.5-0.4
						c-0.3-0.3-0.4-0.6-0.4-1c0-0.4,0.1-0.8,0.4-1c0.3-0.3,0.8-0.4,1.5-0.4h2.9v-12l-2.6,0.7c-0.4,0.1-0.7,0.2-0.9,0.2
						c-0.4,0-0.7-0.1-0.9-0.4c-0.3-0.3-0.4-0.6-0.4-1.1c0-0.4,0.1-0.7,0.3-0.9c0.2-0.2,0.6-0.4,1.2-0.6L314.2,270.3z"/>
					<path id="XMLID_00000060016104400791035920000005847087415227126944_" class="st1" d="M331.5,270.3v15.8h2.9
						c0.7,0,1.2,0.1,1.5,0.4c0.3,0.3,0.4,0.6,0.4,1c0,0.4-0.1,0.8-0.4,1c-0.3,0.3-0.8,0.4-1.5,0.4h-8.7c-0.7,0-1.2-0.1-1.5-0.4
						c-0.3-0.3-0.4-0.6-0.4-1c0-0.4,0.1-0.8,0.4-1c0.3-0.3,0.8-0.4,1.5-0.4h2.9v-12l-2.6,0.7c-0.4,0.1-0.7,0.2-0.9,0.2
						c-0.4,0-0.7-0.1-0.9-0.4c-0.3-0.3-0.4-0.6-0.4-1.1c0-0.4,0.1-0.7,0.3-0.9c0.2-0.2,0.6-0.4,1.2-0.6L331.5,270.3z"/>
					<path id="XMLID_00000023966880326768197510000004160054840919523489_" class="st1" d="M353.6,278.3v3.2c0,1.9-0.5,3.7-1.6,5.4
						c-1.1,1.7-2.6,2.6-4.6,2.6c-1.2,0-2.1-0.3-2.9-0.8c-0.8-0.5-1.6-1.5-2.3-2.8c-0.7-1.4-1.1-2.8-1.1-4.4v-3.2
						c0-1.9,0.5-3.7,1.6-5.4c1.1-1.7,2.6-2.6,4.6-2.6c1.2,0,2.1,0.3,2.9,0.8c0.8,0.5,1.6,1.4,2.3,2.8
						C353.2,275.3,353.6,276.7,353.6,278.3z M350.7,278.3c0-1.6-0.4-2.9-1.3-4.1c-0.5-0.6-1.2-1-2.1-1c-0.9,0-1.6,0.4-2.1,1.1
						c-0.8,1.1-1.3,2.4-1.3,4v3.2c0,1.6,0.4,2.9,1.3,4.1c0.5,0.6,1.2,1,2.1,1c0.9,0,1.6-0.4,2.1-1.1c0.8-1.1,1.3-2.4,1.3-4V278.3z"
						/>
				</g>
				<g id="XMLID_00000147932642969187097250000009211698602131047818_">
					<path id="XMLID_00000000220921867047378090000007250488832686760869_" class="st1" d="M301.8,253.2v3.2c0,1.9-0.5,3.7-1.6,5.4
						c-1.1,1.7-2.6,2.6-4.6,2.6c-1.2,0-2.1-0.3-2.9-0.8c-0.8-0.5-1.6-1.5-2.3-2.8c-0.7-1.4-1.1-2.8-1.1-4.4v-3.2
						c0-1.9,0.5-3.7,1.6-5.4c1.1-1.7,2.6-2.6,4.6-2.6c1.2,0,2.1,0.3,2.9,0.8c0.8,0.5,1.6,1.4,2.3,2.8
						C301.4,250.2,301.8,251.7,301.8,253.2z M298.9,253.2c0-1.6-0.4-2.9-1.3-4.1c-0.5-0.6-1.2-1-2.1-1c-0.9,0-1.6,0.4-2.1,1.1
						c-0.8,1.1-1.3,2.4-1.3,4v3.2c0,1.6,0.4,2.9,1.3,4.1c0.5,0.6,1.2,1,2.1,1c0.9,0,1.6-0.4,2.1-1.1c0.8-1.1,1.3-2.4,1.3-4V253.2z"
						/>
					<path id="XMLID_00000034060271996876375750000017790780892576846467_" class="st1" d="M314.2,245.3V261h2.9
						c0.7,0,1.2,0.1,1.5,0.4c0.3,0.3,0.4,0.6,0.4,1c0,0.4-0.1,0.8-0.4,1c-0.3,0.3-0.8,0.4-1.5,0.4h-8.7c-0.7,0-1.2-0.1-1.5-0.4
						c-0.3-0.3-0.4-0.6-0.4-1c0-0.4,0.1-0.8,0.4-1c0.3-0.3,0.8-0.4,1.5-0.4h2.9v-12l-2.6,0.7c-0.4,0.1-0.7,0.2-0.9,0.2
						c-0.4,0-0.7-0.1-0.9-0.4c-0.3-0.3-0.4-0.6-0.4-1.1c0-0.4,0.1-0.7,0.3-0.9c0.2-0.2,0.6-0.4,1.2-0.6L314.2,245.3z"/>
					<path id="XMLID_00000036944666542583423810000005373723935337706675_" class="st1" d="M336.3,253.2v3.2c0,1.9-0.5,3.7-1.6,5.4
						c-1.1,1.7-2.6,2.6-4.6,2.6c-1.2,0-2.1-0.3-2.9-0.8c-0.8-0.5-1.6-1.5-2.3-2.8c-0.7-1.4-1.1-2.8-1.1-4.4v-3.2
						c0-1.9,0.5-3.7,1.6-5.4c1.1-1.7,2.6-2.6,4.6-2.6c1.2,0,2.1,0.3,2.9,0.8c0.8,0.5,1.6,1.4,2.3,2.8
						C335.9,250.2,336.3,251.7,336.3,253.2z M333.4,253.2c0-1.6-0.4-2.9-1.3-4.1c-0.5-0.6-1.2-1-2.1-1c-0.9,0-1.6,0.4-2.1,1.1
						c-0.8,1.1-1.3,2.4-1.3,4v3.2c0,1.6,0.4,2.9,1.3,4.1c0.5,0.6,1.2,1,2.1,1c0.9,0,1.6-0.4,2.1-1.1c0.8-1.1,1.3-2.4,1.3-4V253.2z"
						/>
					<path id="XMLID_00000020384025811082163470000003876117057467082674_" class="st1" d="M353.6,253.2v3.2c0,1.9-0.5,3.7-1.6,5.4
						c-1.1,1.7-2.6,2.6-4.6,2.6c-1.2,0-2.1-0.3-2.9-0.8c-0.8-0.5-1.6-1.5-2.3-2.8c-0.7-1.4-1.1-2.8-1.1-4.4v-3.2
						c0-1.9,0.5-3.7,1.6-5.4c1.1-1.7,2.6-2.6,4.6-2.6c1.2,0,2.1,0.3,2.9,0.8c0.8,0.5,1.6,1.4,2.3,2.8
						C353.2,250.2,353.6,251.7,353.6,253.2z M350.7,253.2c0-1.6-0.4-2.9-1.3-4.1c-0.5-0.6-1.2-1-2.1-1c-0.9,0-1.6,0.4-2.1,1.1
						c-0.8,1.1-1.3,2.4-1.3,4v3.2c0,1.6,0.4,2.9,1.3,4.1c0.5,0.6,1.2,1,2.1,1c0.9,0,1.6-0.4,2.1-1.1c0.8-1.1,1.3-2.4,1.3-4V253.2z"
						/>
				</g>
			</g>
			<g id="XMLID_00000131348716127021995820000006711865936474527663_">
				<g id="XMLID_00000066496814408194174820000015510459318661872025_">
					<path id="XMLID_00000003797159410302512420000013441820300900090029_" class="st1" d="M226.5,143.7v15.8h2.9
						c0.7,0,1.2,0.1,1.5,0.4c0.3,0.3,0.4,0.6,0.4,1c0,0.4-0.1,0.8-0.4,1c-0.3,0.3-0.8,0.4-1.5,0.4h-8.7c-0.7,0-1.2-0.1-1.5-0.4
						c-0.3-0.3-0.4-0.6-0.4-1c0-0.4,0.1-0.8,0.4-1c0.3-0.3,0.8-0.4,1.5-0.4h2.9v-12l-2.6,0.7c-0.4,0.1-0.7,0.2-0.9,0.2
						c-0.4,0-0.7-0.1-0.9-0.4c-0.3-0.3-0.4-0.6-0.4-1.1c0-0.4,0.1-0.7,0.3-0.9c0.2-0.2,0.6-0.4,1.2-0.6L226.5,143.7z"/>
					<path id="XMLID_00000085216780019540877090000004628695178927105463_" class="st1" d="M248.6,151.7v3.2c0,1.9-0.5,3.7-1.6,5.4
						c-1.1,1.7-2.6,2.6-4.6,2.6c-1.2,0-2.1-0.3-2.9-0.8c-0.8-0.5-1.6-1.5-2.3-2.8c-0.7-1.4-1.1-2.8-1.1-4.4v-3.2
						c0-1.9,0.5-3.7,1.6-5.4c1.1-1.7,2.6-2.6,4.6-2.6c1.2,0,2.1,0.3,2.9,0.8c0.8,0.5,1.6,1.4,2.3,2.8
						C248.3,148.7,248.6,150.1,248.6,151.7z M245.7,151.7c0-1.6-0.4-2.9-1.3-4.1c-0.5-0.6-1.2-1-2.1-1c-0.9,0-1.6,0.4-2.1,1.1
						c-0.8,1.1-1.3,2.4-1.3,4v3.2c0,1.6,0.4,2.9,1.3,4.1c0.5,0.6,1.2,1,2.1,1c0.9,0,1.6-0.4,2.1-1.1c0.8-1.1,1.3-2.4,1.3-4V151.7z"
						/>
					<path id="XMLID_00000111883338425940487150000016048435525434950307_" class="st1" d="M261.1,143.7v15.8h2.9
						c0.7,0,1.2,0.1,1.5,0.4c0.3,0.3,0.4,0.6,0.4,1c0,0.4-0.1,0.8-0.4,1c-0.3,0.3-0.8,0.4-1.5,0.4h-8.7c-0.7,0-1.2-0.1-1.5-0.4
						c-0.3-0.3-0.4-0.6-0.4-1c0-0.4,0.1-0.8,0.4-1c0.3-0.3,0.8-0.4,1.5-0.4h2.9v-12l-2.6,0.7c-0.4,0.1-0.7,0.2-0.9,0.2
						c-0.4,0-0.7-0.1-0.9-0.4c-0.3-0.3-0.4-0.6-0.4-1.1c0-0.4,0.1-0.7,0.3-0.9c0.2-0.2,0.6-0.4,1.2-0.6L261.1,143.7z"/>
					<path id="XMLID_00000047777449981755476810000002592951575661475763_" class="st1" d="M283.2,151.7v3.2c0,1.9-0.5,3.7-1.6,5.4
						c-1.1,1.7-2.6,2.6-4.6,2.6c-1.2,0-2.1-0.3-2.9-0.8c-0.8-0.5-1.6-1.5-2.3-2.8c-0.7-1.4-1.1-2.8-1.1-4.4v-3.2
						c0-1.9,0.5-3.7,1.6-5.4s2.6-2.6,4.6-2.6c1.2,0,2.1,0.3,2.9,0.8c0.8,0.5,1.6,1.4,2.3,2.8C282.8,148.7,283.2,150.1,283.2,151.7z
						 M280.3,151.7c0-1.6-0.4-2.9-1.3-4.1c-0.5-0.6-1.2-1-2.1-1c-0.9,0-1.6,0.4-2.1,1.1c-0.8,1.1-1.3,2.4-1.3,4v3.2
						c0,1.6,0.4,2.9,1.3,4.1c0.5,0.6,1.2,1,2.1,1c0.9,0,1.6-0.4,2.1-1.1c0.8-1.1,1.3-2.4,1.3-4V151.7z"/>
				</g>
				<g id="XMLID_00000107578493975333268150000008276888904779366055_">
					<path id="XMLID_00000041268026130437198930000015732917417566622118_" class="st1" d="M231.4,202.1v3.2c0,1.9-0.5,3.7-1.6,5.4
						c-1.1,1.7-2.6,2.6-4.6,2.6c-1.2,0-2.1-0.3-2.9-0.8c-0.8-0.5-1.6-1.5-2.3-2.8c-0.7-1.4-1.1-2.8-1.1-4.4v-3.2
						c0-1.9,0.5-3.7,1.6-5.4c1.1-1.7,2.6-2.6,4.6-2.6c1.2,0,2.1,0.3,2.9,0.8c0.8,0.5,1.6,1.4,2.3,2.8
						C231,199.1,231.4,200.5,231.4,202.1z M228.5,202.1c0-1.6-0.4-2.9-1.3-4.1c-0.5-0.6-1.2-1-2.1-1c-0.9,0-1.6,0.4-2.1,1.1
						c-0.8,1.1-1.3,2.4-1.3,4v3.2c0,1.6,0.4,2.9,1.3,4.1c0.5,0.6,1.2,1,2.1,1c0.9,0,1.6-0.4,2.1-1.1c0.8-1.1,1.3-2.4,1.3-4V202.1z"
						/>
					<path id="XMLID_00000050650469224836044690000009605292752217851815_" class="st1" d="M243.8,194.1v15.8h2.9
						c0.7,0,1.2,0.1,1.5,0.4c0.3,0.3,0.4,0.6,0.4,1c0,0.4-0.1,0.8-0.4,1c-0.3,0.3-0.8,0.4-1.5,0.4H238c-0.7,0-1.2-0.1-1.5-0.4
						c-0.3-0.3-0.4-0.6-0.4-1c0-0.4,0.1-0.8,0.4-1c0.3-0.3,0.8-0.4,1.5-0.4h2.9v-12l-2.6,0.7c-0.4,0.1-0.7,0.2-0.9,0.2
						c-0.4,0-0.7-0.1-0.9-0.4c-0.3-0.3-0.4-0.6-0.4-1.1c0-0.4,0.1-0.7,0.3-0.9c0.2-0.2,0.6-0.4,1.2-0.6L243.8,194.1z"/>
					<path id="XMLID_00000003785889118526585680000005222243351268748429_" class="st1" d="M261.1,194.1v15.8h2.9
						c0.7,0,1.2,0.1,1.5,0.4c0.3,0.3,0.4,0.6,0.4,1c0,0.4-0.1,0.8-0.4,1c-0.3,0.3-0.8,0.4-1.5,0.4h-8.7c-0.7,0-1.2-0.1-1.5-0.4
						c-0.3-0.3-0.4-0.6-0.4-1c0-0.4,0.1-0.8,0.4-1c0.3-0.3,0.8-0.4,1.5-0.4h2.9v-12l-2.6,0.7c-0.4,0.1-0.7,0.2-0.9,0.2
						c-0.4,0-0.7-0.1-0.9-0.4c-0.3-0.3-0.4-0.6-0.4-1.1c0-0.4,0.1-0.7,0.3-0.9c0.2-0.2,0.6-0.4,1.2-0.6L261.1,194.1z"/>
					<path id="XMLID_00000090261280846699610420000013350415511642805674_" class="st1" d="M283.2,202.1v3.2c0,1.9-0.5,3.7-1.6,5.4
						c-1.1,1.7-2.6,2.6-4.6,2.6c-1.2,0-2.1-0.3-2.9-0.8c-0.8-0.5-1.6-1.5-2.3-2.8c-0.7-1.4-1.1-2.8-1.1-4.4v-3.2
						c0-1.9,0.5-3.7,1.6-5.4c1.1-1.7,2.6-2.6,4.6-2.6c1.2,0,2.1,0.3,2.9,0.8c0.8,0.5,1.6,1.4,2.3,2.8
						C282.8,199.1,283.2,200.5,283.2,202.1z M280.3,202.1c0-1.6-0.4-2.9-1.3-4.1c-0.5-0.6-1.2-1-2.1-1c-0.9,0-1.6,0.4-2.1,1.1
						c-0.8,1.1-1.3,2.4-1.3,4v3.2c0,1.6,0.4,2.9,1.3,4.1c0.5,0.6,1.2,1,2.1,1c0.9,0,1.6-0.4,2.1-1.1c0.8-1.1,1.3-2.4,1.3-4V202.1z"
						/>
				</g>
				<g id="XMLID_00000163792504801762109070000001990471268107958419_">
					<path id="XMLID_00000129914709261374516670000005563145610739352479_" class="st1" d="M231.4,177v3.2c0,1.9-0.5,3.7-1.6,5.4
						c-1.1,1.7-2.6,2.6-4.6,2.6c-1.2,0-2.1-0.3-2.9-0.8c-0.8-0.5-1.6-1.5-2.3-2.8c-0.7-1.4-1.1-2.8-1.1-4.4V177
						c0-1.9,0.5-3.7,1.6-5.4s2.6-2.6,4.6-2.6c1.2,0,2.1,0.3,2.9,0.8c0.8,0.5,1.6,1.4,2.3,2.8C231,174,231.4,175.5,231.4,177z
						 M228.5,177c0-1.6-0.4-2.9-1.3-4.1c-0.5-0.6-1.2-1-2.1-1c-0.9,0-1.6,0.4-2.1,1.1c-0.8,1.1-1.3,2.4-1.3,4v3.2
						c0,1.6,0.4,2.9,1.3,4.1c0.5,0.6,1.2,1,2.1,1c0.9,0,1.6-0.4,2.1-1.1c0.8-1.1,1.3-2.4,1.3-4V177z"/>
					<path id="XMLID_00000131366190975671630750000002398086908632481417_" class="st1" d="M243.8,169.1v15.8h2.9
						c0.7,0,1.2,0.1,1.5,0.4c0.3,0.3,0.4,0.6,0.4,1c0,0.4-0.1,0.8-0.4,1c-0.3,0.3-0.8,0.4-1.5,0.4H238c-0.7,0-1.2-0.1-1.5-0.4
						c-0.3-0.3-0.4-0.6-0.4-1c0-0.4,0.1-0.8,0.4-1c0.3-0.3,0.8-0.4,1.5-0.4h2.9v-12l-2.6,0.7c-0.4,0.1-0.7,0.2-0.9,0.2
						c-0.4,0-0.7-0.1-0.9-0.4c-0.3-0.3-0.4-0.6-0.4-1.1c0-0.4,0.1-0.7,0.3-0.9c0.2-0.2,0.6-0.4,1.2-0.6L243.8,169.1z"/>
					<path id="XMLID_00000080204538365232337070000005722828112072455613_" class="st1" d="M265.9,177v3.2c0,1.9-0.5,3.7-1.6,5.4
						c-1.1,1.7-2.6,2.6-4.6,2.6c-1.2,0-2.1-0.3-2.9-0.8c-0.8-0.5-1.6-1.5-2.3-2.8c-0.7-1.4-1.1-2.8-1.1-4.4V177
						c0-1.9,0.5-3.7,1.6-5.4s2.6-2.6,4.6-2.6c1.2,0,2.1,0.3,2.9,0.8c0.8,0.5,1.6,1.4,2.3,2.8C265.5,174,265.9,175.5,265.9,177z
						 M263,177c0-1.6-0.4-2.9-1.3-4.1c-0.5-0.6-1.2-1-2.1-1c-0.9,0-1.6,0.4-2.1,1.1c-0.8,1.1-1.3,2.4-1.3,4v3.2
						c0,1.6,0.4,2.9,1.3,4.1c0.5,0.6,1.2,1,2.1,1c0.9,0,1.6-0.4,2.1-1.1c0.8-1.1,1.3-2.4,1.3-4V177z"/>
					<path id="XMLID_00000003821840267657745890000016883094624972821661_" class="st1" d="M283.2,177v3.2c0,1.9-0.5,3.7-1.6,5.4
						c-1.1,1.7-2.6,2.6-4.6,2.6c-1.2,0-2.1-0.3-2.9-0.8c-0.8-0.5-1.6-1.5-2.3-2.8c-0.7-1.4-1.1-2.8-1.1-4.4V177
						c0-1.9,0.5-3.7,1.6-5.4s2.6-2.6,4.6-2.6c1.2,0,2.1,0.3,2.9,0.8c0.8,0.5,1.6,1.4,2.3,2.8C282.8,174,283.2,175.5,283.2,177z
						 M280.3,177c0-1.6-0.4-2.9-1.3-4.1c-0.5-0.6-1.2-1-2.1-1c-0.9,0-1.6,0.4-2.1,1.1c-0.8,1.1-1.3,2.4-1.3,4v3.2
						c0,1.6,0.4,2.9,1.3,4.1c0.5,0.6,1.2,1,2.1,1c0.9,0,1.6-0.4,2.1-1.1c0.8-1.1,1.3-2.4,1.3-4V177z"/>
				</g>
			</g>
			<g id="XMLID_00000075870450571460490760000013801058218938539959_">
				<g id="XMLID_00000026863106527538129100000014473655125777649817_">
					<path id="XMLID_00000070116067951423188050000004082490955741506444_" class="st1" d="M296.9,143.7v15.8h2.9
						c0.7,0,1.2,0.1,1.5,0.4c0.3,0.3,0.4,0.6,0.4,1c0,0.4-0.1,0.8-0.4,1c-0.3,0.3-0.8,0.4-1.5,0.4h-8.7c-0.7,0-1.2-0.1-1.5-0.4
						c-0.3-0.3-0.4-0.6-0.4-1c0-0.4,0.1-0.8,0.4-1c0.3-0.3,0.8-0.4,1.5-0.4h2.9v-12l-2.6,0.7c-0.4,0.1-0.7,0.2-0.9,0.2
						c-0.4,0-0.7-0.1-0.9-0.4c-0.3-0.3-0.4-0.6-0.4-1.1c0-0.4,0.1-0.7,0.3-0.9c0.2-0.2,0.6-0.4,1.2-0.6L296.9,143.7z"/>
					<path id="XMLID_00000152971429258728638110000012297468056503144116_" class="st1" d="M319,151.7v3.2c0,1.9-0.5,3.7-1.6,5.4
						c-1.1,1.7-2.6,2.6-4.6,2.6c-1.2,0-2.1-0.3-2.9-0.8c-0.8-0.5-1.6-1.5-2.3-2.8c-0.7-1.4-1.1-2.8-1.1-4.4v-3.2
						c0-1.9,0.5-3.7,1.6-5.4s2.6-2.6,4.6-2.6c1.2,0,2.1,0.3,2.9,0.8c0.8,0.5,1.6,1.4,2.3,2.8C318.7,148.7,319,150.1,319,151.7z
						 M316.1,151.7c0-1.6-0.4-2.9-1.3-4.1c-0.5-0.6-1.2-1-2.1-1c-0.9,0-1.6,0.4-2.1,1.1c-0.8,1.1-1.3,2.4-1.3,4v3.2
						c0,1.6,0.4,2.9,1.3,4.1c0.5,0.6,1.2,1,2.1,1c0.9,0,1.6-0.4,2.1-1.1c0.8-1.1,1.3-2.4,1.3-4V151.7z"/>
					<path id="XMLID_00000156548503468838117690000017568146314797584293_" class="st1" d="M331.5,143.7v15.8h2.9
						c0.7,0,1.2,0.1,1.5,0.4c0.3,0.3,0.4,0.6,0.4,1c0,0.4-0.1,0.8-0.4,1c-0.3,0.3-0.8,0.4-1.5,0.4h-8.7c-0.7,0-1.2-0.1-1.5-0.4
						c-0.3-0.3-0.4-0.6-0.4-1c0-0.4,0.1-0.8,0.4-1c0.3-0.3,0.8-0.4,1.5-0.4h2.9v-12l-2.6,0.7c-0.4,0.1-0.7,0.2-0.9,0.2
						c-0.4,0-0.7-0.1-0.9-0.4c-0.3-0.3-0.4-0.6-0.4-1.1c0-0.4,0.1-0.7,0.3-0.9c0.2-0.2,0.6-0.4,1.2-0.6L331.5,143.7z"/>
					<path id="XMLID_00000098193454241288620430000014574602623788924089_" class="st1" d="M353.6,151.7v3.2c0,1.9-0.5,3.7-1.6,5.4
						c-1.1,1.7-2.6,2.6-4.6,2.6c-1.2,0-2.1-0.3-2.9-0.8c-0.8-0.5-1.6-1.5-2.3-2.8c-0.7-1.4-1.1-2.8-1.1-4.4v-3.2
						c0-1.9,0.5-3.7,1.6-5.4c1.1-1.7,2.6-2.6,4.6-2.6c1.2,0,2.1,0.3,2.9,0.8c0.8,0.5,1.6,1.4,2.3,2.8
						C353.2,148.7,353.6,150.1,353.6,151.7z M350.7,151.7c0-1.6-0.4-2.9-1.3-4.1c-0.5-0.6-1.2-1-2.1-1c-0.9,0-1.6,0.4-2.1,1.1
						c-0.8,1.1-1.3,2.4-1.3,4v3.2c0,1.6,0.4,2.9,1.3,4.1c0.5,0.6,1.2,1,2.1,1c0.9,0,1.6-0.4,2.1-1.1c0.8-1.1,1.3-2.4,1.3-4V151.7z"
						/>
				</g>
				<g id="XMLID_00000085226104740924221130000008157946175029505980_">
					<path id="XMLID_00000005948269926016870440000009989652770257687216_" class="st1" d="M301.8,202.1v3.2c0,1.9-0.5,3.7-1.6,5.4
						c-1.1,1.7-2.6,2.6-4.6,2.6c-1.2,0-2.1-0.3-2.9-0.8c-0.8-0.5-1.6-1.5-2.3-2.8c-0.7-1.4-1.1-2.8-1.1-4.4v-3.2
						c0-1.9,0.5-3.7,1.6-5.4c1.1-1.7,2.6-2.6,4.6-2.6c1.2,0,2.1,0.3,2.9,0.8c0.8,0.5,1.6,1.4,2.3,2.8
						C301.4,199.1,301.8,200.5,301.8,202.1z M298.9,202.1c0-1.6-0.4-2.9-1.3-4.1c-0.5-0.6-1.2-1-2.1-1c-0.9,0-1.6,0.4-2.1,1.1
						c-0.8,1.1-1.3,2.4-1.3,4v3.2c0,1.6,0.4,2.9,1.3,4.1c0.5,0.6,1.2,1,2.1,1c0.9,0,1.6-0.4,2.1-1.1c0.8-1.1,1.3-2.4,1.3-4V202.1z"
						/>
					<path id="XMLID_00000041286874200508345340000008843553757511935165_" class="st1" d="M314.2,194.1v15.8h2.9
						c0.7,0,1.2,0.1,1.5,0.4c0.3,0.3,0.4,0.6,0.4,1c0,0.4-0.1,0.8-0.4,1c-0.3,0.3-0.8,0.4-1.5,0.4h-8.7c-0.7,0-1.2-0.1-1.5-0.4
						c-0.3-0.3-0.4-0.6-0.4-1c0-0.4,0.1-0.8,0.4-1c0.3-0.3,0.8-0.4,1.5-0.4h2.9v-12l-2.6,0.7c-0.4,0.1-0.7,0.2-0.9,0.2
						c-0.4,0-0.7-0.1-0.9-0.4c-0.3-0.3-0.4-0.6-0.4-1.1c0-0.4,0.1-0.7,0.3-0.9c0.2-0.2,0.6-0.4,1.2-0.6L314.2,194.1z"/>
					<path id="XMLID_00000074428429507236165650000012463035425538728363_" class="st1" d="M331.5,194.1v15.8h2.9
						c0.7,0,1.2,0.1,1.5,0.4c0.3,0.3,0.4,0.6,0.4,1c0,0.4-0.1,0.8-0.4,1c-0.3,0.3-0.8,0.4-1.5,0.4h-8.7c-0.7,0-1.2-0.1-1.5-0.4
						c-0.3-0.3-0.4-0.6-0.4-1c0-0.4,0.1-0.8,0.4-1c0.3-0.3,0.8-0.4,1.5-0.4h2.9v-12l-2.6,0.7c-0.4,0.1-0.7,0.2-0.9,0.2
						c-0.4,0-0.7-0.1-0.9-0.4c-0.3-0.3-0.4-0.6-0.4-1.1c0-0.4,0.1-0.7,0.3-0.9c0.2-0.2,0.6-0.4,1.2-0.6L331.5,194.1z"/>
					<path id="XMLID_00000008144778950142124970000002724127409591718043_" class="st1" d="M353.6,202.1v3.2c0,1.9-0.5,3.7-1.6,5.4
						c-1.1,1.7-2.6,2.6-4.6,2.6c-1.2,0-2.1-0.3-2.9-0.8c-0.8-0.5-1.6-1.5-2.3-2.8c-0.7-1.4-1.1-2.8-1.1-4.4v-3.2
						c0-1.9,0.5-3.7,1.6-5.4c1.1-1.7,2.6-2.6,4.6-2.6c1.2,0,2.1,0.3,2.9,0.8c0.8,0.5,1.6,1.4,2.3,2.8
						C353.2,199.1,353.6,200.5,353.6,202.1z M350.7,202.1c0-1.6-0.4-2.9-1.3-4.1c-0.5-0.6-1.2-1-2.1-1c-0.9,0-1.6,0.4-2.1,1.1
						c-0.8,1.1-1.3,2.4-1.3,4v3.2c0,1.6,0.4,2.9,1.3,4.1c0.5,0.6,1.2,1,2.1,1c0.9,0,1.6-0.4,2.1-1.1c0.8-1.1,1.3-2.4,1.3-4V202.1z"
						/>
				</g>
				<g id="XMLID_00000116199368810879417650000007478166794816468124_">
					<path id="XMLID_00000039108514810314190010000015214952087326701718_" class="st1" d="M301.8,177v3.2c0,1.9-0.5,3.7-1.6,5.4
						c-1.1,1.7-2.6,2.6-4.6,2.6c-1.2,0-2.1-0.3-2.9-0.8c-0.8-0.5-1.6-1.5-2.3-2.8c-0.7-1.4-1.1-2.8-1.1-4.4V177
						c0-1.9,0.5-3.7,1.6-5.4s2.6-2.6,4.6-2.6c1.2,0,2.1,0.3,2.9,0.8c0.8,0.5,1.6,1.4,2.3,2.8C301.4,174,301.8,175.5,301.8,177z
						 M298.9,177c0-1.6-0.4-2.9-1.3-4.1c-0.5-0.6-1.2-1-2.1-1c-0.9,0-1.6,0.4-2.1,1.1c-0.8,1.1-1.3,2.4-1.3,4v3.2
						c0,1.6,0.4,2.9,1.3,4.1c0.5,0.6,1.2,1,2.1,1c0.9,0,1.6-0.4,2.1-1.1c0.8-1.1,1.3-2.4,1.3-4V177z"/>
					<path id="XMLID_00000056409494615930388630000002503401511242164113_" class="st1" d="M314.2,169.1v15.8h2.9
						c0.7,0,1.2,0.1,1.5,0.4c0.3,0.3,0.4,0.6,0.4,1c0,0.4-0.1,0.8-0.4,1c-0.3,0.3-0.8,0.4-1.5,0.4h-8.7c-0.7,0-1.2-0.1-1.5-0.4
						c-0.3-0.3-0.4-0.6-0.4-1c0-0.4,0.1-0.8,0.4-1c0.3-0.3,0.8-0.4,1.5-0.4h2.9v-12l-2.6,0.7c-0.4,0.1-0.7,0.2-0.9,0.2
						c-0.4,0-0.7-0.1-0.9-0.4c-0.3-0.3-0.4-0.6-0.4-1.1c0-0.4,0.1-0.7,0.3-0.9c0.2-0.2,0.6-0.4,1.2-0.6L314.2,169.1z"/>
					<path id="XMLID_00000064346291719273176690000007806440520525081763_" class="st1" d="M336.3,177v3.2c0,1.9-0.5,3.7-1.6,5.4
						c-1.1,1.7-2.6,2.6-4.6,2.6c-1.2,0-2.1-0.3-2.9-0.8c-0.8-0.5-1.6-1.5-2.3-2.8c-0.7-1.4-1.1-2.8-1.1-4.4V177
						c0-1.9,0.5-3.7,1.6-5.4c1.1-1.7,2.6-2.6,4.6-2.6c1.2,0,2.1,0.3,2.9,0.8c0.8,0.5,1.6,1.4,2.3,2.8
						C335.9,174,336.3,175.5,336.3,177z M333.4,177c0-1.6-0.4-2.9-1.3-4.1c-0.5-0.6-1.2-1-2.1-1c-0.9,0-1.6,0.4-2.1,1.1
						c-0.8,1.1-1.3,2.4-1.3,4v3.2c0,1.6,0.4,2.9,1.3,4.1c0.5,0.6,1.2,1,2.1,1c0.9,0,1.6-0.4,2.1-1.1c0.8-1.1,1.3-2.4,1.3-4V177z"/>
					<path id="XMLID_00000075877818532376054280000016354964528328101544_" class="st1" d="M353.6,177v3.2c0,1.9-0.5,3.7-1.6,5.4
						c-1.1,1.7-2.6,2.6-4.6,2.6c-1.2,0-2.1-0.3-2.9-0.8c-0.8-0.5-1.6-1.5-2.3-2.8c-0.7-1.4-1.1-2.8-1.1-4.4V177
						c0-1.9,0.5-3.7,1.6-5.4c1.1-1.7,2.6-2.6,4.6-2.6c1.2,0,2.1,0.3,2.9,0.8c0.8,0.5,1.6,1.4,2.3,2.8
						C353.2,174,353.6,175.5,353.6,177z M350.7,177c0-1.6-0.4-2.9-1.3-4.1c-0.5-0.6-1.2-1-2.1-1c-0.9,0-1.6,0.4-2.1,1.1
						c-0.8,1.1-1.3,2.4-1.3,4v3.2c0,1.6,0.4,2.9,1.3,4.1c0.5,0.6,1.2,1,2.1,1c0.9,0,1.6-0.4,2.1-1.1c0.8-1.1,1.3-2.4,1.3-4V177z"/>
				</g>
			</g>
		</g>
		<g>
			<g id="XMLID_00000133502000793061549050000016263445289812483968_">
				<g id="XMLID_00000083785315180044748150000017781403555796509314_">
					<path id="XMLID_00000183950879008481279980000002727868872314995635_" class="st1" d="M85.7,219.9v15.8h2.9
						c0.7,0,1.2,0.1,1.5,0.4c0.3,0.3,0.4,0.6,0.4,1c0,0.4-0.1,0.8-0.4,1c-0.3,0.3-0.8,0.4-1.5,0.4H80c-0.7,0-1.2-0.1-1.5-0.4
						c-0.3-0.3-0.4-0.6-0.4-1c0-0.4,0.1-0.8,0.4-1c0.3-0.3,0.8-0.4,1.5-0.4h2.9v-12l-2.6,0.7c-0.4,0.1-0.7,0.2-0.9,0.2
						c-0.4,0-0.7-0.1-0.9-0.4c-0.3-0.3-0.4-0.6-0.4-1.1c0-0.4,0.1-0.7,0.3-0.9c0.2-0.2,0.6-0.4,1.2-0.6L85.7,219.9z"/>
					<path id="XMLID_00000079452875483207803430000014052000923750880136_" class="st1" d="M107.8,227.9v3.2c0,1.9-0.5,3.7-1.6,5.4
						c-1.1,1.7-2.6,2.6-4.6,2.6c-1.2,0-2.1-0.3-2.9-0.8c-0.8-0.5-1.6-1.5-2.3-2.8c-0.7-1.4-1.1-2.8-1.1-4.4v-3.2
						c0-1.9,0.5-3.7,1.6-5.4c1.1-1.7,2.6-2.6,4.6-2.6c1.2,0,2.1,0.3,2.9,0.8c0.8,0.5,1.6,1.4,2.3,2.8
						C107.5,224.9,107.8,226.3,107.8,227.9z M104.9,227.9c0-1.6-0.4-2.9-1.3-4.1c-0.5-0.6-1.2-1-2.1-1c-0.9,0-1.6,0.4-2.1,1.1
						c-0.8,1.1-1.3,2.4-1.3,4v3.2c0,1.6,0.4,2.9,1.3,4.1c0.5,0.6,1.2,1,2.1,1c0.9,0,1.6-0.4,2.1-1.1c0.8-1.1,1.3-2.4,1.3-4V227.9z"
						/>
					<path id="XMLID_00000086659945866519310310000014203507023803003310_" class="st1" d="M120.3,219.9v15.8h2.9
						c0.7,0,1.2,0.1,1.5,0.4c0.3,0.3,0.4,0.6,0.4,1c0,0.4-0.1,0.8-0.4,1c-0.3,0.3-0.8,0.4-1.5,0.4h-8.7c-0.7,0-1.2-0.1-1.5-0.4
						c-0.3-0.3-0.4-0.6-0.4-1c0-0.4,0.1-0.8,0.4-1c0.3-0.3,0.8-0.4,1.5-0.4h2.9v-12l-2.6,0.7c-0.4,0.1-0.7,0.2-0.9,0.2
						c-0.4,0-0.7-0.1-0.9-0.4c-0.3-0.3-0.4-0.6-0.4-1.1c0-0.4,0.1-0.7,0.3-0.9c0.2-0.2,0.6-0.4,1.2-0.6L120.3,219.9z"/>
					<path id="XMLID_00000049944487668174647770000006852385781775872690_" class="st1" d="M142.4,227.9v3.2c0,1.9-0.5,3.7-1.6,5.4
						c-1.1,1.7-2.6,2.6-4.6,2.6c-1.2,0-2.1-0.3-2.9-0.8c-0.8-0.5-1.6-1.5-2.3-2.8c-0.7-1.4-1.1-2.8-1.1-4.4v-3.2
						c0-1.9,0.5-3.7,1.6-5.4c1.1-1.7,2.6-2.6,4.6-2.6c1.2,0,2.1,0.3,2.9,0.8c0.8,0.5,1.6,1.4,2.3,2.8
						C142,224.9,142.4,226.3,142.4,227.9z M139.5,227.9c0-1.6-0.4-2.9-1.3-4.1c-0.5-0.6-1.2-1-2.1-1c-0.9,0-1.6,0.4-2.1,1.1
						c-0.8,1.1-1.3,2.4-1.3,4v3.2c0,1.6,0.4,2.9,1.3,4.1c0.5,0.6,1.2,1,2.1,1c0.9,0,1.6-0.4,2.1-1.1c0.8-1.1,1.3-2.4,1.3-4V227.9z"
						/>
				</g>
				<g id="XMLID_00000117678849322394369200000011257085533296726933_">
					<path id="XMLID_00000079454462216332819120000001226397931658360759_" class="st1" d="M90.6,278.3v3.2c0,1.9-0.5,3.7-1.6,5.4
						c-1.1,1.7-2.6,2.6-4.6,2.6c-1.2,0-2.1-0.3-2.9-0.8c-0.8-0.5-1.6-1.5-2.3-2.8c-0.7-1.4-1.1-2.8-1.1-4.4v-3.2
						c0-1.9,0.5-3.7,1.6-5.4c1.1-1.7,2.6-2.6,4.6-2.6c1.2,0,2.1,0.3,2.9,0.8c0.8,0.5,1.6,1.4,2.3,2.8
						C90.2,275.3,90.6,276.7,90.6,278.3z M87.7,278.3c0-1.6-0.4-2.9-1.3-4.1c-0.5-0.6-1.2-1-2.1-1c-0.9,0-1.6,0.4-2.1,1.1
						c-0.8,1.1-1.3,2.4-1.3,4v3.2c0,1.6,0.4,2.9,1.3,4.1c0.5,0.6,1.2,1,2.1,1c0.9,0,1.6-0.4,2.1-1.1c0.8-1.1,1.3-2.4,1.3-4V278.3z"
						/>
					<path id="XMLID_00000033358071077558013200000016788263801932800700_" class="st1" d="M103,270.3v15.8h2.9
						c0.7,0,1.2,0.1,1.5,0.4c0.3,0.3,0.4,0.6,0.4,1c0,0.4-0.1,0.8-0.4,1c-0.3,0.3-0.8,0.4-1.5,0.4h-8.7c-0.7,0-1.2-0.1-1.5-0.4
						c-0.3-0.3-0.4-0.6-0.4-1c0-0.4,0.1-0.8,0.4-1c0.3-0.3,0.8-0.4,1.5-0.4h2.9v-12l-2.6,0.7c-0.4,0.1-0.7,0.2-0.9,0.2
						c-0.4,0-0.7-0.1-0.9-0.4c-0.3-0.3-0.4-0.6-0.4-1.1c0-0.4,0.1-0.7,0.3-0.9c0.2-0.2,0.6-0.4,1.2-0.6L103,270.3z"/>
					<path id="XMLID_00000002348498657324203530000016096617921894582699_" class="st1" d="M120.3,270.3v15.8h2.9
						c0.7,0,1.2,0.1,1.5,0.4c0.3,0.3,0.4,0.6,0.4,1c0,0.4-0.1,0.8-0.4,1c-0.3,0.3-0.8,0.4-1.5,0.4h-8.7c-0.7,0-1.2-0.1-1.5-0.4
						c-0.3-0.3-0.4-0.6-0.4-1c0-0.4,0.1-0.8,0.4-1c0.3-0.3,0.8-0.4,1.5-0.4h2.9v-12l-2.6,0.7c-0.4,0.1-0.7,0.2-0.9,0.2
						c-0.4,0-0.7-0.1-0.9-0.4c-0.3-0.3-0.4-0.6-0.4-1.1c0-0.4,0.1-0.7,0.3-0.9c0.2-0.2,0.6-0.4,1.2-0.6L120.3,270.3z"/>
					<path id="XMLID_00000098207058094222975730000005414070142291052949_" class="st1" d="M142.4,278.3v3.2c0,1.9-0.5,3.7-1.6,5.4
						c-1.1,1.7-2.6,2.6-4.6,2.6c-1.2,0-2.1-0.3-2.9-0.8c-0.8-0.5-1.6-1.5-2.3-2.8c-0.7-1.4-1.1-2.8-1.1-4.4v-3.2
						c0-1.9,0.5-3.7,1.6-5.4c1.1-1.7,2.6-2.6,4.6-2.6c1.2,0,2.1,0.3,2.9,0.8c0.8,0.5,1.6,1.4,2.3,2.8
						C142,275.3,142.4,276.7,142.4,278.3z M139.5,278.3c0-1.6-0.4-2.9-1.3-4.1c-0.5-0.6-1.2-1-2.1-1c-0.9,0-1.6,0.4-2.1,1.1
						c-0.8,1.1-1.3,2.4-1.3,4v3.2c0,1.6,0.4,2.9,1.3,4.1c0.5,0.6,1.2,1,2.1,1c0.9,0,1.6-0.4,2.1-1.1c0.8-1.1,1.3-2.4,1.3-4V278.3z"
						/>
				</g>
				<g id="XMLID_00000158003657120273626570000010352531271097658797_">
					<path id="XMLID_00000109749618981946957940000009995583379836782527_" class="st1" d="M90.6,253.2v3.2c0,1.9-0.5,3.7-1.6,5.4
						c-1.1,1.7-2.6,2.6-4.6,2.6c-1.2,0-2.1-0.3-2.9-0.8c-0.8-0.5-1.6-1.5-2.3-2.8c-0.7-1.4-1.1-2.8-1.1-4.4v-3.2
						c0-1.9,0.5-3.7,1.6-5.4c1.1-1.7,2.6-2.6,4.6-2.6c1.2,0,2.1,0.3,2.9,0.8c0.8,0.5,1.6,1.4,2.3,2.8
						C90.2,250.2,90.6,251.7,90.6,253.2z M87.7,253.2c0-1.6-0.4-2.9-1.3-4.1c-0.5-0.6-1.2-1-2.1-1c-0.9,0-1.6,0.4-2.1,1.1
						c-0.8,1.1-1.3,2.4-1.3,4v3.2c0,1.6,0.4,2.9,1.3,4.1c0.5,0.6,1.2,1,2.1,1c0.9,0,1.6-0.4,2.1-1.1c0.8-1.1,1.3-2.4,1.3-4V253.2z"
						/>
					<path id="XMLID_00000049910777311462395690000006405701522978913719_" class="st1" d="M103,245.3V261h2.9
						c0.7,0,1.2,0.1,1.5,0.4c0.3,0.3,0.4,0.6,0.4,1c0,0.4-0.1,0.8-0.4,1c-0.3,0.3-0.8,0.4-1.5,0.4h-8.7c-0.7,0-1.2-0.1-1.5-0.4
						c-0.3-0.3-0.4-0.6-0.4-1c0-0.4,0.1-0.8,0.4-1c0.3-0.3,0.8-0.4,1.5-0.4h2.9v-12l-2.6,0.7c-0.4,0.1-0.7,0.2-0.9,0.2
						c-0.4,0-0.7-0.1-0.9-0.4c-0.3-0.3-0.4-0.6-0.4-1.1c0-0.4,0.1-0.7,0.3-0.9c0.2-0.2,0.6-0.4,1.2-0.6L103,245.3z"/>
					<path id="XMLID_00000168809400352039552270000004697194967254602382_" class="st1" d="M125.1,253.2v3.2c0,1.9-0.5,3.7-1.6,5.4
						c-1.1,1.7-2.6,2.6-4.6,2.6c-1.2,0-2.1-0.3-2.9-0.8c-0.8-0.5-1.6-1.5-2.3-2.8c-0.7-1.4-1.1-2.8-1.1-4.4v-3.2
						c0-1.9,0.5-3.7,1.6-5.4c1.1-1.7,2.6-2.6,4.6-2.6c1.2,0,2.1,0.3,2.9,0.8c0.8,0.5,1.6,1.4,2.3,2.8
						C124.7,250.2,125.1,251.7,125.1,253.2z M122.2,253.2c0-1.6-0.4-2.9-1.3-4.1c-0.5-0.6-1.2-1-2.1-1c-0.9,0-1.6,0.4-2.1,1.1
						c-0.8,1.1-1.3,2.4-1.3,4v3.2c0,1.6,0.4,2.9,1.3,4.1c0.5,0.6,1.2,1,2.1,1c0.9,0,1.6-0.4,2.1-1.1c0.8-1.1,1.3-2.4,1.3-4V253.2z"
						/>
					<path id="XMLID_00000049941454439564935340000001084215029323651516_" class="st1" d="M142.4,253.2v3.2c0,1.9-0.5,3.7-1.6,5.4
						c-1.1,1.7-2.6,2.6-4.6,2.6c-1.2,0-2.1-0.3-2.9-0.8c-0.8-0.5-1.6-1.5-2.3-2.8c-0.7-1.4-1.1-2.8-1.1-4.4v-3.2
						c0-1.9,0.5-3.7,1.6-5.4c1.1-1.7,2.6-2.6,4.6-2.6c1.2,0,2.1,0.3,2.9,0.8c0.8,0.5,1.6,1.4,2.3,2.8
						C142,250.2,142.4,251.7,142.4,253.2z M139.5,253.2c0-1.6-0.4-2.9-1.3-4.1c-0.5-0.6-1.2-1-2.1-1c-0.9,0-1.6,0.4-2.1,1.1
						c-0.8,1.1-1.3,2.4-1.3,4v3.2c0,1.6,0.4,2.9,1.3,4.1c0.5,0.6,1.2,1,2.1,1c0.9,0,1.6-0.4,2.1-1.1c0.8-1.1,1.3-2.4,1.3-4V253.2z"
						/>
				</g>
			</g>
			<g id="XMLID_00000027577690525895750590000004024282989341389998_">
				<g id="XMLID_00000150811344723666093400000007512547816333933748_">
					<path id="XMLID_00000062903436513166099620000009229963562423039891_" class="st1" d="M156.2,219.9v15.8h2.9
						c0.7,0,1.2,0.1,1.5,0.4c0.3,0.3,0.4,0.6,0.4,1c0,0.4-0.1,0.8-0.4,1c-0.3,0.3-0.8,0.4-1.5,0.4h-8.7c-0.7,0-1.2-0.1-1.5-0.4
						c-0.3-0.3-0.4-0.6-0.4-1c0-0.4,0.1-0.8,0.4-1c0.3-0.3,0.8-0.4,1.5-0.4h2.9v-12l-2.6,0.7c-0.4,0.1-0.7,0.2-0.9,0.2
						c-0.4,0-0.7-0.1-0.9-0.4c-0.3-0.3-0.4-0.6-0.4-1.1c0-0.4,0.1-0.7,0.3-0.9c0.2-0.2,0.6-0.4,1.2-0.6L156.2,219.9z"/>
					<path id="XMLID_00000103954147951060211010000008859372881004733851_" class="st1" d="M178.2,227.9v3.2c0,1.9-0.5,3.7-1.6,5.4
						c-1.1,1.7-2.6,2.6-4.6,2.6c-1.2,0-2.1-0.3-2.9-0.8c-0.8-0.5-1.6-1.5-2.3-2.8c-0.7-1.4-1.1-2.8-1.1-4.4v-3.2
						c0-1.9,0.5-3.7,1.6-5.4c1.1-1.7,2.6-2.6,4.6-2.6c1.2,0,2.1,0.3,2.9,0.8c0.8,0.5,1.6,1.4,2.3,2.8
						C177.9,224.9,178.2,226.3,178.2,227.9z M175.4,227.9c0-1.6-0.4-2.9-1.3-4.1c-0.5-0.6-1.2-1-2.1-1c-0.9,0-1.6,0.4-2.1,1.1
						c-0.8,1.1-1.3,2.4-1.3,4v3.2c0,1.6,0.4,2.9,1.3,4.1c0.5,0.6,1.2,1,2.1,1c0.9,0,1.6-0.4,2.1-1.1c0.8-1.1,1.3-2.4,1.3-4V227.9z"
						/>
					<path id="XMLID_00000160881374659779849800000009127641465894960039_" class="st1" d="M190.7,219.9v15.8h2.9
						c0.7,0,1.2,0.1,1.5,0.4c0.3,0.3,0.4,0.6,0.4,1c0,0.4-0.1,0.8-0.4,1c-0.3,0.3-0.8,0.4-1.5,0.4h-8.7c-0.7,0-1.2-0.1-1.5-0.4
						c-0.3-0.3-0.4-0.6-0.4-1c0-0.4,0.1-0.8,0.4-1c0.3-0.3,0.8-0.4,1.5-0.4h2.9v-12l-2.6,0.7c-0.4,0.1-0.7,0.2-0.9,0.2
						c-0.4,0-0.7-0.1-0.9-0.4c-0.3-0.3-0.4-0.6-0.4-1.1c0-0.4,0.1-0.7,0.3-0.9c0.2-0.2,0.6-0.4,1.2-0.6L190.7,219.9z"/>
					<path id="XMLID_00000016780383514748087300000014502197480698181055_" class="st1" d="M212.8,227.9v3.2c0,1.9-0.5,3.7-1.6,5.4
						c-1.1,1.7-2.6,2.6-4.6,2.6c-1.2,0-2.1-0.3-2.9-0.8c-0.8-0.5-1.6-1.5-2.3-2.8c-0.7-1.4-1.1-2.8-1.1-4.4v-3.2
						c0-1.9,0.5-3.7,1.6-5.4c1.1-1.7,2.6-2.6,4.6-2.6c1.2,0,2.1,0.3,2.9,0.8c0.8,0.5,1.6,1.4,2.3,2.8
						C212.4,224.9,212.8,226.3,212.8,227.9z M209.9,227.9c0-1.6-0.4-2.9-1.3-4.1c-0.5-0.6-1.2-1-2.1-1c-0.9,0-1.6,0.4-2.1,1.1
						c-0.8,1.1-1.3,2.4-1.3,4v3.2c0,1.6,0.4,2.9,1.3,4.1c0.5,0.6,1.2,1,2.1,1c0.9,0,1.6-0.4,2.1-1.1c0.8-1.1,1.3-2.4,1.3-4V227.9z"
						/>
				</g>
				<g id="XMLID_00000147901926005705567720000007658692607928356740_">
					<path id="XMLID_00000072246448700452805000000005037841216191931016_" class="st1" d="M161,278.3v3.2c0,1.9-0.5,3.7-1.6,5.4
						c-1.1,1.7-2.6,2.6-4.6,2.6c-1.2,0-2.1-0.3-2.9-0.8c-0.8-0.5-1.6-1.5-2.3-2.8c-0.7-1.4-1.1-2.8-1.1-4.4v-3.2
						c0-1.9,0.5-3.7,1.6-5.4c1.1-1.7,2.6-2.6,4.6-2.6c1.2,0,2.1,0.3,2.9,0.8c0.8,0.5,1.6,1.4,2.3,2.8
						C160.6,275.3,161,276.7,161,278.3z M158.1,278.3c0-1.6-0.4-2.9-1.3-4.1c-0.5-0.6-1.2-1-2.1-1c-0.9,0-1.6,0.4-2.1,1.1
						c-0.8,1.1-1.3,2.4-1.3,4v3.2c0,1.6,0.4,2.9,1.3,4.1c0.5,0.6,1.2,1,2.1,1c0.9,0,1.6-0.4,2.1-1.1c0.8-1.1,1.3-2.4,1.3-4V278.3z"
						/>
					<path id="XMLID_00000157283329461326946270000014504485771784927167_" class="st1" d="M173.4,270.3v15.8h2.9
						c0.7,0,1.2,0.1,1.5,0.4c0.3,0.3,0.4,0.6,0.4,1c0,0.4-0.1,0.8-0.4,1c-0.3,0.3-0.8,0.4-1.5,0.4h-8.7c-0.7,0-1.2-0.1-1.5-0.4
						c-0.3-0.3-0.4-0.6-0.4-1c0-0.4,0.1-0.8,0.4-1c0.3-0.3,0.8-0.4,1.5-0.4h2.9v-12l-2.6,0.7c-0.4,0.1-0.7,0.2-0.9,0.2
						c-0.4,0-0.7-0.1-0.9-0.4c-0.3-0.3-0.4-0.6-0.4-1.1c0-0.4,0.1-0.7,0.3-0.9c0.2-0.2,0.6-0.4,1.2-0.6L173.4,270.3z"/>
					<path id="XMLID_00000023271695204748432320000014981194126118343100_" class="st1" d="M190.7,270.3v15.8h2.9
						c0.7,0,1.2,0.1,1.5,0.4c0.3,0.3,0.4,0.6,0.4,1c0,0.4-0.1,0.8-0.4,1c-0.3,0.3-0.8,0.4-1.5,0.4h-8.7c-0.7,0-1.2-0.1-1.5-0.4
						c-0.3-0.3-0.4-0.6-0.4-1c0-0.4,0.1-0.8,0.4-1c0.3-0.3,0.8-0.4,1.5-0.4h2.9v-12l-2.6,0.7c-0.4,0.1-0.7,0.2-0.9,0.2
						c-0.4,0-0.7-0.1-0.9-0.4c-0.3-0.3-0.4-0.6-0.4-1.1c0-0.4,0.1-0.7,0.3-0.9c0.2-0.2,0.6-0.4,1.2-0.6L190.7,270.3z"/>
					<path id="XMLID_00000093887734279152710730000006141994603226176693_" class="st1" d="M212.8,278.3v3.2c0,1.9-0.5,3.7-1.6,5.4
						c-1.1,1.7-2.6,2.6-4.6,2.6c-1.2,0-2.1-0.3-2.9-0.8c-0.8-0.5-1.6-1.5-2.3-2.8c-0.7-1.4-1.1-2.8-1.1-4.4v-3.2
						c0-1.9,0.5-3.7,1.6-5.4c1.1-1.7,2.6-2.6,4.6-2.6c1.2,0,2.1,0.3,2.9,0.8c0.8,0.5,1.6,1.4,2.3,2.8
						C212.4,275.3,212.8,276.7,212.8,278.3z M209.9,278.3c0-1.6-0.4-2.9-1.3-4.1c-0.5-0.6-1.2-1-2.1-1c-0.9,0-1.6,0.4-2.1,1.1
						c-0.8,1.1-1.3,2.4-1.3,4v3.2c0,1.6,0.4,2.9,1.3,4.1c0.5,0.6,1.2,1,2.1,1c0.9,0,1.6-0.4,2.1-1.1c0.8-1.1,1.3-2.4,1.3-4V278.3z"
						/>
				</g>
				<g id="XMLID_00000103236177400635994890000014864371366709060495_">
					<path id="XMLID_00000054970667213098578160000002897102604788454579_" class="st1" d="M161,253.2v3.2c0,1.9-0.5,3.7-1.6,5.4
						c-1.1,1.7-2.6,2.6-4.6,2.6c-1.2,0-2.1-0.3-2.9-0.8c-0.8-0.5-1.6-1.5-2.3-2.8c-0.7-1.4-1.1-2.8-1.1-4.4v-3.2
						c0-1.9,0.5-3.7,1.6-5.4c1.1-1.7,2.6-2.6,4.6-2.6c1.2,0,2.1,0.3,2.9,0.8c0.8,0.5,1.6,1.4,2.3,2.8
						C160.6,250.2,161,251.7,161,253.2z M158.1,253.2c0-1.6-0.4-2.9-1.3-4.1c-0.5-0.6-1.2-1-2.1-1c-0.9,0-1.6,0.4-2.1,1.1
						c-0.8,1.1-1.3,2.4-1.3,4v3.2c0,1.6,0.4,2.9,1.3,4.1c0.5,0.6,1.2,1,2.1,1c0.9,0,1.6-0.4,2.1-1.1c0.8-1.1,1.3-2.4,1.3-4V253.2z"
						/>
					<path id="XMLID_00000115481772618936751660000016373352323456686732_" class="st1" d="M173.4,245.3V261h2.9
						c0.7,0,1.2,0.1,1.5,0.4c0.3,0.3,0.4,0.6,0.4,1c0,0.4-0.1,0.8-0.4,1c-0.3,0.3-0.8,0.4-1.5,0.4h-8.7c-0.7,0-1.2-0.1-1.5-0.4
						c-0.3-0.3-0.4-0.6-0.4-1c0-0.4,0.1-0.8,0.4-1c0.3-0.3,0.8-0.4,1.5-0.4h2.9v-12l-2.6,0.7c-0.4,0.1-0.7,0.2-0.9,0.2
						c-0.4,0-0.7-0.1-0.9-0.4c-0.3-0.3-0.4-0.6-0.4-1.1c0-0.4,0.1-0.7,0.3-0.9c0.2-0.2,0.6-0.4,1.2-0.6L173.4,245.3z"/>
					<path id="XMLID_00000067919329361011798740000015212032672422546061_" class="st1" d="M195.5,253.2v3.2c0,1.9-0.5,3.7-1.6,5.4
						c-1.1,1.7-2.6,2.6-4.6,2.6c-1.2,0-2.1-0.3-2.9-0.8c-0.8-0.5-1.6-1.5-2.3-2.8c-0.7-1.4-1.1-2.8-1.1-4.4v-3.2
						c0-1.9,0.5-3.7,1.6-5.4c1.1-1.7,2.6-2.6,4.6-2.6c1.2,0,2.1,0.3,2.9,0.8c0.8,0.5,1.6,1.4,2.3,2.8
						C195.2,250.2,195.5,251.7,195.5,253.2z M192.6,253.2c0-1.6-0.4-2.9-1.3-4.1c-0.5-0.6-1.2-1-2.1-1c-0.9,0-1.6,0.4-2.1,1.1
						c-0.8,1.1-1.3,2.4-1.3,4v3.2c0,1.6,0.4,2.9,1.3,4.1c0.5,0.6,1.2,1,2.1,1c0.9,0,1.6-0.4,2.1-1.1c0.8-1.1,1.3-2.4,1.3-4V253.2z"
						/>
					<path id="XMLID_00000062902078141103422120000011157013363131802535_" class="st1" d="M212.8,253.2v3.2c0,1.9-0.5,3.7-1.6,5.4
						c-1.1,1.7-2.6,2.6-4.6,2.6c-1.2,0-2.1-0.3-2.9-0.8c-0.8-0.5-1.6-1.5-2.3-2.8c-0.7-1.4-1.1-2.8-1.1-4.4v-3.2
						c0-1.9,0.5-3.7,1.6-5.4c1.1-1.7,2.6-2.6,4.6-2.6c1.2,0,2.1,0.3,2.9,0.8c0.8,0.5,1.6,1.4,2.3,2.8
						C212.4,250.2,212.8,251.7,212.8,253.2z M209.9,253.2c0-1.6-0.4-2.9-1.3-4.1c-0.5-0.6-1.2-1-2.1-1c-0.9,0-1.6,0.4-2.1,1.1
						c-0.8,1.1-1.3,2.4-1.3,4v3.2c0,1.6,0.4,2.9,1.3,4.1c0.5,0.6,1.2,1,2.1,1c0.9,0,1.6-0.4,2.1-1.1c0.8-1.1,1.3-2.4,1.3-4V253.2z"
						/>
				</g>
			</g>
			<g id="XMLID_00000121993715210365302170000000871191422440914841_">
				<g id="XMLID_00000139980410561436532820000018279858931762468255_">
					<path id="XMLID_00000168826714234058984390000008940305280487705785_" class="st1" d="M85.8,143.7v15.8h2.9
						c0.7,0,1.2,0.1,1.5,0.4c0.3,0.3,0.4,0.6,0.4,1c0,0.4-0.1,0.8-0.4,1c-0.3,0.3-0.8,0.4-1.5,0.4H80c-0.7,0-1.2-0.1-1.5-0.4
						c-0.3-0.3-0.4-0.6-0.4-1c0-0.4,0.1-0.8,0.4-1c0.3-0.3,0.8-0.4,1.5-0.4h2.9v-12l-2.6,0.7c-0.4,0.1-0.7,0.2-0.9,0.2
						c-0.4,0-0.7-0.1-0.9-0.4c-0.3-0.3-0.4-0.6-0.4-1.1c0-0.4,0.1-0.7,0.3-0.9c0.2-0.2,0.6-0.4,1.2-0.6L85.8,143.7z"/>
					<path id="XMLID_00000024001532222070869290000003363015395614147494_" class="st1" d="M107.8,151.7v3.2c0,1.9-0.5,3.7-1.6,5.4
						c-1.1,1.7-2.6,2.6-4.6,2.6c-1.2,0-2.1-0.3-2.9-0.8c-0.8-0.5-1.6-1.5-2.3-2.8c-0.7-1.4-1.1-2.8-1.1-4.4v-3.2
						c0-1.9,0.5-3.7,1.6-5.4c1.1-1.7,2.6-2.6,4.6-2.6c1.2,0,2.1,0.3,2.9,0.8c0.8,0.5,1.6,1.4,2.3,2.8
						C107.5,148.7,107.8,150.1,107.8,151.7z M105,151.7c0-1.6-0.4-2.9-1.3-4.1c-0.5-0.6-1.2-1-2.1-1c-0.9,0-1.6,0.4-2.1,1.1
						c-0.8,1.1-1.3,2.4-1.3,4v3.2c0,1.6,0.4,2.9,1.3,4.1c0.5,0.6,1.2,1,2.1,1c0.9,0,1.6-0.4,2.1-1.1c0.8-1.1,1.3-2.4,1.3-4V151.7z"
						/>
					<path id="XMLID_00000052787044630885909320000004210385246726481052_" class="st1" d="M120.3,143.7v15.8h2.9
						c0.7,0,1.2,0.1,1.5,0.4c0.3,0.3,0.4,0.6,0.4,1c0,0.4-0.1,0.8-0.4,1c-0.3,0.3-0.8,0.4-1.5,0.4h-8.7c-0.7,0-1.2-0.1-1.5-0.4
						c-0.3-0.3-0.4-0.6-0.4-1c0-0.4,0.1-0.8,0.4-1c0.3-0.3,0.8-0.4,1.5-0.4h2.9v-12l-2.6,0.7c-0.4,0.1-0.7,0.2-0.9,0.2
						c-0.4,0-0.7-0.1-0.9-0.4c-0.3-0.3-0.4-0.6-0.4-1.1c0-0.4,0.1-0.7,0.3-0.9c0.2-0.2,0.6-0.4,1.2-0.6L120.3,143.7z"/>
					<path id="XMLID_00000124884338383364346210000008634093022227223739_" class="st1" d="M142.4,151.7v3.2c0,1.9-0.5,3.7-1.6,5.4
						c-1.1,1.7-2.6,2.6-4.6,2.6c-1.2,0-2.1-0.3-2.9-0.8c-0.8-0.5-1.6-1.5-2.3-2.8c-0.7-1.4-1.1-2.8-1.1-4.4v-3.2
						c0-1.9,0.5-3.7,1.6-5.4c1.1-1.7,2.6-2.6,4.6-2.6c1.2,0,2.1,0.3,2.9,0.8c0.8,0.5,1.6,1.4,2.3,2.8
						C142,148.7,142.4,150.1,142.4,151.7z M139.5,151.7c0-1.6-0.4-2.9-1.3-4.1c-0.5-0.6-1.2-1-2.1-1c-0.9,0-1.6,0.4-2.1,1.1
						c-0.8,1.1-1.3,2.4-1.3,4v3.2c0,1.6,0.4,2.9,1.3,4.1c0.5,0.6,1.2,1,2.1,1c0.9,0,1.6-0.4,2.1-1.1c0.8-1.1,1.3-2.4,1.3-4V151.7z"
						/>
				</g>
				<g id="XMLID_00000047754571609957426460000012100491270198291367_">
					<path id="XMLID_00000064319844273141529300000009003856217325832075_" class="st1" d="M90.6,202.1v3.2c0,1.9-0.5,3.7-1.6,5.4
						c-1.1,1.7-2.6,2.6-4.6,2.6c-1.2,0-2.1-0.3-2.9-0.8c-0.8-0.5-1.6-1.5-2.3-2.8c-0.7-1.4-1.1-2.8-1.1-4.4v-3.2
						c0-1.9,0.5-3.7,1.6-5.4c1.1-1.7,2.6-2.6,4.6-2.6c1.2,0,2.1,0.3,2.9,0.8c0.8,0.5,1.6,1.4,2.3,2.8
						C90.2,199.1,90.6,200.5,90.6,202.1z M87.7,202.1c0-1.6-0.4-2.9-1.3-4.1c-0.5-0.6-1.2-1-2.1-1c-0.9,0-1.6,0.4-2.1,1.1
						c-0.8,1.1-1.3,2.4-1.3,4v3.2c0,1.6,0.4,2.9,1.3,4.1c0.5,0.6,1.2,1,2.1,1c0.9,0,1.6-0.4,2.1-1.1c0.8-1.1,1.3-2.4,1.3-4V202.1z"
						/>
					<path id="XMLID_00000088108933993168349260000016597437514990044051_" class="st1" d="M103,194.1v15.8h2.9
						c0.7,0,1.2,0.1,1.5,0.4c0.3,0.3,0.4,0.6,0.4,1c0,0.4-0.1,0.8-0.4,1c-0.3,0.3-0.8,0.4-1.5,0.4h-8.7c-0.7,0-1.2-0.1-1.5-0.4
						c-0.3-0.3-0.4-0.6-0.4-1c0-0.4,0.1-0.8,0.4-1c0.3-0.3,0.8-0.4,1.5-0.4h2.9v-12l-2.6,0.7c-0.4,0.1-0.7,0.2-0.9,0.2
						c-0.4,0-0.7-0.1-0.9-0.4c-0.3-0.3-0.4-0.6-0.4-1.1c0-0.4,0.1-0.7,0.3-0.9c0.2-0.2,0.6-0.4,1.2-0.6L103,194.1z"/>
					<path id="XMLID_00000116225571005382003410000008981294063360727204_" class="st1" d="M120.3,194.1v15.8h2.9
						c0.7,0,1.2,0.1,1.5,0.4c0.3,0.3,0.4,0.6,0.4,1c0,0.4-0.1,0.8-0.4,1c-0.3,0.3-0.8,0.4-1.5,0.4h-8.7c-0.7,0-1.2-0.1-1.5-0.4
						c-0.3-0.3-0.4-0.6-0.4-1c0-0.4,0.1-0.8,0.4-1c0.3-0.3,0.8-0.4,1.5-0.4h2.9v-12l-2.6,0.7c-0.4,0.1-0.7,0.2-0.9,0.2
						c-0.4,0-0.7-0.1-0.9-0.4c-0.3-0.3-0.4-0.6-0.4-1.1c0-0.4,0.1-0.7,0.3-0.9c0.2-0.2,0.6-0.4,1.2-0.6L120.3,194.1z"/>
					<path id="XMLID_00000124875391460458908080000003425055084482611080_" class="st1" d="M142.4,202.1v3.2c0,1.9-0.5,3.7-1.6,5.4
						c-1.1,1.7-2.6,2.6-4.6,2.6c-1.2,0-2.1-0.3-2.9-0.8c-0.8-0.5-1.6-1.5-2.3-2.8c-0.7-1.4-1.1-2.8-1.1-4.4v-3.2
						c0-1.9,0.5-3.7,1.6-5.4c1.1-1.7,2.6-2.6,4.6-2.6c1.2,0,2.1,0.3,2.9,0.8c0.8,0.5,1.6,1.4,2.3,2.8
						C142,199.1,142.4,200.5,142.4,202.1z M139.5,202.1c0-1.6-0.4-2.9-1.3-4.1c-0.5-0.6-1.2-1-2.1-1c-0.9,0-1.6,0.4-2.1,1.1
						c-0.8,1.1-1.3,2.4-1.3,4v3.2c0,1.6,0.4,2.9,1.3,4.1c0.5,0.6,1.2,1,2.1,1c0.9,0,1.6-0.4,2.1-1.1c0.8-1.1,1.3-2.4,1.3-4V202.1z"
						/>
				</g>
				<g id="XMLID_00000119101571854572231570000016080012658654773153_">
					<path id="XMLID_00000009575660936352257000000017678884228424447382_" class="st1" d="M90.6,177v3.2c0,1.9-0.5,3.7-1.6,5.4
						c-1.1,1.7-2.6,2.6-4.6,2.6c-1.2,0-2.1-0.3-2.9-0.8c-0.8-0.5-1.6-1.5-2.3-2.8c-0.7-1.4-1.1-2.8-1.1-4.4V177
						c0-1.9,0.5-3.7,1.6-5.4s2.6-2.6,4.6-2.6c1.2,0,2.1,0.3,2.9,0.8c0.8,0.5,1.6,1.4,2.3,2.8C90.2,174,90.6,175.5,90.6,177z
						 M87.7,177c0-1.6-0.4-2.9-1.3-4.1c-0.5-0.6-1.2-1-2.1-1c-0.9,0-1.6,0.4-2.1,1.1c-0.8,1.1-1.3,2.4-1.3,4v3.2
						c0,1.6,0.4,2.9,1.3,4.1c0.5,0.6,1.2,1,2.1,1c0.9,0,1.6-0.4,2.1-1.1c0.8-1.1,1.3-2.4,1.3-4V177z"/>
					<path id="XMLID_00000101816603475798135550000007779911607725538741_" class="st1" d="M103,169.1v15.8h2.9
						c0.7,0,1.2,0.1,1.5,0.4c0.3,0.3,0.4,0.6,0.4,1c0,0.4-0.1,0.8-0.4,1c-0.3,0.3-0.8,0.4-1.5,0.4h-8.7c-0.7,0-1.2-0.1-1.5-0.4
						c-0.3-0.3-0.4-0.6-0.4-1c0-0.4,0.1-0.8,0.4-1c0.3-0.3,0.8-0.4,1.5-0.4h2.9v-12l-2.6,0.7c-0.4,0.1-0.7,0.2-0.9,0.2
						c-0.4,0-0.7-0.1-0.9-0.4c-0.3-0.3-0.4-0.6-0.4-1.1c0-0.4,0.1-0.7,0.3-0.9c0.2-0.2,0.6-0.4,1.2-0.6L103,169.1z"/>
					<path id="XMLID_00000126318794383559675070000011464849757795291271_" class="st1" d="M125.1,177v3.2c0,1.9-0.5,3.7-1.6,5.4
						c-1.1,1.7-2.6,2.6-4.6,2.6c-1.2,0-2.1-0.3-2.9-0.8c-0.8-0.5-1.6-1.5-2.3-2.8c-0.7-1.4-1.1-2.8-1.1-4.4V177
						c0-1.9,0.5-3.7,1.6-5.4c1.1-1.7,2.6-2.6,4.6-2.6c1.2,0,2.1,0.3,2.9,0.8c0.8,0.5,1.6,1.4,2.3,2.8
						C124.8,174,125.1,175.5,125.1,177z M122.2,177c0-1.6-0.4-2.9-1.3-4.1c-0.5-0.6-1.2-1-2.1-1c-0.9,0-1.6,0.4-2.1,1.1
						c-0.8,1.1-1.3,2.4-1.3,4v3.2c0,1.6,0.4,2.9,1.3,4.1c0.5,0.6,1.2,1,2.1,1c0.9,0,1.6-0.4,2.1-1.1c0.8-1.1,1.3-2.4,1.3-4V177z"/>
					<path id="XMLID_00000000183439582050602940000005375695320883546540_" class="st1" d="M142.4,177v3.2c0,1.9-0.5,3.7-1.6,5.4
						c-1.1,1.7-2.6,2.6-4.6,2.6c-1.2,0-2.1-0.3-2.9-0.8c-0.8-0.5-1.6-1.5-2.3-2.8c-0.7-1.4-1.1-2.8-1.1-4.4V177
						c0-1.9,0.5-3.7,1.6-5.4c1.1-1.7,2.6-2.6,4.6-2.6c1.2,0,2.1,0.3,2.9,0.8c0.8,0.5,1.6,1.4,2.3,2.8C142,174,142.4,175.5,142.4,177
						z M139.5,177c0-1.6-0.4-2.9-1.3-4.1c-0.5-0.6-1.2-1-2.1-1c-0.9,0-1.6,0.4-2.1,1.1c-0.8,1.1-1.3,2.4-1.3,4v3.2
						c0,1.6,0.4,2.9,1.3,4.1c0.5,0.6,1.2,1,2.1,1c0.9,0,1.6-0.4,2.1-1.1c0.8-1.1,1.3-2.4,1.3-4V177z"/>
				</g>
			</g>
			<g id="XMLID_00000002361894215817389630000018112736025409106360_">
				<g id="XMLID_00000046317569502522697540000005631357790921407875_">
					<path id="XMLID_00000165194802961693303310000008257366281308078993_" class="st1" d="M156.2,143.7v15.8h2.9
						c0.7,0,1.2,0.1,1.5,0.4c0.3,0.3,0.4,0.6,0.4,1c0,0.4-0.1,0.8-0.4,1c-0.3,0.3-0.8,0.4-1.5,0.4h-8.7c-0.7,0-1.2-0.1-1.5-0.4
						c-0.3-0.3-0.4-0.6-0.4-1c0-0.4,0.1-0.8,0.4-1c0.3-0.3,0.8-0.4,1.5-0.4h2.9v-12l-2.6,0.7c-0.4,0.1-0.7,0.2-0.9,0.2
						c-0.4,0-0.7-0.1-0.9-0.4c-0.3-0.3-0.4-0.6-0.4-1.1c0-0.4,0.1-0.7,0.3-0.9c0.2-0.2,0.6-0.4,1.2-0.6L156.2,143.7z"/>
					<path id="XMLID_00000158025188374695411790000010113069614385108096_" class="st1" d="M178.3,151.7v3.2c0,1.9-0.5,3.7-1.6,5.4
						c-1.1,1.7-2.6,2.6-4.6,2.6c-1.2,0-2.1-0.3-2.9-0.8c-0.8-0.5-1.6-1.5-2.3-2.8c-0.7-1.4-1.1-2.8-1.1-4.4v-3.2
						c0-1.9,0.5-3.7,1.6-5.4c1.1-1.7,2.6-2.6,4.6-2.6c1.2,0,2.1,0.3,2.9,0.8c0.8,0.5,1.6,1.4,2.3,2.8
						C177.9,148.7,178.3,150.1,178.3,151.7z M175.4,151.7c0-1.6-0.4-2.9-1.3-4.1c-0.5-0.6-1.2-1-2.1-1c-0.9,0-1.6,0.4-2.1,1.1
						c-0.8,1.1-1.3,2.4-1.3,4v3.2c0,1.6,0.4,2.9,1.3,4.1c0.5,0.6,1.2,1,2.1,1c0.9,0,1.6-0.4,2.1-1.1c0.8-1.1,1.3-2.4,1.3-4V151.7z"
						/>
					<path id="XMLID_00000049937683731897465480000004278166314501326993_" class="st1" d="M190.7,143.7v15.8h2.9
						c0.7,0,1.2,0.1,1.5,0.4c0.3,0.3,0.4,0.6,0.4,1c0,0.4-0.1,0.8-0.4,1c-0.3,0.3-0.8,0.4-1.5,0.4h-8.7c-0.7,0-1.2-0.1-1.5-0.4
						c-0.3-0.3-0.4-0.6-0.4-1c0-0.4,0.1-0.8,0.4-1c0.3-0.3,0.8-0.4,1.5-0.4h2.9v-12l-2.6,0.7c-0.4,0.1-0.7,0.2-0.9,0.2
						c-0.4,0-0.7-0.1-0.9-0.4c-0.3-0.3-0.4-0.6-0.4-1.1c0-0.4,0.1-0.7,0.3-0.9c0.2-0.2,0.6-0.4,1.2-0.6L190.7,143.7z"/>
					<path id="XMLID_00000103962601892950790280000015087092433865051315_" class="st1" d="M212.8,151.7v3.2c0,1.9-0.5,3.7-1.6,5.4
						c-1.1,1.7-2.6,2.6-4.6,2.6c-1.2,0-2.1-0.3-2.9-0.8c-0.8-0.5-1.6-1.5-2.3-2.8c-0.7-1.4-1.1-2.8-1.1-4.4v-3.2
						c0-1.9,0.5-3.7,1.6-5.4c1.1-1.7,2.6-2.6,4.6-2.6c1.2,0,2.1,0.3,2.9,0.8c0.8,0.5,1.6,1.4,2.3,2.8
						C212.4,148.7,212.8,150.1,212.8,151.7z M209.9,151.7c0-1.6-0.4-2.9-1.3-4.1c-0.5-0.6-1.2-1-2.1-1c-0.9,0-1.6,0.4-2.1,1.1
						c-0.8,1.1-1.3,2.4-1.3,4v3.2c0,1.6,0.4,2.9,1.3,4.1c0.5,0.6,1.2,1,2.1,1c0.9,0,1.6-0.4,2.1-1.1c0.8-1.1,1.3-2.4,1.3-4V151.7z"
						/>
				</g>
				<g id="XMLID_00000021085058083483333450000005195138790628545978_">
					<path id="XMLID_00000062872536359138039060000000450854042456865161_" class="st1" d="M161,202.1v3.2c0,1.9-0.5,3.7-1.6,5.4
						c-1.1,1.7-2.6,2.6-4.6,2.6c-1.2,0-2.1-0.3-2.9-0.8c-0.8-0.5-1.6-1.5-2.3-2.8c-0.7-1.4-1.1-2.8-1.1-4.4v-3.2
						c0-1.9,0.5-3.7,1.6-5.4c1.1-1.7,2.6-2.6,4.6-2.6c1.2,0,2.1,0.3,2.9,0.8c0.8,0.5,1.6,1.4,2.3,2.8
						C160.6,199.1,161,200.5,161,202.1z M158.1,202.1c0-1.6-0.4-2.9-1.3-4.1c-0.5-0.6-1.2-1-2.1-1c-0.9,0-1.6,0.4-2.1,1.1
						c-0.8,1.1-1.3,2.4-1.3,4v3.2c0,1.6,0.4,2.9,1.3,4.1c0.5,0.6,1.2,1,2.1,1c0.9,0,1.6-0.4,2.1-1.1c0.8-1.1,1.3-2.4,1.3-4V202.1z"
						/>
					<path id="XMLID_00000077294557610878189810000004787199015804846468_" class="st1" d="M173.4,194.1v15.8h2.9
						c0.7,0,1.2,0.1,1.5,0.4c0.3,0.3,0.4,0.6,0.4,1c0,0.4-0.1,0.8-0.4,1c-0.3,0.3-0.8,0.4-1.5,0.4h-8.7c-0.7,0-1.2-0.1-1.5-0.4
						c-0.3-0.3-0.4-0.6-0.4-1c0-0.4,0.1-0.8,0.4-1c0.3-0.3,0.8-0.4,1.5-0.4h2.9v-12l-2.6,0.7c-0.4,0.1-0.7,0.2-0.9,0.2
						c-0.4,0-0.7-0.1-0.9-0.4c-0.3-0.3-0.4-0.6-0.4-1.1c0-0.4,0.1-0.7,0.3-0.9c0.2-0.2,0.6-0.4,1.2-0.6L173.4,194.1z"/>
					<path id="XMLID_00000139984426126698151760000017945948447461904258_" class="st1" d="M190.7,194.1v15.8h2.9
						c0.7,0,1.2,0.1,1.5,0.4c0.3,0.3,0.4,0.6,0.4,1c0,0.4-0.1,0.8-0.4,1c-0.3,0.3-0.8,0.4-1.5,0.4h-8.7c-0.7,0-1.2-0.1-1.5-0.4
						c-0.3-0.3-0.4-0.6-0.4-1c0-0.4,0.1-0.8,0.4-1c0.3-0.3,0.8-0.4,1.5-0.4h2.9v-12l-2.6,0.7c-0.4,0.1-0.7,0.2-0.9,0.2
						c-0.4,0-0.7-0.1-0.9-0.4c-0.3-0.3-0.4-0.6-0.4-1.1c0-0.4,0.1-0.7,0.3-0.9c0.2-0.2,0.6-0.4,1.2-0.6L190.7,194.1z"/>
					<path id="XMLID_00000166638008083749414150000003515151988851042749_" class="st1" d="M212.8,202.1v3.2c0,1.9-0.5,3.7-1.6,5.4
						c-1.1,1.7-2.6,2.6-4.6,2.6c-1.2,0-2.1-0.3-2.9-0.8c-0.8-0.5-1.6-1.5-2.3-2.8c-0.7-1.4-1.1-2.8-1.1-4.4v-3.2
						c0-1.9,0.5-3.7,1.6-5.4c1.1-1.7,2.6-2.6,4.6-2.6c1.2,0,2.1,0.3,2.9,0.8c0.8,0.5,1.6,1.4,2.3,2.8
						C212.4,199.1,212.8,200.5,212.8,202.1z M209.9,202.1c0-1.6-0.4-2.9-1.3-4.1c-0.5-0.6-1.2-1-2.1-1c-0.9,0-1.6,0.4-2.1,1.1
						c-0.8,1.1-1.3,2.4-1.3,4v3.2c0,1.6,0.4,2.9,1.3,4.1c0.5,0.6,1.2,1,2.1,1c0.9,0,1.6-0.4,2.1-1.1c0.8-1.1,1.3-2.4,1.3-4V202.1z"
						/>
				</g>
				<g id="XMLID_00000008844800313637057870000016527180411066018711_">
					<path id="XMLID_00000070114038265019146910000008312981109365006219_" class="st1" d="M161,177v3.2c0,1.9-0.5,3.7-1.6,5.4
						c-1.1,1.7-2.6,2.6-4.6,2.6c-1.2,0-2.1-0.3-2.9-0.8c-0.8-0.5-1.6-1.5-2.3-2.8c-0.7-1.4-1.1-2.8-1.1-4.4V177
						c0-1.9,0.5-3.7,1.6-5.4s2.6-2.6,4.6-2.6c1.2,0,2.1,0.3,2.9,0.8c0.8,0.5,1.6,1.4,2.3,2.8C160.6,174,161,175.5,161,177z
						 M158.1,177c0-1.6-0.4-2.9-1.3-4.1c-0.5-0.6-1.2-1-2.1-1c-0.9,0-1.6,0.4-2.1,1.1c-0.8,1.1-1.3,2.4-1.3,4v3.2
						c0,1.6,0.4,2.9,1.3,4.1c0.5,0.6,1.2,1,2.1,1c0.9,0,1.6-0.4,2.1-1.1c0.8-1.1,1.3-2.4,1.3-4V177z"/>
					<path id="XMLID_00000015341687791691945910000016300272837192572846_" class="st1" d="M173.4,169.1v15.8h2.9
						c0.7,0,1.2,0.1,1.5,0.4c0.3,0.3,0.4,0.6,0.4,1c0,0.4-0.1,0.8-0.4,1c-0.3,0.3-0.8,0.4-1.5,0.4h-8.7c-0.7,0-1.2-0.1-1.5-0.4
						c-0.3-0.3-0.4-0.6-0.4-1c0-0.4,0.1-0.8,0.4-1c0.3-0.3,0.8-0.4,1.5-0.4h2.9v-12l-2.6,0.7c-0.4,0.1-0.7,0.2-0.9,0.2
						c-0.4,0-0.7-0.1-0.9-0.4c-0.3-0.3-0.4-0.6-0.4-1.1c0-0.4,0.1-0.7,0.3-0.9c0.2-0.2,0.6-0.4,1.2-0.6L173.4,169.1z"/>
					<path id="XMLID_00000014606654233886082680000001636976993133560710_" class="st1" d="M195.5,177v3.2c0,1.9-0.5,3.7-1.6,5.4
						c-1.1,1.7-2.6,2.6-4.6,2.6c-1.2,0-2.1-0.3-2.9-0.8c-0.8-0.5-1.6-1.5-2.3-2.8c-0.7-1.4-1.1-2.8-1.1-4.4V177
						c0-1.9,0.5-3.7,1.6-5.4c1.1-1.7,2.6-2.6,4.6-2.6c1.2,0,2.1,0.3,2.9,0.8c0.8,0.5,1.6,1.4,2.3,2.8
						C195.2,174,195.5,175.5,195.5,177z M192.6,177c0-1.6-0.4-2.9-1.3-4.1c-0.5-0.6-1.2-1-2.1-1c-0.9,0-1.6,0.4-2.1,1.1
						c-0.8,1.1-1.3,2.4-1.3,4v3.2c0,1.6,0.4,2.9,1.3,4.1c0.5,0.6,1.2,1,2.1,1c0.9,0,1.6-0.4,2.1-1.1c0.8-1.1,1.3-2.4,1.3-4V177z"/>
					<path id="XMLID_00000134220882929554773410000004835304559371146676_" class="st1" d="M212.8,177v3.2c0,1.9-0.5,3.7-1.6,5.4
						c-1.1,1.7-2.6,2.6-4.6,2.6c-1.2,0-2.1-0.3-2.9-0.8c-0.8-0.5-1.6-1.5-2.3-2.8c-0.7-1.4-1.1-2.8-1.1-4.4V177
						c0-1.9,0.5-3.7,1.6-5.4c1.1-1.7,2.6-2.6,4.6-2.6c1.2,0,2.1,0.3,2.9,0.8c0.8,0.5,1.6,1.4,2.3,2.8
						C212.4,174,212.8,175.5,212.8,177z M209.9,177c0-1.6-0.4-2.9-1.3-4.1c-0.5-0.6-1.2-1-2.1-1c-0.9,0-1.6,0.4-2.1,1.1
						c-0.8,1.1-1.3,2.4-1.3,4v3.2c0,1.6,0.4,2.9,1.3,4.1c0.5,0.6,1.2,1,2.1,1c0.9,0,1.6-0.4,2.1-1.1c0.8-1.1,1.3-2.4,1.3-4V177z"/>
				</g>
			</g>
		</g>
	</g>
	<path class="st2" d="M194.5,364.6c0,0,2.8,46.8,2.8,49.1s2.2,55.5,2.2,55.5h-18.7"/>
	<polyline class="st2" points="237.2,364.6 234.2,416.9 232.2,469.1 249.8,469.1 	"/>
	<path class="st3" d="M286.5,277.2H139.2c-6.6,0-12-5.4-12-12v-14.3c0-6.6,5.4-12,12-12h147.3c6.6,0,12,5.4,12,12v14.3
		C298.5,271.8,293.1,277.2,286.5,277.2z"/>
	<g>
		<ellipse class="st4" cx="214.4" cy="367.4" rx="63" ry="27.2"/>
		<ellipse class="st5" cx="213.8" cy="132.3" rx="75.3" ry="29.9"/>
		<path class="st6" d="M138.5,132.3c0,16.5,33.7,29.9,75.3,29.9s75.3-13.4,75.3-29.9c0,0,0.4,216.6,0,221.3
			c-1.5,16.4-33.7,29.9-75.3,29.9s-75.3-13.4-75.3-29.9V132.3z"/>
		<path class="st7" d="M151.4,351.5V184.7l0-35.7c2.4,1.4,5,2.7,7.9,3.9l0,15v190l0,16.3c-2.9-1.2-5.5-2.5-7.9-3.9L151.4,351.5z"/>
		<path class="st7" d="M186.2,337.3V167.2l0-7.1c-2.7-0.4-5.4-0.9-7.9-1.5l0,6.4v171.8l0,43.1c2.6,0.5,5.2,1,7.9,1.5L186.2,337.3z"
			/>
		<path class="st7" d="M220.8,379.4V169.4l0-7.2c-2.3,0.1-4.6,0.1-7,0.1c-0.3,0-0.6,0-0.9,0v7.1v209.9v4.3c0.3,0,0.6,0,0.9,0
			c2.4,0,4.7,0,7-0.1V379.4z"/>
		<polygon class="st7" points="241.8,381.4 241.8,160.1 249.7,158.6 249.7,379.8 		"/>
		<path class="st7" d="M269.6,354.9v18.5c2.4-1.1,6.3-3.3,7.9-4.3l0-14.2V169.6l0-21.2c-2.3,1.4-5,2.7-7.9,4.1"/>
	</g>
	<path class="st3" d="M135.9,299.1v55c0,16.5,35.2,29.9,78.6,29.9s77-13.5,78.6-29.9c0.2-1.5,0.2-25.9,0.2-57.9l-0.2-37.8
		c0,16.5-35.2,29.9-78.6,29.9s-78.6-13.4-78.6-29.9V299.1z"/>
	<path id="XMLID_00000098905966819944963570000008675600026003464082_" class="st8" d="M251.2,233.6"/>
	<path id="XMLID_00000127734948957567863970000017488040257438818989_" class="st8" d="M263.9,251.7"/>
	<g>
		<path class="st9" d="M158.5,183.3c-0.4,0-0.8-0.1-1.2-0.2c-1.8-0.7-2.7-2.6-2.1-4.4c3-8.2,12.8-16.4,25.9-16.4c0.1,0,0.3,0,0.4,0
			c1.9,0,3.4,1.6,3.4,3.5c0,1.9-1.6,3.5-3.5,3.4c-0.1,0-0.2,0-0.3,0c-11,0-17.7,7.2-19.4,11.8C161.2,182.4,159.9,183.3,158.5,183.3z
			"/>
	</g>
	<g>
		<path class="st9" d="M269.5,183.3c-1.4,0-2.7-0.9-3.3-2.3c-1.7-4.7-8.5-12-19.7-11.8c-1.9,0.1-3.5-1.5-3.5-3.4
			c0-1.9,1.5-3.5,3.4-3.5c0.1,0,0.3,0,0.4,0c13.1,0,22.9,8.2,25.9,16.4c0.7,1.8-0.3,3.8-2.1,4.4
			C270.3,183.2,269.9,183.3,269.5,183.3z"/>
	</g>
	<g>
		<path class="st10" d="M175.2,239.2c0,0.2,0,0.4,0,0.7c0,17.4,17.8,31.5,39.9,31.5s39.9-14.1,39.9-31.5c0-0.2,0-0.4,0-0.7H175.2z"
			/>
		<path class="st11" d="M175.1,239c0,0.2,0,0.6,0,0.8c0,3.8,0.8,7.4,2.4,10.8h75.1c1.5-3.4,2.4-7,2.4-10.8c0-0.2,0-0.6,0-0.8H175.1z
			"/>
		<path class="st8" d="M215,271.3c9.4,0,18.1-2.6,24.9-6.9c-1.4-1.4-3-2.7-4.8-3.9c-8.1-5.5-17.4-6.4-22.9-2.8
			c-7.8-2.7-15.4-1.6-18.8,3.5c-0.9,1.3-1.4,2.7-1.6,4.3C198.4,269.2,206.4,271.3,215,271.3z"/>
	</g>
	<circle class="st11" cx="184.2" cy="204.8" r="20"/>
	<path class="st10" d="M191.4,204.8c0,4-3.2,7.2-7.2,7.2c-4,0-7.2-3.2-7.2-7.2c0-4,3.2-7.2,7.2-7.2
		C188.1,197.6,191.4,200.8,191.4,204.8z"/>
	<path class="st2" d="M141.1,287.7"/>
	<path class="st2" d="M140.9,378.8"/>
	<circle class="st11" cx="241.9" cy="204.8" r="20"/>
	<path class="st10" d="M249.1,204.8c0,4-3.2,7.2-7.2,7.2c-4,0-7.2-3.2-7.2-7.2c0-4,3.2-7.2,7.2-7.2
		C245.9,197.6,249.1,200.8,249.1,204.8z"/>
	<g>
		<g id="mask_00000030456680966089865900000016891850615450939777_">
			<g>
				<linearGradient id="SVGID_1_" gradientUnits="userSpaceOnUse" x1="242.9645" y1="228.9655" x2="242.9645" y2="180.134">
					<stop  offset="0.3618" style="stop-color:#FFFFFF"/>
					<stop  offset="0.4151" style="stop-color:#F5F9FC"/>
					<stop  offset="0.5063" style="stop-color:#DAE8F4"/>
					<stop  offset="0.624" style="stop-color:#AECDE6"/>
					<stop  offset="0.7639" style="stop-color:#70A7D4"/>
					<stop  offset="0.9207" style="stop-color:#2378BD"/>
					<stop  offset="0.9878" style="stop-color:#0062B2"/>
				</linearGradient>
				<circle class="st12" cx="243" cy="204.5" r="24.4"/>
				
					<linearGradient id="SVGID_00000083069384797720443410000004581910276962080164_" gradientUnits="userSpaceOnUse" x1="183.8279" y1="228.9655" x2="183.8279" y2="180.134">
					<stop  offset="0.3618" style="stop-color:#FFFFFF"/>
					<stop  offset="0.4151" style="stop-color:#F5F9FC"/>
					<stop  offset="0.5063" style="stop-color:#DAE8F4"/>
					<stop  offset="0.624" style="stop-color:#AECDE6"/>
					<stop  offset="0.7639" style="stop-color:#70A7D4"/>
					<stop  offset="0.9207" style="stop-color:#2378BD"/>
					<stop  offset="0.9878" style="stop-color:#0062B2"/>
				</linearGradient>
				
					<circle style="opacity:0.2;fill:url(#SVGID_00000083069384797720443410000004581910276962080164_);" cx="183.8" cy="204.5" r="24.4"/>
				<polygon class="st14" points="158.4,205 138.5,195.7 138.5,191.4 159.8,202.1 				"/>
				<polygon class="st14" points="268.3,205 289.2,195.7 289.2,192.1 266.9,202.1 				"/>
				<path class="st14" d="M157.8,204.8c0,14.4,11.7,26.1,26.1,26.1c12.8,0,23.6-9.2,25.7-21.8l0.1-0.8h7.5l0.1,0.8
					c2.1,12.6,12.9,21.8,25.7,21.8c14.4,0,26.1-11.7,26.1-26.1c0-14.4-11.7-26.1-26.1-26.1c-14.1,0-25.6,11.1-26,25.2l0,0.9h-7.1
					l0-0.9c-0.5-14.1-11.9-25.2-26-25.2C169.5,178.7,157.8,190.4,157.8,204.8z M227.1,188.8c4.3-4.3,9.9-6.6,15.9-6.6
					c6,0,11.7,2.3,15.9,6.6c4.3,4.3,6.6,9.9,6.6,15.9c0,6-2.3,11.7-6.6,15.9l0,0c-4.3,4.3-9.9,6.6-15.9,6.6c-6,0-11.7-2.3-15.9-6.6
					c-4.3-4.3-6.6-9.9-6.6-15.9C220.5,198.8,222.8,193.1,227.1,188.8z M183.8,182.2c6,0,11.7,2.3,16,6.6c4.3,4.3,6.6,9.9,6.6,15.9
					c0,6-2.3,11.7-6.6,15.9l0,0c-4.3,4.3-9.9,6.6-16,6.6c-6,0-11.7-2.3-15.9-6.6c-4.3-4.3-6.6-9.9-6.6-15.9c0-6,2.3-11.7,6.6-15.9
					C172.2,184.6,177.8,182.2,183.8,182.2z"/>
				<path class="st15" d="M225.6,193.9c3.5-5.3,7.1-6.8,7.1-6.8l2.8,2.1c0,0-3.4,2.3-5.7,6.3c-2.3,3.8-2.6,7-2.6,7l-4.6-0.9
					C222.6,201.6,222.9,198,225.6,193.9z"/>
				<path class="st16" d="M166.5,193.9c3.5-5.3,7-6.8,7-6.8l2.9,2.1c0,0-3.4,2.3-5.7,6.3c-2.3,3.8-2.6,7-2.6,7l-4.6-0.9
					C163.5,201.6,163.8,198,166.5,193.9z"/>
			</g>
		</g>
	</g>
	<g>
		<path class="st2" d="M139.5,284.2L139.5,284.2c0,0-29.5,20.6-23.4,34.2"/>
	</g>
	<g>
		<g>
			<path class="st17" d="M74.1,337.8C74.1,337.8,74.1,337.8,74.1,337.8L74.1,337.8C74.1,337.8,74.1,337.8,74.1,337.8 M74,337
				c0,0.1,0,0.2,0,0.4C74,337.2,74,337.1,74,337"/>
			<path class="st18" d="M21.9,284.7c-0.9-1.3-1.4-4.1,3.8-5.3C31.4,278.2,22.5,285.7,21.9,284.7z"/>
			<polyline class="st19" points="137.6,319.2 174.2,307.9 70.7,329.5 137.6,319.2 			"/>
			<path class="st18" d="M175.4,312l-38,10.9c-0.8,0.2-1.7-0.2-2-1.1l-0.3-1c-0.2-0.8,0.2-1.7,1.1-2l38-10.9c0.8-0.2,1.7,0.2,2,1.1
				l0.3,1C176.7,310.9,176.2,311.8,175.4,312z"/>
			<path class="st20" d="M135.5,321.9L135.5,321.9c0.2,0.8,1.2,1.2,2.3,0.9l37.4-10.8c1-0.3,1.6-1.2,1.4-2l0,0L135.5,321.9z"/>
			<polyline class="st21" points="138.4,314.9 138.9,315.8 139.2,316.1 174.2,307.9 138.4,314.9 			"/>
			<path class="st22" d="M139.9,317.2c0,0,2,3.3-2.5,5.7C133.7,324.9,137,318,139.9,317.2z"/>
			<path class="st18" d="M137.8,321.2l-75.6,16.3c-1.2,0.2-2.3-0.2-3-1.2l-35.4-52.4c-1.1-1.7-0.2-4,1.8-4.4l75.6-16.3
				c1.2-0.2,2.3,0.2,3,1.2l35.4,52.4C140.7,318.4,139.8,320.7,137.8,321.2"/>
			<path class="st23" d="M136.6,323.2L61,339.5c-1.2,0.2-2.3-0.2-3-1.2l-36.1-53.4c-0.8-1.2-0.1-2.8,1.3-3.1l76.8-16.6
				c1.2-0.2,2.3,0.2,3,1.2l35.4,52.4C139.5,320.4,138.6,322.8,136.6,323.2"/>
			<polyline class="st24" points="115.9,285.5 117.5,287.9 115.9,285.5 			"/>
			<path class="st25" d="M76.6,318"/>
			<polyline class="st26" points="102,330.7 102,330.7 102,330.6 102,330.6 102,330.7 			"/>
			<g>
				<polygon class="st18" points="77.1,298 76.9,301.8 78.1,302 78.2,300.6 82.1,304.8 82.3,301 81.1,300.7 81,302.1 				"/>
				<path class="st18" d="M84.1,297.4c-0.8-0.6-1.6-1.1-2.5-1.5c-0.9-0.4-1.9-0.6-2.8-0.7c-1-0.1-1.9,0-2.8,0.3
					c-0.9,0.2-1.6,0.6-2.2,1.2c-0.6,0.5-1,1.1-1.2,1.8c-0.2,0.7-0.3,1.5-0.2,2.2c0.1,0.8,0.4,1.6,0.9,2.4c0.5,0.8,1.1,1.5,1.9,2.1
					c0.8,0.6,1.6,1.1,2.5,1.5c0.9,0.4,1.9,0.6,2.8,0.7c1,0.1,1.9,0,2.8-0.3c0.9-0.2,1.6-0.6,2.2-1.2c0.6-0.5,1-1.1,1.2-1.8
					c0.2-0.7,0.3-1.5,0.2-2.2c-0.1-0.8-0.4-1.6-0.9-2.4C85.5,298.7,84.9,298,84.1,297.4z M82.8,306.4l-3.9-4.2l0,0.6l-2.7-0.6
					l0.3-5.8l3.9,4.2l0-0.6l2.6,0.6L82.8,306.4z"/>
			</g>
		</g>
		<line class="st2" x1="101.2" y1="330.2" x2="88.4" y2="332.7"/>
		<line class="st2" x1="95.1" y1="330.8" x2="92.7" y2="327.1"/>
		<line class="st2" x1="88.4" y1="332.7" x2="85.9" y2="329.1"/>
		<line class="st2" x1="101.8" y1="330" x2="99.3" y2="326.3"/>
	</g>
	<g>
		<path class="st2" d="M329.5,326L329.5,326c0,0-25.4,1.8-32.2-11.5c-10.1-19.7-10.1-30.2-10.1-30.2"/>
	</g>
	<line class="st2" x1="334.2" y1="327.7" x2="325.8" y2="327.9"/>
	<line class="st2" x1="334.4" y1="321.7" x2="326" y2="321.9"/>
	<line class="st2" x1="325.3" y1="311.5" x2="324.7" y2="331.2"/>
	<line class="st2" x1="334.2" y1="331.3" x2="325.8" y2="331.5"/>
	
		<radialGradient id="SVGID_00000105403264197532348250000006651131222397398171_" cx="214.5008" cy="159.3644" r="39.5307" gradientTransform="matrix(1.028679e-13 -1 1.8566 1.909891e-13 -81.3823 373.8652)" gradientUnits="userSpaceOnUse">
		<stop  offset="0" style="stop-color:#FF8C1F"/>
		<stop  offset="1" style="stop-color:#FEAF06"/>
	</radialGradient>
	<path style="fill:url(#SVGID_00000105403264197532348250000006651131222397398171_);" d="M269.1,152.6
		c-1.8-37.4-105.8-35.9-109.1,0.5C187.2,165.4,242,164.9,269.1,152.6z"/>
	<path class="st11" d="M251.4,343.3c-0.2,0-0.5-0.1-0.6-0.1c-0.7-0.1-1.4-0.2-2.1-0.2c-1.3-0.1-2.6-0.3-3.9-0.6
		c-0.4-0.2-0.7-0.5-0.9-0.9l-0.9-0.3c0.9-6.9-0.7-13.8-4.5-19.6c0.2-0.2,0.7-0.6,0.8-0.7c0-0.4,0.1-0.9,0.4-1.2
		c1-0.9,2.1-1.6,3.2-2.3c0.6-0.3,1.2-0.7,1.8-1.1c0.1-0.1,0.3-0.3,0.5-0.4c1-0.7,1.3-2,0.7-3c-0.7-1-2-1.3-3-0.7
		c-0.1,0.1-0.2,0.2-0.4,0.3c-0.1,0.1-0.4,0.3-0.5,0.4c-0.5,0.5-1,1-1.4,1.5c-0.9,1-1.9,1.9-2.9,2.7c-0.4,0.2-0.9,0.2-1.3,0.1
		l-0.8,0.6c-4.8-5-11.2-8.1-18.1-8.7c0-0.3,0-0.8-0.1-1c-0.4-0.3-0.6-0.6-0.7-1.1c0-1.3,0-2.6,0.2-4c0.1-0.7,0.2-1.4,0.3-2.1
		c0-0.2,0-0.4,0-0.6c0.1-1.2-0.8-2.3-2-2.4c-1.2-0.1-2.3,0.8-2.4,2c0,0.1,0,0.3,0,0.4c0,0,0,0,0,0.1c0,0.2,0,0.4,0,0.6
		c0.1,0.7,0.2,1.4,0.3,2.1c0.2,1.3,0.3,2.6,0.2,4c-0.1,0.4-0.4,0.8-0.7,1.1l-0.1,0.9c-1.3,0.1-2.6,0.3-3.9,0.6
		c-5.4,1.2-10.4,4.1-14.2,8.1c-0.3-0.2-0.5-0.4-0.8-0.6c-0.4,0.1-0.9,0.1-1.3-0.1c-1.1-0.8-2-1.7-2.9-2.7c-0.4-0.5-0.9-1-1.4-1.5
		c-0.1-0.1-0.3-0.3-0.5-0.4c-0.4-0.3-1-0.5-1.5-0.6c-0.7,0-1.3,0.3-1.7,0.8c-0.7,1-0.5,2.5,0.5,3.2l0,0c0.1,0.1,0.3,0.3,0.5,0.4
		c0.6,0.4,1.2,0.7,1.8,1.1c1.2,0.7,2.2,1.4,3.2,2.3c0.3,0.4,0.4,0.8,0.4,1.3l0.7,0.6c-3.9,5.8-5.4,12.8-4.4,19.7l-0.9,0.3
		c-0.2,0.4-0.6,0.7-0.9,0.9c-1.3,0.3-2.6,0.6-3.9,0.6c-0.7,0-1.4,0.1-2.1,0.2c-0.2,0-0.4,0.1-0.6,0.1l0,0l0,0
		c-1.2,0.2-2,1.3-1.9,2.5s1.3,2,2.5,1.9c0.1,0,0.3,0,0.4-0.1l0,0c0,0,0,0,0,0c0.2,0,0.4-0.1,0.6-0.1c0.7-0.2,1.3-0.5,2-0.7
		c1.2-0.5,2.5-0.9,3.8-1.1c0.5,0,0.9,0.2,1.3,0.4l0.9-0.2c2.1,6.6,6.6,12.2,12.6,15.7l-0.4,0.9c0.2,0.4,0.3,0.8,0.2,1.2
		c-0.5,1.2-1.2,2.4-2,3.5c-0.4,0.6-0.8,1.1-1.2,1.7c-0.1,0.2-0.2,0.4-0.3,0.6c-0.6,1-0.3,2.4,0.7,3c1,0.6,2.4,0.3,3-0.7
		c0.1-0.1,0.1-0.3,0.2-0.4l0,0v0c0.1-0.2,0.2-0.4,0.3-0.6c0.2-0.7,0.5-1.3,0.6-2c0.4-1.4,0.9-2.7,1.7-3.9c0.3-0.2,0.6-0.4,0.9-0.5
		l0.5-0.9c6.5,2.5,13.6,2.5,20.1,0.1c0.1,0.2,0.4,0.7,0.5,0.8c0.4,0.1,0.8,0.3,1.1,0.7c0.6,1.2,1.1,2.4,1.5,3.7
		c0.2,0.7,0.4,1.3,0.6,2c0.1,0.2,0.2,0.4,0.3,0.6c0.4,1.1,1.7,1.7,2.8,1.3c1.1-0.4,1.7-1.7,1.3-2.8c0-0.1-0.1-0.3-0.2-0.4
		c-0.1-0.2-0.2-0.4-0.3-0.6c-0.4-0.6-0.7-1.2-1.2-1.7c-0.8-1.1-1.4-2.2-1.9-3.5c-0.1-0.4-0.1-0.9,0.2-1.3c-0.1-0.3-0.3-0.6-0.4-0.9
		c6-3.5,10.5-9.2,12.6-15.8c0.3,0,0.8,0.1,0.9,0.2c0.3-0.3,0.8-0.5,1.2-0.5c1.3,0.2,2.6,0.6,3.8,1.1c0.6,0.3,1.3,0.5,2,0.8
		c0.2,0,0.4,0.1,0.6,0.1c0,0,0,0,0,0l0,0c1.1,0.4,2.4-0.2,2.8-1.4c0.4-1.1-0.2-2.4-1.4-2.8C251.7,343.4,251.5,343.3,251.4,343.3
		L251.4,343.3z M230.7,321.1l-9.3,6.6l0,0c-0.9,0.6-2.1,0.4-2.7-0.4c-0.2-0.3-0.3-0.7-0.4-1l0,0l-0.6-11.4
		C222.6,315.5,227.2,317.7,230.7,321.1L230.7,321.1z M213.2,333.6h3.5l2.2,2.7l-0.8,3.4l-3.1,1.5l-3.2-1.5l-0.8-3.4L213.2,333.6z
		 M209.9,315.2c0.8-0.2,1.5-0.3,2.3-0.4l-0.6,11.4l0,0c0,1.1-0.9,1.9-2,1.8c-0.4,0-0.7-0.1-1-0.4l0,0l-9.4-6.6
		C202,318.2,205.8,316.2,209.9,315.2z M195.7,325.4l8.6,7.7l0,0c0.8,0.7,0.9,1.9,0.2,2.7c-0.2,0.3-0.6,0.5-0.9,0.6l0,0l-11,3.2
		C191.9,334.6,193.1,329.7,195.7,325.4L195.7,325.4z M207.1,345.7l-4.4,10.5c-4.2-2.7-7.4-6.7-9.1-11.3L205,343l0,0
		c0.1,0,0.3,0,0.4,0c1.1,0,1.9,0.9,1.9,1.9C207.2,345.2,207.2,345.5,207.1,345.7L207.1,345.7z M220,359.3c-4.1,0.9-8.3,0.7-12.3-0.6
		l5.5-10h0c0.5-0.9,1.7-1.3,2.6-0.8c0.3,0.2,0.6,0.4,0.8,0.8h0l5.5,10C221.5,358.9,220.7,359.1,220,359.3L220,359.3z M227.1,356.3
		l-4.4-10.6l0,0c-0.4-0.9,0-2,0.9-2.5c0.2-0.1,0.5-0.2,0.7-0.2c0.1,0,0.3,0,0.4,0l0,0l11.3,1.9C234.5,349.6,231.3,353.6,227.1,356.3
		L227.1,356.3z M237.4,339.6l-11-3.2l0,0c-1-0.3-1.6-1.3-1.3-2.4c0.1-0.4,0.3-0.7,0.6-0.9l0,0l8.5-7.6
		C236.7,329.6,237.9,334.6,237.4,339.6L237.4,339.6z"/>
</g>
</svg>
