<?xml version="1.0" encoding="UTF-8" standalone="no"?>
<!DOCTYPE svg PUBLIC "-//W3C//DTD SVG 1.1//EN" "http://www.w3.org/Graphics/SVG/1.1/DTD/svg11.dtd">
<!-- Generated by Microsoft Visio, SVG Export openziti-logo-v3-dark.svg b -->
<svg xmlns="http://www.w3.org/2000/svg" xmlns:xlink="http://www.w3.org/1999/xlink" xmlns:ev="http://www.w3.org/2001/xml-events"
		width="45in" height="9.5in" viewBox="0 0 3240 684" xml:space="preserve" color-interpolation-filters="sRGB" class="st6">
	<style type="text/css">
	<![CDATA[
		.st1 {fill:none;stroke:none;stroke-linecap:round;stroke-linejoin:round;stroke-width:0.75}
		.st2 {fill:#3f3f3f;font-family:Russo One;font-size:50em}
		.st3 {font-size:0.8em}
		.st4 {fill:url(#grad0-12);stroke:none;stroke-linecap:butt;stroke-width:3.03873}
		.st5 {fill:#ffffff;stroke:none;stroke-linecap:butt;stroke-width:3.03873}
		.st6 {fill:none;fill-rule:evenodd;font-size:12px;overflow:visible;stroke-linecap:square;stroke-miterlimit:3}
	]]>
	</style>

	<defs id="Patterns_And_Gradients">
		<linearGradient id="grad0-12" x1="0" y1="0" x2="1" y2="0" gradientTransform="rotate(-116.99999444949 0.5 0.5)">
			<stop offset="0.005" stop-color="#fc0147" stop-opacity="1"/>
			<stop offset="0.04" stop-color="#f4044d" stop-opacity="1"/>
			<stop offset="0.9" stop-color="#0068f9" stop-opacity="1"/>
		</linearGradient>
	</defs>
	<g>
		<title>ziti-logo-dark</title>
		<g id="shape7-1">
			<title>Sheet.7</title>
			<rect x="0" y="0" width="3240" height="684" class="st1"/>
		</g>
		<g id="group10-3" transform="translate(26.625,-9)">
			<title>Sheet.10</title>
			<g id="shape11-4" transform="translate(657,-3.18323E-12)">
				<title>Sheet.11</title>
				<desc>OpenZiti</desc>
				<rect x="0" y="81" width="2556.38" height="603" class="st1"/>
				<text x="4" y="562.5" class="st2">O<tspan class="st3">PEN</tspan>Z<tspan class="st3">ITI</tspan></text>			</g>
			<g id="shape12-9" transform="translate(6.45883E-12,-19.5194)">
				<title>Sheet.12</title>
				<ellipse cx="313.481" cy="370.519" rx="313.481" ry="313.481" class="st4"/>
			</g>
			<g id="shape13-13" transform="translate(139.152,-58.1208)">
				<title>Sheet.13</title>
				<path d="M175.57 128.64 L0 395.73 L99.62 460.8 L116.12 435.58 L168.1 684 L340.88 415.35 L244.06 351.84 L227.56 377.37
							 L175.57 128.64 ZM254.33 396.67 L296.98 425.31 L183.36 599.33 L131.06 350.91 L88.72 415.66 L47.01 388.26
							 L161.25 213.62 L212.93 460.17 L254.33 396.67 Z" class="st5"/>
			</g>
		</g>
	</g>
</svg>
